<svg width="950" height="950" viewBox="0 0 950 950" fill="none" xmlns="http://www.w3.org/2000/svg">
<rect width="950" height="950" rx="475" fill="#103939"/>
<path d="M747.485 627.385L746.943 553.218L748.207 322.794C748.207 302.992 761.565 293.811 794.779 293.091C796.765 293.091 798.39 291.291 798.39 289.311V283.37C798.39 281.21 796.765 279.59 794.599 279.59H678.168C676.002 279.59 674.377 281.21 674.377 283.37V289.311C674.377 291.291 676.002 293.091 678.168 293.091C717.159 293.631 724.56 302.272 724.56 322.794V593.182C724.56 596.782 719.866 598.402 717.7 595.342L500.182 301.732C498.557 299.572 499.64 296.512 502.348 295.792C509.027 294.171 517.15 293.271 527.259 293.091C529.244 293.091 531.049 291.291 531.049 289.311C531.049 287.511 531.049 285.17 531.049 283.37C531.049 281.21 529.425 279.59 527.259 279.59H483.935H410.828H397.108C394.942 279.59 393.318 281.21 393.318 283.37V289.311C393.318 291.291 394.942 293.091 397.108 293.091C431.767 293.811 445.306 303.532 445.306 323.874V452.228C445.306 454.388 443.681 456.008 441.515 456.008H237.354C235.188 456.008 233.563 454.388 233.563 452.228V323.874C233.563 303.532 245.297 293.811 281.76 293.091C283.746 293.091 285.551 291.291 285.551 289.311V283.37C285.551 281.21 283.927 279.59 281.76 279.59H151.791C149.625 279.59 148 281.21 148 283.37V289.311C148 291.291 149.625 293.091 151.791 293.091C190.782 293.631 199.446 303.352 199.446 323.874V619.285C199.446 643.407 189.338 653.668 151.791 654.388C149.805 654.388 148 656.188 148 658.169C148 659.969 148 662.309 148 664.109C148 666.269 149.625 667.89 151.791 667.89H281.76C283.927 667.89 285.551 666.269 285.551 664.109V658.169C285.551 656.188 283.927 654.388 281.76 654.388C244.575 653.668 233.563 643.407 233.563 619.285V484.991C233.563 482.831 235.188 481.21 237.354 481.21H441.515C443.681 481.21 445.306 482.831 445.306 484.991V619.285C445.306 643.227 431.587 653.668 397.108 654.388C395.123 654.388 393.318 656.188 393.318 658.169V664.109C393.318 666.269 394.942 667.89 397.108 667.89H410.647H530.869C533.035 667.89 534.66 666.269 534.66 664.109V658.169C534.66 656.188 533.035 654.388 530.869 654.388C511.012 654.028 498.196 651.508 490.073 646.107C481.95 640.347 478.701 631.706 478.701 619.285V338.096C478.701 334.495 483.394 332.875 485.56 335.756L718.061 644.487C719.505 646.287 718.964 648.988 716.798 650.068C708.855 654.388 697.302 656.728 681.598 656.908C679.612 656.908 677.987 658.709 677.987 660.689V666.629C677.987 668.79 679.612 670.41 681.778 670.41H737.737H746.402H798.209C800.375 670.41 802 668.79 802 666.629V660.689C802 658.709 800.375 656.908 798.209 656.908C759.038 656.548 747.485 647.727 747.485 627.385Z" fill="#F2F8F3"/>
</svg>
