<svg width="77" height="128" viewBox="0 0 77 128" fill="none" xmlns="http://www.w3.org/2000/svg">
<g clip-path="url(#clip0_97_150)">
<path d="M74.3076 86.7675C59.9487 86.7675 47.7435 94.6554 41.1025 106.308C41.1025 71.7086 41.1025 37.1092 41.1025 2.50976C41.1025 -0.896402 35.7179 -0.896402 35.7179 2.50976C35.7179 36.9299 35.7179 71.5294 35.7179 105.95C29.0769 94.6554 16.5128 87.3053 2.51277 86.7675C-0.897486 86.5882 -0.897486 91.9663 2.51277 92.1456C20.4615 92.6834 35.7179 106.846 35.7179 125.311C35.7179 127.104 36.9743 128 38.4102 127.821C39.8461 127.821 41.1025 126.924 41.1025 125.311C41.641 107.384 55.8205 92.1456 74.3076 92.1456C77.8974 92.1456 77.8974 86.7675 74.3076 86.7675Z" fill="#103939"/>
</g>
<defs>
<clipPath id="clip0_97_150">
<rect width="77" height="128" fill="white"/>
</clipPath>
</defs>
</svg>
