<svg width="654" height="391" viewBox="0 0 654 391" fill="none" xmlns="http://www.w3.org/2000/svg">
<g clip-path="url(#clip0_88_3194)">
<path d="M599.485 347.796L598.943 273.628L600.207 43.2044C600.207 23.4024 613.565 14.2215 646.779 13.5014C648.765 13.5014 650.39 11.7012 650.39 9.72099V3.78039C650.39 1.62017 648.765 0 646.599 0H530.168C528.002 0 526.377 1.62017 526.377 3.78039V9.72099C526.377 11.7012 528.002 13.5014 530.168 13.5014C569.159 14.0414 576.56 22.6823 576.56 43.2044V313.592C576.56 317.192 571.866 318.813 569.7 315.752L352.182 22.1423C350.557 19.982 351.64 16.9217 354.348 16.2017C361.027 14.5815 369.15 13.6814 379.259 13.5014C381.244 13.5014 383.049 11.7012 383.049 9.72099C383.049 7.92081 383.049 5.58057 383.049 3.78039C383.049 1.62017 381.425 0 379.259 0H335.935H262.828H249.108C246.942 0 245.318 1.62017 245.318 3.78039V9.72099C245.318 11.7012 246.942 13.5014 249.108 13.5014C283.767 14.2215 297.306 23.9424 297.306 44.2845V172.638C297.306 174.798 295.681 176.418 293.515 176.418H89.3541C87.188 176.418 85.5634 174.798 85.5634 172.638V44.2845C85.5634 23.9424 97.2967 14.2215 133.76 13.5014C135.746 13.5014 137.551 11.7012 137.551 9.72099V3.78039C137.551 1.62017 135.927 0 133.76 0H3.79078C1.62462 0 0 1.62017 0 3.78039V9.72099C0 11.7012 1.62462 13.5014 3.79078 13.5014C42.7817 14.0414 51.4463 23.7624 51.4463 44.2845V339.695C51.4463 363.817 41.3376 374.078 3.79078 374.798C1.80513 374.798 0 376.599 0 378.579C0 380.379 0 382.719 0 384.519C0 386.68 1.62462 388.3 3.79078 388.3H133.76C135.927 388.3 137.551 386.68 137.551 384.519V378.579C137.551 376.599 135.927 374.798 133.76 374.798C96.5747 374.078 85.5634 363.817 85.5634 339.695V205.401C85.5634 203.241 87.188 201.621 89.3541 201.621H293.515C295.681 201.621 297.306 203.241 297.306 205.401V339.695C297.306 363.637 283.587 374.078 249.108 374.798C247.123 374.798 245.318 376.599 245.318 378.579V384.519C245.318 386.68 246.942 388.3 249.108 388.3H262.647H382.869C385.035 388.3 386.66 386.68 386.66 384.519V378.579C386.66 376.599 385.035 374.798 382.869 374.798C363.012 374.438 350.196 371.918 342.073 366.517C333.95 360.757 330.701 352.116 330.701 339.695V58.506C330.701 54.9056 335.394 53.2854 337.56 56.1657L570.061 364.897C571.505 366.698 570.964 369.398 568.798 370.478C560.855 374.798 549.302 377.139 533.598 377.319C531.612 377.319 529.987 379.119 529.987 381.099V387.04C529.987 389.2 531.612 390.82 533.778 390.82H589.737H598.402H650.209C652.375 390.82 654 389.2 654 387.04V381.099C654 379.119 652.375 377.319 650.209 377.319C611.038 376.959 599.485 368.138 599.485 347.796Z" fill="#103939"/>
</g>
<defs>
<clipPath id="clip0_88_3194">
<rect width="654" height="391" fill="white"/>
</clipPath>
</defs>
</svg>
