<svg xmlns="http://www.w3.org/2000/svg" viewBox="0 0 563.81 72.91"><defs><style>.cls-1{fill:none;stroke:#1d1d1b;stroke-miterlimit:10;}</style></defs><g id="Layer_2" data-name="Layer 2"><g id="Layer_1-2" data-name="Layer 1"><polygon class="cls-1" points="38.43 39.21 27.26 39.21 27.26 54.99 0.5 54.99 0.5 63.98 66.01 63.98 66.01 54.99 38.43 54.99 38.43 39.21"/><path class="cls-1" d="M22.9,35.48a31.79,31.79,0,0,0,9.88-10.85,31.26,31.26,0,0,0,10,10.89A41.76,41.76,0,0,0,59.33,42l4.72-9.37A36.49,36.49,0,0,1,50,27.73a24.66,24.66,0,0,1-8.41-8.38,19.65,19.65,0,0,1-2.76-9.94v-5h-12v5a19.57,19.57,0,0,1-2.74,9.86,24.76,24.76,0,0,1-8.39,8.42,35.87,35.87,0,0,1-14,4.92L6.44,42A40.55,40.55,0,0,0,22.9,35.48Z"/><path class="cls-1" d="M124.25,53.92a19.76,19.76,0,0,0-8.57-4.08,54,54,0,0,0-13.5-1.33,55,55,0,0,0-13.63,1.33,19.78,19.78,0,0,0-8.64,4.08,8.38,8.38,0,0,0-3,6.46,8.54,8.54,0,0,0,2.94,6.53,19.3,19.3,0,0,0,8.62,4,59.72,59.72,0,0,0,13.67,1.35A58.25,58.25,0,0,0,115.71,71a19.34,19.34,0,0,0,8.54-4,8.5,8.5,0,0,0,3-6.53A8.39,8.39,0,0,0,124.25,53.92Zm-9.8,8.53A12.71,12.71,0,0,1,110,63.66a63,63,0,0,1-7.81.39,66.4,66.4,0,0,1-8-.39,12.78,12.78,0,0,1-4.53-1.21,2.37,2.37,0,0,1-1.44-2.07,2.35,2.35,0,0,1,1.44-2.13,13.68,13.68,0,0,1,4.47-1.11,74.46,74.46,0,0,1,8.07-.35,71.85,71.85,0,0,1,7.91.35,13.11,13.11,0,0,1,4.39,1.11,2.35,2.35,0,0,1,1.41,2.13A2.37,2.37,0,0,1,114.45,62.45Z"/><polygon class="cls-1" points="107.81 33.63 128.16 33.63 128.16 25.07 88.74 25.07 88.74 21.95 125.89 21.95 125.89 13.9 88.74 13.9 88.74 10.77 127.53 10.77 127.53 2.18 77.49 2.18 77.49 25.07 77.49 29.95 77.49 33.63 96.52 33.63 96.52 37.14 69.44 37.14 69.44 45.93 134.99 45.93 134.99 37.14 107.81 37.14 107.81 33.63"/><polygon class="cls-1" points="165.11 1.71 153.86 1.71 153.86 10.97 138.39 10.97 138.39 19.95 180.31 19.95 180.31 10.97 165.11 10.97 165.11 1.71"/><path class="cls-1" d="M169,25.52a21.55,21.55,0,0,0-19,0,16.54,16.54,0,0,0-6.64,6.17,16.9,16.9,0,0,0-2.4,8.93,16.79,16.79,0,0,0,2.4,8.9A16.59,16.59,0,0,0,150,55.68a21.63,21.63,0,0,0,19,0,17,17,0,0,0,0-30.16ZM166.24,45a6.57,6.57,0,0,1-2.71,2.81,8.25,8.25,0,0,1-4.05,1,8.37,8.37,0,0,1-4-1A6.65,6.65,0,0,1,152.67,45a9.07,9.07,0,0,1-1-4.39,9.11,9.11,0,0,1,1-4.4,6.87,6.87,0,0,1,2.77-2.83,8.27,8.27,0,0,1,4-1,8.15,8.15,0,0,1,4.05,1,6.79,6.79,0,0,1,2.71,2.83,9.34,9.34,0,0,1,1,4.4A9.29,9.29,0,0,1,166.24,45Z"/><polygon class="cls-1" points="195.62 0.5 184.52 0.5 184.52 72.22 195.62 72.22 195.62 37.38 205.77 37.38 205.77 28.2 195.62 28.2 195.62 0.5"/><polygon class="cls-1" points="266.16 19.41 226.98 19.41 226.98 3.08 215.77 3.08 215.77 19.41 215.77 23.82 215.77 28.2 266.16 28.2 266.16 19.41"/><rect class="cls-1" x="207.84" y="35.15" width="65.51" height="8.79"/><polygon class="cls-1" points="226.36 49.33 215.03 49.33 215.03 61.71 215.03 64.25 215.03 70.73 266.63 70.73 266.63 61.71 226.36 61.71 226.36 49.33"/><path class="cls-1" d="M325.4,45.73c-3.66.19-8.65.3-14.94.34V15.77h23.83V6.67h-35V55.58h6.25q13,0,20.35-.45a98.16,98.16,0,0,0,14-1.74l-1-9.18A109.53,109.53,0,0,1,325.4,45.73Z"/><rect class="cls-1" x="343.82" y="0.5" width="11.45" height="71.91"/><path class="cls-1" d="M398.82,40.81a31.34,31.34,0,0,1-5.7-10.27,35.78,35.78,0,0,1-1.84-11.29V16.48h14V7.34h-40v9.14H380v2.77a39.49,39.49,0,0,1-1.91,12.17,34.65,34.65,0,0,1-5.84,10.86A26.88,26.88,0,0,1,362.3,50l6.52,8.87A28.61,28.61,0,0,0,380,49.7a41.48,41.48,0,0,0,5.89-11.31,40.42,40.42,0,0,0,5.44,9.79,28.22,28.22,0,0,0,11,8.84l6.21-8.79A27.46,27.46,0,0,1,398.82,40.81Z"/><polygon class="cls-1" points="421.01 0.5 409.72 0.5 409.72 72.22 421.01 72.22 421.01 36.75 431.16 36.75 431.16 27.41 421.01 27.41 421.01 0.5"/><path class="cls-1" d="M464.15,8.59a16.84,16.84,0,0,0-19.67,0,20.92,20.92,0,0,0-6.81,9,34.24,34.24,0,0,0-2.48,13.55,34.49,34.49,0,0,0,2.48,13.64,20.92,20.92,0,0,0,6.81,9,16.84,16.84,0,0,0,19.67,0,20.6,20.6,0,0,0,6.8-9,35,35,0,0,0,2.44-13.64A34.79,34.79,0,0,0,471,17.57,20.6,20.6,0,0,0,464.15,8.59ZM461.53,39.7a11.12,11.12,0,0,1-2.85,5.23,6.3,6.3,0,0,1-8.69,0,11.23,11.23,0,0,1-2.89-5.23,31.06,31.06,0,0,1-1-8.58,31.08,31.08,0,0,1,1-8.55A11.44,11.44,0,0,1,450,17.3a6.48,6.48,0,0,1,8.71,0,11.4,11.4,0,0,1,2.83,5.27,31.5,31.5,0,0,1,1,8.55A31.48,31.48,0,0,1,461.53,39.7Z"/><rect class="cls-1" x="482.1" y="0.5" width="11.45" height="71.91"/><polygon class="cls-1" points="552.06 0.5 552.06 22.26 533.39 22.26 533.39 31.32 552.06 31.32 552.06 72.41 563.31 72.41 563.31 0.5 552.06 0.5"/><path class="cls-1" d="M528.47,45.75q-5.57.48-11.17.61V8.08H506.05V55.73h6.21q8.87,0,17.07-.66a132,132,0,0,0,16.29-2.34l-1.14-9.22A147.45,147.45,0,0,1,528.47,45.75Z"/></g></g></svg>