<svg xmlns="http://www.w3.org/2000/svg" viewBox="0 0 201.7 72.72"><defs><style>.cls-1{fill:none;stroke:#1d1d1b;stroke-miterlimit:10;}</style></defs><g id="Layer_2" data-name="Layer 2"><g id="Layer_1-2" data-name="Layer 1"><path class="cls-1" d="M31.09,25.52a20.22,20.22,0,0,0-9.5-2.21,20.32,20.32,0,0,0-9.51,2.21,16.54,16.54,0,0,0-6.64,6.17A16.9,16.9,0,0,0,3,40.62a16.79,16.79,0,0,0,2.4,8.9,16.59,16.59,0,0,0,6.64,6.16,20.32,20.32,0,0,0,9.51,2.2,20.22,20.22,0,0,0,9.5-2.2,17,17,0,0,0,0-30.16ZM28.35,45a6.63,6.63,0,0,1-2.71,2.81,8.25,8.25,0,0,1-4.05,1,8.37,8.37,0,0,1-4-1A6.65,6.65,0,0,1,14.78,45a9.07,9.07,0,0,1-1-4.39,9.11,9.11,0,0,1,1-4.4,6.87,6.87,0,0,1,2.77-2.83,8.27,8.27,0,0,1,4-1,8.15,8.15,0,0,1,4.05,1,6.86,6.86,0,0,1,2.71,2.83,9.34,9.34,0,0,1,1,4.4A9.29,9.29,0,0,1,28.35,45Z"/><polygon class="cls-1" points="57.73 0.5 46.63 0.5 46.63 72.22 57.73 72.22 57.73 37.38 67.88 37.38 67.88 28.2 57.73 28.2 57.73 0.5"/><polygon class="cls-1" points="27.22 1.71 15.97 1.71 15.97 10.97 0.5 10.97 0.5 19.95 42.41 19.95 42.41 10.97 27.22 10.97 27.22 1.71"/><path class="cls-1" d="M106.07,41.18A29.89,29.89,0,0,1,100.29,31a37.12,37.12,0,0,1-1.86-11.7V16.48H112.8V7.34H72.3v9.14H87v2.77a41.11,41.11,0,0,1-1.88,12.36,32.29,32.29,0,0,1-5.84,10.86A26.51,26.51,0,0,1,69.29,50l6.37,8.87A29.3,29.3,0,0,0,87,49.74a40.54,40.54,0,0,0,5.93-11.11,37.14,37.14,0,0,0,5.54,9.72A28.52,28.52,0,0,0,109.91,57L116,48.23A25.52,25.52,0,0,1,106.07,41.18Z"/><rect class="cls-1" x="118.82" y="0.5" width="11.45" height="71.72"/><polygon class="cls-1" points="162.22 61.95 162.22 46.79 150.81 46.79 150.81 61.95 150.81 66.09 150.81 70.93 201.2 70.93 201.2 61.95 162.22 61.95"/><rect class="cls-1" x="188.08" y="0.66" width="11.29" height="50.78"/><path class="cls-1" d="M178.16,6.12H142.73v35h35.43ZM167,32.3h-13.2V15H167Z"/></g></g></svg>