<?xml version="1.0" encoding="utf-8"?>
<!-- Generator: Adobe Illustrator 24.0.2, SVG Export Plug-In . SVG Version: 6.00 Build 0)  -->
<svg version="1.1" id="Layer_1" xmlns="http://www.w3.org/2000/svg" xmlns:xlink="http://www.w3.org/1999/xlink" x="0px" y="0px"
	 viewBox="0 0 362.3 563.8" style="enable-background:new 0 0 362.3 563.8;" xml:space="preserve">
<style type="text/css">
	.st0{fill:#380203;}
</style>
<g>
	<path class="st0" d="M145.5,16c-1.2,1.4-3.4,2.7-6.8,3.6v124.1c-0.2,1.5-10.4,6.6-18.2,6.6h-3.4v-15.5H50v9c0,2.7-8.3,7.8-17.5,7.8
		h-3.6V2l22.4,9.2h64.1L125.6,0L145.5,16z M50,16.1v53.4h67.1V16.1H50z M117.1,129.9V74.3H50v55.6H117.1z"/>
	<path class="st0" d="M39.3,320.3c13.8,13.1,33.1,16.3,69.7,16.3c19.4,0,35.2-0.2,54.9-1.4v2.2c-7.8,1.7-12.4,8.7-13.4,16.7h-47.9
		c-35.7,0-51.3-8-65.4-27.7c-2.5-3.2-4.4-2.9-6.3,0c-3.2,5.6-10.9,17.3-15.8,26.7c0.5,1.5-0.2,2.9-1.5,3.7L0,336.8
		c6.1-3.4,14.1-8.5,20.7-12.8v-60h-18l-0.9-4.8h16l9.7-12.7L48.1,263c-1.4,1.5-3.9,2.9-8.8,3.7V320.3z M9.7,200.8
		c47.8,15.1,33,50.1,15.3,37.1c-2.2-12.1-10-26.5-17-36.2L9.7,200.8z M41.3,255.5c9.9-13.8,20.4-36.4,26.3-58.6l26.2,10.2
		c-0.8,2.2-3.1,3.2-7,2.9c-3.2,6.1-7,11.9-11,17.2l3.9,1.4h28.7c-1.5-0.5-3.2-1.5-4.8-2.9c0-9.9-4.2-20.9-8.8-28.2l1.7-0.9
		c30.1,9.3,27.4,28.7,18,32h14.3l10-12.4c0,0,11.4,8.5,18.4,14.6c-0.5,1.9-2.2,2.7-4.6,2.7h-34.3v21.8h9l9.9-12.2
		c0,0,11,8.3,17.9,14.5c-0.5,1.9-2.4,2.7-4.8,2.7h-32v22.8h9l9.9-12.4c0,0,11,8.5,17.9,14.4c-0.5,1.9-2.4,2.7-4.8,2.7h-32v24.8h12.9
		l10.4-13.3c0,0,11.9,9,19.4,15.5c-0.5,1.9-2.4,2.7-4.8,2.7H77.3v4.8c0,1.2-5.9,5.8-15.8,5.8H58V246c-4.8,4.3-9.7,7.8-14.8,11
		L41.3,255.5z M77.3,233.4v21.8h21.9v-21.8H77.3z M99.3,260.1H77.3v22.8h21.9V260.1z M99.3,287.6H77.3v24.8h21.9V287.6z"/>
	<path class="st0" d="M339.5,219.7c-1,1.4-3.4,2.9-6.8,3.6v111.9c0,14.1-3.4,22.1-28,24.5c-0.7-6.8-1.7-11.7-4.8-14.8
		c-3.2-3.2-7.7-5.4-17.5-7.3v-2.2c0,0,21.2,1.4,25.5,1.4c3.2,0,4.1-1.4,4.1-3.9v-35.9h-56.6c-3.9,24-15.6,47.1-49,62.7l-1.5-1.4
		c28-24.6,32.1-55.9,32.1-89.8V207l23.5,8.2h49.8l9.4-10.9L339.5,219.7z M312,292.1v-34.3h-54.7v10.5c0,7.8-0.2,15.8-1.2,23.8H312z
		 M257.2,220v33H312v-33H257.2z"/>
	<path class="st0" d="M341.5,451.8c0,0,13.1,9.5,20.7,16.3c-0.3,1.9-2.4,2.7-4.8,2.7H204.7l-1.4-4.8h28.2v-49.3l24.6,2.2
		c-0.3,2-1.5,3.6-5.6,4.3V466h22.1v-62l26.5,2.2c-0.3,2.4-1.7,4.1-6.1,4.8v23.3h21.3l11.6-14.5c0,0,13.1,9.7,21.2,16.5
		c-0.5,1.9-2.4,2.7-4.9,2.7h-49.1v27H330L341.5,451.8z M205.9,561.2c49.1-11.2,90.1-27.7,117-78.9l24.5,13.6c-1.2,2-3.6,2.5-8,1.7
		c-35.5,49.6-77,61.7-132.9,66.1L205.9,561.2z M264.7,491c-1,1.5-2.4,2.5-6.3,2c-10.9,13.6-29.1,29.2-50.1,38.3l-1.4-2
		c14.6-13.6,27.7-35.5,33.5-51L264.7,491z M292.7,520.6c0,2.4-10,7.5-18,7.5h-2v-53.9l26.2,1.9c-0.2,2.6-1.4,4.1-6.1,4.9V520.6z"/>
</g>
</svg>
