<svg width="40" height="40" viewBox="0 0 40 40" fill="none" xmlns="http://www.w3.org/2000/svg">
<path d="M36.6666 8.33331C36.6666 5.57665 34.4233 3.33331 31.6666 3.33331H8.33325C5.57659 3.33331 3.33325 5.57665 3.33325 8.33331V13.0516C3.33325 14.8066 3.96992 16.4016 4.99992 17.6283V31.6666C4.99992 33.505 6.49492 35 8.33325 35H31.6666C33.5049 35 34.9999 33.505 34.9999 31.6666V17.6266C36.0299 16.4016 36.6666 14.8066 36.6666 13.05V8.33331ZM33.3333 8.33331V13.0516C33.3333 14.9516 31.9183 16.5716 30.1816 16.6633L29.9999 16.6666C28.1616 16.6666 26.6666 15.1716 26.6666 13.3333V6.66665H31.6666C32.5866 6.66665 33.3333 7.41498 33.3333 8.33331ZM16.6666 6.66665H23.3333V13.3333C23.3333 15.1716 21.8383 16.6666 19.9999 16.6666C18.1616 16.6666 16.6666 15.1716 16.6666 13.3333V6.66665ZM6.66659 8.33331C6.66659 7.41498 7.41325 6.66665 8.33325 6.66665H13.3333V13.3333C13.3333 15.1716 11.8383 16.6666 9.99992 16.6666L9.81825 16.6616C8.08159 16.5716 6.66659 14.9516 6.66659 13.0516V8.33331ZM16.6666 31.6666V26.6666H23.3333V31.6666H16.6666ZM26.6666 31.6666V26.6666C26.6666 24.8283 25.1716 23.3333 23.3333 23.3333H16.6666C14.8283 23.3333 13.3333 24.8283 13.3333 26.6666V31.6666H8.33325V19.7816C8.75659 19.8933 9.19492 19.9666 9.64492 19.99C10.6497 20.0445 11.6538 19.8702 12.5814 19.4801C13.5091 19.0901 14.336 18.4945 14.9999 17.7383C16.2216 19.125 18.0116 20 19.9999 20C21.9883 20 23.7783 19.125 24.9999 17.7383C25.6638 18.4945 26.4908 19.0901 27.4184 19.4801C28.346 19.8702 29.3501 20.0445 30.3549 19.99C30.8066 19.9666 31.2433 19.8933 31.6666 19.7816V31.6666H26.6666Z" fill="#008250"/>
</svg>
