<svg width="78" height="77" viewBox="0 0 78 77" fill="none" xmlns="http://www.w3.org/2000/svg">
<path d="M16.6172 49.5086V58.7342C19.4354 62.19 22.9881 64.9746 27.0172 66.8854C31.0462 68.7963 35.4504 69.7856 39.9097 69.7812C50.3143 69.7812 59.4869 64.4971 64.8866 56.4675V43.5363C63.0386 55.671 52.5593 64.9688 39.9097 64.9688C29.4329 64.9688 20.4455 58.5922 16.6172 49.5086ZM60.435 24.9673V20.8237C60.4279 19.9098 60.5777 19.0015 60.8778 18.1383C55.269 12.6702 47.7428 9.61449 39.9097 9.625C32.8999 9.6146 26.1085 12.0626 20.7174 16.543L20.7295 16.6898L20.7319 16.7547V23.2516C23.1015 20.4837 26.0431 18.2624 29.3539 16.7408C32.6647 15.2191 36.266 14.4333 39.9097 14.4375C48.3652 14.4375 55.8487 18.5907 60.435 24.9673Z" fill="white"/>
<path d="M59.1597 39.7031C59.1597 44.8085 57.1315 49.7049 53.5215 53.3149C49.9114 56.925 45.0151 58.9531 39.9097 58.9531C34.8043 58.9531 29.9079 56.925 26.2979 53.3149C22.6878 49.7049 20.6597 44.8085 20.6597 39.7031C20.6597 34.5977 22.6878 29.7014 26.2979 26.0913C29.9079 22.4812 34.8043 20.4531 39.9097 20.4531C45.0151 20.4531 49.9114 22.4812 53.5215 26.0913C57.1315 29.7014 59.1597 34.5977 59.1597 39.7031ZM39.9097 56.5469C42.1216 56.5469 44.3119 56.1112 46.3555 55.2647C48.3991 54.4183 50.2559 53.1775 51.82 51.6135C53.3841 50.0494 54.6248 48.1925 55.4713 46.149C56.3177 44.1054 56.7534 41.9151 56.7534 39.7031C56.7534 37.4912 56.3177 35.3009 55.4713 33.2573C54.6248 31.2137 53.3841 29.3569 51.82 27.7928C50.2559 26.2287 48.3991 24.988 46.3555 24.1415C44.3119 23.2951 42.1216 22.8594 39.9097 22.8594C35.4424 22.8594 31.1582 24.634 27.9993 27.7928C24.8405 30.9516 23.0659 35.2359 23.0659 39.7031C23.0659 44.1704 24.8405 48.4546 27.9993 51.6135C31.1582 54.7723 35.4424 56.5469 39.9097 56.5469ZM72.37 19.1056C72.37 16.94 70.6134 15.1834 68.4478 15.1834C65.3197 15.1834 62.8172 17.71 62.8412 20.8141V34.1688C62.8412 37.1838 64.5882 39.8836 67.2928 41.106V61.8406C67.2928 63.0919 68.3034 64.1025 69.5547 64.1025H70.1081C71.3594 64.1025 72.37 63.0919 72.37 61.8406V19.1056ZM16.6172 15.1834C16.1832 15.1834 15.767 15.3558 15.4602 15.6627C15.1533 15.9695 14.9809 16.3857 14.9809 16.8197V23.2925C14.9809 23.7738 14.5959 24.1347 14.1387 24.1347C13.6575 24.1347 13.2965 23.7497 13.2965 23.2925V16.8919C13.2965 16.0016 12.5987 15.2075 11.7084 15.1834C10.77 15.1594 9.99998 15.9053 9.99998 16.8197V23.2925C9.99998 23.7738 9.61498 24.1347 9.15779 24.1347C8.67654 24.1347 8.31561 23.7497 8.31561 23.2925V16.8919C8.31561 16.0016 7.61779 15.2075 6.72748 15.1834C5.78904 15.1594 5.01904 15.9053 5.01904 16.8197V27.8403C5.01904 30.0108 6.07057 31.9478 7.68757 33.1557C9.13373 33.9714 9.13373 37.7059 9.13373 37.7059V61.8166C9.13373 63.0678 10.1444 64.0784 11.3956 64.0784H11.949C13.2003 64.0784 14.2109 63.0678 14.2109 61.8166V37.7059C14.2109 37.7059 14.2109 34.1182 15.6571 33.1557C16.4848 32.5385 17.1571 31.7366 17.6204 30.8138C18.0837 29.891 18.3251 28.8729 18.3256 27.8403V16.8197C18.3012 16.3812 18.1113 15.9684 17.7941 15.6646C17.477 15.3608 17.0563 15.1889 16.6172 15.1834Z" fill="white"/>
</svg>
