<svg width="56" height="56" viewBox="0 0 56 56" fill="none" xmlns="http://www.w3.org/2000/svg">
<circle cx="28" cy="28" r="28" fill="#008250" fill-opacity="0.76"/>
<path d="M35.5945 26.1283C35.3065 26.4163 34.9586 26.5545 34.5507 26.543C34.1428 26.5305 33.7948 26.3803 33.5069 26.0923L29.4397 22.0251L29.4397 38.078C29.4397 38.4859 29.3015 38.8281 29.0251 39.1045C28.7496 39.38 28.4079 39.5177 28 39.5177C27.5921 39.5177 27.2499 39.38 26.9735 39.1045C26.698 38.8281 26.5603 38.4859 26.5603 38.078L26.5603 22.0251L22.4571 26.1283C22.1691 26.4163 21.827 26.5603 21.4306 26.5603C21.0351 26.5603 20.6934 26.4163 20.4055 26.1283C20.1175 25.8404 19.9736 25.4982 19.9736 25.1018C19.9736 24.7064 20.1175 24.3647 20.4055 24.0767L26.9922 17.49C27.1362 17.3461 27.2921 17.2438 27.4601 17.1834C27.6281 17.1239 27.808 17.0941 28 17.0941C28.192 17.0941 28.3719 17.1239 28.5399 17.1834C28.7078 17.2438 28.8638 17.3461 29.0078 17.49L35.6305 24.1127C35.8944 24.3767 36.0264 24.7064 36.0264 25.1018C36.0264 25.4982 35.8824 25.8404 35.5945 26.1283Z" fill="white"/>
</svg>
