<svg width="34" height="36" viewBox="0 0 34 36" fill="none" xmlns="http://www.w3.org/2000/svg">
<rect width="34" height="35.0303" rx="10" fill="white"/>
<g clip-path="url(#clip0_278_495)">
<mask id="path-2-inside-1_278_495" fill="white">
<path fill-rule="evenodd" clip-rule="evenodd" d="M12 10.5C12 9.83696 12.2634 9.20107 12.7322 8.73223C13.2011 8.26339 13.837 8 14.5 8H24.5C25.163 8 25.7989 8.26339 26.2678 8.73223C26.7366 9.20107 27 9.83696 27 10.5V20.5C27 21.163 26.7366 21.7989 26.2678 22.2678C25.7989 22.7366 25.163 23 24.5 23H14.5C13.837 23 13.2011 22.7366 12.7322 22.2678C12.2634 21.7989 12 21.163 12 20.5V10.5ZM14.5 9.25C14.1685 9.25 13.8505 9.3817 13.6161 9.61612C13.3817 9.85054 13.25 10.1685 13.25 10.5V20.5C13.25 20.8315 13.3817 21.1495 13.6161 21.3839C13.8505 21.6183 14.1685 21.75 14.5 21.75H24.5C24.8315 21.75 25.1495 21.6183 25.3839 21.3839C25.6183 21.1495 25.75 20.8315 25.75 20.5V10.5C25.75 10.1685 25.6183 9.85054 25.3839 9.61612C25.1495 9.3817 24.8315 9.25 24.5 9.25H14.5ZM9.5 14.25C9.16848 14.25 8.85054 14.3817 8.61612 14.6161C8.3817 14.8505 8.25 15.1685 8.25 15.5V25.5C8.25 25.8315 8.3817 26.1495 8.61612 26.3839C8.85054 26.6183 9.16848 26.75 9.5 26.75H19.5C19.8315 26.75 20.1495 26.6183 20.3839 26.3839C20.6183 26.1495 20.75 25.8315 20.75 25.5V24.25H22V25.5C22 26.163 21.7366 26.7989 21.2678 27.2678C20.7989 27.7366 20.163 28 19.5 28H9.5C8.83696 28 8.20107 27.7366 7.73223 27.2678C7.26339 26.7989 7 26.163 7 25.5V15.5C7 14.837 7.26339 14.2011 7.73223 13.7322C8.20107 13.2634 8.83696 13 9.5 13H10.75V14.25H9.5Z"/>
</mask>
<path fill-rule="evenodd" clip-rule="evenodd" d="M12 10.5C12 9.83696 12.2634 9.20107 12.7322 8.73223C13.2011 8.26339 13.837 8 14.5 8H24.5C25.163 8 25.7989 8.26339 26.2678 8.73223C26.7366 9.20107 27 9.83696 27 10.5V20.5C27 21.163 26.7366 21.7989 26.2678 22.2678C25.7989 22.7366 25.163 23 24.5 23H14.5C13.837 23 13.2011 22.7366 12.7322 22.2678C12.2634 21.7989 12 21.163 12 20.5V10.5ZM14.5 9.25C14.1685 9.25 13.8505 9.3817 13.6161 9.61612C13.3817 9.85054 13.25 10.1685 13.25 10.5V20.5C13.25 20.8315 13.3817 21.1495 13.6161 21.3839C13.8505 21.6183 14.1685 21.75 14.5 21.75H24.5C24.8315 21.75 25.1495 21.6183 25.3839 21.3839C25.6183 21.1495 25.75 20.8315 25.75 20.5V10.5C25.75 10.1685 25.6183 9.85054 25.3839 9.61612C25.1495 9.3817 24.8315 9.25 24.5 9.25H14.5ZM9.5 14.25C9.16848 14.25 8.85054 14.3817 8.61612 14.6161C8.3817 14.8505 8.25 15.1685 8.25 15.5V25.5C8.25 25.8315 8.3817 26.1495 8.61612 26.3839C8.85054 26.6183 9.16848 26.75 9.5 26.75H19.5C19.8315 26.75 20.1495 26.6183 20.3839 26.3839C20.6183 26.1495 20.75 25.8315 20.75 25.5V24.25H22V25.5C22 26.163 21.7366 26.7989 21.2678 27.2678C20.7989 27.7366 20.163 28 19.5 28H9.5C8.83696 28 8.20107 27.7366 7.73223 27.2678C7.26339 26.7989 7 26.163 7 25.5V15.5C7 14.837 7.26339 14.2011 7.73223 13.7322C8.20107 13.2634 8.83696 13 9.5 13H10.75V14.25H9.5Z" fill="black"/>
<path d="M14.5 8L14.5 6.125L14.5 8ZM12 20.5L10.125 20.5L12 20.5ZM14.5 9.25V7.375V9.25ZM8.25 15.5H6.375H8.25ZM8.25 25.5H6.375H8.25ZM20.75 24.25V22.375H18.875V24.25H20.75ZM22 24.25H23.875V22.375H22V24.25ZM7 25.5H5.125H7ZM7 15.5H5.125H7ZM9.5 13L9.5 11.125L9.5 13ZM10.75 13H12.625V11.125H10.75V13ZM10.75 14.25V16.125H12.625V14.25H10.75ZM13.875 10.5C13.875 10.3342 13.9408 10.1753 14.0581 10.0581L11.4064 7.40641C10.5859 8.22688 10.125 9.33968 10.125 10.5H13.875ZM14.0581 10.0581C14.1753 9.94085 14.3342 9.875 14.5 9.875L14.5 6.125C13.3397 6.125 12.2269 6.58594 11.4064 7.40641L14.0581 10.0581ZM14.5 9.875H24.5V6.125H14.5V9.875ZM24.5 9.875C24.6658 9.875 24.8247 9.94085 24.9419 10.0581L27.5936 7.40641C26.7731 6.58594 25.6603 6.125 24.5 6.125V9.875ZM24.9419 10.0581C25.0592 10.1753 25.125 10.3342 25.125 10.5H28.875C28.875 9.33968 28.4141 8.22688 27.5936 7.40641L24.9419 10.0581ZM25.125 10.5V20.5H28.875V10.5H25.125ZM25.125 20.5C25.125 20.6658 25.0592 20.8247 24.9419 20.9419L27.5936 23.5936C28.4141 22.7731 28.875 21.6603 28.875 20.5H25.125ZM24.9419 20.9419C24.8247 21.0592 24.6658 21.125 24.5 21.125V24.875C25.6603 24.875 26.7731 24.4141 27.5936 23.5936L24.9419 20.9419ZM24.5 21.125H14.5V24.875H24.5V21.125ZM14.5 21.125C14.3342 21.125 14.1753 21.0592 14.0581 20.9419L11.4064 23.5936C12.2269 24.4141 13.3397 24.875 14.5 24.875V21.125ZM14.0581 20.9419C13.9408 20.8247 13.875 20.6658 13.875 20.5L10.125 20.5C10.125 21.6603 10.5859 22.7731 11.4064 23.5936L14.0581 20.9419ZM13.875 20.5V10.5H10.125V20.5H13.875ZM14.5 7.375C13.6712 7.375 12.8763 7.70424 12.2903 8.29029L14.9419 10.9419C14.8247 11.0592 14.6658 11.125 14.5 11.125V7.375ZM12.2903 8.29029C11.7042 8.87634 11.375 9.6712 11.375 10.5H15.125C15.125 10.6658 15.0592 10.8247 14.9419 10.9419L12.2903 8.29029ZM11.375 10.5V20.5H15.125V10.5H11.375ZM11.375 20.5C11.375 21.3288 11.7042 22.1237 12.2903 22.7097L14.9419 20.0581C15.0592 20.1753 15.125 20.3342 15.125 20.5H11.375ZM12.2903 22.7097C12.8763 23.2958 13.6712 23.625 14.5 23.625V19.875C14.6658 19.875 14.8247 19.9408 14.9419 20.0581L12.2903 22.7097ZM14.5 23.625H24.5V19.875H14.5V23.625ZM24.5 23.625C25.3288 23.625 26.1237 23.2958 26.7097 22.7097L24.0581 20.0581C24.1753 19.9408 24.3342 19.875 24.5 19.875V23.625ZM26.7097 22.7097C27.2958 22.1237 27.625 21.3288 27.625 20.5H23.875C23.875 20.3342 23.9408 20.1753 24.0581 20.0581L26.7097 22.7097ZM27.625 20.5V10.5H23.875V20.5H27.625ZM27.625 10.5C27.625 9.67119 27.2958 8.87634 26.7097 8.29029L24.0581 10.9419C23.9408 10.8247 23.875 10.6658 23.875 10.5H27.625ZM26.7097 8.29029C26.1237 7.70424 25.3288 7.375 24.5 7.375V11.125C24.3342 11.125 24.1753 11.0592 24.0581 10.9419L26.7097 8.29029ZM24.5 7.375H14.5V11.125H24.5V7.375ZM9.5 12.375C8.6712 12.375 7.87634 12.7042 7.29029 13.2903L9.94194 15.9419C9.82473 16.0592 9.66576 16.125 9.5 16.125V12.375ZM7.29029 13.2903C6.70424 13.8763 6.375 14.6712 6.375 15.5H10.125C10.125 15.6658 10.0592 15.8247 9.94194 15.9419L7.29029 13.2903ZM6.375 15.5V25.5H10.125V15.5H6.375ZM6.375 25.5C6.375 26.3288 6.70424 27.1237 7.29029 27.7097L9.94194 25.0581C10.0592 25.1753 10.125 25.3342 10.125 25.5H6.375ZM7.29029 27.7097C7.87634 28.2958 8.67119 28.625 9.5 28.625V24.875C9.66576 24.875 9.82473 24.9408 9.94194 25.0581L7.29029 27.7097ZM9.5 28.625H19.5V24.875H9.5V28.625ZM19.5 28.625C20.3288 28.625 21.1237 28.2958 21.7097 27.7097L19.0581 25.0581C19.1753 24.9408 19.3342 24.875 19.5 24.875V28.625ZM21.7097 27.7097C22.2958 27.1237 22.625 26.3288 22.625 25.5H18.875C18.875 25.3342 18.9408 25.1753 19.0581 25.0581L21.7097 27.7097ZM22.625 25.5V24.25H18.875V25.5H22.625ZM20.75 26.125H22V22.375H20.75V26.125ZM20.125 24.25V25.5H23.875V24.25H20.125ZM20.125 25.5C20.125 25.6658 20.0592 25.8247 19.9419 25.9419L22.5936 28.5936C23.4141 27.7731 23.875 26.6603 23.875 25.5H20.125ZM19.9419 25.9419C19.8247 26.0592 19.6658 26.125 19.5 26.125V29.875C20.6603 29.875 21.7731 29.4141 22.5936 28.5936L19.9419 25.9419ZM19.5 26.125H9.5V29.875H19.5V26.125ZM9.5 26.125C9.33424 26.125 9.17527 26.0592 9.05806 25.9419L6.40641 28.5936C7.22688 29.4141 8.33968 29.875 9.5 29.875V26.125ZM9.05806 25.9419C8.94085 25.8247 8.875 25.6658 8.875 25.5H5.125C5.125 26.6603 5.58594 27.7731 6.40641 28.5936L9.05806 25.9419ZM8.875 25.5V15.5H5.125V25.5H8.875ZM8.875 15.5C8.875 15.3342 8.94085 15.1753 9.05806 15.0581L6.40641 12.4064C5.58594 13.2269 5.125 14.3397 5.125 15.5H8.875ZM9.05806 15.0581C9.17527 14.9408 9.33424 14.875 9.5 14.875L9.5 11.125C8.33968 11.125 7.22688 11.5859 6.40641 12.4064L9.05806 15.0581ZM9.5 14.875H10.75V11.125H9.5V14.875ZM8.875 13V14.25H12.625V13H8.875ZM10.75 12.375H9.5V16.125H10.75V12.375Z" fill="black" mask="url(#path-2-inside-1_278_495)"/>
</g>
<defs>
<clipPath id="clip0_278_495">
<rect width="20" height="20" fill="white" transform="translate(7 8)"/>
</clipPath>
</defs>
</svg>
