<svg width="80" height="80" viewBox="0 0 80 80" fill="none" xmlns="http://www.w3.org/2000/svg">
<circle cx="40" cy="40" r="39.2" fill="white" stroke="black" stroke-width="1.6"/>
<path d="M27.5112 37.0033L27.025 37.4922L28.0027 38.4645L28.4888 37.9757L27.5112 37.0033ZM40.3138 26.0862C40.5823 25.8163 40.5811 25.3797 40.3111 25.1112C40.0412 24.8427 39.6046 24.8439 39.3361 25.1139L40.3138 26.0862ZM28.4888 37.9757L40.3138 26.0862L39.3361 25.1139L27.5112 37.0033L28.4888 37.9757Z" fill="black"/>
<path d="M39.3106 54.3999L39.3106 55.0894L40.6894 55.0894L40.6894 54.3999L39.3106 54.3999ZM40.6894 25.5999C40.6894 25.2191 40.3808 24.9105 40 24.9105C39.6192 24.9105 39.3106 25.2191 39.3106 25.5999L40.6894 25.5999ZM40.6894 54.3999L40.6894 25.5999L39.3106 25.5999L39.3106 54.3999L40.6894 54.3999Z" fill="black"/>
<path d="M52.1387 37.0033L52.6249 37.4922L51.6473 38.4645L51.1611 37.9757L52.1387 37.0033ZM39.3361 26.0862C39.0676 25.8163 39.0688 25.3797 39.3388 25.1112C39.6087 24.8427 40.0453 24.8439 40.3138 25.1139L39.3361 26.0862ZM51.1611 37.9757L39.3361 26.0862L40.3138 25.1139L52.1387 37.0033L51.1611 37.9757Z" fill="black"/>
</svg>
