<svg width="31" height="30" viewBox="0 0 31 30" fill="none" xmlns="http://www.w3.org/2000/svg">
<path d="M9.90863 2.5H20.4086C24.4086 2.5 27.6586 5.75 27.6586 9.75V20.25C27.6586 22.1728 26.8948 24.0169 25.5352 25.3765C24.1755 26.7362 22.3315 27.5 20.4086 27.5H9.90863C5.90863 27.5 2.65863 24.25 2.65863 20.25V9.75C2.65863 7.82718 3.42247 5.98311 4.78211 4.62348C6.14175 3.26384 7.98581 2.5 9.90863 2.5ZM9.65863 5C8.46516 5 7.32056 5.47411 6.47665 6.31802C5.63274 7.16193 5.15863 8.30653 5.15863 9.5V20.5C5.15863 22.9875 7.17113 25 9.65863 25H20.6586C21.8521 25 22.9967 24.5259 23.8406 23.682C24.6845 22.8381 25.1586 21.6935 25.1586 20.5V9.5C25.1586 7.0125 23.1461 5 20.6586 5H9.65863ZM21.7211 6.875C22.1355 6.875 22.533 7.03962 22.826 7.33265C23.119 7.62567 23.2836 8.0231 23.2836 8.4375C23.2836 8.8519 23.119 9.24933 22.826 9.54235C22.533 9.83538 22.1355 10 21.7211 10C21.3067 10 20.9093 9.83538 20.6163 9.54235C20.3232 9.24933 20.1586 8.8519 20.1586 8.4375C20.1586 8.0231 20.3232 7.62567 20.6163 7.33265C20.9093 7.03962 21.3067 6.875 21.7211 6.875ZM15.1586 8.75C16.8162 8.75 18.4059 9.40848 19.578 10.5806C20.7502 11.7527 21.4086 13.3424 21.4086 15C21.4086 16.6576 20.7502 18.2473 19.578 19.4194C18.4059 20.5915 16.8162 21.25 15.1586 21.25C13.501 21.25 11.9113 20.5915 10.7392 19.4194C9.56711 18.2473 8.90863 16.6576 8.90863 15C8.90863 13.3424 9.56711 11.7527 10.7392 10.5806C11.9113 9.40848 13.501 8.75 15.1586 8.75ZM15.1586 11.25C14.1641 11.25 13.2102 11.6451 12.507 12.3483C11.8037 13.0516 11.4086 14.0054 11.4086 15C11.4086 15.9946 11.8037 16.9484 12.507 17.6517C13.2102 18.3549 14.1641 18.75 15.1586 18.75C16.1532 18.75 17.107 18.3549 17.8103 17.6517C18.5135 16.9484 18.9086 15.9946 18.9086 15C18.9086 14.0054 18.5135 13.0516 17.8103 12.3483C17.107 11.6451 16.1532 11.25 15.1586 11.25Z" fill="#555555"/>
</svg>
