<svg width="36" height="36" viewBox="0 0 36 36" fill="none" xmlns="http://www.w3.org/2000/svg">
<path d="M10.4286 21.8571C10.1667 21.5952 10.0358 21.2619 10.0358 20.8571C10.0358 20.4523 10.1667 20.119 10.4286 19.8571L17.0001 13.2857C17.1429 13.1428 17.2977 13.0414 17.4643 12.9814C17.631 12.9223 17.8096 12.8928 18.0001 12.8928C18.1905 12.8928 18.3753 12.9285 18.5543 13C18.7324 13.0714 18.881 13.1666 19.0001 13.2857L25.5715 19.8571C25.8334 20.119 25.9643 20.4523 25.9643 20.8571C25.9643 21.2619 25.8334 21.5952 25.5715 21.8571C25.3096 22.119 24.9762 22.25 24.5715 22.25C24.1667 22.25 23.8334 22.119 23.5715 21.8571L18.0001 16.2857L12.4286 21.8571C12.1667 22.119 11.8334 22.25 11.4286 22.25C11.0239 22.25 10.6905 22.119 10.4286 21.8571Z" fill="#A8E005"/>
</svg>
