<svg width="31" height="30" viewBox="0 0 31 30" fill="none" xmlns="http://www.w3.org/2000/svg">
<path d="M27.0874 8.1225C27.6586 10.35 27.6586 15 27.6586 15C27.6586 15 27.6586 19.65 27.0874 21.8775C26.7699 23.1088 25.8411 24.0775 24.6649 24.405C22.5286 25 15.1586 25 15.1586 25C15.1586 25 7.79238 25 5.65238 24.405C4.47113 24.0725 3.54363 23.105 3.22988 21.8775C2.65863 19.65 2.65863 15 2.65863 15C2.65863 15 2.65863 10.35 3.22988 8.1225C3.54738 6.89125 4.47613 5.9225 5.65238 5.595C7.79238 5 15.1586 5 15.1586 5C15.1586 5 22.5286 5 24.6649 5.595C25.8461 5.9275 26.7736 6.895 27.0874 8.1225ZM12.6586 19.375L20.1586 15L12.6586 10.625V19.375Z" fill="#91C300"/>
</svg>
