<svg width="30" height="30" viewBox="0 0 30 30" fill="none" xmlns="http://www.w3.org/2000/svg">
<path d="M30 21V24H27C24.9 24 22.8 23.4 21 22.5C17.25 24.45 12.75 24.45 9 22.5C7.2 23.4 5.1 24 3 24H0V21H3C5.1 21 7.2 20.25 9 19.05C12.6 21.6 17.4 21.6 21 19.05C22.8 20.25 24.9 21 27 21H30ZM4.92 17.685C5.73 17.445 6.555 17.07 7.335 16.56L9 15.42C10.035 12 10.17 7.905 8.385 3.21C14.925 4.335 20.835 9.975 23.055 16.785C24.18 17.46 25.365 17.865 26.49 17.955C24.36 8.1 15.555 0 6 0C5.475 0 4.995 0.27 4.725 0.705C4.455 1.155 4.425 1.71 4.665 2.175C7.92 8.685 6.915 13.935 4.92 17.685ZM21 25.05C17.4 27.6 12.6 27.6 9 25.05C7.2 26.25 5.1 27 3 27H0V30H3C5.1 30 7.2 29.4 9 28.5C12.75 30.45 17.25 30.45 21 28.5C22.8 29.4 24.9 30 27 30H30V27H27C24.9 27 22.8 26.25 21 25.05Z" fill="#222222"/>
</svg>
