<svg width="41" height="40" viewBox="0 0 41 40" fill="none" xmlns="http://www.w3.org/2000/svg">
<path d="M20.9065 6.6665C21.7966 6.6714 24.0238 6.69294 26.3901 6.78772L27.2291 6.8243C29.6116 6.9371 31.9921 7.1298 33.1728 7.459C34.7476 7.90142 35.9855 9.19234 36.4038 10.8287C37.07 13.4272 37.1533 18.4988 37.1636 19.7262L37.1651 19.9805V19.9983C37.1651 19.9983 37.1651 20.0045 37.1651 20.0163L37.1636 20.2707C37.1533 21.498 37.07 26.5697 36.4038 29.1682C35.9796 30.8105 34.7418 32.1015 33.1728 32.5378C31.9921 32.867 29.6116 33.0597 27.2291 33.1725L26.3901 33.209C24.0238 33.3038 21.7966 33.3253 20.9065 33.3303L20.5158 33.3317H20.4985C20.4985 33.3317 20.4926 33.3317 20.4811 33.3317L20.0908 33.3303C18.2068 33.32 10.3295 33.2348 7.82416 32.5378C6.24931 32.0953 5.01151 30.8045 4.5931 29.1682C3.92698 26.5697 3.84371 21.498 3.83331 20.2707V19.7262C3.84371 18.4988 3.92698 13.4272 4.5931 10.8287C5.01731 9.18627 6.25511 7.89537 7.82416 7.459C10.3295 6.76189 18.2068 6.67687 20.0908 6.6665H20.9065ZM17.1652 14.1651V25.8317L27.1651 19.9983L17.1652 14.1651Z" fill="#013A80"/>
</svg>
