<svg width="90" height="90" viewBox="0 0 90 90" fill="none" xmlns="http://www.w3.org/2000/svg">
<path d="M45 50.625C42.2187 50.625 39.4999 49.8003 37.1873 48.255C34.8747 46.7098 33.0723 44.5136 32.008 41.944C30.9436 39.3744 30.6651 36.5469 31.2077 33.819C31.7503 31.0912 33.0896 28.5855 35.0563 26.6188C37.023 24.6521 39.5287 23.3128 42.2565 22.7702C44.9844 22.2276 47.8119 22.5061 50.3815 23.5705C52.9511 24.6348 55.1473 26.4372 56.6925 28.7498C58.2378 31.0624 59.0625 33.7812 59.0625 36.5625C59.058 40.2907 57.575 43.865 54.9388 46.5013C52.3025 49.1375 48.7282 50.6205 45 50.625ZM45 28.125C43.3312 28.125 41.6999 28.6199 40.3124 29.547C38.9248 30.4741 37.8434 31.7919 37.2048 33.3336C36.5662 34.8754 36.3991 36.5719 36.7246 38.2086C37.0502 39.8453 37.8538 41.3487 39.0338 42.5287C40.2138 43.7087 41.7172 44.5123 43.3539 44.8379C44.9906 45.1634 46.6871 44.9964 48.2289 44.3577C49.7706 43.7191 51.0884 42.6377 52.0155 41.2501C52.9427 39.8626 53.4375 38.2313 53.4375 36.5625C53.4353 34.3254 52.5456 32.1806 50.9638 30.5988C49.3819 29.0169 47.2371 28.1272 45 28.125Z" fill="black"/>
<path d="M45 84.375L21.2738 56.3934C20.9441 55.9733 20.6178 55.5505 20.295 55.125C16.2422 49.7863 14.0527 43.2653 14.0625 36.5625C14.0625 28.3574 17.322 20.4883 23.1239 14.6864C28.9258 8.88448 36.7949 5.625 45 5.625C53.2052 5.625 61.0742 8.88448 66.8762 14.6864C72.6781 20.4883 75.9375 28.3574 75.9375 36.5625C75.9474 43.2623 73.7589 49.7803 69.7078 55.1166L69.705 55.125C69.705 55.125 68.8613 56.2331 68.7347 56.3822L45 84.375ZM24.7866 51.7359C24.7866 51.7359 25.4419 52.6022 25.591 52.7878L45 75.6787L64.4344 52.7569C64.5582 52.6022 65.2163 51.7303 65.2191 51.7275C68.5298 47.3656 70.319 42.0385 70.3125 36.5625C70.3125 29.8492 67.6457 23.4109 62.8987 18.6639C58.1517 13.9168 51.7133 11.25 45 11.25C38.2867 11.25 31.8484 13.9168 27.1014 18.6639C22.3544 23.4109 19.6875 29.8492 19.6875 36.5625C19.6816 42.0419 21.4728 47.3721 24.7866 51.7359Z" fill="black"/>
</svg>
