<svg width="19" height="14" viewBox="0 0 19 14" fill="none" xmlns="http://www.w3.org/2000/svg">
<path d="M17.1568 5.20518C17.4336 5.14887 17.6824 4.99867 17.8612 4.77999C18.0399 4.56132 18.1376 4.2876 18.1378 4.00515V2.10518C18.1378 1.78021 18.0087 1.46855 17.7789 1.23876C17.5491 1.00898 17.2375 0.879883 16.9125 0.879883H2.20894C1.88397 0.879883 1.57231 1.00898 1.34253 1.23876C1.11274 1.46855 0.983645 1.78021 0.983645 2.10518V4.00515C0.9838 4.2876 1.08153 4.56132 1.26029 4.77999C1.43905 4.99867 1.68787 5.14887 1.96465 5.20518C2.3785 5.291 2.75012 5.51684 3.01692 5.84464C3.28372 6.17244 3.42938 6.58218 3.42938 7.00483C3.42938 7.42749 3.28372 7.83723 3.01692 8.16503C2.75012 8.49283 2.3785 8.71867 1.96465 8.80449C1.68736 8.86091 1.43814 9.01156 1.25932 9.23086C1.0805 9.45017 0.983093 9.72461 0.983645 10.0076V11.9076C0.983645 12.2325 1.11274 12.5442 1.34253 12.774C1.57231 13.0038 1.88397 13.1328 2.20894 13.1328H16.9125C17.2375 13.1328 17.5491 13.0038 17.7789 12.774C18.0087 12.5442 18.1378 12.2325 18.1378 11.9076V10.0076C18.1376 9.72513 18.0399 9.45141 17.8612 9.23274C17.6824 9.01407 17.4336 8.86386 17.1568 8.80755C16.7429 8.72173 16.3713 8.49589 16.1045 8.16809C15.8377 7.84029 15.6921 7.43055 15.6921 7.0079C15.6921 6.58524 15.8377 6.17551 16.1045 5.8477C16.3713 5.5199 16.7429 5.29407 17.1568 5.20824V5.20518ZM2.20894 10.0083C2.901 9.86736 3.52308 9.49157 3.96987 8.94458C4.41667 8.3976 4.66072 7.71302 4.66072 7.00675C4.66072 6.30048 4.41667 5.6159 3.96987 5.06891C3.52308 4.52193 2.901 4.14614 2.20894 4.00515V2.10518H6.49748V11.9076H2.20894V10.0083ZM16.9125 10.0083V11.9076H7.72278V2.10518H16.9125V4.00439C16.2204 4.14537 15.5984 4.52116 15.1516 5.06815C14.7048 5.61514 14.4607 6.29971 14.4607 7.00598C14.4607 7.71226 14.7048 8.39683 15.1516 8.94382C15.5984 9.4908 16.2204 9.8666 16.9125 10.0076V10.0083Z" fill="black"/>
</svg>
