<svg width="80" height="80" viewBox="0 0 80 80" fill="none" xmlns="http://www.w3.org/2000/svg">
<path fill-rule="evenodd" clip-rule="evenodd" d="M52.0067 7.99999C51.2733 7.26665 50.35 7.29999 49.8467 7.36665C49.3667 7.43332 48.7933 7.59332 48.2467 7.74999L47.83 7.86665L47.4867 7.65332C47.0397 7.35356 46.5718 7.08621 46.0867 6.85332C45.59 6.63999 44.7533 6.39332 43.8667 6.85665C43 7.31332 42.7167 8.12665 42.6 8.64665C42.4965 9.18258 42.4297 9.72495 42.4 10.27L42.3667 10.6933V10.7267L41.9933 11.0367C41.55 11.4033 41.0867 11.78 40.76 12.1367C40.4133 12.5167 39.88 13.2267 40.0167 14.22C40.1567 15.2433 40.9 15.7733 41.3633 16.0333C41.7833 16.2667 42.3333 16.4667 42.85 16.66L43.2133 16.7933L43.3467 17.1567C43.5367 17.67 43.74 18.2233 43.9733 18.6433C44.23 19.11 44.7633 19.85 45.7867 19.99C46.7767 20.1233 47.4867 19.59 47.8667 19.2433C48.2267 18.9167 48.6033 18.4567 48.97 18.01L49.2767 17.64H49.31L49.7367 17.6067C50.2967 17.56 50.8867 17.5133 51.36 17.4067C51.8767 17.29 52.6933 17.0067 53.15 16.14C53.6133 15.2567 53.3667 14.4133 53.15 13.9167C52.917 13.4315 52.6496 12.9637 52.35 12.5167L52.1367 12.1767L52.2567 11.7567C52.4211 11.2341 52.5481 10.7006 52.6367 10.16C52.7033 9.65332 52.7367 8.73332 52.0033 7.99999M49.0033 11L48.7433 11.0733L48.6767 11.0933C48.2516 11.2383 47.8006 11.2917 47.3533 11.25C46.9093 11.1704 46.4882 10.994 46.12 10.7333L46.06 10.6967L45.7267 10.4833L45.69 10.9533L45.6833 11.0267C45.6709 11.47 45.5665 11.9058 45.3767 12.3067C45.1539 12.6894 44.8556 13.0228 44.5 13.2867L44.4467 13.3333L44.1467 13.5833L44.4 13.68L44.4667 13.7C44.7033 13.7867 45.2333 13.9733 45.6333 14.3733C46.0333 14.7733 46.22 15.3 46.3033 15.54L46.3267 15.6067L46.4233 15.8633L46.6733 15.56L46.7167 15.5033C46.8867 15.2933 47.22 14.8767 47.7 14.6267C48.1008 14.4368 48.5367 14.3324 48.98 14.32L49.0533 14.3133L49.52 14.28L49.31 13.94L49.2733 13.8833C49.0133 13.5148 48.8369 13.0938 48.7567 12.65C48.715 12.2028 48.7684 11.7518 48.9133 11.3267L48.9333 11.26L49.0033 11Z" fill="black"/>
<path d="M34.7833 10.5667C34.9567 10.2865 35.073 9.97479 35.1256 9.64948C35.1781 9.32416 35.1658 8.99167 35.0893 8.67113C35.0129 8.35059 34.8739 8.04832 34.6802 7.78171C34.4865 7.5151 34.2421 7.2894 33.9609 7.11761C33.6797 6.94581 33.3673 6.8313 33.0417 6.78067C32.7161 6.73003 32.3836 6.74427 32.0635 6.82256C31.7435 6.90085 31.442 7.04165 31.1765 7.23686C30.911 7.43208 30.6868 7.67785 30.5166 7.96004C29.6778 9.3328 29.3252 10.9479 29.5157 12.5453C29.7061 14.1428 30.4285 15.6297 31.5666 16.7667L31.8899 17.0934C32.2138 17.4167 32.4438 17.8219 32.5554 18.2657C32.6669 18.7096 32.6558 19.1754 32.5233 19.6134C32.3314 20.2481 32.3996 20.9331 32.7128 21.5176C33.026 22.1021 33.5585 22.5382 34.1933 22.73C34.828 22.9219 35.513 22.8537 36.0975 22.5405C36.682 22.2273 37.1181 21.6948 37.3099 21.06C37.7039 19.7565 37.7367 18.3705 37.4051 17.0497C37.0734 15.7289 36.3896 14.5229 35.4266 13.56L35.0999 13.2334C34.755 12.8892 34.5361 12.4389 34.4787 11.955C34.4212 11.4712 34.5285 10.9821 34.7833 10.5667ZM25.6199 13.1334C25.4536 12.9675 25.2562 12.836 25.039 12.7463C24.8219 12.6567 24.5892 12.6108 24.3543 12.6111C23.8798 12.6117 23.425 12.8008 23.0899 13.1367C22.7549 13.4726 22.567 13.9279 22.5676 14.4024C22.5683 14.8769 22.7573 15.3317 23.0933 15.6667C23.2596 15.8326 23.457 15.9641 23.6742 16.0537C23.8913 16.1434 24.124 16.1893 24.359 16.189C24.5939 16.1887 24.8265 16.1421 25.0434 16.0519C25.2603 15.9618 25.4574 15.8297 25.6233 15.6634C25.7892 15.497 25.9207 15.2996 26.0103 15.0825C26.0999 14.8653 26.1459 14.6326 26.1456 14.3977C26.1453 14.1628 26.0987 13.9302 26.0085 13.7133C25.9183 13.4963 25.7863 13.2993 25.6199 13.1334ZM60.9266 18.68C61.0566 18.0298 60.9229 17.3546 60.555 16.8029C60.1871 16.2513 59.6152 15.8683 58.9649 15.7384C58.3147 15.6084 57.6395 15.7421 57.0878 16.11C56.5362 16.4779 56.1532 17.0498 56.0233 17.7L55.5433 20.1C55.2333 21.6434 54.1199 22.9 52.6299 23.4C51.0601 23.9232 49.6564 24.852 48.5611 26.0925C47.4659 27.3329 46.718 28.8408 46.3933 30.4634L45.9133 32.8634C45.8081 33.5029 45.9554 34.1583 46.3242 34.6914C46.6929 35.2244 47.2543 35.5934 47.8899 35.7205C48.5254 35.8476 49.1855 35.7229 49.7309 35.3727C50.2763 35.0225 50.6644 34.4742 50.8133 33.8434L51.2966 31.4434C51.6033 29.9 52.7166 28.6434 54.2099 28.1434C55.7796 27.6195 57.1829 26.6899 58.2776 25.4489C59.3723 24.2079 60.1194 22.6995 60.4433 21.0767L60.9266 18.68Z" fill="black"/>
<path fill-rule="evenodd" clip-rule="evenodd" d="M75.08 29.4733C75.93 31.32 75.3567 33.4167 73.8 34.9733C72.8967 35.8733 71.6867 36.2833 70.61 36.4767C69.5067 36.6733 68.3434 36.6767 67.32 36.61C66.1485 36.5324 64.9842 36.3686 63.8367 36.12L63.6834 36.0867L63.6034 36.0667L63.5367 36.05L63.5167 36.0467H63.51L63.91 34.4267L63.51 36.0433C63.2151 35.9709 62.9456 35.8193 62.7306 35.6049C62.5156 35.3905 62.3633 35.1214 62.29 34.8267V34.8167L62.2834 34.7967L62.2667 34.73C62.1842 34.3802 62.113 34.0278 62.0534 33.6733C61.8926 32.7936 61.7813 31.9055 61.72 31.0133C61.6367 29.9162 61.6826 28.8131 61.8567 27.7267C62.05 26.6467 62.4567 25.4367 63.36 24.5333C64.9167 22.9767 67.0134 22.4 68.86 23.2567C70.26 23.9033 71.1734 25.21 71.5134 26.82C73.1234 27.1633 74.43 28.0733 75.08 29.4733ZM65.32 33.0133C65.9134 33.1167 66.6967 33.23 67.5334 33.2833C68.41 33.34 69.2834 33.3267 70.0234 33.1933C70.79 33.06 71.2267 32.83 71.44 32.6167C72.25 31.8067 72.19 31.1667 72.0534 30.87C71.9034 30.55 71.3734 29.9967 70.0067 30C69.7867 30.0009 69.5687 29.9582 69.3653 29.8744C69.1619 29.7906 68.9771 29.6674 68.8215 29.5119C68.6659 29.3563 68.5427 29.1715 68.4589 28.9681C68.3752 28.7647 68.3325 28.5467 68.3334 28.3267C68.34 26.96 67.7834 26.4267 67.4634 26.28C67.1667 26.1467 66.5267 26.08 65.7167 26.8933C65.5034 27.1067 65.2734 27.5433 65.14 28.31C65.0138 29.1337 64.9836 29.9693 65.05 30.8C65.1034 31.6333 65.2167 32.42 65.32 33.0133Z" fill="black"/>
<path d="M67.7667 45.7667C68.2494 45.3385 68.8447 45.0575 69.4821 44.9571C70.1195 44.8567 70.7724 44.941 71.3634 45.2001L72.3334 45.6234C72.9412 45.8891 73.6296 45.9024 74.2472 45.6605C74.8648 45.4186 75.361 44.9412 75.6267 44.3334C75.8924 43.7256 75.9057 43.0372 75.6638 42.4196C75.4219 41.802 74.9445 41.3057 74.3367 41.0401L73.3667 40.6167C71.9017 39.976 70.2839 39.768 68.7044 40.0173C67.125 40.2666 65.6499 40.9627 64.4534 42.0234C63.3667 42.9901 61.7834 43.1501 60.5234 42.4234L59.8167 42.0134C59.2428 41.6871 58.5631 41.6011 57.926 41.774C57.2889 41.947 56.7461 42.365 56.416 42.9367C56.0859 43.5084 55.9954 44.1875 56.1641 44.8257C56.3328 45.4639 56.7472 46.0095 57.3167 46.3434L58.0234 46.7501C59.5458 47.6298 61.3066 48.008 63.0561 47.8309C64.8055 47.6538 66.4548 46.9304 67.77 45.7634M63.5267 51.0434C63.693 50.8773 63.8905 50.7456 64.1077 50.6557C64.325 50.5659 64.5578 50.5198 64.7929 50.5199C65.028 50.5201 65.2607 50.5665 65.4779 50.6566C65.695 50.7467 65.8922 50.8787 66.0584 51.0451C66.2245 51.2114 66.3562 51.4088 66.446 51.6261C66.5359 51.8434 66.582 52.0762 66.5819 52.3113C66.5817 52.5463 66.5353 52.7791 66.4451 52.9962C66.355 53.2134 66.223 53.4106 66.0567 53.5767C65.7208 53.9122 65.2653 54.1006 64.7905 54.1002C64.3157 54.0999 63.8605 53.911 63.525 53.5751C63.1895 53.2391 63.0012 52.7837 63.0015 52.3089C63.0019 51.8341 63.1908 51.3789 63.5267 51.0434ZM43.0534 23.8567C42.8872 23.6906 42.69 23.5588 42.473 23.4689C42.2559 23.379 42.0233 23.3328 41.7884 23.3328C41.5534 23.3328 41.3208 23.379 41.1038 23.4689C40.8867 23.5588 40.6895 23.6906 40.5234 23.8567C40.3572 24.0229 40.2255 24.2201 40.1356 24.4371C40.0457 24.6542 39.9994 24.8868 39.9994 25.1217C39.9994 25.3567 40.0457 25.5893 40.1356 25.8064C40.2255 26.0234 40.3572 26.2206 40.5234 26.3867C40.6897 26.5529 40.8871 26.6846 41.1044 26.7744C41.3216 26.8642 41.5545 26.9104 41.7895 26.9102C42.0246 26.9101 42.2574 26.8636 42.4745 26.7735C42.6917 26.6834 42.8889 26.5514 43.055 26.3851C43.2212 26.2187 43.3529 26.0213 43.4427 25.8041C43.5325 25.5868 43.5787 25.354 43.5785 25.1189C43.5784 24.8838 43.5319 24.6511 43.4418 24.4339C43.3517 24.2168 43.2197 24.0229 43.0534 23.8567ZM57.19 33.8567C57.3562 33.6906 57.5534 33.5588 57.7704 33.4689C57.9875 33.379 58.2201 33.3328 58.455 33.3328C58.69 33.3328 58.9226 33.379 59.1396 33.4689C59.3567 33.5588 59.5539 33.6906 59.72 33.8567C59.8862 34.0229 60.0179 34.2201 60.1078 34.4371C60.1977 34.6542 60.244 34.8868 60.244 35.1217C60.244 35.3567 60.1977 35.5893 60.1078 35.8064C60.0179 36.0234 59.8862 36.2206 59.72 36.3867C59.3841 36.7222 58.9286 36.9105 58.4539 36.9102C57.9791 36.9099 57.5239 36.721 57.1884 36.3851C56.8529 36.0491 56.6646 35.5937 56.6649 35.1189C56.6652 34.6441 56.8541 34.1922 57.19 33.8567Z" fill="black"/>
<path fill-rule="evenodd" clip-rule="evenodd" d="M32.1301 22.95C34.0834 24.3967 36.3301 26.65 39.0634 29.3767L50.6201 40.9333C53.3501 43.6667 55.6001 45.9133 57.0467 47.8667C58.5467 49.8867 59.6001 52.13 58.9901 54.7133C58.3801 57.3 56.4334 58.8333 54.1901 59.97C52.0201 61.07 49.0034 62.0767 45.3434 63.2967L28.0434 69.0633C23.6101 70.54 20.0101 71.74 17.2201 72.2367C14.4067 72.7367 11.5534 72.6867 9.43005 70.5667C7.31005 68.4467 7.26005 65.59 7.76005 62.7733C8.25672 59.9867 9.45672 56.3867 10.9334 51.9533L16.7001 34.6533C17.9201 30.9933 18.9267 27.9767 20.0267 25.8067C21.1601 23.5633 22.6967 21.6167 25.2834 21.0067C27.8667 20.3967 30.1101 21.4533 32.1301 22.95ZM29.1534 26.9667C29.0959 26.924 29.0382 26.8818 28.9801 26.84L28.8601 27.5067C28.4844 29.5911 28.1488 31.6826 27.8534 33.78C27.1434 38.83 26.5467 44.9367 26.8534 49.6167C27.0367 52.45 27.6434 56.1167 28.2234 59.14C28.4986 60.5772 28.793 62.0107 29.1067 63.44L37.8901 60.5067C37.6567 59.8233 37.3834 58.94 37.1067 57.9167C36.4434 55.45 35.7567 52.0567 35.7567 48.5167C35.7856 45.2887 36.2407 42.0788 37.1101 38.97C37.4222 37.8267 37.7882 36.6988 38.2067 35.59L35.6734 33.0567C32.7601 30.1467 30.7734 28.1667 29.1534 26.9667ZM21.3767 36.4333C21.9525 34.6725 22.5537 32.9201 23.1801 31.1767C23.0841 31.8128 22.9919 32.4495 22.9034 33.0867C22.1834 38.1967 21.5201 44.7267 21.8634 49.9433C22.0701 53.1033 22.7267 57.02 23.3134 60.0767C23.6308 61.7306 23.9731 63.3797 24.3401 65.0233C20.8701 66.17 18.3134 66.9633 16.3467 67.3133C13.9434 67.74 13.2801 67.3433 12.9667 67.03C12.6534 66.7167 12.2567 66.0533 12.6834 63.65C13.1067 61.2667 14.1834 58.0167 15.7467 53.33L21.3767 36.4333ZM43.5634 58.62L42.6334 58.93C42.1389 57.4611 41.7326 55.964 41.4167 54.4467C40.9976 52.4973 40.7764 50.5105 40.7567 48.5167C40.787 45.4708 41.2562 42.4452 42.1501 39.5333L46.9367 44.3233C49.8501 47.2367 51.8301 49.2233 53.0301 50.8433C54.2101 52.4367 54.2267 53.13 54.1234 53.5667C54.0201 54 53.6967 54.6167 51.9301 55.51C50.1301 56.4233 47.4701 57.3167 43.5634 58.62Z" fill="black"/>
</svg>
