<svg width="80" height="80" viewBox="0 0 80 80" fill="none" xmlns="http://www.w3.org/2000/svg">
<path d="M79.2578 56.7578L57.5 78.5547L46.9922 68.0078L50.5078 64.4922L57.5 71.4453L75.7422 53.2422L79.2578 56.7578ZM40 15V35H55V40H35V15H40ZM37.5 70C37.9167 70 38.3333 69.987 38.75 69.9609C39.1667 69.9349 39.5833 69.9089 40 69.8828L44.4531 74.3359C43.2812 74.5443 42.1224 74.7005 40.9766 74.8047C39.8307 74.9089 38.6719 74.974 37.5 75C34.0625 75 30.7552 74.5573 27.5781 73.6719C24.401 72.7865 21.4062 71.5234 18.5938 69.8828C15.7812 68.2422 13.2552 66.2891 11.0156 64.0234C8.77604 61.7578 6.82292 59.2188 5.15625 56.4062C3.48958 53.5938 2.22656 50.612 1.36719 47.4609C0.507812 44.3099 0.0520833 40.9896 0 37.5C0 34.0625 0.442708 30.7552 1.32812 27.5781C2.21354 24.401 3.47656 21.4062 5.11719 18.5938C6.75781 15.7812 8.71094 13.2552 10.9766 11.0156C13.2422 8.77604 15.7812 6.82292 18.5938 5.15625C21.4062 3.48958 24.388 2.22656 27.5391 1.36719C30.6901 0.507812 34.0104 0.0520833 37.5 0C40.9375 0 44.2448 0.442708 47.4219 1.32812C50.599 2.21354 53.5938 3.47656 56.4062 5.11719C59.2188 6.75781 61.7448 8.71094 63.9844 10.9766C66.224 13.2422 68.1771 15.7812 69.8438 18.5938C71.5104 21.4062 72.7734 24.388 73.6328 27.5391C74.4922 30.6901 74.9479 34.0104 75 37.5C75 38.8021 74.9219 40.1172 74.7656 41.4453L68.2031 48.0469C69.401 44.5833 70 41.0677 70 37.5C70 34.5052 69.6094 31.6276 68.8281 28.8672C68.0469 26.1068 66.9531 23.5286 65.5469 21.1328C64.1406 18.737 62.4479 16.5365 60.4688 14.5312C58.4896 12.526 56.3021 10.8333 53.9062 9.45312C51.5104 8.07292 48.9193 6.97917 46.1328 6.17188C43.3464 5.36458 40.4688 4.97396 37.5 5C34.5052 5 31.6276 5.39062 28.8672 6.17188C26.1068 6.95312 23.5286 8.04688 21.1328 9.45312C18.737 10.8594 16.5365 12.5521 14.5312 14.5312C12.526 16.5104 10.8333 18.6979 9.45312 21.0938C8.07292 23.4896 6.97917 26.0807 6.17188 28.8672C5.36458 31.6536 4.97396 34.5312 5 37.5C5 40.4948 5.39062 43.3724 6.17188 46.1328C6.95312 48.8932 8.04688 51.4714 9.45312 53.8672C10.8594 56.263 12.5521 58.4635 14.5312 60.4688C16.5104 62.474 18.6979 64.1667 21.0938 65.5469C23.4896 66.9271 26.0807 68.0208 28.8672 68.8281C31.6536 69.6354 34.5312 70.026 37.5 70Z" fill="white"/>
</svg>
