<svg width="14" height="13" viewBox="0 0 14 13" fill="none" xmlns="http://www.w3.org/2000/svg">
<g clip-path="url(#clip0_186_508)">
<path fill-rule="evenodd" clip-rule="evenodd" d="M9.54595 6.23486C9.65079 6.31943 9.70968 6.43411 9.70968 6.55369C9.70968 6.67326 9.65079 6.78794 9.54595 6.87251L6.38257 9.42353C6.33098 9.4666 6.26928 9.50096 6.20105 9.52459C6.13283 9.54823 6.05945 9.56067 5.9852 9.56119C5.91095 9.56171 5.83732 9.5503 5.76859 9.52762C5.69987 9.50495 5.63743 9.47146 5.58493 9.42912C5.53242 9.38678 5.4909 9.33643 5.46278 9.28101C5.43467 9.22559 5.42052 9.16621 5.42116 9.10633C5.42181 9.04646 5.43724 8.98728 5.46654 8.93227C5.49585 8.87725 5.53845 8.82749 5.59186 8.78589L8.35989 6.55369L5.59186 4.32148C5.49 4.23643 5.43363 4.12252 5.43491 4.00428C5.43618 3.88604 5.49499 3.77294 5.59867 3.68933C5.70235 3.60572 5.84261 3.5583 5.98923 3.55727C6.13585 3.55624 6.2771 3.60169 6.38257 3.68384L9.54595 6.23486Z" fill="white"/>
</g>
<defs>
<clipPath id="clip0_186_508">
<rect width="12.8656" height="12.8656" fill="white" transform="translate(0.274902 0.126587)"/>
</clipPath>
</defs>
</svg>
