<svg width="17" height="19" viewBox="0 0 17 19" fill="none" xmlns="http://www.w3.org/2000/svg">
<path d="M12.3616 0.00950833C12.3213 -0.0356167 10.8666 0.0273209 9.6007 1.40126C8.33482 2.77401 8.52957 4.34863 8.55807 4.38901C8.58657 4.42938 10.3631 4.49232 11.4971 2.89513C12.6312 1.29795 12.402 0.0558208 12.3616 0.00950833V0.00950833ZM16.297 13.9424C16.24 13.8284 13.5361 12.4771 13.7878 9.87882C14.0396 7.27938 15.7769 6.56688 15.8042 6.4897C15.8315 6.41251 15.0953 5.55157 14.3151 5.11576C13.7422 4.8085 13.1083 4.63246 12.459 4.60038C12.3308 4.59682 11.8854 4.48757 10.9699 4.73813C10.3666 4.9032 9.00695 5.43757 8.63289 5.45895C8.25764 5.48032 7.14139 4.83907 5.94082 4.66926C5.17251 4.52082 4.35789 4.82482 3.77482 5.05876C3.19295 5.29151 2.0862 5.95413 1.31195 7.7152C0.537699 9.47507 0.942636 12.2633 1.23239 13.1302C1.52214 13.9959 1.97457 15.4149 2.74407 16.4504C3.42807 17.6189 4.33532 18.43 4.71414 18.7055C5.09295 18.981 6.1617 19.1639 6.9027 18.7851C7.49882 18.4193 8.5747 18.2091 8.99982 18.2246C9.42376 18.24 10.2598 18.4074 11.1159 18.8646C11.794 19.0986 12.4353 19.0012 13.0777 18.7399C13.7201 18.4775 14.6499 17.4824 15.7353 15.4648C16.1474 14.5267 16.335 14.0196 16.297 13.9424V13.9424Z" fill="white"/>
<path d="M12.3616 0.00950833C12.3213 -0.0356167 10.8666 0.0273209 9.6007 1.40126C8.33482 2.77401 8.52957 4.34863 8.55807 4.38901C8.58657 4.42938 10.3631 4.49232 11.4971 2.89513C12.6312 1.29795 12.402 0.0558208 12.3616 0.00950833V0.00950833ZM16.297 13.9424C16.24 13.8284 13.5361 12.4771 13.7878 9.87882C14.0396 7.27938 15.7769 6.56688 15.8042 6.4897C15.8315 6.41251 15.0953 5.55157 14.3151 5.11576C13.7422 4.8085 13.1083 4.63246 12.459 4.60038C12.3308 4.59682 11.8854 4.48757 10.9699 4.73813C10.3666 4.9032 9.00695 5.43757 8.63289 5.45895C8.25764 5.48032 7.14139 4.83907 5.94082 4.66926C5.17251 4.52082 4.35789 4.82482 3.77482 5.05876C3.19295 5.29151 2.0862 5.95413 1.31195 7.7152C0.537699 9.47507 0.942636 12.2633 1.23239 13.1302C1.52214 13.9959 1.97457 15.4149 2.74407 16.4504C3.42807 17.6189 4.33532 18.43 4.71414 18.7055C5.09295 18.981 6.1617 19.1639 6.9027 18.7851C7.49882 18.4193 8.5747 18.2091 8.99982 18.2246C9.42376 18.24 10.2598 18.4074 11.1159 18.8646C11.794 19.0986 12.4353 19.0012 13.0777 18.7399C13.7201 18.4775 14.6499 17.4824 15.7353 15.4648C16.1474 14.5267 16.335 14.0196 16.297 13.9424V13.9424Z" fill="white"/>
</svg>
