<svg width="31" height="30" viewBox="0 0 31 30" fill="none" xmlns="http://www.w3.org/2000/svg">
<path d="M15.4369 2.73096C17.4923 2.7308 19.5123 3.26595 21.298 4.28371C23.0838 5.30147 24.5736 6.76675 25.621 8.53528C26.6683 10.3038 27.237 12.3146 27.2711 14.3697C27.3051 16.4249 26.8034 18.4534 25.8152 20.2557L26.7825 23.6696C26.8727 23.9807 26.8778 24.3103 26.7972 24.624C26.7165 24.9377 26.5532 25.224 26.3242 25.4531C26.0951 25.6821 25.8088 25.8454 25.4951 25.9261C25.1814 26.0067 24.8518 26.0016 24.5407 25.9114L21.1268 24.9441C19.5447 25.8112 17.7853 26.3052 15.983 26.3882C14.1808 26.4712 12.3834 26.141 10.7283 25.423C9.07322 24.7049 7.60419 23.618 6.43351 22.2452C5.26283 20.8725 4.42151 19.2502 3.97383 17.5025C3.52616 15.7548 3.48398 13.9278 3.85054 12.1613C4.21709 10.3948 4.98267 8.73545 6.08875 7.31013C7.19484 5.88481 8.61215 4.73124 10.2324 3.93758C11.8526 3.14393 13.6328 2.73121 15.4369 2.73096ZM15.4369 24.58C17.2346 24.5783 18.9989 24.095 20.5464 23.1803C20.6892 23.1006 20.8495 23.0576 21.013 23.0551C21.0976 23.0552 21.1818 23.0667 21.2633 23.0892L25.0414 24.1703L23.9603 20.3922C23.9271 20.2727 23.918 20.1477 23.9336 20.0246C23.9492 19.9015 23.9893 19.7828 24.0514 19.6753C25.1787 17.7751 25.6459 15.5554 25.3803 13.362C25.1147 11.1685 24.1311 9.12454 22.5828 7.54832C21.0346 5.97211 19.0084 4.95219 16.8201 4.64743C14.6318 4.34267 12.4041 4.77018 10.484 5.86337C8.56398 6.95655 7.05936 8.65404 6.20454 10.6914C5.34972 12.7288 5.19269 14.9917 5.75791 17.1276C6.32313 19.2636 7.57887 21.1526 9.32953 22.5005C11.0802 23.8484 13.2275 24.5795 15.4369 24.58ZM14.0714 14.5658C14.0714 14.8359 14.1515 15.0999 14.3015 15.3245C14.4516 15.5491 14.6648 15.7241 14.9144 15.8274C15.1639 15.9308 15.4384 15.9578 15.7033 15.9052C15.9682 15.8525 16.2116 15.7224 16.4025 15.5314C16.5935 15.3405 16.7236 15.0971 16.7763 14.8322C16.8289 14.5673 16.8019 14.2928 16.6985 14.0433C16.5952 13.7937 16.4202 13.5805 16.1956 13.4304C15.971 13.2804 15.707 13.2003 15.4369 13.2003C15.0748 13.2003 14.7274 13.3441 14.4713 13.6002C14.2152 13.8563 14.0714 14.2037 14.0714 14.5658ZM19.5336 14.5658C19.5336 14.8359 19.6137 15.0999 19.7638 15.3245C19.9138 15.5491 20.1271 15.7241 20.3766 15.8274C20.6261 15.9308 20.9007 15.9578 21.1656 15.9052C21.4305 15.8525 21.6738 15.7224 21.8648 15.5314C22.0558 15.3405 22.1858 15.0971 22.2385 14.8322C22.2912 14.5673 22.2642 14.2928 22.1608 14.0433C22.0574 13.7937 21.8824 13.5805 21.6578 13.4304C21.4333 13.2804 21.1693 13.2003 20.8992 13.2003C20.537 13.2003 20.1897 13.3441 19.9336 13.6002C19.6775 13.8563 19.5336 14.2037 19.5336 14.5658ZM8.60912 14.5658C8.60912 14.8359 8.68921 15.0999 8.83926 15.3245C8.98931 15.5491 9.20258 15.7241 9.4521 15.8274C9.70163 15.9308 9.9762 15.9578 10.2411 15.9052C10.506 15.8525 10.7493 15.7224 10.9403 15.5314C11.1313 15.3405 11.2613 15.0971 11.314 14.8322C11.3667 14.5673 11.3397 14.2928 11.2363 14.0433C11.1329 13.7937 10.9579 13.5805 10.7333 13.4304C10.5088 13.2804 10.2448 13.2003 9.97468 13.2003C9.61251 13.2003 9.26518 13.3441 9.00908 13.6002C8.75299 13.8563 8.60912 14.2037 8.60912 14.5658Z" fill="white"/>
</svg>
