<svg width="31" height="30" viewBox="0 0 31 30" fill="none" xmlns="http://www.w3.org/2000/svg">
<mask id="path-1-inside-1_236_1673" fill="white">
<path d="M15.3593 22.5167L15.4807 22.6381L15.6142 22.5167C21.3799 17.2851 25.1914 13.8257 25.1914 10.3177C25.1914 7.89002 23.3706 6.06927 20.9429 6.06927C19.0736 6.06927 17.2529 7.2831 16.6096 8.93391H14.3518C13.7085 7.2831 11.8877 6.06927 10.0184 6.06927C7.59077 6.06927 5.77002 7.89002 5.77002 10.3177C5.77002 13.8257 9.58146 17.2851 15.3593 22.5167ZM10.0184 3.6416C12.1305 3.6416 14.1576 4.62481 15.4807 6.16637C16.8038 4.62481 18.8309 3.6416 20.9429 3.6416C24.6815 3.6416 27.619 6.56694 27.619 10.3177C27.619 14.8938 23.492 18.6446 17.2407 24.3132L15.4807 25.9154L13.7206 24.3132C7.46939 18.6446 3.34235 14.8938 3.34235 10.3177C3.34235 6.56694 6.27983 3.6416 10.0184 3.6416Z"/>
</mask>
<path d="M15.3593 22.5167L15.4807 22.6381L15.6142 22.5167C21.3799 17.2851 25.1914 13.8257 25.1914 10.3177C25.1914 7.89002 23.3706 6.06927 20.9429 6.06927C19.0736 6.06927 17.2529 7.2831 16.6096 8.93391H14.3518C13.7085 7.2831 11.8877 6.06927 10.0184 6.06927C7.59077 6.06927 5.77002 7.89002 5.77002 10.3177C5.77002 13.8257 9.58146 17.2851 15.3593 22.5167ZM10.0184 3.6416C12.1305 3.6416 14.1576 4.62481 15.4807 6.16637C16.8038 4.62481 18.8309 3.6416 20.9429 3.6416C24.6815 3.6416 27.619 6.56694 27.619 10.3177C27.619 14.8938 23.492 18.6446 17.2407 24.3132L15.4807 25.9154L13.7206 24.3132C7.46939 18.6446 3.34235 14.8938 3.34235 10.3177C3.34235 6.56694 6.27983 3.6416 10.0184 3.6416Z" fill="#222222"/>
<path d="M15.3593 22.5167L25.7878 10.9994L26.0733 11.258L26.3457 11.5303L15.3593 22.5167ZM15.4807 22.6381L25.9321 34.1346L14.97 44.1001L4.49432 33.6245L15.4807 22.6381ZM15.6142 22.5167L5.16281 11.0202L5.16825 11.0153L5.1737 11.0103L15.6142 22.5167ZM16.6096 8.93391L31.0862 14.5755L27.2299 24.471H16.6096V8.93391ZM14.3518 8.93391V24.471H3.73151L-0.1248 14.5755L14.3518 8.93391ZM15.4807 6.16637L27.2707 16.2854L15.4807 30.0225L3.69062 16.2854L15.4807 6.16637ZM17.2407 24.3132L6.7815 12.8239L6.79267 12.8137L6.80385 12.8035L17.2407 24.3132ZM15.4807 25.9154L25.9399 37.4048L15.4807 46.9263L5.02144 37.4048L15.4807 25.9154ZM13.7206 24.3132L24.1575 12.8035L24.1687 12.8137L24.1799 12.8239L13.7206 24.3132ZM26.3457 11.5303L26.467 11.6517L4.49432 33.6245L4.37294 33.5031L26.3457 11.5303ZM5.02929 11.1416L5.16281 11.0202L26.0656 34.0132L25.9321 34.1346L5.02929 11.1416ZM5.1737 11.0103C6.65271 9.66835 7.8172 8.61035 8.81608 7.65705C9.81938 6.69952 10.4104 6.07806 10.756 5.67377C11.1227 5.24497 10.9171 5.40018 10.5949 6.0478C10.2281 6.78514 9.65429 8.27904 9.65429 10.3177H40.7284C40.7284 17.8046 36.6816 23.1688 34.3738 25.8679C31.9152 28.7434 28.662 31.6573 26.0547 34.0231L5.1737 11.0103ZM9.65429 10.3177C9.65429 13.093 10.7444 16.0227 12.9912 18.2695C15.238 20.5163 18.1676 21.6063 20.9429 21.6063V-9.4678C31.9515 -9.4678 40.7284 -0.690868 40.7284 10.3177H9.65429ZM20.9429 21.6063C23.3203 21.6063 25.3489 20.8613 26.8995 19.8337C28.4333 18.8172 30.0934 17.123 31.0862 14.5755L2.13293 3.29229C5.23069 -4.65667 13.0333 -9.4678 20.9429 -9.4678V21.6063ZM16.6096 24.471H14.3518V-6.60315H16.6096V24.471ZM-0.1248 14.5755C0.867979 17.123 2.5281 18.8172 4.06186 19.8337C5.61251 20.8613 7.64109 21.6063 10.0184 21.6063V-9.4678C17.928 -9.4678 25.7307 -4.65667 28.8284 3.29229L-0.1248 14.5755ZM10.0184 21.6063C12.7938 21.6063 15.7234 20.5163 17.9702 18.2695C20.217 16.0227 21.3071 13.093 21.3071 10.3177H-9.76705C-9.76705 -0.690868 -0.990114 -9.4678 10.0184 -9.4678V21.6063ZM21.3071 10.3177C21.3071 8.27878 20.7331 6.78416 20.3655 6.04545C20.0426 5.39661 19.8362 5.24061 20.2023 5.66849C20.5475 6.07184 21.1385 6.69269 22.1422 7.64923C23.1412 8.60123 24.3074 9.65903 25.7878 10.9994L4.93084 34.034C2.31417 31.6647 -0.943176 28.7514 -3.4064 25.8732C-5.71866 23.1713 -9.76705 17.8066 -9.76705 10.3177H21.3071ZM10.0184 -11.8955C16.8274 -11.8955 23.105 -8.80634 27.2707 -3.95266L3.69062 16.2854C5.21022 18.056 7.4336 19.1787 10.0184 19.1787V-11.8955ZM3.69062 -3.95266C7.85638 -8.80634 14.134 -11.8955 20.9429 -11.8955V19.1787C23.5278 19.1787 25.7511 18.056 27.2707 16.2854L3.69062 -3.95266ZM20.9429 -11.8955C33.2439 -11.8955 43.1561 -2.03245 43.1561 10.3177H12.082C12.082 15.1663 16.1192 19.1787 20.9429 19.1787V-11.8955ZM43.1561 10.3177C43.1561 17.7137 39.6844 23.2145 36.8039 26.7386C34.0942 30.0538 30.4978 33.2655 27.6776 35.8228L6.80385 12.8035C8.40955 11.3475 9.65401 10.2167 10.717 9.19201C11.7794 8.16797 12.3911 7.50511 12.7443 7.07293C13.4901 6.16049 12.082 7.49784 12.082 10.3177H43.1561ZM27.7 35.8025L25.9399 37.4048L5.02144 14.4261L6.7815 12.8239L27.7 35.8025ZM5.02144 37.4048L3.26138 35.8025L24.1799 12.8239L25.9399 14.4261L5.02144 37.4048ZM3.28374 35.8228C0.463614 33.2655 -3.13278 30.0538 -5.84251 26.7386C-8.72303 23.2145 -12.1947 17.7137 -12.1947 10.3177H18.8794C18.8794 7.49784 17.4713 6.16049 18.2171 7.07293C18.5703 7.50511 19.1819 8.16797 20.2443 9.19201C21.3074 10.2167 22.5518 11.3475 24.1575 12.8035L3.28374 35.8228ZM-12.1947 10.3177C-12.1947 -2.03245 -2.28254 -11.8955 10.0184 -11.8955V19.1787C14.8422 19.1787 18.8794 15.1663 18.8794 10.3177H-12.1947Z" fill="white" mask="url(#path-1-inside-1_236_1673)"/>
</svg>
