<svg width="56" height="56" viewBox="0 0 56 56" fill="none" xmlns="http://www.w3.org/2000/svg">
<path d="M38.8938 0.347168L37.4889 1.88506C34.3431 5.3437 31.7498 6.89015 29.5911 7.90186C27.4325 8.91143 25.6187 9.21302 23.837 10.5755C21.9375 12.03 19.1771 14.8191 18.0143 19.7986C15.5216 20.3419 13.6971 21.2958 12.258 22.5385C10.836 23.7663 9.76529 25.163 8.44614 26.6838C8.43543 26.7009 8.45256 26.733 8.44614 26.7501C6.55307 28.9232 4.8977 31.2632 1.68547 32.4995L0.347046 33.0343V55.893H41.1702C43.5108 55.7668 45.134 54.1476 46.1213 52.5498C47.1063 50.9542 47.6524 49.2259 47.9287 47.8057C48.6396 44.1866 49.9352 33.7679 49.9352 33.7679L50.0038 33.569V33.3679C49.9352 31.922 49.3399 30.6943 48.5968 29.5564L51.006 22.4059L54.8221 16.6565L55.8928 15.1186L54.4859 13.8502L40.4335 1.684L38.8938 0.347168ZM39.0287 6.22922L50.2029 15.9228L47.2584 20.2649L47.0592 20.4681L46.9907 20.8017L45.0505 26.549C44.0376 26.1319 42.9947 25.8389 41.8383 25.8817H41.7034L28.1863 25.948H26.0449V34.2363C25.745 36.5678 24.4473 37.4704 22.8326 38.1142C22.2973 38.3302 22.2309 38.2126 21.7619 38.3131V25.8838C21.4107 17.9548 24.2374 15.6726 26.4474 13.985C27.0578 13.5165 28.8459 12.9754 31.3986 11.7797C33.5315 10.7766 36.1826 8.97774 39.0287 6.22922ZM17.6138 24.6112C17.6053 25.0967 17.4532 25.4389 17.4789 25.948V43.0594H19.6204C19.6204 43.0594 21.9118 43.0337 24.3724 42.0563C26.8308 41.0788 29.801 38.7901 30.3278 34.7711V30.2258L41.8383 30.1595H41.9047C42.8447 30.1081 43.7669 30.4308 44.4693 31.057C45.1717 31.6832 45.597 32.5618 45.6523 33.5005C45.6437 33.5348 45.5452 34.3283 45.5195 34.5037H36.7523V38.7816H44.9841C44.7571 40.4349 44.5494 41.4723 44.3138 43.0594H36.7523V47.3373H43.6457C43.3926 48.3721 42.9863 49.3634 42.4401 50.2783C41.8554 51.2301 41.3522 51.5895 40.9025 51.6151H4.63001V35.6395C8.10136 33.8 10.26 31.1541 11.6562 29.5585C13.1039 27.903 14.0975 26.6496 15.0697 25.8154C15.7058 25.2721 16.7016 24.9619 17.6138 24.6112Z" fill="#4CA14C"/>
</svg>
