<svg width="22" height="22" viewBox="0 0 22 22" fill="none" xmlns="http://www.w3.org/2000/svg">
<path d="M6.45549 0.13623H15.4279C18.846 0.13623 21.6232 2.91342 21.6232 6.3315V15.304C21.6232 16.947 20.9705 18.5228 19.8087 19.6847C18.6468 20.8465 17.071 21.4992 15.4279 21.4992H6.45549C3.03741 21.4992 0.260223 18.722 0.260223 15.304V6.3315C0.260223 4.68841 0.912937 3.11262 2.07478 1.95078C3.23661 0.788944 4.8124 0.13623 6.45549 0.13623ZM6.24186 2.27253C5.22201 2.27253 4.24394 2.67766 3.5228 3.3988C2.80166 4.11994 2.39652 5.09802 2.39652 6.11787V15.5176C2.39652 17.6432 4.11624 19.3629 6.24186 19.3629H15.6416C16.6614 19.3629 17.6395 18.9578 18.3606 18.2367C19.0818 17.5155 19.4869 16.5374 19.4869 15.5176V6.11787C19.4869 3.99225 17.7672 2.27253 15.6416 2.27253H6.24186ZM16.5495 3.87475C16.9036 3.87475 17.2432 4.01543 17.4936 4.26582C17.744 4.51622 17.8847 4.85583 17.8847 5.20994C17.8847 5.56405 17.744 5.90367 17.4936 6.15406C17.2432 6.40446 16.9036 6.54513 16.5495 6.54513C16.1954 6.54513 15.8558 6.40446 15.6054 6.15406C15.355 5.90367 15.2143 5.56405 15.2143 5.20994C15.2143 4.85583 15.355 4.51622 15.6054 4.26582C15.8558 4.01543 16.1954 3.87475 16.5495 3.87475ZM10.9417 5.47698C12.3582 5.47698 13.7166 6.03966 14.7182 7.04125C15.7198 8.04283 16.2825 9.40127 16.2825 10.8177C16.2825 12.2342 15.7198 13.5926 14.7182 14.5942C13.7166 15.5958 12.3582 16.1585 10.9417 16.1585C9.52527 16.1585 8.16683 15.5958 7.16524 14.5942C6.16366 13.5926 5.60097 12.2342 5.60097 10.8177C5.60097 9.40127 6.16366 8.04283 7.16524 7.04125C8.16683 6.03966 9.52527 5.47698 10.9417 5.47698ZM10.9417 7.61328C10.0918 7.61328 9.27678 7.95089 8.67583 8.55184C8.07488 9.15279 7.73727 9.96785 7.73727 10.8177C7.73727 11.6676 8.07488 12.4827 8.67583 13.0836C9.27678 13.6846 10.0918 14.0222 10.9417 14.0222C11.7916 14.0222 12.6067 13.6846 13.2076 13.0836C13.8086 12.4827 14.1462 11.6676 14.1462 10.8177C14.1462 9.96785 13.8086 9.15279 13.2076 8.55184C12.6067 7.95089 11.7916 7.61328 10.9417 7.61328Z" fill="#A9A9A9"/>
</svg>
