<svg width="26" height="16" viewBox="0 0 26 16" fill="none" xmlns="http://www.w3.org/2000/svg">
<path d="M25.102 15.1665C24.77 15.5221 24.3769 15.7 23.9227 15.7C23.4685 15.7 23.0758 15.5221 22.7447 15.1665L13.0166 4.74569L3.25536 15.202C2.94548 15.534 2.55813 15.7 2.09331 15.7C1.62848 15.7 1.23006 15.5221 0.898048 15.1665C0.566032 14.8108 0.400024 14.3897 0.400024 13.9032C0.400024 13.4166 0.566032 12.996 0.898048 12.6413L12.087 0.691195C12.2198 0.548932 12.3637 0.447927 12.5186 0.388176C12.6735 0.328426 12.8396 0.299024 13.0166 0.299973C13.1937 0.299973 13.3597 0.329847 13.5146 0.389598C13.6696 0.449348 13.8135 0.549881 13.9463 0.691195L25.1352 12.6769C25.4451 13.0088 25.6 13.4181 25.6 13.9046C25.6 14.3911 25.434 14.8118 25.102 15.1665Z" fill="white"/>
</svg>
