<svg width="27" height="22" viewBox="0 0 27 22" fill="none" xmlns="http://www.w3.org/2000/svg">
<path d="M0.248199 5.44903C0.248199 4.02516 0.81383 2.65961 1.82066 1.65278C2.82749 0.645953 4.19304 0.0803223 5.61691 0.0803223H20.6493C22.0732 0.0803223 23.4387 0.645953 24.4456 1.65278C25.4524 2.65961 26.018 4.02516 26.018 5.44903V16.1865C26.018 17.6103 25.4524 18.9759 24.4456 19.9827C23.4387 20.9895 22.0732 21.5552 20.6493 21.5552H5.61691C4.19304 21.5552 2.82749 20.9895 1.82066 19.9827C0.81383 18.9759 0.248199 17.6103 0.248199 16.1865V5.44903ZM9.91188 6.13623V15.4993C9.91188 16.0361 10.5003 16.3647 10.9577 16.0855L17.9564 11.8077C18.1261 11.7042 18.2663 11.5588 18.3637 11.3854C18.461 11.212 18.5121 11.0166 18.5121 10.8177C18.5121 10.6189 18.461 10.4235 18.3637 10.2501C18.2663 10.0767 18.1261 9.93129 17.9564 9.82775L10.9556 5.55211C10.8514 5.48893 10.7324 5.45456 10.6106 5.45251C10.4888 5.45047 10.3687 5.48082 10.2625 5.54047C10.1563 5.60012 10.0679 5.68692 10.0063 5.79198C9.94468 5.89704 9.9121 6.01444 9.91188 6.13623Z" fill="#A9A9A9"/>
</svg>
