<svg width="40" height="40" viewBox="0 0 40 40" fill="none" xmlns="http://www.w3.org/2000/svg">
<path d="M15.0363 28.9644C14.7899 28.7184 14.6667 28.4273 14.6667 28.0908C14.6667 27.755 14.7899 27.4642 15.0363 27.2182L22.2541 20.0123L15.0116 12.7817C14.7817 12.5521 14.6667 12.2652 14.6667 11.9209C14.6667 11.5766 14.7899 11.2815 15.0363 11.0355C15.2826 10.7896 15.5743 10.6666 15.9113 10.6666C16.2476 10.6666 16.539 10.7896 16.7853 11.0355L25.0624 19.3236C25.161 19.422 25.2309 19.5286 25.2723 19.6433C25.3131 19.7581 25.3334 19.8811 25.3334 20.0123C25.3334 20.1434 25.3131 20.2664 25.2723 20.3812C25.2309 20.4959 25.161 20.6025 25.0624 20.7009L16.7607 28.989C16.5307 29.2185 16.2476 29.3333 15.9113 29.3333C15.5743 29.3333 15.2826 29.2103 15.0363 28.9644Z" fill="white"/>
</svg>
