<svg width="40" height="40" viewBox="0 0 40 40" fill="none" xmlns="http://www.w3.org/2000/svg">
<path d="M23.2197 28.9639L14.9371 20.6895C14.8388 20.591 14.7693 20.4843 14.7287 20.3694C14.6874 20.2544 14.6667 20.1313 14.6667 20C14.6667 19.8686 14.6874 19.7455 14.7287 19.6306C14.7693 19.5156 14.8388 19.4089 14.9371 19.3104L23.2197 11.0114C23.4491 10.7815 23.7359 10.6666 24.08 10.6666C24.424 10.6666 24.719 10.7898 24.9648 11.036C25.2105 11.2823 25.3334 11.5696 25.3334 11.8979C25.3334 12.2263 25.2105 12.5136 24.9648 12.7599L17.7389 20L24.9648 27.2401C25.1941 27.4699 25.3088 27.7529 25.3088 28.0892C25.3088 28.4261 25.1859 28.7176 24.9402 28.9639C24.6944 29.2102 24.4077 29.3333 24.08 29.3333C23.7523 29.3333 23.4655 29.2102 23.2197 28.9639Z" fill="white"/>
</svg>
