<svg width="30" height="30" viewBox="0 0 30 30" fill="none" xmlns="http://www.w3.org/2000/svg">
<path d="M15.0061 1.24939C18.4579 1.24939 21.2561 4.04761 21.2561 7.49939V9.99939H25.0061C25.6965 9.99939 26.2561 10.559 26.2561 11.2494V26.2494C26.2561 26.9398 25.6965 27.4994 25.0061 27.4994H5.0061C4.31575 27.4994 3.7561 26.9398 3.7561 26.2494V11.2494C3.7561 10.559 4.31575 9.99939 5.0061 9.99939H8.7561V7.49939C8.7561 4.04761 11.5543 1.24939 15.0061 1.24939ZM21.2561 13.7494H18.7561V14.9994C18.7561 15.6898 19.3158 16.2494 20.0061 16.2494C20.6471 16.2494 21.1755 15.7669 21.2478 15.1451L21.2561 14.9994V13.7494ZM11.2561 13.7494H8.7561V14.9994C8.7561 15.6898 9.31575 16.2494 10.0061 16.2494C10.6472 16.2494 11.1755 15.7669 11.2477 15.1451L11.2561 14.9994V13.7494ZM15.0061 3.74939C13.009 3.74939 11.3765 5.31054 11.2625 7.27905L11.2561 7.49939V9.99939H18.7561V7.49939C18.7561 5.50229 17.195 3.86981 15.2265 3.75575L15.0061 3.74939Z" fill="white"/>
</svg>
