<svg width="30" height="30" viewBox="0 0 30 30" fill="none" xmlns="http://www.w3.org/2000/svg">
<path d="M26.25 16.5527V25H27.5V27.5H2.5V25H3.75V16.5527C2.24251 15.5437 1.25 13.8252 1.25 11.875C1.25 10.8411 1.53054 9.84526 2.04152 8.99683L5.43163 3.125C5.65491 2.73825 6.06757 2.5 6.51415 2.5H23.4859C23.9324 2.5 24.3451 2.73825 24.5684 3.125L27.9469 8.97715C28.4695 9.84526 28.75 10.8411 28.75 11.875C28.75 13.8252 27.7575 15.5437 26.25 16.5527ZM23.75 17.4656C23.5448 17.4884 23.3363 17.5 23.125 17.5C21.5511 17.5 20.0986 16.8475 19.0625 15.7665C18.0264 16.8475 16.5739 17.5 15 17.5C13.4261 17.5 11.9736 16.8475 10.9375 15.7665C9.90137 16.8475 8.44889 17.5 6.875 17.5C6.66375 17.5 6.45521 17.4884 6.25 17.4656V25H23.75V17.4656ZM7.23581 5L4.19497 10.2665C3.90511 10.748 3.75 11.2986 3.75 11.875C3.75 13.6009 5.14911 15 6.875 15C8.1637 15 9.30584 14.2129 9.77724 13.0369C10.1968 11.9903 11.6783 11.9903 12.0978 13.0369C12.5691 14.2129 13.7113 15 15 15C16.2887 15 17.4309 14.2129 17.9023 13.0369C18.3218 11.9903 19.8032 11.9903 20.2227 13.0369C20.6941 14.2129 21.8363 15 23.125 15C24.8509 15 26.25 13.6009 26.25 11.875C26.25 11.2986 26.0949 10.748 25.7934 10.2468L22.7641 5H7.23581Z" fill="white"/>
</svg>
