<svg width="30" height="30" viewBox="0 0 30 30" fill="none" xmlns="http://www.w3.org/2000/svg">
<path d="M5.00586 20V5H2.50586V2.5H6.25586C6.94622 2.5 7.50586 3.05965 7.50586 3.75V18.75H23.0539L25.5539 8.75H10.0059V6.25H27.1549C27.8453 6.25 28.4049 6.80965 28.4049 7.5C28.4049 7.6022 28.3924 7.70402 28.3675 7.80317L25.2425 20.3031C25.1035 20.8596 24.6035 21.25 24.0299 21.25H6.25586C5.56551 21.25 5.00586 20.6904 5.00586 20ZM7.50586 28.75C6.12515 28.75 5.00586 27.6308 5.00586 26.25C5.00586 24.8692 6.12515 23.75 7.50586 23.75C8.88657 23.75 10.0059 24.8692 10.0059 26.25C10.0059 27.6308 8.88657 28.75 7.50586 28.75ZM22.5059 28.75C21.1251 28.75 20.0059 27.6308 20.0059 26.25C20.0059 24.8692 21.1251 23.75 22.5059 23.75C23.8866 23.75 25.0059 24.8692 25.0059 26.25C25.0059 27.6308 23.8866 28.75 22.5059 28.75Z" fill="#333333"/>
</svg>
