<svg width="36" height="36" viewBox="0 0 36 36" fill="none" xmlns="http://www.w3.org/2000/svg">
<path d="M24.75 4.5C29.3064 4.5 33 8.25 33 13.5C33 24 21.75 30 18 32.25C14.25 30 3 24 3 13.5C3 8.25 6.75 4.5 11.25 4.5C14.04 4.5 16.5 6 18 7.5C19.5 6 21.96 4.5 24.75 4.5ZM19.4009 27.9057C20.7232 27.0728 21.915 26.2433 23.0324 25.3544C27.5006 21.7995 30 17.9152 30 13.5C30 9.96114 27.6945 7.5 24.75 7.5C23.1362 7.5 21.389 8.35366 20.1213 9.62132L18 11.7426L15.8787 9.62132C14.611 8.35366 12.8638 7.5 11.25 7.5C8.33859 7.5 6 9.98475 6 13.5C6 17.9152 8.4994 21.7995 12.9677 25.3544C14.085 26.2433 15.2768 27.0728 16.5991 27.9057C17.0469 28.1878 17.4916 28.4593 18 28.7628C18.5084 28.4593 18.9531 28.1878 19.4009 27.9057Z" fill="white"/>
</svg>
