<svg width="30" height="30" viewBox="0 0 30 30" fill="none" xmlns="http://www.w3.org/2000/svg">
<path d="M25 27.5H22.5V25C22.5 22.9289 20.8211 21.25 18.75 21.25H11.25C9.17894 21.25 7.5 22.9289 7.5 25V27.5H5V25C5 21.5483 7.79822 18.75 11.25 18.75H18.75C22.2017 18.75 25 21.5483 25 25V27.5ZM15 16.25C10.8579 16.25 7.5 12.8921 7.5 8.75C7.5 4.60786 10.8579 1.25 15 1.25C19.1421 1.25 22.5 4.60786 22.5 8.75C22.5 12.8921 19.1421 16.25 15 16.25ZM15 13.75C17.7614 13.75 20 11.5114 20 8.75C20 5.98857 17.7614 3.75 15 3.75C12.2386 3.75 10 5.98857 10 8.75C10 11.5114 12.2386 13.75 15 13.75Z" fill="#333333"/>
</svg>
