<svg width="40" height="40" viewBox="0 0 40 40" fill="none" xmlns="http://www.w3.org/2000/svg">
<path d="M11.9167 35.1667C11.5 34.7501 11.2917 34.2567 11.2917 33.6867C11.2917 33.1179 11.5 32.6251 11.9167 32.2084L24.125 20.0001L11.875 7.75008C11.4861 7.36119 11.2917 6.87508 11.2917 6.29175C11.2917 5.70841 11.5 5.20841 11.9167 4.79175C12.3334 4.37508 12.8267 4.16675 13.3967 4.16675C13.9656 4.16675 14.4584 4.37508 14.875 4.79175L28.875 18.8334C29.0417 19.0001 29.16 19.1806 29.23 19.3751C29.2989 19.5695 29.3334 19.7779 29.3334 20.0001C29.3334 20.2223 29.2989 20.4306 29.23 20.6251C29.16 20.8195 29.0417 21.0001 28.875 21.1667L14.8334 35.2084C14.4445 35.5973 13.9656 35.7917 13.3967 35.7917C12.8267 35.7917 12.3334 35.5834 11.9167 35.1667Z" fill="#555555"/>
</svg>
