<svg width="40" height="40" viewBox="0 0 40 40" fill="none" xmlns="http://www.w3.org/2000/svg">
<path d="M28.0834 35.1667C28.5 34.7501 28.7084 34.2567 28.7084 33.6867C28.7084 33.1179 28.5 32.6251 28.0834 32.2084L15.875 20.0001L28.125 7.75008C28.5139 7.36119 28.7084 6.87508 28.7084 6.29175C28.7084 5.70841 28.5 5.20841 28.0834 4.79175C27.6667 4.37508 27.1734 4.16675 26.6034 4.16675C26.0345 4.16675 25.5417 4.37508 25.125 4.79175L11.125 18.8334C10.9584 19.0001 10.84 19.1806 10.77 19.3751C10.7012 19.5695 10.6667 19.7779 10.6667 20.0001C10.6667 20.2223 10.7012 20.4306 10.77 20.6251C10.84 20.8195 10.9584 21.0001 11.125 21.1667L25.1667 35.2084C25.5556 35.5973 26.0345 35.7917 26.6034 35.7917C27.1734 35.7917 27.6667 35.5834 28.0834 35.1667Z" fill="#555555"/>
</svg>
