<svg width="25" height="24" viewBox="0 0 25 24" fill="none" xmlns="http://www.w3.org/2000/svg">
<path d="M12.3443 14.975C12.211 14.975 12.082 14.95 11.9573 14.9C11.832 14.85 11.7276 14.7833 11.6443 14.7L7.04429 10.1C6.86095 9.91665 6.76929 9.68332 6.76929 9.39999C6.76929 9.11665 6.86095 8.88332 7.04429 8.69999C7.22762 8.51665 7.46095 8.42499 7.74429 8.42499C8.02762 8.42499 8.26095 8.51665 8.44429 8.69999L12.3443 12.6L16.2443 8.69999C16.4276 8.51665 16.661 8.42499 16.9443 8.42499C17.2276 8.42499 17.461 8.51665 17.6443 8.69999C17.8276 8.88332 17.9193 9.11665 17.9193 9.39999C17.9193 9.68332 17.8276 9.91665 17.6443 10.1L13.0443 14.7C12.9443 14.8 12.836 14.8707 12.7193 14.912C12.6026 14.954 12.4776 14.975 12.3443 14.975Z" fill="#91C300"/>
</svg>
