<svg width="30" height="30" viewBox="0 0 30 30" fill="none" xmlns="http://www.w3.org/2000/svg">
<path d="M3.75 5.625C2.71447 5.625 1.875 6.46447 1.875 7.5C1.875 8.53553 2.71447 9.375 3.75 9.375H26.25C27.2855 9.375 28.125 8.53553 28.125 7.5C28.125 6.46447 27.2855 5.625 26.25 5.625H3.75ZM3.75 13.125C2.71447 13.125 1.875 13.9645 1.875 15C1.875 16.0355 2.71447 16.875 3.75 16.875H26.25C27.2855 16.875 28.125 16.0355 28.125 15C28.125 13.9645 27.2855 13.125 26.25 13.125H3.75ZM3.75 20.625C2.71447 20.625 1.875 21.4645 1.875 22.5C1.875 23.5355 2.71447 24.375 3.75 24.375H26.25C27.2855 24.375 28.125 23.5355 28.125 22.5C28.125 21.4645 27.2855 20.625 26.25 20.625H3.75Z" fill="#91C300"/>
</svg>
