<?xml version="1.0" encoding="utf-8"?>
<!-- Generator: Adobe Illustrator 24.0.2, SVG Export Plug-In . SVG Version: 6.00 Build 0)  -->
<svg version="1.1" id="Layer_1" xmlns="http://www.w3.org/2000/svg" xmlns:xlink="http://www.w3.org/1999/xlink" x="0px" y="0px"
	 viewBox="0 0 458 459" style="enable-background:new 0 0 458 459;" xml:space="preserve">
<style type="text/css">
	.st0{filter:url(#Adobe_OpacityMaskFilter);}
	.st1{fill:url(#SVGID_2_);}
	.st2{mask:url(#SVGID_1_);}
	.st3{fill:#FFFFFF;}
</style>
<defs>
	<filter id="Adobe_OpacityMaskFilter" filterUnits="userSpaceOnUse" x="9.4" y="0.2" width="439.3" height="458.6">
		<feColorMatrix  type="matrix" values="1 0 0 0 0  0 1 0 0 0  0 0 1 0 0  0 0 0 1 0"/>
	</filter>
</defs>
<mask maskUnits="userSpaceOnUse" x="9.4" y="0.2" width="439.3" height="458.6" id="SVGID_1_">
	<g class="st0">
		<radialGradient id="SVGID_2_" cx="214.7048" cy="230.2967" r="228.7562" gradientUnits="userSpaceOnUse">
			<stop  offset="0.2167" style="stop-color:#FFFFFF;stop-opacity:0.75"/>
			<stop  offset="1" style="stop-color:#FFFFFF;stop-opacity:0"/>
		</radialGradient>
		<rect x="-3.6" y="-8.4" class="st1" width="436.7" height="477.4"/>
	</g>
</mask>
<g class="st2">
	<g>
		<path d="M165.1,218.7c-6.7,0.1-12.1-5.5-12.1-12.1c0-6.6,5.5-12.2,12.3-12.1c6.6,0.1,12.1,5.5,12,12.2
			C177.2,213.2,171.9,218.8,165.1,218.7z"/>
		<path d="M165.1,244.8c-6.7-0.1-12.1-5.4-12.1-12.2c0-6.8,5.4-12.1,12.1-12.1c6.8,0,12.2,5.4,12.1,12.2
			C177.2,239.4,171.9,244.8,165.1,244.8z"/>
		<path d="M216.7,272.1c6.7-0.1,12.1,5.6,12,12.1c0,6.5-5.5,12.2-12.3,12.1c-6.5-0.1-12-5.6-11.9-12.3
			C204.6,277.6,209.9,271.9,216.7,272.1z"/>
		<path d="M216.5,218.7c-6.7,0.1-12-5.6-12-12.1c0-6.6,5.5-12.1,12.1-12.1c6.6,0,12.2,5.6,12.1,12.3
			C228.7,213.1,223.4,218.9,216.5,218.7z"/>
		<path d="M203.3,181.2c0.1,6.6-5.5,12.1-12,12.2c-6.7,0-12.2-5.4-12.2-12.2c0-6.8,5.6-12.1,12.1-12.1
			C197.7,169.1,203.4,174.5,203.3,181.2z"/>
		<path d="M191.2,218.7c-6.6,0.1-12.1-5.5-12.1-12.1c0-6.6,5.6-12.1,12.2-12.1c6.4,0,12,5.5,12,12.2
			C203.3,213.2,197.9,218.9,191.2,218.7z"/>
		<path d="M228.7,181.2c0,6.5-5.4,12.1-12.1,12.1c-6.8,0-12.2-5.6-12.2-12.2c0-6.7,5.6-12.1,12.1-12.1
			C223.2,169.1,228.8,174.6,228.7,181.2z"/>
		<path d="M228.7,258.1c0,6.7-5.4,12.1-12.1,12.1c-6.8,0-12.2-5.4-12.1-12.2c0-6.6,5.4-12.1,12.1-12.1
			C223.3,246,228.8,251.5,228.7,258.1z"/>
		<path d="M216.6,244.8c-6.7-0.1-12.1-5.5-12-12.2c0-6.7,5.4-12.1,12.1-12.1c6.7,0,12.2,5.5,12.1,12.2
			C228.7,239.3,223.3,244.8,216.6,244.8z"/>
		<path d="M268,218.7c-6.7,0.1-12-5.6-12-12.1c0-6.5,5.4-12.1,12.1-12.1c6.6,0,12.2,5.5,12.1,12.3
			C280.1,213.2,274.7,218.9,268,218.7z"/>
		<path d="M254.7,181.2c0.1,6.7-5.5,12.2-12.2,12.1c-6.6,0-12.1-5.5-12-12.2c0-6.7,5.6-12.1,12.2-12.1
			C249.1,169.1,254.8,174.4,254.7,181.2z"/>
		<path d="M268.1,244.8c-6.8,0-12.1-5.6-12.2-12c0-6.7,5.3-12.2,12.1-12.2c6.7,0,12.1,5.3,12.1,12.1
			C280.2,239.4,274.8,244.7,268.1,244.8z"/>
		<path d="M203.3,258.1c0.1,6.7-5.4,12.1-12,12.1c-6.7,0-12.1-5.3-12.2-12.1c0-6.7,5.5-12.1,12.2-12.1
			C197.8,246,203.4,251.5,203.3,258.1z"/>
		<path d="M280.2,258.2c0,6.7-5.4,12.1-12.1,12c-6.8,0-12-5.5-12.1-12.1c0-6.5,5.4-12.2,12.2-12.1
			C274.8,246.1,280.2,251.5,280.2,258.2z"/>
		<path d="M254.7,206.6c0.1,6.6-5.4,12.1-12,12.1c-6.7,0-12.2-5.6-12.2-12.2c0-6.5,5.6-12.1,12.2-12.1
			C249.1,194.5,254.9,200,254.7,206.6z"/>
		<path d="M254.7,284.2c0.2,6.7-5.6,12.1-12,12.1c-6.6,0-12.2-5.6-12.2-12.2c0-6.4,5.4-12,12.2-12
			C249.3,272.1,254.8,277.5,254.7,284.2z"/>
		<path d="M203.3,232.7c0.1,6.6-5.4,12.2-12.2,12.1c-6.6-0.1-12-5.4-12-12.1c0-6.8,5.5-12.1,12.2-12.1
			C197.9,220.6,203.3,226,203.3,232.7z"/>
		<path d="M254.7,258.1c0.1,6.8-5.4,12.1-12,12.1c-6.7,0-12.1-5.4-12.2-12c-0.1-6.7,5.4-12.2,12.1-12.2
			C249.3,246,254.8,251.4,254.7,258.1z"/>
		<path d="M254.7,232.7c0.2,6.7-5.5,12.2-12.1,12.2c-6.6,0-12.1-5.5-12-12.2c0-6.7,5.4-12.1,12.1-12.1
			C249.3,220.6,254.8,225.9,254.7,232.7z"/>
		<path d="M203.3,284.2c0,6.6-5.5,12.1-12.1,12c-6.5,0-12-5.4-12-12.2c0-6.6,5.4-12,12.1-12C197.9,272.1,203.3,277.7,203.3,284.2z"
			/>
		<path d="M153,258c0.3-6.7,5.4-12,12.2-12c6.7,0,12.1,5.3,12,12.2c-0.1,6.8-5.3,12-12.2,12C158.3,270.1,153.2,264.9,153,258z"/>
		<path d="M280.2,181.3c-0.1,6.6-5.5,12-12.2,12c-6.7-0.1-12-5.6-11.9-12.3c0.1-6.6,5.5-11.9,12.2-11.9
			C274.7,169.2,280.2,174.5,280.2,181.3z"/>
		<path d="M216.6,167.8c-6.7-0.1-12-5.3-12-12c0-6.8,5.4-12.1,12.1-12.1c6.7,0,12,5.4,12,12.1C228.7,162.3,223.4,167.7,216.6,167.8z
			"/>
		<path d="M305.5,232.7c-0.2,6.9-5.4,12-12,12c-6.7,0-12.1-5.2-12.1-12c0-6.8,5.3-12,12.1-12C300.2,220.7,305.4,225.8,305.5,232.7z"
			/>
		<path d="M268.2,272.2c6.7,0.2,12,5.4,11.9,12.1c-0.1,6.8-5.3,12-12.1,11.9c-6.7,0-11.9-5.4-11.9-12.1
			C256.1,277.5,261.4,272.3,268.2,272.2z"/>
		<path d="M305.5,207.3c-0.3,6.9-5.4,11.9-12.1,11.9c-6.8-0.1-11.9-5.2-11.9-12.1c0.1-6.8,5.3-11.9,12.1-11.9
			C300.2,195.3,305.4,200.4,305.5,207.3z"/>
		<path d="M254.6,155.8c-0.2,6.7-5.3,11.9-12,11.9c-6.8,0-12-5.3-11.9-12c0-6.8,5.2-11.9,12-11.9
			C249.4,143.8,254.4,148.9,254.6,155.8z"/>
		<path d="M165.2,169.2c6.8,0.3,11.9,5.1,11.9,12c0,6.9-5,11.9-11.9,12c-6.9,0-12-5-12-12C153.2,174.3,158.3,169.5,165.2,169.2z"/>
		<path d="M203.1,155.8c-0.4,6.8-5.1,11.8-12,11.8c-6.9,0-11.9-5.1-11.9-11.9c0-6.9,5-11.9,11.9-11.9
			C198,143.9,202.7,148.8,203.1,155.8z"/>
		<path d="M305.4,258.1c-0.4,6.8-4.9,11.9-11.9,11.9c-7,0-11.9-4.9-11.9-11.8c0-6.8,4.7-11.4,11.8-12
			C300,246.6,305,250.8,305.4,258.1z"/>
		<path d="M165.2,295.8c-6.6,0.3-11.8-5.4-11.8-11.6c0-6.4,5-11.8,11.7-11.8c6.7,0,11.7,5.4,11.7,11.7
			C176.9,290.4,171.7,296.1,165.2,295.8z"/>
		<path d="M228.2,309.7c0.2,6.4-5.4,11.7-11.7,11.6c-6.4-0.1-11.6-5.4-11.6-11.7c0-6.2,5.3-11.7,11.7-11.7
			C222.9,297.9,228.6,303.5,228.2,309.7z"/>
		<path d="M151.3,232.6c0.4,6.4-5.4,11.7-11.6,11.7c-6.2,0-11.7-5.4-11.7-11.7c0-6.2,5.4-11.6,11.6-11.6
			C146,221,151.6,226.5,151.3,232.6z"/>
		<path d="M305.1,181.2c0.4,6.2-5.4,11.7-11.5,11.7c-6.1,0-11.7-5.4-11.7-11.8c0.1-6.4,5.5-11.6,11.7-11.6
			C299.6,169.6,305.4,174.7,305.1,181.2z"/>
		<path d="M268,167.3c-6.4,0.3-11.6-5.5-11.5-11.6c0-6.1,5.2-11.6,11.8-11.6c6.1,0.1,11.6,5.5,11.5,11.8
			C279.7,161.8,274.3,167.8,268,167.3z"/>
		<path d="M253.6,309.6c0.3,6.5-5.4,11.6-11.5,11.6c-6.1,0-11.7-5.2-11.7-11.7c0-6.2,5.6-11.7,11.7-11.7
			C248.2,298,253.9,303.3,253.6,309.6z"/>
		<path d="M151.2,206.7c0.3,6.1-5.5,11.6-11.6,11.5c-5.9,0-11.5-5.3-11.5-11.7c0.1-6.1,5.5-11.5,11.6-11.5
			C145.8,195,151.6,200.4,151.2,206.7z"/>
		<path d="M202.7,309.7c-0.1,6.4-5.2,11.4-11.5,11.4c-6.3,0-11.5-5.2-11.5-11.5c0-6.3,5.3-11.5,11.6-11.5
			C197.3,298.1,202.7,303.3,202.7,309.7z"/>
		<path d="M139.7,269.6c-6.2,0.1-11.4-5.2-11.4-11.4c0-6.3,5.2-11.5,11.5-11.5c6.2,0,11.5,5.2,11.4,11.6
			C151.1,264.4,145.9,269.7,139.7,269.6z"/>
		<path d="M305,284.2c-0.2,6.4-5.1,11.4-11.4,11.4c-6.5,0-11.4-4.9-11.4-11.4c0-6.4,5-11.5,11.5-11.4
			C299.9,272.8,304.9,277.9,305,284.2z"/>
		<path d="M165.1,167.2c-6.3-0.2-11.4-5-11.3-11.5c0.1-6.7,5.1-11.3,11.4-11.3c6.2,0,11.3,4.7,11.3,11.3
			C176.6,162.2,171.5,167,165.1,167.2z"/>
		<path d="M268.1,320.9c-6.7-0.5-11.2-4.7-11.2-11.3c0-6.5,4.7-11.2,11.2-11.2c6.4,0,11.3,4.9,11.2,11.3
			C279.3,316.3,274.5,320.6,268.1,320.9z"/>
		<path d="M139.7,192.4c-6.4,0-11.3-5-11.2-11.3c0.1-6.7,5-11.1,11.2-11.1c6.3,0,11.1,4.4,11.2,11.1
			C151,187.5,146,192.4,139.7,192.4z"/>
		<path d="M319.6,243.7c-5.9,0.3-11.2-4.8-11.1-11.1c0-6.1,5-11.1,11.1-11.1c6.2,0,11.1,5.3,11.1,11
			C330.8,238.6,325.4,244.1,319.6,243.7z"/>
		<path d="M227.6,129.7c0.2,6-5,11.1-11.1,11c-6,0-11.1-5.1-11-11.1c0-6,5.1-11.1,11.1-11C222.6,118.6,227.9,123.7,227.6,129.7z"/>
		<path d="M319.5,218.2c-5.8,0.5-11-5.2-11-10.9c0-5.9,5.4-11.1,11-11.1c5.8,0,11.1,5.4,11.1,11.1
			C330.6,212.9,325.4,218.7,319.5,218.2z"/>
		<path d="M253.6,129.8c0.2,6-5.3,10.9-11,10.9c-5.6,0-11.1-5-11-11.2c0.1-5.8,5.2-10.9,11.1-10.9
			C248.4,118.7,253.9,123.7,253.6,129.8z"/>
		<path d="M304.5,155.7c0.3,5.9-5.1,11.1-10.9,11.1c-5.9,0-11-5.2-11-10.9c0-5.9,5.2-11.1,11-11.1
			C299.3,144.7,304.7,149.9,304.5,155.7z"/>
		<path d="M128.8,284.1c-0.1-5.8,5-10.9,11-10.9c5.8,0,10.9,5,10.8,11.1c-0.1,5.7-5,10.8-11,10.8C133.8,295.1,128.6,290,128.8,284.1
			z"/>
		<path d="M319.4,269c-5.8,0.2-10.8-5-10.8-10.9c0-5.9,5.1-11,11-10.9c5.8,0.1,11,5.1,10.9,11.1C330.4,264,325.5,269.3,319.4,269z"
			/>
		<path d="M165.1,320.5c-6.1,0.2-10.9-5.2-10.9-10.8c0-5.9,4.9-11,10.9-11c6.1,0,11,5.2,10.9,11
			C176.1,315.3,171.3,320.7,165.1,320.5z"/>
		<path d="M202,129.8c0.1,6.1-5.1,10.9-10.9,10.8c-5.9,0-10.9-4.8-10.9-10.9c0-6.2,4.9-10.9,11-10.9
			C197.1,118.9,202.1,123.6,202,129.8z"/>
		<path d="M308.8,181.1c0.4-6.1,4.7-10.6,10.8-10.6c6.1,0,10.6,4.7,10.6,10.7c0,6.1-4.6,10.7-10.7,10.6
			C313.1,191.8,309.1,187,308.8,181.1z"/>
		<path d="M268.1,140.4c-6.1-0.2-10.7-4.7-10.6-10.6c0-6.3,4.5-10.7,10.7-10.7c6,0,10.6,4.3,10.6,10.6
			C278.8,135.8,274.1,140.2,268.1,140.4z"/>
		<path d="M283,309.6c-0.3-5.8,4.8-10.6,10.4-10.6c5.6,0,10.6,4.3,10.6,10.6c0,6.2-4.8,10.5-10.6,10.5
			C287.6,320.2,282.8,315.3,283,309.6z"/>
		<path d="M216.8,346.1c-5.7,0.4-10.7-4.4-10.7-10.4c0-5.9,4.8-10.5,10.2-10.6c6-0.1,10.6,4.9,10.8,10.3
			C227.3,341,222.6,346.3,216.8,346.1z"/>
		<path d="M150.1,155.7c0.3,5.5-4.7,10.5-10.4,10.5c-5.7,0-10.5-4.9-10.5-10.5c0-5.6,5-10.4,10.4-10.4
			C145.2,145.2,150.5,150.1,150.1,155.7z"/>
		<path d="M113.7,222.3c5.6-0.2,10.4,4.6,10.4,10.5c0,5.9-5.1,10.5-10.5,10.4c-5.6-0.1-10.4-5-10.4-10.5
			C103.2,227.3,107.8,222,113.7,222.3z"/>
		<path d="M252.4,335.8c0.3,5.4-4.8,10.4-10.4,10.3c-5.5,0-10.5-4.9-10.4-10.6c0.1-5.3,4.9-10.3,10.6-10.3
			C247.6,325.3,252.8,330.1,252.4,335.8z"/>
		<path d="M124,206.6c0.4,5.7-4.7,10.4-10.2,10.5c-5.9,0-10.5-5.1-10.5-10.3c-0.1-5.5,4.8-10.5,10.4-10.5
			C119,196.2,124.3,201,124,206.6z"/>
		<path d="M309.2,284.1c-0.2-5.6,4.8-10.3,10.3-10.3c5.7,0,10.5,4.9,10.5,10.4c0,5.5-5,10.4-10.5,10.4
			C314.2,294.5,309,289.9,309.2,284.1z"/>
		<path d="M201.5,335.6c0.2,5.5-4.7,10.4-10.3,10.3c-5.5,0-10.3-4.8-10.3-10.4c0-5.5,4.8-10.3,10.5-10.2
			C196.7,325.4,201.6,330.1,201.5,335.6z"/>
		<path d="M165.1,119.5c5.7-0.2,10.4,4.7,10.4,10.3c0,5.8-4.9,10.4-10.3,10.4c-5.5,0-10.3-4.6-10.4-10.4
			C154.8,124.2,159.5,119.2,165.1,119.5z"/>
		<path d="M123.9,258.2c0.2,5.4-4.6,10.3-10.4,10.3c-5.7-0.1-10.2-5-10.2-10.4c0-5.5,4.6-10.3,10.3-10.3
			C119.2,247.8,124.1,252.5,123.9,258.2z"/>
		<path d="M139.6,319.8c-6.2-0.5-10.1-4.6-10-10.3c0-5.6,4.1-10,10.2-10c6.2,0,10.2,4.6,10.1,10.2
			C149.7,315.5,145.7,319.4,139.6,319.8z"/>
		<path d="M257.9,335.6c0.4-5.9,4.5-10.1,10.2-10.1c5.6,0,10,4.2,10,10.1c0,5.9-4.5,10.2-10.1,10.2
			C262.2,345.7,258.2,341.4,257.9,335.6z"/>
		<path d="M103.6,181.2c0.3-5.8,4.3-10.1,10-10.1c5.8,0,10.1,4.1,10.2,10.1c0,5.6-4.1,10-10,10.1
			C107.9,191.3,103.8,186.9,103.6,181.2z"/>
		<path d="M329.5,155.8c0,5.5-4.3,10-10,9.9c-5.8-0.1-9.9-4.4-9.9-10c0-5.7,4.6-9.8,9.9-9.9C325.1,145.8,329.6,150.4,329.5,155.8z"
			/>
		<path d="M293.6,139.7c-5.3,0.1-10-4.3-10-9.9c0-5.5,4.3-10,9.9-10c5.5,0,9.9,4.1,10,9.9C303.5,135.4,298.9,139.6,293.6,139.7z"/>
		<path d="M354.7,232.8c0.3,5.2-4.6,9.8-9.8,9.7c-5.2-0.1-9.8-4.6-9.7-9.9c0-5,4.4-9.8,10-9.7C350.1,222.9,355.2,227.5,354.7,232.8z
			"/>
		<path d="M216.7,114c-5.3,0.3-9.8-4.8-9.9-9.6c-0.1-5.3,4.8-10,9.8-10c5.2,0,9.8,4.7,9.8,9.8C226.4,109.3,222,114.3,216.7,114z"/>
		<path d="M123.4,284.3c0.4,5-4.6,9.8-9.8,9.7c-5.1-0.1-9.8-4.7-9.7-9.9c0.1-5.1,4.6-9.7,9.9-9.7
			C118.8,274.4,123.8,279.1,123.4,284.3z"/>
		<path d="M155.5,335.7c-0.4-5.2,4.5-9.8,9.7-9.8c5.2,0,9.7,4.6,9.7,9.7c0.1,5.5-4.9,9.9-9.7,9.9C160.3,345.5,155.1,341,155.5,335.7
			z"/>
		<path d="M354.7,207.3c0.3,5.1-4.5,9.7-9.8,9.7c-5.2,0-9.7-4.7-9.7-9.8c0-5.2,4.6-9.7,9.7-9.8C350,197.5,355,201.9,354.7,207.3z"/>
		<path d="M252.4,104.3c0.2,5.1-4.4,9.7-9.6,9.7c-5.4,0.1-9.9-4.7-9.9-9.8c0-5.1,4.7-9.8,9.7-9.8C247.7,94.5,252.6,99.1,252.4,104.3
			z"/>
		<path d="M344.9,267.8c-5.4,0-9.6-4.4-9.6-9.6c0-5.4,4.4-9.7,9.7-9.7c5.2,0,9.6,4.3,9.5,9.8C354.5,263.5,350.3,267.8,344.9,267.8z"
			/>
		<path d="M191.2,114c-5.5-0.3-9.6-4.3-9.6-9.7c0-5.4,4.3-9.7,9.7-9.7c5.4,0.1,9.6,4.2,9.5,9.7C200.7,109.8,196.7,113.6,191.2,114z"
			/>
		<path d="M319.5,319.3c-5.4-0.2-9.5-4.1-9.6-9.6c0-5.5,4.4-9.7,9.7-9.6c5.2,0,9.6,4.2,9.5,9.7C329.1,315.1,324.9,319.1,319.5,319.3
			z"/>
		<path d="M139.7,120.1c5.4,0.3,9.5,4,9.5,9.6c0,5.6-3.9,9.5-9.5,9.5c-5.7,0-9.6-3.9-9.6-9.6C130.2,124.1,134.3,120.4,139.7,120.1z"
			/>
		<path d="M303,335.6c-0.2,5.3-4.1,9.5-9.5,9.4c-5.4,0-9.5-4-9.4-9.5c0.1-5.5,4-9.3,9.4-9.3C299.2,326.3,302.7,330.4,303,335.6z"/>
		<path d="M345.1,190.6c-5,0.1-9.4-4.1-9.4-9.3c0-4.9,3.6-9.4,9.2-9.4c5.3-0.1,9.4,3.9,9.5,9.3C354.4,186.6,349.9,190.6,345.1,190.6
			z"/>
		<path d="M267.9,113.5c-5,0.1-9.1-4-9.1-9.3c0-5.4,4.3-9.4,9.5-9.3c5.2,0,9.3,4.6,9.3,9.5C277.4,109.2,273.4,113.9,267.9,113.5z"/>
		<path d="M113.6,146.4c5.3,0,9.4,4,9.4,9.3c0,5.2-3.9,9.4-9.4,9.4c-5.1,0-9.3-3.8-9.3-9.3C104.3,150.4,108.4,146.5,113.6,146.4z"/>
		<path d="M216.6,370.2c-4.9,0.2-9.1-4.2-9.2-9c0-5,4.3-9.2,9.2-9.2c4.8,0,9.1,4.2,9.1,9.2C225.7,366,221.5,370.4,216.6,370.2z"/>
		<path d="M97.4,232.7c0,5-4.3,9.1-9.3,9.1c-4.6-0.1-9.1-4-9-9.3c0.1-4.8,4.3-9,9.2-9C93.2,223.6,97.5,227.9,97.4,232.7z"/>
		<path d="M354.1,284.1c0.2,5-4.3,9.2-9.1,9.2c-5,0-9.1-4.3-9.1-9c0-4.8,4-9.2,9.1-9.2C349.9,275,354.3,279.3,354.1,284.1z"/>
		<path d="M174.2,104.3c0.1,4.8-4.1,9-9.1,9c-5,0-9.1-4.3-9.1-9.1c0-5,4.2-9.2,9.2-9.1C170,95.2,174.3,99.3,174.2,104.3z"/>
		<path d="M242.1,352.1c4.9-0.1,9,4.1,9,9.1c0,5-4.2,9.1-9.1,9.1c-5.1,0-9.2-4.2-9.1-9.2C233,356.3,236.9,351.9,242.1,352.1z"/>
		<path d="M88.2,215.7c-4.9-0.2-9-4.1-9-9.2c0-5,4.1-8.9,9-8.9c5.1,0,9.1,4.1,9.1,9.1C97.3,211.6,93.3,215.6,88.2,215.7z"/>
		<path d="M148.8,335.8c-0.3,5-4,9-9.1,8.9c-5.1,0-9.1-4.1-8.9-9.2c0.1-4.9,4-8.9,9.2-8.8C144.9,326.7,148.6,330.8,148.8,335.8z"/>
		<path d="M319.4,138.7c-5-0.2-8.9-4.2-8.8-9.1c0.1-4.9,4.1-9,9.2-8.9c4.9,0.1,8.9,4.2,8.8,9.2C328.5,134.7,324.5,138.8,319.4,138.7
			z"/>
		<path d="M104.7,309.6c0.1-5.1,4-9,8.9-9c5.1,0,9.1,3.9,9,9c0,4.9-3.9,8.9-9,8.9C108.7,318.6,104.8,314.6,104.7,309.6z"/>
		<path d="M191.2,352.1c5.1,0.2,9,4,8.9,9c-0.1,5.2-3.9,8.9-8.9,8.9c-5.2,0-9-3.8-9-8.9C182.2,356.2,185.9,352.3,191.2,352.1z"/>
		<path d="M88.2,267.1c-5-0.4-8.8-3.7-8.9-9c0-5.1,3.8-8.9,8.8-8.9c5.4,0,9.1,4,9,8.9C97.1,263.4,93.5,266.7,88.2,267.1z"/>
		<path d="M344.8,164.4c-5,0.2-8.6-4.2-8.6-8.7c0.1-4.8,4-8.7,8.9-8.6c4.5,0.1,8.6,3.8,8.6,8.8C353.7,160.6,349.7,164.7,344.8,164.4
			z"/>
		<path d="M302.1,104.4c0.2,4.7-4,8.6-8.7,8.6c-4.9,0-8.7-4.2-8.7-8.7c0-4.8,3.8-8.7,8.7-8.7C298.1,95.6,302.4,99.2,302.1,104.4z"/>
		<path d="M268.1,369.7c-4.8,0.3-8.7-4-8.7-8.5c0-4.7,3.9-8.7,8.6-8.7c4.8,0,8.6,3.7,8.7,8.6C276.7,366,272.8,369.9,268.1,369.7z"/>
		<path d="M88.2,189.7c-4.7,0.4-8.6-4.1-8.6-8.5c0-4.5,4.1-8.7,8.6-8.7c4.8,0,8.7,4.1,8.7,8.7C96.8,185.6,93.2,190,88.2,189.7z"/>
		<path d="M311.1,335.6c0-4.6,4-8.5,8.4-8.5c4.7,0,8.6,4,8.6,8.5c0,4.6-3.8,8.5-8.6,8.5C315,344.1,311.1,340.3,311.1,335.6z"/>
		<path d="M173.6,361.2c-0.1,4.5-3.8,8.4-8.6,8.3c-4.6-0.1-8.3-3.9-8.3-8.5c0-4.6,3.9-8.4,8.6-8.3
			C169.8,352.7,173.6,356.5,173.6,361.2z"/>
		<path d="M113.6,138.1c-4.5,0-8.4-3.9-8.4-8.4c0-4.5,3.7-8.4,8.4-8.4c4.7,0,8.5,3.8,8.5,8.5C122.1,134.5,118.1,138.2,113.6,138.1z"
			/>
		<path d="M96.6,284.1c0,4.8-4,8.5-8.4,8.5c-4.5,0-8.5-3.8-8.5-8.4c0-4.6,3.7-8.4,8.4-8.5C92.9,275.7,96.6,279.6,96.6,284.1z"/>
		<path d="M345,301.2c4.9,0.2,8.4,3.8,8.4,8.4c0,4.8-3.6,8.4-8.5,8.3c-4.7,0-8.3-3.6-8.3-8.3C336.6,305,340.1,301.4,345,301.2z"/>
		<path d="M379.4,232.6c-0.2,4.9-3.6,8.4-8.3,8.3c-4.9,0-8.3-3.3-8.4-8.3c0-5,3.4-8.3,8.3-8.4C375.6,224.3,379.1,227.6,379.4,232.6z
			"/>
		<path d="M225,78.2c-0.4,5-3.5,8.3-8.3,8.3c-4.9,0-8.2-3.2-8.3-8.2c0-5,3.3-8.3,8.3-8.3C221.4,70,224.5,73.1,225,78.2z"/>
		<path d="M139.7,96c4.9,0.2,8.3,3.4,8.3,8.3c0,4.9-3.3,8.3-8.2,8.3c-4.7,0-8.2-3.2-8.3-8.2C131.4,99.6,134.6,96.3,139.7,96z"/>
		<path d="M379.3,207.2c-0.2,4.5-3.2,8.2-8.2,8.2c-4.6,0-8.1-3.2-8.2-8.1c-0.1-4.9,3.3-8.2,8.1-8.3
			C375.6,199,378.9,202.1,379.3,207.2z"/>
		<path d="M250.7,78.2c0.2,4.4-3.3,8.1-8,8.2c-4.8,0-8.2-3.7-8.2-8c0-4.2,3.1-8.1,8.1-8.2C247.2,70.1,250.9,73.7,250.7,78.2z"/>
		<path d="M293.5,369.1c-4.4,0.4-8-3.9-8-8c0-4,3.7-8,8.1-8c4.2,0,8.1,3.9,8,8.1C301.6,365.2,297.7,369.5,293.5,369.1z"/>
		<path d="M371,250.2c4.6-0.4,8.1,4,8.1,7.9c0,4.1-3.6,8.1-8,8.1c-4.4,0-8.1-4-8.1-8C362.9,254.1,366.6,249.8,371,250.2z"/>
		<path d="M88.2,163.7c-4.1,0.4-8-3.9-8-7.9c0-4.2,4-8.1,8.1-8.1c4.3,0,8,3.9,8,8C96.3,159.8,92.5,164.1,88.2,163.7z"/>
		<path d="M191.1,86.1c-4.4,0.3-8-4-8-8c0.1-3.7,3.5-7.9,8.1-7.8c4.2,0,8,4,8,8.1C199.2,82.2,195.5,86.5,191.1,86.1z"/>
		<path d="M105.8,335.6c0-4.4,3.7-7.9,7.9-7.9c4.2,0,7.9,3.6,7.9,7.9c0,4.3-3.8,7.9-7.9,7.9C109.6,343.5,105.8,340.2,105.8,335.6z"
			/>
		<path d="M371.1,189c-4.3,0.2-7.9-3.6-8-7.8c0-4.2,3.5-8,7.9-8c4.4,0,7.8,3.6,7.8,7.9C378.9,185.5,375.3,189.1,371.1,189z"/>
		<path d="M275.9,78.3c0,4.2-3.5,7.9-7.9,7.8c-4.4-0.1-7.7-3.5-7.7-7.8c0-4.3,3.4-7.8,7.9-7.8C272.5,70.4,275.9,74,275.9,78.3z"/>
		<path d="M327.3,104.3c-0.2,4.6-3.6,7.8-7.9,7.7c-4.4-0.1-7.6-3.2-7.7-7.8c0-4.5,3.5-7.8,7.8-7.8
			C323.8,96.5,327.3,99.9,327.3,104.3z"/>
		<path d="M337.2,129.7c0.1-4.4,3.6-7.8,7.8-7.7c4.3,0.1,7.8,3.4,7.7,7.8c0,4.5-3.4,7.7-7.8,7.7
			C340.6,137.5,337.3,134.2,337.2,129.7z"/>
		<path d="M147.3,361.2c-0.2,4.4-3.6,7.5-7.7,7.4c-4.6-0.1-7.6-3.7-7.4-7.7c0.2-4.9,3.6-7.5,7.6-7.4
			C144,353.5,147.2,356.4,147.3,361.2z"/>
		<path d="M95.8,309.6c-0.1,3.9-2.9,7.6-7.6,7.6c-4.4,0-7.5-3.2-7.5-7.5c0-4.7,3.4-7.6,7.5-7.7C92.4,302,95.6,305.1,95.8,309.6z"/>
		<path d="M363.6,284.2c-0.3-4,3.5-7.6,7.4-7.5c4,0,7.5,3.2,7.5,7.5c0,4.3-3.1,7.4-7.4,7.5C366.8,291.7,363.4,288.2,363.6,284.2z"/>
		<path d="M224,386.5c0.3,4.4-3.6,7.5-7.4,7.5c-3.8,0-7.5-3.3-7.4-7.5c0-4,3.4-7.4,7.4-7.4C220.6,379.1,224.2,382.3,224,386.5z"/>
		<path d="M165.1,85.6c-4,0.3-7.5-3.4-7.4-7.4c0-3.9,3.4-7.4,7.5-7.4c3.9,0,7.3,3.4,7.4,7.4C172.6,82.2,169.1,85.9,165.1,85.6z"/>
		<path d="M62.8,240c-3.9,0.3-7.4-3.3-7.4-7.3c0-4,3.6-7.4,7.4-7.4c3.8,0,7.4,3.5,7.4,7.5C70.2,236.5,66.8,240.3,62.8,240z"/>
		<path d="M249.4,386.6c0.2,4.1-3.5,7.4-7.4,7.4c-4,0-7.4-3.5-7.3-7.6c0.1-3.8,3.3-7.3,7.6-7.2C246.1,379.2,249.6,382.5,249.4,386.6
			z"/>
		<path d="M62.9,199.4c3.9-0.3,7.3,3.6,7.3,7.3c0,3.8-3.6,7.3-7.4,7.3c-3.5-0.1-7.2-3.3-7.2-7.4C55.5,202.8,59,199.1,62.9,199.4z"/>
		<path d="M198.4,386.5c0.1,4-3.3,7.3-7.2,7.3c-4,0-7.3-3.3-7.3-7.2c0-3.9,3.2-7.3,7.2-7.3C195.2,379.3,198.4,382.5,198.4,386.5z"/>
		<path d="M70.1,258.1c-0.1,4-3.4,7.3-7.3,7.3c-3.8,0-7.2-3.3-7.2-7.2c0-4,3.4-7.2,7.2-7.2C66.7,250.9,70,254.2,70.1,258.1z"/>
		<path d="M337.8,335.6c-0.1-3.7,3.2-7.2,7.3-7.2c4,0,7.2,3.4,7.2,7.2c0,4-3.3,7.2-7.3,7.3C341.1,342.9,337.7,339.5,337.8,335.6z"/>
		<path d="M286.4,78.2c0.1-4.1,3.4-7.2,7.3-7.1c4.2,0.1,7.1,3.3,7.1,7.2c0,4-3,7.1-7.2,7.1C289.6,85.4,286.4,82.3,286.4,78.2z"/>
		<path d="M106.5,104.3c0.2-4.2,3.2-7.2,7.2-7.2c4.2,0.1,7.1,3,7.1,7.2c0,3.9-2.9,7.1-7.2,7.1C109.6,111.4,106.7,108.3,106.5,104.3z
			"/>
		<path d="M371.1,148.6c4,0.1,7.1,3.1,7.1,7.1c0,4.3-3.3,7.3-7.2,7.2c-4.1-0.1-7.1-3.1-7.1-7.2C363.9,151.8,366.8,148.7,371.1,148.6
			z"/>
		<path d="M326.7,361.1c-0.4,4.5-3.3,7.1-7.2,7.1c-4.2-0.1-7-2.8-7-7.1c-0.1-4,2.8-7.1,7.1-7.1C323.7,354,326.4,357,326.7,361.1z"/>
		<path d="M268,379.5c2.2,0.1,4,0.8,5.4,2.3c1.2,1.3,1.8,3,1.8,4.7c0.1,3.7-3.4,7.2-7.1,7c-3.9-0.2-6.9-2.5-7-7
			C261,382.3,264.2,379.7,268,379.5z"/>
		<path d="M88.2,122.8c4.4,0,6.9,2.8,7,6.8c0.1,3.9-2.4,6.9-7,7c-4.1,0-6.8-3.1-6.9-6.8C81.3,126.1,84,122.8,88.2,122.8z"/>
		<path d="M62.6,188c-3.5,0.2-6.7-3-6.6-6.9c0.1-3.5,3.2-6.8,7-6.7c3.5,0.1,6.8,3.1,6.7,7.1C69.5,184.8,66.7,188.3,62.6,188z"/>
		<path d="M377.7,309.7c0.4,3.4-3.3,6.7-6.6,6.7c-3.5,0-6.8-3.3-6.8-6.8c0-3.4,3.1-6.6,6.7-6.7C374.4,302.9,378,306.1,377.7,309.7z"
			/>
		<path d="M62.8,290.8c-3.5,0.2-6.7-3.2-6.7-6.6c0-3.4,3.1-6.7,6.7-6.7c3.5,0,6.7,3.1,6.7,6.7C69.5,287.9,66.2,291,62.8,290.8z"/>
		<path d="M171.8,386.6c0.1,3.4-3,6.6-6.7,6.6c-3.6,0-6.7-3.3-6.7-6.7c0-3.6,3.3-6.7,6.7-6.7C168.6,379.8,171.9,382.9,171.8,386.6z"
			/>
		<path d="M139.7,71.6c3.8,0.2,6.6,3,6.6,6.7c0,3.7-2.9,6.6-6.7,6.6c-3.7-0.1-6.5-2.9-6.5-6.6C133.1,74.6,135.9,71.7,139.7,71.6z"/>
		<path d="M120.1,361.3c-0.3,4-3.2,6.3-6.6,6.2c-4.2-0.2-6.3-3.4-6.2-6.4c0.2-4.1,3.1-6.5,6.6-6.4
			C117.7,354.8,120,357.6,120.1,361.3z"/>
		<path d="M345,110.7c-4-0.2-6.5-3-6.4-6.4c0-3.6,2.3-6.3,6.3-6.4c3.6-0.1,6.4,2.2,6.5,6.3C351.5,108,348.7,110.5,345,110.7z"/>
		<path d="M81.8,335.4c0.3-3.7,3.3-6.4,6.7-6.2c3.8,0.2,6.3,3.1,6.2,6.5c-0.1,4-3,6.4-6.6,6.3C84.1,341.9,81.8,338.9,81.8,335.4z"/>
		<path d="M402.7,232.6c0.2,3.4-2.6,6.3-6.2,6.3c-3.7,0-6.4-2.6-6.3-6.3c0-3.6,2.8-6.2,6.2-6.2C399.8,226.3,402.9,229.2,402.7,232.6
			z"/>
		<path d="M210.4,52.8c-0.3-3.2,2.6-6.2,6.1-6.2c3.7,0,6.3,3,6.3,6.2c0,3.2-2.6,6.2-6.3,6.2C213,58.9,210.2,56,210.4,52.8z"/>
		<path d="M402.7,207.3c0.2,3.2-2.8,6.2-6.2,6.2c-3.4,0-6.2-2.8-6.2-6.3c0-3.2,2.7-6.2,6.4-6.1C399.9,201.1,403,204.1,402.7,207.3z"
			/>
		<path d="M293.4,392.7c-3.4,0.1-6.2-2.9-6.1-6.4c0.1-3.5,3.2-6.1,6.3-6.1c3.2,0.1,6.2,2.9,6.1,6.5
			C299.7,389.8,297.1,393,293.4,392.7z"/>
		<path d="M69,155.8c0.3,3.3-3,6.2-6.2,6.2c-3,0-6.2-2.8-6.2-6.3c0-3.1,2.9-6.2,6.2-6.1C66.1,149.6,69.3,152.7,69,155.8z"/>
		<path d="M242.6,58.9c-3.3,0.3-6.2-2.8-6.1-6.2c0-3,2.7-6.1,6.3-6.1c3.4,0.1,6.1,3.1,6.1,6.2C248.8,55.8,246.3,59.2,242.6,58.9z"/>
		<path d="M390.4,258.1c-0.3-3,2.7-6.1,6.1-6.1c3.3,0,6.2,3.1,6.1,6.2c0,3.1-2.9,6.1-6.2,6.1C393.2,264.2,390.1,261.4,390.4,258.1z"
			/>
		<path d="M377.1,129.7c0.2,3.3-2.9,6.2-6.1,6.2c-3.2,0-6-2.9-6.1-6c-0.1-3.2,3-6.2,6.1-6.2C374.1,123.6,377.3,126.6,377.1,129.7z"
			/>
		<path d="M191.2,58.8c-3.3,0.3-6.1-2.9-6.1-6.1c0-3,2.8-6,6.1-6c3.4,0,6.2,3,6.1,6.1C197.3,55.9,194.6,59,191.2,58.8z"/>
		<path d="M325.6,78.3c0,3.2-2.8,6-6.1,5.9c-3.3-0.1-5.9-2.8-5.9-6.1c0-3.2,2.7-6,6.1-6C322.9,72.2,325.7,75,325.6,78.3z"/>
		<path d="M396.4,187.2c-3.4-0.3-6-2.6-5.9-6c0.1-3.5,2.4-5.6,5.9-5.9c2.9-0.3,6.2,3,6,5.9C402.2,184.7,400,186.8,396.4,187.2z"/>
		<path d="M268,46.9c3.6,0.3,5.8,2.3,5.9,5.8c0,3.3-2,5.5-5.7,5.9c-3,0.3-6.1-2.7-5.9-5.8C262.5,49.1,264.6,47.3,268,46.9z"/>
		<path d="M68.5,309.6c0.2,3.2-2.5,5.7-5.6,5.7c-3,0-5.6-2.1-5.7-5.6c0-3.4,2.4-5.7,5.6-5.8C65.9,303.9,68.6,306.4,68.5,309.6z"/>
		<path d="M139.7,392.2c-3.3-0.2-5.7-2.4-5.6-5.8c0.1-3.5,2.4-5.6,5.7-5.5c3.5,0,5.6,2.3,5.6,5.6
			C145.4,390.1,142.9,392.1,139.7,392.2z"/>
		<path d="M345,366.7c-2.8,0.3-5.7-2.5-5.6-5.6c0-3.1,2.6-5.6,5.6-5.6c3.3,0,5.7,2.7,5.7,5.6C350.6,364.1,348,366.9,345,366.7z"/>
		<path d="M396.4,289.6c-2.9,0.3-5.5-2.9-5.5-5.5c0-2.7,2.9-5.7,5.7-5.5c3,0.2,5.2,2.5,5.3,5.6C402,287,399.2,289.9,396.4,289.6z"/>
		<path d="M165.1,47.4c2.7-0.2,5.5,2.6,5.5,5.4c0,2.8-2.8,5.5-5.6,5.5c-2.6,0-5.4-2.6-5.5-5.4C159.6,50,162.5,47.1,165.1,47.4z"/>
		<path d="M93.7,104.3c0.3,2.5-2.5,5.5-5.4,5.5c-2.9,0-5.5-2.7-5.5-5.5c0-3.1,3.1-5.5,5.4-5.6C91,98.7,94,101.6,93.7,104.3z"/>
		<path d="M371,330.3c2.9-0.2,5.5,2.6,5.5,5.4c0,2.9-2.8,5.5-5.5,5.4c-2.8,0-5.5-2.8-5.4-5.6C365.6,333,368,330.1,371,330.3z"/>
		<path d="M113.6,83.6c-3.1-0.4-5.3-2.2-5.3-5.4c0-3.3,2.2-5.1,5.3-5.3c2.7-0.2,5.4,2.7,5.4,5.4C119.1,80.9,116.3,83.7,113.6,83.6z"
			/>
		<path d="M221.8,412.5c-0.1,3.1-2.1,5.2-5.1,5.3c-3.1,0-5.2-2-5.2-5.2c0-3,1.9-5.1,5.1-5.2C219.4,407.3,221.6,409.3,221.8,412.5z"
			/>
		<path d="M324.6,386.7c0,3-2.4,5-5.3,4.9c-3.2-0.1-5-2.8-4.9-5.3c0.1-2.6,2.2-4.9,5.2-4.8C322.7,381.6,324.8,383.9,324.6,386.7z"/>
		<path d="M41.8,232.7c0.1,2.9-2.2,5.1-5,5.1c-2.9,0-5.1-2.2-5-5.1c0-3.1,2.3-5,5-5.1C39.2,227.5,41.9,229.6,41.8,232.7z"/>
		<path d="M247,412.5c0.4,2.9-2.6,5.1-4.9,5.1c-2.6,0-5-2.4-5-5c0-2.7,2.5-5.1,4.9-5.1C244.4,407.5,247.3,409.8,247,412.5z"/>
		<path d="M62.8,134.6c-2.5,0.3-5-2.4-5-4.9c0-2.6,2.4-5,4.9-5c2.7,0,5,2.3,5,4.9C67.8,132.3,65.3,134.9,62.8,134.6z"/>
		<path d="M396.3,160.6c-2.5,0.3-4.9-2.3-4.8-4.9c0-2.3,2.2-4.9,5.1-4.9c2.3,0.1,4.8,2.3,4.8,5.1
			C401.4,158.1,399.3,160.9,396.3,160.6z"/>
		<path d="M31.9,206.6c-0.3-2.6,2.4-4.9,4.8-4.9c2.5,0,5,2.4,5,5c0,2.3-2.2,4.9-5,4.8C34.2,211.5,31.6,209.3,31.9,206.6z"/>
		<path d="M298.4,52.8c0.3,2.7-2.4,4.9-4.8,4.9c-2.3,0-5-2.2-4.9-5.1c0-2.4,2.5-4.9,5-4.8C295.9,47.9,298.7,50,298.4,52.8z"/>
		<path d="M196,412.5c0,2.7-2.1,4.8-4.7,5c-2.3,0.1-5-2.2-5-4.9c0-2.8,2.7-5,4.9-5C193.2,407.6,196.3,409.8,196,412.5z"/>
		<path d="M36.7,253.3c2.5,0,4.9,2.3,4.9,4.9c0,2.7-2.3,4.8-4.8,4.8c-2.4,0-4.8-1.9-4.8-4.7C31.9,255.4,34.3,253.4,36.7,253.3z"/>
		<path d="M88.2,365.8c-2.9-0.1-4.7-2.5-4.7-4.7c0-2.6,2.3-4.8,4.8-4.8c2.6,0.1,4.7,2.1,4.7,4.9C92.9,363.9,90.8,365.7,88.2,365.8z"
			/>
		<path d="M263.4,412.4c0.3-2.9,2.5-4.6,4.8-4.4c3,0.3,4.4,2,4.4,4.7c0,2.5-2.4,4.7-4.7,4.5C265.1,417,263.5,414.9,263.4,412.4z"/>
		<path d="M392.1,309.4c0.1-2.6,1.9-4.1,4.6-4.2c2.2,0,4.2,2.2,4.2,4.6c-0.1,2.1-2,4.3-4.6,4.2C394.3,314,391.8,312.1,392.1,309.4z"
			/>
		<path d="M32.5,181.2c-0.3-2.6,2.2-4.4,4.3-4.4c2.2,0,4.4,2,4.4,4.4c0,2.4-2.1,4.5-4.4,4.5C34.5,185.6,32.2,183.8,32.5,181.2z"/>
		<path d="M340.7,78.3c-0.2-2.7,1.9-4.4,4.3-4.4c2.3,0,4.3,1.6,4.4,4.3c0,2.8-2.1,4.4-4.3,4.4C342.6,82.6,340.5,80.9,340.7,78.3z"/>
		<path d="M375.4,104.3c0.2,2.2-1.9,4.4-4.3,4.4c-2.5,0-4.4-2-4.4-4.3c0-2.5,2-4.4,4.4-4.4C373.4,99.9,375.6,101.9,375.4,104.3z"/>
		<path d="M139.7,48.5c2.4-0.2,4.3,2,4.3,4.2c0,2.4-2,4.4-4.3,4.4c-2.2,0-4.3-2-4.3-4.3C135.4,50.5,137.4,48.3,139.7,48.5z"/>
		<path d="M113.7,382.3c2.3,0,4.2,1.9,4.2,4.2c0,2.4-1.9,4.3-4.3,4.3c-2.3,0-4.3-2-4.3-4.3C109.4,384.3,111.4,382.3,113.7,382.3z"/>
		<path d="M62.3,331.5c2.2,0.1,4.1,2,4.1,4.2c0,2-1.8,4.2-4.2,4.2c-2.1,0-4.2-2-4.2-4.2C58,333.3,60.3,331.4,62.3,331.5z"/>
		<path d="M169.3,412.6c0,2.3-2,4.1-4.2,4.1c-2.3,0-4.1-2-4.1-4.2c0-2.3,2-4.1,4.2-4.1C167.5,408.5,169.3,410.4,169.3,412.6z"/>
		<path d="M40.9,284.2c-0.1,2-2.1,4.1-4.1,4.1c-2.1,0-4.3-2.2-4.1-4.3c0.2-2.3,1.9-3.9,4.1-4C38.9,280,41,282.2,40.9,284.2z"/>
		<path d="M316,52.9c0-2.1,1.5-3.6,3.5-3.7c1.8-0.1,3.7,1.9,3.7,3.6c0,1.9-2.1,3.7-3.6,3.7C317.8,56.5,315.7,54.6,316,52.9z"/>
		<path d="M297.1,412.6c0,2-1.6,3.6-3.6,3.6c-2.1,0-3.7-2-3.6-3.7c0-1.6,1.5-3.6,3.6-3.6C295.5,409,297.1,410.6,297.1,412.6z"/>
		<path d="M400,129.8c0.1,2-1.7,3.6-3.6,3.6c-2,0-3.6-1.7-3.7-3.7c0-1.6,1.9-3.6,3.7-3.6C398,126.1,400.2,127.6,400,129.8z"/>
		<path d="M422.6,229.1c2.3,0.1,3.7,2.2,3.5,3.7c-0.2,1.9-1.5,3.4-3.6,3.4c-2.1,0-3.6-1.8-3.5-3.7
			C419.1,230.6,420.6,229.2,422.6,229.1z"/>
		<path d="M40.3,155.8c-0.2,2.1-1.7,3.6-3.7,3.5c-1.9,0-3.5-1.6-3.4-3.5c0-2.1,1.5-3.5,3.6-3.6C38.6,152.1,40.4,154,40.3,155.8z"/>
		<path d="M374.6,361c-0.2,2.1-1.4,3.5-3.6,3.6c-1.9,0-3.4-1.4-3.5-3.4c-0.1-1.8,1.4-3.6,3.5-3.6C373.2,357.7,374.3,359,374.6,361z"
			/>
		<path d="M220,26.8c0,1.8-1.8,3.5-3.5,3.4c-1.8-0.1-3.4-1.8-3.3-3.5c0.1-1.8,1.8-3.4,3.6-3.3C218.5,23.5,220,25,220,26.8z"/>
		<path d="M422.5,203.9c1.8,0,3.5,1.6,3.5,3.3c0.1,1.6-1.7,3.4-3.4,3.5c-1.6,0.1-3.4-1.7-3.5-3.4C419,205.6,420.7,203.9,422.5,203.9
			z"/>
		<path d="M88.2,81.6c-2-0.2-3.4-1.5-3.3-3.5c0.1-2.1,1.5-3.2,3.3-3.3c1.7-0.1,3.5,1.7,3.5,3.4C91.7,79.9,89.9,81.6,88.2,81.6z"/>
		<path d="M242.6,23.4c1.7,0,3.5,1.7,3.5,3.3c0,1.7-1.7,3.4-3.4,3.5c-1.7,0-3.4-1.6-3.4-3.4C239.3,24.9,240.8,23.4,242.6,23.4z"/>
		<path d="M418.8,258.2c-0.2-1.8,1.4-3.2,3-3.3c1.8,0,3.3,1.4,3.3,3.2c0,1.9-1.5,3.2-3.2,3.2C420,261.3,418.6,260,418.8,258.2z"/>
		<path d="M345,390.3c-1.7,0.2-3.3-1.4-3.2-3.3c0-1.6,1.6-3.1,3.3-3.1c1.7,0,3.1,1.4,3.2,3.2C348.2,388.9,346.7,390.5,345,390.3z"/>
		<path d="M62.8,107.4c-2,0.1-3.2-1.5-3.2-3.1c0-1.9,1.4-3.2,3.2-3.2c1.9,0,3.2,1.2,3.2,3.2C65.9,106.1,64.8,107.6,62.8,107.4z"/>
		<path d="M194.2,26.7c0.2,1.8-1.5,3.2-3,3.1c-1.9-0.1-3-1.1-3.1-3c-0.1-1.6,1.3-3.1,3.1-3.1C192.8,23.6,194.4,25,194.2,26.7z"/>
		<path d="M39.8,309.6c0.2,1.3-1.5,3.1-3,3.1c-1.6-0.1-2.9-1.3-3-2.9c-0.1-1.6,1.4-3.1,2.9-3.1C38,306.6,39.8,307.9,39.8,309.6z"/>
		<path d="M142.7,412.5c0,1.6-1.4,3.1-3,3.1c-1.5,0-3.1-1.4-3.1-3c0-1.6,1.4-3.1,3-3.1C141.2,409.5,142.7,411,142.7,412.5z"/>
		<path d="M422.5,178.3c1.4,0,2.9,1.5,2.9,2.9c0,1.4-1.5,2.9-3,2.9c-1.4,0-2.9-1.4-2.9-2.8C419.5,179.8,421.1,178.3,422.5,178.3z"/>
		<path d="M396.5,332.7c1.7,0.1,2.9,1.8,2.9,3c-0.1,1.4-1.6,2.9-2.9,2.8c-1.5,0-3-1.5-2.8-3C393.7,334,394.9,332.9,396.5,332.7z"/>
		<path d="M268,24.4c1.3,0.1,2.8,1,2.9,2.8c0.1,1.4-1.3,2.9-2.8,3c-1.4,0.1-3-1.5-3-2.9C265.2,26,266.7,24.5,268,24.4z"/>
		<path d="M113.6,50.2c1.9,0,2.6,0.8,2.6,2.5c0,1.6-0.5,2.6-2.6,2.7c-1.7,0-2.6-1-2.6-2.6C111,51.3,111.9,50.2,113.6,50.2z"/>
		<path d="M421.8,286.7c-1.5,0-2.4-1.1-2.4-2.6c0-1.5,1-2.4,2.6-2.4c1.4,0,2.4,1.1,2.4,2.5C424.4,285.6,423.3,286.7,421.8,286.7z"/>
		<path d="M90.7,386.5c0,1.3-1.1,2.5-2.4,2.5c-1.2,0-2.4-1.1-2.4-2.3c0-1.2,1.1-2.5,2.3-2.5C89.4,384,90.6,385.2,90.7,386.5z"/>
		<path d="M321.9,412.5c0,1.3-1,2.4-2.3,2.4c-1.3,0-2.4-1-2.4-2.3c0-1.3,1-2.4,2.3-2.4C320.8,410.2,321.9,411.2,321.9,412.5z"/>
		<path d="M165,29.1c-1.3,0-2.3-1.1-2.2-2.5c0-1.3,1.2-2.3,2.4-2.3c1.3,0,2.4,1.2,2.3,2.6C167.4,28.2,166.4,29.2,165,29.1z"/>
		<path d="M371,80.5c-1,0-2.2-1.2-2.3-2.2c0-1,1.3-2.3,2.3-2.3c1,0,2.2,1.3,2.2,2.3C373.2,79.3,372,80.5,371,80.5z"/>
		<path d="M39,129.7c0,1-1.3,2.3-2.2,2.3c-1,0-2.3-1.2-2.3-2.2c0-1,1.3-2.3,2.3-2.3C37.8,127.5,39,128.7,39,129.7z"/>
		<path d="M60,361.1c0-1.1,1.2-2.2,2.3-2.2c1,0,2.3,1.3,2.3,2.2c0,1-1.3,2.3-2.4,2.3C61.1,363.3,60,362.1,60,361.1z"/>
		<path d="M240.1,438.1c0-1.3,0.6-1.9,1.9-2c1.1-0.1,2,0.7,1.9,1.9c0,1.3-0.6,1.9-1.8,1.9C240.8,440,240.1,439.4,240.1,438.1z"/>
		<path d="M422.3,157.7c-1.2-0.1-1.8-0.7-1.7-2c0-1.2,0.7-1.8,1.9-1.8c1.2,0,1.9,0.8,1.9,2C424.4,157.1,423.7,157.7,422.3,157.7z"/>
		<path d="M346.9,52.8c0.1,1.4-0.8,2-1.9,1.9c-1.3,0-1.9-0.7-1.9-2c0-1.2,0.7-1.8,1.9-1.9C346.1,50.8,346.9,51.5,346.9,52.8z"/>
		<path d="M398.3,104.3c0.1,1.2-0.8,1.9-1.8,1.9c-1.1,0-2.1-0.8-2-2c0.1-1.2,0.8-1.9,1.9-1.9C397.7,102.3,398.3,102.9,398.3,104.3z"
			/>
		<path d="M13.2,206.6c0.1,1.1-0.7,2-1.9,2c-1.2-0.1-1.9-0.7-1.9-1.9c0-1.2,0.7-2,2-2C12.6,204.7,13.2,205.4,13.2,206.6z"/>
		<path d="M13.2,232.7c0,1.3-0.6,1.9-1.8,1.9c-1.2,0-2-0.7-2-1.9c0-1.1,0.9-1.9,2-1.9C12.4,230.8,13.3,231.4,13.2,232.7z"/>
		<path d="M218.5,438c0,1.4-0.5,1.9-1.7,2c-1.1,0.1-2.1-0.6-2-1.9c0-1.4,0.6-1.9,1.9-2C217.6,436,218.5,436.7,218.5,438z"/>
		<path d="M295.4,27.4c0.1,1.2-0.8,1.9-2,1.8c-1.2-0.1-1.8-0.7-1.8-1.9c0-1.2,0.7-1.8,1.9-1.8C294.6,25.4,295.6,26.1,295.4,27.4z"/>
		<path d="M191.1,439.8c-1,0-1.8-1-1.8-1.9c0-0.9,1-1.8,1.9-1.7c0.9,0,1.7,0.9,1.7,1.8C193,439,192.1,439.9,191.1,439.8z"/>
		<path d="M13.1,258.1c0,1-0.8,1.8-1.8,1.8c-1,0-1.8-0.9-1.8-1.8c0-0.9,0.8-1.7,1.8-1.7C12.3,256.3,13.1,257.1,13.1,258.1z"/>
		<path d="M115.3,412.6c-0.4,0.9-0.8,1.7-1.9,1.6c-0.6,0-1.3-1-1.4-1.5c0-0.6,0.7-1.6,1.4-1.6C114.5,410.9,114.9,411.7,115.3,412.6z
			"/>
		<path d="M139.7,28.4c-1.3-0.7-1.7-1.2-1.5-2c0.1-0.5,0.9-1.2,1.4-1.2c0.5,0,1.3,0.6,1.5,1.2C141.4,27.2,141.1,27.7,139.7,28.4z"/>
		<path d="M269.6,438c0,0.7-0.7,1.5-1.4,1.6c-0.9,0.1-1.6-0.6-1.6-1.5c0-0.8,0.6-1.5,1.4-1.6C268.8,436.5,269.6,437.2,269.6,438z"/>
		<path d="M421.9,308c0.7,0,1.6,0.8,1.6,1.6c0,0.7-0.7,1.5-1.5,1.5c-0.7,0-1.5-0.7-1.5-1.4C420.4,308.9,421.1,308.1,421.9,308z"/>
		<path d="M36.8,334.2c0.8,0,1.5,0.7,1.5,1.5c0,0.8-0.8,1.6-1.6,1.5c-0.8,0-1.5-0.9-1.4-1.7C35.4,334.7,36,334.1,36.8,334.2z"/>
		<path d="M11.4,179.7c0.7,0,1.5,0.8,1.5,1.5c0,0.7-0.9,1.6-1.6,1.6c-0.6,0-1.5-1-1.5-1.5C9.7,180.5,10.7,179.7,11.4,179.7z"/>
		<path d="M89.4,52.7c0,0.7-0.5,1.3-1.2,1.3c-0.7,0-1.2-0.6-1.2-1.3c0-0.6,0.5-1.2,1.1-1.3C88.8,51.5,89.4,52,89.4,52.7z"/>
		<path d="M372.2,387.1c0,0.7-0.5,1.3-1.2,1.3c-0.7,0-1.2-0.6-1.2-1.3c0-0.6,0.5-1.2,1.1-1.3C371.6,385.8,372.2,386.3,372.2,387.1z"
			/>
		<path d="M165.2,436.8c0.7,0,1.2,0.6,1.2,1.4c0,0.7-0.6,1.2-1.3,1.2c-0.6-0.1-1.1-0.6-1.1-1.3C163.9,437.3,164.5,436.7,165.2,436.8
			z"/>
		<path d="M11.3,283c0.8,0,1.2,0.5,1.2,1.3c0,0.7-0.5,1.1-1.2,1.2c-0.7,0-1.2-0.4-1.2-1.1C10.1,283.5,10.6,283,11.3,283z"/>
		<path d="M62.8,79.4c-0.7,0-1.1-0.4-1.2-1.1c0-0.8,0.4-1.3,1.2-1.3c0.7,0,1.2,0.4,1.2,1.1C64,78.9,63.5,79.4,62.8,79.4z"/>
		<path d="M397.7,361c0,0.7-0.4,1.2-1.1,1.2c-0.8,0.1-1.3-0.4-1.3-1.2c0-0.8,0.4-1.2,1.2-1.2C397.2,359.9,397.6,360.3,397.7,361z"/>
		<path d="M37.9,104.2c-0.5,0.4-0.8,0.7-1.1,0.8c-0.5,0.1-0.8-0.1-0.8-0.7c0-0.4,0.2-0.8,0.6-0.7C37,103.6,37.3,103.9,37.9,104.2z"
			/>
		<path d="M423,335.7c-0.6,0.3-0.9,0.6-1.2,0.7c-0.5,0.1-0.6-0.3-0.6-0.7c0-0.6,0.3-0.8,0.8-0.7C422.3,335,422.5,335.3,423,335.7z"
			/>
		<path d="M191.1,0.2c0.4,0.5,0.7,0.7,0.8,1c0.1,0.5-0.1,0.8-0.7,0.9c-0.5,0-0.8-0.3-0.8-0.8C190.5,1,190.8,0.7,191.1,0.2z"/>
		<path d="M243.4,1c0,0.8-0.3,1.1-0.8,1c-0.3-0.1-0.6-0.4-0.7-0.7c-0.1-0.5,0.3-0.8,0.8-0.7C243,0.6,243.2,0.9,243.4,1z"/>
		<path d="M372.1,52.8c-0.5,0.3-0.8,0.6-1.1,0.7c-0.5,0.1-0.8-0.3-0.7-0.8c0-0.5,0.4-0.7,0.8-0.6C371.4,52.2,371.6,52.5,372.1,52.8z
			"/>
		<path d="M62.9,386.7c-0.1,0.1-0.3,0.4-0.6,0.5c-0.5,0.1-0.8-0.2-0.8-0.7c0-0.5,0.2-0.7,0.7-0.7C62.7,385.8,62.9,386,62.9,386.7z"
			/>
		<path d="M37.9,361c-0.5,0.4-0.8,0.7-1.1,0.8c-0.5,0.1-0.8-0.1-0.8-0.7c0-0.5,0.3-0.7,0.7-0.7C37.1,360.4,37.3,360.7,37.9,361z"/>
		<path d="M423.2,129.4c0,0.7-0.2,1-0.7,1c-0.4,0-0.8-0.1-0.8-0.6c0-0.5,0.2-0.9,0.7-0.8C422.8,129.1,423.1,129.3,423.2,129.4z"/>
		<path d="M12.1,155.6c-0.1,0.8-0.4,0.9-0.8,0.9c-0.5,0-0.6-0.4-0.6-0.8c0-0.5,0.3-0.8,0.7-0.7C11.7,155.1,11.9,155.5,12.1,155.6z"
			/>
		<path d="M293.6,439.1c-0.4-0.5-0.7-0.7-0.8-1c-0.1-0.5,0.2-0.8,0.8-0.8c0.5,0,0.8,0.3,0.7,0.7
			C294.2,438.3,293.9,438.6,293.6,439.1z"/>
		<path d="M217.7,1.2c-0.5,0.4-0.7,0.7-1,0.8c-0.5,0.1-0.8-0.2-0.8-0.8c0-0.5,0.3-0.8,0.7-0.7C216.9,0.6,217.2,0.9,217.7,1.2z"/>
		<path d="M191.1,457c0.4,0.5,0.7,0.7,0.8,1c0.1,0.5-0.1,0.8-0.7,0.9c-0.5,0-0.8-0.3-0.8-0.8C190.5,457.7,190.8,457.5,191.1,457z"/>
		<path d="M243.4,457.8c0,0.8-0.3,1.1-0.8,1c-0.3-0.1-0.6-0.4-0.7-0.7c-0.1-0.5,0.3-0.8,0.8-0.7C243,457.4,243.2,457.7,243.4,457.8z
			"/>
		<path d="M217.7,458c-0.5,0.4-0.7,0.7-1,0.8c-0.5,0.1-0.8-0.2-0.8-0.8c0-0.5,0.3-0.8,0.7-0.7C216.9,457.4,217.2,457.7,217.7,458z"
			/>
		<path d="M319.3,437.3c0.7,0,0.9,0.2,0.9,0.7c0,0.4-0.2,0.7-0.6,0.7c-0.4,0-0.8-0.2-0.7-0.7C318.9,437.8,319.2,437.5,319.3,437.3z"
			/>
		<path d="M447.7,233.4c-0.1-0.1-0.4-0.4-0.5-0.6c-0.1-0.4,0.1-0.7,0.6-0.7c0.4,0,0.7,0.1,0.8,0.6
			C448.7,233.1,448.4,233.3,447.7,233.4z"/>
		<path d="M12.1,309.4c0,0.8-0.3,0.9-0.7,0.9c-0.6,0-0.7-0.4-0.7-0.8c0-0.5,0.4-0.7,0.8-0.6C11.7,309,11.9,309.3,12.1,309.4z"/>
		<path d="M114.8,26.8c-0.6,0.3-0.8,0.6-1.1,0.6c-0.6,0.1-0.7-0.3-0.7-0.8c0-0.5,0.4-0.7,0.8-0.6C114,26.1,114.2,26.4,114.8,26.8z"
			/>
		<path d="M448.6,180.9c0,0.7-0.2,1-0.6,1c-0.4,0-0.7-0.1-0.8-0.6c0-0.5,0.2-0.9,0.7-0.8C448.2,180.5,448.5,180.8,448.6,180.9z"/>
		<path d="M448.6,258.4c-0.1,0.1-0.4,0.4-0.7,0.4c-0.4,0.1-0.7-0.1-0.7-0.6c0-0.5,0.2-0.7,0.7-0.7
			C448.3,257.4,448.6,257.6,448.6,258.4z"/>
		<path d="M448.6,207.3c0,0.5-0.3,0.7-0.7,0.6c-0.5,0-0.7-0.3-0.7-0.7c0-0.5,0.3-0.7,0.7-0.6C448.4,206.6,448.7,206.8,448.6,207.3z"
			/>
		<path d="M140.8,437.9c-0.5,0.4-0.7,0.7-1,0.8c-0.4,0.1-0.7-0.2-0.8-0.6c0-0.4,0.2-0.8,0.6-0.7
			C139.9,437.4,140.2,437.6,140.8,437.9z"/>
		<path d="M89.4,412.7c-0.6,0.3-0.9,0.5-1.2,0.5c-0.5,0.1-0.7-0.3-0.6-0.7c0-0.5,0.4-0.7,0.8-0.6C88.6,412,88.8,412.3,89.4,412.7z"
			/>
		<path d="M345.7,412.8c-0.1,0.1-0.4,0.4-0.7,0.4c-0.5,0.1-0.8-0.2-0.7-0.7c0.1-0.2,0.3-0.6,0.6-0.6
			C345.3,411.8,345.7,412,345.7,412.8z"/>
		<path d="M319.3,26.7c0.8,0,1,0.4,0.8,0.8c-0.1,0.2-0.4,0.5-0.6,0.6c-0.4,0.1-0.8-0.2-0.7-0.7C319,27,319.2,26.8,319.3,26.7z"/>
		<path d="M396.8,77.6c0.1,0.1,0.3,0.4,0.4,0.7c0.1,0.5-0.2,0.7-0.7,0.7c-0.5,0-0.7-0.2-0.7-0.7C395.8,77.7,396,77.5,396.8,77.6z"/>
	</g>
	<g>
		<path class="st3" d="M165.1,218.7c-6.7,0.1-12.1-5.5-12.1-12.1c0-6.6,5.5-12.2,12.3-12.1c6.6,0.1,12.1,5.5,12,12.2
			C177.2,213.2,171.9,218.8,165.1,218.7z"/>
		<path class="st3" d="M165.1,244.8c-6.7-0.1-12.1-5.4-12.1-12.2c0-6.8,5.4-12.1,12.1-12.1c6.8,0,12.2,5.4,12.1,12.2
			C177.2,239.4,171.9,244.8,165.1,244.8z"/>
		<path class="st3" d="M216.7,272.1c6.7-0.1,12.1,5.6,12,12.1c0,6.5-5.5,12.2-12.3,12.1c-6.5-0.1-12-5.6-11.9-12.3
			C204.6,277.6,209.9,271.9,216.7,272.1z"/>
		<path class="st3" d="M216.5,218.7c-6.7,0.1-12-5.6-12-12.1c0-6.6,5.5-12.1,12.1-12.1c6.6,0,12.2,5.6,12.1,12.3
			C228.7,213.1,223.4,218.9,216.5,218.7z"/>
		<path class="st3" d="M203.3,181.2c0.1,6.6-5.5,12.1-12,12.2c-6.7,0-12.2-5.4-12.2-12.2c0-6.8,5.6-12.1,12.1-12.1
			C197.7,169.1,203.4,174.5,203.3,181.2z"/>
		<path class="st3" d="M191.2,218.7c-6.6,0.1-12.1-5.5-12.1-12.1c0-6.6,5.6-12.1,12.2-12.1c6.4,0,12,5.5,12,12.2
			C203.3,213.2,197.9,218.9,191.2,218.7z"/>
		<path class="st3" d="M228.7,181.2c0,6.5-5.4,12.1-12.1,12.1c-6.8,0-12.2-5.6-12.2-12.2c0-6.7,5.6-12.1,12.1-12.1
			C223.2,169.1,228.8,174.6,228.7,181.2z"/>
		<path class="st3" d="M228.7,258.1c0,6.7-5.4,12.1-12.1,12.1c-6.8,0-12.2-5.4-12.1-12.2c0-6.6,5.4-12.1,12.1-12.1
			C223.3,246,228.8,251.5,228.7,258.1z"/>
		<path class="st3" d="M216.6,244.8c-6.7-0.1-12.1-5.5-12-12.2c0-6.7,5.4-12.1,12.1-12.1c6.7,0,12.2,5.5,12.1,12.2
			C228.7,239.3,223.3,244.8,216.6,244.8z"/>
		<path class="st3" d="M268,218.7c-6.7,0.1-12-5.6-12-12.1c0-6.5,5.4-12.1,12.1-12.1c6.6,0,12.2,5.5,12.1,12.3
			C280.1,213.2,274.7,218.9,268,218.7z"/>
		<path class="st3" d="M254.7,181.2c0.1,6.7-5.5,12.2-12.2,12.1c-6.6,0-12.1-5.5-12-12.2c0-6.7,5.6-12.1,12.2-12.1
			C249.1,169.1,254.8,174.4,254.7,181.2z"/>
		<path class="st3" d="M268.1,244.8c-6.8,0-12.1-5.6-12.2-12c0-6.7,5.3-12.2,12.1-12.2c6.7,0,12.1,5.3,12.1,12.1
			C280.2,239.4,274.8,244.7,268.1,244.8z"/>
		<path class="st3" d="M203.3,258.1c0.1,6.7-5.4,12.1-12,12.1c-6.7,0-12.1-5.3-12.2-12.1c0-6.7,5.5-12.1,12.2-12.1
			C197.8,246,203.4,251.5,203.3,258.1z"/>
		<path class="st3" d="M280.2,258.2c0,6.7-5.4,12.1-12.1,12c-6.8,0-12-5.5-12.1-12.1c0-6.5,5.4-12.2,12.2-12.1
			C274.8,246.1,280.2,251.5,280.2,258.2z"/>
		<path class="st3" d="M254.7,206.6c0.1,6.6-5.4,12.1-12,12.1c-6.7,0-12.2-5.6-12.2-12.2c0-6.5,5.6-12.1,12.2-12.1
			C249.1,194.5,254.9,200,254.7,206.6z"/>
		<path class="st3" d="M254.7,284.2c0.2,6.7-5.6,12.1-12,12.1c-6.6,0-12.2-5.6-12.2-12.2c0-6.4,5.4-12,12.2-12
			C249.3,272.1,254.8,277.5,254.7,284.2z"/>
		<path class="st3" d="M203.3,232.7c0.1,6.6-5.4,12.2-12.2,12.1c-6.6-0.1-12-5.4-12-12.1c0-6.8,5.5-12.1,12.2-12.1
			C197.9,220.6,203.3,226,203.3,232.7z"/>
		<path class="st3" d="M254.7,258.1c0.1,6.8-5.4,12.1-12,12.1c-6.7,0-12.1-5.4-12.2-12c-0.1-6.7,5.4-12.2,12.1-12.2
			C249.3,246,254.8,251.4,254.7,258.1z"/>
		<path class="st3" d="M254.7,232.7c0.2,6.7-5.5,12.2-12.1,12.2c-6.6,0-12.1-5.5-12-12.2c0-6.7,5.4-12.1,12.1-12.1
			C249.3,220.6,254.8,225.9,254.7,232.7z"/>
		<path class="st3" d="M203.3,284.2c0,6.6-5.5,12.1-12.1,12c-6.5,0-12-5.4-12-12.2c0-6.6,5.4-12,12.1-12
			C197.9,272.1,203.3,277.7,203.3,284.2z"/>
		<path class="st3" d="M153,258c0.3-6.7,5.4-12,12.2-12c6.7,0,12.1,5.3,12,12.2c-0.1,6.8-5.3,12-12.2,12
			C158.3,270.1,153.2,264.9,153,258z"/>
		<path class="st3" d="M280.2,181.3c-0.1,6.6-5.5,12-12.2,12c-6.7-0.1-12-5.6-11.9-12.3c0.1-6.6,5.5-11.9,12.2-11.9
			C274.7,169.2,280.2,174.5,280.2,181.3z"/>
		<path class="st3" d="M216.6,167.8c-6.7-0.1-12-5.3-12-12c0-6.8,5.4-12.1,12.1-12.1c6.7,0,12,5.4,12,12.1
			C228.7,162.3,223.4,167.7,216.6,167.8z"/>
		<path class="st3" d="M305.5,232.7c-0.2,6.9-5.4,12-12,12c-6.7,0-12.1-5.2-12.1-12c0-6.8,5.3-12,12.1-12
			C300.2,220.7,305.4,225.8,305.5,232.7z"/>
		<path class="st3" d="M268.2,272.2c6.7,0.2,12,5.4,11.9,12.1c-0.1,6.8-5.3,12-12.1,11.9c-6.7,0-11.9-5.4-11.9-12.1
			C256.1,277.5,261.4,272.3,268.2,272.2z"/>
		<path class="st3" d="M305.5,207.3c-0.3,6.9-5.4,11.9-12.1,11.9c-6.8-0.1-11.9-5.2-11.9-12.1c0.1-6.8,5.3-11.9,12.1-11.9
			C300.2,195.3,305.4,200.4,305.5,207.3z"/>
		<path class="st3" d="M254.6,155.8c-0.2,6.7-5.3,11.9-12,11.9c-6.8,0-12-5.3-11.9-12c0-6.8,5.2-11.9,12-11.9
			C249.4,143.8,254.4,148.9,254.6,155.8z"/>
		<path class="st3" d="M165.2,169.2c6.8,0.3,11.9,5.1,11.9,12c0,6.9-5,11.9-11.9,12c-6.9,0-12-5-12-12
			C153.2,174.3,158.3,169.5,165.2,169.2z"/>
		<path class="st3" d="M203.1,155.8c-0.4,6.8-5.1,11.8-12,11.8c-6.9,0-11.9-5.1-11.9-11.9c0-6.9,5-11.9,11.9-11.9
			C198,143.9,202.7,148.8,203.1,155.8z"/>
		<path class="st3" d="M305.4,258.1c-0.4,6.8-4.9,11.9-11.9,11.9c-7,0-11.9-4.9-11.9-11.8c0-6.8,4.7-11.4,11.8-12
			C300,246.6,305,250.8,305.4,258.1z"/>
		<path class="st3" d="M165.2,295.8c-6.6,0.3-11.8-5.4-11.8-11.6c0-6.4,5-11.8,11.7-11.8c6.7,0,11.7,5.4,11.7,11.7
			C176.9,290.4,171.7,296.1,165.2,295.8z"/>
		<path class="st3" d="M228.2,309.7c0.2,6.4-5.4,11.7-11.7,11.6c-6.4-0.1-11.6-5.4-11.6-11.7c0-6.2,5.3-11.7,11.7-11.7
			C222.9,297.9,228.6,303.5,228.2,309.7z"/>
		<path class="st3" d="M151.3,232.6c0.4,6.4-5.4,11.7-11.6,11.7c-6.2,0-11.7-5.4-11.7-11.7c0-6.2,5.4-11.6,11.6-11.6
			C146,221,151.6,226.5,151.3,232.6z"/>
		<path class="st3" d="M305.1,181.2c0.4,6.2-5.4,11.7-11.5,11.7c-6.1,0-11.7-5.4-11.7-11.8c0.1-6.4,5.5-11.6,11.7-11.6
			C299.6,169.6,305.4,174.7,305.1,181.2z"/>
		<path class="st3" d="M268,167.3c-6.4,0.3-11.6-5.5-11.5-11.6c0-6.1,5.2-11.6,11.8-11.6c6.1,0.1,11.6,5.5,11.5,11.8
			C279.7,161.8,274.3,167.8,268,167.3z"/>
		<path class="st3" d="M253.6,309.6c0.3,6.5-5.4,11.6-11.5,11.6c-6.1,0-11.7-5.2-11.7-11.7c0-6.2,5.6-11.7,11.7-11.7
			C248.2,298,253.9,303.3,253.6,309.6z"/>
		<path class="st3" d="M151.2,206.7c0.3,6.1-5.5,11.6-11.6,11.5c-5.9,0-11.5-5.3-11.5-11.7c0.1-6.1,5.5-11.5,11.6-11.5
			C145.8,195,151.6,200.4,151.2,206.7z"/>
		<path class="st3" d="M202.7,309.7c-0.1,6.4-5.2,11.4-11.5,11.4c-6.3,0-11.5-5.2-11.5-11.5c0-6.3,5.3-11.5,11.6-11.5
			C197.3,298.1,202.7,303.3,202.7,309.7z"/>
		<path class="st3" d="M139.7,269.6c-6.2,0.1-11.4-5.2-11.4-11.4c0-6.3,5.2-11.5,11.5-11.5c6.2,0,11.5,5.2,11.4,11.6
			C151.1,264.4,145.9,269.7,139.7,269.6z"/>
		<path class="st3" d="M305,284.2c-0.2,6.4-5.1,11.4-11.4,11.4c-6.5,0-11.4-4.9-11.4-11.4c0-6.4,5-11.5,11.5-11.4
			C299.9,272.8,304.9,277.9,305,284.2z"/>
		<path class="st3" d="M165.1,167.2c-6.3-0.2-11.4-5-11.3-11.5c0.1-6.7,5.1-11.3,11.4-11.3c6.2,0,11.3,4.7,11.3,11.3
			C176.6,162.2,171.5,167,165.1,167.2z"/>
		<path class="st3" d="M268.1,320.9c-6.7-0.5-11.2-4.7-11.2-11.3c0-6.5,4.7-11.2,11.2-11.2c6.4,0,11.3,4.9,11.2,11.3
			C279.3,316.3,274.5,320.6,268.1,320.9z"/>
		<path class="st3" d="M139.7,192.4c-6.4,0-11.3-5-11.2-11.3c0.1-6.7,5-11.1,11.2-11.1c6.3,0,11.1,4.4,11.2,11.1
			C151,187.5,146,192.4,139.7,192.4z"/>
		<path class="st3" d="M319.6,243.7c-5.9,0.3-11.2-4.8-11.1-11.1c0-6.1,5-11.1,11.1-11.1c6.2,0,11.1,5.3,11.1,11
			C330.8,238.6,325.4,244.1,319.6,243.7z"/>
		<path class="st3" d="M227.6,129.7c0.2,6-5,11.1-11.1,11c-6,0-11.1-5.1-11-11.1c0-6,5.1-11.1,11.1-11
			C222.6,118.6,227.9,123.7,227.6,129.7z"/>
		<path class="st3" d="M319.5,218.2c-5.8,0.5-11-5.2-11-10.9c0-5.9,5.4-11.1,11-11.1c5.8,0,11.1,5.4,11.1,11.1
			C330.6,212.9,325.4,218.7,319.5,218.2z"/>
		<path class="st3" d="M253.6,129.8c0.2,6-5.3,10.9-11,10.9c-5.6,0-11.1-5-11-11.2c0.1-5.8,5.2-10.9,11.1-10.9
			C248.4,118.7,253.9,123.7,253.6,129.8z"/>
		<path class="st3" d="M304.5,155.7c0.3,5.9-5.1,11.1-10.9,11.1c-5.9,0-11-5.2-11-10.9c0-5.9,5.2-11.1,11-11.1
			C299.3,144.7,304.7,149.9,304.5,155.7z"/>
		<path class="st3" d="M128.8,284.1c-0.1-5.8,5-10.9,11-10.9c5.8,0,10.9,5,10.8,11.1c-0.1,5.7-5,10.8-11,10.8
			C133.8,295.1,128.6,290,128.8,284.1z"/>
		<path class="st3" d="M319.4,269c-5.8,0.2-10.8-5-10.8-10.9c0-5.9,5.1-11,11-10.9c5.8,0.1,11,5.1,10.9,11.1
			C330.4,264,325.5,269.3,319.4,269z"/>
		<path class="st3" d="M165.1,320.5c-6.1,0.2-10.9-5.2-10.9-10.8c0-5.9,4.9-11,10.9-11c6.1,0,11,5.2,10.9,11
			C176.1,315.3,171.3,320.7,165.1,320.5z"/>
		<path class="st3" d="M202,129.8c0.1,6.1-5.1,10.9-10.9,10.8c-5.9,0-10.9-4.8-10.9-10.9c0-6.2,4.9-10.9,11-10.9
			C197.1,118.9,202.1,123.6,202,129.8z"/>
		<path class="st3" d="M308.8,181.1c0.4-6.1,4.7-10.6,10.8-10.6c6.1,0,10.6,4.7,10.6,10.7c0,6.1-4.6,10.7-10.7,10.6
			C313.1,191.8,309.1,187,308.8,181.1z"/>
		<path class="st3" d="M268.1,140.4c-6.1-0.2-10.7-4.7-10.6-10.6c0-6.3,4.5-10.7,10.7-10.7c6,0,10.6,4.3,10.6,10.6
			C278.8,135.8,274.1,140.2,268.1,140.4z"/>
		<path class="st3" d="M283,309.6c-0.3-5.8,4.8-10.6,10.4-10.6c5.6,0,10.6,4.3,10.6,10.6c0,6.2-4.8,10.5-10.6,10.5
			C287.6,320.2,282.8,315.3,283,309.6z"/>
		<path class="st3" d="M216.8,346.1c-5.7,0.4-10.7-4.4-10.7-10.4c0-5.9,4.8-10.5,10.2-10.6c6-0.1,10.6,4.9,10.8,10.3
			C227.3,341,222.6,346.3,216.8,346.1z"/>
		<path class="st3" d="M150.1,155.7c0.3,5.5-4.7,10.5-10.4,10.5c-5.7,0-10.5-4.9-10.5-10.5c0-5.6,5-10.4,10.4-10.4
			C145.2,145.2,150.5,150.1,150.1,155.7z"/>
		<path class="st3" d="M113.7,222.3c5.6-0.2,10.4,4.6,10.4,10.5c0,5.9-5.1,10.5-10.5,10.4c-5.6-0.1-10.4-5-10.4-10.5
			C103.2,227.3,107.8,222,113.7,222.3z"/>
		<path class="st3" d="M252.4,335.8c0.3,5.4-4.8,10.4-10.4,10.3c-5.5,0-10.5-4.9-10.4-10.6c0.1-5.3,4.9-10.3,10.6-10.3
			C247.6,325.3,252.8,330.1,252.4,335.8z"/>
		<path class="st3" d="M124,206.6c0.4,5.7-4.7,10.4-10.2,10.5c-5.9,0-10.5-5.1-10.5-10.3c-0.1-5.5,4.8-10.5,10.4-10.5
			C119,196.2,124.3,201,124,206.6z"/>
		<path class="st3" d="M309.2,284.1c-0.2-5.6,4.8-10.3,10.3-10.3c5.7,0,10.5,4.9,10.5,10.4c0,5.5-5,10.4-10.5,10.4
			C314.2,294.5,309,289.9,309.2,284.1z"/>
		<path class="st3" d="M201.5,335.6c0.2,5.5-4.7,10.4-10.3,10.3c-5.5,0-10.3-4.8-10.3-10.4c0-5.5,4.8-10.3,10.5-10.2
			C196.7,325.4,201.6,330.1,201.5,335.6z"/>
		<path class="st3" d="M165.1,119.5c5.7-0.2,10.4,4.7,10.4,10.3c0,5.8-4.9,10.4-10.3,10.4c-5.5,0-10.3-4.6-10.4-10.4
			C154.8,124.2,159.5,119.2,165.1,119.5z"/>
		<path class="st3" d="M123.9,258.2c0.2,5.4-4.6,10.3-10.4,10.3c-5.7-0.1-10.2-5-10.2-10.4c0-5.5,4.6-10.3,10.3-10.3
			C119.2,247.8,124.1,252.5,123.9,258.2z"/>
		<path class="st3" d="M139.6,319.8c-6.2-0.5-10.1-4.6-10-10.3c0-5.6,4.1-10,10.2-10c6.2,0,10.2,4.6,10.1,10.2
			C149.7,315.5,145.7,319.4,139.6,319.8z"/>
		<path class="st3" d="M257.9,335.6c0.4-5.9,4.5-10.1,10.2-10.1c5.6,0,10,4.2,10,10.1c0,5.9-4.5,10.2-10.1,10.2
			C262.2,345.7,258.2,341.4,257.9,335.6z"/>
		<path class="st3" d="M103.6,181.2c0.3-5.8,4.3-10.1,10-10.1c5.8,0,10.1,4.1,10.2,10.1c0,5.6-4.1,10-10,10.1
			C107.9,191.3,103.8,186.9,103.6,181.2z"/>
		<path class="st3" d="M329.5,155.8c0,5.5-4.3,10-10,9.9c-5.8-0.1-9.9-4.4-9.9-10c0-5.7,4.6-9.8,9.9-9.9
			C325.1,145.8,329.6,150.4,329.5,155.8z"/>
		<path class="st3" d="M293.6,139.7c-5.3,0.1-10-4.3-10-9.9c0-5.5,4.3-10,9.9-10c5.5,0,9.9,4.1,10,9.9
			C303.5,135.4,298.9,139.6,293.6,139.7z"/>
		<path class="st3" d="M354.7,232.8c0.3,5.2-4.6,9.8-9.8,9.7c-5.2-0.1-9.8-4.6-9.7-9.9c0-5,4.4-9.8,10-9.7
			C350.1,222.9,355.2,227.5,354.7,232.8z"/>
		<path class="st3" d="M216.7,114c-5.3,0.3-9.8-4.8-9.9-9.6c-0.1-5.3,4.8-10,9.8-10c5.2,0,9.8,4.7,9.8,9.8
			C226.4,109.3,222,114.3,216.7,114z"/>
		<path class="st3" d="M123.4,284.3c0.4,5-4.6,9.8-9.8,9.7c-5.1-0.1-9.8-4.7-9.7-9.9c0.1-5.1,4.6-9.7,9.9-9.7
			C118.8,274.4,123.8,279.1,123.4,284.3z"/>
		<path class="st3" d="M155.5,335.7c-0.4-5.2,4.5-9.8,9.7-9.8c5.2,0,9.7,4.6,9.7,9.7c0.1,5.5-4.9,9.9-9.7,9.9
			C160.3,345.5,155.1,341,155.5,335.7z"/>
		<path class="st3" d="M354.7,207.3c0.3,5.1-4.5,9.7-9.8,9.7c-5.2,0-9.7-4.7-9.7-9.8c0-5.2,4.6-9.7,9.7-9.8
			C350,197.5,355,201.9,354.7,207.3z"/>
		<path class="st3" d="M252.4,104.3c0.2,5.1-4.4,9.7-9.6,9.7c-5.4,0.1-9.9-4.7-9.9-9.8c0-5.1,4.7-9.8,9.7-9.8
			C247.7,94.5,252.6,99.1,252.4,104.3z"/>
		<path class="st3" d="M344.9,267.8c-5.4,0-9.6-4.4-9.6-9.6c0-5.4,4.4-9.7,9.7-9.7c5.2,0,9.6,4.3,9.5,9.8
			C354.5,263.5,350.3,267.8,344.9,267.8z"/>
		<path class="st3" d="M191.2,114c-5.5-0.3-9.6-4.3-9.6-9.7c0-5.4,4.3-9.7,9.7-9.7c5.4,0.1,9.6,4.2,9.5,9.7
			C200.7,109.8,196.7,113.6,191.2,114z"/>
		<path class="st3" d="M319.5,319.3c-5.4-0.2-9.5-4.1-9.6-9.6c0-5.5,4.4-9.7,9.7-9.6c5.2,0,9.6,4.2,9.5,9.7
			C329.1,315.1,324.9,319.1,319.5,319.3z"/>
		<path class="st3" d="M139.7,120.1c5.4,0.3,9.5,4,9.5,9.6c0,5.6-3.9,9.5-9.5,9.5c-5.7,0-9.6-3.9-9.6-9.6
			C130.2,124.1,134.3,120.4,139.7,120.1z"/>
		<path class="st3" d="M303,335.6c-0.2,5.3-4.1,9.5-9.5,9.4c-5.4,0-9.5-4-9.4-9.5c0.1-5.5,4-9.3,9.4-9.3
			C299.2,326.3,302.7,330.4,303,335.6z"/>
		<path class="st3" d="M345.1,190.6c-5,0.1-9.4-4.1-9.4-9.3c0-4.9,3.6-9.4,9.2-9.4c5.3-0.1,9.4,3.9,9.5,9.3
			C354.4,186.6,349.9,190.6,345.1,190.6z"/>
		<path class="st3" d="M267.9,113.5c-5,0.1-9.1-4-9.1-9.3c0-5.4,4.3-9.4,9.5-9.3c5.2,0,9.3,4.6,9.3,9.5
			C277.4,109.2,273.4,113.9,267.9,113.5z"/>
		<path class="st3" d="M113.6,146.4c5.3,0,9.4,4,9.4,9.3c0,5.2-3.9,9.4-9.4,9.4c-5.1,0-9.3-3.8-9.3-9.3
			C104.3,150.4,108.4,146.5,113.6,146.4z"/>
		<path class="st3" d="M216.6,370.2c-4.9,0.2-9.1-4.2-9.2-9c0-5,4.3-9.2,9.2-9.2c4.8,0,9.1,4.2,9.1,9.2
			C225.7,366,221.5,370.4,216.6,370.2z"/>
		<path class="st3" d="M97.4,232.7c0,5-4.3,9.1-9.3,9.1c-4.6-0.1-9.1-4-9-9.3c0.1-4.8,4.3-9,9.2-9C93.2,223.6,97.5,227.9,97.4,232.7
			z"/>
		<path class="st3" d="M354.1,284.1c0.2,5-4.3,9.2-9.1,9.2c-5,0-9.1-4.3-9.1-9c0-4.8,4-9.2,9.1-9.2
			C349.9,275,354.3,279.3,354.1,284.1z"/>
		<path class="st3" d="M174.2,104.3c0.1,4.8-4.1,9-9.1,9c-5,0-9.1-4.3-9.1-9.1c0-5,4.2-9.2,9.2-9.1C170,95.2,174.3,99.3,174.2,104.3
			z"/>
		<path class="st3" d="M242.1,352.1c4.9-0.1,9,4.1,9,9.1c0,5-4.2,9.1-9.1,9.1c-5.1,0-9.2-4.2-9.1-9.2
			C233,356.3,236.9,351.9,242.1,352.1z"/>
		<path class="st3" d="M88.2,215.7c-4.9-0.2-9-4.1-9-9.2c0-5,4.1-8.9,9-8.9c5.1,0,9.1,4.1,9.1,9.1C97.3,211.6,93.3,215.6,88.2,215.7
			z"/>
		<path class="st3" d="M148.8,335.8c-0.3,5-4,9-9.1,8.9c-5.1,0-9.1-4.1-8.9-9.2c0.1-4.9,4-8.9,9.2-8.8
			C144.9,326.7,148.6,330.8,148.8,335.8z"/>
		<path class="st3" d="M319.4,138.7c-5-0.2-8.9-4.2-8.8-9.1c0.1-4.9,4.1-9,9.2-8.9c4.9,0.1,8.9,4.2,8.8,9.2
			C328.5,134.7,324.5,138.8,319.4,138.7z"/>
		<path class="st3" d="M104.7,309.6c0.1-5.1,4-9,8.9-9c5.1,0,9.1,3.9,9,9c0,4.9-3.9,8.9-9,8.9C108.7,318.6,104.8,314.6,104.7,309.6z
			"/>
		<path class="st3" d="M191.2,352.1c5.1,0.2,9,4,8.9,9c-0.1,5.2-3.9,8.9-8.9,8.9c-5.2,0-9-3.8-9-8.9
			C182.2,356.2,185.9,352.3,191.2,352.1z"/>
		<path class="st3" d="M88.2,267.1c-5-0.4-8.8-3.7-8.9-9c0-5.1,3.8-8.9,8.8-8.9c5.4,0,9.1,4,9,8.9C97.1,263.4,93.5,266.7,88.2,267.1
			z"/>
		<path class="st3" d="M344.8,164.4c-5,0.2-8.6-4.2-8.6-8.7c0.1-4.8,4-8.7,8.9-8.6c4.5,0.1,8.6,3.8,8.6,8.8
			C353.7,160.6,349.7,164.7,344.8,164.4z"/>
		<path class="st3" d="M302.1,104.4c0.2,4.7-4,8.6-8.7,8.6c-4.9,0-8.7-4.2-8.7-8.7c0-4.8,3.8-8.7,8.7-8.7
			C298.1,95.6,302.4,99.2,302.1,104.4z"/>
		<path class="st3" d="M268.1,369.7c-4.8,0.3-8.7-4-8.7-8.5c0-4.7,3.9-8.7,8.6-8.7c4.8,0,8.6,3.7,8.7,8.6
			C276.7,366,272.8,369.9,268.1,369.7z"/>
		<path class="st3" d="M88.2,189.7c-4.7,0.4-8.6-4.1-8.6-8.5c0-4.5,4.1-8.7,8.6-8.7c4.8,0,8.7,4.1,8.7,8.7
			C96.8,185.6,93.2,190,88.2,189.7z"/>
		<path class="st3" d="M311.1,335.6c0-4.6,4-8.5,8.4-8.5c4.7,0,8.6,4,8.6,8.5c0,4.6-3.8,8.5-8.6,8.5
			C315,344.1,311.1,340.3,311.1,335.6z"/>
		<path class="st3" d="M173.6,361.2c-0.1,4.5-3.8,8.4-8.6,8.3c-4.6-0.1-8.3-3.9-8.3-8.5c0-4.6,3.9-8.4,8.6-8.3
			C169.8,352.7,173.6,356.5,173.6,361.2z"/>
		<path class="st3" d="M113.6,138.1c-4.5,0-8.4-3.9-8.4-8.4c0-4.5,3.7-8.4,8.4-8.4c4.7,0,8.5,3.8,8.5,8.5
			C122.1,134.5,118.1,138.2,113.6,138.1z"/>
		<path class="st3" d="M96.6,284.1c0,4.8-4,8.5-8.4,8.5c-4.5,0-8.5-3.8-8.5-8.4c0-4.6,3.7-8.4,8.4-8.5
			C92.9,275.7,96.6,279.6,96.6,284.1z"/>
		<path class="st3" d="M345,301.2c4.9,0.2,8.4,3.8,8.4,8.4c0,4.8-3.6,8.4-8.5,8.3c-4.7,0-8.3-3.6-8.3-8.3
			C336.6,305,340.1,301.4,345,301.2z"/>
		<path class="st3" d="M379.4,232.6c-0.2,4.9-3.6,8.4-8.3,8.3c-4.9,0-8.3-3.3-8.4-8.3c0-5,3.4-8.3,8.3-8.4
			C375.6,224.3,379.1,227.6,379.4,232.6z"/>
		<path class="st3" d="M225,78.2c-0.4,5-3.5,8.3-8.3,8.3c-4.9,0-8.2-3.2-8.3-8.2c0-5,3.3-8.3,8.3-8.3C221.4,70,224.5,73.1,225,78.2z
			"/>
		<path class="st3" d="M139.7,96c4.9,0.2,8.3,3.4,8.3,8.3c0,4.9-3.3,8.3-8.2,8.3c-4.7,0-8.2-3.2-8.3-8.2
			C131.4,99.6,134.6,96.3,139.7,96z"/>
		<path class="st3" d="M379.3,207.2c-0.2,4.5-3.2,8.2-8.2,8.2c-4.6,0-8.1-3.2-8.2-8.1c-0.1-4.9,3.3-8.2,8.1-8.3
			C375.6,199,378.9,202.1,379.3,207.2z"/>
		<path class="st3" d="M250.7,78.2c0.2,4.4-3.3,8.1-8,8.2c-4.8,0-8.2-3.7-8.2-8c0-4.2,3.1-8.1,8.1-8.2
			C247.2,70.1,250.9,73.7,250.7,78.2z"/>
		<path class="st3" d="M293.5,369.1c-4.4,0.4-8-3.9-8-8c0-4,3.7-8,8.1-8c4.2,0,8.1,3.9,8,8.1C301.6,365.2,297.7,369.5,293.5,369.1z"
			/>
		<path class="st3" d="M371,250.2c4.6-0.4,8.1,4,8.1,7.9c0,4.1-3.6,8.1-8,8.1c-4.4,0-8.1-4-8.1-8C362.9,254.1,366.6,249.8,371,250.2
			z"/>
		<path class="st3" d="M88.2,163.7c-4.1,0.4-8-3.9-8-7.9c0-4.2,4-8.1,8.1-8.1c4.3,0,8,3.9,8,8C96.3,159.8,92.5,164.1,88.2,163.7z"/>
		<path class="st3" d="M191.1,86.1c-4.4,0.3-8-4-8-8c0.1-3.7,3.5-7.9,8.1-7.8c4.2,0,8,4,8,8.1C199.2,82.2,195.5,86.5,191.1,86.1z"/>
		<path class="st3" d="M105.8,335.6c0-4.4,3.7-7.9,7.9-7.9c4.2,0,7.9,3.6,7.9,7.9c0,4.3-3.8,7.9-7.9,7.9
			C109.6,343.5,105.8,340.2,105.8,335.6z"/>
		<path class="st3" d="M371.1,189c-4.3,0.2-7.9-3.6-8-7.8c0-4.2,3.5-8,7.9-8c4.4,0,7.8,3.6,7.8,7.9
			C378.9,185.5,375.3,189.1,371.1,189z"/>
		<path class="st3" d="M275.9,78.3c0,4.2-3.5,7.9-7.9,7.8c-4.4-0.1-7.7-3.5-7.7-7.8c0-4.3,3.4-7.8,7.9-7.8
			C272.5,70.4,275.9,74,275.9,78.3z"/>
		<path class="st3" d="M327.3,104.3c-0.2,4.6-3.6,7.8-7.9,7.7c-4.4-0.1-7.6-3.2-7.7-7.8c0-4.5,3.5-7.8,7.8-7.8
			C323.8,96.5,327.3,99.9,327.3,104.3z"/>
		<path class="st3" d="M337.2,129.7c0.1-4.4,3.6-7.8,7.8-7.7c4.3,0.1,7.8,3.4,7.7,7.8c0,4.5-3.4,7.7-7.8,7.7
			C340.6,137.5,337.3,134.2,337.2,129.7z"/>
		<path class="st3" d="M147.3,361.2c-0.2,4.4-3.6,7.5-7.7,7.4c-4.6-0.1-7.6-3.7-7.4-7.7c0.2-4.9,3.6-7.5,7.6-7.4
			C144,353.5,147.2,356.4,147.3,361.2z"/>
		<path class="st3" d="M95.8,309.6c-0.1,3.9-2.9,7.6-7.6,7.6c-4.4,0-7.5-3.2-7.5-7.5c0-4.7,3.4-7.6,7.5-7.7
			C92.4,302,95.6,305.1,95.8,309.6z"/>
		<path class="st3" d="M363.6,284.2c-0.3-4,3.5-7.6,7.4-7.5c4,0,7.5,3.2,7.5,7.5c0,4.3-3.1,7.4-7.4,7.5
			C366.8,291.7,363.4,288.2,363.6,284.2z"/>
		<path class="st3" d="M224,386.5c0.3,4.4-3.6,7.5-7.4,7.5c-3.8,0-7.5-3.3-7.4-7.5c0-4,3.4-7.4,7.4-7.4
			C220.6,379.1,224.2,382.3,224,386.5z"/>
		<path class="st3" d="M165.1,85.6c-4,0.3-7.5-3.4-7.4-7.4c0-3.9,3.4-7.4,7.5-7.4c3.9,0,7.3,3.4,7.4,7.4
			C172.6,82.2,169.1,85.9,165.1,85.6z"/>
		<path class="st3" d="M62.8,240c-3.9,0.3-7.4-3.3-7.4-7.3c0-4,3.6-7.4,7.4-7.4c3.8,0,7.4,3.5,7.4,7.5
			C70.2,236.5,66.8,240.3,62.8,240z"/>
		<path class="st3" d="M249.4,386.6c0.2,4.1-3.5,7.4-7.4,7.4c-4,0-7.4-3.5-7.3-7.6c0.1-3.8,3.3-7.3,7.6-7.2
			C246.1,379.2,249.6,382.5,249.4,386.6z"/>
		<path class="st3" d="M62.9,199.4c3.9-0.3,7.3,3.6,7.3,7.3c0,3.8-3.6,7.3-7.4,7.3c-3.5-0.1-7.2-3.3-7.2-7.4
			C55.5,202.8,59,199.1,62.9,199.4z"/>
		<path class="st3" d="M198.4,386.5c0.1,4-3.3,7.3-7.2,7.3c-4,0-7.3-3.3-7.3-7.2c0-3.9,3.2-7.3,7.2-7.3
			C195.2,379.3,198.4,382.5,198.4,386.5z"/>
		<path class="st3" d="M70.1,258.1c-0.1,4-3.4,7.3-7.3,7.3c-3.8,0-7.2-3.3-7.2-7.2c0-4,3.4-7.2,7.2-7.2
			C66.7,250.9,70,254.2,70.1,258.1z"/>
		<path class="st3" d="M337.8,335.6c-0.1-3.7,3.2-7.2,7.3-7.2c4,0,7.2,3.4,7.2,7.2c0,4-3.3,7.2-7.3,7.3
			C341.1,342.9,337.7,339.5,337.8,335.6z"/>
		<path class="st3" d="M286.4,78.2c0.1-4.1,3.4-7.2,7.3-7.1c4.2,0.1,7.1,3.3,7.1,7.2c0,4-3,7.1-7.2,7.1
			C289.6,85.4,286.4,82.3,286.4,78.2z"/>
		<path class="st3" d="M106.5,104.3c0.2-4.2,3.2-7.2,7.2-7.2c4.2,0.1,7.1,3,7.1,7.2c0,3.9-2.9,7.1-7.2,7.1
			C109.6,111.4,106.7,108.3,106.5,104.3z"/>
		<path class="st3" d="M371.1,148.6c4,0.1,7.1,3.1,7.1,7.1c0,4.3-3.3,7.3-7.2,7.2c-4.1-0.1-7.1-3.1-7.1-7.2
			C363.9,151.8,366.8,148.7,371.1,148.6z"/>
		<path class="st3" d="M326.7,361.1c-0.4,4.5-3.3,7.1-7.2,7.1c-4.2-0.1-7-2.8-7-7.1c-0.1-4,2.8-7.1,7.1-7.1
			C323.7,354,326.4,357,326.7,361.1z"/>
		<path class="st3" d="M268,379.5c2.2,0.1,4,0.8,5.4,2.3c1.2,1.3,1.8,3,1.8,4.7c0.1,3.7-3.4,7.2-7.1,7c-3.9-0.2-6.9-2.5-7-7
			C261,382.3,264.2,379.7,268,379.5z"/>
		<path class="st3" d="M88.2,122.8c4.4,0,6.9,2.8,7,6.8c0.1,3.9-2.4,6.9-7,7c-4.1,0-6.8-3.1-6.9-6.8C81.3,126.1,84,122.8,88.2,122.8
			z"/>
		<path class="st3" d="M62.6,188c-3.5,0.2-6.7-3-6.6-6.9c0.1-3.5,3.2-6.8,7-6.7c3.5,0.1,6.8,3.1,6.7,7.1
			C69.5,184.8,66.7,188.3,62.6,188z"/>
		<path class="st3" d="M377.7,309.7c0.4,3.4-3.3,6.7-6.6,6.7c-3.5,0-6.8-3.3-6.8-6.8c0-3.4,3.1-6.6,6.7-6.7
			C374.4,302.9,378,306.1,377.7,309.7z"/>
		<path class="st3" d="M62.8,290.8c-3.5,0.2-6.7-3.2-6.7-6.6c0-3.4,3.1-6.7,6.7-6.7c3.5,0,6.7,3.1,6.7,6.7
			C69.5,287.9,66.2,291,62.8,290.8z"/>
		<path class="st3" d="M171.8,386.6c0.1,3.4-3,6.6-6.7,6.6c-3.6,0-6.7-3.3-6.7-6.7c0-3.6,3.3-6.7,6.7-6.7
			C168.6,379.8,171.9,382.9,171.8,386.6z"/>
		<path class="st3" d="M139.7,71.6c3.8,0.2,6.6,3,6.6,6.7c0,3.7-2.9,6.6-6.7,6.6c-3.7-0.1-6.5-2.9-6.5-6.6
			C133.1,74.6,135.9,71.7,139.7,71.6z"/>
		<path class="st3" d="M120.1,361.3c-0.3,4-3.2,6.3-6.6,6.2c-4.2-0.2-6.3-3.4-6.2-6.4c0.2-4.1,3.1-6.5,6.6-6.4
			C117.7,354.8,120,357.6,120.1,361.3z"/>
		<path class="st3" d="M345,110.7c-4-0.2-6.5-3-6.4-6.4c0-3.6,2.3-6.3,6.3-6.4c3.6-0.1,6.4,2.2,6.5,6.3
			C351.5,108,348.7,110.5,345,110.7z"/>
		<path class="st3" d="M81.8,335.4c0.3-3.7,3.3-6.4,6.7-6.2c3.8,0.2,6.3,3.1,6.2,6.5c-0.1,4-3,6.4-6.6,6.3
			C84.1,341.9,81.8,338.9,81.8,335.4z"/>
		<path class="st3" d="M402.7,232.6c0.2,3.4-2.6,6.3-6.2,6.3c-3.7,0-6.4-2.6-6.3-6.3c0-3.6,2.8-6.2,6.2-6.2
			C399.8,226.3,402.9,229.2,402.7,232.6z"/>
		<path class="st3" d="M210.4,52.8c-0.3-3.2,2.6-6.2,6.1-6.2c3.7,0,6.3,3,6.3,6.2c0,3.2-2.6,6.2-6.3,6.2
			C213,58.9,210.2,56,210.4,52.8z"/>
		<path class="st3" d="M402.7,207.3c0.2,3.2-2.8,6.2-6.2,6.2c-3.4,0-6.2-2.8-6.2-6.3c0-3.2,2.7-6.2,6.4-6.1
			C399.9,201.1,403,204.1,402.7,207.3z"/>
		<path class="st3" d="M293.4,392.7c-3.4,0.1-6.2-2.9-6.1-6.4c0.1-3.5,3.2-6.1,6.3-6.1c3.2,0.1,6.2,2.9,6.1,6.5
			C299.7,389.8,297.1,393,293.4,392.7z"/>
		<path class="st3" d="M69,155.8c0.3,3.3-3,6.2-6.2,6.2c-3,0-6.2-2.8-6.2-6.3c0-3.1,2.9-6.2,6.2-6.1C66.1,149.6,69.3,152.7,69,155.8
			z"/>
		<path class="st3" d="M242.6,58.9c-3.3,0.3-6.2-2.8-6.1-6.2c0-3,2.7-6.1,6.3-6.1c3.4,0.1,6.1,3.1,6.1,6.2
			C248.8,55.8,246.3,59.2,242.6,58.9z"/>
		<path class="st3" d="M390.4,258.1c-0.3-3,2.7-6.1,6.1-6.1c3.3,0,6.2,3.1,6.1,6.2c0,3.1-2.9,6.1-6.2,6.1
			C393.2,264.2,390.1,261.4,390.4,258.1z"/>
		<path class="st3" d="M377.1,129.7c0.2,3.3-2.9,6.2-6.1,6.2c-3.2,0-6-2.9-6.1-6c-0.1-3.2,3-6.2,6.1-6.2
			C374.1,123.6,377.3,126.6,377.1,129.7z"/>
		<path class="st3" d="M191.2,58.8c-3.3,0.3-6.1-2.9-6.1-6.1c0-3,2.8-6,6.1-6c3.4,0,6.2,3,6.1,6.1C197.3,55.9,194.6,59,191.2,58.8z"
			/>
		<path class="st3" d="M325.6,78.3c0,3.2-2.8,6-6.1,5.9c-3.3-0.1-5.9-2.8-5.9-6.1c0-3.2,2.7-6,6.1-6C322.9,72.2,325.7,75,325.6,78.3
			z"/>
		<path class="st3" d="M396.4,187.2c-3.4-0.3-6-2.6-5.9-6c0.1-3.5,2.4-5.6,5.9-5.9c2.9-0.3,6.2,3,6,5.9
			C402.2,184.7,400,186.8,396.4,187.2z"/>
		<path class="st3" d="M268,46.9c3.6,0.3,5.8,2.3,5.9,5.8c0,3.3-2,5.5-5.7,5.9c-3,0.3-6.1-2.7-5.9-5.8
			C262.5,49.1,264.6,47.3,268,46.9z"/>
		<path class="st3" d="M68.5,309.6c0.2,3.2-2.5,5.7-5.6,5.7c-3,0-5.6-2.1-5.7-5.6c0-3.4,2.4-5.7,5.6-5.8
			C65.9,303.9,68.6,306.4,68.5,309.6z"/>
		<path class="st3" d="M139.7,392.2c-3.3-0.2-5.7-2.4-5.6-5.8c0.1-3.5,2.4-5.6,5.7-5.5c3.5,0,5.6,2.3,5.6,5.6
			C145.4,390.1,142.9,392.1,139.7,392.2z"/>
		<path class="st3" d="M345,366.7c-2.8,0.3-5.7-2.5-5.6-5.6c0-3.1,2.6-5.6,5.6-5.6c3.3,0,5.7,2.7,5.7,5.6
			C350.6,364.1,348,366.9,345,366.7z"/>
		<path class="st3" d="M396.4,289.6c-2.9,0.3-5.5-2.9-5.5-5.5c0-2.7,2.9-5.7,5.7-5.5c3,0.2,5.2,2.5,5.3,5.6
			C402,287,399.2,289.9,396.4,289.6z"/>
		<path class="st3" d="M165.1,47.4c2.7-0.2,5.5,2.6,5.5,5.4c0,2.8-2.8,5.5-5.6,5.5c-2.6,0-5.4-2.6-5.5-5.4
			C159.6,50,162.5,47.1,165.1,47.4z"/>
		<path class="st3" d="M93.7,104.3c0.3,2.5-2.5,5.5-5.4,5.5c-2.9,0-5.5-2.7-5.5-5.5c0-3.1,3.1-5.5,5.4-5.6
			C91,98.7,94,101.6,93.7,104.3z"/>
		<path class="st3" d="M371,330.3c2.9-0.2,5.5,2.6,5.5,5.4c0,2.9-2.8,5.5-5.5,5.4c-2.8,0-5.5-2.8-5.4-5.6
			C365.6,333,368,330.1,371,330.3z"/>
		<path class="st3" d="M113.6,83.6c-3.1-0.4-5.3-2.2-5.3-5.4c0-3.3,2.2-5.1,5.3-5.3c2.7-0.2,5.4,2.7,5.4,5.4
			C119.1,80.9,116.3,83.7,113.6,83.6z"/>
		<path class="st3" d="M221.8,412.5c-0.1,3.1-2.1,5.2-5.1,5.3c-3.1,0-5.2-2-5.2-5.2c0-3,1.9-5.1,5.1-5.2
			C219.4,407.3,221.6,409.3,221.8,412.5z"/>
		<path class="st3" d="M324.6,386.7c0,3-2.4,5-5.3,4.9c-3.2-0.1-5-2.8-4.9-5.3c0.1-2.6,2.2-4.9,5.2-4.8
			C322.7,381.6,324.8,383.9,324.6,386.7z"/>
		<path class="st3" d="M41.8,232.7c0.1,2.9-2.2,5.1-5,5.1c-2.9,0-5.1-2.2-5-5.1c0-3.1,2.3-5,5-5.1C39.2,227.5,41.9,229.6,41.8,232.7
			z"/>
		<path class="st3" d="M247,412.5c0.4,2.9-2.6,5.1-4.9,5.1c-2.6,0-5-2.4-5-5c0-2.7,2.5-5.1,4.9-5.1
			C244.4,407.5,247.3,409.8,247,412.5z"/>
		<path class="st3" d="M62.8,134.6c-2.5,0.3-5-2.4-5-4.9c0-2.6,2.4-5,4.9-5c2.7,0,5,2.3,5,4.9C67.8,132.3,65.3,134.9,62.8,134.6z"/>
		<path class="st3" d="M396.3,160.6c-2.5,0.3-4.9-2.3-4.8-4.9c0-2.3,2.2-4.9,5.1-4.9c2.3,0.1,4.8,2.3,4.8,5.1
			C401.4,158.1,399.3,160.9,396.3,160.6z"/>
		<path class="st3" d="M31.9,206.6c-0.3-2.6,2.4-4.9,4.8-4.9c2.5,0,5,2.4,5,5c0,2.3-2.2,4.9-5,4.8C34.2,211.5,31.6,209.3,31.9,206.6
			z"/>
		<path class="st3" d="M298.4,52.8c0.3,2.7-2.4,4.9-4.8,4.9c-2.3,0-5-2.2-4.9-5.1c0-2.4,2.5-4.9,5-4.8
			C295.9,47.9,298.7,50,298.4,52.8z"/>
		<path class="st3" d="M196,412.5c0,2.7-2.1,4.8-4.7,5c-2.3,0.1-5-2.2-5-4.9c0-2.8,2.7-5,4.9-5C193.2,407.6,196.3,409.8,196,412.5z"
			/>
		<path class="st3" d="M36.7,253.3c2.5,0,4.9,2.3,4.9,4.9c0,2.7-2.3,4.8-4.8,4.8c-2.4,0-4.8-1.9-4.8-4.7
			C31.9,255.4,34.3,253.4,36.7,253.3z"/>
		<path class="st3" d="M88.2,365.8c-2.9-0.1-4.7-2.5-4.7-4.7c0-2.6,2.3-4.8,4.8-4.8c2.6,0.1,4.7,2.1,4.7,4.9
			C92.9,363.9,90.8,365.7,88.2,365.8z"/>
		<path class="st3" d="M263.4,412.4c0.3-2.9,2.5-4.6,4.8-4.4c3,0.3,4.4,2,4.4,4.7c0,2.5-2.4,4.7-4.7,4.5
			C265.1,417,263.5,414.9,263.4,412.4z"/>
		<path class="st3" d="M392.1,309.4c0.1-2.6,1.9-4.1,4.6-4.2c2.2,0,4.2,2.2,4.2,4.6c-0.1,2.1-2,4.3-4.6,4.2
			C394.3,314,391.8,312.1,392.1,309.4z"/>
		<path class="st3" d="M32.5,181.2c-0.3-2.6,2.2-4.4,4.3-4.4c2.2,0,4.4,2,4.4,4.4c0,2.4-2.1,4.5-4.4,4.5
			C34.5,185.6,32.2,183.8,32.5,181.2z"/>
		<path class="st3" d="M340.7,78.3c-0.2-2.7,1.9-4.4,4.3-4.4c2.3,0,4.3,1.6,4.4,4.3c0,2.8-2.1,4.4-4.3,4.4
			C342.6,82.6,340.5,80.9,340.7,78.3z"/>
		<path class="st3" d="M375.4,104.3c0.2,2.2-1.9,4.4-4.3,4.4c-2.5,0-4.4-2-4.4-4.3c0-2.5,2-4.4,4.4-4.4
			C373.4,99.9,375.6,101.9,375.4,104.3z"/>
		<path class="st3" d="M139.7,48.5c2.4-0.2,4.3,2,4.3,4.2c0,2.4-2,4.4-4.3,4.4c-2.2,0-4.3-2-4.3-4.3
			C135.4,50.5,137.4,48.3,139.7,48.5z"/>
		<path class="st3" d="M113.7,382.3c2.3,0,4.2,1.9,4.2,4.2c0,2.4-1.9,4.3-4.3,4.3c-2.3,0-4.3-2-4.3-4.3
			C109.4,384.3,111.4,382.3,113.7,382.3z"/>
		<path class="st3" d="M62.3,331.5c2.2,0.1,4.1,2,4.1,4.2c0,2-1.8,4.2-4.2,4.2c-2.1,0-4.2-2-4.2-4.2C58,333.3,60.3,331.4,62.3,331.5
			z"/>
		<path class="st3" d="M169.3,412.6c0,2.3-2,4.1-4.2,4.1c-2.3,0-4.1-2-4.1-4.2c0-2.3,2-4.1,4.2-4.1
			C167.5,408.5,169.3,410.4,169.3,412.6z"/>
		<path class="st3" d="M40.9,284.2c-0.1,2-2.1,4.1-4.1,4.1c-2.1,0-4.3-2.2-4.1-4.3c0.2-2.3,1.9-3.9,4.1-4
			C38.9,280,41,282.2,40.9,284.2z"/>
		<path class="st3" d="M316,52.9c0-2.1,1.5-3.6,3.5-3.7c1.8-0.1,3.7,1.9,3.7,3.6c0,1.9-2.1,3.7-3.6,3.7
			C317.8,56.5,315.7,54.6,316,52.9z"/>
		<path class="st3" d="M297.1,412.6c0,2-1.6,3.6-3.6,3.6c-2.1,0-3.7-2-3.6-3.7c0-1.6,1.5-3.6,3.6-3.6
			C295.5,409,297.1,410.6,297.1,412.6z"/>
		<path class="st3" d="M400,129.8c0.1,2-1.7,3.6-3.6,3.6c-2,0-3.6-1.7-3.7-3.7c0-1.6,1.9-3.6,3.7-3.6
			C398,126.1,400.2,127.6,400,129.8z"/>
		<path class="st3" d="M422.6,229.1c2.3,0.1,3.7,2.2,3.5,3.7c-0.2,1.9-1.5,3.4-3.6,3.4c-2.1,0-3.6-1.8-3.5-3.7
			C419.1,230.6,420.6,229.2,422.6,229.1z"/>
		<path class="st3" d="M40.3,155.8c-0.2,2.1-1.7,3.6-3.7,3.5c-1.9,0-3.5-1.6-3.4-3.5c0-2.1,1.5-3.5,3.6-3.6
			C38.6,152.1,40.4,154,40.3,155.8z"/>
		<path class="st3" d="M374.6,361c-0.2,2.1-1.4,3.5-3.6,3.6c-1.9,0-3.4-1.4-3.5-3.4c-0.1-1.8,1.4-3.6,3.5-3.6
			C373.2,357.7,374.3,359,374.6,361z"/>
		<path class="st3" d="M220,26.8c0,1.8-1.8,3.5-3.5,3.4c-1.8-0.1-3.4-1.8-3.3-3.5c0.1-1.8,1.8-3.4,3.6-3.3
			C218.5,23.5,220,25,220,26.8z"/>
		<path class="st3" d="M422.5,203.9c1.8,0,3.5,1.6,3.5,3.3c0.1,1.6-1.7,3.4-3.4,3.5c-1.6,0.1-3.4-1.7-3.5-3.4
			C419,205.6,420.7,203.9,422.5,203.9z"/>
		<path class="st3" d="M88.2,81.6c-2-0.2-3.4-1.5-3.3-3.5c0.1-2.1,1.5-3.2,3.3-3.3c1.7-0.1,3.5,1.7,3.5,3.4
			C91.7,79.9,89.9,81.6,88.2,81.6z"/>
		<path class="st3" d="M242.6,23.4c1.7,0,3.5,1.7,3.5,3.3c0,1.7-1.7,3.4-3.4,3.5c-1.7,0-3.4-1.6-3.4-3.4
			C239.3,24.9,240.8,23.4,242.6,23.4z"/>
		<path class="st3" d="M418.8,258.2c-0.2-1.8,1.4-3.2,3-3.3c1.8,0,3.3,1.4,3.3,3.2c0,1.9-1.5,3.2-3.2,3.2
			C420,261.3,418.6,260,418.8,258.2z"/>
		<path class="st3" d="M345,390.3c-1.7,0.2-3.3-1.4-3.2-3.3c0-1.6,1.6-3.1,3.3-3.1c1.7,0,3.1,1.4,3.2,3.2
			C348.2,388.9,346.7,390.5,345,390.3z"/>
		<path class="st3" d="M62.8,107.4c-2,0.1-3.2-1.5-3.2-3.1c0-1.9,1.4-3.2,3.2-3.2c1.9,0,3.2,1.2,3.2,3.2
			C65.9,106.1,64.8,107.6,62.8,107.4z"/>
		<path class="st3" d="M194.2,26.7c0.2,1.8-1.5,3.2-3,3.1c-1.9-0.1-3-1.1-3.1-3c-0.1-1.6,1.3-3.1,3.1-3.1
			C192.8,23.6,194.4,25,194.2,26.7z"/>
		<path class="st3" d="M39.8,309.6c0.2,1.3-1.5,3.1-3,3.1c-1.6-0.1-2.9-1.3-3-2.9c-0.1-1.6,1.4-3.1,2.9-3.1
			C38,306.6,39.8,307.9,39.8,309.6z"/>
		<path class="st3" d="M142.7,412.5c0,1.6-1.4,3.1-3,3.1c-1.5,0-3.1-1.4-3.1-3c0-1.6,1.4-3.1,3-3.1
			C141.2,409.5,142.7,411,142.7,412.5z"/>
		<path class="st3" d="M422.5,178.3c1.4,0,2.9,1.5,2.9,2.9c0,1.4-1.5,2.9-3,2.9c-1.4,0-2.9-1.4-2.9-2.8
			C419.5,179.8,421.1,178.3,422.5,178.3z"/>
		<path class="st3" d="M396.5,332.7c1.7,0.1,2.9,1.8,2.9,3c-0.1,1.4-1.6,2.9-2.9,2.8c-1.5,0-3-1.5-2.8-3
			C393.7,334,394.9,332.9,396.5,332.7z"/>
		<path class="st3" d="M268,24.4c1.3,0.1,2.8,1,2.9,2.8c0.1,1.4-1.3,2.9-2.8,3c-1.4,0.1-3-1.5-3-2.9C265.2,26,266.7,24.5,268,24.4z"
			/>
		<path class="st3" d="M113.6,50.2c1.9,0,2.6,0.8,2.6,2.5c0,1.6-0.5,2.6-2.6,2.7c-1.7,0-2.6-1-2.6-2.6
			C111,51.3,111.9,50.2,113.6,50.2z"/>
		<path class="st3" d="M421.8,286.7c-1.5,0-2.4-1.1-2.4-2.6c0-1.5,1-2.4,2.6-2.4c1.4,0,2.4,1.1,2.4,2.5
			C424.4,285.6,423.3,286.7,421.8,286.7z"/>
		<path class="st3" d="M90.7,386.5c0,1.3-1.1,2.5-2.4,2.5c-1.2,0-2.4-1.1-2.4-2.3c0-1.2,1.1-2.5,2.3-2.5
			C89.4,384,90.6,385.2,90.7,386.5z"/>
		<path class="st3" d="M321.9,412.5c0,1.3-1,2.4-2.3,2.4c-1.3,0-2.4-1-2.4-2.3c0-1.3,1-2.4,2.3-2.4
			C320.8,410.2,321.9,411.2,321.9,412.5z"/>
		<path class="st3" d="M165,29.1c-1.3,0-2.3-1.1-2.2-2.5c0-1.3,1.2-2.3,2.4-2.3c1.3,0,2.4,1.2,2.3,2.6
			C167.4,28.2,166.4,29.2,165,29.1z"/>
		<path class="st3" d="M371,80.5c-1,0-2.2-1.2-2.3-2.2c0-1,1.3-2.3,2.3-2.3c1,0,2.2,1.3,2.2,2.3C373.2,79.3,372,80.5,371,80.5z"/>
		<path class="st3" d="M39,129.7c0,1-1.3,2.3-2.2,2.3c-1,0-2.3-1.2-2.3-2.2c0-1,1.3-2.3,2.3-2.3C37.8,127.5,39,128.7,39,129.7z"/>
		<path class="st3" d="M60,361.1c0-1.1,1.2-2.2,2.3-2.2c1,0,2.3,1.3,2.3,2.2c0,1-1.3,2.3-2.4,2.3C61.1,363.3,60,362.1,60,361.1z"/>
		<path class="st3" d="M240.1,438.1c0-1.3,0.6-1.9,1.9-2c1.1-0.1,2,0.7,1.9,1.9c0,1.3-0.6,1.9-1.8,1.9
			C240.8,440,240.1,439.4,240.1,438.1z"/>
		<path class="st3" d="M422.3,157.7c-1.2-0.1-1.8-0.7-1.7-2c0-1.2,0.7-1.8,1.9-1.8c1.2,0,1.9,0.8,1.9,2
			C424.4,157.1,423.7,157.7,422.3,157.7z"/>
		<path class="st3" d="M346.9,52.8c0.1,1.4-0.8,2-1.9,1.9c-1.3,0-1.9-0.7-1.9-2c0-1.2,0.7-1.8,1.9-1.9
			C346.1,50.8,346.9,51.5,346.9,52.8z"/>
		<path class="st3" d="M398.3,104.3c0.1,1.2-0.8,1.9-1.8,1.9c-1.1,0-2.1-0.8-2-2c0.1-1.2,0.8-1.9,1.9-1.9
			C397.7,102.3,398.3,102.9,398.3,104.3z"/>
		<path class="st3" d="M13.2,206.6c0.1,1.1-0.7,2-1.9,2c-1.2-0.1-1.9-0.7-1.9-1.9c0-1.2,0.7-2,2-2C12.6,204.7,13.2,205.4,13.2,206.6
			z"/>
		<path class="st3" d="M13.2,232.7c0,1.3-0.6,1.9-1.8,1.9c-1.2,0-2-0.7-2-1.9c0-1.1,0.9-1.9,2-1.9C12.4,230.8,13.3,231.4,13.2,232.7
			z"/>
		<path class="st3" d="M218.5,438c0,1.4-0.5,1.9-1.7,2c-1.1,0.1-2.1-0.6-2-1.9c0-1.4,0.6-1.9,1.9-2C217.6,436,218.5,436.7,218.5,438
			z"/>
		<path class="st3" d="M295.4,27.4c0.1,1.2-0.8,1.9-2,1.8c-1.2-0.1-1.8-0.7-1.8-1.9c0-1.2,0.7-1.8,1.9-1.8
			C294.6,25.4,295.6,26.1,295.4,27.4z"/>
		<path class="st3" d="M191.1,439.8c-1,0-1.8-1-1.8-1.9c0-0.9,1-1.8,1.9-1.7c0.9,0,1.7,0.9,1.7,1.8C193,439,192.1,439.9,191.1,439.8
			z"/>
		<path class="st3" d="M13.1,258.1c0,1-0.8,1.8-1.8,1.8c-1,0-1.8-0.9-1.8-1.8c0-0.9,0.8-1.7,1.8-1.7
			C12.3,256.3,13.1,257.1,13.1,258.1z"/>
		<path class="st3" d="M115.3,412.6c-0.4,0.9-0.8,1.7-1.9,1.6c-0.6,0-1.3-1-1.4-1.5c0-0.6,0.7-1.6,1.4-1.6
			C114.5,410.9,114.9,411.7,115.3,412.6z"/>
		<path class="st3" d="M139.7,28.4c-1.3-0.7-1.7-1.2-1.5-2c0.1-0.5,0.9-1.2,1.4-1.2c0.5,0,1.3,0.6,1.5,1.2
			C141.4,27.2,141.1,27.7,139.7,28.4z"/>
		<path class="st3" d="M269.6,438c0,0.7-0.7,1.5-1.4,1.6c-0.9,0.1-1.6-0.6-1.6-1.5c0-0.8,0.6-1.5,1.4-1.6
			C268.8,436.5,269.6,437.2,269.6,438z"/>
		<path class="st3" d="M421.9,308c0.7,0,1.6,0.8,1.6,1.6c0,0.7-0.7,1.5-1.5,1.5c-0.7,0-1.5-0.7-1.5-1.4
			C420.4,308.9,421.1,308.1,421.9,308z"/>
		<path class="st3" d="M36.8,334.2c0.8,0,1.5,0.7,1.5,1.5c0,0.8-0.8,1.6-1.6,1.5c-0.8,0-1.5-0.9-1.4-1.7
			C35.4,334.7,36,334.1,36.8,334.2z"/>
		<path class="st3" d="M11.4,179.7c0.7,0,1.5,0.8,1.5,1.5c0,0.7-0.9,1.6-1.6,1.6c-0.6,0-1.5-1-1.5-1.5
			C9.7,180.5,10.7,179.7,11.4,179.7z"/>
		<path class="st3" d="M89.4,52.7c0,0.7-0.5,1.3-1.2,1.3c-0.7,0-1.2-0.6-1.2-1.3c0-0.6,0.5-1.2,1.1-1.3C88.8,51.5,89.4,52,89.4,52.7
			z"/>
		<path class="st3" d="M372.2,387.1c0,0.7-0.5,1.3-1.2,1.3c-0.7,0-1.2-0.6-1.2-1.3c0-0.6,0.5-1.2,1.1-1.3
			C371.6,385.8,372.2,386.3,372.2,387.1z"/>
		<path class="st3" d="M165.2,436.8c0.7,0,1.2,0.6,1.2,1.4c0,0.7-0.6,1.2-1.3,1.2c-0.6-0.1-1.1-0.6-1.1-1.3
			C163.9,437.3,164.5,436.7,165.2,436.8z"/>
		<path class="st3" d="M11.3,283c0.8,0,1.2,0.5,1.2,1.3c0,0.7-0.5,1.1-1.2,1.2c-0.7,0-1.2-0.4-1.2-1.1C10.1,283.5,10.6,283,11.3,283
			z"/>
		<path class="st3" d="M62.8,79.4c-0.7,0-1.1-0.4-1.2-1.1c0-0.8,0.4-1.3,1.2-1.3c0.7,0,1.2,0.4,1.2,1.1C64,78.9,63.5,79.4,62.8,79.4
			z"/>
		<path class="st3" d="M397.7,361c0,0.7-0.4,1.2-1.1,1.2c-0.8,0.1-1.3-0.4-1.3-1.2c0-0.8,0.4-1.2,1.2-1.2
			C397.2,359.9,397.6,360.3,397.7,361z"/>
		<path class="st3" d="M37.9,104.2c-0.5,0.4-0.8,0.7-1.1,0.8c-0.5,0.1-0.8-0.1-0.8-0.7c0-0.4,0.2-0.8,0.6-0.7
			C37,103.6,37.3,103.9,37.9,104.2z"/>
		<path class="st3" d="M423,335.7c-0.6,0.3-0.9,0.6-1.2,0.7c-0.5,0.1-0.6-0.3-0.6-0.7c0-0.6,0.3-0.8,0.8-0.7
			C422.3,335,422.5,335.3,423,335.7z"/>
		<path class="st3" d="M191.1,0.2c0.4,0.5,0.7,0.7,0.8,1c0.1,0.5-0.1,0.8-0.7,0.9c-0.5,0-0.8-0.3-0.8-0.8
			C190.5,1,190.8,0.7,191.1,0.2z"/>
		<path class="st3" d="M243.4,1c0,0.8-0.3,1.1-0.8,1c-0.3-0.1-0.6-0.4-0.7-0.7c-0.1-0.5,0.3-0.8,0.8-0.7C243,0.6,243.2,0.9,243.4,1z
			"/>
		<path class="st3" d="M372.1,52.8c-0.5,0.3-0.8,0.6-1.1,0.7c-0.5,0.1-0.8-0.3-0.7-0.8c0-0.5,0.4-0.7,0.8-0.6
			C371.4,52.2,371.6,52.5,372.1,52.8z"/>
		<path class="st3" d="M62.9,386.7c-0.1,0.1-0.3,0.4-0.6,0.5c-0.5,0.1-0.8-0.2-0.8-0.7c0-0.5,0.2-0.7,0.7-0.7
			C62.7,385.8,62.9,386,62.9,386.7z"/>
		<path class="st3" d="M37.9,361c-0.5,0.4-0.8,0.7-1.1,0.8c-0.5,0.1-0.8-0.1-0.8-0.7c0-0.5,0.3-0.7,0.7-0.7
			C37.1,360.4,37.3,360.7,37.9,361z"/>
		<path class="st3" d="M423.2,129.4c0,0.7-0.2,1-0.7,1c-0.4,0-0.8-0.1-0.8-0.6c0-0.5,0.2-0.9,0.7-0.8
			C422.8,129.1,423.1,129.3,423.2,129.4z"/>
		<path class="st3" d="M12.1,155.6c-0.1,0.8-0.4,0.9-0.8,0.9c-0.5,0-0.6-0.4-0.6-0.8c0-0.5,0.3-0.8,0.7-0.7
			C11.7,155.1,11.9,155.5,12.1,155.6z"/>
		<path class="st3" d="M293.6,439.1c-0.4-0.5-0.7-0.7-0.8-1c-0.1-0.5,0.2-0.8,0.8-0.8c0.5,0,0.8,0.3,0.7,0.7
			C294.2,438.3,293.9,438.6,293.6,439.1z"/>
		<path class="st3" d="M217.7,1.2c-0.5,0.4-0.7,0.7-1,0.8c-0.5,0.1-0.8-0.2-0.8-0.8c0-0.5,0.3-0.8,0.7-0.7
			C216.9,0.6,217.2,0.9,217.7,1.2z"/>
		<path class="st3" d="M191.1,457c0.4,0.5,0.7,0.7,0.8,1c0.1,0.5-0.1,0.8-0.7,0.9c-0.5,0-0.8-0.3-0.8-0.8
			C190.5,457.7,190.8,457.5,191.1,457z"/>
		<path class="st3" d="M243.4,457.8c0,0.8-0.3,1.1-0.8,1c-0.3-0.1-0.6-0.4-0.7-0.7c-0.1-0.5,0.3-0.8,0.8-0.7
			C243,457.4,243.2,457.7,243.4,457.8z"/>
		<path class="st3" d="M217.7,458c-0.5,0.4-0.7,0.7-1,0.8c-0.5,0.1-0.8-0.2-0.8-0.8c0-0.5,0.3-0.8,0.7-0.7
			C216.9,457.4,217.2,457.7,217.7,458z"/>
		<path class="st3" d="M319.3,437.3c0.7,0,0.9,0.2,0.9,0.7c0,0.4-0.2,0.7-0.6,0.7c-0.4,0-0.8-0.2-0.7-0.7
			C318.9,437.8,319.2,437.5,319.3,437.3z"/>
		<path class="st3" d="M447.7,233.4c-0.1-0.1-0.4-0.4-0.5-0.6c-0.1-0.4,0.1-0.7,0.6-0.7c0.4,0,0.7,0.1,0.8,0.6
			C448.7,233.1,448.4,233.3,447.7,233.4z"/>
		<path class="st3" d="M12.1,309.4c0,0.8-0.3,0.9-0.7,0.9c-0.6,0-0.7-0.4-0.7-0.8c0-0.5,0.4-0.7,0.8-0.6
			C11.7,309,11.9,309.3,12.1,309.4z"/>
		<path class="st3" d="M114.8,26.8c-0.6,0.3-0.8,0.6-1.1,0.6c-0.6,0.1-0.7-0.3-0.7-0.8c0-0.5,0.4-0.7,0.8-0.6
			C114,26.1,114.2,26.4,114.8,26.8z"/>
		<path class="st3" d="M448.6,180.9c0,0.7-0.2,1-0.6,1c-0.4,0-0.7-0.1-0.8-0.6c0-0.5,0.2-0.9,0.7-0.8
			C448.2,180.5,448.5,180.8,448.6,180.9z"/>
		<path class="st3" d="M448.6,258.4c-0.1,0.1-0.4,0.4-0.7,0.4c-0.4,0.1-0.7-0.1-0.7-0.6c0-0.5,0.2-0.7,0.7-0.7
			C448.3,257.4,448.6,257.6,448.6,258.4z"/>
		<path class="st3" d="M448.6,207.3c0,0.5-0.3,0.7-0.7,0.6c-0.5,0-0.7-0.3-0.7-0.7c0-0.5,0.3-0.7,0.7-0.6
			C448.4,206.6,448.7,206.8,448.6,207.3z"/>
		<path class="st3" d="M140.8,437.9c-0.5,0.4-0.7,0.7-1,0.8c-0.4,0.1-0.7-0.2-0.8-0.6c0-0.4,0.2-0.8,0.6-0.7
			C139.9,437.4,140.2,437.6,140.8,437.9z"/>
		<path class="st3" d="M89.4,412.7c-0.6,0.3-0.9,0.5-1.2,0.5c-0.5,0.1-0.7-0.3-0.6-0.7c0-0.5,0.4-0.7,0.8-0.6
			C88.6,412,88.8,412.3,89.4,412.7z"/>
		<path class="st3" d="M345.7,412.8c-0.1,0.1-0.4,0.4-0.7,0.4c-0.5,0.1-0.8-0.2-0.7-0.7c0.1-0.2,0.3-0.6,0.6-0.6
			C345.3,411.8,345.7,412,345.7,412.8z"/>
		<path class="st3" d="M319.3,26.7c0.8,0,1,0.4,0.8,0.8c-0.1,0.2-0.4,0.5-0.6,0.6c-0.4,0.1-0.8-0.2-0.7-0.7
			C319,27,319.2,26.8,319.3,26.7z"/>
		<path class="st3" d="M396.8,77.6c0.1,0.1,0.3,0.4,0.4,0.7c0.1,0.5-0.2,0.7-0.7,0.7c-0.5,0-0.7-0.2-0.7-0.7
			C395.8,77.7,396,77.5,396.8,77.6z"/>
	</g>
</g>
</svg>
