<svg width="49" height="142" viewBox="0 0 49 142" fill="none" xmlns="http://www.w3.org/2000/svg">
<path fill-rule="evenodd" clip-rule="evenodd" d="M25.7599 141.48C25.7638 135.7 28.0602 130.158 32.1451 126.069C36.2301 121.981 41.7701 119.679 47.5498 119.67L47.5498 116.7C43.0793 116.706 38.6937 117.921 34.8577 120.217C31.0216 122.513 27.8781 125.803 25.7599 129.74L25.7599 0.999999L22.7998 0.999999L22.7998 128.22C20.6903 124.27 17.5485 120.966 13.7095 118.661C9.87039 116.356 5.47787 115.135 0.999873 115.13L0.999873 118.1C6.77955 118.112 12.3185 120.416 16.4016 124.507C20.4847 128.597 22.7785 134.14 22.7798 139.92L22.8799 139.92C22.8499 140.44 22.7998 140.96 22.7998 141.48L25.7599 141.48Z" fill="white" stroke="white"/>
</svg>
