<svg width="35" height="51" viewBox="0 0 35 51" fill="none" xmlns="http://www.w3.org/2000/svg">
<path fill-rule="evenodd" clip-rule="evenodd" d="M17.4237 33.8046C14.1636 33.7896 10.981 32.8149 8.27766 31.0035C5.57431 29.1921 3.47134 26.6252 2.23419 23.6267C0.997046 20.6283 0.681162 17.3327 1.32641 14.156C1.97166 10.9793 3.54913 8.06375 5.8597 5.77742C8.17028 3.49109 11.1104 1.93643 14.309 1.30967C17.5076 0.682904 20.8212 1.01213 23.8318 2.25579C26.8423 3.49944 29.4148 5.60179 31.2245 8.29748C33.0342 10.9932 34 14.1614 34 17.4022C33.985 21.761 32.2313 25.9358 29.1237 29.0108C26.0161 32.0858 21.8084 33.8098 17.4237 33.8046ZM17.4237 1.41349C14.2458 1.42812 11.1435 2.37827 8.50833 4.144C5.87317 5.90973 3.82326 8.41191 2.61732 11.3347C1.41138 14.2575 1.10347 17.47 1.73246 20.5666C2.36144 23.6632 3.89913 26.5052 6.15143 28.7339C8.40374 30.9625 11.2697 32.478 14.3876 33.0889C17.5056 33.6999 20.7357 33.379 23.6703 32.1667C26.6049 30.9544 29.1124 28.905 30.8765 26.2773C32.6405 23.6496 33.582 20.5613 33.582 17.4022C33.5673 13.1534 31.8578 9.08391 28.8286 6.08648C25.7994 3.08905 21.6978 1.40849 17.4237 1.41349ZM17.4237 49.9992C14.1635 49.9843 10.9809 49.0095 8.27758 47.1981C5.57421 45.3866 3.47125 42.8197 2.23412 39.8212C0.996994 36.8227 0.681158 33.5271 1.32647 30.3504C1.97178 27.1736 3.54931 24.2581 5.85996 21.9718C8.17061 19.6855 11.1108 18.1309 14.3094 17.5042C17.5081 16.8775 20.8218 17.2069 23.8323 18.4506C26.8428 19.6944 29.4152 21.7969 31.2248 24.4927C33.0344 27.1884 34.0001 30.3567 34 33.5976C33.985 37.9563 32.2313 42.1312 29.1237 45.2062C26.0161 48.2812 21.8084 50.0052 17.4237 50V49.9992ZM17.4237 17.6081C14.2457 17.6227 11.1433 18.5728 8.50806 20.3385C5.8728 22.1042 3.82278 24.6064 2.61674 27.5293C1.41071 30.4521 1.10272 33.6646 1.73165 36.7613C2.36058 39.858 3.89823 42.7001 6.15054 44.9289C8.40285 47.1577 11.2689 48.6732 14.3868 49.2842C17.5048 49.8953 20.735 49.5744 23.6697 48.3622C26.6044 47.1499 29.1121 45.1006 30.8762 42.4729C32.6404 39.8451 33.5819 36.7568 33.582 33.5976C33.5673 29.3488 31.8578 25.2793 28.8286 22.2819C25.7994 19.2844 21.6978 17.6039 17.4237 17.6089V17.6081Z" fill="white" stroke="white"/>
</svg>
