<svg width="592" height="424" viewBox="0 0 592 424" fill="none" xmlns="http://www.w3.org/2000/svg">
<g opacity="0.4">
<path d="M312.664 254.851C312.664 226.458 303.02 200.51 285.667 180.726C289.14 180.197 292.652 179.957 296.166 180.006C306.014 180.006 315.766 181.946 324.865 185.715C333.963 189.484 342.231 195.008 349.195 201.972C356.158 208.936 361.683 217.203 365.451 226.302C369.22 235.4 371.16 245.152 371.16 255.001C371.16 264.849 369.22 274.601 365.451 283.7C361.683 292.798 356.158 301.066 349.195 308.03C342.231 314.993 333.963 320.517 324.865 324.286C315.766 328.055 306.014 329.995 296.166 329.995C292.652 330.04 289.14 329.794 285.667 329.26C303.02 309.476 312.664 283.243 312.664 254.851Z" fill="#60A8D8"/>
<path d="M296.316 271.499C324.709 271.499 350.657 261.855 370.44 244.501C370.969 247.975 371.21 251.487 371.16 255.001C371.16 274.89 363.259 293.965 349.195 308.03C335.131 322.094 316.056 329.995 296.166 329.995C276.276 329.995 257.201 322.094 243.137 308.03C229.073 293.965 221.172 274.89 221.172 255.001C221.127 251.487 221.373 247.975 221.907 244.501C241.69 261.855 267.923 271.499 296.316 271.499Z" fill="#727ABC"/>
<path d="M279.667 255.136C279.667 283.528 289.312 309.476 306.665 329.26C303.192 329.794 299.68 330.04 296.166 329.995C276.276 329.995 257.201 322.094 243.137 308.03C229.073 293.965 221.172 274.89 221.172 255.001C221.172 235.111 229.073 216.036 243.137 201.972C257.201 187.908 276.276 180.006 296.166 180.006C299.68 179.957 303.191 180.197 306.665 180.726C289.312 200.51 279.667 226.743 279.667 255.136Z" fill="#B0ADDB"/>
<path d="M306.667 329.274C303.659 329.739 300.62 329.975 297.576 329.98C300.588 329.92 303.594 329.679 306.577 329.259L306.667 329.274Z" fill="#6078EF"/>
<path d="M306.665 180.741C302.77 185.182 299.258 189.944 296.166 194.976C293.066 189.949 289.554 185.188 285.667 180.741C288.649 180.321 291.654 180.081 294.666 180.021H297.486C300.211 180.027 302.932 180.223 305.63 180.606L306.665 180.741Z" fill="#60A8D8"/>
<path d="M370.687 255C370.687 296.145 337.332 329.5 296.187 329.5C255.042 329.5 221.687 296.145 221.687 255C221.687 213.855 255.042 180.5 296.187 180.5C337.332 180.5 370.687 213.855 370.687 255Z" stroke="#222222" stroke-miterlimit="10"/>
<path d="M391.88 141.775C454.396 141.775 505.243 192.35 505.243 254.517C505.243 316.683 454.396 367.258 391.88 367.258C377.062 367.303 362.386 364.368 348.724 358.628C335.063 352.888 322.695 344.46 312.355 333.844C291.358 312.484 279.643 283.697 279.758 253.745C279.67 239.002 282.511 224.389 288.116 210.754C293.721 197.118 301.978 184.732 312.409 174.313C322.84 163.895 335.237 155.653 348.879 150.064C362.522 144.476 377.138 141.653 391.88 141.759V141.775ZM391.88 141.003C377.041 140.898 362.328 143.742 348.595 149.368C334.863 154.994 322.385 163.291 311.884 173.778C301.383 184.264 293.07 196.731 287.425 210.456C281.78 224.181 278.917 238.89 279.002 253.73C279.002 316.411 328.866 368 391.88 368C454.895 368 506 317.183 506 254.501C506 191.82 454.91 141.003 391.88 141.003Z" fill="#000222"/>
<path d="M296.889 45.7567C326.688 45.7567 355.266 57.6349 376.337 78.7784C397.408 99.9219 409.246 128.599 409.246 158.5C409.246 188.401 397.408 217.078 376.337 238.222C355.266 259.365 326.688 271.243 296.889 271.243C282.187 271.279 267.628 268.339 254.084 262.601C240.539 256.862 228.287 248.442 218.059 237.844C197.255 216.417 185.679 187.643 185.829 157.728C185.708 143.034 188.493 128.463 194.025 114.857C199.556 101.251 207.724 88.8827 218.054 78.4677C228.384 68.0526 240.672 59.7984 254.204 54.1834C267.737 48.5683 282.245 45.7041 296.889 45.7567ZM296.889 45C234.422 45 185 95.0459 185 157.728C185 220.41 234.422 272 296.889 272C326.888 272 355.658 260.042 376.871 238.757C398.083 217.471 410 188.602 410 158.5C410 128.398 398.083 99.5288 376.871 78.2434C355.658 56.958 326.888 45 296.889 45V45Z" fill="#000222"/>
<path d="M199.394 140.772C229.323 140.772 258.027 152.649 279.19 173.791C300.353 194.933 312.243 223.608 312.243 253.508C312.243 283.407 300.353 312.082 279.19 333.224C258.027 354.366 229.323 366.243 199.394 366.243C184.625 366.279 170 363.34 156.394 357.602C142.788 351.864 130.479 343.444 120.203 332.846C99.2807 311.433 87.6267 282.659 87.7574 252.736C87.6349 238.035 90.4355 223.456 95.9968 209.844C101.558 196.233 109.769 183.86 120.154 173.443C130.539 163.026 142.891 154.773 156.493 149.162C170.096 143.551 184.678 140.694 199.394 140.757V140.772ZM199.394 140C136.653 140.015 87 190.058 87 252.736C87 315.414 136.653 367 199.394 367C229.524 367 258.42 355.043 279.726 333.759C301.031 312.475 313 283.608 313 253.508C313 223.407 301.031 194.54 279.726 173.256C258.42 151.972 229.524 140.015 199.394 140.015V140Z" fill="#000222"/>
<path d="M150.62 263.26C153.12 263.26 155.34 261.12 155.34 257.38C155.34 254.06 153.82 251.86 151 251.86C149.8 251.86 148.58 252.54 147.6 253.4L147.66 251.44V247.08H145.84V263H147.3L147.46 261.88H147.54C148.48 262.74 149.62 263.26 150.62 263.26ZM150.32 261.74C149.6 261.74 148.62 261.44 147.66 260.6V254.9C148.7 253.92 149.66 253.4 150.58 253.4C152.64 253.4 153.44 255.02 153.44 257.42C153.44 260.12 152.12 261.74 150.32 261.74ZM158.203 263H160.023V256.02C160.743 254.16 161.863 253.52 162.763 253.52C163.203 253.52 163.463 253.56 163.823 253.7L164.163 252.1C163.823 251.92 163.483 251.86 163.003 251.86C161.783 251.86 160.683 252.74 159.923 254.12H159.863L159.703 252.14H158.203V263ZM165.957 263H167.777V252.14H165.957V263ZM166.877 249.9C167.597 249.9 168.097 249.42 168.097 248.68C168.097 247.98 167.597 247.5 166.877 247.5C166.157 247.5 165.657 247.98 165.657 248.68C165.657 249.42 166.157 249.9 166.877 249.9ZM175.125 268C178.485 268 180.625 266.26 180.625 264.24C180.625 262.46 179.345 261.66 176.825 261.66H174.705C173.245 261.66 172.805 261.18 172.805 260.48C172.805 259.88 173.105 259.52 173.505 259.18C173.985 259.42 174.585 259.56 175.125 259.56C177.325 259.56 179.085 258.1 179.085 255.78C179.085 254.84 178.725 254.04 178.205 253.54H180.425V252.14H176.645C176.265 252 175.725 251.86 175.125 251.86C172.925 251.86 171.045 253.36 171.045 255.74C171.045 257.04 171.745 258.08 172.465 258.66V258.74C171.905 259.14 171.245 259.86 171.245 260.76C171.245 261.62 171.665 262.2 172.245 262.54V262.62C171.225 263.28 170.645 264.16 170.645 265.08C170.645 266.96 172.465 268 175.125 268ZM175.125 258.32C173.865 258.32 172.805 257.32 172.805 255.74C172.805 254.14 173.845 253.2 175.125 253.2C176.405 253.2 177.445 254.16 177.445 255.74C177.445 257.32 176.365 258.32 175.125 258.32ZM175.385 266.76C173.425 266.76 172.245 266 172.245 264.84C172.245 264.2 172.565 263.56 173.345 263C173.825 263.12 174.345 263.18 174.745 263.18H176.625C178.065 263.18 178.845 263.52 178.845 264.52C178.845 265.66 177.465 266.76 175.385 266.76ZM182.735 263H184.555V255.12C185.655 254.02 186.415 253.46 187.535 253.46C188.975 253.46 189.595 254.32 189.595 256.36V263H191.415V256.12C191.415 253.34 190.375 251.86 188.095 251.86C186.615 251.86 185.495 252.68 184.495 253.68L184.555 251.44V247.08H182.735V263ZM198.303 263.26C198.963 263.26 199.683 263.06 200.303 262.86L199.943 261.5C199.583 261.64 199.083 261.78 198.703 261.78C197.443 261.78 197.023 261.02 197.023 259.68V253.62H199.963V252.14H197.023V249.08H195.503L195.283 252.14L193.583 252.24V253.62H195.203V259.64C195.203 261.8 195.983 263.26 198.303 263.26Z" fill="#222222"/>
<path d="M261.62 144.26C264.12 144.26 266.34 142.12 266.34 138.38C266.34 135.06 264.82 132.86 262 132.86C260.8 132.86 259.58 133.54 258.6 134.4L258.66 132.44V128.08H256.84V144H258.3L258.46 142.88H258.54C259.48 143.74 260.62 144.26 261.62 144.26ZM261.32 142.74C260.6 142.74 259.62 142.44 258.66 141.6V135.9C259.7 134.92 260.66 134.4 261.58 134.4C263.64 134.4 264.44 136.02 264.44 138.42C264.44 141.12 263.12 142.74 261.32 142.74ZM273.583 144.26C275.063 144.26 276.223 143.76 277.183 143.14L276.523 141.94C275.723 142.48 274.863 142.8 273.803 142.8C271.743 142.8 270.323 141.32 270.203 139H277.523C277.563 138.74 277.603 138.36 277.603 137.96C277.603 134.86 276.043 132.86 273.283 132.86C270.763 132.86 268.383 135.06 268.383 138.58C268.383 142.16 270.703 144.26 273.583 144.26ZM270.183 137.68C270.403 135.56 271.763 134.32 273.303 134.32C275.003 134.32 276.003 135.5 276.003 137.68H270.183ZM282.465 144.26C283.805 144.26 285.025 143.56 286.065 142.7H286.125L286.285 144H287.785V137.32C287.785 134.64 286.665 132.86 284.025 132.86C282.285 132.86 280.745 133.64 279.745 134.28L280.465 135.54C281.325 134.96 282.465 134.38 283.725 134.38C285.505 134.38 285.965 135.72 285.965 137.12C281.345 137.64 279.285 138.82 279.285 141.18C279.285 143.14 280.645 144.26 282.465 144.26ZM282.985 142.8C281.905 142.8 281.065 142.3 281.065 141.06C281.065 139.66 282.305 138.76 285.965 138.32V141.36C284.905 142.3 284.045 142.8 282.985 142.8ZM291.254 144H293.074V136.12C294.074 135 294.994 134.46 295.814 134.46C297.194 134.46 297.834 135.32 297.834 137.36V144H299.654V136.12C300.674 135 301.554 134.46 302.394 134.46C303.774 134.46 304.414 135.32 304.414 137.36V144H306.234V137.12C306.234 134.34 305.174 132.86 302.934 132.86C301.614 132.86 300.474 133.72 299.354 134.94C298.914 133.66 298.014 132.86 296.354 132.86C295.054 132.86 293.914 133.68 292.974 134.72H292.914L292.754 133.14H291.254V144ZM309.77 144H311.59V133.14H309.77V144ZM310.69 130.9C311.41 130.9 311.91 130.42 311.91 129.68C311.91 128.98 311.41 128.5 310.69 128.5C309.97 128.5 309.47 128.98 309.47 129.68C309.47 130.42 309.97 130.9 310.69 130.9ZM315.278 144H317.098V136.12C318.198 135.02 318.958 134.46 320.078 134.46C321.518 134.46 322.138 135.32 322.138 137.36V144H323.958V137.12C323.958 134.34 322.918 132.86 320.638 132.86C319.158 132.86 318.038 133.68 316.998 134.7H316.938L316.778 133.14H315.278V144ZM331.164 149C334.524 149 336.664 147.26 336.664 145.24C336.664 143.46 335.384 142.66 332.864 142.66H330.744C329.284 142.66 328.844 142.18 328.844 141.48C328.844 140.88 329.144 140.52 329.544 140.18C330.024 140.42 330.624 140.56 331.164 140.56C333.364 140.56 335.124 139.1 335.124 136.78C335.124 135.84 334.764 135.04 334.244 134.54H336.464V133.14H332.684C332.304 133 331.764 132.86 331.164 132.86C328.964 132.86 327.084 134.36 327.084 136.74C327.084 138.04 327.784 139.08 328.504 139.66V139.74C327.944 140.14 327.284 140.86 327.284 141.76C327.284 142.62 327.704 143.2 328.284 143.54V143.62C327.264 144.28 326.684 145.16 326.684 146.08C326.684 147.96 328.504 149 331.164 149ZM331.164 139.32C329.904 139.32 328.844 138.32 328.844 136.74C328.844 135.14 329.884 134.2 331.164 134.2C332.444 134.2 333.484 135.16 333.484 136.74C333.484 138.32 332.404 139.32 331.164 139.32ZM331.424 147.76C329.464 147.76 328.284 147 328.284 145.84C328.284 145.2 328.604 144.56 329.384 144C329.864 144.12 330.384 144.18 330.784 144.18H332.664C334.104 144.18 334.884 144.52 334.884 145.52C334.884 146.66 333.504 147.76 331.424 147.76Z" fill="#222222"/>
<path d="M392.84 263H394.66V256.02C395.38 254.16 396.5 253.52 397.4 253.52C397.84 253.52 398.1 253.56 398.46 253.7L398.8 252.1C398.46 251.92 398.12 251.86 397.64 251.86C396.42 251.86 395.32 252.74 394.56 254.12H394.5L394.34 252.14H392.84V263ZM404.599 263.26C407.259 263.26 409.639 261.18 409.639 257.58C409.639 253.96 407.259 251.86 404.599 251.86C401.939 251.86 399.559 253.96 399.559 257.58C399.559 261.18 401.939 263.26 404.599 263.26ZM404.599 261.74C402.719 261.74 401.459 260.08 401.459 257.58C401.459 255.08 402.719 253.38 404.599 253.38C406.479 253.38 407.759 255.08 407.759 257.58C407.759 260.08 406.479 261.74 404.599 261.74ZM415.348 263.26C417.908 263.26 419.308 261.8 419.308 260.04C419.308 257.98 417.568 257.34 415.988 256.74C414.768 256.28 413.648 255.9 413.648 254.86C413.648 254.02 414.288 253.3 415.668 253.3C416.628 253.3 417.388 253.7 418.128 254.26L419.008 253.08C418.168 252.42 416.988 251.86 415.648 251.86C413.288 251.86 411.888 253.22 411.888 254.94C411.888 256.78 413.548 257.52 415.068 258.08C416.268 258.54 417.548 259.02 417.548 260.14C417.548 261.08 416.848 261.84 415.408 261.84C414.108 261.84 413.128 261.32 412.188 260.56L411.288 261.76C412.328 262.62 413.808 263.26 415.348 263.26ZM422.043 267.68C424.203 267.68 425.343 266.04 426.083 263.9L430.183 252.14H428.403L426.463 258.18C426.163 259.14 425.843 260.24 425.543 261.22H425.443C425.103 260.24 424.723 259.12 424.403 258.18L422.183 252.14H420.283L424.643 263.02L424.403 263.84C423.963 265.18 423.183 266.18 421.943 266.18C421.663 266.18 421.343 266.08 421.123 266L420.763 267.46C421.103 267.6 421.523 267.68 422.043 267.68Z" fill="#222222"/>
</g>
<g opacity="0.5">
<line opacity="0.5" x1="592" y1="44.5" y2="44.5" stroke="#222222" stroke-dasharray="5 3"/>
<path opacity="0.5" d="M592 271.5L0 271.5" stroke="#222222" stroke-dasharray="5 3"/>
<line opacity="0.5" x1="592" y1="179.5" y2="179.5" stroke="#222222" stroke-dasharray="5 3"/>
<line opacity="0.5" x1="592" y1="330.5" y2="330.5" stroke="#222222" stroke-dasharray="5 3"/>
<line opacity="0.5" x1="592" y1="368.5" y2="368.5" stroke="#222222" stroke-dasharray="5 3"/>
<line opacity="0.5" x1="504.5" y1="424" x2="504.5" y2="2.18557e-08" stroke="#222222" stroke-dasharray="5 3"/>
<line opacity="0.5" x1="87.5" y1="424" x2="87.5" y2="2.18557e-08" stroke="#222222" stroke-dasharray="5 3"/>
<line opacity="0.5" x1="220.5" y1="424" x2="220.5" y2="2.18557e-08" stroke="#222222" stroke-dasharray="5 3"/>
<line opacity="0.5" x1="370.5" y1="424" x2="370.5" y2="2.18557e-08" stroke="#222222" stroke-dasharray="5 3"/>
<line opacity="0.5" x1="295.5" y1="424" x2="295.5" y2="2.18557e-08" stroke="#222222" stroke-dasharray="5 3"/>
</g>
</svg>
