<svg width="592" height="424" viewBox="0 0 592 424" fill="none" xmlns="http://www.w3.org/2000/svg">
<line opacity="0.5" x1="592" y1="44.5" y2="44.5" stroke="#222222" stroke-dasharray="5 3"/>
<path opacity="0.5" d="M592 271.5L0 271.5" stroke="#222222" stroke-dasharray="5 3"/>
<line opacity="0.5" x1="592" y1="179.5" y2="179.5" stroke="#222222" stroke-dasharray="5 3"/>
<line opacity="0.5" x1="592" y1="330.5" y2="330.5" stroke="#222222" stroke-dasharray="5 3"/>
<line opacity="0.5" x1="592" y1="368.5" y2="368.5" stroke="#222222" stroke-dasharray="5 3"/>
<line opacity="0.5" x1="504.5" y1="424" x2="504.5" y2="2.18557e-08" stroke="#222222" stroke-dasharray="5 3"/>
<line opacity="0.5" x1="87.5" y1="424" x2="87.5" y2="2.18557e-08" stroke="#222222" stroke-dasharray="5 3"/>
<line opacity="0.5" x1="220.5" y1="424" x2="220.5" y2="2.18557e-08" stroke="#222222" stroke-dasharray="5 3"/>
<line opacity="0.5" x1="370.5" y1="424" x2="370.5" y2="2.18557e-08" stroke="#222222" stroke-dasharray="5 3"/>
<line opacity="0.5" x1="295.5" y1="424" x2="295.5" y2="2.18557e-08" stroke="#222222" stroke-dasharray="5 3"/>
<path d="M296.169 271.435C324.494 271.435 350.495 261.857 370.274 244.456C370.802 247.928 371.043 251.437 370.993 254.948C370.993 264.79 369.054 274.536 365.286 283.629C361.518 292.723 355.994 300.985 349.032 307.944C342.069 314.904 333.803 320.425 324.706 324.191C315.609 327.958 305.858 329.896 296.011 329.896C286.165 329.896 276.414 327.958 267.317 324.191C258.22 320.425 249.954 314.904 242.991 307.944C236.028 300.985 230.505 292.723 226.737 283.629C222.969 274.536 221.029 264.79 221.029 254.948C220.99 251.436 221.24 247.927 221.779 244.456C241.557 261.857 267.784 271.435 296.169 271.435Z" fill="url(#paint0_linear)"/>
<path d="M296.169 271.435C324.494 271.435 350.495 261.857 370.274 244.456C370.802 247.928 371.043 251.437 370.993 254.948C370.993 264.79 369.054 274.536 365.286 283.629C361.518 292.723 355.994 300.985 349.032 307.944C342.069 314.904 333.803 320.425 324.706 324.191C315.609 327.958 305.858 329.896 296.011 329.896C286.165 329.896 276.414 327.958 267.317 324.191C258.22 320.425 249.954 314.904 242.991 307.944C236.028 300.985 230.505 292.723 226.737 283.629C222.969 274.536 221.029 264.79 221.029 254.948C220.99 251.436 221.24 247.927 221.779 244.456C241.557 261.857 267.784 271.435 296.169 271.435Z" fill="url(#paint1_linear)"/>
<g opacity="0.2">
<path opacity="0.2" d="M296.169 289.78C324.494 289.78 349.401 271.6 370.274 244.456C370.802 247.928 371.043 251.437 370.993 254.948C370.993 264.79 369.054 274.536 365.286 283.629C361.518 292.723 355.994 300.985 349.032 307.944C342.069 314.904 333.803 320.425 324.706 324.191C315.609 327.958 305.858 329.896 296.011 329.896C286.165 329.896 276.414 327.958 267.317 324.191C258.22 320.425 249.954 314.904 242.991 307.944C236.028 300.985 230.505 292.723 226.737 283.629C222.969 274.536 221.029 264.79 221.029 254.948C220.99 251.436 221.24 247.927 221.779 244.456C237.974 272.934 267.784 289.78 296.169 289.78Z" fill="url(#paint2_linear)"/>
</g>
<path opacity="0.2" d="M296.169 307.571C324.494 307.571 362.626 283.201 370.274 244.456C370.802 247.928 371.043 251.437 370.993 254.948C370.993 264.79 369.054 274.536 365.286 283.629C361.518 292.723 355.994 300.985 349.032 307.944C342.069 314.904 333.803 320.425 324.706 324.191C315.609 327.958 305.858 329.896 296.011 329.896C286.165 329.896 276.414 327.958 267.317 324.191C258.22 320.425 249.954 314.904 242.991 307.944C236.028 300.985 230.505 292.723 226.737 283.629C222.969 274.536 221.029 264.79 221.029 254.948C220.99 251.436 221.24 247.927 221.779 244.456C225.528 280.428 267.784 307.571 296.169 307.571Z" fill="url(#paint3_linear)"/>
<path d="M279.51 255.142C279.51 283.515 289.152 309.445 306.501 329.214C303.028 329.748 299.518 329.993 296.004 329.949C276.112 329.949 257.034 322.05 242.968 307.99C228.902 293.93 221 274.861 221 254.977C221 235.094 228.902 216.025 242.968 201.965C257.034 187.905 276.112 180.006 296.004 180.006C299.517 179.957 303.028 180.197 306.501 180.726C289.167 200.555 279.51 226.77 279.51 255.142Z" fill="url(#paint4_linear)"/>
<path opacity="0.2" d="M266.9 254.947C266.9 283.425 279.345 308.275 306.501 329.274C303.028 329.802 299.517 330.043 296.005 329.993C276.12 329.993 257.05 322.098 242.99 308.044C228.929 293.989 221.03 274.928 221.03 255.052C221.03 235.177 228.929 216.115 242.99 202.061C257.05 188.007 276.12 180.111 296.005 180.111C299.518 180.066 303.029 180.312 306.501 180.846C273.797 207.899 266.9 226.635 266.9 254.947Z" fill="url(#paint5_linear)"/>
<path opacity="0.2" d="M243.418 255.202C243.418 283.575 266.9 319.397 306.501 329.274C303.028 329.802 299.517 330.043 296.005 329.993C276.12 329.993 257.05 322.098 242.99 308.044C228.929 293.989 221.03 274.928 221.03 255.052C221.03 235.177 228.929 216.115 242.99 202.061C257.05 188.007 276.12 180.111 296.005 180.111C299.518 180.066 303.029 180.312 306.501 180.846C267.919 187.605 243.418 226.829 243.418 255.202Z" fill="url(#paint6_linear)"/>
<path d="M370.454 245.865C370.454 245.43 370.334 244.98 370.259 244.516C363.613 250.328 356.269 255.293 348.397 259.294C340.838 263.138 332.857 266.091 324.615 268.092C320.298 269.161 315.922 269.977 311.509 270.535C312.173 265.336 312.503 260.099 312.499 254.857C312.499 226.47 302.872 200.555 285.508 180.786H285.643C289.07 180.244 292.535 179.983 296.005 180.006C313.261 179.994 329.994 185.931 343.38 196.818C356.765 207.704 365.983 222.873 369.48 239.764C369.735 240.963 369.945 242.177 370.139 243.406C370.244 244.021 370.319 244.65 370.409 245.28C370.424 245.505 370.439 245.685 370.454 245.865Z" fill="url(#paint7_linear)"/>
<path opacity="0.2" d="M370.394 245.325C370.394 245.505 370.394 245.685 370.394 245.865C370.394 245.43 370.274 244.98 370.199 244.516C363.571 250.324 356.248 255.288 348.397 259.294C340.838 263.139 332.857 266.091 324.615 268.092C325.061 263.725 325.272 259.337 325.245 254.947C325.245 226.59 312.814 201.694 285.658 180.711C287.008 180.531 288.282 180.366 289.542 180.261C291.611 180.006 293.635 180.006 296.005 180.006C298.564 180.007 301.121 180.137 303.667 180.396C317.869 181.843 331.363 187.313 342.562 196.162C353.761 205.012 362.2 216.873 366.886 230.352C367.215 231.326 367.53 232.285 367.815 233.349C367.821 233.399 367.821 233.45 367.815 233.499C368.1 234.474 368.37 235.448 368.61 236.497C368.61 236.497 368.61 236.632 368.61 236.692C368.865 237.726 369.105 238.775 369.315 239.839C369.525 240.903 369.795 242.252 369.974 243.481C370.229 244.066 370.319 244.696 370.394 245.325Z" fill="url(#paint8_linear)"/>
<g opacity="0.2">
<path opacity="0.2" d="M370.394 245.325C370.394 245.505 370.394 245.685 370.394 245.865C370.394 245.43 370.274 244.98 370.199 244.516C363.572 250.324 356.248 255.288 348.397 259.294C348.532 257.795 348.592 256.296 348.592 254.798C348.592 226.47 325.17 190.738 285.658 180.771L285.508 180.741C287.008 180.516 288.237 180.366 289.527 180.261C291.611 180.006 293.636 180.006 296.005 180.006C298.564 180.007 301.121 180.137 303.667 180.396C317.869 181.843 331.363 187.313 342.562 196.162C353.761 205.012 362.2 216.873 366.886 230.352C367.215 231.326 367.53 232.285 367.815 233.349C367.821 233.399 367.821 233.45 367.815 233.499C368.1 234.474 368.37 235.448 368.61 236.497C368.61 236.497 368.61 236.632 368.61 236.692C368.865 237.726 369.105 238.775 369.315 239.839C369.525 240.903 369.795 242.252 369.975 243.481C370.229 244.066 370.319 244.696 370.394 245.325Z" fill="url(#paint9_linear)"/>
</g>
<defs>
<linearGradient id="paint0_linear" x1="296.019" y1="329.949" x2="296.019" y2="244.516" gradientUnits="userSpaceOnUse">
<stop stop-color="#FF7CA0"/>
<stop offset="0.24" stop-color="#F987AC"/>
<stop offset="0.47" stop-color="#F297BC"/>
<stop offset="0.66" stop-color="#F6AAC8"/>
<stop offset="0.99" stop-color="#FFD0E2"/>
</linearGradient>
<linearGradient id="paint1_linear" x1="296.019" y1="329.949" x2="296.019" y2="244.516" gradientUnits="userSpaceOnUse">
<stop stop-color="#7255B7"/>
<stop offset="0.22" stop-color="#7261B9"/>
<stop offset="0.53" stop-color="#727ABC"/>
<stop offset="0.64" stop-color="#8589C8"/>
<stop offset="0.86" stop-color="#B5AEE8"/>
<stop offset="1" stop-color="#D8CAFF"/>
</linearGradient>
<linearGradient id="paint2_linear" x1="296.019" y1="346.316" x2="296.019" y2="256.716" gradientUnits="userSpaceOnUse">
<stop stop-color="#7255B7"/>
<stop offset="0.27" stop-color="#7261B9"/>
<stop offset="0.67" stop-color="#727ABC"/>
<stop offset="0.74" stop-color="#767DBF"/>
<stop offset="0.8" stop-color="#8388C7"/>
<stop offset="0.87" stop-color="#9999D6"/>
<stop offset="0.94" stop-color="#B7B0E9"/>
<stop offset="1" stop-color="#D8CAFF"/>
</linearGradient>
<linearGradient id="paint3_linear" x1="293.155" y1="332.947" x2="295.777" y2="261.168" gradientUnits="userSpaceOnUse">
<stop stop-color="#725FBC"/>
<stop offset="0.52" stop-color="#726BBC"/>
<stop offset="1" stop-color="#727ABC"/>
</linearGradient>
<linearGradient id="paint4_linear" x1="221.045" y1="255.007" x2="306.516" y2="255.007" gradientUnits="userSpaceOnUse">
<stop stop-color="#B080ED"/>
<stop offset="0.18" stop-color="#B08CE8"/>
<stop offset="0.49" stop-color="#B0ABDC"/>
<stop offset="0.51" stop-color="#B0ADDB"/>
<stop offset="0.89" stop-color="#BDC6DB"/>
<stop offset="0.91" stop-color="#BDC6DB"/>
<stop offset="1" stop-color="#BDC6DB"/>
</linearGradient>
<linearGradient id="paint5_linear" x1="216.037" y1="264.195" x2="310.444" y2="253.424" gradientUnits="userSpaceOnUse">
<stop stop-color="#B0A3E0"/>
<stop offset="0.4" stop-color="#B0ADDB"/>
<stop offset="0.76" stop-color="#B0ADDB"/>
<stop offset="1" stop-color="#A4B3FF"/>
</linearGradient>
<linearGradient id="paint6_linear" x1="221.33" y1="269.396" x2="289.615" y2="256.225" gradientUnits="userSpaceOnUse">
<stop offset="0.24" stop-color="#A690E3"/>
<stop offset="0.62" stop-color="#AA9CE0"/>
<stop offset="1" stop-color="#B0ADDB"/>
</linearGradient>
<linearGradient id="paint7_linear" x1="350.556" y1="208.439" x2="302.173" y2="225.824" gradientUnits="userSpaceOnUse">
<stop stop-color="#2E99D8"/>
<stop offset="0.18" stop-color="#3A9DD8"/>
<stop offset="0.5" stop-color="#59A6D8"/>
<stop offset="0.56" stop-color="#60A8D8"/>
<stop offset="1" stop-color="#93DBFF"/>
</linearGradient>
<linearGradient id="paint8_linear" x1="288.552" y1="233.065" x2="365.404" y2="197.951" gradientUnits="userSpaceOnUse">
<stop stop-color="#A4DBFF"/>
<stop offset="0.41" stop-color="#65ACDB"/>
<stop offset="0.44" stop-color="#60A8D8"/>
<stop offset="0.5" stop-color="#59A6D8"/>
<stop offset="0.82" stop-color="#3A9DD8"/>
<stop offset="1" stop-color="#2E7CD8"/>
</linearGradient>
<linearGradient id="paint9_linear" x1="303.637" y1="226.89" x2="372.151" y2="191.492" gradientUnits="userSpaceOnUse">
<stop offset="0.1" stop-color="#60A8D8"/>
<stop offset="0.19" stop-color="#5BA7D8"/>
<stop offset="1" stop-color="#2E7CD8"/>
</linearGradient>
</defs>
</svg>
