<svg width="24" height="24" viewBox="0 0 24 24" fill="none" xmlns="http://www.w3.org/2000/svg">
<path d="M19.7656 18.5265L16.7996 15.6332C17.9286 14.199 18.4656 12.3863 18.3001 10.568C18.1347 8.74969 17.2794 7.06391 15.9101 5.85729C14.5408 4.65067 12.7616 4.01493 10.9384 4.08079C9.11512 4.14664 7.38636 4.9091 6.10759 6.21137C4.82883 7.51364 4.09724 9.25674 4.06326 11.0823C4.02928 12.9078 4.69549 14.6769 5.92492 16.026C7.15434 17.3751 8.85351 18.2014 10.6731 18.3352C12.4926 18.469 14.2942 17.9001 15.7075 16.7454L18.6497 19.6389C18.7241 19.7126 18.8122 19.7709 18.9092 19.8103C19.0061 19.8497 19.1099 19.8695 19.2145 19.8686C19.3192 19.8677 19.4226 19.8461 19.5188 19.805C19.6151 19.7639 19.7022 19.7041 19.7752 19.6291C19.9168 19.4799 19.9949 19.2816 19.9931 19.0759C19.9913 18.8702 19.9098 18.6732 19.7656 18.5265ZM11.2609 16.7842C10.1636 16.7938 9.08804 16.4775 8.17031 15.8753C7.25258 15.2732 6.53388 14.4122 6.10509 13.4013C5.67631 12.3904 5.55669 11.2749 5.76137 10.196C5.96606 9.11705 6.48585 8.12308 7.25501 7.33978C8.02417 6.55648 9.00816 6.01903 10.0826 5.7954C11.1569 5.57176 12.2735 5.67198 13.2909 6.08338C14.3084 6.49479 15.1812 7.1989 15.7988 8.10667C16.4164 9.01445 16.7512 10.0851 16.7607 11.1833C16.7736 12.6559 16.2014 14.0733 15.17 15.1237C14.1385 16.174 12.7324 16.7713 11.2609 16.7842Z" fill="#222222"/>
</svg>
