<svg width="169" height="38" viewBox="0 0 169 38" fill="none" xmlns="http://www.w3.org/2000/svg">
<path d="M28.25 37.2L11.4 20.4C11.2 20.2 11.058 19.9833 10.974 19.75C10.89 19.5167 10.8487 19.2667 10.85 19C10.85 18.7333 10.8913 18.4833 10.974 18.25C11.0567 18.0167 11.1987 17.8 11.4 17.6L28.25 0.750003C28.7167 0.283336 29.3 0.0500031 30 0.0500031C30.7 0.0500031 31.3 0.300003 31.8 0.800003C32.3 1.3 32.55 1.88334 32.55 2.55C32.55 3.21667 32.3 3.8 31.8 4.3L17.1 19L31.8 33.7C32.2667 34.1667 32.5 34.742 32.5 35.426C32.5 36.11 32.25 36.7013 31.75 37.2C31.25 37.7 30.6667 37.95 30 37.95C29.3333 37.95 28.75 37.7 28.25 37.2Z" fill="black"/>
<path d="M153.217 19C153.217 21.9455 155.604 24.3333 158.55 24.3333C161.496 24.3333 163.883 21.9455 163.883 19C163.883 16.0545 161.496 13.6667 158.55 13.6667C155.604 13.6667 153.217 16.0545 153.217 19ZM12.55 20H158.55V18H12.55V20Z" fill="black"/>
</svg>
