<svg width="336" height="336" viewBox="0 0 336 336" fill="none" xmlns="http://www.w3.org/2000/svg">
<path d="M73.2032 137.462C73.2032 143.671 69.647 148.693 63.1047 148.693H58.844V161.564C58.844 163.448 59.6492 164.634 61.5616 164.634H62.4003V165.505H51.2283V164.634H51.8321C53.8787 164.634 54.751 163.448 54.751 161.564V130.311C54.751 128.498 53.9123 127.242 51.8321 127.242H51.2283V126.335H63.4067C69.7476 126.335 73.2032 131.079 73.2032 137.462ZM58.8104 128.044V146.949H62.7693C67.03 146.949 68.8082 142.868 68.8082 137.427C68.8082 131.986 67.0972 128.009 62.87 128.009H58.8104V128.044Z" fill="#DDD194"/>
<path d="M83.302 166.308C79.2424 166.308 77.4644 162.855 77.4644 158.006V144.16H74.8138V143.532C76.9611 142.45 79.0747 140.602 80.7521 138.369H81.2554V157.379C81.2554 160.972 82.0941 163.169 85.1137 163.169C87.1601 163.169 88.4351 162.332 89.9448 160.134V144.125H87.2944V143.497C89.4416 142.415 91.5553 140.567 93.2327 138.335H93.6688V162.228L96.3863 162.786V163.482C94.3397 164.356 92.3604 165.296 90.4144 166.552H89.9784V161.53C88.4351 164.146 86.5227 166.274 83.3355 166.274L83.302 166.308Z" fill="#DDD194"/>
<path d="M105.21 162.437C105.21 163.797 105.78 164.669 107.323 164.669H108.028V165.505H98.7347V164.669H99.3387C100.848 164.669 101.452 163.797 101.452 162.437V144.125H98.8018V143.497C100.949 142.415 103.063 140.567 104.74 138.335H105.243V142.869C106.485 140.462 108.095 138.544 110.108 138.544C111.719 138.544 112.624 139.486 112.624 140.985C112.624 142.485 111.953 143.183 110.913 143.183C109.672 143.183 109.303 142.206 107.994 142.206C107.089 142.206 106.082 142.66 105.243 144.439V162.437H105.21Z" fill="#DDD194"/>
<path d="M123.629 160.448C123.629 157.902 122.723 156.053 119.301 153.507C115.879 150.89 114.873 148.658 114.873 145.763C114.873 141.787 117.59 138.543 121.515 138.543C123.629 138.543 124.937 139.624 125.877 140.566V146.356H125.273L125.206 145.903C124.87 142.659 123.797 140.008 121.18 140.008C119.066 140.008 117.758 141.682 117.758 143.81C117.758 145.938 118.664 147.507 122.119 150.192C125.541 152.913 126.682 155.459 126.682 158.704C126.682 163.656 123.528 166.342 119.637 166.342C117.523 166.342 115.879 165.575 114.671 164.459V158.704H115.141L115.644 160.203C116.382 162.331 117.188 164.843 119.905 164.843C122.254 164.843 123.562 162.96 123.562 160.412L123.629 160.448Z" fill="#DDD194"/>
<path d="M137.853 166.308C133.794 166.308 132.016 162.855 132.016 158.006V144.16H129.365V143.532C131.513 142.45 133.626 140.602 135.304 138.369H135.807V157.379C135.807 160.972 136.646 163.169 139.665 163.169C141.712 163.169 142.987 162.332 144.496 160.134V144.125H141.846V143.497C143.993 142.415 146.107 140.567 147.784 138.335H148.221V162.228L150.937 162.786V163.482C148.891 164.356 146.912 165.296 144.965 166.552H144.53V161.53C142.987 164.146 141.074 166.274 137.887 166.274L137.853 166.308Z" fill="#DDD194"/>
<path d="M163.889 163.169C166.036 163.169 168.149 161.67 169.324 158.426L170.162 158.74C168.653 163.588 166.337 166.379 162.479 166.379C157.313 166.379 153.522 160.727 153.522 152.531C153.522 144.334 157.179 138.579 162.312 138.579C166.036 138.579 169.088 141.613 169.861 147.299L157.682 146.985C157.548 148.031 157.481 149.182 157.481 150.369C157.481 158.355 159.695 163.169 163.855 163.169H163.889ZM157.917 145.764H165.265C165.599 145.764 165.7 145.625 165.7 145.136C165.667 142.206 164.695 140.009 162.278 140.009C160.031 140.009 158.555 142.346 157.917 145.764Z" fill="#DDD194"/>
<path d="M197.875 126.301C202.638 126.301 204.92 129.231 204.92 133.451C204.92 138.369 201.767 143.078 196.869 144.543C200.29 145.31 202.337 148.135 202.337 152.322C202.337 159.542 197.572 165.505 190.628 165.505H179.322L179.456 164.738H180.06C182.207 164.738 183.381 163.553 183.818 161.67L191.165 130.207C191.266 129.789 191.299 129.405 191.299 129.091C191.299 127.835 190.594 127.103 188.951 127.103H188.279L188.414 126.336H197.808L197.875 126.301ZM198.613 152.286C198.613 148.275 197.17 145.799 193.681 145.799H191.065L186.904 163.867H190.628C195.559 163.867 198.613 157.902 198.613 152.252V152.286ZM195.258 127.94L191.434 144.369H193.48C198.345 144.369 201.061 138.16 201.061 133.277C201.061 130.207 200.055 127.94 197.137 127.94H195.225H195.258Z" fill="#DDD194"/>
<path d="M210.019 163.482C211.763 163.482 213.442 160.761 214.951 156.855L215.656 157.204C213.643 162.889 211.193 166.342 208.475 166.342C206.127 166.342 205.322 163.936 205.322 160.483C205.322 151.484 211.093 138.543 216.997 138.543C218.742 138.543 219.615 139.694 219.615 141.578C219.615 146.217 215.084 150.297 209.516 152.251C208.912 154.692 208.542 157.099 208.542 159.192C208.542 161.913 208.946 163.482 210.053 163.482H210.019ZM209.717 151.135C214.582 149.007 216.763 144.438 216.763 141.578C216.763 140.566 216.46 140.078 215.857 140.078C213.911 140.078 211.226 145.414 209.717 151.17V151.135Z" fill="#DDD194"/>
<path d="M227.465 166.343C226.794 166.343 226.659 165.819 226.659 165.087C226.659 164.214 227.028 162.855 227.465 161.424L231.592 148.414C225.753 160.901 221.628 166.343 219.279 166.343C218.44 166.343 217.971 165.575 217.971 164.25C217.971 158.146 225.653 138.543 232.699 138.543C233.437 138.543 234.443 138.892 235.55 139.415L237.396 137.322L238.234 137.427L230.082 162.506C232.229 160.483 234.544 157.867 236.524 155.041L237.127 155.565C233.068 161.564 229.076 166.343 227.432 166.343H227.465ZM221.895 162.366C222.836 162.366 226.827 156.924 233.57 142.31L233.705 141.892C232.867 141.089 231.961 140.427 230.954 140.427C226.626 140.427 221.56 158.251 221.56 161.808C221.56 162.226 221.694 162.366 221.929 162.366H221.895Z" fill="#DDD194"/>
<path d="M257.023 155.078L257.626 155.601C253.667 161.774 250.145 166.379 248.433 166.379C247.73 166.379 247.461 165.821 247.461 164.983C247.461 164.146 247.763 162.786 248.267 161.321L253.298 146.81C247.059 160.414 242.73 166.414 239.878 166.414C238.939 166.414 238.437 165.436 238.437 163.902C238.437 162.89 238.671 161.599 239.14 160.24L244.509 144.823C244.777 143.985 244.911 143.357 244.911 142.939C244.911 142.59 244.777 142.311 244.474 142.311C243.67 142.311 242.26 144.09 240.55 147.473L239.946 147.159C242.059 142.241 244.777 138.579 246.891 138.579C247.998 138.579 248.433 139.346 248.433 140.497C248.433 141.648 248.031 143.218 247.461 144.788L242.227 159.856C241.926 160.694 241.825 161.321 241.825 161.844C241.825 162.263 241.959 162.506 242.26 162.506C243.67 162.506 248.232 155.914 255.781 139.416H258.499L250.95 162.577C253.064 160.483 255.01 157.973 256.99 155.112L257.023 155.078Z" fill="#DDD194"/>
<path d="M268.596 155.112L269.168 155.565C265.209 161.565 261.585 166.343 259.908 166.343C259.237 166.343 259.069 165.821 259.069 165.087C259.069 164.216 259.37 162.855 259.807 161.286L265.744 141.02H261.619L262.189 139.416H266.215L267.456 135.196L270.207 133.172H270.878L269.067 139.451H273.495L272.991 141.055H268.631L262.491 162.472C264.504 160.449 266.718 157.833 268.631 155.147L268.596 155.112Z" fill="#DDD194"/>
<path d="M277.69 168.714C278.36 160.099 278.092 142.275 276.28 142.275C275.542 142.275 274.434 143.635 272.624 147.228L272.087 146.81C273.932 142.415 276.214 138.543 278.059 138.543C281.078 138.543 281.413 155.006 280.574 163.622C283.896 157.204 286.513 149.914 286.513 145.484C286.513 142.868 285.741 142.45 285.741 140.566C285.741 139.31 286.345 138.543 287.419 138.543C288.627 138.543 289.062 139.694 289.062 141.473C289.062 150.297 276.448 179.423 267.759 179.423C266.316 179.423 265.545 178.76 265.545 177.609C265.545 176.562 266.248 175.725 267.154 175.725C268.296 175.725 268.296 176.877 269.772 176.877C271.785 176.877 274.803 173.423 277.723 168.714H277.69Z" fill="#DDD194"/>
<path d="M112.222 213.85C112.222 215.734 113.128 216.919 115.141 216.919H115.812V217.792H104.64V216.919H105.244C107.29 216.919 108.162 215.734 108.162 213.85V182.597C108.162 180.714 107.324 179.529 105.244 179.529H104.64V178.656H115.812V179.529H115.141C113.128 179.529 112.222 180.714 112.222 182.597V213.85Z" fill="white"/>
<path d="M138.088 214.758C138.088 216.118 138.759 216.99 140.135 216.99H140.806V217.828H131.714V216.99H132.251C133.694 216.99 134.364 216.118 134.364 214.758V200.491C134.364 196.516 133.392 194.178 130.238 194.178C128.024 194.178 126.313 195.364 125.071 197.143V214.758C125.071 216.118 125.608 216.99 127.185 216.99H127.688V217.828H118.596V216.99H119.2C120.71 216.99 121.314 216.118 121.314 214.758V196.445H118.663V195.818C120.81 194.736 122.924 192.888 124.602 190.656H125.105V195.609C126.648 193.166 128.829 190.865 132.05 190.865C136.277 190.865 138.122 194.667 138.122 199.969V214.758H138.088Z" fill="white"/>
<path d="M152.817 216.954H153.42C155.468 216.954 156.339 215.768 156.339 213.884V182.632C156.339 180.818 155.501 179.563 153.42 179.563H152.817V178.691H163.787C169.054 178.691 171.873 182.702 171.873 187.899C171.873 191.492 170.364 195.538 166.102 196.793C171.739 197.63 173.986 201.921 173.986 207.083C173.986 213.362 170.665 217.895 164.189 217.895H152.817V217.024V216.954ZM160.398 180.365V196.55H162.512C166.169 196.55 167.678 192.782 167.678 188.038C167.678 183.749 166.337 180.365 163.016 180.365H160.398ZM160.398 198.293V216.117H164.156C168.014 216.117 169.626 212.21 169.626 207.188C169.626 202.165 167.678 198.293 163.787 198.293H160.365H160.398Z" fill="white"/>
<path d="M177.342 204.78C177.342 196.828 181.368 190.863 186.836 190.863C192.305 190.863 196.33 196.828 196.33 204.78C196.33 212.733 192.271 218.698 186.836 218.698C181.401 218.698 177.342 212.733 177.342 204.78ZM181.401 204.78C181.401 211.617 182.945 217.233 186.836 217.233C190.727 217.233 192.205 211.652 192.205 204.78C192.205 197.91 190.661 192.328 186.836 192.328C183.012 192.328 181.401 197.91 181.401 204.78Z" fill="white"/>
<path d="M210.32 191.701L209.986 193.689H205.322V212.35C205.322 214.687 205.959 215.698 207.536 215.698C208.744 215.698 209.482 215.07 210.355 213.989L210.89 214.442C209.65 216.884 207.973 218.349 205.556 218.349C203.007 218.349 201.597 216.57 201.597 212.804V193.689H199.282V193.235C201.531 191.457 203.409 189.258 204.818 186.434H205.322V191.701H210.355H210.32Z" fill="white"/>
<path d="M220.888 216.99H221.392V217.826H212.333V216.99H212.938C214.379 216.99 215.051 216.118 215.051 214.758V183.54H212.333V182.842C214.648 181.795 216.594 179.982 218.305 177.575H218.742V195.607C220.351 193.166 222.499 190.865 225.72 190.865C229.947 190.865 231.793 194.667 231.793 199.967V214.758C231.793 216.118 232.396 216.99 233.839 216.99H234.476V217.826H225.384V216.99H225.887C227.397 216.99 228 216.118 228 214.758V200.491C228 196.514 227.096 194.178 223.875 194.178C221.659 194.178 220.017 195.363 218.707 197.143V214.758C218.707 216.118 219.244 216.99 220.821 216.99H220.888Z" fill="white"/>
<path d="M54.382 241.683C54.382 235.58 58.6093 230.138 63.7759 230.138C66.6948 230.138 68.5399 231.708 69.6136 233.696L67.7012 241.859H66.8961C67.2986 239.94 67.4999 238.684 67.4999 237.463C67.4999 233.906 66.5606 231.603 63.4739 231.603C59.9177 231.603 57.435 234.987 57.435 239.696C57.435 247.23 65.7218 249.567 65.7218 258.497C65.7218 265.96 60.6559 270.983 55.6233 270.983C51.698 270.983 49.4503 269.273 48.1417 267.425L50.4567 258.497H51.2619C50.8257 260.554 50.6244 261.983 50.6244 263.239C50.6244 267.007 51.9329 269.518 55.8582 269.518C60.0183 269.518 62.6352 265.438 62.6352 260.485C62.6352 252.323 54.382 250.3 54.382 241.683Z" fill="#C7EBFF"/>
<path d="M73.7742 268.123C75.5189 268.123 77.1963 265.404 78.7061 261.496L79.4106 261.845C77.3976 267.532 74.9485 270.984 72.2309 270.984C69.8825 270.984 69.0773 268.577 69.0773 265.124C69.0773 256.125 74.8479 243.185 80.7526 243.185C82.4972 243.185 83.3695 244.335 83.3695 246.218C83.3695 250.858 78.8402 254.939 73.271 256.892C72.6672 259.335 72.2981 261.741 72.2981 263.834C72.2981 266.554 72.7006 268.123 73.8078 268.123H73.7742ZM73.4723 255.776C78.3369 253.648 80.5178 249.079 80.5178 246.218C80.5178 245.207 80.2158 244.72 79.6119 244.72C77.6659 244.72 74.9821 250.055 73.4723 255.811V255.776Z" fill="#C7EBFF"/>
<path d="M89.6766 247.476C89.6766 247.092 89.576 246.882 89.2741 246.882C88.3682 246.882 87.2276 248.348 85.3152 252.045L84.6778 251.731C86.7915 246.812 89.3412 243.15 91.4548 243.15C92.5619 243.15 93.0652 243.812 93.0652 245.138C93.0652 246.185 92.7632 247.545 92.1593 249.324L88.7373 259.788C94.0046 247.754 98.2319 243.185 101.05 243.185C102.258 243.185 102.795 244.057 102.795 245.591C102.795 246.638 102.426 248.068 101.956 249.673L95.9169 267.183C97.9299 265.159 100.077 262.474 101.956 259.717L102.56 260.242C98.6345 266.136 94.9105 271.02 93.3672 271.02C92.7298 271.02 92.4613 270.462 92.4613 269.659C92.4613 268.787 92.7968 267.356 93.3001 265.962L98.8358 250.091C99.0706 249.359 99.2719 248.417 99.2719 247.963C99.2719 247.37 99.1378 247.161 98.6009 247.161C96.6551 247.161 91.8239 252.952 85.3152 270.217H82.5977L89.2406 249.359C89.5089 248.626 89.6432 247.999 89.6432 247.545L89.6766 247.476Z" fill="#C7EBFF"/>
<path d="M110.377 248.521C110.377 253.579 111.92 256.614 111.92 261.322C111.92 267.287 107.995 270.984 103.868 270.984C102.559 270.984 101.452 270.426 101.452 268.997C101.452 268.019 102.123 267.287 103.13 267.287C104.774 267.287 104.539 269.206 106.25 269.206C107.961 269.206 109.102 266.869 109.102 264.252C109.102 258.672 107.659 255.951 107.659 251.696C107.659 246.218 111.383 243.185 114.637 243.185C115.946 243.185 116.885 243.812 116.885 245.173C116.885 246.009 116.382 246.778 115.376 246.778C113.933 246.778 114.268 244.755 112.624 244.755C111.316 244.755 110.377 246.743 110.377 248.521Z" fill="#C7EBFF"/>
<path d="M134.968 259.717L135.572 260.242C131.614 266.415 128.091 271.02 126.38 271.02C125.675 271.02 125.407 270.462 125.407 269.624C125.407 268.786 125.709 267.427 126.212 265.962L131.244 251.416C125.004 265.02 120.676 271.02 117.825 271.02C116.885 271.02 116.382 270.042 116.382 268.508C116.382 267.496 116.65 266.205 117.087 264.846L122.454 249.428C122.723 248.59 122.857 247.963 122.857 247.545C122.857 247.196 122.723 246.916 122.421 246.916C121.616 246.916 120.207 248.695 118.496 252.079L117.892 251.765C120.005 246.847 122.723 243.185 124.836 243.185C125.944 243.185 126.38 243.952 126.38 245.102C126.38 246.254 125.977 247.823 125.407 249.393L120.173 264.462C119.871 265.298 119.771 265.927 119.771 266.449C119.771 266.869 119.905 267.112 120.207 267.112C121.616 267.112 126.178 260.52 133.727 244.022H136.445L128.896 267.183C131.01 265.089 132.956 262.578 134.935 259.717H134.968Z" fill="#C7EBFF"/>
<path d="M145.168 270.984C144.496 270.984 144.362 270.462 144.362 269.728C144.362 268.857 144.731 267.496 145.168 266.066L149.293 253.056C143.456 265.542 139.33 270.984 136.981 270.984C136.142 270.984 135.673 270.217 135.673 268.892C135.673 262.787 143.356 243.185 150.402 243.185C151.14 243.185 152.146 243.533 153.253 244.057L155.098 241.963L155.937 242.068L147.784 267.147C149.931 265.124 152.247 262.508 154.225 259.684L154.83 260.206C150.771 266.205 146.777 270.984 145.133 270.984H145.168ZM139.598 267.007C140.537 267.007 144.53 261.567 151.273 246.952L151.407 246.533C150.568 245.731 149.664 245.068 148.657 245.068C144.328 245.068 139.262 262.892 139.262 266.449C139.262 266.869 139.397 267.007 139.632 267.007H139.598Z" fill="#C7EBFF"/>
<path d="M158.486 267.218C160.533 265.124 162.747 262.509 164.726 259.753L165.263 260.206C161.304 266.206 157.715 270.984 155.97 270.984C155.332 270.984 155.064 270.426 155.064 269.624C155.064 268.752 155.366 267.427 155.769 265.927L163.955 235.86H161.337L161.54 235.162C163.988 234.151 166.169 232.337 168.115 229.895H168.551L158.453 267.218H158.486Z" fill="#C7EBFF"/>
<path d="M172.612 249.288C172.846 248.521 173.014 247.823 173.014 247.476C173.014 247.056 172.914 246.847 172.612 246.847C171.706 246.847 170.699 248.312 168.754 252.114L168.049 251.765C170.195 246.847 172.713 243.185 174.892 243.185C175.933 243.185 176.403 243.952 176.403 245.173C176.403 246.254 175.933 248.103 175.329 249.917L169.592 267.078C171.639 265.055 173.92 262.474 175.833 259.718L176.436 260.242C172.477 266.206 168.754 271.02 167.075 271.02C166.405 271.02 166.171 270.496 166.171 269.728C166.171 268.788 166.573 267.392 167.075 265.927L172.612 249.359V249.288ZM175.161 235.371C175.161 234.081 176.067 233.139 177.309 233.139C178.55 233.139 179.456 234.081 179.456 235.371C179.456 236.663 178.483 237.57 177.309 237.57C176.134 237.57 175.161 236.732 175.161 235.371Z" fill="#C7EBFF"/>
<path d="M187.238 259.753L187.775 260.206C183.816 266.205 180.194 270.984 178.515 270.984C177.845 270.984 177.677 270.46 177.677 269.728C177.677 268.857 177.979 267.496 178.415 265.927L184.353 245.66H180.227L180.764 244.055H184.79L186.031 239.836L188.782 237.812H189.452L187.642 244.091H192.07L191.566 245.696H187.205L181.065 267.112C183.078 265.089 185.293 262.472 187.205 259.787L187.238 259.753Z" fill="#C7EBFF"/>
<path d="M196.332 273.356C197.002 264.74 196.734 246.916 194.922 246.916C194.184 246.916 193.076 248.277 191.264 251.87L190.729 251.451C192.574 247.056 194.856 243.185 196.701 243.185C199.719 243.185 200.055 259.648 199.216 268.263C202.538 261.845 205.155 254.555 205.155 250.126C205.155 247.51 204.383 247.092 204.383 245.208C204.383 243.952 204.987 243.185 206.06 243.185C207.269 243.185 207.704 244.335 207.704 246.114C207.704 254.939 195.09 284.064 186.401 284.064C184.958 284.064 184.185 283.401 184.185 282.25C184.185 281.204 184.89 280.366 185.796 280.366C186.937 280.366 186.937 281.518 188.413 281.518C190.426 281.518 193.446 278.065 196.365 273.356H196.332Z" fill="#C7EBFF"/>
<path d="M239.811 264.497C240.817 267.88 241.924 269.241 243.736 269.241H244.038V270.112H233.035V269.241H233.974C236.188 269.241 236.321 267.252 235.517 264.532L233.168 256.44H222.567L220.15 264.706C219.447 267.147 219.48 269.241 221.661 269.241H222.5V270.112H214.313V269.241H214.615C216.46 269.241 217.567 267.985 218.574 264.601L228.74 229.895H229.545L239.811 264.497ZM232.666 254.766L227.834 238.301L223.002 254.766H232.666Z" fill="white"/>
<path d="M263.932 267.076C263.932 268.437 264.604 269.309 265.98 269.309H266.65V270.146H257.558V269.309H258.095C259.538 269.309 260.209 268.437 260.209 267.076V252.81C260.209 248.835 259.235 246.498 256.082 246.498C253.868 246.498 252.156 247.683 250.916 249.462V267.076C250.916 268.437 251.486 269.309 253.029 269.309H253.532V270.146H244.44V269.309H245.044C246.554 269.309 247.158 268.437 247.158 267.076V248.764H244.507V248.137C246.654 247.056 248.768 245.207 250.446 242.975H250.949V247.928C252.492 245.487 254.674 243.184 257.894 243.184C262.122 243.184 263.967 246.986 263.967 252.288V267.076H263.932Z" fill="white"/>
<path d="M277.052 270.983C271.683 270.983 269.1 265.438 269.1 258.426C269.1 250.265 272.958 243.148 278.963 243.148C280.574 243.148 281.917 243.497 283.293 244.335V235.825H280.642V235.127C282.889 234.08 284.902 232.266 286.614 229.86H287.049V266.798L289.699 267.356V268.053C287.653 268.926 285.673 269.867 283.762 271.123H283.258V266.937C281.648 269.24 279.434 270.914 277.018 270.914L277.052 270.983ZM283.293 251.381C283.293 246.741 281.48 244.58 278.662 244.58C274.904 244.58 272.925 249.288 272.925 255.811C272.925 263.17 274.67 267.879 278.897 267.879C280.541 267.879 281.849 267.286 283.258 265.647V251.381H283.293Z" fill="white"/>
<path d="M79.2425 319.642C79.2425 320.967 79.9471 321.7 81.6246 321.7H82.2621L82.0608 322.467H71.2578L71.3919 321.7H71.9959C74.1095 321.7 75.3172 320.513 75.7535 318.63L83.1008 287.168C83.2015 286.749 83.2351 286.365 83.2351 286.052C83.2351 284.796 82.5305 284.064 80.8865 284.064H80.2155L80.3498 283.297H90.9514C96.5207 283.297 98.7014 286.785 98.7014 291.249C98.7014 298.783 93.7697 305.411 86.4894 305.411H84.1408L84.3421 304.364L86.2881 304.259C91.5218 303.91 94.9438 297.876 94.9438 291.354C94.9438 287.343 93.5012 284.935 90.2134 284.935H87.1604L79.3098 318.665C79.2091 319.084 79.2091 319.433 79.2091 319.711L79.2425 319.642Z" fill="#C7EBFF"/>
<path d="M100.882 320.445C102.627 320.445 104.304 317.724 105.814 313.818L106.519 314.166C104.506 319.852 102.057 323.305 99.3391 323.305C96.9907 323.305 96.1854 320.897 96.1854 317.445C96.1854 308.445 101.956 295.506 107.861 295.506C109.605 295.506 110.478 296.656 110.478 298.54C110.478 303.179 105.948 307.26 100.379 309.214C99.7753 311.655 99.4063 314.061 99.4063 316.155C99.4063 318.874 99.8088 320.445 100.916 320.445H100.882ZM100.58 308.098C105.445 305.969 107.626 301.4 107.626 298.54C107.626 297.529 107.324 297.04 106.72 297.04C104.774 297.04 102.09 302.376 100.58 308.132V308.098Z" fill="#C7EBFF"/>
<path d="M116.617 300.005C116.617 299.552 116.483 299.343 116.114 299.343C115.309 299.343 114.101 300.842 112.289 304.399L111.618 304.086C113.765 299.168 116.349 295.506 118.395 295.506C119.502 295.506 119.905 296.133 119.905 297.494C119.905 298.436 119.603 299.901 118.999 301.68L116.751 308.69C122.086 295.993 124.501 295.506 125.709 295.506C126.715 295.506 127.453 296.029 127.453 297.494C127.453 298.679 126.749 299.377 125.944 299.377C125.004 299.377 124.904 298.75 124.031 298.75C122.119 298.75 118.764 304.505 112.222 322.467H109.605L116.181 301.889C116.382 301.191 116.583 300.459 116.583 300.005H116.617Z" fill="#C7EBFF"/>
<path d="M113.833 333.699C113.833 332.932 114.37 332.129 115.342 332.129C117.02 332.129 116.584 334.675 118.664 334.675C120.878 334.675 122.623 332.163 124.703 324.177L131.48 297.946H127.856L128.058 297.423L131.882 296.481C134.533 286.227 138.626 282.739 142.383 282.739C144.397 282.739 145.705 283.715 145.705 284.971C145.705 285.842 145.168 286.471 144.196 286.471C142.685 286.471 143.054 284.273 141.041 284.273C139.029 284.273 137.686 286.051 135.573 294.11L135.036 296.307H140.102L139.532 297.912H134.566L128.729 320.13C125.575 332.198 121.583 336 117.322 336C115.074 336 113.866 334.955 113.866 333.663L113.833 333.699Z" fill="#C7EBFF"/>
<path d="M152.481 302.62C152.481 310.713 147.247 323.305 141.51 323.305C138.692 323.305 137.451 320.759 137.451 316.189C137.451 308.098 142.617 295.506 148.422 295.506C151.24 295.506 152.481 298.052 152.481 302.62ZM140 318.874C140 320.933 140.437 321.944 141.611 321.944C144.932 321.944 149.898 307.4 149.898 299.935C149.898 297.878 149.461 296.866 148.287 296.866C144.965 296.866 140 311.411 140 318.874Z" fill="#C7EBFF"/>
<path d="M160.332 300.005C160.332 299.552 160.197 299.343 159.828 299.343C159.023 299.343 157.815 300.842 156.004 304.399L155.332 304.086C157.481 299.168 160.064 295.506 162.11 295.506C163.217 295.506 163.619 296.133 163.619 297.494C163.619 298.436 163.317 299.901 162.714 301.68L160.466 308.69C165.8 295.993 168.215 295.506 169.424 295.506C170.429 295.506 171.169 296.029 171.169 297.494C171.169 298.679 170.464 299.377 169.658 299.377C168.719 299.377 168.619 298.75 167.746 298.75C165.833 298.75 162.479 304.505 155.937 322.467H153.319L159.896 301.889C160.097 301.191 160.298 300.459 160.298 300.005H160.332Z" fill="#C7EBFF"/>
<path d="M175.866 299.829C175.866 299.481 175.764 299.306 175.497 299.306C174.556 299.306 173.248 300.98 171.27 304.364L170.598 304.05C173.115 299.028 175.764 295.469 177.98 295.469C178.985 295.469 179.421 296.098 179.421 297.178C179.421 298.259 179.019 299.795 178.214 301.818L175.093 309.561C180.428 299.481 184.387 295.469 186.904 295.469C188.044 295.469 188.546 296.202 188.546 297.388C188.546 298.574 188.111 300.213 187.306 302.096L184.052 309.98C189.487 299.586 193.614 295.469 196.129 295.469C197.269 295.469 197.773 296.202 197.773 297.458C197.773 298.608 197.337 300.213 196.531 302.096L189.386 319.432C191.5 317.409 193.915 314.688 195.928 311.967L196.498 312.492C192.137 318.455 188.111 323.27 186.535 323.27C185.963 323.27 185.729 322.85 185.729 322.187C185.729 321.246 186.232 319.781 186.869 318.212L193.411 302.41C193.815 301.434 194.083 300.597 194.083 300.004C194.083 299.586 193.983 299.375 193.546 299.375C191.801 299.375 186.467 305.445 178.919 322.432H175.966L184.253 302.41C184.655 301.365 184.924 300.597 184.924 300.073C184.924 299.62 184.723 299.375 184.319 299.375C182.642 299.375 177.845 304.853 170.833 320.164L169.927 322.396H167.276L175.429 301.504C175.731 300.771 175.866 300.144 175.866 299.76V299.829Z" fill="#C7EBFF"/>
<path d="M206.529 323.303C205.859 323.303 205.724 322.781 205.724 322.047C205.724 321.176 206.093 319.815 206.529 318.386L210.656 305.375C204.818 317.863 200.691 323.303 198.343 323.303C197.505 323.303 197.035 322.536 197.035 321.211C197.035 315.106 204.717 295.504 211.763 295.504C212.501 295.504 213.508 295.853 214.615 296.376L216.46 294.284L217.299 294.388L209.146 319.466C211.294 317.443 213.608 314.828 215.589 312.003L216.192 312.525C212.132 318.525 208.139 323.303 206.496 323.303H206.529ZM200.96 319.328C201.9 319.328 205.892 313.886 212.635 299.271L212.77 298.853C211.931 298.05 211.025 297.388 210.019 297.388C205.691 297.388 200.625 315.211 200.625 318.768C200.625 319.188 200.759 319.328 200.994 319.328H200.96Z" fill="#C7EBFF"/>
<path d="M223.875 299.795C223.875 299.411 223.775 299.202 223.473 299.202C222.567 299.202 221.427 300.667 219.514 304.364L218.877 304.05C220.99 299.132 223.541 295.469 225.654 295.469C226.761 295.469 227.264 296.132 227.264 297.458C227.264 298.504 226.962 299.864 226.358 301.643L222.936 312.107C228.203 300.073 232.43 295.504 235.249 295.504C236.456 295.504 236.993 296.376 236.993 297.912C236.993 298.957 236.624 300.387 236.155 301.992L230.116 319.502C232.129 317.479 234.277 314.793 236.155 312.038L236.759 312.561C232.834 318.455 229.109 323.339 227.567 323.339C226.929 323.339 226.661 322.781 226.661 321.978C226.661 321.107 226.995 319.677 227.499 318.281L233.035 302.41C233.27 301.678 233.471 300.736 233.471 300.282C233.471 299.69 233.336 299.481 232.799 299.481C230.854 299.481 226.023 305.271 219.514 322.536H216.796L223.44 301.678C223.709 300.945 223.842 300.318 223.842 299.864L223.875 299.795Z" fill="#C7EBFF"/>
<path d="M241.657 323.305C239.241 323.305 238.437 320.968 238.437 317.305C238.437 309.109 243.703 295.506 251.118 295.506C252.762 295.506 253.667 296.273 253.667 297.529C253.667 298.54 252.929 299.343 252.125 299.343C250.682 299.343 251.219 297.145 249.474 297.145C246.219 297.145 241.69 307.958 241.69 316.12C241.69 318.841 242.127 320.515 243.301 320.515C244.945 320.515 246.656 317.689 248.535 313.818L249.239 314.201C246.924 319.957 244.374 323.305 241.69 323.305H241.657Z" fill="#C7EBFF"/>
<path d="M257.191 320.445C258.935 320.445 260.612 317.724 262.122 313.818L262.827 314.166C260.813 319.852 258.365 323.305 255.647 323.305C253.298 323.305 252.494 320.897 252.494 317.445C252.494 308.445 258.265 295.506 264.169 295.506C265.914 295.506 266.785 296.656 266.785 298.54C266.785 303.179 262.257 307.26 256.687 309.214C256.084 311.655 255.715 314.061 255.715 316.155C255.715 318.874 256.117 320.445 257.224 320.445H257.191ZM256.889 308.098C261.753 305.969 263.934 301.4 263.934 298.54C263.934 297.529 263.632 297.04 263.028 297.04C261.082 297.04 258.398 302.376 256.889 308.132V308.098Z" fill="#C7EBFF"/>
<path d="M38.4815 4.9527C38.5151 5.12709 38.5485 5.33638 38.5485 5.51077C38.5485 7.46407 36.0324 8.61512 34.3213 7.81287C33.4491 7.39431 32.7445 6.59206 31.9392 6.03398C29.7921 4.56902 26.7391 4.18533 24.4912 5.51077C19.5595 8.37095 18.0162 15.3121 17.1775 20.7186C17.0768 21.3465 16.1709 31.0432 16.4729 31.0432H27.9133V32.7522H16.4058V85.7004H8.99132V32.7522H0V31.0432C3.01948 31.0432 6.03894 31.0432 9.05842 31.0432C9.12552 31.0432 9.52811 27.5899 9.93071 25.6366C11.3062 18.7653 14.4263 13.01 19.2239 8.09192C22.5119 4.74341 28.0811 2.19716 32.8787 2.23204C33.9188 2.23204 35.9652 2.40644 36.8711 2.92964C37.6428 3.3482 38.2802 4.11556 38.4815 4.98758V4.9527Z" fill="white"/>
<path d="M41.7694 31.8107H34.355V85.6309H41.7694V31.8107Z" fill="white"/>
<path d="M174.826 0H167.413V85.6659H174.826V0Z" fill="white"/>
<path d="M229.682 31.5317H222.267V85.6658H229.682V31.5317Z" fill="white"/>
<path d="M300.437 31.5317H293.022V85.6658H300.437V31.5317Z" fill="white"/>
<path d="M63.6773 34.9151C63.778 36.0314 63.107 37.1824 62.067 37.5312C60.6914 38.0196 58.9804 37.4614 57.8733 36.5894C57.1687 36.0314 55.9944 35.1593 54.317 35.1593C49.7543 35.1593 47.0703 39.4496 45.0237 43.0771C43.1114 46.4606 42.2727 50.4368 41.8365 54.2738C41.7024 55.4945 41.5681 56.7502 41.5681 58.0059V46.1118C41.5681 46.1118 43.2791 39.8682 49.855 35.0547C52.4717 33.1363 55.8603 31.8458 59.081 31.9154C60.7921 31.9154 63.0064 32.5781 63.5432 34.4967C63.5767 34.6361 63.6103 34.7757 63.6103 34.95L63.6773 34.9151Z" fill="white"/>
<path d="M120.98 61.2152C120.98 61.2152 115.545 81.655 93.7717 80.6086C71.9979 79.5622 69.6159 58.5643 70.9914 52.5299H107.628C107.628 52.5299 112.325 52.3207 112.627 47.6816C112.928 43.0077 109.07 28.8115 90.987 30.6601C72.9038 32.5087 66.3951 48.4839 65.3215 57.2388C64.3149 65.3659 67.6029 87.1661 91.8928 86.5034C113.465 85.9103 122.054 61.2501 122.054 61.2501H120.98V61.2152ZM71.6624 46.8096C74.2458 38.9965 80.4859 33.9738 88.1017 32.8575C102.025 30.8344 104.407 43.9844 104.407 47.6468C104.407 51.3441 101.823 51.3441 101.823 51.3441H71.2598C70.8908 51.3441 71.5618 47.0538 71.6288 46.8096H71.6624Z" fill="white"/>
<path d="M154.06 37.3565C154.06 37.9145 153.925 38.4377 153.624 38.8563C152.751 40.077 150.369 39.9725 149.262 38.961C148.054 37.8796 147.619 36.0659 146.645 34.7753C144.296 31.636 140.539 31.2872 137.017 31.2525C133.863 31.2176 130.609 32.0546 127.858 33.7987C127.79 33.8336 127.69 33.9032 127.623 33.9381C124.268 36.2402 123.026 39.8678 124.402 43.8442C127.388 52.6688 146.477 54.4477 153.322 60.3425C160.166 66.2721 159.26 76.7013 152.316 82.317C144.934 88.2467 132.051 87.7234 123.697 84.4796C121.718 83.7123 118.967 82.0729 119.738 79.422C120.409 77.1199 123.093 76.5967 124.838 78.0267C125.744 78.7593 126.348 80.4335 127.153 81.9333C127.757 83.0845 129.535 84.4447 130.541 84.8982C134.064 86.4329 139.164 85.805 142.787 85.1074C145.94 84.5145 149.497 83.2937 151.443 80.5033C152.818 78.5849 153.255 76.1432 152.986 73.7713C152.718 71.3647 151.443 69.2369 149.733 67.6324C145.975 64.1444 140.975 62.4353 136.178 61.1447C129.535 59.3659 120.208 54.9709 119.336 46.809C118.732 41.1235 122.926 35.6124 127.488 32.9615C132.957 29.7874 140.741 29.6827 146.645 31.2872C148.692 31.8454 150.738 32.6476 152.349 34.0777C153.019 34.6707 153.589 35.3683 153.892 36.2053C154.026 36.5542 154.06 36.903 154.093 37.2867L154.06 37.3565Z" fill="white"/>
<path d="M209.987 46.0423C209.114 40.6706 206.799 35.6829 202.07 33.0319C197.775 30.6251 192.541 30.3461 187.945 31.7065C184.053 32.8574 180.632 35.2642 177.813 38.2291C176.47 39.6591 175.33 40.9497 174.457 42.7286C174.391 42.8682 174.324 42.9727 174.291 43.1123C173.452 45.0307 173.217 47.2281 172.378 49.0768C174.324 44.7866 176.605 40.5312 180.027 37.4268C182.51 35.1596 185.697 33.5202 189.019 33.2063C195.124 32.6831 200.157 36.7989 202.137 42.6937C203.177 45.7633 202.976 51.9022 202.976 51.9022V85.6662H210.389V51.9022C210.389 51.9022 210.323 47.9607 210.02 46.0423H209.987Z" fill="white"/>
<path d="M335.597 46.0423C334.725 40.6706 332.41 35.6829 327.679 33.0319C323.386 30.6251 318.152 30.3461 313.556 31.7065C309.663 32.8574 306.241 35.2642 303.422 38.2291C302.081 39.6591 300.94 40.9497 300.068 42.7286C300.001 42.8682 299.935 42.9727 299.9 43.1123C299.062 45.0307 298.826 47.2281 297.988 49.0768C299.935 44.7866 302.215 40.5312 305.638 37.4268C308.121 35.1596 311.307 33.5202 314.628 33.2063C320.735 32.6831 325.768 36.7989 327.747 42.6937C328.786 45.7633 328.585 51.9022 328.585 51.9022V85.6662H336V51.9022C336 51.9022 335.933 47.9607 335.631 46.0423H335.597Z" fill="white"/>
<path d="M245.987 40.531C246.456 41.1937 247.194 41.6471 247.998 41.682C249.072 41.7518 250.112 41.0891 250.649 40.1473C251.387 38.8218 251.153 37.1825 251.655 35.7525C252.159 34.2874 253.4 33.1713 254.776 32.5433C258.935 30.5553 264.807 30.5204 268.464 33.6596C269.001 34.1131 269.471 34.6362 269.907 35.2292C271.416 37.322 272.121 40.2171 271.953 42.7982C271.752 45.8676 269.975 47.8558 267.659 49.5999C264.27 52.1112 260.513 54.0994 256.688 55.8086C256.688 55.8086 235.82 64.2147 237.901 76.9111C239.98 89.6074 256.822 86.9566 262.392 81.6548C267.961 76.318 271.82 70.4234 271.82 70.4234V80.2944C271.82 80.2944 271.886 86.817 277.187 86.2939C282.488 85.7706 285.406 81.306 285.406 81.306L284.769 80.8525C284.769 80.8525 282.757 84.9335 280.039 81.8989C280.039 81.8989 279.032 80.5038 279.1 78.097V68.3654C279.1 68.3654 279.368 65.4704 276.886 65.1564C274.403 64.8425 272.591 66.2029 271.182 69.1676C269.807 72.1324 263.835 80.8874 257.459 81.9338C251.085 82.9802 245.315 79.1085 244.812 73.4579C244.308 67.8074 246.758 62.8543 251.454 60.1685C255.481 57.8315 259.708 55.9131 263.901 53.8902C267.995 51.9369 272.624 50.0185 276.148 47.0187C278.596 44.9259 280.172 41.4728 278.899 38.2289C276.919 33.2759 271.316 31.2528 266.586 30.6598C263.13 30.2065 259.573 30.3808 256.186 31.218C252.763 32.09 248.804 33.52 246.59 36.5546C245.885 37.4964 245.382 38.752 245.718 39.8683C245.784 40.1473 245.919 40.3914 246.087 40.6357L245.987 40.531Z" fill="white"/>
<path d="M231.962 16.3585C230.654 14.9981 228.407 15.4167 227.669 17.1608C226.326 20.3698 223.81 24.4158 219.483 24.5554V25.4274C219.918 25.3576 220.287 25.3227 220.756 25.253C226.158 24.2764 229.715 22.1137 231.728 20.4743C233.003 19.4628 233.104 17.5095 231.962 16.3585Z" fill="white"/>
</svg>
