<?xml version="1.0" encoding="utf-8"?>
<!-- Generator: Adobe Illustrator 16.0.0, SVG Export Plug-In . SVG Version: 6.00 Build 0)  -->
<!DOCTYPE svg PUBLIC "-//W3C//DTD SVG 1.1//EN" "http://www.w3.org/Graphics/SVG/1.1/DTD/svg11.dtd">
<svg version="1.1" xmlns="http://www.w3.org/2000/svg" xmlns:xlink="http://www.w3.org/1999/xlink" x="0px" y="0px" width="800px"
	 height="600px" viewBox="0 0 800 600" enable-background="new 0 0 800 600" xml:space="preserve">
<g id="Layer_2">
	<radialGradient id="SVGID_1_" cx="400" cy="300" r="353.5534" gradientUnits="userSpaceOnUse">
		<stop  offset="0" style="stop-color:#1E9CD7"/>
		<stop  offset="0.9944" style="stop-color:#005B97"/>
	</radialGradient>
	<rect fill="url(#SVGID_1_)" width="800" height="600"/>
</g>
<g id="Layer_3">
	<path opacity="0.4" fill="#A3A7AA" d="M380,578c-11,0-21,1-32-1c-29-5-55-16-81-31c-40-24-69-57-92-97c-28-51-33-109-20-164
		c14-39,33-76,69-102c26-19,54-29,85-32c31-2,62,5,89,24c31,23,49,58,43,96c-2,13-8,24-16,34c-13,16-36,23-55,15c-10-4-16-13-24-20
		c-11-9-25-3-33,7c-23,31-9,71,18,94c51,45,127,35,177-7c55-46,76-116,61-187c-12-60-43-107-92-144c-39-29-82-45-129-50
		c11,0,21-1,32,1c29,5,55,16,81,31c40,24,69,57,92,97c28,51,33,109,20,164c-14,39-33,76-69,102c-26,19-54,29-85,32c-31,2-62-5-89-24
		c-31-23-49-58-43-96c2-13,8-24,16-34c13-16,36-23,55-15c10,4,16,13,24,20c11,9,25,3,33-7c23-31,9-71-18-94c-51-45-127-35-177,7
		c-55,46-76,116-61,187c12,60,43,107,92,144C290,557,333,573,380,578L380,578z"/>
	<path opacity="0.4" fill="#A3A7AA" d="M100.178,227.863c2.692-10.666,4.17-20.606,8.802-30.782
		c11.946-26.894,28.976-49.411,49.884-70.948c33.061-32.909,72.155-52.949,116.568-65.458
		c56.303-14.665,113.762-5.315,163.907,20.752c34.386,23.121,65.609,50.599,82.007,91.868c12.058,29.86,14.899,59.456,10.221,90.248
		c-5.649,30.546-20.024,58.89-45.056,80.418c-29.889,24.427-68.229,33.312-103.605,18.192
		c-12.115-5.121-21.312-13.631-29.049-23.835c-12.331-16.521-13.488-40.535-1.081-56.999c6.326-8.717,16.521-12.331,25.266-18.374
		c11.419-8.462,9.028-23.505,1.291-33.71c-24.427-29.888-66.637-26.105-95.546-5.557c-56.115,38.434-65.022,114.569-36.539,173.329
		c31.138,64.587,93.868,102.082,166.379,104.918c61.112,3.052,114.271-15.501,162.14-53.953
		c37.664-30.715,63.702-68.49,80.055-112.837c-2.692,10.665-4.171,20.605-8.803,30.782c-11.946,26.894-28.976,49.41-49.884,70.947
		c-33.061,32.908-72.155,52.948-116.568,65.458c-56.303,14.664-113.762,5.315-163.907-20.752
		c-34.387-23.121-65.61-50.6-82.007-91.869c-12.058-29.859-14.9-59.455-10.22-90.247c5.649-30.546,20.024-58.89,45.055-80.417
		c29.889-24.427,68.229-33.313,103.605-18.193c12.115,5.122,21.312,13.631,29.049,23.836c12.331,16.521,13.488,40.535,1.081,56.999
		c-6.326,8.717-16.521,12.331-25.267,18.374c-11.419,8.463-9.028,23.505-1.291,33.71c24.427,29.889,66.637,26.105,95.546,5.557
		c56.115-38.434,65.022-114.569,36.539-173.329c-31.138-64.586-93.868-102.082-166.38-104.918
		c-61.112-3.052-114.271,15.5-162.139,53.953C142.569,145.742,116.53,183.517,100.178,227.863L100.178,227.863z"/>
</g>
<g id="Layer_1">
	<ellipse fill="#0F0F0F" cx="452.329" cy="136.975" rx="6.3" ry="5.98"/>
	<g>
		
			<ellipse transform="matrix(0.781 -0.6245 0.6245 0.781 17.9521 164.845)" fill="#0F0F0F" cx="244.016" cy="56.826" rx="19.987" ry="11.336"/>
		
			<ellipse transform="matrix(0.781 -0.6245 0.6245 0.781 19.8867 163.4066)" fill="#4C4C4C" cx="242.933" cy="53.348" rx="8.204" ry="4.653"/>
	</g>
	<g>
		<circle fill="#0F0F0F" cx="207.762" cy="113.223" r="14.688"/>
		<circle fill="#4C4C4C" cx="207.762" cy="108.223" r="4.777"/>
	</g>
	<g>
		
			<ellipse transform="matrix(0.9278 0.3731 -0.3731 0.9278 66.3203 -153.1014)" fill="#0F0F0F" cx="428.699" cy="94.789" rx="10.465" ry="21.247"/>
		
			<ellipse transform="matrix(0.9278 0.3731 -0.3731 0.9278 64.5382 -154.7628)" fill="#4C4C4C" cx="432.061" cy="89.337" rx="5.469" ry="11.104"/>
	</g>
	<g>
		<circle fill="#0F0F0F" cx="588.762" cy="64.223" r="21.732"/>
		<circle fill="#4C4C4C" cx="593.762" cy="57.25" r="8.238"/>
	</g>
	
		<ellipse transform="matrix(0.9582 0.2861 -0.2861 0.9582 93.1343 -165.5354)" fill="#4C4C4C" cx="613.091" cy="235.972" rx="5.23" ry="2.344"/>
	<g>
		<g>
			<g>
				<path d="M477.085,254.286c2.007-7.982,7.361-15.039,12.807-21.008c13.451-14.741,31.623-23.219,51.529-24.356
					c11.845-0.677,23.572,1.332,35.268,2.898c11.745,1.571,23.329,1.604,35.116,0.346c19.795-2.119,48.786-11.699,54.746-33.523
					c6.011-22.005-7.511-51.279-34.174-45.476c-11.175,2.433-23.866,12.713-22.913,25.282c0.928,12.229,14.493,22.033,25.955,16.628
					"/>
				<path fill="#0F0F0F" d="M459.627,234.813c-0.556-4.784,0.912-9.754,2.653-14.149c4.305-10.855,12.491-19.26,23.148-24.008
					c6.342-2.826,13.175-4.157,19.899-5.724c6.752-1.576,13.1-3.958,19.286-7.091c10.394-5.262,24.271-16.513,23.01-29.691
					c-1.272-13.287-14.74-26.502-28.127-17.801c-5.611,3.648-10.424,11.904-7.298,18.583c3.044,6.5,12.499,9.052,17.65,3.718"/>
				<path d="M568.333,276.896c0.735-4.116,3.202-7.886,5.753-11.106c6.297-7.949,15.212-12.892,25.267-14.173
					c5.982-0.762,12-0.158,17.985,0.223c6.013,0.379,11.888-0.013,17.819-1.069c9.963-1.774,24.324-7.658,26.574-18.936
					c2.271-11.372-5.623-25.737-18.938-21.85c-5.581,1.628-11.651,7.291-10.724,13.63c0.903,6.168,8.129,10.66,13.749,7.514"/>
				<path fill="#EA482D" d="M484.854,232.982c9.229,68.039-37.354,140.621-105.7,149.892c-68.348,9.271-132.581-48.28-141.81-116.32
					c-9.229-68.04,40.042-120.802,108.39-130.073C414.08,127.211,475.626,164.943,484.854,232.982z"/>
				<g>
					<g>
						<path fill="#EA482D" stroke="#892B1F" stroke-width="5" stroke-miterlimit="10" d="M377.373,309.806
							c2.608,19.225-10.865,36.926-30.089,39.533c-19.234,2.608-36.935-10.864-39.542-30.089
							c-2.609-19.233,10.864-36.935,30.098-39.544C357.063,277.099,374.765,290.572,377.373,309.806z"/>
					</g>
					<g>
						<circle fill="#EA482D" stroke="#892B1F" stroke-width="5" stroke-miterlimit="10" cx="335.976" cy="325.508" r="35.136"/>
						<circle fill="#892B1F" cx="335.976" cy="325.509" r="24.164"/>
					</g>
				</g>
				<g>
					<g>
						<path d="M394.402,274.8c-0.314,0.133-0.619,0.265-0.944,0.4c-0.662,0.261-1.317,0.552-1.982,0.783
							c-0.501,0.179-1.001,0.369-1.503,0.527c-0.125,0.047-0.26,0.085-0.397,0.125c-0.33,0.095-0.651,0.188-0.99,0.285
							c-4.207,1.206-8.448,1.711-12.615,1.57c-15.553-0.463-29.884-9.772-35.955-24.398c-0.282-0.668-0.546-1.349-0.792-2.042
							l0.896-0.313l47.883-16.829l14.921-5.243l14.535-5.11C424.304,244.435,414.072,266.248,394.402,274.8z"/>
						<path d="M340.369,252.022c-0.094,0.728-0.2,1.42-0.344,2.136c-3.651,19.74-22.061,33.89-42.73,32.454
							c-0.347-0.023-0.682-0.055-1.028-0.079c-0.591-0.042-1.198-0.136-1.804-0.215c-0.062-0.012-0.123-0.015-0.184-0.027
							c-0.7-0.097-1.395-0.234-2.098-0.361c-0.342-0.064-0.682-0.12-1.014-0.186c-2.916-0.594-5.698-1.468-8.335-2.604
							c-16.391-7.01-26.886-23.75-24.703-41.728l38.831,4.976l12.239,1.637L339.678,252h0.009L340.369,252.022z"/>
					</g>
					<path fill="#FFFFFF" d="M309.214,247.966l-14.75,38.35c-0.062-0.012-0.123-0.014-0.185-0.025
						c-0.7-0.097-1.395-0.234-2.098-0.361c-0.342-0.065-0.683-0.119-1.015-0.186c-2.916-0.594-5.698-1.467-8.335-2.604
						l14.128-36.752L309.214,247.966z"/>
					<path fill="#FFFFFF" d="M402.924,229.665l-12.951,46.846c-0.125,0.047-0.26,0.085-0.397,0.125
						c-0.33,0.095-0.651,0.188-0.99,0.285c-4.207,1.206-8.448,1.711-12.615,1.57l12.032-43.583L402.924,229.665z"/>
				</g>
				<g>
					
						<ellipse transform="matrix(0.9909 -0.1344 0.1344 0.9909 -18.2008 47.3662)" fill="#F76652" cx="341.676" cy="158.471" rx="12" ry="6.666"/>
					
						<ellipse transform="matrix(0.9909 -0.1344 0.1344 0.9909 -17.389 51.3255)" fill="#F76652" cx="371.404" cy="154.439" rx="12" ry="6.666"/>
					
						<ellipse transform="matrix(0.9909 -0.1344 0.1344 0.9909 -19.4375 53.3882)" fill="#F76652" cx="385.714" cy="170.663" rx="12" ry="6.666"/>
					
						<ellipse transform="matrix(0.9909 -0.1344 0.1344 0.9909 -18.7618 56.6896)" fill="#F76652" cx="410.487" cy="167.303" rx="12" ry="6.667"/>
					
						<ellipse transform="matrix(0.9909 -0.1344 0.1344 0.9909 -20.8624 57.8198)" fill="#F76652" cx="417.888" cy="183.455" rx="6.838" ry="4.01"/>
				</g>
				<g>
					<g>
						<g>
							<path fill="#892B1F" d="M252.205,273.987c-0.926,3.294-2.102,6.265-3.434,8.571c-1.346,2.318-2.856,4.002-4.813,4.857
								c0,0-1.28,0.531-3.327,1.685c-2.038,1.137-4.777,3.065-7.083,5.606c-1.142,1.271-2.119,2.683-2.896,4.143
								c-0.721,1.481-1.288,2.986-1.515,4.649c-0.086,0.409-0.103,0.843-0.15,1.275c-0.038,0.189-0.013,0.539-0.029,0.802
								c-0.003,0.296-0.03,0.531-0.014,0.922c0.006,0.715,0.011,1.434,0.017,2.156c0.051,0.624,0.103,1.252,0.155,1.882
								c0.275,2.45,0.832,4.692,1.679,6.753c0.847,2.062,1.987,3.968,3.455,5.771c1.463,1.799,3.263,3.486,5.31,5.005
								c2.045,1.517,4.32,2.862,6.663,3.998c2.364,1.117,4.776,2.026,7.075,2.776c4.647,1.439,8.825,2.173,11.755,2.526
								c1.462,0.21,2.633,0.258,3.42,0.354c0.794,0.046,1.217,0.069,1.217,0.069c3.368,0.192,6.435,1.954,9.249,4.709
								c1.403,1.396,2.729,3.021,3.94,4.908c1.198,1.842,2.279,3.922,3.128,6.171c-5.248-3.358-10.401-5.373-15.714-6.767
								c-2.654-0.679-5.331-1.235-8.043-1.643c-2.694-0.477-5.445-0.758-8.16-1.12c-0.925-0.088-1.82-0.239-2.737-0.336
								c-0.922-0.087-1.82-0.22-2.728-0.333c-0.615-0.082-1.247-0.121-1.846-0.225c-2.757-0.234-5.535-0.554-8.375-0.981
								c-2.786-0.493-5.683-1.042-8.469-1.946c-2.793-0.888-5.618-1.986-8.226-3.497c-1.365-0.705-2.563-1.598-3.853-2.466
								c-1.161-0.961-2.432-1.9-3.475-3.023c-2.247-2.15-4.049-4.719-5.533-7.455c-0.662-1.396-1.362-2.803-1.782-4.288
								c-0.229-0.736-0.47-1.474-0.649-2.221c-0.151-0.752-0.287-1.507-0.407-2.263c-0.292-1.505-0.258-3.037-0.279-4.542
								c0.031-1.507,0.276-2.995,0.521-4.459c0.56-2.938,1.771-5.746,3.594-8.063c0.513-0.767,1.123-1.492,1.662-2.208
								c0.002-0.008,0.012-0.005,0.015-0.012c0.614-0.686,1.152-1.378,1.792-2.01c0.006-0.014,0.018-0.018,0.033-0.029
								c2.887-3.026,6.091-5.394,9.373-7.321c1.628-0.974,3.284-1.84,4.951-2.628c1.657-0.795,3.31-1.53,4.975-2.202
								C239.299,278.827,245.696,276.688,252.205,273.987z"/>
							<path fill="#EA482D" d="M253.519,262.347c0.31,4.188-0.386,7.913-1.346,11.392c-6.549,2.707-12.967,4.909-19.606,7.681
								c-1.662,0.687-3.311,1.437-4.961,2.245c-1.662,0.801-3.311,1.68-4.931,2.665c-3.266,1.948-6.451,4.329-9.326,7.36
								c-0.016,0.011-0.027,0.015-0.033,0.029c-0.648,0.629-1.178,1.325-1.792,2.01c-0.002,0.007-0.012,0.004-0.015,0.012
								c-0.539,0.716-1.149,1.441-1.662,2.208c-1.823,2.317-3.035,5.125-3.594,8.063c-0.246,1.464-0.49,2.952-0.521,4.459
								c0.021,1.505-0.013,3.037,0.279,4.542c0.12,0.756,0.256,1.511,0.407,2.263c0.179,0.747,0.42,1.484,0.649,2.221
								c0.42,1.485,1.12,2.892,1.782,4.288c1.484,2.736,3.286,5.305,5.533,7.455c1.043,1.123,2.314,2.063,3.475,3.023
								c1.29,0.868,2.488,1.761,3.853,2.466c2.608,1.511,5.433,2.609,8.226,3.497c2.787,0.904,5.684,1.453,8.469,1.946
								c2.84,0.428,5.618,0.747,8.375,0.981c0.599,0.104,1.231,0.143,1.846,0.225c0.907,0.113,1.804,0.248,2.727,0.337
								c0.917,0.098,1.812,0.249,2.738,0.332c2.715,0.373,5.464,0.667,8.158,1.157c2.712,0.422,5.389,0.993,8.045,1.685
								c5.315,1.422,10.477,3.459,15.733,6.816c0.661,1.758,1.167,3.495,1.47,5.452c0.467,3.001,0.368,5.919-0.34,8.646
								c-0.353,1.363-0.857,2.68-1.507,3.931c-0.649,1.229-1.444,2.382-2.374,3.454c-3.693,4.267-9.659,6.92-16.185,6.523
								c0-0.001-2.73-0.103-7.484-0.687c-4.751-0.588-11.532-1.729-19.577-4.235c-4.019-1.296-8.352-2.922-12.865-5.07
								c-4.506-2.178-9.194-4.891-13.817-8.317c-4.617-3.424-9.171-7.593-13.21-12.555c-4.042-4.946-7.527-10.697-10.036-16.828
								c-2.526-6.127-4.061-12.573-4.732-18.783c-0.135-1.539-0.28-3.105-0.363-4.606c-0.021-1.437-0.041-2.866-0.061-4.287
								c-0.017-0.678,0.018-1.507,0.039-2.271c0.035-0.797,0.027-1.508,0.11-2.367c0.134-1.667,0.288-3.32,0.564-4.957
								c0.976-6.561,3.161-12.708,5.859-18.011c2.746-5.287,6-9.761,9.294-13.43c6.643-7.314,13.218-11.667,17.884-14.35
								c1.168-0.684,2.229-1.246,3.158-1.721c0.923-0.491,1.724-0.867,2.373-1.173c1.295-0.622,1.999-0.917,1.999-0.917
								c3.335-1.48,6.838-2.079,10.111-1.9c3.275,0.168,6.315,1.106,8.848,2.647c1.265,0.762,2.404,1.666,3.402,2.707
								c0.995,1.028,1.842,2.162,2.541,3.413C252.525,256.499,253.291,259.318,253.519,262.347z"/>
						</g>
					</g>
				</g>
				<g>
					<g>
						<g>
							<path fill="#892B1F" d="M303.816,529.436c-1.602,1.153-3.555,2.117-5.742,2.729c-2.136,0.546-4.614,0.866-7.07,0.66
								c-5.002-0.3-10.347-2.295-14.618-5.759c0,0-0.722-0.537-1.936-1.604c-0.614-0.533-1.371-1.191-2.26-1.964
								c-0.832-0.798-1.787-1.715-2.857-2.741c-4.212-4.141-9.459-10.354-14.519-18.13c-5.019-7.787-9.862-17.105-13.867-27.424
								c-4-10.35-7.276-21.589-9.091-33.879c-0.919-6.2-1.289-12.66-1.121-19.04c0.169-6.37,0.966-12.607,2.198-18.562
								c2.444-11.922,6.97-22.637,12.107-31.201c5.119-8.599,10.86-14.986,15.181-19.105c1.065-1.049,2.069-1.936,2.951-2.7
								c0.874-0.771,1.625-1.419,2.262-1.915c1.261-1.004,1.934-1.54,1.934-1.54c5.462-4.224,12.051-5.878,17.599-5.222
								c5.593,0.609,10.14,3.492,12.893,7.489c-7.275-1.876-15.879-0.511-23.546,3.75c-7.712,4.193-14.328,11.113-18.743,18.828
								c-1.47,2.599-2.774,5.248-3.802,7.951c-0.361,0.915-0.703,1.821-0.995,2.744c-2.527,8.22-3.234,16.713-2.804,24.763
								c0.418,8.069,1.934,15.715,3.871,22.8c1.902,7.1,4.159,13.678,5.84,20.267c1.698,6.591,2.865,13.154,3.083,20.24
								c0.066,1.133,0.205,2.256,0.321,3.396c0.004,0.01-0.004,0.014,0,0.023c0.11,1.132,0.263,2.265,0.435,3.398
								c0.009,0.019,0.004,0.032,0.004,0.056c1.57,10.692,4.962,21.775,11.685,31.604c3.349,4.891,7.594,9.431,12.797,13.034
								C291.173,525.982,297.356,528.607,303.816,529.436z"/>
							<path fill="#EA482D" d="M309.937,519.104c-0.738,4.119-2.609,7.479-6.055,10.09c-6.429-0.82-12.591-3.419-17.754-6.992
								c-5.196-3.575-9.449-8.085-12.813-12.95c-6.753-9.776-10.2-20.826-11.793-31.508c0-0.023,0.004-0.037-0.004-0.056
								c-0.163-1.138-0.324-2.267-0.435-3.398c-0.004-0.01,0.005-0.014,0-0.023c-0.117-1.14-0.255-2.263-0.321-3.396
								c-0.217-7.086-1.384-13.649-3.083-20.24c-1.682-6.589-3.938-13.167-5.84-20.267c-1.937-7.085-3.452-14.73-3.871-22.8
								c-0.43-8.05,0.277-16.543,2.804-24.763c0.292-0.923,0.634-1.829,0.995-2.744c1.028-2.703,2.341-5.347,3.802-7.951
								c4.436-7.709,11.074-14.603,18.794-18.767c7.675-4.231,16.272-5.568,23.536-3.688c1.082,1.562,1.885,3.178,2.488,5.063
								c0.922,2.894,1.227,5.836,1.173,8.616c-0.071,2.754-0.455,5.449-1.078,7.813c-1.261,4.82-3.126,8.587-6.293,10.994
								c0,0-0.33,0.265-0.948,0.76c-0.318,0.234-0.685,0.562-1.116,0.947c-0.437,0.376-0.94,0.81-1.468,1.344
								c-2.158,2.062-5.102,5.289-7.868,9.936c-2.763,4.617-5.375,10.653-6.788,17.604c-0.711,3.462-1.194,7.121-1.286,10.851
								c-0.084,3.712,0.099,7.537,0.692,11.485c1.166,8.022,3.596,16.628,6.552,24.203c2.956,7.622,6.472,14.29,9.785,19.439
								c3.352,5.12,6.45,8.736,8.644,10.88c0.548,0.529,1.037,1.001,1.463,1.411c0.429,0.367,0.794,0.68,1.09,0.934
								c0.583,0.532,0.9,0.75,0.9,0.75c2.984,2.332,4.121,5.684,5.134,10.222c0.492,2.193,0.918,4.828,1.187,7.511
								C310.415,513.148,310.479,516.117,309.937,519.104z"/>
						</g>
					</g>
				</g>
				<g>
					<g>
						<g>
							<path fill="#892B1F" d="M363.555,477.76c-0.813,1.549-1.839,2.969-3.06,4.21c-1.232,1.182-2.679,2.133-4.275,2.864
								c-0.799,0.356-1.633,0.679-2.5,0.888c-0.87,0.18-1.769,0.291-2.686,0.328c-0.917,0.037-1.852,0.001-2.79-0.111
								c-0.939-0.097-1.865-0.405-2.79-0.722c0,0-0.588-0.216-1.692-0.622c-0.548-0.212-1.233-0.452-2.017-0.786
								c-0.77-0.369-1.654-0.792-2.644-1.267c-3.963-1.861-9.362-5.229-14.561-10.129c-5.231-4.877-10.096-11.245-13.875-18.215
								c-3.83-6.977-6.595-14.517-8.543-22c-3.916-14.986-4.486-29.793-3.75-40.991c0.153-2.795,0.455-5.375,0.703-7.656
								c0.322-2.295,0.589-4.288,0.894-5.945c0.314-1.658,0.561-2.96,0.729-3.849c0.205-0.896,0.313-1.373,0.313-1.373
								c0.439-1.907,1.299-3.635,2.598-5.122c0.634-0.739,1.347-1.41,2.126-2.004c0.814-0.604,1.695-1.129,2.625-1.567
								c1.849-0.876,3.921-1.416,6.154-1.593c2.211-0.175,4.51,0.021,6.822,0.552c-5.306,1.999-9.058,6.001-11.324,10.652
								c-2.267,4.67-3.066,10-2.771,15.145c0.084,1.729,0.323,3.438,0.585,5.116c0.106,0.57,0.232,1.133,0.354,1.692
								c1.295,4.967,3.436,9.751,5.808,14.236c1.151,2.248,2.461,4.417,3.658,6.527c1.252,2.079,2.484,4.127,3.688,6.127
								c2.355,3.977,4.414,7.729,5.843,11.563c1.424,3.854,2.069,7.836,2.02,12.62c0.031,0.752,0.046,1.532,0.155,2.275
								c0.004,0.006-0.004,0.011-0.001,0.017c0.087,0.748,0.186,1.511,0.299,2.277c0.007,0.012,0.003,0.022,0.002,0.039l0.212,1.368
								c0.094,0.448,0.204,0.893,0.312,1.344c0.221,0.899,0.461,1.81,0.724,2.726c0.266,0.914,0.641,1.783,0.992,2.686
								c0.381,0.883,0.708,1.823,1.202,2.666c0.948,1.712,1.925,3.487,3.23,5.045c0.636,0.792,1.265,1.61,1.979,2.352
								c0.731,0.723,1.488,1.433,2.269,2.125C346.822,476.852,355.866,479.312,363.555,477.76z"/>
							<path fill="#EA482D" d="M365.986,466.418c0.021,4.188-0.714,7.833-2.421,11.093c-7.652,1.552-16.66-0.844-22.922-6.387
								c-0.781-0.685-1.54-1.387-2.273-2.102c-0.715-0.734-1.347-1.546-1.985-2.331c-1.311-1.544-2.295-3.307-3.25-5.008
								c-0.498-0.837-0.829-1.773-1.214-2.651c-0.355-0.897-0.734-1.763-1.003-2.673c-0.266-0.913-0.511-1.819-0.734-2.717
								c-0.11-0.449-0.222-0.893-0.317-1.34l-0.216-1.365c0.001-0.017,0.005-0.027-0.002-0.039c-0.1-0.763-0.2-1.521-0.299-2.277
								c-0.003-0.006,0.005-0.011,0.001-0.017c-0.108-0.743-0.124-1.523-0.155-2.275c0.049-4.784-0.596-8.767-2.02-12.62
								c-1.429-3.835-3.488-7.587-5.843-11.563c-1.204-2-2.436-4.048-3.688-6.127c-1.197-2.11-2.507-4.279-3.658-6.527
								c-2.372-4.485-4.513-9.27-5.808-14.236c-0.122-0.56-0.248-1.122-0.354-1.692c-0.262-1.678-0.491-3.387-0.585-5.116
								c-0.275-5.146,0.557-10.471,2.849-15.129c2.292-4.641,6.063-8.626,11.365-10.617c1.805,0.416,3.508,0.979,5.322,1.772
								c5.561,2.469,10.022,5.888,13.077,8.891c0.773,0.777,1.451,1.539,2.019,2.275c0.285,0.369,0.539,0.729,0.769,1.087
								c0.242,0.373,0.454,0.741,0.636,1.103c0.364,0.725,0.601,1.421,0.704,2.101c0.133,0.71,0.127,1.399-0.032,2.069
								c0,0-0.067,0.282-0.192,0.811c-0.103,0.549-0.253,1.353-0.446,2.377c-0.194,1.024-0.352,2.32-0.571,3.786
								c-0.15,1.498-0.363,3.177-0.458,5.055c-0.239,3.734-0.278,8.173,0.088,12.859c0.359,4.683,1.128,9.605,2.323,14.188
								c1.184,4.583,2.8,8.823,4.622,12.094c1.807,3.308,3.723,5.654,5.33,7.155c1.62,1.507,2.919,2.33,3.901,2.748
								c0.239,0.116,0.448,0.23,0.628,0.335c0.191,0.08,0.367,0.115,0.5,0.166c0.269,0.097,0.412,0.148,0.412,0.148
								c0.169,0.066,0.323,0.172,0.465,0.316c0.159,0.111,0.313,0.246,0.454,0.427c0.284,0.357,0.536,0.867,0.78,1.513
								c0.565,1.136,1.081,2.854,1.654,4.896C364.593,454.813,365.926,460.351,365.986,466.418z"/>
						</g>
					</g>
				</g>
				<g>
					<g>
						<g>
							<path fill="#892B1F" d="M404.056,457.22c-1.073-1.242-2.011-2.413-2.866-3.515c-0.878-1.117-1.629-2.135-2.205-3.028
								c-0.542-0.874-1.07-1.727-1.293-2.41c-0.129-0.354-0.163-0.652-0.198-0.97c-0.034-0.316-0.004-0.606,0.099-0.874
								c-0.001-0.001,0.294-0.657,0.642-1.972c0.051-0.16,0.104-0.329,0.16-0.507c0.038-0.191,0.077-0.393,0.117-0.602
								c0.092-0.417,0.191-0.868,0.297-1.35c0.063-0.516,0.138-1.063,0.23-1.638c0.105-0.568,0.096-1.244,0.171-1.904
								c0.18-2.709,0.081-6.173-0.519-10.145c-0.581-3.964-1.676-8.414-3.196-12.912c-2.993-9.021-7.637-18.083-11.564-24.544
								c-1.946-3.253-3.723-5.867-4.971-7.68c-0.634-0.897-1.131-1.604-1.471-2.085c-0.349-0.471-0.534-0.722-0.534-0.722
								c-0.742-1.002-1.089-2.234-1.136-3.604c-0.034-1.39,0.25-2.936,0.802-4.584c1.131-3.326,3.305-7.067,6.382-10.695
								c-0.967,5.054-0.604,9.253,0.717,12.941c1.313,3.688,3.579,6.876,6.281,9.793c0.894,0.984,1.845,1.929,2.843,2.838
								l1.006,0.926c3.235,2.564,6.824,5.062,10.325,7.756c3.505,2.686,6.946,5.565,9.742,8.8c2.8,3.223,5.039,6.781,6.012,10.629
								c0.98,3.828,0.825,7.928-1.228,11.856c-0.269,0.624-0.523,1.247-0.822,1.862c0,0.005-0.01,0.006-0.009,0.012l-0.853,1.813
								c0.001,0.011-0.009,0.017-0.018,0.028c-0.625,1.411-1.399,2.772-2.045,4.096c-0.688,1.319-1.416,2.585-2.065,3.811
								c-1.43,2.421-2.678,4.67-3.916,6.695c-1.144,2.073-2.259,3.907-3.02,5.836C405.066,453.033,404.553,455.019,404.056,457.22z"
								/>
							<path fill="#EA482D" d="M412.396,465.26c-3.329-2.542-5.889-5.294-8.136-7.897c0.507-2.215,1.019-4.222,1.894-6.104
								c0.749-1.949,1.842-3.804,2.96-5.891c1.212-2.04,2.432-4.298,3.836-6.724c0.636-1.228,1.352-2.494,2.03-3.813
								c0.636-1.324,1.4-2.686,2.02-4.096c0.009-0.012,0.019-0.018,0.018-0.028c0.285-0.607,0.568-1.21,0.853-1.813
								c-0.001-0.006,0.009-0.007,0.009-0.012c0.299-0.615,0.554-1.238,0.822-1.862c2.053-3.929,2.208-8.028,1.228-11.856
								c-0.973-3.848-3.212-7.406-6.012-10.629c-2.796-3.234-6.237-6.114-9.742-8.8c-3.5-2.694-7.09-5.191-10.325-7.756
								l-1.006-0.926c-0.998-0.909-1.94-1.858-2.843-2.838c-2.686-2.93-4.926-6.136-6.218-9.842
								c-1.3-3.707-1.646-7.922-0.682-12.979c1.202-1.409,2.444-2.71,3.929-4.02c4.542-4.026,9.597-6.518,14.262-7.06
								c4.619-0.55,8.828,0.827,11.155,4.04c0,0,0.246,0.335,0.709,0.963c0.448,0.635,1.105,1.565,1.941,2.749
								c1.645,2.384,3.96,5.801,6.504,10.046c5.122,8.469,11.249,20.227,15.629,33.344c2.202,6.542,3.951,13.437,4.969,20.282
								c1.037,6.829,1.319,13.608,0.915,19.616c-0.132,1.514-0.193,2.938-0.399,4.338c-0.203,1.394-0.396,2.717-0.577,3.959
								c-0.241,1.253-0.501,2.431-0.735,3.515c-0.121,0.541-0.237,1.061-0.348,1.558c-0.142,0.499-0.276,0.975-0.403,1.426
								c-0.536,1.804-0.912,3.217-1.284,4.174c-0.356,0.958-0.546,1.468-0.546,1.468c-0.479,1.213-1.012,2.355-1.815,3.352
								c-0.777,1.002-1.666,1.89-2.635,2.641c-1.967,1.492-4.389,2.375-6.819,2.675C422.472,470.982,417.198,468.964,412.396,465.26
								z"/>
						</g>
					</g>
				</g>
				<g>
					<g>
						<g>
							<path fill="#892B1F" d="M483.939,451.344c-3.005-1.402-5.646-3.052-7.473-4.771c-1.882-1.746-2.978-3.581-3.098-5.637
								c0,0-0.013-0.328-0.037-0.942c-0.053-0.623-0.13-1.536-0.229-2.699c-0.089-1.162-0.314-2.598-0.516-4.236
								c-0.28-1.646-0.565-3.506-1.021-5.541c-0.867-4.064-2.175-8.819-4.006-13.787c-1.825-4.966-4.166-10.14-6.907-15.021
								c-2.754-4.871-5.896-9.436-9.108-13.316c-3.21-3.892-6.483-7.084-9.39-9.485c-0.727-0.604-1.415-1.196-2.104-1.67
								c-0.682-0.489-1.31-1.002-1.923-1.41c-1.237-0.786-2.285-1.552-3.192-2.02c-0.896-0.502-1.581-0.957-2.074-1.162
								c-0.483-0.239-0.741-0.366-0.741-0.366c-0.516-0.246-0.961-0.634-1.371-1.04c-0.412-0.397-0.772-0.891-1.093-1.472
								c-0.631-1.203-1.14-2.568-1.52-4.28c-0.192-0.843-0.349-1.786-0.486-2.73c-0.139-0.941-0.247-1.942-0.322-2.992
								c-0.149-2.099-0.171-4.391,0.009-6.769c2.482,4.786,5.065,8.211,8.062,10.89c2.984,2.676,6.403,4.714,10.149,6.67
								c1.269,0.62,2.518,1.32,3.854,1.896c0.453,0.199,0.882,0.435,1.33,0.646c4.134,1.66,8.604,3.476,13.011,5.725
								c4.399,2.241,8.798,4.87,12.53,8.085c3.735,3.201,6.917,6.911,8.9,11.104c1.956,4.196,2.798,8.834,1.849,13.716
								c-0.081,0.763-0.218,1.546-0.321,2.311c0.002,0.006-0.007,0.009-0.005,0.015c-0.107,0.756-0.216,1.518-0.324,2.274
								c0.004,0.013-0.003,0.021-0.009,0.037c-1.037,7.13-2.317,13.918-2.977,20.175
								C482.729,439.829,482.698,445.551,483.939,451.344z"/>
							<path fill="#EA482D" d="M495.111,454.6c-4.155-0.53-7.724-1.752-10.923-3.232c-1.239-5.815-1.259-11.555-0.658-17.847
								c0.603-6.259,1.821-13.034,2.834-20.156c0.006-0.016,0.013-0.024,0.009-0.037c0.108-0.762,0.217-1.519,0.324-2.274
								c-0.002-0.006,0.007-0.009,0.005-0.015c0.104-0.765,0.24-1.548,0.321-2.311c0.949-4.882,0.107-9.52-1.849-13.716
								c-1.983-4.192-5.165-7.902-8.9-11.104c-3.732-3.215-8.131-5.844-12.53-8.085c-4.407-2.249-8.877-4.064-13.011-5.725
								c-0.448-0.211-0.877-0.446-1.33-0.646c-1.337-0.576-2.579-1.284-3.854-1.896c-3.736-1.973-7.14-4.04-10.117-6.742
								c-2.988-2.706-5.572-6.155-8.063-10.943c0.143-1.857,0.375-3.648,0.824-5.576c1.347-5.916,4.33-10.776,8.759-13.598
								c2.152-1.32,4.664-2.191,7.229-2.345c2.539-0.12,5.229,0.319,7.614,1.571c0,0,0.507,0.254,1.456,0.73
								c0.969,0.455,2.278,1.246,3.98,2.221c1.729,0.951,3.659,2.269,5.911,3.755c2.167,1.553,4.635,3.306,7.088,5.398
								c4.99,4.124,10.288,9.34,15.23,15.334c4.955,5.987,9.568,12.735,13.535,19.763c3.953,7.035,7.262,14.349,9.855,21.404
								c2.601,7.055,4.478,13.855,5.748,19.811c0.656,2.97,1.104,5.751,1.506,8.212c0.328,2.49,0.638,4.648,0.79,6.466
								c0.151,1.815,0.271,3.242,0.351,4.215c0.045,0.986,0.069,1.512,0.069,1.512c0.304,5.004-2.307,9.724-6.397,12.607
								C506.738,454.306,501.123,455.389,495.111,454.6z"/>
						</g>
					</g>
				</g>
				<g>
					<g>
						<g>
							<path fill="#892B1F" d="M568.312,421.838c-1.742-0.335-3.409-0.83-4.952-1.466c-1.571-0.631-3.053-1.397-4.352-2.302
								c-1.296-0.905-2.43-1.943-3.439-3.099c-0.997-1.157-1.742-2.467-2.322-3.897c0,0-0.763-1.822-2.097-5.014
								c-0.741-1.559-1.581-3.485-2.638-5.641c-1.107-2.124-2.277-4.575-3.766-7.094c-2.881-5.093-6.514-10.868-10.929-16.335
								c-4.394-5.471-9.512-10.691-14.942-14.723c-1.391-0.907-2.727-1.911-4.116-2.794c-0.711-0.405-1.421-0.81-2.129-1.214
								c-0.701-0.396-1.413-0.86-2.083-1.181c-1.356-0.693-3.04-1.459-4.749-2.2c-1.717-0.745-3.5-1.462-5.258-2.154
								c-7.09-2.759-13.973-4.949-19.702-6.468c-2.87-0.755-5.457-1.34-7.706-1.802c-2.223-0.419-4.136-0.754-5.606-0.927
								c-0.753-0.104-1.406-0.184-1.942-0.224c-0.54-0.046-1.032-0.114-1.374-0.124c-0.701-0.04-1.075-0.062-1.075-0.062
								c-3.01-0.163-4.564-1.654-5.967-4.367c-0.336-0.656-0.611-1.415-1.147-2.171c-0.547-0.675-1.208-1.435-1.911-2.166
								c-0.695-0.719-1.456-1.456-2.259-2.218c-0.798-0.752-1.602-1.511-2.418-2.279l0.934,0.11
								c0.313,0.052,0.636,0.128,0.938,0.188c0.593,0.105,1.197,0.294,1.76,0.469c0.57,0.125,1.049,0.423,1.488,0.62l0.696,0.325
								l0.711,0.313c1.917,0.825,4.105,1.543,6.546,2.175c4.875,1.275,10.668,2.148,16.71,2.829
								c2.021,0.226,4.071,0.424,6.123,0.596c0.701,0.057,1.396,0.113,2.09,0.17c6.229,0.244,12.739,0.368,19.247,0.769
								c3.252,0.204,6.505,0.482,9.688,0.928c3.2,0.382,6.219,1.229,9.318,2.135c12.127,4.01,22.489,12.932,25.374,25.074
								c0.282,0.937,0.566,1.882,0.85,2.823c0.006,0.007-0.002,0.013,0.003,0.02c0.298,0.913,0.512,1.894,0.771,2.831
								c0.01,0.015,0.007,0.027,0.008,0.048c2.406,8.877,4.306,17.661,6.61,25.97C561.6,406.636,564.313,414.469,568.312,421.838z"
								/>
							<path fill="#EA482D" d="M580.1,421.447c-4.05,1.071-7.882,1.023-11.548,0.322c-4.003-7.384-6.768-15.212-9.126-23.52
								c-2.358-8.292-4.314-17.046-6.74-25.908c-0.001-0.021,0.002-0.033-0.008-0.048c-0.251-0.943-0.473-1.918-0.771-2.831
								c-0.005-0.007,0.003-0.013-0.003-0.02c-0.283-0.941-0.567-1.887-0.85-2.823c-2.885-12.143-13.247-21.064-25.374-25.074
								c-3.1-0.906-6.118-1.753-9.318-2.135c-3.184-0.445-6.437-0.724-9.688-0.928c-6.508-0.4-13.018-0.524-19.247-0.769
								c-0.694-0.057-1.389-0.113-2.09-0.17c-2.052-0.172-4.099-0.38-6.123-0.596c-6.042-0.701-11.829-1.605-16.711-2.909
								c-2.443-0.646-4.64-1.376-6.571-2.206l-0.717-0.315l-0.703-0.326c-0.444-0.197-0.929-0.495-1.502-0.62
								c-0.567-0.174-1.176-0.361-1.772-0.465c-0.303-0.061-0.627-0.135-0.941-0.186l-0.938-0.107
								c-1.288-1.24-2.52-2.466-3.706-4.018c-1.857-2.424-3.184-5.119-3.557-8.197c-0.181-1.525-0.052-3.046,0.32-4.658
								c0.189-0.801,0.487-1.545,0.838-2.329c0.379-0.769,0.726-1.57,1.348-2.31c0.585-0.75,1.256-1.493,2.008-2.218
								c0.747-0.718,1.449-1.301,2.282-1.923c0.409-0.303,0.835-0.601,1.276-0.889c0.401-0.258,0.817-0.509,1.247-0.752
								c0.839-0.473,1.813-0.97,2.683-1.329c3.649-1.552,7.407-2.177,11.094-2.024c0,0,0.758,0.044,2.178,0.127
								c0.721,0.037,1.53,0.132,2.525,0.222c0.999,0.086,2.104,0.216,3.317,0.381c2.469,0.303,5.305,0.791,8.511,1.404
								c3.165,0.644,6.659,1.441,10.367,2.418c7.417,1.97,15.677,4.606,24.436,8.011c2.197,0.864,4.424,1.76,6.721,2.755
								c2.304,1.002,4.658,2.058,7.279,3.391c1.336,0.66,2.526,1.386,3.782,2.094c1.238,0.72,2.481,1.441,3.726,2.164
								c2.427,1.527,4.753,3.208,7.117,4.84c9.139,6.807,16.743,14.719,22.992,22.488c6.265,7.781,11.104,15.494,14.918,22.227
								c1.956,3.35,3.498,6.518,4.93,9.302c1.377,2.805,2.474,5.292,3.422,7.321c1.728,4.13,2.715,6.489,2.715,6.489
								c1.111,2.845,1.557,5.794,1.411,8.623c-0.209,2.859-0.959,5.571-2.259,8C590.613,416.332,585.975,419.906,580.1,421.447z"/>
						</g>
					</g>
				</g>
				<g>
					<g>
						<g>
							<path fill="#892B1F" d="M625.582,299.041c-4.213,5.884-11.098,9.542-18.13,8.646c0,0-2.24-0.28-6.159-0.771
								c-3.908-0.487-9.424-1.156-15.934-1.836c-13.016-1.343-29.769-2.474-45.582-0.844l-2.97,0.291l-2.929,0.416
								c-0.975,0.136-1.947,0.271-2.917,0.406c-0.948,0.174-1.894,0.348-2.834,0.521c-0.94,0.172-1.878,0.344-2.81,0.515
								c-1.151,0.231-2.298,0.462-3.437,0.691c-2.211,0.425-4.395,0.844-6.542,1.257c-8.197,1.546-15.194,3.071-20.759,4.696
								c-5.54,1.612-9.552,3.228-11.846,4.389c-0.575,0.29-1.104,0.541-1.48,0.77c-0.388,0.226-0.774,0.405-0.989,0.561
								c-0.481,0.298-0.737,0.456-0.737,0.456c-0.262,0.154-0.445,0.284-0.699,0.383c-0.251,0.1-0.506,0.173-0.71,0.22
								c-0.223,0.046-0.476,0.068-0.737,0.068c-0.21-0.004-0.446-0.03-0.709-0.074c-0.288-0.041-0.512-0.11-0.767-0.194
								c-0.253-0.084-0.571-0.178-0.855-0.288c-0.499-0.231-1.262-0.486-1.898-0.768c-0.344-0.139-0.724-0.276-1.134-0.411
								c-0.407-0.134-0.773-0.265-1.211-0.389c-0.428-0.123-0.886-0.239-1.369-0.347c-0.476-0.091-0.954-0.142-1.464-0.207
								c-2.064-0.258-4.306-0.362-6.66-0.553c1.19-0.677,2.39-1.258,3.474-1.647c1.082-0.37,2.081-0.648,3.084-0.918
								c1.974-0.53,3.889-1.097,6.008-1.879c4.201-1.543,9.231-3.795,14.598-6.327c1.789-0.85,3.633-1.717,5.462-2.621
								c0.628-0.309,1.251-0.614,1.873-0.921c5.468-2.966,11.242-6.169,17.173-9.329c2.997-1.587,5.985-3.17,8.944-4.737
								c2.878-1.477,5.805-2.966,8.819-4.089c11.99-4.8,24.928-6.007,36.232-0.533c0.914,0.391,1.837,0.785,2.756,1.178
								c0.009,0,0.008,0.01,0.017,0.011c0.909,0.389,1.824,0.782,2.737,1.173c0.018,0.001,0.026,0.012,0.043,0.023
								c8.607,3.681,17.218,7.304,26.039,9.828C607.383,298.377,616.441,299.797,625.582,299.041z"/>
							<path fill="#EA482D" d="M629.763,288.017c-0.478,4.163-1.938,7.685-4.151,10.775c-9.138,0.757-18.203-0.614-27.021-3.081
								c-8.83-2.468-17.447-6.029-26.057-9.685c-0.017-0.011-0.025-0.022-0.043-0.023c-0.916-0.393-1.828-0.784-2.737-1.173
								c-0.009,0-0.008-0.01-0.017-0.011c-0.919-0.393-1.842-0.787-2.756-1.178c-11.305-5.474-24.242-4.267-36.232,0.533
								c-3.015,1.123-5.941,2.612-8.819,4.089c-2.959,1.567-5.947,3.149-8.944,4.737c-5.931,3.159-11.705,6.362-17.173,9.329
								c-0.622,0.307-1.245,0.612-1.873,0.921c-1.81,0.868-3.631,1.743-5.462,2.621c-5.376,2.515-10.419,4.736-14.645,6.263
								c-2.132,0.774-4.063,1.337-6.053,1.873c-1.011,0.272-2.018,0.557-3.105,0.934c-1.091,0.396-2.294,0.984-3.485,1.669
								c-1.845-0.153-3.64-0.331-5.563-0.783c-2.954-0.688-5.619-1.92-7.744-4.046c-1.089-1.068-1.922-2.313-2.596-3.781
								c-0.714-1.456-1.055-3.159-1.165-5.05c-0.2-3.684,0.865-7.993,2.967-11.618c2.081-3.684,5.104-6.845,8.516-9.057
								c0,0,0.711-0.442,2.044-1.27c0.678-0.433,1.469-0.846,2.426-1.386c0.963-0.55,2.032-1.083,3.238-1.683
								c4.828-2.417,11.455-4.977,19.037-7.174c7.557-2.204,16.162-4.03,24.744-5.651c2.045-0.393,4.124-0.792,6.229-1.196
								c1.015-0.204,2.036-0.409,3.063-0.616c1.252-0.233,2.511-0.468,3.774-0.703c1.265-0.229,2.533-0.458,3.806-0.688
								c1.266-0.18,2.534-0.359,3.806-0.54c1.271-0.177,2.546-0.354,3.821-0.531l3.825-0.385c10.209-1.025,20.339-1.192,29.609-0.89
								c9.275,0.304,17.724,1.016,24.811,1.746c7.078,0.738,12.867,1.443,16.867,1.941c3.988,0.5,6.268,0.786,6.268,0.786
								c5.404,0.686,9.91,3.672,12.926,7.983C628.9,276.321,630.454,281.982,629.763,288.017z"/>
						</g>
					</g>
				</g>
				<g>
					<g>
						<g>
							<path fill="#892B1F" d="M590.885,199.355c2.473,2.463,4.307,5.346,5.143,8.533c0.834,3.18,0.619,6.751-1.054,10.304
								c0,0-0.275,0.571-0.792,1.641c-0.242,0.524-0.633,1.225-1.047,2.016c-0.419,0.795-0.904,1.708-1.547,2.766
								c-0.312,0.522-0.641,1.073-0.986,1.65c-0.353,0.578-0.78,1.197-1.2,1.831c-0.816,1.267-1.854,2.647-2.987,4.102
								c-2.336,2.89-5.299,6.132-9.121,9.139c-1.898,1.459-4.031,2.99-6.051,4.143c-0.518,0.307-1.04,0.616-1.566,0.928
								c-0.402,0.213-0.809,0.429-1.217,0.645c-0.817,0.432-1.646,0.87-2.488,1.314c-1.685,0.882-3.416,1.79-5.185,2.716
								c-1.748,0.869-3.474,1.614-5.262,2.448c-0.891,0.408-1.789,0.818-2.693,1.232c-0.894,0.406-1.851,0.854-2.668,1.204
								c-1.697,0.743-3.415,1.496-5.146,2.254c-0.865,0.379-1.734,0.76-2.606,1.142c-0.792,0.367-1.587,0.735-2.384,1.104
								c-1.586,0.733-3.179,1.47-4.771,2.206l-1.144,0.535c-0.278,0.127-0.662,0.304-0.845,0.375l-0.555,0.229l-1.327,0.548
								l-2.547,1.061c-1.648,0.709-3.29,1.416-4.919,2.116c-3.217,1.419-6.315,2.861-9.228,4.304
								c-5.826,2.876-10.895,5.784-14.597,8.299c-3.729,2.511-5.95,4.576-6.776,5.507c-0.437,0.48-0.553,0.671-0.587,0.721
								c-0.008,0.012-0.017,0.022-0.026,0.029c-0.004,0.003-0.003,0.003,0,0c-0.067-0.045-0.131-0.088-0.192-0.129
								c-0.139-0.09-0.265-0.171-0.377-0.244c-0.459-0.28-0.696-0.424-0.696-0.424l-0.361-0.208l-0.183-0.102l-0.091-0.05
								l-0.046-0.025l-0.023-0.012l-0.012-0.006c-0.441-0.253,3.798,2.18,2.004,1.15c0.011-0.02,0.02-0.041,0.024-0.063
								c0.011-0.043,0.012-0.098-0.001-0.145c-0.035-0.016-0.132-0.058-0.222-0.088c-0.212-0.075-0.509-0.156-0.91-0.22
								c-0.793-0.13-1.962-0.148-3.276,0.061c-1.317,0.202-2.773,0.624-4.261,1.182c-1.499,0.558-3.044,1.258-4.711,1.928
								c0.567-1.588,1.346-2.977,2.319-4.15c0.969-1.171,2.167-2.1,3.151-2.76c0.829-0.401,1.941-1.448,3.307-2.749
								c1.344-1.307,2.922-2.882,4.567-4.565c1.145-1.177,2.286-2.352,3.421-3.52c0.397-0.417,0.791-0.83,1.186-1.244
								c6.798-7.781,14.541-16.976,23.207-23.881c1.084-0.864,2.184-1.691,3.297-2.48c0.569-0.39,1.094-0.777,1.634-1.181
								c0.544-0.397,1.092-0.785,1.646-1.162c2.214-1.494,4.494-2.869,6.865-3.907c2.371-1.039,4.818-1.838,7.363-2.339
								c2.529-0.521,5.154-0.773,7.946-0.673c0.881-0.024,1.769-0.047,2.652-0.071c0.008-0.003,0.012,0.005,0.019,0.002
								c0.872-0.078,1.75-0.157,2.625-0.235c0.014-0.007,0.025-0.002,0.043,0c2.076-0.206,4.176-0.456,6.288-0.761
								c0.538-0.089,1.036-0.127,1.607-0.268l1.718-0.429c1.154-0.263,2.309-0.712,3.477-1.167c4.65-1.85,9.016-4.948,12.376-8.597
								c3.4-3.644,5.909-7.719,7.644-11.713C589.468,207.144,590.459,203.194,590.885,199.355z"/>
							<path fill="#EA482D" d="M580.957,193.176c3.937,1.436,7.082,3.525,9.693,6.094c-0.427,3.839-1.404,7.788-3.122,11.798
								c-1.713,3.993-4.192,8.068-7.562,11.717c-3.33,3.654-7.664,6.764-12.293,8.63c-1.163,0.459-2.313,0.913-3.464,1.18
								l-1.711,0.436c-0.57,0.142-1.067,0.183-1.604,0.274c-2.107,0.313-4.203,0.572-6.276,0.783c-0.018-0.002-0.029-0.007-0.043,0
								c-0.879,0.079-1.753,0.157-2.625,0.235c-0.007,0.003-0.011-0.006-0.019-0.002c-0.884,0.024-1.771,0.047-2.652,0.071
								c-2.792-0.101-5.417,0.152-7.946,0.673c-2.545,0.501-4.992,1.3-7.363,2.339c-2.371,1.038-4.651,2.413-6.865,3.907
								c-0.554,0.377-1.102,0.764-1.646,1.162c-0.54,0.404-1.064,0.791-1.634,1.181c-1.113,0.789-2.213,1.616-3.297,2.48
								c-8.666,6.905-16.409,16.101-23.207,23.881c-0.395,0.414-0.788,0.827-1.186,1.244c-1.135,1.168-2.275,2.341-3.421,3.52
								c-1.653,1.677-3.239,3.242-4.596,4.541c-1.376,1.293-2.503,2.333-3.35,2.738c-1.002,0.663-2.215,1.601-3.189,2.784
								c-0.981,1.185-1.757,2.587-2.315,4.185c-1.333,0.532-2.546,1.007-4.238,1.414c-3.113,0.751-6.387,1.076-9.661,0.522
								c-3.217-0.558-6.404-2.013-8.884-4.494c-1.249-1.233-2.283-2.718-3.092-4.408c-0.771-1.689-1.319-3.584-1.504-5.599
								c-0.192-2.013-0.041-4.131,0.442-6.251c0.254-1.056,0.576-2.116,0.999-3.154c0.403-1.018,1.028-2.264,1.619-3.238
								c0,0,0.129-0.212,0.379-0.622c0.254-0.424,0.625-0.996,1.117-1.71c0.984-1.444,2.454-3.392,4.294-5.408
								c3.694-4.094,8.805-8.403,14.682-12.366c5.887-3.985,12.596-7.76,19.746-11.299c3.574-1.771,7.26-3.483,10.997-5.132
								c1.868-0.825,3.749-1.631,5.623-2.42c1.407-0.585,2.82-1.172,4.233-1.759c1.911-0.886,3.821-1.772,5.725-2.655
								c0.949-0.438,1.896-0.874,2.841-1.31c0.881-0.386,1.759-0.771,2.634-1.154c1.749-0.767,3.484-1.527,5.199-2.279
								c0.895-0.384,1.612-0.726,2.392-1.081c0.767-0.351,1.527-0.7,2.282-1.045c1.491-0.696,3.039-1.358,4.407-2.042
								c1.314-0.695,2.6-1.375,3.851-2.037c0.627-0.328,1.245-0.652,1.854-0.971c0.305-0.159,0.606-0.316,0.906-0.472l0.459-0.284
								c0.707-0.374,0.996-0.657,1.412-0.932c0.745-0.57,1.369-1.289,2.002-2.036c0.302-0.41,0.611-0.772,0.885-1.228
								c0.139-0.217,0.281-0.392,0.411-0.612c0.132-0.225,0.257-0.439,0.376-0.643c0.246-0.381,0.463-0.803,0.653-1.169
								c0.19-0.373,0.361-0.64,0.492-0.94c0.269-0.561,0.411-0.859,0.411-0.859c1.363-2.828,4.897-5.503,9.588-6.889
								c2.341-0.703,4.956-1.05,7.7-0.967C575.24,191.588,578.104,192.135,580.957,193.176z"/>
						</g>
					</g>
				</g>
				<g>
					<circle fill="#EA482D" cx="577.313" cy="240.398" r="8.97"/>
					<circle fill="#EA482D" cx="594.093" cy="226.849" r="5.785"/>
				</g>
				<g>
					<circle fill="#EA482D" cx="576.759" cy="302.337" r="8.97"/>
					<circle fill="#EA482D" cx="597.78" cy="307.163" r="5.786"/>
				</g>
				<g>
					<circle fill="#EA482D" cx="540.33" cy="383.71" r="8.969"/>
					<path fill="#EA482D" d="M552.568,408.111c-2.66,1.771-6.251,1.055-8.025-1.603c-1.773-2.658-1.058-6.25,1.602-8.021
						c2.656-1.776,6.25-1.059,8.022,1.6C555.942,402.746,555.225,406.338,552.568,408.111z"/>
				</g>
				<g>
					<circle fill="#EA482D" cx="469.42" cy="407.688" r="8.969"/>
					<circle fill="#EA482D" cx="472.449" cy="429.041" r="5.785"/>
				</g>
				<g>
					<circle fill="#EA482D" cx="401.394" cy="414.793" r="8.968"/>
					<path fill="#EA482D" d="M401.197,442.09c-3.174,0.368-6.045-1.9-6.417-5.074c-0.371-3.177,1.899-6.049,5.073-6.419
						c3.174-0.371,6.047,1.9,6.418,5.074C406.643,438.846,404.369,441.718,401.197,442.09z"/>
				</g>
				<g>
					<path fill="#EA482D" d="M318.115,457.305c-3.603,3.399-9.278,3.234-12.681-0.368c-3.397-3.603-3.235-9.28,0.371-12.678
						c3.602-3.404,9.278-3.238,12.678,0.366C321.882,448.226,321.72,453.904,318.115,457.305z"/>
					<circle fill="#EA482D" cx="324.134" cy="468.583" r="5.786"/>
				</g>
				<g>
					<circle fill="#EA482D" cx="243.465" cy="474.636" r="8.969"/>
					<circle fill="#EA482D" cx="253.432" cy="493.762" r="5.786"/>
				</g>
				<g>
					<path fill="#EA482D" d="M233.156,314.429c-3.982,2.949-9.599,2.108-12.548-1.874c-2.943-3.982-2.105-9.6,1.879-12.545
						c3.983-2.949,9.598-2.108,12.545,1.875C237.979,305.865,237.14,311.484,233.156,314.429z"/>
					<circle fill="#EA482D" cx="237.788" cy="326.346" r="5.785"/>
				</g>
			</g>
			
				<ellipse transform="matrix(0.988 0.1547 -0.1547 0.988 30.0179 -97.224)" fill="#4C4C4C" cx="639.796" cy="144.291" rx="11.091" ry="4.972"/>
		</g>
		
			<ellipse transform="matrix(0.988 0.1547 -0.1547 0.988 28.6457 -80.5241)" fill="#4C4C4C" cx="531.75" cy="143.808" rx="5.23" ry="2.344"/>
	</g>
</g>
</svg>
