<?xml version="1.0" encoding="utf-8"?>
<!-- Generator: Adobe Illustrator 16.0.0, SVG Export Plug-In . SVG Version: 6.00 Build 0)  -->
<!DOCTYPE svg PUBLIC "-//W3C//DTD SVG 1.1//EN" "http://www.w3.org/Graphics/SVG/1.1/DTD/svg11.dtd">
<svg version="1.1" id="Layer_1" xmlns="http://www.w3.org/2000/svg" xmlns:xlink="http://www.w3.org/1999/xlink" x="0px" y="0px"
	 width="294.833px" height="745.833px" viewBox="0 0 294.833 745.833" enable-background="new 0 0 294.833 745.833"
	 xml:space="preserve">
<g id="Layer_1_1_" display="none">
	
		<image display="inline" overflow="visible" opacity="0.3" enable-background="new    " width="695" height="782" xlink:href="38531678.png"  transform="matrix(0.6853 0 0 0.6853 261.6255 32.0488)">
	</image>
</g>
<g id="Layer_2">
	<g>
		<path fill="#FFB574" d="M183.881,45.008c0,0-18.885-11.604-40.952,5.915c0,0-28.214,15.016-12.515,46.414
			c0,0,2.957,8.874,2.504,11.375l2.5-4.323c0,0,1.821,0.682,2.73,0.91c0.913,0.229-3.639-7.963-0.453-17.974l2.501,3.867
			c0,0,0.229-4.323,5.917,0.455l2.502,2.275c0,0,3.639,0,4.777,4.096l0.228,4.323l5.46,3.413c0,0,5.46,22.979,10.238,26.619
			c0,0-0.456,0.455,1.82-2.958l2.274,2.978c0,0,1.593-2.295,4.552-4.57c0,0-0.453,3.907,0.456,4.57c0,0,5.231-6.39,11.373-8.438
			c0,0-1.364,2.276-0.908,5.46c0,0,3.412-6.825,9.1-10.238c0,0-1.136,5.233,1.594,5.688c0,0-2.047-3.413,5.914-11.604
			c0,0,15.698-12.058,12.286-32.08c0,0,1.365-18.884-15.926-26.62c0,0,1.593-3.64-6.825-8.419
			C195.029,46.146,185.476,40.229,183.881,45.008z"/>
		<path fill="none" stroke="#FFB574" stroke-width="1.3651" stroke-miterlimit="10" d="M136.511,104.783
			c0,0-2.458,11.665,5.963,18.49c0,0,7.507,7.321,8.419,9.122l11.146-4.116l5.005,12.286"/>
		<path fill="none" stroke="#FFB574" stroke-width="1.3651" stroke-miterlimit="10" d="M140.2,91.194c0,0,3.639,3.641,5.231,7.963
			c0,0,0.911,3.641,0,6.598c0,0-2.048,3.867,1.82,3.185c0,0,5.687-7.716,0-16.256"/>
		<path fill="none" stroke="#FFB574" stroke-width="1.3651" stroke-miterlimit="10" d="M148.221,107.264
			c0,0,5.472-3.596,5.401-4.921"/>
		
			<line fill="none" stroke="#FFB574" stroke-width="2.0477" stroke-miterlimit="10" x1="136.689" y1="97.55" x2="143.157" y2="94.856"/>
		<path fill="#FFE1C6" stroke="#FFB574" stroke-width="1.3651" stroke-miterlimit="10" d="M201.564,138.063
			c3.822,0.29,14.4,2.502,14.4,2.502s1.818,18.422,8.645,23.883c0,0,12.515,26.837,12.515,54.138c0,0-0.683,21.834,4.095,47.089
			c0,0,2.048,22.067,0,32.532c0,0-15.472,15.92-25.709,25.021c0,0-4.325,9.326-5.462,15.014c0,0,3.414,3.185,2.275,7.053
			c0,0,55.741,121.013,55.286,154.684c0,0-32.307-10.693-90.097-6.369c0,0-69.166,2.048-67.119,6.369c0,0,0.913,2.048,7.966,3.187
			c0,0-19.343,2.048-24.572,0c0,0-2.731-0.909,5.229-7.281c0,0-10.69,1.82-4.094-3.413c0,0-7.735-27.974-5.004-68.018
			c0,0-0.486-41.405-0.584-48.46c0,0,4.453-30.25,6.271-46.403c0,0,2.504-25.022,5.232-30.938c0,0-7.508,1.598-13.424,0.46
			c0,0-12.057,7.281-18.2,7.281c0,0-8.418,4.094-36.175-26.393c0,0-5.233-1.593-6.372-12.741c0,0-6.825-16.372,8.419-30.479
			c0,0,21.614-25.934,38.451-15.925c0,0,6.825-9.555,17.519-0.226c0,0,34.128-42.771,34.354-51.188c0,0,4.926-2.065,10.77-2.851
			l-0.984,1.271c0,0,9.125-11.604,9.796-14.789C144.99,153.07,162.591,134.429,201.564,138.063c-1.658-6.371,0-20.065,0-20.065"/>
		<path fill="#FFE1C6" stroke="#FFB574" stroke-width="1.3651" stroke-miterlimit="10" d="M124.792,497.255"/>
		<g>
			<g>
				<path fill="#FFB574" stroke="#FFB574" stroke-width="1.3651" stroke-miterlimit="10" d="M124.661,496.624
					c0,0,28.735,134.463,31.124,142.995c0,0-1.023,11.263-2.729,13.31c0,0-59.384,34.128-64.844,34.811c0,0-1.023,7.509,2.048,8.19
					h58.985c0,0,10.296-7.508,11.66-8.531v4.777c0,0,12.286,1.365,16.381-0.682l4.779-4.438c0,0,31.738-1.023,33.103-1.023
					c0,0,4.097-30.374,2.048-37.882l4.696-0.45c0.396-1.353,0.477-2.787,0.38-4.274c-2.813-5.637-7.468-15.835-7.468-21.554
					c0,0-0.682-21.842,1.706-32.762c0,0,1.365-54.946-5.46-74.059c0,0,37.54-2.047,46.073-5.46c0,0,10.757-4.3,10.47-9.611
					L124.661,496.624z M185.132,656l-2.73-4.096c-1.365-11.604-4.572-30.715-4.572-30.715c-2.186-11.262,0-52.215,0-52.215
					c7.37,18.77,16.517,69.278,16.517,69.278c0,7.167,3.754,7.85,3.754,7.85C195.371,647.467,185.132,656,185.132,656z"/>
			</g>
			<path fill="#FFB574" stroke="#FFB574" stroke-width="1.3651" stroke-miterlimit="10" d="M126.25,504.074
				c0,0-33.463-5.048-1.592-7.447c0,0,0.022-0.003,0.064-0.005c3.104-0.296,114.844-10.834,142.887,3.356"/>
		</g>
		<path fill="none" stroke="#FFB574" stroke-width="1.3651" stroke-miterlimit="10" d="M28.5,245.109
			c-4.254-4.601-1.548-6.831-1.548-6.831c-1.365-1.023-1.807-4.437-1.807-4.437c-1.637-4.095,3.854-6.314,3.854-6.314
			c-2.047-3.583-1.06-7.508-1.06-7.508c1.499-3.413,5.498-1.536,5.498-1.536c-9.727-13.822-3.584-15.357-3.584-15.357
			s1.023-3.584,11.091,14.845c0,0,2.048,2.56,7.85,2.389c0,0,2.52-1.288,4.162,1.66"/>
		<path fill="none" stroke="#FFB574" stroke-width="1.3651" stroke-miterlimit="10" d="M73.536,220.854
			c0,0-20.477,16.4-25.938,28.003"/>
		<path fill="none" stroke="#FFB574" stroke-width="1.3651" stroke-miterlimit="10" d="M88.045,230.429
			c0,0-14.51,60.065-22.018,47.096c0,0-3.009-22.279,11.009-39.588"/>
		<path fill="none" stroke="#FFB574" stroke-width="1.3651" stroke-miterlimit="10" d="M100.837,298.652
			c0,0,57.616-45.699,71.127-68.223"/>
		<path fill="none" stroke="#FFB574" stroke-width="1.3651" stroke-miterlimit="10" d="M143.157,213.365c0,0,19.112-27.303,15.017,0
			c0,0-11.244,30.501-18.25,41.529"/>
		<path fill="none" stroke="#FFB574" stroke-width="1.3651" stroke-miterlimit="10" d="M228.474,220.854
			c0,0-1.938,67.866-16.667,111.413"/>
		<path fill="none" stroke="#FFB574" stroke-width="1.3651" stroke-miterlimit="10" d="M189.251,327.351
			c0,0-69.984,25.255-46.095,29.351c0,0,35.097-12.425,51.875-18.43"/>
		<path fill="none" stroke="#FFB574" stroke-width="1.3651" stroke-miterlimit="10" d="M136.177,166.59
			c0,0,53.5-25.576,75.63-15.337"/>
		<path fill="none" stroke="#FFB574" stroke-width="1.3651" stroke-miterlimit="10" d="M212.323,345.293
			c0,0-13.198,9.356-17.294,11.405"/>
	</g>
</g>
</svg>
