<svg width="1078" height="1034" viewBox="0 0 1078 1034" fill="none" xmlns="http://www.w3.org/2000/svg">
<path d="M763.589 380.242C796.724 508.344 719.141 649.928 587.694 686.408C456.25 722.887 320.718 640.447 287.582 512.346C254.448 384.245 336.257 258.993 467.702 222.513C599.148 186.034 730.454 252.141 763.589 380.242Z" fill="#27E24F"/>
<path d="M621.747 515.584C621.092 530.719 609.01 542.224 594.942 543.173C563.449 545.198 532.731 553.703 504.476 568.219C491.841 574.658 475.597 570.587 467.702 557.819C463.865 551.376 463.291 543.822 465.699 536.535C468.104 529.27 473.716 522.689 481.518 518.686C515.667 501.141 552.795 490.862 590.86 488.414C608.488 487.27 622.419 500.503 621.747 515.584Z" fill="#299B3E"/>
<path d="M575.661 491.871C576.931 503.49 568.056 513.748 556.115 516.273C550.09 517.529 544.121 516.491 539.179 513.898C536.144 518.678 531.421 522.488 525.584 524.484C513.994 528.416 501.412 524.231 496.907 513.498C496.541 512.594 496.04 511.144 496.199 511.076C521.366 499.991 547.927 492.706 575.114 489.432C575.281 489.41 575.542 490.9 575.661 491.871Z" fill="#FDFFFD"/>
<path d="M478.924 457.807C492.919 471.446 482.574 488.59 463.196 483.871C448.665 498.104 431.522 488.674 437.131 469.534C423.135 455.892 433.481 438.751 452.859 443.469C467.39 429.236 484.532 438.665 478.924 457.807Z" fill="black"/>
<path d="M470.272 447.314C489.209 448.827 491.849 467.032 474.283 474.991C471.975 493.571 453.224 496.882 445.777 480.023C426.839 478.508 424.202 460.304 441.766 452.346C444.075 433.765 462.826 430.455 470.272 447.314Z" fill="black"/>
<path d="M467.831 460.86C473.081 459.391 476.467 454.807 475.393 450.623C474.32 446.438 469.194 444.236 463.944 445.706C458.694 447.175 455.308 451.759 456.382 455.943C457.455 460.128 462.581 462.329 467.831 460.86Z" fill="white"/>
<path d="M476.266 471.229C477.916 470.768 478.923 469.112 478.516 467.529C478.109 465.947 476.442 465.037 474.792 465.497C473.143 465.958 472.136 467.614 472.543 469.197C472.95 470.779 474.617 471.689 476.266 471.229Z" fill="white"/>
<path d="M606.365 423.654C620.36 437.294 610.017 454.437 590.638 449.718C576.108 463.952 558.963 454.522 564.572 435.381C550.576 421.74 560.923 404.598 580.302 409.316C594.832 395.083 611.973 404.512 606.365 423.654Z" fill="black"/>
<path d="M597.716 413.165C616.653 414.678 619.294 432.882 601.728 440.841C599.418 459.421 580.667 462.733 573.222 445.873C554.282 444.359 551.645 426.156 569.209 418.198C571.519 399.617 590.27 396.306 597.716 413.165Z" fill="black"/>
<path d="M595.274 426.711C600.524 425.241 603.91 420.658 602.837 416.473C601.763 412.288 596.637 410.087 591.387 411.556C586.137 413.026 582.752 417.609 583.825 421.794C584.898 425.979 590.024 428.18 595.274 426.711Z" fill="white"/>
<path d="M603.709 437.079C605.358 436.619 606.365 434.963 605.958 433.38C605.551 431.797 603.884 430.888 602.235 431.348C600.585 431.808 599.578 433.465 599.985 435.047C600.392 436.63 602.059 437.54 603.709 437.079Z" fill="white"/>
<path d="M154.555 756.597C162.9 751.349 173.096 750.918 182.602 752.987C187.362 754.013 191.962 755.648 196.128 757.614C200.304 759.58 204.034 761.803 207.126 764.297C207.126 764.297 207.735 764.761 208.877 765.633C210.009 766.392 211.658 767.604 213.626 768.63C215.599 769.696 217.844 770.629 220.225 771.167C222.625 771.756 225.17 771.937 228.534 771.563C230.216 771.359 232.146 770.902 234.275 770.315C235.359 769.902 236.535 769.612 237.594 769.131C238.137 768.899 238.692 768.74 239.251 768.472C239.815 768.204 240.381 767.934 240.954 767.662C243.252 766.493 245.62 765.206 247.455 763.839C249.336 762.472 250.923 761.069 252.243 759.606C254.852 756.678 256.661 753.483 257.955 748.606C259.223 743.784 259.673 737.343 258.996 730.101C258.672 726.486 258.098 722.693 257.314 718.811C256.533 714.961 255.505 710.794 254.494 707.414C253.773 705.112 253.054 702.818 252.34 700.535C251.583 698.02 250.828 695.518 250.08 693.029C248.59 687.917 247.156 682.585 245.932 676.989C243.496 665.846 241.833 653.41 242.912 640.057C243.45 633.412 244.718 626.594 246.779 620.03C248.834 613.474 251.642 607.193 254.952 601.622C258.257 596.042 261.955 591.173 265.671 586.917C269.42 582.794 273.156 579.12 276.735 576.172C278.514 574.618 280.285 573.265 282 571.962C283.708 570.62 285.399 569.482 287.024 568.369C288.661 567.221 290.193 566.284 291.67 565.365C293.143 564.434 294.559 563.586 295.92 562.838C301.32 559.729 305.766 557.688 308.854 556.314C310.377 555.616 311.578 555.116 312.411 554.801C313.233 554.476 313.658 554.309 313.658 554.309C323.572 550.38 334.464 548.863 344.735 550.262C347.342 550.651 349.874 551.21 352.211 551.842C354.676 552.609 356.989 553.505 359.091 554.47C361.268 555.545 363.288 556.786 365.051 558.03C366.82 559.274 368.448 560.862 369.783 562.295C368.907 561.855 368.008 561.427 367.092 561.01C366.17 560.58 365.236 560.186 364.312 559.906C362.453 559.294 360.499 558.687 358.537 558.215C356.627 557.843 354.662 557.519 352.663 557.249C350.7 557.03 348.792 556.986 346.807 556.921C339.033 556.872 331.571 558.269 324.722 560.533C317.852 562.795 311.606 565.972 305.98 569.734C300.361 573.499 295.341 577.836 291.008 582.742C286.682 587.607 282.733 592.769 279.329 598.38C275.935 603.967 273.178 609.966 271.34 616.058C269.487 622.149 268.556 628.292 268.385 634.162C268.206 640.046 268.812 645.644 269.767 650.966C271.715 661.617 275.127 671.203 278.6 680.533L283.858 694.385C284.726 696.675 285.569 698.916 286.252 701.188C286.961 703.473 287.616 705.805 288.202 708.141C290.528 717.486 291.773 727.176 291.259 736.796C290.761 746.387 288.346 755.93 283.627 764.015C278.951 772.129 272.006 778.512 263.95 782.664C259.929 784.76 255.637 786.351 251.227 787.524C246.845 788.671 242.449 789.2 238.178 789.283C230.494 789.486 223.827 788.664 217.565 787.114C211.294 785.559 204.991 783.109 198.184 779.732C184.589 773.013 169.913 763.088 154.555 756.597Z" fill="#299B3E"/>
<path d="M154.876 757.163L155.032 757.065C170.405 763.564 185.096 773.499 198.702 780.231C205.514 783.613 211.825 786.065 218.102 787.622C224.372 789.173 231.046 789.996 238.735 789.793C243.011 789.711 247.412 789.181 251.798 788.033C256.21 786.858 260.506 785.264 264.534 783.166C272.596 779.009 279.548 772.619 284.23 764.495C288.954 756.4 291.371 746.845 291.869 737.243C292.384 727.612 291.14 717.909 288.809 708.553C288.223 706.214 287.569 703.879 286.858 701.592C286.174 699.317 285.33 697.074 284.462 694.781L279.198 680.912C275.72 671.571 272.307 661.974 270.356 651.309C269.4 645.981 268.793 640.376 268.973 634.485C269.144 628.608 270.076 622.458 271.931 616.359C273.771 610.26 276.53 604.254 279.927 598.66C283.335 593.042 287.288 587.874 291.618 583.002C295.954 578.091 300.981 573.749 306.605 569.979C312.237 566.213 318.489 563.032 325.367 560.767C332.222 558.501 339.692 557.101 347.473 557.151C349.458 557.214 351.368 557.261 353.334 557.479C355.337 557.748 357.304 558.073 359.215 558.447C361.178 558.917 363.134 559.525 364.995 560.139C365.921 560.419 366.855 560.814 367.778 561.245C368.697 561.661 369.595 562.09 370.472 562.531C372.49 564.609 373.735 567.054 374.647 569.273C375.086 570.409 375.441 571.473 375.637 572.604C375.826 573.75 375.914 574.86 375.908 575.94C375.884 580.265 374.334 583.993 371.875 587.31C368.96 591.231 365.158 594.316 361.818 597.194C360.14 598.624 358.441 600.217 357.053 601.568C356.355 602.218 355.681 603.102 355.107 603.802C354.504 604.56 354.095 605.159 353.502 605.944C352.961 606.679 352.489 607.36 352.082 607.965C351.611 608.604 351.134 609.251 350.649 609.908C350.459 610.172 350.192 610.501 349.927 610.816L349.178 611.684C348.744 612.168 348.114 612.817 347.566 613.307C345.301 615.368 342.358 617.104 338.617 618.585C338.617 618.585 338.432 618.658 338.074 618.795C337.718 618.915 337.185 619.14 336.482 619.476C335.093 620.097 332.977 621.048 330.44 622.525C329.784 622.871 329.133 623.266 328.471 623.693C327.799 624.114 327.063 624.543 326.45 624.997C325.8 625.447 325.09 625.89 324.471 626.412C323.818 626.914 323.121 627.414 322.516 627.976C321.147 629.053 320.113 630.205 319.028 631.312C318.084 632.44 317.252 633.539 316.588 634.638C315.326 636.854 314.469 639.092 314.09 643.197C313.732 647.254 314.193 653.15 315.805 660.375C316.593 663.981 317.63 667.895 318.847 672.073C319.494 674.218 320.144 676.375 320.798 678.543C321.544 680.929 322.294 683.326 323.048 685.735C324.861 691.815 326.201 697.337 327.42 703.295C328.615 709.23 329.573 715.397 330.15 721.827C331.293 734.645 330.961 748.753 327.193 763.461C325.311 770.783 322.527 778.197 318.788 785.237C315.064 792.278 310.387 798.901 305.159 804.686C299.932 810.485 294.201 815.441 288.422 819.599C282.609 823.799 276.853 827.009 271.114 829.866C265.373 832.737 259.236 835.002 253.453 836.841C247.469 838.601 241.432 839.971 235.367 840.726C223.238 842.254 211.397 841.383 201.67 839.017C191.868 836.723 184.127 833.28 178.299 830.161C172.424 827.028 168.44 824.159 165.685 822.233C163.071 820.244 161.677 819.182 161.677 819.182C154.831 813.694 149.923 807.382 146.773 801.155C143.623 794.911 142.144 788.732 141.985 783.071C141.704 771.712 146.576 762.465 154.876 757.163Z" fill="#27E24F"/>
<path d="M339.997 838.054C346.981 831.667 356.863 829.681 366.638 831.097C376.428 832.476 386.021 837.07 393.38 843.598C393.38 843.598 394.106 844.227 395.471 845.406C396.829 846.578 398.818 848.215 401.271 850.084C403.666 851.865 406.705 853.943 409.364 855.342C409.65 855.499 409.974 855.676 410.328 855.869L410.975 854.544C411.229 854.048 411.494 853.557 411.774 853.066C412.071 852.647 412.297 851.882 412.567 851.276L413.38 849.358C417.603 838.741 419.587 824.043 418.29 810.154C417.615 803.217 416.178 796.484 414.108 790.622C412.084 784.754 409.3 779.835 406.629 776.367C406.347 775.945 405.916 775.484 405.485 775.019C405.041 774.549 404.714 774.104 404.203 773.599C403.164 772.586 402.247 771.595 400.98 770.475C398.706 768.336 395.812 765.922 392.868 763.439C386.799 758.348 379.8 752.591 373.164 745.441C366.515 738.364 360.425 729.405 356.715 720.276C352.975 711.374 351.388 701.843 351.409 693.825C351.448 691.808 351.426 689.901 351.623 688.106C351.822 686.309 352.047 684.624 352.278 683.059C352.479 681.482 352.803 680.078 353.127 678.794C353.456 677.51 353.756 676.343 354.022 675.298C354.549 673.18 355.176 671.748 355.527 670.707C355.907 669.69 356.103 669.168 356.103 669.168L357.005 666.889C357.323 666.148 357.682 665.474 358.03 664.774C358.736 663.389 359.472 662.033 360.234 660.71C361.004 659.413 361.839 658.273 362.67 657.095C363.51 655.964 364.347 654.741 365.238 653.783C368.763 649.705 372.515 646.471 376.214 644.133C383.639 639.389 390.787 637.563 396.967 637.569C392.034 639.837 386.977 643.069 382.107 647.358C377.263 651.667 372.539 657.098 368.872 663.943C365.202 670.724 362.757 678.969 362.629 687.077C362.442 695.195 364.507 702.773 367.608 708.683C370.801 714.527 374.631 719.68 378.855 723.899C383.098 728.041 387.486 731.486 391.834 734.36C400.52 740.102 408.901 744.277 416.432 749.01C424.037 753.732 430.536 758.881 435.559 765.941C440.598 772.911 444.185 781.097 446.469 789.653C448.749 798.225 449.735 807.219 449.494 816.21C449.232 825.197 447.805 834.229 444.937 842.784C444.242 844.922 443.358 847.004 442.563 849.092C441.769 851.181 440.647 853.145 439.695 855.142C437.617 859.061 435.207 862.816 432.53 866.032L431.559 867.266C431.239 867.644 430.926 867.912 430.61 868.231C429.98 868.842 429.367 869.439 428.746 870.002C427.391 871.059 426.119 872.068 424.674 872.804C421.873 874.334 418.805 875.116 415.854 874.792C413.227 874.609 410.8 873.821 408.688 872.88C406.567 871.925 404.716 870.836 402.95 869.767C400.337 868.255 397.161 866.342 394.02 864.399C390.712 862.331 387.419 860.271 384.152 858.228C370.597 849.854 355.604 841.407 339.997 838.054Z" fill="#299B3E"/>
<path d="M340.095 838.473L340.224 838.354C355.778 841.702 370.719 850.133 384.228 858.497C387.486 860.537 390.767 862.592 394.062 864.658C397.19 866.598 400.356 868.506 402.962 870.016C404.721 871.083 406.566 872.17 408.68 873.124C410.785 874.063 413.205 874.85 415.822 875.033C418.761 875.354 421.819 874.574 424.611 873.048C426.051 872.313 427.319 871.304 428.669 870.251C429.289 869.688 429.899 869.093 430.526 868.482C430.84 868.163 431.153 867.896 431.472 867.519L432.44 866.287C435.106 863.079 437.507 859.331 439.58 855.417C440.528 853.423 441.644 851.461 442.438 849.376C443.23 847.293 444.113 845.215 444.803 843.079C447.664 834.54 449.086 825.524 449.345 816.551C449.587 807.575 448.603 798.597 446.33 790.039C444.054 781.498 440.48 773.327 435.458 766.369C430.452 759.319 423.975 754.181 416.397 749.466C408.891 744.74 400.539 740.572 391.884 734.842C387.55 731.973 383.178 728.534 378.95 724.398C374.739 720.189 370.922 715.045 367.741 709.209C364.65 703.307 362.593 695.744 362.779 687.64C362.906 679.545 365.343 671.315 369 664.545C372.655 657.712 377.363 652.291 382.19 647.989C387.043 643.707 392.083 640.48 396.999 638.217C406.022 638.29 413.093 642.1 417.473 648.335C422.723 655.791 423.286 665.269 422.384 673.762C422.003 678.006 421.261 682.009 420.75 685.168C420.194 688.347 420.081 690.51 419.857 691.187C419.895 691.173 419.745 691.357 419.731 691.515C419.739 691.69 419.608 691.736 419.692 691.879C419.742 692.027 419.587 692.491 420.232 694.054C420.831 695.393 421.788 697.297 424.675 700.412C427.526 703.518 432.16 707.543 438.387 712.725C441.565 715.416 445.011 718.266 448.873 721.867C450.746 723.547 452.775 725.611 454.765 727.625C455.763 728.638 456.805 729.853 457.82 730.975C458.84 732.111 459.857 733.264 460.867 734.593C468.918 744.835 474.612 755.976 478.596 767.355C482.578 778.733 484.939 790.342 486.063 801.986C487.12 813.634 486.915 825.337 485.443 836.977C483.955 848.612 481.198 860.201 476.759 871.512C476.166 872.928 475.575 874.337 474.985 875.741C474.358 877.158 473.875 878.488 473.061 879.979C472.302 881.431 471.548 882.876 470.798 884.314L469.649 886.452L469.072 887.514L468.783 888.044L468.371 888.717C467.236 890.547 466.061 892.35 464.854 894.111C464.247 894.988 463.647 895.87 463.012 896.715L461.026 899.178C459.679 900.792 458.339 902.405 456.915 903.904C455.447 905.359 453.955 906.774 452.449 908.146C446.311 913.492 439.471 917.608 432.353 920.308C425.193 922.907 417.859 923.994 410.859 924C403.836 924.065 397.151 922.746 391.003 920.952C387.938 919.977 384.977 918.963 382.191 917.721C380.791 917.121 379.422 916.501 378.089 915.873C377.11 915.363 376.145 914.86 375.198 914.367C367.749 910.38 362.651 906.701 358.478 903.628C354.427 900.55 351.477 898.09 349.524 896.412C347.586 894.728 346.553 893.831 346.553 893.831C336.285 884.669 331.323 873.666 330.553 863.796C329.829 853.889 333.16 844.917 340.095 838.473Z" fill="#27E24F"/>
<path d="M593.221 882.215C594.207 877.702 596.107 873.534 598.299 869.821C599.396 867.959 600.526 866.141 601.679 864.491C602.757 862.762 603.918 861.228 604.776 859.693C605.243 858.956 605.658 858.238 605.953 857.527L606.414 856.531L606.666 855.561C606.735 855.255 606.838 854.98 606.796 854.681L606.77 854.269L606.751 854.077C606.736 853.983 606.766 854.133 606.794 854.264L606.874 854.637C607.089 855.625 607.175 856.349 607.42 857.237L608.09 859.583C609.03 862.518 610.237 864.484 610.776 865.137C611.355 865.865 611.178 865.326 609.42 864.42C609.42 864.42 609.227 864.308 608.854 864.139C608.655 864.055 608.409 863.951 608.114 863.829C607.743 863.663 607.311 863.491 606.824 863.338C606.405 863.232 605.589 862.903 604.872 862.736C604.189 862.588 603.151 862.29 602.082 862.094C601.101 861.952 599.653 861.638 598.265 861.513C597.497 861.436 596.705 861.356 595.891 861.272L595.249 861.222L594.959 861.202L594.96 861.206C594.96 861.206 594.966 861.216 594.971 861.213C594.964 861.025 595.052 859.766 594.621 857.394C594.229 855.064 593.34 851.749 591.918 847.916C589.066 840.241 583.915 830.389 577.22 821.375C573.926 816.926 570.145 812.563 566.784 809.581C565.145 808.079 563.586 807.002 563.073 806.705C560.155 805.248 557.224 803.785 554.296 802.323C547.141 798.731 539.563 794.863 531.835 790.305C524.125 785.772 516.26 780.445 509.04 774.293C501.814 768.164 495.302 761.262 489.992 754.245C484.68 747.166 480.58 740.324 477.12 733.51C470.152 719.811 466.932 706.134 465.874 696.403C465.366 691.516 465.186 687.61 465.246 684.941C465.279 682.269 465.296 680.847 465.296 680.847C465.655 672.458 468.398 664.688 472.335 658.708C473.349 657.22 474.411 655.825 475.512 654.534C476.611 653.239 477.86 652.115 479.071 651.058C481.483 648.933 484.127 647.332 486.794 646.168C480.714 653.452 476.319 663.773 475.361 674.662C474.388 685.548 476.875 696.559 481.641 704.889C486.341 713.33 491.887 720.53 497.645 726.911C503.416 733.244 509.463 739.03 515.912 744.165C528.786 754.504 542.787 761.671 556.504 768.567C563.373 772.031 570.2 775.478 576.848 779.225C583.106 782.629 588.009 788.045 592.242 793.957C600.543 805.892 605.891 820.275 607.535 834.64C608.291 841.062 609.248 847.3 609.982 852.793C610.8 858.252 610.987 863.002 611.408 864.873C611.596 865.822 612.33 866.208 612.444 867.367C612.537 867.961 612.266 868.638 611.857 869.481C611.349 870.26 610.666 871.181 609.691 872.028C607.8 873.785 605.164 875.499 602.316 877.174C599.453 878.881 596.352 880.449 593.221 882.215Z" fill="#299B3E"/>
<path d="M592.441 882.922L592.476 882.754C595.598 880.991 598.689 879.424 601.54 877.722C604.378 876.049 607.007 874.337 608.892 872.582C609.864 871.736 610.546 870.817 611.052 870.039C611.46 869.197 611.73 868.518 611.638 867.927C611.524 866.77 610.791 866.385 610.604 865.436C610.185 863.567 610 858.824 609.182 853.371C608.451 847.885 607.496 841.653 606.743 835.241C605.105 820.894 599.772 806.528 591.497 794.608C587.277 788.705 582.391 783.293 576.15 779.894C569.522 776.151 562.714 772.709 555.868 769.25C542.195 762.362 528.237 755.205 515.4 744.878C508.971 739.749 502.942 733.97 497.188 727.645C491.448 721.272 485.919 714.081 481.234 705.65C476.481 697.331 474.002 686.334 474.973 675.461C475.928 664.586 480.307 654.277 486.371 647.001C490.196 645.269 494.24 644.606 498.058 644.738C501.892 644.879 505.577 645.884 509.066 647.616C513.201 649.672 516.696 652.513 519.63 655.57C521.114 657.103 522.373 658.68 523.631 660.288C524.881 661.897 525.995 663.507 526.946 665.084C527.977 666.668 528.905 668.217 529.618 669.709C530.492 671.203 531.071 672.638 531.648 674.015C532.72 676.776 533.383 679.267 533.195 681.834C533.195 681.834 533.197 682.344 533.201 683.299C533.14 684.254 533.26 685.661 533.423 687.474C533.87 691.096 534.922 696.44 538.363 703.286C540.103 706.711 542.424 710.581 545.017 714.054C547.665 717.546 550.757 720.837 554.541 724.069C558.321 727.299 562.866 730.468 568.31 733.673C573.729 736.882 579.987 740.122 586.727 743.506L591.859 746.071L594.472 747.376L595.126 747.702L596.246 748.278L598.727 749.63C604.881 753.229 609.395 756.863 613.383 760.427C621.3 767.577 627.148 774.637 632.431 781.702C642.808 795.819 650.269 809.868 655.488 823.702C658.057 830.644 660.03 837.518 661.232 844.42C662.448 851.273 662.84 858.268 662.294 864.836C661.749 871.456 660.062 877.674 658.306 882.026C657.413 884.231 656.628 885.902 655.985 887.089C655.362 888.244 655.042 888.84 655.042 888.84C651.66 894.911 646.345 900.653 640.535 904.468C634.722 908.365 628.78 910.364 623.775 911.168C618.717 911.988 614.396 911.748 610.874 910.961C609.987 910.765 609.118 910.553 608.29 910.316C607.505 910.049 606.743 909.762 606.008 909.462C604.507 908.884 603.211 908.174 602.029 907.411C597.261 904.376 594.495 900.386 593.027 896.178C591.594 891.928 591.482 887.456 592.441 882.922Z" fill="#27E24F"/>
<path d="M729.325 834.969C725.078 833.158 721.303 830.733 717.942 828.326C716.265 827.118 714.694 825.912 713.251 824.757C711.857 823.613 710.492 822.487 709.148 821.382C707.849 820.288 706.696 819.267 705.734 818.323C704.767 817.378 703.715 816.369 703.031 815.486C702.67 815.036 702.371 814.6 702.122 814.165C701.791 813.694 701.518 813.228 701.307 812.766C700.85 811.828 700.827 810.966 700.666 809.902C700.666 809.902 700.642 809.493 700.596 808.728C700.585 808.344 700.569 807.872 700.553 807.315C700.459 806.73 700.352 806.058 700.233 805.306C700.075 804.544 700.121 803.728 699.819 802.777C699.581 801.838 699.341 800.82 699.109 799.72C698.791 798.62 698.353 797.445 697.987 796.194C697.645 794.938 696.952 793.657 696.455 792.28C694.142 786.875 690.417 780.524 685.477 775.279C684.871 774.626 684.259 773.967 683.642 773.307C682.991 772.737 682.344 772.154 681.705 771.554C681.086 770.907 680.399 770.424 679.725 769.92L678.727 769.137L678.231 768.735C678.103 768.62 677.694 768.352 677.438 768.168C675.098 766.529 672.743 764.88 670.375 763.221C667.933 761.554 665.48 759.88 663.028 758.205C653.046 751.418 642.27 744.232 631.907 735.97C621.563 727.776 611.723 718.181 604.421 708.289C603.506 707.062 602.568 705.923 601.742 704.687C600.937 703.426 600.151 702.195 599.383 700.993C598.628 699.785 597.893 698.606 597.179 697.463C596.461 696.322 595.779 695.205 595.229 694.035C594.091 691.73 593.024 689.572 592.038 687.579C591.562 686.575 591.077 685.621 590.677 684.687C590.319 683.736 589.978 682.83 589.654 681.97C588.371 678.519 587.408 675.793 586.76 673.932C586.437 673.001 586.309 672.277 586.166 671.792C586.041 671.308 585.978 671.058 585.978 671.058C585.229 668.121 584.844 665.164 584.804 662.302C584.782 659.441 585.443 656.721 586.202 654.141C587.021 651.571 588.07 649.158 589.481 647.007C590.987 644.875 592.726 642.963 594.657 641.304C594.069 643.002 593.585 644.767 593.198 646.574C592.894 648.4 592.805 650.297 592.757 652.207C592.723 654.119 592.79 656.059 592.954 658C593.078 659.938 593.659 661.901 594.136 663.831C594.661 665.765 595.28 667.676 595.979 669.541C596.703 671.402 597.766 673.181 598.761 674.909C599.79 676.636 600.888 678.29 602.047 679.853C603.335 681.365 604.717 682.775 606.117 684.084C617.308 694.726 629.09 702.11 640.199 708.431C651.344 714.751 662.048 720.299 672.168 726.737C677.222 729.94 682.127 733.342 686.815 737.021C689.177 738.845 691.436 740.787 693.673 742.766C695.993 744.738 697.925 746.822 699.803 748.895C700.741 749.941 701.536 751.147 702.376 752.268C703.211 753.397 704.012 754.545 704.688 755.808C705.391 757.039 706.073 758.269 706.733 759.499C707.324 760.793 707.871 762.104 708.406 763.402L709.187 765.348L709.808 767.389C710.209 768.747 710.594 770.095 710.941 771.441C711.207 772.843 711.45 774.234 711.671 775.614L711.978 777.68L712.111 779.799C712.834 789.859 714.793 798.609 717.632 806.97C720.513 815.348 724.887 823.76 729.325 834.969Z" fill="#299B3E"/>
<path d="M728.467 835.334L728.31 835.267C723.895 824.084 719.542 815.69 716.668 807.34C713.844 798.998 711.893 790.269 711.175 780.233L711.043 778.119L710.737 776.057C710.518 774.681 710.277 773.293 710.011 771.894C709.666 770.551 709.282 769.206 708.884 767.852L708.266 765.816L707.489 763.874C706.957 762.579 706.41 761.271 705.824 759.98C705.167 758.754 704.489 757.526 703.79 756.298C703.119 755.037 702.32 753.893 701.489 752.766C700.652 751.646 699.864 750.445 698.929 749.402C697.06 747.331 695.138 745.254 692.83 743.287C690.604 741.312 688.357 739.377 686.007 737.555C681.343 733.885 676.462 730.491 671.433 727.295C661.365 720.873 650.714 715.34 639.625 709.032C628.574 702.724 616.851 695.36 605.716 684.743C604.323 683.437 602.948 682.032 601.666 680.522C600.515 678.962 599.422 677.31 598.397 675.59C597.406 673.863 596.349 672.091 595.629 670.234C594.933 668.373 594.318 666.466 593.795 664.537C593.321 662.612 592.743 660.653 592.619 658.72C592.456 656.783 592.389 654.848 592.422 652.941C592.471 651.035 592.559 649.142 592.862 647.321C593.247 645.518 593.729 643.758 594.313 642.063C599.935 637.218 607.145 634.641 615.073 634.408C624.472 634.151 633.138 636.784 639.43 640.155C642.45 641.938 645.44 643.648 647.396 645.647C649.253 647.731 650.959 649.583 651.448 651.953C651.448 651.953 651.474 652.069 651.523 652.295C651.587 652.511 651.612 652.876 651.77 653.273C652.089 654.068 652.542 655.236 653.06 656.746C653.188 657.123 653.32 657.523 653.46 657.942C653.635 658.345 653.872 658.737 654.081 659.164C654.517 660.012 654.969 660.935 655.431 661.937C655.625 662.45 655.95 662.936 656.291 663.436C656.614 663.943 656.947 664.463 657.288 664.999C657.616 665.541 657.954 666.098 658.299 666.669C658.661 667.238 659.172 667.785 659.606 668.372C663.031 673.053 668.31 678.495 675.773 684.438C683.176 690.387 692.608 696.785 702.726 703.659C705.291 705.414 707.855 707.17 710.41 708.919C712.997 710.734 715.575 712.545 718.131 714.34C718.48 714.592 718.703 714.728 719.156 715.075L720.425 716.041L722.937 717.982C724.612 719.275 726.269 720.575 727.733 721.972C729.233 723.354 730.722 724.731 732.201 726.097C733.594 727.502 734.904 728.938 736.229 730.351C746.705 741.716 753.744 753.802 758.559 764.949C759.683 767.786 760.893 770.408 761.734 773.103C762.597 775.785 763.444 778.301 764.126 780.737C764.711 783.228 765.258 785.557 765.766 787.71C766.31 789.835 766.496 791.975 766.809 793.814C767.077 795.679 767.316 797.34 767.491 798.797C767.582 800.299 767.662 801.576 767.726 802.613C767.83 804.687 767.887 805.795 767.887 805.795C768.103 808.557 767.625 811.465 767.075 814.155C766.783 815.51 766.429 816.827 766.019 818.1C765.513 819.406 764.951 820.665 764.34 821.873C763.076 824.293 761.786 826.474 760.037 828.422C758.293 830.37 756.414 832.043 754.453 833.407C753.461 834.09 752.492 834.702 751.433 835.226C750.347 835.747 749.251 836.19 748.151 836.555C745.947 837.285 743.724 837.705 741.513 837.829C737.089 838.077 732.721 837.13 728.467 835.334Z" fill="#27E24F"/>
<path d="M881.514 663.4C885.718 665.177 889.293 667.779 892.204 670.948C895.109 674.113 897.338 677.904 898.662 682.279C899.983 686.65 900.406 691.621 899.562 697.08C898.722 702.52 896.644 708.461 892.679 714.602C892.337 715.147 891.977 715.698 891.588 716.259L890.333 718.094C889.347 719.53 888.125 721.148 886.983 722.633C884.638 725.643 882.115 728.504 879.444 731.202C874.07 736.554 867.96 741.071 861.294 744.356C854.649 747.664 847.412 749.744 840.083 750.326C832.751 750.946 825.397 750.159 818.335 748.095C816.187 747.395 814.054 746.68 811.94 745.891C809.84 745.065 807.776 744.12 805.73 743.16C803.707 742.141 801.718 741.06 799.748 739.924C797.718 738.71 795.439 737.21 794.274 736.417C788.742 732.569 784.038 728.499 779.836 724.401C771.456 716.182 764.878 707.839 758.921 699.622C753.013 691.405 747.812 683.271 742.911 675.428C738.025 667.625 733.431 659.975 729.17 653.758C723.435 645.442 718.884 637.93 714.238 631.141C709.632 624.331 705.006 618.049 700.444 612.906C698.175 610.347 695.931 608.094 693.901 606.337L693.81 606.257C693.809 606.253 693.812 606.263 693.81 606.257C693.81 606.257 693.663 605.942 693.226 605.517C692.797 605.091 692.085 604.561 691.067 604.103C690.03 603.672 688.764 603.161 687.029 603.154C686.586 603.172 686.205 603.026 685.664 603.197C685.094 603.424 684.52 603.641 683.936 603.847C682.769 604.247 681.566 604.621 680.336 605.003C680.972 604.343 681.612 603.675 682.254 603.004L683.167 602.005C683.412 601.79 683.588 601.716 683.791 601.567C684.594 600.982 685.186 600.68 685.751 600.283C686.866 599.53 687.698 598.755 688.552 597.817C689.398 596.863 690.334 595.836 691.535 594.762C692.739 593.744 694.195 592.709 695.984 591.75C697.777 590.837 699.899 590.436 702.173 590.535C703.311 590.588 704.493 590.746 705.712 591.026L706.632 591.26C706.959 591.36 707.209 591.379 707.647 591.603C708.443 591.973 709.252 592.322 710.052 592.728C716.485 595.947 722.683 600.642 728.399 605.875C734.132 611.135 739.415 617.008 744.396 623.17C746.891 626.251 749.311 629.409 751.74 632.607L755.384 637.362C756.553 638.929 757.69 640.531 758.804 642.154C767.682 655.238 775.014 669.426 783.012 683.776C787.042 690.959 791.168 698.252 796.15 705.525C798.645 709.16 801.345 712.801 804.452 716.386C807.263 719.75 811.903 724.008 816.805 727.343C818.645 728.64 820.659 729.703 822.74 730.775C827.508 733.091 832.88 734.55 838.457 734.579C844.021 734.654 849.707 733.33 854.846 730.809C859.993 728.289 864.616 724.647 868.488 720.389C870.429 718.262 872.176 715.977 873.76 713.631C875.301 711.332 876.853 708.643 877.672 706.839C881.395 698.886 883.009 691.191 883.464 683.944C883.902 676.673 883.055 669.902 881.514 663.4Z" fill="#299B3E"/>
<path d="M881.289 662.425L881.447 662.491C882.989 669 883.835 675.777 883.391 683.054C882.935 690.31 881.319 698.014 877.592 705.976C876.772 707.78 875.218 710.472 873.675 712.775C872.09 715.125 870.34 717.411 868.397 719.541C864.52 723.803 859.892 727.45 854.739 729.972C849.593 732.496 843.901 733.821 838.331 733.746C832.747 733.717 827.37 732.257 822.594 729.938C820.512 728.864 818.495 727.8 816.653 726.502C811.746 723.165 807.1 718.901 804.285 715.533C801.174 711.944 798.473 708.3 795.974 704.66C790.985 697.379 786.854 690.076 782.819 682.886C774.814 668.52 767.473 654.316 758.583 641.218C757.468 639.593 756.329 637.989 755.159 636.421L751.511 631.66C749.077 628.459 746.656 625.297 744.158 622.212C739.171 616.044 733.882 610.163 728.142 604.899C722.419 599.66 716.215 594.959 709.774 591.736C708.973 591.33 708.163 590.981 707.366 590.611C706.927 590.386 706.677 590.367 706.349 590.267L705.428 590.032C704.208 589.754 703.024 589.594 701.885 589.541C699.61 589.442 697.486 589.843 695.689 590.758C693.897 591.718 692.44 592.753 691.234 593.773C690.033 594.85 689.095 595.876 688.248 596.831C687.393 597.77 686.559 598.547 685.444 599.3C684.879 599.697 684.287 600 683.481 600.585C683.278 600.737 683.102 600.809 682.857 601.024L681.943 602.025C681.3 602.696 680.66 603.364 680.022 604.025C672.825 606.164 664.827 606.694 657.671 603.722C653.411 602.01 649.789 599.406 646.862 596.213C643.98 592.943 641.763 589.045 640.774 584.193C640.647 583.591 640.535 582.978 640.439 582.357C640.367 581.687 640.466 580.733 640.513 579.904C640.673 578.164 640.828 576.414 641.314 574.483C641.775 572.588 642.24 570.544 642.971 568.557C643.733 566.6 644.496 564.488 645.532 562.496C646.62 560.556 647.702 558.459 649.066 556.55C650.452 554.669 651.872 552.685 653.59 550.986C654.432 550.114 655.302 549.25 656.199 548.403C657.091 547.55 658.114 546.867 659.094 546.1C660.103 545.378 661.065 544.55 662.157 543.934C663.251 543.319 664.353 542.7 665.46 542.078C666.419 541.515 667.423 541.047 668.449 540.619L671.512 539.322C673.577 538.522 675.722 537.927 677.839 537.29C679.999 536.836 682.178 536.432 684.358 536.116C686.546 535.907 688.75 535.913 690.94 535.662C693.143 535.698 695.354 535.694 697.546 535.938C698.642 536.043 699.742 536.103 700.834 536.246L704.096 536.812C706.267 537.196 708.4 537.815 710.532 538.398C712.633 539.108 714.755 539.757 716.796 540.663C720.927 542.338 724.889 544.488 728.674 546.933C732.471 549.302 736.153 552.147 739.439 554.939C744.246 559.094 748.324 563.292 752.035 567.465C759.418 575.816 765.388 584.118 770.872 592.191C776.362 600.256 781.157 608.121 785.66 614.592C791.544 623.233 796.167 631.032 800.837 638.459C805.461 645.863 809.974 652.872 814.568 659.257C819.147 665.606 823.847 671.368 828.362 675.775C830.608 677.975 832.792 679.796 834.703 681.117C835.426 681.58 835.033 681.334 834.947 681.283L834.942 681.281L835.826 679.953C839.483 674.345 846.488 667.99 854.809 664.081C858.973 662.119 863.472 660.768 868.003 660.394C872.535 660.015 877.052 660.666 881.289 662.425Z" fill="#27E24F"/>
<path d="M925.724 497.727C932.017 490.941 940.792 487.116 950.938 488.435C955.993 489.096 961.465 491.217 966.81 495.435C972.09 499.643 977.406 506.198 980.426 515.295C980.426 515.295 981.02 517.096 981.953 520.533C982.332 522.306 982.81 524.498 983.207 527.104C983.482 529.733 983.887 532.789 983.81 536.166C983.877 539.615 983.523 543.164 983.007 547.025C982.678 548.9 982.347 550.847 981.887 552.867C981.354 554.888 980.837 557.004 980.128 559.126C977.311 567.621 972.723 576.806 965.248 585.562C961.519 589.934 956.981 594.15 951.689 597.993C946.186 601.913 939.772 605.249 932.948 607.576C931.224 608.127 929.48 608.674 927.712 609.143C925.927 609.549 924.122 609.923 922.3 610.261C920.483 610.609 918.626 610.742 916.766 610.935C915.828 611.012 914.921 611.12 913.948 611.141L911.012 611.136L908.118 611.065L905.573 610.955C903.855 610.906 902.253 610.591 900.579 610.383C898.923 610.143 897.254 609.888 895.604 609.59C894.03 609.216 892.451 608.822 890.871 608.406C884.506 606.767 878.857 604.334 873.502 601.689C870.931 600.329 868.428 598.9 865.999 597.429C863.743 595.925 861.291 594.414 859.208 592.832C850.569 586.537 843.415 579.779 837.01 573.212L832.368 568.329C830.918 566.747 829.469 565.165 828.021 563.586C826.623 562.038 825.228 560.492 823.835 558.95L822.786 557.788L822.25 557.187L821.604 556.428L819.049 553.386C818.601 552.859 818.233 552.396 817.889 551.951L816.819 550.591L814.722 547.901C813.45 546.21 812.186 544.528 810.929 542.855C808.64 539.773 806.38 536.727 804.154 533.733C799.913 528.077 796.023 523.24 792.538 519.563C789.08 515.87 786.036 513.446 784.217 512.366C784.002 512.254 783.795 512.135 783.597 512.005L783.305 511.804C783.217 511.754 783.163 511.771 783.096 511.746C782.819 511.704 782.678 511.503 782.38 511.432C782.214 511.416 782.056 511.389 781.906 511.348L781.684 511.28L781.576 511.239C781.534 511.244 781.58 510.958 781.576 510.831L781.578 510.77C781.336 511.606 781.485 510.995 781.421 511.18L781.333 511.159L781.158 511.118L780.808 511.036L780.12 510.873C779.664 510.763 779.215 510.656 778.772 510.548C775.926 509.986 773.544 509.756 771.405 509.668C770.359 509.623 769.418 509.677 768.602 509.645C767.793 509.689 767.104 509.728 766.548 509.757C765.986 509.763 765.573 509.825 765.293 509.862C765.015 509.897 764.87 509.913 764.87 509.913C761.478 510.282 758.48 509.764 755.539 508.539C754.808 508.237 754 507.853 753.318 507.501C752.627 507.139 751.72 506.656 751.038 506.24C749.371 505.236 747.73 504.248 746.11 503.272C750.307 503.285 755.093 502.408 760.858 501.233C763.687 500.593 766.715 499.943 769.793 499.205C772.882 498.412 776.025 497.701 779.194 496.825L781.596 496.278C782.414 496.102 783.374 496.056 784.268 495.946L785.638 495.807C786.114 495.764 786.336 495.707 786.705 495.655L788.792 495.329C789.511 495.218 790.126 495.298 790.833 495.27C791.523 495.307 792.238 495.178 792.974 495.352C794.434 495.646 795.992 495.744 797.546 496.341C803.852 498.244 810.339 502.284 816.262 507.082C822.23 511.903 827.748 517.543 833.094 523.402C835.765 526.376 838.434 529.35 841.102 532.322C842.414 533.827 843.846 535.315 845.218 536.816L849.365 541.12C854.838 546.861 860.183 552.8 865.812 558.629C871.439 564.463 877.382 570.187 884.336 575.316L886.97 577.234L889.776 579.006C891.61 580.263 893.683 581.228 895.71 582.328C896.708 582.909 897.832 583.281 898.91 583.76C900.008 584.202 901.092 584.7 902.228 585.104L905.734 586.169L907.519 586.7C908.122 586.846 908.741 586.945 909.36 587.069C919.708 589.412 931.688 587.662 942.489 581.953C952.13 576.95 959.944 568.124 964.278 557.89C964.788 556.597 965.316 555.306 965.746 553.981C966.143 552.649 966.517 551.306 966.863 549.96C967.427 547.267 967.875 544.58 967.991 541.777C968.298 536.223 967.571 530.388 965.696 525.257C963.839 520.11 961.044 515.679 957.88 512.13C954.718 508.543 951.156 505.875 947.561 503.821C940.347 499.702 932.926 498.109 925.724 497.727Z" fill="#299B3E"/>
<path d="M925.337 496.729L925.453 496.599C932.67 496.983 940.106 498.58 947.336 502.717C950.938 504.777 954.507 507.452 957.675 511.049C960.848 514.608 963.649 519.053 965.507 524.214C967.386 529.359 968.115 535.209 967.807 540.78C967.691 543.591 967.243 546.286 966.677 548.987C966.328 550.337 965.955 551.684 965.558 553.02C965.126 554.346 964.598 555.643 964.087 556.939C959.745 567.203 951.914 576.053 942.254 581.071C931.432 586.795 919.427 588.549 909.058 586.201C908.44 586.076 907.819 585.977 907.213 585.83L905.425 585.298L901.912 584.23C900.774 583.825 899.687 583.326 898.588 582.883C897.508 582.402 896.381 582.029 895.381 581.447C893.35 580.344 891.273 579.376 889.435 578.115L886.623 576.339L883.984 574.415C877.016 569.271 871.061 563.531 865.423 557.681C859.783 551.835 854.427 545.879 848.943 540.122L844.788 535.806C843.411 534.301 841.977 532.808 840.664 531.299C837.99 528.319 835.317 525.338 832.639 522.353C827.282 516.478 821.754 510.822 815.773 505.988C809.84 501.176 803.341 497.124 797.02 495.216C795.463 494.617 793.902 494.521 792.439 494.224C791.702 494.05 790.985 494.179 790.293 494.142C789.586 494.17 788.969 494.09 788.249 494.202L786.158 494.528C785.788 494.58 785.565 494.637 785.088 494.68L783.715 494.82C782.819 494.93 781.858 494.977 781.038 495.153L778.631 495.702C775.453 496.579 772.307 497.293 769.211 498.088C766.128 498.828 763.093 499.479 760.259 500.122C754.482 501.301 749.686 502.179 745.48 502.167L743.49 500.992L741.385 499.803C739.872 498.995 738.367 498.19 736.862 497.386C733.747 495.738 730.345 494.005 727.348 491.651C723.792 488.865 721.163 485.338 720.308 480.578C719.872 478.181 719.963 475.762 720.513 473.007C720.791 471.607 721.208 470.314 721.747 468.954C722.284 467.603 722.952 466.187 723.741 464.809C726.871 459.435 731.969 454.299 738.227 450.468C744.471 446.641 751.799 444.157 759.452 443.322C759.452 443.322 759.83 443.281 760.562 443.201C761.293 443.12 762.38 442.996 763.78 442.929C765.185 442.852 766.92 442.734 768.954 442.669C770.98 442.67 773.313 442.613 775.917 442.715C781.08 442.901 787.539 443.511 794.602 444.952C796.186 445.32 797.822 445.7 799.505 446.093C801.797 446.704 804.145 447.38 806.533 448.125C808.918 448.916 811.348 450.039 813.801 451.112C814.405 451.39 815.049 451.665 815.623 451.959L817.274 452.87C818.372 453.499 819.484 454.132 820.605 454.772C829.291 460.029 836.279 466.352 842.371 472.779C848.455 479.23 853.689 485.905 858.551 492.371C860.846 495.465 863.18 498.608 865.541 501.791C866.626 503.239 867.721 504.696 868.818 506.158L870.369 508.147L871.136 509.127C871.4 509.469 871.65 509.785 871.851 510.012L873.139 511.558L873.456 511.947L873.922 512.466L874.889 513.536C876.187 514.973 877.488 516.416 878.792 517.861L882.631 522.055L886.358 525.977C891.251 531.019 896.013 535.352 900.333 538.494C900.879 538.936 901.403 539.266 901.919 539.594L903.452 540.623C904.402 541.164 905.346 541.703 906.288 542.239C908.03 543.045 909.591 543.759 910.759 543.992C911.055 544.064 911.342 544.154 911.625 544.263C911.878 544.272 912.113 544.279 912.347 544.321C912.574 544.327 912.826 544.498 913.02 544.432C913.121 544.419 913.22 544.412 913.318 544.409C913.387 544.404 913.271 544.388 913.253 544.396C913.162 544.42 913.086 544.48 913.112 544.422C913.108 544.385 913.116 544.48 913.112 544.439C913.107 544.407 913.105 544.413 913.114 544.454C913.108 544.433 913.099 544.406 913.106 544.434C913.12 544.387 913.054 544.48 913.123 544.443C913.322 544.231 913.69 543.995 914.044 543.559C914.776 542.713 915.424 541.457 915.783 540.409C915.885 540.146 915.889 539.882 916.005 539.645C916.055 539.377 916.07 539.092 916.152 538.841C916.15 538.412 916.276 538.006 916.213 537.887C916.296 537.682 916.143 537.598 916.22 537.471C916.173 537.358 916.135 537.261 916.168 537.165C916.042 536.96 916.054 536.825 916.054 536.825C915.887 536.186 916.013 534.359 916.012 531.482C916.014 528.626 915.998 524.883 916.235 520.85C916.738 512.756 918.989 503.664 925.337 496.729Z" fill="#27E24F"/>
<path d="M497.238 226.48C491.019 206.499 480.838 189.743 463.374 177.637C450.636 168.808 433.529 165.175 417.786 166.173C384.664 168.272 353.916 186.023 329.697 207.939C319.42 217.238 309.923 228.449 303.532 240.598C298.56 250.05 294.784 260.149 291.07 270.088C289.434 274.466 287.806 278.845 286.105 283.202C285.266 285.35 284.375 287.48 283.477 289.606C286.638 282.124 282.607 291.076 281.866 292.496C280.894 294.358 279.79 296.153 278.676 297.943C277.63 299.622 273.237 304.706 278.825 298.081C277.624 299.506 276.236 300.755 274.839 301.991C281.08 296.475 277.647 299.721 275.243 300.952C282.873 297.044 276.598 299.9 274.15 300.409C281.801 298.818 274.293 299.867 272.511 299.846C264.215 299.744 278.626 300.949 270.289 299.754C266.846 299.26 263.437 298.553 260.033 297.885C235.5 293.074 208.668 290.326 186.652 306.27C167.951 319.813 157.782 338.916 151.079 360.121C146.079 375.947 156.126 392.688 172.025 396.684C188.363 400.79 205.287 390.726 210.276 374.94C211.093 372.358 211.951 369.802 212.872 367.249C215.759 359.251 210.161 372.503 213.664 365.19C214.668 363.096 215.859 361.094 217.06 359.1C217.977 357.58 222.627 352.057 217.346 358.32C218.679 356.739 220.221 355.347 221.763 353.969C215.715 359.372 220.001 355.472 222.051 354.298C228.231 350.758 215.091 356.626 222.045 354.431C223.444 354.03 224.859 353.7 226.288 353.441C221.918 354.015 221.559 354.163 225.214 353.885C227.723 353.756 230.24 353.977 232.727 354.168C225.465 353.613 233.926 354.515 235.019 354.705C240.172 355.604 245.276 356.719 250.424 357.642C264.917 360.238 279.309 361.11 293.871 357.049C319.862 349.801 332.852 326.887 342.672 304.424C346.397 295.902 349.4 287.103 352.705 278.434C353.505 276.34 354.343 274.258 355.188 272.181C358.018 265.224 352.382 278.094 355.486 271.537C356.945 268.456 358.664 265.523 360.552 262.669C361.278 261.569 362.061 260.505 362.842 259.44C366.108 254.984 357.792 265.66 361.388 261.304C363.248 259.052 365.246 256.908 367.275 254.8C369.409 252.584 371.664 250.479 373.947 248.413C375.999 246.554 386.301 238.509 377.467 245.198C382.69 241.245 388.234 237.718 393.948 234.508C396.787 232.913 399.71 231.477 402.661 230.107C408.333 227.47 395.107 233.147 400.88 230.85C402.832 230.073 404.823 229.399 406.818 228.744C409.737 227.786 412.719 227.047 415.716 226.404C418.058 225.902 423.868 225.245 413.371 226.624C414.816 226.435 416.271 226.339 417.722 226.247C420.558 226.068 430.882 227 419.704 225.681C422.917 226.059 426.029 226.9 429.052 227.94C419.086 224.504 427.883 227.809 430.461 229.465C421.847 223.93 429.869 229.33 431.998 231.582C436.043 235.859 427.579 225.53 431.136 230.438C432.122 231.8 432.979 233.247 433.834 234.689C434.745 236.224 435.52 237.835 436.297 239.439C437.618 242.401 437.337 241.694 435.457 237.315C435.93 238.572 436.374 239.839 436.788 241.118C436.995 241.78 437.202 242.444 437.407 243.107C442.238 258.627 457.901 268.391 474.788 263.698C490.514 259.327 502.075 242.017 497.238 226.48Z" fill="#1E6628"/>
<path d="M474.985 190.015C466.674 161.643 441.842 145.354 411.42 146.995C386.351 148.348 360.316 158.771 340.111 173.688C328.683 182.124 320.104 191.018 312.596 203.059C308.348 209.871 304.578 216.914 299.945 223.506C303.81 218.009 292.31 229.904 298.762 225.171C297.585 225.976 296.352 226.685 295.063 227.299C302.135 223.593 291.324 226.847 297.045 226.289C295.304 226.4 293.566 226.42 291.828 226.348C283.671 226.229 296.25 227.233 288.088 226.009C283.646 225.342 279.246 224.456 274.815 223.736C262.76 221.781 252.264 221.695 240.117 223.737C219.707 227.167 203.525 243.954 194.536 261.236C187.903 273.991 190.644 289.282 203.672 296.455C215.504 302.969 233.522 299.131 240.164 286.358C241.736 283.337 243.417 280.439 245.316 277.595C242.452 281.882 247.79 275.25 248.822 274.326C243.487 279.108 255.474 272.17 248.408 274.757C249.928 274.257 251.472 273.853 253.039 273.545C247.547 274.806 255.328 273.712 256.195 273.712C259.325 273.965 259.686 273.918 257.277 273.571C259.05 273.81 260.816 274.08 262.577 274.382C267.007 275.1 271.407 275.954 275.849 276.62C287.123 278.313 296.673 278.308 308.033 276.427C325.803 273.483 338.96 258.645 348.264 244.698C352.27 238.697 355.646 232.317 359.456 226.204C360.412 224.671 366.558 216.901 361.079 223.429C362.391 221.866 363.872 220.437 365.36 219.035C366.685 217.787 368.097 216.629 369.511 215.478C362.666 221.048 368.329 216.425 369.968 215.288C373.951 212.521 378.17 210.092 382.451 207.814C384.445 206.754 386.487 205.781 388.532 204.823C395.704 201.462 383.98 206.463 391.414 203.676C396.184 201.889 401.09 200.506 406.049 199.406C407.954 198.984 415.73 198.034 407.005 199.1C409.088 198.846 411.18 198.751 413.269 198.689C415.287 198.63 417.297 198.752 419.299 198.913C410.756 198.231 418.73 199.118 420.922 199.755C425.189 200.993 414.995 196.795 421.002 200.008C426.979 203.205 417.301 196.312 422.15 201.091C425.129 204.027 418.69 195.662 422.336 201.637C426.031 207.69 421.234 196.969 423.378 204.294C427.317 217.744 441.259 226.037 455.641 222.057C469.388 218.253 478.928 203.472 474.985 190.015Z" fill="#299B3E"/>
<path d="M494.87 170.593C494.865 168.032 495.921 163.418 494.163 172.635C495.514 165.547 491.266 177.548 493.504 173.513C496.135 168.772 488.237 179.476 491.934 175.351C493.728 173.351 499.411 169.688 491.088 175.583C492.349 174.691 493.709 173.939 495.055 173.186C502.345 169.108 489.587 175.108 494.859 173.064C498.7 171.576 502.707 170.543 506.707 169.626C508.496 169.216 510.302 168.899 512.105 168.578C517.65 167.593 504.256 169.451 513.091 168.537C517.364 168.097 521.654 167.936 525.932 167.884C529.977 167.834 534.014 168.028 538.033 168.341C543.588 168.775 530.015 167.144 537.905 168.354C539.748 168.636 541.567 169.027 543.377 169.444C544.587 169.722 545.772 170.078 546.954 170.442C549.479 171.313 548.412 170.888 543.752 169.169C545.052 169.762 546.327 170.395 547.581 171.072C552.243 173.485 556.641 176.367 561.227 178.912C575.738 186.96 591.616 190.327 608.451 187.074C624.071 184.055 637.563 175.071 651.704 168.242C645.867 171.061 654.092 167.717 654.995 167.459C658.669 166.693 658.453 166.65 654.346 167.327C655.915 167.195 657.483 167.16 659.049 167.224C654.914 166.595 654.496 166.592 657.79 167.217C660.961 168.179 660.629 167.94 656.803 166.495C659.62 167.644 662.18 169.321 664.679 170.987C678.329 180.085 698.854 172.686 706.959 159.252C716.134 144.044 710.022 127.497 696.398 118.415C681.226 108.302 663.467 105.523 645.172 108.677C635.865 110.282 627.195 114.167 618.695 118.27C615.057 120.027 611.534 122.045 607.981 123.965C606.868 124.565 596.057 129.408 602.072 127.078C600.217 127.751 598.332 128.313 596.415 128.759C600.133 128.42 600.341 128.335 597.039 128.506C601.148 129.203 601.545 129.232 598.224 128.594C596.765 128.244 595.337 127.812 593.938 127.298C601.443 129.811 592.469 126.077 590.95 125.234C588.31 123.769 585.739 122.185 583.14 120.658C573.615 115.064 563.297 111.2 552.187 109.678C508.868 103.743 433.148 113.755 433.241 171.243C433.266 187.598 446.21 201.158 463.309 200.968C479.772 200.785 494.896 186.954 494.87 170.593Z" fill="#1E6628"/>
<path d="M438.328 311.018C448.68 308.477 459.063 306.133 469.532 304.211C471.841 303.787 474.158 303.414 476.476 303.04C464.207 305.007 471.86 303.701 474.574 303.36C478.264 302.898 481.967 302.584 485.672 302.337C497.175 301.575 508.557 302.472 519.932 303.562C534.065 304.918 548.176 305.709 562.444 305.502C566.813 305.44 571.186 305.256 575.555 305.052C579.673 304.86 585.123 305.776 572.609 303.993C578.501 304.833 563.176 299.598 568.487 302.165C573.842 304.754 560.499 295.651 565.134 299.554C566.235 300.482 567.194 301.568 568.152 302.633C558.936 292.401 566.435 300.703 568.473 304.076C576.758 317.803 582.808 331.733 593.142 344.247C609.76 364.374 636.038 367.358 661.268 362.901C671.468 361.099 681.194 357.614 691.006 354.292C696.356 352.481 701.74 350.877 707.23 349.601C716.489 347.449 698.366 350.288 707.688 349.578C709.937 349.406 712.188 349.502 714.425 349.599C702.509 349.085 713.051 349.665 716.606 350.79C706.18 347.496 711.915 348.951 714.687 350.426C717.125 351.722 722.391 356.115 713.423 349.142C715.984 351.132 725.025 361.694 717.459 352.061C720.322 355.706 722.716 359.704 725.011 363.716C735.13 381.398 759.496 386.846 777.702 376.188C796.226 365.344 802.55 341.88 792.433 324.2C779.775 302.083 762.739 286.457 738.368 277.505C714.578 268.767 687.551 276.496 664.21 284.432C658.857 286.253 653.474 287.9 647.988 289.232C638.727 291.482 656.859 288.543 647.526 289.409C645.241 289.621 636.535 288.846 646.717 290.147C643.468 289.731 638.979 287.084 650.56 292.105C647.768 290.895 643.597 286.977 653.679 294.824C652.527 293.928 651.521 292.86 650.516 291.814C646.069 287.186 656.538 299.927 652.657 294.594C644.311 283.123 639.855 269.316 631.459 257.855C624.846 248.832 617.62 240.471 607.183 235.427C594.892 229.485 582.954 229.322 569.415 229.783C553.971 230.309 538.646 229.56 523.352 228.108C488.14 224.762 454.379 229.875 419.657 238.396C399.031 243.459 386.496 265.884 391.46 285.186C396.673 305.469 417.718 316.077 438.328 311.018Z" fill="#299B3E"/>
<path d="M511.718 228.737C511.492 225.749 511.438 222.798 511.597 219.793C511.736 217.18 513.21 211.317 511.132 221.931C511.431 220.409 511.894 218.921 512.36 217.437C513.545 214.231 512.926 215.493 510.498 221.226C511.091 219.889 511.836 218.619 512.58 217.353C513.906 215.093 517.672 210.646 510.508 219.563C511.415 218.435 512.439 217.404 513.457 216.373C514.15 215.695 514.867 215.038 515.607 214.404C520.162 210.363 508.134 219.792 513.19 216.29C515.697 214.553 518.42 213.135 521.159 211.808C526.943 209.011 512.354 215.3 518.427 212.994C519.941 212.42 521.484 211.939 523.028 211.456C526.203 210.461 529.454 209.729 532.705 209.069C541.813 207.217 524.377 209.925 533.689 208.866C537.148 208.475 540.623 208.287 544.091 208.161C550.468 207.927 556.835 208.217 563.157 208.773C566.669 209.132 565.425 208.973 559.421 208.297C561.08 208.497 562.731 208.75 564.382 209.004C567.577 209.496 570.74 210.142 573.884 210.848C576.848 211.511 579.765 212.329 582.658 213.211C584.022 213.626 585.366 214.096 586.707 214.567C592.191 216.494 578.463 211.176 583.654 213.382C585.541 214.183 587.363 215.112 589.156 216.089C590.648 216.903 592.054 217.849 593.468 218.777C599.579 222.789 587.301 214.014 593.259 218.609C599.674 223.559 605.721 228.945 612.101 233.941C632.366 249.814 653.017 259.797 680.173 255.827C703.57 252.407 721.044 235.903 741.484 225.678C737.155 227.384 736.871 227.551 740.631 226.183C742.937 225.374 745.335 224.876 747.719 224.389C738.388 226.296 744.911 224.992 747.517 224.986C755.121 224.967 739.88 223.511 747.196 225.043C749.361 225.495 755.744 228.275 747.244 224.661C749.294 225.532 751.211 226.668 753.117 227.784C759.939 231.776 747.436 223.091 753.867 228.17C755.843 229.732 757.676 231.457 759.514 233.168C772.788 245.538 794.553 245.437 808.103 232.042C821.314 218.981 821.989 197.047 808.684 184.646C791.109 168.269 768.185 155.608 742.538 158.298C727.307 159.895 713.633 164.822 700.251 172.504C695.244 175.379 690.467 178.666 685.623 181.799C683.208 183.362 680.753 184.858 678.278 186.331C676.594 187.335 665.572 192.213 674.228 188.818C671.652 189.828 668.968 190.429 666.279 191.003C674.782 189.191 669.568 190.339 666.858 190.213C676.316 190.648 670.852 190.533 668.054 189.727C676.925 192.285 671.094 190.97 668.691 189.788C666.351 188.637 655.032 180.84 663.029 186.758C658.85 183.665 654.886 180.299 650.898 176.982C635.986 164.58 621.993 154.92 603.326 148.666C574.027 138.85 538.333 138.257 507.972 146.571C469.53 157.098 439.997 189.547 443.014 229.484C444.384 247.629 456.456 262.864 476.524 262.634C493.842 262.438 513.09 246.918 511.718 228.737Z" fill="#299B3E"/>
<path d="M478.027 276.089C480.061 271.875 482.267 267.798 484.732 263.796C485.667 262.322 486.642 260.876 487.66 259.452C492.457 252.544 483.595 264.07 488.958 257.972C491.516 255.063 494.41 252.456 497.38 249.959C491.074 255.261 496.581 250.75 498.099 249.764C499.895 248.596 501.796 247.592 503.69 246.593C506.874 245.086 506.204 245.309 501.68 247.266C503.599 246.462 505.582 245.828 507.557 245.194C510.831 244.142 514.205 243.455 517.573 242.852C507.761 244.608 519.112 242.999 521.522 242.918C525.635 242.779 529.741 243.044 533.816 243.414C524.491 242.566 535.891 243.958 537.99 244.383C541.325 245.055 544.599 245.945 547.852 246.88C551.071 247.804 554.225 248.917 557.356 250.071C548.654 246.864 560.462 251.595 562.552 252.601C568.472 255.451 574.114 258.804 579.514 262.476C582.096 264.3 581.324 263.716 577.202 260.723C578.426 261.638 579.605 262.607 580.783 263.576C583.737 266.009 586.394 268.761 588.997 271.54C599.405 282.635 608.022 295.246 619.719 305.16C638.655 321.211 660.413 326.41 685.545 320.46C696.474 317.872 706.982 312.319 717.049 307.384C718.793 306.523 720.538 305.67 722.287 304.822C723.048 304.452 731.822 300.591 725.047 303.394C727.65 302.316 730.326 301.474 733.015 300.659C734.773 300.127 743.503 298.982 734.643 299.998C736.099 299.862 737.555 299.792 739.013 299.787C746.282 299.603 732.355 298.455 739.279 299.622C741.261 299.954 743.165 300.577 745.056 301.194C737.302 298.664 743.188 300.697 745.003 301.7C746.181 302.388 747.328 303.121 748.442 303.904C741.768 299.424 747.493 303.543 748.772 304.713C750.44 306.24 751.955 307.924 753.472 309.594C758.797 315.451 749.732 304.393 754.665 311.014C764.457 324.16 781.107 330.376 797.05 321.049C810.676 313.077 818.707 292.422 808.892 279.248C795.62 261.432 779.771 245.752 756.777 240.693C730.842 234.989 707.058 245.474 683.888 256.83C682.148 257.681 680.401 258.516 678.645 259.334C670.088 263.367 684.577 257.201 675.848 260.417C673.228 261.382 670.537 262.053 667.832 262.693C674.683 261.071 666.846 262.497 665.229 262.489C673.121 262.526 668.564 262.948 665.838 262.232C659.457 260.554 672.11 265.228 666.19 262.165C664.611 261.35 659.221 257.456 665.861 262.411C664.204 261.176 662.672 259.786 661.136 258.414C648.306 246.937 639.235 232.033 626.443 220.505C600.637 197.251 564.568 183.998 529.231 182.187C484.239 179.882 443.87 206.996 424.702 246.705C417.378 261.881 419.778 279.431 435.328 288C448.832 295.438 470.686 291.298 478.027 276.089Z" fill="#1E6628"/>
<path d="M459.657 227.054C427.037 209.602 392.348 227.758 367.377 251.252C343.761 273.47 325.93 301.638 313.123 330.724C307.012 344.603 305.628 359.366 304.626 374.14C304.371 377.9 304.042 381.651 303.598 385.402C304.52 377.604 303.586 385.036 303.248 386.551C302.752 388.788 302.021 390.966 301.277 393.141C303.037 389.522 303.148 389.253 301.612 392.336C301.028 393.495 296.478 399.85 300.988 394.227C297.509 398.563 293.248 402.278 288.957 405.815C291.694 403.735 291.59 403.778 288.646 405.944C286.349 407.607 283.98 409.175 281.625 410.755C276.897 413.925 272.103 416.997 267.39 420.191C257.441 426.937 247.743 434.377 239.598 443.19C223.368 460.749 214.558 482.538 214.386 505.749C214.261 522.263 227.489 535.927 244.602 535.71C261.263 535.5 276.282 521.517 276.404 504.998C276.421 502.881 277.815 491.303 276.297 499.903C276.922 496.366 278.088 492.936 279.395 489.571C276.443 497.164 281.678 486.603 282.993 484.712C280.595 487.651 280.559 487.75 282.888 485.006C284.71 482.901 286.739 480.978 288.75 479.052C290.111 477.785 291.512 476.557 292.946 475.371C299.928 469.425 287.968 478.891 295.48 473.521C299.334 470.768 303.327 468.201 307.286 465.604C316.669 459.45 325.747 452.986 334.408 445.85C350.214 432.827 360.86 414.346 364.058 394.706C365.583 385.338 366.433 376.123 367.108 366.706C367.251 364.706 368.916 352.836 367.39 361.642C367.782 359.373 368.411 357.149 369.09 354.939C369.77 352.726 370.613 350.556 371.467 348.399C374.421 340.943 368.498 354.55 372.171 346.896C374.786 341.45 377.774 336.168 380.883 330.969C384.285 325.282 388.003 319.772 391.874 314.372C393.059 312.719 400.236 303.579 394.404 310.874C396.525 308.221 398.746 305.646 400.996 303.096C405.34 298.174 410.012 293.54 414.926 289.164C415.869 288.336 416.824 287.522 417.791 286.722C422.971 282.376 411.786 291.12 417.131 287.213C419.457 285.513 421.904 283.992 424.389 282.538C425.342 281.994 426.31 281.475 427.288 280.98C432.83 278.09 419.645 283.925 425.322 281.734C427.626 280.845 430.019 280.256 432.429 279.785C426.486 280.529 425.123 280.775 428.342 280.518C430.759 280.355 435.987 281.125 425.846 279.864C427.202 280.033 428.514 280.407 429.814 280.781C421.443 278.379 425.137 278.816 427.661 280.167C442.242 287.968 461.43 282.861 470.226 268.256C478.863 253.926 474.242 234.859 459.657 227.054Z" fill="#1E6628"/>
<path d="M466.813 201.948C444.888 204.062 424.899 208.707 404.915 218.494C388.283 226.64 375.243 239.618 364.381 254.132C348.195 275.759 342.25 305.427 343.583 331.203C344.489 348.754 349.91 364.797 353.3 381.801C353.589 383.318 353.843 384.84 354.06 386.37C352.74 377.809 353.754 385.008 353.798 386.931C353.842 388.875 352.753 395.989 354.282 387.356C353.922 389.39 351.195 395.571 354.812 387.855C354.099 389.211 353.311 390.525 352.447 391.801C356.549 385.341 352.834 391.2 351.41 392.693C349.72 394.461 347.825 396.042 345.958 397.623C352.304 392.243 345.957 397.571 344.682 398.478C326.335 411.549 307.64 423.001 296.178 442.937C284.412 463.402 284.364 487.295 291.276 508.614C296.543 524.857 312.567 535.225 330.454 530.217C346.784 525.645 359.322 507.302 354.049 491.039C353.039 487.926 352.159 484.81 351.428 481.614C351.108 480.104 350.841 478.584 350.629 477.054C351.964 485.581 351.077 478.632 351.102 476.6C351.401 473.141 351.2 473.716 350.501 478.329C350.841 476.2 351.514 474.131 352.184 472.074C350.195 476.179 349.997 476.65 351.583 473.488C352.659 471.379 354.054 469.434 355.429 467.502C350.936 473.821 358.847 464.805 360.54 463.341C363.366 461.056 363.091 461.245 359.718 463.911C361.741 462.402 363.836 460.986 365.916 459.558C374.515 453.654 382.953 447.772 391.097 441.235C408.204 427.503 418.038 407.267 418.471 386.139C418.835 368.416 412.609 351.607 408.959 334.639C408.662 333.208 408.396 331.77 408.163 330.324C406.88 322.915 408.776 337.551 408.344 331.798C408.167 329.447 408.102 327.084 408.066 324.721C407.99 319.731 408.333 314.729 408.925 309.749C409.371 306.523 409.166 307.7 408.31 313.277C408.567 311.722 408.894 310.179 409.224 308.635C409.779 306.031 410.508 303.459 411.283 300.901C412.07 298.307 413.046 295.769 414.074 293.249C409.979 303.286 413.864 294.134 415.151 291.829C416.535 289.353 418.136 286.994 419.788 284.678C421.794 282.014 421.16 282.818 417.887 287.092C419.018 285.718 420.247 284.422 421.475 283.13C423.588 280.904 425.916 278.883 428.284 276.924C420.14 283.666 428.963 276.768 431.194 275.407C434.179 273.584 437.33 272.051 440.499 270.587C431.123 274.919 442.911 269.987 445.249 269.257C449.232 268.013 453.305 267.106 457.379 266.264C459.12 265.922 460.865 265.615 462.616 265.338C454.52 266.695 463.967 265.339 465.154 265.225C482.733 263.529 497.852 251.522 498.321 233.188C498.733 217.087 484.423 200.25 466.813 201.948Z" fill="#1E6628"/>
<path d="M452.507 191.406C419.391 137.686 345.161 174.829 311.767 211.827C301.935 222.719 296.136 234.085 291.036 247.594C289.703 251.125 288.423 254.671 287.05 258.191C285.914 260.918 285.911 260.991 287.046 258.412C286.137 260.424 285.063 262.355 283.971 264.281C283.239 265.52 282.449 266.726 281.605 267.898C284.847 263.179 280.92 268.097 279.991 268.938C282.546 266.991 282.553 266.815 280.005 268.409C283.515 266.421 275.749 269.661 275.624 269.696C273.733 270.156 271.828 270.54 269.908 270.849C271.94 270.491 271.307 270.525 268.008 270.952C263.074 271.461 258.13 271.802 253.197 272.347C240.696 273.73 230.059 276.493 218.592 281.813C200.515 290.201 189.333 308.533 183.819 326.402C179.714 339.711 187.98 353.72 201.391 357.09C215.029 360.518 229.393 352.111 233.49 338.834C233.81 337.8 237.385 329.095 235.03 333.998C235.603 332.805 240.757 325.645 236.976 330.184C237.928 329.102 238.94 328.075 240.011 327.104C237.449 328.87 237.427 328.897 239.944 327.183C241.258 326.347 242.617 325.582 244.014 324.891C238.944 327.57 246.674 324.157 247.319 323.967C253.309 322.188 258.481 322.208 266.735 321.454C276.734 320.54 286.933 319.255 296.359 315.472C313.16 308.727 325.005 296.989 332.323 280.804C335.418 273.959 338.1 267.042 340.704 260.028C341.077 259.026 344.686 250.407 342.161 255.974C343.228 253.622 344.517 251.391 345.936 249.22C346.95 247.669 351.13 242.612 345.962 248.949C347.25 247.37 348.634 245.868 350.024 244.376C353.5 240.641 357.315 237.214 361.22 233.918C362.147 233.145 363.084 232.383 364.029 231.633C361.07 233.864 360.746 234.119 363.054 232.392C365.053 230.903 367.119 229.499 369.19 228.109C373.865 224.973 378.775 222.199 383.803 219.669C385.281 218.926 393.122 215.713 385.707 218.692C387.896 217.813 390.135 217.08 392.382 216.38C394.549 215.705 396.755 215.2 398.968 214.735C401.818 214.233 401.13 214.313 396.907 214.978C398.473 214.783 400.048 214.732 401.618 214.687C408.717 214.488 398.273 213.836 402.479 214.536C403.437 214.717 404.385 214.939 405.319 215.205C410.426 216.532 399.907 212.655 404.622 214.937C410.678 217.868 402.243 212.541 405.44 215.321C406.199 216.017 406.919 216.75 407.599 217.52C402.965 212.547 406.438 216.189 407.416 217.773C414.563 229.367 430.208 233.406 442.669 226.128C454.783 219.056 459.66 203.005 452.507 191.406Z" fill="#1E6628"/>
<path d="M469.878 244.634C459.734 230.843 446.884 219.405 429.116 215.986C411.223 212.543 394.374 216.982 377.956 224.727C353.225 236.394 330.496 260.315 317.88 283.904C314.575 290.083 311.794 296.622 310.008 303.333C309.105 306.729 308.527 310.203 307.933 313.648C307.411 316.811 306.904 319.975 306.409 323.141C306.22 324.335 305.022 331.752 306.183 324.583C305.034 331.68 303.577 338.709 300.959 345.491C302.641 341.809 302.76 341.337 301.315 344.077C298.12 349.8 305.722 339.565 301.214 344.242C306.6 338.656 302.023 343.534 299.502 344.918C304.89 341.96 297.284 345.341 296.241 345.627C286.938 348.179 277.178 348.703 267.759 350.676C255.802 353.182 245.324 358.965 235.766 366.355C218.539 379.673 212.515 400.788 210.45 420.845C208.853 436.351 223.89 449.175 238.862 448.992C255.657 448.786 267.149 435.643 268.744 420.164C269.154 416.824 269.083 416.842 268.534 420.219C268.805 418.7 269.131 417.193 269.511 415.694C269.875 414.26 270.299 412.841 270.784 411.438C272.981 404.629 267.925 416.615 271.311 410.518C273.08 407.873 272.736 408.153 270.278 411.356C271.178 410.3 272.14 409.3 273.164 408.353C275.598 406.26 275.291 406.488 272.242 409.039C273.264 408.337 279.895 405.249 273.703 407.771C281.654 404.533 290.631 403.787 298.996 402.532C309.4 400.969 318.471 397.934 328.114 393.494C344.952 385.737 354.922 368.185 359.515 351.515C361.736 343.456 362.718 335.019 364.013 326.831C364.515 323.64 364.473 323.907 363.889 327.632C364.124 326.217 364.375 324.803 364.641 323.391C365.252 320.063 366.061 316.78 367.033 313.522C367.668 311.396 370.522 305.332 366.528 314.065C367.578 311.769 368.831 309.56 370.106 307.375C371.213 305.475 372.438 303.642 373.672 301.818C374.323 300.872 374.987 299.934 375.668 299.005C379.381 293.851 371.335 304.283 375.423 299.247C378.949 294.901 382.845 290.85 386.897 286.97C388.727 285.217 390.647 283.558 392.58 281.915C393.549 281.103 394.531 280.307 395.527 279.526C388.939 284.78 394.087 280.743 395.546 279.732C397.569 278.334 399.677 277.065 401.798 275.825C403.83 274.636 413.415 270.415 404.115 274.25C406.214 273.384 408.384 272.718 410.56 272.097C411.624 271.808 412.696 271.557 413.775 271.341C419.755 270.039 406.384 272.073 412.384 271.655C414.767 271.489 421.885 272.54 412.719 271.215C413.746 271.388 414.76 271.607 415.762 271.875C421.39 273.239 409.535 268.96 414.847 271.418C416.839 272.341 422.406 276.881 415.981 271.714C417.626 273.037 423.649 280.63 419.074 274.411C428.174 286.782 443.907 292.518 458.785 283.81C471.603 276.307 478.998 257.032 469.878 244.634Z" fill="#299B3E"/>
<path d="M409.561 192.339C343.799 224.911 379.934 307.991 416.371 344.645C426.108 354.439 437.68 361.084 450.575 366.258C457.781 369.149 464.991 371.948 471.785 375.661C473.076 376.39 474.334 377.165 475.563 377.986C469.811 374.292 475.139 377.989 476.269 379.091C471.566 374.51 475.501 378.141 476.598 380.075C473.351 374.34 476.666 381.319 477.036 382.862C477.608 386.263 477.677 386.487 477.245 383.529C477.483 386.349 477.433 389.204 477.42 392.039C477.395 396.833 477.098 401.638 476.945 406.434C476.573 418.006 477.406 430.02 481.254 440.883C489.707 464.745 508.287 478.505 532.165 486.484C547.14 491.487 564.309 480.029 568.544 465.802C573.307 449.812 563.542 436.011 548.622 431.027C545.44 429.908 545.369 429.937 548.408 431.108C546.942 430.482 545.506 429.798 544.1 429.059C542.738 428.344 541.416 427.57 540.129 426.738C545.75 430.2 540.257 426.57 539.139 425.5C537.013 423.146 537.134 423.376 539.507 426.191C538.657 424.948 537.884 423.659 537.185 422.325C535.778 419.395 535.83 419.545 537.342 422.767C536.466 420.294 535.991 417.687 535.502 415.109C536.531 420.553 535.532 409.912 535.534 408.671C535.542 403.878 535.841 399.072 536.002 394.278C536.367 383.378 535.683 372.114 532.493 361.748C526.616 342.646 511.806 329.723 493.776 321.521C487.44 318.637 480.835 316.295 474.415 313.586C471.092 312.183 467.882 310.586 464.76 308.818C458.066 305.027 467.363 311.058 464.629 308.898C461.209 306.197 458.125 303.104 455.159 299.944C453.321 297.984 451.594 295.926 449.892 293.851C455.811 301.065 449.542 293.174 448.343 291.468C445.295 287.135 442.571 282.588 440.03 277.947C438.606 275.349 437.322 272.678 436.081 269.989C434.827 267.123 435.104 267.843 436.912 272.153C436.253 270.542 435.67 268.899 435.091 267.257C433.416 262.511 432.225 257.605 431.411 252.625C432.972 262.179 431.588 253.25 431.572 250.765C431.555 248.26 433.163 239.563 431.327 249.163C431.693 247.254 432.304 245.397 432.959 243.558C429.873 252.209 432.399 245.101 434.071 242.663C428.825 250.313 433.467 243.829 435.739 241.905C428.511 248.031 435.891 242.384 438.379 241.152C452.839 233.991 456.93 214.384 449.516 201.812C441.26 187.803 424.001 185.186 409.561 192.339Z" fill="#299B3E"/>
<path d="M430.472 222.983C405.486 258.022 416.813 299.462 445.327 326.33C470.865 350.396 506.653 365.579 542.243 369.185C548.713 369.842 555.022 369.472 561.525 368.618C568.403 367.715 575.262 366.626 582.103 365.422C584.704 364.965 600.12 362.597 589.548 364.043C593.378 363.519 597.217 363.242 601.065 363.112C603.276 363.04 605.474 363.169 607.67 363.316C598.423 362.695 604.886 363.187 607.23 363.804C599.143 361.678 604.144 362.482 606.732 363.941C599.534 359.884 605.272 362.928 607.145 364.693C608.478 365.949 613.055 372.19 608.016 365.348C609.463 367.314 610.718 369.42 611.982 371.503C616.715 379.287 620.444 387.645 625.067 395.496C632.107 407.456 641.366 417.241 652.819 425.146C673.558 439.462 699.863 439.304 724.257 433.609C742.439 429.363 753.374 409.239 749.062 392.419C744.443 374.405 726.038 365.465 707.873 369.706C706.205 370.117 704.526 370.488 702.842 370.818C694.423 372.571 710.503 370.085 702.293 370.82C699.519 371.067 687.629 369.762 697.663 371.273C696.255 371.028 694.864 370.716 693.493 370.339C686.28 368.536 700.228 373.606 693.515 370.366C691.733 369.507 685.997 365.232 692.908 370.531C691.005 369.072 689.334 367.347 687.665 365.648C685.273 362.913 685.509 363.293 688.37 366.795C686.9 364.852 685.632 362.76 684.35 360.692C682.174 357.177 680.284 353.48 678.367 349.821C673.13 339.821 667.656 330.762 660.586 321.898C646.622 304.389 625.558 296.502 602.814 296.581C592.82 296.616 582.657 298.622 572.794 300.277C568.879 300.935 564.973 301.659 561.059 302.332C559.013 302.685 550.877 303.715 561.039 302.382C558.878 302.664 556.709 302.833 554.54 302.985C551.997 303.163 549.468 303.078 546.939 302.926C543.572 302.632 544.985 302.82 551.177 303.486C549.596 303.296 548.027 303.022 546.463 302.75C540.059 301.64 533.82 299.816 527.713 297.757C518.983 294.817 533.585 300.382 524.966 296.751C521.949 295.48 519.002 294.062 516.077 292.61C509.599 289.395 503.438 285.62 497.563 281.479C506.231 287.589 497.257 280.975 495.423 279.376C493.109 277.359 490.956 275.172 488.866 272.933C482.686 266.315 492.626 278.648 487.642 271.356C485.815 268.683 481.245 257.895 485.673 269.196C484.695 266.703 484.097 264.078 483.625 261.44C485.626 272.613 484.082 264.131 484.384 260.597C483.459 271.397 484.294 262.441 485.487 259.17C482.17 268.274 483.986 262.61 485.296 260.272C486.304 258.473 487.519 256.786 488.717 255.103C499.517 239.958 492.057 218.147 477.132 209.917C460.325 200.648 441.252 207.867 430.472 222.983Z" fill="#1E6628"/>
<path d="M586.856 260.199C586.16 262.227 594.436 273.402 595.425 275.379C597.624 279.782 604.665 290.748 602.439 296.064C598.33 305.878 568.76 301.368 559.488 301.6C551.427 309.352 543.737 318.299 534.949 325.214C517.126 339.232 514.622 301.077 511.754 290.005C508.975 279.4 481.441 281.601 476.703 271.514C471.975 261.445 501.746 247 509.601 241.436C510.917 233.578 512.233 225.716 513.562 217.86C514.697 211.161 514.043 199.986 522.85 199.06C532.704 198.023 549.09 217.646 556.018 223.023C565.444 221.879 574.874 220.565 584.311 219.597C609.687 216.999 591.709 246.137 586.856 260.199Z" fill="#DD4528"/>
<path d="M633.511 293.6C633.29 294.421 636.873 298.628 637.318 299.386C638.311 301.07 641.397 305.226 640.653 307.386C639.282 311.375 627.421 310.349 623.745 310.68C620.748 313.954 617.934 317.69 614.626 320.65C607.921 326.651 605.912 311.625 604.478 307.318C603.092 303.196 592.217 304.773 590.066 300.906C587.921 297.044 599.359 290.565 602.331 288.165C602.645 285.023 602.959 281.88 603.278 278.737C603.548 276.06 602.993 271.655 606.466 271.063C610.35 270.4 617.38 277.741 620.275 279.689C623.986 278.995 627.698 278.233 631.419 277.608C641.429 275.929 635.066 287.915 633.511 293.6Z" fill="#DB502A"/>
<path d="M929.399 226.318C929.44 226.271 929.482 226.227 929.519 226.166C930.427 225.765 931.381 225.404 932.359 225.069L929.399 226.318Z" fill="#DD4528"/>
<path d="M598.436 210.763C611.308 207.191 619.113 194.125 615.868 181.58C612.623 169.036 599.558 161.762 586.685 165.334C573.813 168.907 566.008 181.972 569.253 194.517C572.498 207.062 585.564 214.336 598.436 210.763Z" fill="#F4D3C3"/>
<path d="M616.756 236.513C623.72 234.58 627.943 227.512 626.188 220.726C624.432 213.94 617.364 210.005 610.4 211.938C603.436 213.871 599.213 220.939 600.968 227.725C602.724 234.511 609.792 238.446 616.756 236.513Z" fill="#F4D3C3"/>
<path d="M592.395 187.734C597.318 186.368 600.303 181.372 599.062 176.574C597.821 171.777 592.824 168.995 587.901 170.361C582.978 171.727 579.994 176.724 581.235 181.522C582.476 186.319 587.472 189.101 592.395 187.734Z" fill="white"/>
<path d="M614.617 224.197C617.579 223.375 619.375 220.369 618.628 217.484C617.882 214.599 614.876 212.926 611.914 213.748C608.952 214.57 607.156 217.575 607.902 220.461C608.649 223.346 611.655 225.019 614.617 224.197Z" fill="white"/>
<path d="M543.499 264.042L531.431 221.771" stroke="#A0291A" stroke-width="3" stroke-miterlimit="10"/>
<path d="M543.499 263.675L499.518 265.145" stroke="#A0291A" stroke-width="3" stroke-miterlimit="10"/>
<path d="M543.973 264.057L532.328 306.72" stroke="#A0291A" stroke-width="3" stroke-miterlimit="10"/>
<path d="M543.498 264.521L581.942 284.963" stroke="#A0291A" stroke-width="3" stroke-miterlimit="10"/>
<path d="M543.147 264.05L574.447 232.449" stroke="#A0291A" stroke-width="3" stroke-miterlimit="10"/>
<path d="M616.336 296.173L610.912 277.175" stroke="#A0291A" stroke-width="1.3484" stroke-miterlimit="10"/>
<path d="M616.337 296.005L596.568 296.667" stroke="#A0291A" stroke-width="1.3484" stroke-miterlimit="10"/>
<path d="M616.549 296.18L611.317 315.358" stroke="#A0291A" stroke-width="1.3484" stroke-miterlimit="10"/>
<path d="M616.337 296.39L633.615 305.58" stroke="#A0291A" stroke-width="1.3484" stroke-miterlimit="10"/>
<path d="M616.179 296.18L630.246 281.976" stroke="#A0291A" stroke-width="1.3484" stroke-miterlimit="10"/>
</svg>
