<svg width="1005" height="1036" viewBox="0 0 1005 1036" fill="none" xmlns="http://www.w3.org/2000/svg">
<path d="M148.501 759.553C150.762 752.4 153.268 746.138 154.871 741.651C155.647 739.455 156.443 737.531 157.029 736.296C157.628 735.046 158.074 734.436 158.714 734.413C158.764 734.369 159.643 734.567 161.971 734.438C164.26 734.315 167.977 733.976 173.075 732.667C183.219 730.196 198.322 723.508 212.179 714.311C226.096 705.196 238.645 693.911 246.064 685.189C249.829 680.833 252.317 677.213 253.862 674.807C254.552 673.62 255.227 672.66 255.476 672.081C255.791 671.485 255.959 671.164 255.959 671.164C256.517 670.217 257.972 670.085 260.489 670.289C263.049 670.477 266.321 671.157 270.379 671.982C269.416 672.136 268.571 672.301 267.854 672.497C267.073 672.717 266.409 672.971 265.888 673.277C265.363 673.586 264.991 673.942 264.745 674.38C264.446 674.83 264.296 675.352 264.304 675.968C262.971 680.401 260.693 685.178 257.919 689.827C255.15 694.501 251.821 699.079 248.154 703.458C240.846 712.253 232.191 720.294 222.775 727.288C213.353 734.278 203.072 740.213 192.352 744.555C181.705 748.773 170.276 751.471 160.409 750.741C156.901 749.515 154.019 752.913 148.501 759.553Z" fill="#FFA35F"/>
<path d="M146.571 764.069L146.774 763.315C147.136 761.961 147.54 760.642 147.942 759.346C153.449 752.719 156.325 749.327 159.821 750.549C169.668 751.278 181.074 748.586 191.699 744.375C202.396 740.044 212.656 734.117 222.059 727.141C231.456 720.16 240.093 712.134 247.386 703.355C251.045 698.984 254.368 694.415 257.13 689.749C259.9 685.106 262.173 680.338 263.502 675.916C263.495 675.302 263.645 674.781 263.942 674.331C264.191 673.894 264.56 673.539 265.083 673.23C265.603 672.925 266.266 672.671 267.046 672.452C267.759 672.256 268.605 672.092 269.566 671.938C274.706 673.026 280.985 674.426 287.517 676.579L288.29 676.832C296.668 679.574 303.826 683.34 308.295 687.992C310.551 690.35 312.066 692.687 312.809 694.986C313.559 697.309 313.511 699.545 312.568 701.254C312.568 701.254 312.174 701.995 311.435 703.384C310.706 704.83 309.551 706.628 308.089 709.045C305.128 713.717 300.727 719.958 295.05 726.513C283.728 739.723 267.29 754.336 248.781 766.504C230.31 778.69 209.532 788.413 190.999 793.071C181.803 795.453 173.159 796.492 166.787 796.766C163.558 796.867 161.052 796.934 159.173 796.799C157.351 796.705 156.378 796.656 156.378 796.656C154.114 796.583 151.783 795.374 149.927 793.547C148.075 791.735 146.608 789.211 145.651 786.105C143.734 779.964 144.343 772.209 146.571 764.069Z" fill="#FFD576"/>
<path d="M178.507 802.911C183.618 804.222 188.691 801.274 189.839 796.327C190.986 791.38 187.772 786.307 182.661 784.996C177.55 783.685 172.476 786.633 171.329 791.58C170.182 796.527 173.395 801.6 178.507 802.911Z" fill="#FFA35F"/>
<path d="M214.016 784.829C219.128 786.14 224.201 783.192 225.348 778.246C226.495 773.299 223.282 768.226 218.171 766.915C213.059 765.604 207.986 768.551 206.839 773.498C205.692 778.445 208.905 783.518 214.016 784.829Z" fill="#FFA35F"/>
<path d="M244.29 766.78C249.401 768.091 254.474 765.143 255.621 760.196C256.769 755.249 253.555 750.176 248.444 748.865C243.333 747.554 238.259 750.502 237.112 755.449C235.965 760.396 239.178 765.469 244.29 766.78Z" fill="#FFA35F"/>
<path d="M271.406 747.715C276.517 749.026 281.591 746.078 282.738 741.131C283.885 736.184 280.672 731.111 275.56 729.8C270.449 728.489 265.375 731.437 264.228 736.384C263.081 741.331 266.294 746.404 271.406 747.715Z" fill="#FFA35F"/>
<path d="M328.176 879.458C321.588 873.724 316.373 867.838 313.095 863.006C309.834 858.158 308.521 854.367 310.12 852.352C310.12 852.352 310.505 851.902 311.099 850.937C311.717 849.995 312.621 848.607 313.775 846.847C316.207 843.436 319.177 838.064 322.632 831.46C329.436 818.133 336.537 798.309 342.267 776.586C347.995 754.842 353.067 731.567 357.738 713.64C360.11 704.656 362.141 697.117 363.822 691.762C364.626 689.098 365.257 687.001 365.687 685.574C366.106 684.149 366.375 683.379 366.375 683.379C367.888 678.913 374.915 676.923 384.322 677.71C379.494 680.017 376.412 683.212 376.398 687.369C370.397 719.899 367.185 750.793 360.78 780.258C357.571 794.944 353.577 809.24 348.213 822.784C342.869 836.325 336.124 849.114 327.446 860.292C325.599 862.11 324.587 864.447 324.733 867.65C324.865 870.837 326.044 874.797 328.176 879.458Z" fill="#FFA35F"/>
<path d="M331.554 882.22L330.85 881.658C329.584 880.646 328.375 879.608 327.198 878.573C325.096 873.925 323.933 869.976 323.802 866.798C323.658 863.606 324.659 861.273 326.478 859.46C335.039 848.314 341.69 835.561 346.958 822.056C352.248 808.551 356.19 794.295 359.351 779.65C365.669 750.267 368.836 719.459 374.755 687.019C374.769 682.874 377.806 679.687 382.569 677.387C388.493 677.881 395.418 679.487 402.581 682.128L403.429 682.442C412.613 685.832 420.489 690.211 425.857 694.384C431.219 698.574 434.067 702.554 433.057 705.54C433.057 705.54 432.839 706.161 432.484 707.396C432.12 708.618 431.587 710.412 430.909 712.695C429.498 717.198 427.712 723.926 425.581 732.076C421.341 748.444 416.417 771.388 410.194 795.347C406.918 807.362 403.522 819.505 399.318 831.041C395.362 842.541 390.628 853.332 386.172 862.472C381.514 871.579 377.294 879.118 373.81 884.2C372.136 886.763 370.819 888.778 369.921 890.15C369.045 891.531 368.485 892.227 368.487 892.227C365.931 895.591 360.376 896.309 353.693 894.48C346.991 892.671 339.172 888.328 331.554 882.22Z" fill="#FFD576"/>
<path d="M361.894 890.54C366.996 891.841 372.07 888.878 373.226 883.921C374.382 878.964 371.182 873.891 366.08 872.589C360.978 871.288 355.905 874.251 354.749 879.208C353.593 884.165 356.792 889.238 361.894 890.54Z" fill="#FFA35F"/>
<path d="M378.041 854.103C383.143 855.405 388.216 852.441 389.372 847.485C390.528 842.528 387.329 837.454 382.227 836.153C377.125 834.852 372.052 837.815 370.896 842.772C369.74 847.729 372.939 852.802 378.041 854.103Z" fill="#FFA35F"/>
<path d="M390.147 821.008C395.25 822.309 400.323 819.346 401.479 814.389C402.635 809.432 399.436 804.359 394.333 803.058C389.231 801.757 384.158 804.72 383.002 809.677C381.846 814.634 385.045 819.707 390.147 821.008Z" fill="#FFA35F"/>
<path d="M417.684 900.38C400.549 895.225 388.508 886.646 390.116 880.295L437.114 695.096C438.169 690.932 445.041 688.757 454.666 688.775C449.993 691.334 447.212 694.474 447.603 698.408C443.928 729.613 438.965 760.319 432.674 790.691C426.335 821.255 418.678 851.454 409.623 881.563C406.965 886.674 409.841 893.429 417.684 900.38Z" fill="#FFA35F"/>
<path d="M422.441 901.179L421.548 900.953C419.942 900.547 418.379 900.094 416.848 899.626C409.107 892.691 406.27 885.953 408.89 880.855C417.83 850.819 425.388 820.693 431.647 790.202C437.86 759.903 442.758 729.268 446.385 698.14C446.002 694.214 448.745 691.083 453.357 688.53C459.422 688.546 466.631 689.459 474.177 691.366L475.07 691.592C494.424 696.476 508.714 706.045 506.978 712.958L460.582 897.71C458.881 904.507 441.795 906.062 422.441 901.179Z" fill="#FFD576"/>
<path d="M446.287 906.452C451.385 907.75 456.459 904.78 457.618 899.819C458.777 894.859 455.584 889.786 450.485 888.488C445.387 887.191 440.313 890.16 439.154 895.121C437.995 900.081 441.188 905.155 446.287 906.452Z" fill="#FFA35F"/>
<path d="M454.901 867.542C460 868.839 465.073 865.87 466.233 860.909C467.392 855.948 464.198 850.875 459.1 849.577C454.001 848.28 448.928 851.249 447.768 856.21C446.609 861.171 449.802 866.244 454.901 867.542Z" fill="#FFA35F"/>
<path d="M460.212 832.707C465.311 834.005 470.384 831.035 471.544 826.074C472.703 821.114 469.51 816.04 464.411 814.743C459.312 813.445 454.238 816.415 453.079 821.376C451.919 826.336 455.113 831.41 460.212 832.707Z" fill="#FFA35F"/>
<path d="M586.39 931.385C580.374 936.812 573.999 940.559 568.216 942.027C562.502 943.499 557.186 942.736 554.345 939.512C554.345 939.512 551.817 936.535 547.397 931.326C545.093 928.743 542.781 925.469 539.997 921.743C538.618 919.876 537.15 917.886 535.606 915.794C534.153 913.67 532.712 911.411 531.169 909.061C518.823 890.277 505.235 864.279 496.067 836.727C493.877 829.804 491.494 822.949 489.844 815.965C488.955 812.495 488.076 809.051 487.206 805.65C486.519 802.188 485.842 798.77 485.175 795.407C482.52 781.955 481.295 769.025 480.792 757.832C480.56 755.059 480.6 752.34 480.654 749.752C480.694 747.169 480.733 744.72 480.768 742.416C480.851 740.106 480.763 737.98 480.994 735.953C481.194 733.936 481.374 732.082 481.537 730.406C481.885 727.061 482.158 724.432 482.346 722.637C482.539 720.848 482.669 719.89 482.669 719.89C483.738 714.262 490.387 710.566 499.467 710.064C495.045 713.432 492.275 717.744 492.737 722.52C491.919 741.932 494.133 760.487 497.658 778.372C501.249 796.254 506.246 813.528 512.624 830.24C525.329 863.653 541.491 895.584 564.925 925.015C565.777 926.482 566.905 927.763 568.26 928.828C569.639 929.88 571.39 930.644 573.249 931.201C577.003 932.308 581.492 932.421 586.39 931.385Z" fill="#FFA35F"/>
<path d="M590.056 927.299L589.463 927.899C588.4 928.98 587.31 929.994 586.221 930.976C581.329 932.01 576.846 931.895 573.096 930.798C571.238 930.242 569.49 929.479 568.112 928.427C566.759 927.363 565.633 926.084 564.782 924.618C541.378 895.214 525.238 863.311 512.549 829.928C506.182 813.232 501.189 795.973 497.603 778.106C494.081 760.238 491.871 741.699 492.687 722.304C492.224 717.532 494.993 713.225 499.409 709.859C505.202 709.511 512.03 710.402 519.186 712.406L520.031 712.642C529.203 715.216 537.238 718.947 542.904 722.457C548.564 726.006 551.838 729.33 551.232 732.123C551.232 732.123 551.155 732.741 551.048 733.917C550.931 735.092 550.762 736.816 550.545 739.009C550.426 740.107 550.296 741.318 550.153 742.64C549.969 743.945 550.084 745.483 550.026 747.056C550.001 748.644 549.973 750.331 549.945 752.113C549.893 753.89 549.833 755.757 550.035 757.782C550.419 765.76 551.258 775.233 553.301 785.485C553.8 788.048 554.31 790.654 554.826 793.292C555.505 795.925 556.197 798.592 556.89 801.281C558.122 806.681 560.063 812.076 561.745 817.508C568.928 839.214 579.8 859.838 589.033 873.887C590.187 875.652 591.291 877.342 592.341 878.952C593.468 880.467 594.538 881.904 595.542 883.252C597.555 885.937 599.23 888.4 600.81 890.098C603.84 893.683 605.571 895.732 605.571 895.732C607.644 898.071 606.849 902.348 604.033 908.109C601.211 913.798 596.452 920.775 590.056 927.299Z" fill="#FFD576"/>
<path d="M585.296 925.93C590.408 927.241 595.483 924.292 596.63 919.344C597.778 914.395 594.564 909.321 589.452 908.01C584.34 906.699 579.265 909.648 578.117 914.596C576.969 919.545 580.183 924.619 585.296 925.93Z" fill="#FFA35F"/>
<path d="M568.429 889.822C573.541 891.132 578.614 888.184 579.762 883.237C580.909 878.29 577.696 873.217 572.585 871.906C567.474 870.596 562.4 873.544 561.253 878.491C560.105 883.438 563.318 888.511 568.429 889.822Z" fill="#FFA35F"/>
<path d="M551.422 858.962C556.534 860.273 561.609 857.324 562.757 852.376C563.904 847.427 560.69 842.353 555.578 841.042C550.466 839.731 545.391 842.68 544.243 847.628C543.096 852.577 546.31 857.651 551.422 858.962Z" fill="#FFA35F"/>
<path d="M650.299 901.345C644.74 908.277 638.67 913.558 632.99 916.34C627.356 919.12 622.024 919.494 618.761 916.798C618.761 916.798 615.852 914.25 610.765 909.789C608.154 907.613 605.337 904.671 602.036 901.352C600.399 899.68 598.659 897.901 596.821 896.024C595.116 894.054 593.322 891.986 591.449 889.825C583.836 881.254 576.22 870.454 568.745 858.606C567.032 855.579 565.287 852.503 563.526 849.387C562.655 847.825 561.777 846.254 560.897 844.674C560.111 843.062 559.323 841.445 558.529 839.82C556.967 836.558 555.394 833.272 553.814 829.972C552.446 826.616 551.071 823.25 549.698 819.882C538.731 792.853 533.682 764.874 531.525 744.171C531.077 738.99 530.559 734.226 530.329 730.028C530.178 725.836 530.046 722.181 529.939 719.172C529.658 713.142 529.811 709.742 529.811 709.742C529.897 704.774 536.299 700.772 545.963 698.971C541.867 702.634 539.803 706.739 541.116 710.938C543.362 728.409 546.317 745.617 550.668 762.534C555.102 779.431 560.624 795.997 567.538 812.085C569.379 816.074 571.048 820.108 572.99 824.049L578.999 835.796L585.653 847.269C587.931 851.062 590.495 854.714 592.889 858.458C602.936 873.169 614.629 887.046 628.085 899.545C629.095 900.87 630.368 901.944 631.855 902.742C633.385 903.488 635.172 903.914 637.1 904.072C640.967 904.37 645.481 903.499 650.299 901.345Z" fill="#FFA35F"/>
<path d="M653.805 896.282L653.263 897.033C652.289 898.384 651.284 899.675 650.276 900.929C645.462 903.081 640.951 903.952 637.088 903.648C635.162 903.49 633.378 903.064 631.846 902.319C630.361 901.521 629.088 900.45 628.079 899.123C614.63 886.63 602.948 872.763 592.908 858.06C590.516 854.321 587.953 850.668 585.677 846.877L579.028 835.411L573.023 823.671C571.083 819.732 569.415 815.698 567.574 811.713C560.668 795.636 555.148 779.079 550.716 762.191C546.371 745.285 543.415 728.088 541.171 710.625C539.857 706.428 541.919 702.328 546.015 698.665C552.179 697.506 559.714 697.206 567.819 697.885L568.779 697.965C579.175 698.836 588.561 701.046 595.342 703.698C602.122 706.366 606.287 709.476 606.22 712.662C606.22 712.662 606.076 715.359 606.324 720.032C606.402 722.374 606.5 725.215 606.61 728.472C606.786 731.722 607.221 735.351 607.54 739.332C609.194 755.148 613.01 776.119 620.862 795.255C621.829 797.647 622.793 800.041 623.756 802.422C624.867 804.72 625.974 807.008 627.07 809.278C627.614 810.416 628.156 811.549 628.696 812.673C629.309 813.755 629.917 814.827 630.524 815.893C631.721 818.033 632.907 820.148 634.072 822.227C639.2 830.197 644.201 837.471 649.207 843.004C650.418 844.423 651.582 845.784 652.685 847.075C653.879 848.276 655.008 849.412 656.069 850.481C658.197 852.608 659.971 854.564 661.655 855.898C664.879 858.742 666.72 860.365 666.72 860.365C668.959 862.191 668.517 866.846 666.175 873.381C663.825 879.873 659.656 888.126 653.805 896.282Z" fill="#FFD576"/>
<path d="M600.865 850.868C605.976 852.178 611.049 849.229 612.197 844.281C613.345 839.334 610.133 834.26 605.022 832.95C599.911 831.64 594.838 834.589 593.69 839.537C592.542 844.485 595.755 849.558 600.865 850.868Z" fill="#FFA35F"/>
<path d="M623.675 877.732C628.786 879.043 633.859 876.094 635.007 871.146C636.155 866.198 632.943 861.125 627.832 859.815C622.722 858.505 617.648 861.454 616.5 866.402C615.352 871.349 618.565 876.422 623.675 877.732Z" fill="#FFA35F"/>
<path d="M646.977 901.317C652.088 902.627 657.161 899.678 658.309 894.73C659.457 889.783 656.245 884.71 651.134 883.4C646.024 882.089 640.95 885.038 639.802 889.986C638.654 894.934 641.867 900.007 646.977 901.317Z" fill="#FFA35F"/>
<path d="M725.456 878.492C717.476 894.059 706.517 903.837 700.164 900.558C700.164 900.558 699.448 900.185 698.102 899.484C696.754 898.792 694.787 897.738 692.296 896.369C687.312 893.626 680.223 889.616 671.911 884.242C663.603 878.874 654.07 872.134 644.289 864.025C634.511 855.918 624.532 846.316 615.418 835.605C606.369 824.836 598.154 813 591.916 800.946C585.617 788.934 581.166 776.924 578.355 766.473C575.52 756.013 574.163 747.137 573.538 740.981C572.825 734.804 572.761 731.31 572.759 731.31C572.43 726.171 578.744 721.87 588.234 719.958C586.238 721.781 584.751 723.734 583.933 725.746C583.179 727.767 583.151 729.857 583.929 731.903C586.917 749.14 592.593 765.895 600.365 781.223C608.268 796.513 618.102 810.43 629.277 822.654C640.415 834.925 652.629 845.78 665.467 855.523C678.301 865.285 691.709 874.055 705.535 882.144C709.985 885.974 717.369 884.743 725.456 878.492Z" fill="#FFA35F"/>
<path d="M728.093 872.913L727.71 873.743C727.023 875.232 726.298 876.671 725.567 878.076C717.484 884.322 710.102 885.554 705.651 881.726C691.831 873.64 678.428 864.875 665.599 855.119C652.766 845.381 640.557 834.533 629.425 822.267C618.254 810.05 608.423 796.142 600.524 780.858C592.756 765.537 587.081 748.792 584.095 731.565C583.317 729.52 583.346 727.429 584.099 725.411C584.916 723.4 586.403 721.448 588.398 719.626C594.454 718.379 601.868 718.05 609.863 718.622L610.808 718.69C621.056 719.432 630.333 721.343 637.045 723.416C640.401 724.461 643.113 725.567 644.977 726.701C646.884 727.831 648.009 728.976 648.058 730.191C648.058 730.191 648.075 732.254 648.503 735.769C648.841 739.3 649.63 744.269 651.197 750.059C652.759 755.853 655.195 762.448 658.757 769.276C662.269 776.119 667.138 783.122 672.771 789.87C678.495 796.578 685.075 802.977 691.873 808.614C698.677 814.248 705.594 819.167 711.779 823.16C717.962 827.16 723.4 830.236 727.238 832.347C729.157 833.401 730.676 834.219 731.729 834.754C732.775 835.3 733.331 835.592 733.331 835.592C735.985 836.95 736.617 841.76 735.699 848.49C734.755 855.217 732.221 863.93 728.093 872.913Z" fill="#FFD576"/>
<path d="M663.883 845.216C668.991 846.524 674.065 843.571 675.215 838.621C676.365 833.671 673.156 828.598 668.047 827.29C662.939 825.983 657.865 828.935 656.715 833.885C655.565 838.835 658.774 843.908 663.883 845.216Z" fill="#FFA35F"/>
<path d="M692.027 866.428C697.136 867.736 702.211 864.783 703.362 859.831C704.512 854.88 701.302 849.806 696.192 848.498C691.082 847.189 686.007 850.143 684.857 855.094C683.707 860.045 686.917 865.12 692.027 866.428Z" fill="#FFA35F"/>
<path d="M719.93 884.331C725.04 885.639 730.115 882.685 731.265 877.734C732.415 872.783 729.206 867.709 724.096 866.4C718.986 865.092 713.911 868.046 712.761 872.997C711.611 877.948 714.821 883.022 719.93 884.331Z" fill="#FFA35F"/>
<path d="M786.442 852.099C784.936 861.776 782.346 870.152 779.055 875.933C775.797 881.68 771.841 884.847 768.179 884.076C768.18 884.074 764.821 883.421 758.973 882.04C753.13 880.603 744.791 878.396 734.839 874.902C724.9 871.428 713.317 866.583 701.221 859.841C689.126 853.198 676.567 844.309 665.182 833.611C653.885 822.803 643.88 810.125 636.726 797.18C629.493 784.258 624.898 771.442 622.068 760.573C621.423 757.854 620.805 755.245 620.214 752.766C619.776 750.303 619.357 747.967 618.967 745.77C618.119 741.351 617.887 737.617 617.489 734.483C617.092 731.346 617.063 728.971 616.948 727.319C616.862 725.675 616.814 724.797 616.814 724.797C616.748 723.528 617.12 722.293 617.876 721.137C618.68 719.997 619.878 718.937 621.405 717.977C624.457 716.056 628.834 714.558 634.114 713.618C629.705 717.213 627.434 721.322 629.258 725.46C630.713 734.028 633.043 742.636 635.692 751.048C638.48 759.484 641.981 767.748 646.074 775.705C654.468 791.566 665.677 805.991 678.861 817.573C691.987 829.235 706.605 838.379 721.669 845.617C736.768 852.833 752.315 858.302 768.183 862.586C773.643 865.264 780.611 861.559 786.442 852.099Z" fill="#FFA35F"/>
<path d="M787.475 845.257L787.36 846.271C787.154 848.097 786.897 849.883 786.623 851.635C780.794 861.088 773.828 864.793 768.37 862.119C752.507 857.836 736.964 852.371 721.87 845.158C706.811 837.921 692.198 828.782 679.075 817.129C665.898 805.553 654.693 791.135 646.299 775.282C642.208 767.329 638.709 759.07 635.92 750.638C633.272 742.23 630.946 733.624 629.488 725.062C627.665 720.927 629.935 716.82 634.342 713.226C641.083 712.022 649.342 711.729 658.244 712.337L659.297 712.409C670.712 713.195 681.052 715.143 688.538 717.249C696.05 719.378 700.548 721.728 700.759 724.073C700.759 724.073 700.787 724.577 700.837 725.519C700.911 726.452 700.881 727.882 701.136 729.562C701.39 731.239 701.437 733.396 701.93 735.632C702.125 736.773 702.335 737.986 702.554 739.266C702.849 740.492 703.16 741.781 703.486 743.127C704.881 748.437 706.996 754.215 710.102 759.801C713.18 765.407 717.457 770.745 722.594 775.757C732.968 785.698 748.116 793.478 760.672 797.741C766.911 799.935 772.391 801.393 776.238 802.346C780.109 803.252 782.348 803.688 782.348 803.688C784.977 804.248 786.684 809.077 787.628 816.59C788.538 824.075 788.702 834.249 787.475 845.257Z" fill="#FFD576"/>
<path d="M723.254 815.929C719.572 819.627 713.015 819.758 708.967 816.174C704.909 812.59 705.037 806.859 708.89 803.402C712.753 799.948 718.752 799.881 722.634 803.22C726.506 806.562 726.943 812.231 723.254 815.929Z" fill="#FFA35F"/>
<path d="M754.535 834.91C751.185 838.984 744.369 839.857 739.679 836.763C734.968 833.673 734.309 827.991 737.853 824.145C741.404 820.293 747.65 819.561 752.166 822.426C756.667 825.291 757.887 830.839 754.535 834.91Z" fill="#FFA35F"/>
<path d="M788.857 846.779C785.886 851.188 778.941 852.833 773.689 850.32C768.428 847.804 767.035 842.259 770.215 838.06C773.407 833.855 779.792 832.42 784.835 834.726C789.875 837.035 791.832 842.369 788.857 846.779Z" fill="#FFA35F"/>
<path d="M858.978 747.851C864.386 753.664 868.33 759.588 870.086 764.788C871.911 770.011 871.346 774.314 868.559 776.487C868.559 776.487 867.94 777.005 866.681 777.859C865.426 778.716 863.617 780.021 861.231 781.559C856.426 784.577 849.309 788.606 840.265 792.106C831.243 795.627 820.336 798.522 808.665 800.022C797.006 801.442 784.62 801.591 772.611 800.364C748.501 798.061 726.054 790.603 710.075 783.411C702.062 779.822 695.609 776.347 691.142 773.81C686.701 771.22 684.198 769.67 684.199 769.668C680.559 767.384 680.329 760.939 683.248 753.235C684.039 757.872 686.165 761.174 689.745 762.09C703.19 768.279 716.769 773.164 730.547 776.795C744.324 780.397 758.262 782.875 772.387 783.759C786.481 784.681 800.786 784.087 814.877 781.184C828.939 778.344 842.823 773.133 855.149 765.162C857.693 764.196 859.334 761.905 860.084 758.954C860.8 755.96 860.416 752.089 858.978 747.851Z" fill="#FFA35F"/>
<path d="M855.688 743.733L856.278 744.319C857.342 745.366 858.351 746.427 859.33 747.485C860.769 751.729 861.153 755.608 860.439 758.605C859.69 761.563 858.049 763.855 855.501 764.822C843.166 772.804 829.275 778.023 815.209 780.868C801.108 783.772 786.795 784.369 772.696 783.446C758.566 782.561 744.619 780.079 730.834 776.472C717.047 772.835 703.463 767.944 690.01 761.745C686.426 760.827 684.3 757.518 683.51 752.877C685.349 747.957 688.434 742.5 692.434 737.08L692.907 736.437C698.042 729.489 703.609 723.824 708.209 720.117C712.804 716.45 716.523 714.645 718.469 715.903C718.469 715.903 720.153 716.929 723.132 718.687C726.144 720.392 730.526 722.755 735.971 725.2C746.807 730.117 762.199 735.097 777.104 736.477C784.544 737.249 791.74 737.08 798.115 736.334C804.456 735.49 809.934 734.003 814.288 732.306C818.649 730.616 821.919 728.739 824.157 727.36C825.239 726.621 826.089 726.042 826.668 725.646C827.262 725.268 827.538 725.012 827.538 725.012C828.91 723.916 832.569 725.721 837.623 729.019C842.679 732.393 849.263 737.431 855.688 743.733Z" fill="#FFD576"/>
<path d="M783.885 754.762C783.21 759.956 778.117 763.838 772.765 763.193C767.403 762.556 764.052 757.721 765.008 752.63C765.971 747.537 770.662 744.026 775.735 744.564C780.807 745.106 784.567 749.565 783.885 754.762Z" fill="#FFA35F"/>
<path d="M820.321 751.704C820.133 757.023 815.28 761.674 809.711 761.808C804.13 761.955 800.183 757.612 800.659 752.37C801.138 747.123 805.627 742.914 810.919 742.693C816.2 742.476 820.51 746.385 820.321 751.704Z" fill="#FFA35F"/>
<path d="M855.033 741.1C855.349 746.481 850.855 751.857 845.19 752.794C839.517 753.736 835.068 749.929 835.046 744.601C835.029 739.26 839.206 734.383 844.579 733.393C849.956 732.408 854.72 735.714 855.033 741.1Z" fill="#FFA35F"/>
<path d="M218.751 853.047C217.411 845.25 217.016 838.127 216.943 833.008C216.921 830.498 217.031 828.274 217.345 826.703C217.665 825.096 218.17 824.268 219.078 823.81C219.078 823.81 219.493 823.635 220.27 823.308C220.661 823.14 221.142 822.98 221.72 822.715C222.304 822.413 222.976 822.067 223.728 821.679C226.745 820.112 231.258 817.467 236.669 812.987C247.526 804.211 261.356 787.916 272.839 769.109C284.458 750.401 294.049 729.775 300.133 714.116C303.22 706.285 305.447 699.693 306.926 695.108C307.667 692.81 308.237 691.01 308.581 689.789C308.945 688.564 309.137 687.911 309.137 687.911C310.232 684.149 316.45 682.429 325.173 682.469C320.945 684.863 318.354 687.694 318.525 691.439C316.133 706.197 312.18 721.05 307.144 735.415C302.099 749.794 295.934 763.791 288.553 776.992C281.213 790.211 272.594 802.646 262.643 813.523C252.677 824.247 241.125 833.518 228.8 838.353C223.996 839.232 221.535 844.037 218.751 853.047Z" fill="#FFA35F"/>
<path d="M219.191 857.479L219.011 856.678C218.684 855.237 218.42 853.807 218.175 852.399C220.94 843.41 223.384 838.621 228.156 837.744C240.397 832.921 251.87 823.675 261.769 812.98C271.652 802.132 280.213 789.73 287.503 776.546C294.837 763.38 300.958 749.419 305.968 735.079C310.97 720.753 314.897 705.938 317.272 691.22C317.105 687.485 319.676 684.662 323.875 682.274C329.411 682.319 336.021 683.097 342.924 684.859L343.742 685.068C352.595 687.322 360.248 690.845 365.403 694.962C370.567 699.07 373.159 703.671 372.041 707.533C372.041 707.533 371.802 708.339 371.356 709.852C370.922 711.378 370.234 713.57 369.343 716.346C367.562 721.9 364.917 729.732 361.324 738.89C354.201 757.237 343.298 780.93 329.287 803.623C315.41 826.33 297.846 848.011 280.177 862.511C271.449 869.79 262.728 875.179 256.164 878.562C254.509 879.396 253.027 880.142 251.742 880.791C250.412 881.406 249.213 881.886 248.273 882.288C246.368 883.076 245.354 883.495 245.354 883.495C243.001 884.537 240.057 884.403 237.356 883.585C235.986 883.16 234.635 882.533 233.33 881.711C231.981 880.843 230.685 879.79 229.467 878.57C224.558 873.696 221.123 866.169 219.191 857.479Z" fill="#FFD576"/>
<path d="M262.979 861.806C268.154 865.999 268.942 872.005 264.382 875.256C259.831 878.51 251.537 877.547 246.223 873.07C240.898 868.595 240.68 862.543 245.372 859.573C250.071 856.606 257.799 857.614 262.979 861.806Z" fill="#FFA35F"/>
<path d="M295.879 834.628C300.78 838.365 301.766 844.288 297.736 847.907C293.713 851.522 286.06 851.26 281 847.27C275.933 843.282 275.504 837.296 279.686 833.936C283.878 830.57 290.971 830.897 295.879 834.628Z" fill="#FFA35F"/>
<path d="M319.48 806.989C324.074 810.393 325.186 816.249 321.62 820.121C318.063 823.997 311.031 824.237 306.265 820.604C301.492 816.977 300.934 811.052 304.665 807.407C308.404 803.758 314.881 803.591 319.48 806.989Z" fill="#FFA35F"/>
<path d="M57.4582 615.049C60.9934 608.62 65.133 603.38 68.9254 599.997C72.73 596.623 76.2832 595.048 79.0024 596.171C79.0024 596.171 79.6365 596.422 80.8251 596.892C82.007 597.369 83.7489 598.062 86.0221 598.887C90.5246 600.579 97.1 602.877 105.192 605.271C121.324 610.143 143.677 615.141 165.986 617.64C177.123 618.874 188.211 619.516 198.402 619.522C208.601 619.552 217.843 618.843 225.459 617.829C233.08 616.808 239.089 615.5 243.065 614.376C245.113 613.879 246.595 613.361 247.635 613.041C248.671 612.718 249.223 612.546 249.223 612.546C252.296 611.477 256.965 615.189 262.288 621.384C258.045 619.704 254.616 619.227 252.059 621.284C240.16 627.071 225.958 630.609 211.33 632.516C196.651 634.434 181.369 634.597 166.091 633.542C150.797 632.451 135.451 630.068 120.365 626.485C105.283 622.919 90.4271 618.114 76.3279 612.041C71.6042 609.064 65.1934 610.217 57.4582 615.049Z" fill="#FFA35F"/>
<path d="M54.5979 619.94L54.9253 619.246C55.517 617.995 56.1502 616.795 56.7898 615.619C64.5427 610.751 70.9658 609.591 75.6999 612.586C89.8272 618.706 104.713 623.546 119.825 627.14C134.941 630.75 150.317 633.154 165.642 634.251C180.951 635.314 196.263 635.149 210.971 633.217C225.628 631.298 239.859 627.733 251.781 621.901C254.345 619.829 257.781 620.309 262.031 622.001C265.423 626.03 269.094 631.176 272.209 637.095L272.576 637.796C276.581 645.38 278.769 652.881 278.586 659.076C278.445 665.319 275.92 669.913 271.646 671.424C271.646 671.424 270.752 671.709 269.072 672.244C267.392 672.771 264.922 673.592 261.798 674.382C255.529 676.14 246.603 678.081 236.022 679.499C225.444 680.917 213.216 681.811 200.332 681.779C187.442 681.772 173.869 680.963 160.454 679.467C133.629 676.44 107.452 670.535 87.9825 664.642C78.2409 661.739 70.1627 658.911 64.5058 656.777C61.6792 655.738 59.4567 654.858 57.9417 654.244C56.4275 653.637 55.6217 653.313 55.6217 653.313C51.7748 651.716 49.59 647.137 49.409 641.023C49.2136 634.928 51.0292 627.464 54.5979 619.94Z" fill="#FFD576"/>
<path d="M79.9256 667.999C85.0232 669.296 90.0964 666.324 91.2569 661.362C92.4175 656.4 89.2258 651.327 84.1282 650.031C79.0306 648.734 73.9573 651.706 72.7968 656.668C71.6363 661.63 74.8279 666.703 79.9256 667.999Z" fill="#FFA35F"/>
<path d="M118.9 676.313C123.998 677.609 129.071 674.637 130.232 669.676C131.392 664.714 128.201 659.641 123.103 658.344C118.005 657.048 112.932 660.019 111.772 664.981C110.611 669.943 113.803 675.016 118.9 676.313Z" fill="#FFA35F"/>
<path d="M153.776 681.357C158.873 682.654 163.946 679.682 165.107 674.72C166.268 669.758 163.076 664.685 157.978 663.389C152.881 662.092 147.807 665.064 146.647 670.026C145.486 674.988 148.678 680.061 153.776 681.357Z" fill="#FFA35F"/>
<path d="M186.853 683.616C191.951 684.912 197.024 681.941 198.185 676.979C199.345 672.017 196.154 666.944 191.056 665.647C185.958 664.351 180.885 667.323 179.725 672.285C178.564 677.246 181.756 682.32 186.853 683.616Z" fill="#FFA35F"/>
<path d="M786.676 579.522C775.061 612.561 729.079 629.104 694.809 619.5C594.457 591.381 490.251 576.903 388.534 554.647C345.663 545.267 281.923 533.395 255.158 494.269C230.342 457.988 263.962 418.166 288.156 393.917C320.904 361.094 355.245 329.825 387.8 296.83C435.211 248.777 479.464 197.703 527.344 150.128C552.484 125.148 589.226 93.3811 625.846 121.353C659.924 147.384 667.436 199.516 680.394 236.906C709.022 319.505 729.44 406.441 763.963 487.018C773.891 510.19 787.935 534.877 789.344 560.284C789.729 567.186 788.752 573.617 786.676 579.522Z" fill="#FFA35F"/>
<path d="M755.071 718.999C743.456 752.038 697.474 768.583 663.204 758.978C562.851 730.861 458.645 716.383 356.928 694.127C314.057 684.747 250.316 672.874 223.552 633.747C198.737 597.466 232.356 557.643 256.55 533.397C289.298 500.574 323.64 469.303 356.194 436.31C403.605 388.257 447.858 337.183 495.738 289.608C520.878 264.628 557.62 232.861 594.24 260.833C628.318 286.864 635.831 338.996 648.788 376.386C677.417 458.985 697.834 545.921 732.358 626.496C742.285 649.67 756.329 674.357 757.739 699.763C758.124 706.661 757.147 713.094 755.071 718.999Z" fill="#FFD576"/>
<path d="M524.342 662.815C487.366 666.492 474.401 662.558 445.086 639.056C435.334 631.243 427.803 609.75 437.058 601.777C447.979 592.399 464.26 596.828 475.699 602.417C473.818 604.121 472.463 606.382 471.853 608.996C470.14 616.332 474.923 623.863 482.521 625.798C487.319 627.02 492.098 625.728 495.396 622.74C497.006 626.978 500.679 630.423 505.476 631.645C513.074 633.581 520.64 629.196 522.353 621.86C522.803 619.932 522.796 617.982 522.404 616.122C523.483 616.185 524.613 616.241 525.767 616.298C537.216 616.843 553.3 624.205 554.247 635.876C555.056 645.849 549.02 660.345 524.342 662.815Z" fill="#EF674D"/>
<path d="M522.601 621.398C520.89 628.716 513.33 633.09 505.738 631.158C500.944 629.939 497.274 626.502 495.665 622.273C492.37 625.254 487.595 626.543 482.801 625.324C475.209 623.392 470.429 615.879 472.14 608.561C472.749 605.953 474.103 603.698 475.983 601.998C476.576 602.266 477.159 602.578 477.725 602.863C485.221 606.763 490.942 609.41 496.267 611.28C497.525 611.717 498.769 612.103 500.003 612.441C506.602 614.356 513.198 615.144 522.649 615.673C523.044 617.527 523.051 619.472 522.601 621.398Z" fill="white"/>
<path d="M444.617 563.991C457.566 567.312 470.421 559.842 473.328 547.306C476.235 534.77 468.095 521.916 455.145 518.595C442.196 515.274 429.342 522.744 426.434 535.28C423.527 547.816 431.667 560.67 444.617 563.991Z" fill="#4F2A11"/>
<path d="M447.193 552.908C453.768 554.598 460.304 550.762 461.789 544.341C463.275 537.92 459.15 531.345 452.574 529.655C445.998 527.965 439.463 531.8 437.977 538.221C436.491 544.642 440.617 551.218 447.193 552.908Z" fill="white"/>
<path d="M460.892 535.913C463.038 536.465 465.171 535.214 465.656 533.119C466.14 531.025 464.793 528.879 462.647 528.328C460.501 527.776 458.368 529.027 457.884 531.122C457.399 533.217 458.746 535.362 460.892 535.913Z" fill="white"/>
<path d="M435.396 551.411C437.542 551.963 439.675 550.712 440.16 548.617C440.644 546.523 439.298 544.378 437.151 543.826C435.005 543.274 432.872 544.525 432.388 546.62C431.903 548.715 433.25 550.86 435.396 551.411Z" fill="white"/>
<path d="M553.934 590.644C566.883 593.965 579.737 586.495 582.645 573.959C585.552 561.423 577.411 548.569 564.462 545.248C551.513 541.927 538.658 549.397 535.751 561.933C532.844 574.469 540.985 587.323 553.934 590.644Z" fill="#4F2A11"/>
<path d="M544.713 578.072C546.859 578.623 548.992 577.372 549.477 575.278C549.961 573.183 548.615 571.038 546.468 570.486C544.322 569.934 542.189 571.185 541.705 573.28C541.22 575.375 542.567 577.52 544.713 578.072Z" fill="white"/>
<path d="M567.932 562.019C570.078 562.571 572.211 561.32 572.695 559.225C573.18 557.131 571.833 554.985 569.687 554.434C567.541 553.882 565.408 555.133 564.923 557.228C564.439 559.323 565.786 561.468 567.932 562.019Z" fill="white"/>
<path d="M556.51 579.571C563.085 581.261 569.621 577.425 571.107 571.004C572.593 564.583 568.467 558.008 561.891 556.318C555.315 554.628 548.78 558.463 547.294 564.884C545.808 571.305 549.934 577.881 556.51 579.571Z" fill="white"/>
</svg>
