<svg width="1115" height="1150" viewBox="0 0 1115 1150" fill="none" xmlns="http://www.w3.org/2000/svg">
<path d="M555.164 296.902C561.859 295.518 566.296 289.32 565.074 283.058C563.852 276.797 557.434 272.842 550.74 274.226C544.045 275.61 539.608 281.808 540.83 288.069C542.052 294.331 548.469 298.285 555.164 296.902Z" fill="#0F0F0F"/>
<path d="M140.806 226.302C154.782 209.671 158.653 189.953 149.452 182.26C140.252 174.568 121.465 181.814 107.49 198.445C93.5142 215.076 89.6432 234.794 98.8434 242.486C108.044 250.179 126.831 242.933 140.806 226.302Z" fill="#0F0F0F"/>
<path d="M127.58 211.861C133.316 205.035 134.905 196.942 131.129 193.785C127.352 190.627 119.641 193.601 113.905 200.427C108.169 207.253 106.581 215.347 110.357 218.504C114.133 221.662 121.844 218.688 127.58 211.861Z" fill="#4C4C4C"/>
<path d="M81.8256 361.763C97.5034 358.465 107.833 343.375 104.897 328.06C101.961 312.745 86.8721 303.004 71.1943 306.302C55.5165 309.601 45.187 324.69 48.1228 340.005C51.0585 355.32 66.1478 365.062 81.8256 361.763Z" fill="#0F0F0F"/>
<path d="M76.319 333.5C81.4179 332.427 84.7773 327.519 83.8225 322.538C82.8677 317.557 77.9603 314.389 72.8615 315.462C67.7626 316.535 64.4032 321.442 65.358 326.423C66.3128 331.404 71.2202 334.572 76.319 333.5Z" fill="#4C4C4C"/>
<path d="M483.64 255C494.498 256.916 506.869 240.124 511.273 217.494C515.676 194.864 510.444 174.965 499.586 173.049C488.729 171.133 476.357 187.925 471.953 210.556C467.55 233.186 472.782 253.084 483.64 255Z" fill="#0F0F0F"/>
<path d="M491.791 223.703C497.464 224.704 503.93 215.929 506.231 204.102C508.532 192.275 505.798 181.876 500.125 180.875C494.451 179.874 487.986 188.65 485.684 200.476C483.383 212.303 486.117 222.702 491.791 223.703Z" fill="#4C4C4C"/>
<path d="M793.597 135.221C816.794 130.341 832.077 108.015 827.733 85.3555C823.39 62.6955 801.064 48.2823 777.868 53.1625C754.671 58.0428 739.388 80.3685 743.732 103.028C748.075 125.688 770.401 140.102 793.597 135.221Z" fill="#0F0F0F"/>
<path d="M795.592 94.5006C804.386 92.6505 810.18 84.1878 808.534 75.5985C806.887 67.0093 798.424 61.5461 789.63 63.3962C780.836 65.2463 775.042 73.709 776.689 82.2983C778.335 90.8875 786.799 96.3507 795.592 94.5006Z" fill="#4C4C4C"/>
<path d="M897.67 417.674C903.256 418.15 907.988 416.466 908.239 413.913C908.491 411.359 904.167 408.903 898.581 408.427C892.995 407.951 888.263 409.634 888.011 412.188C887.76 414.741 892.084 417.197 897.67 417.674Z" fill="#4C4C4C"/>
<path d="M641.452 500.224C642.514 484.502 650.365 469.126 658.777 455.742C679.555 422.688 711.655 399.374 749.69 389.044C772.322 382.896 795.673 381.81 818.808 379.909C842.04 377.997 864.419 373.282 886.734 366.074C924.209 353.957 976.811 324.126 980.628 280.944C984.48 237.404 948.055 188.353 898.618 210.176C877.898 219.325 857.016 243.741 863.285 266.802C869.386 289.239 899.033 301.94 919.26 287.127" fill="black"/>
<path d="M601.515 469.713C598.736 460.938 599.827 450.97 601.652 441.971C606.17 419.743 619.102 400.514 638.135 387.141C649.462 379.182 662.273 373.833 674.789 368.085C687.356 362.309 698.852 355.183 709.767 346.711C728.106 332.48 751.092 305.524 743.965 281.238C736.778 256.752 705.907 237.475 682.968 259.427C673.355 268.629 666.927 286.175 675.374 297.449C683.598 308.42 702.885 309.291 711.006 297.106" fill="#0F0F0F"/>
<path d="M826.219 508.413C826.188 500.412 829.627 492.343 833.422 485.268C842.791 467.802 858.281 454.875 877.266 448.325C888.561 444.428 900.408 443.071 912.112 441.31C923.87 439.534 935.088 436.373 946.181 431.948C964.815 424.514 990.501 407.577 990.871 385.558C991.249 363.355 970.921 339.755 946.553 352.526C936.339 357.876 926.603 370.974 930.631 382.444C934.553 393.605 950.106 399.019 959.86 390.813" fill="black"/>
<path d="M656.38 453.473C698.381 577.499 633.697 733.238 504.366 779.042C375.03 824.847 230.016 743.372 188.014 619.345C146.012 495.317 222.931 375.707 352.266 329.902C481.598 284.1 614.38 329.447 656.38 453.473Z" fill="#EA482D"/>
<path d="M477.339 643.523C489.158 678.493 469.187 717.339 432.74 730.28C396.274 743.227 357.142 725.37 345.326 690.401C333.503 655.416 353.473 616.569 389.939 603.619C426.384 590.679 465.518 608.537 477.339 643.523Z" fill="#EA482D" stroke="#892B1F" stroke-width="5" stroke-miterlimit="10"/>
<path d="M415.306 756.374C453.02 748.247 478.07 712.151 471.257 675.752C464.445 639.352 428.349 616.433 390.635 624.56C352.921 632.687 327.87 668.783 334.683 705.182C341.496 741.582 377.592 764.501 415.306 756.374Z" fill="#EA482D" stroke="#892B1F" stroke-width="5" stroke-miterlimit="10"/>
<path d="M411.454 735.793C437.391 730.204 454.619 705.379 449.933 680.346C445.248 655.314 420.424 639.551 394.487 645.141C368.55 650.73 351.322 675.554 356.007 700.587C360.692 725.62 385.517 741.382 411.454 735.793Z" fill="#892B1F"/>
<path d="M494.749 569.749C494.19 570.127 493.647 570.499 493.067 570.885C491.881 571.646 490.719 572.46 489.516 573.165C488.612 573.706 487.713 574.267 486.8 574.769C486.575 574.909 486.327 575.035 486.077 575.167C485.473 575.48 484.886 575.786 484.266 576.107C476.566 580.094 468.554 582.785 460.456 584.239C430.255 589.783 399.289 578.293 382.398 553.463C381.617 552.331 380.867 551.167 380.147 549.974L381.767 549.02L468.3 497.841L495.265 481.895L521.532 466.357C541.774 500.685 529.718 545.663 494.749 569.749Z" fill="black"/>
<path d="M384.245 547.846C384.32 549.24 384.36 550.572 384.334 551.964C384.256 590.219 353.752 624.124 313.397 629.937C312.72 630.036 312.063 630.114 311.387 630.212C310.233 630.376 309.03 630.45 307.833 630.552C307.71 630.555 307.591 630.575 307.469 630.577C306.085 630.684 304.697 630.714 303.297 630.767C302.615 630.788 301.94 630.823 301.276 630.837C295.445 630.928 289.773 630.443 284.289 629.41C250.216 623.088 224.08 596.228 221.95 561.857L298.568 555.179L322.741 553.202L382.905 548.089L382.922 548.085L384.245 547.846Z" fill="black"/>
<path d="M323.112 552.537L308.003 631.127C307.878 631.13 307.758 631.152 307.633 631.157C306.232 631.266 304.827 631.297 303.409 631.35C302.719 631.369 302.034 631.41 301.362 631.421C295.459 631.515 289.718 631.026 284.165 629.977L298.63 554.664L323.112 552.537Z" fill="white"/>
<path d="M495.383 481.64L486.789 575.689C486.561 575.83 486.31 575.959 486.056 576.091C485.444 576.409 484.849 576.719 484.22 577.044C476.415 581.083 468.292 583.809 460.084 585.282L468.046 497.791L495.383 481.64Z" fill="white"/>
<path d="M353.782 381.097C366.102 376.714 374.281 367.794 372.049 361.175C369.817 354.555 358.02 352.741 345.699 357.124C333.379 361.507 325.201 370.426 327.432 377.046C329.664 383.666 341.461 385.479 353.782 381.097Z" fill="#F76652"/>
<path d="M409.039 361.988C421.359 357.605 429.538 348.686 427.306 342.066C425.074 335.446 413.277 333.633 400.956 338.016C388.636 342.398 380.457 351.318 382.689 357.937C384.921 364.557 396.718 366.371 409.039 361.988Z" fill="#F76652"/>
<path d="M442.609 387.479C454.93 383.097 463.108 374.177 460.876 367.557C458.645 360.938 446.847 359.124 434.527 363.507C422.206 367.889 414.028 376.809 416.26 383.429C418.492 390.049 430.289 391.862 442.609 387.479Z" fill="#F76652"/>
<path d="M488.656 371.558C500.976 367.175 509.154 358.255 506.922 351.634C504.69 345.014 492.893 343.199 480.572 347.582C468.251 351.965 460.073 360.885 462.305 367.506C464.538 374.127 476.335 375.941 488.656 371.558Z" fill="#F76652"/>
<path d="M507.387 394.792C514.411 392.293 519.015 387.036 517.672 383.05C516.329 379.064 509.546 377.859 502.523 380.358C495.499 382.858 490.895 388.115 492.238 392.101C493.581 396.086 500.364 397.291 507.387 394.792Z" fill="#F76652"/>
<path d="M224.654 625.366C224.009 631.931 222.765 637.994 220.984 642.877C219.181 647.787 216.836 651.578 213.332 654.002C213.332 654.002 211.03 655.534 207.456 658.556C203.893 661.542 199.245 666.306 195.654 672.037C193.88 674.899 192.476 677.956 191.478 681.019C190.595 684.098 190.021 687.158 190.163 690.371C190.139 691.174 190.258 691.995 190.318 692.825C190.31 693.195 190.482 693.841 190.543 694.341C190.641 694.897 190.671 695.349 190.839 696.075C191.101 697.414 191.363 698.76 191.628 700.111C191.946 701.259 192.267 702.415 192.589 703.575C193.982 708.053 195.851 712.023 198.22 715.533C200.589 719.044 203.473 722.139 206.959 724.905C210.433 727.664 214.523 730.073 219.034 732.063C223.541 734.05 228.435 735.618 233.387 736.765C238.374 737.869 243.38 738.562 248.112 739.004C257.649 739.754 266.027 739.378 271.846 738.812C274.761 738.592 277.054 738.191 278.618 738.041C280.177 737.795 281.007 737.661 281.007 737.661C287.621 736.608 294.2 738.626 300.636 742.612C303.852 744.641 306.999 747.132 310.014 750.163C312.989 753.114 315.819 756.561 318.258 760.422C306.88 756.326 296.158 754.708 285.342 754.322C279.945 754.162 274.547 754.242 269.133 754.614C263.729 754.849 258.283 755.476 252.879 755.935C251.05 756.158 249.258 756.25 247.442 756.453C245.619 756.676 243.827 756.803 242.022 756.972C240.798 757.076 239.556 757.268 238.355 757.324C232.914 758.041 227.403 758.606 221.733 758.996C216.145 759.24 210.321 759.425 204.589 758.898C198.849 758.404 192.973 757.53 187.374 755.79C184.474 755.041 181.832 753.869 179.021 752.782C176.427 751.467 173.627 750.239 171.206 748.571C166.085 745.482 161.682 741.42 157.838 736.912C156.062 734.573 154.208 732.228 152.871 729.62C152.168 728.336 151.441 727.053 150.831 725.727C150.274 724.381 149.745 723.022 149.247 721.655C148.151 718.955 147.68 716.069 147.112 713.256C146.644 710.417 146.598 707.524 146.561 704.676C146.62 698.933 147.989 693.16 150.72 688.051C151.449 686.398 152.38 684.783 153.177 683.215C153.178 683.199 153.198 683.2 153.202 683.186C154.155 681.642 154.958 680.119 155.98 678.666C155.987 678.637 156.009 678.624 156.034 678.597C160.585 671.713 165.982 665.93 171.686 660.941C174.509 658.432 177.424 656.114 180.388 653.937C183.33 651.752 186.285 649.681 189.286 647.723C201.265 639.852 212.95 633.16 224.654 625.366Z" fill="#892B1F"/>
<path d="M223.502 602.213C225.582 609.968 225.535 617.274 224.886 624.229C213.051 632.083 201.294 638.93 189.306 646.945C186.303 648.938 183.347 651.044 180.41 653.26C177.446 655.468 174.536 657.817 171.719 660.353C166.028 665.396 160.647 671.22 156.101 678.137C156.073 678.164 156.053 678.177 156.046 678.206C155.002 679.663 154.213 681.196 153.255 682.744C153.254 682.758 153.233 682.757 153.23 682.773C152.43 684.348 151.494 685.97 150.762 687.63C148.018 692.76 146.641 698.557 146.584 704.324C146.619 707.184 146.667 710.088 147.137 712.939C147.708 715.763 148.181 718.662 149.282 721.373C149.782 722.746 150.314 724.11 150.873 725.462C151.486 726.793 152.216 728.079 152.923 729.37C154.266 731.99 156.129 734.344 157.913 736.694C161.774 741.22 166.198 745.298 171.343 748.4C173.775 750.075 176.588 751.31 179.193 752.629C182.018 753.72 184.672 754.897 187.586 755.65C193.211 757.396 199.114 758.274 204.88 758.77C210.641 759.299 216.491 759.113 222.103 758.869C227.8 758.479 233.337 757.91 238.803 757.19C240.009 757.133 241.257 756.941 242.487 756.836C244.298 756.667 246.097 756.544 247.931 756.323C249.756 756.121 251.557 756.029 253.394 755.795C258.827 755.354 264.299 754.75 269.732 754.539C275.176 754.192 280.605 754.14 286.035 754.324C296.914 754.764 307.712 756.426 319.157 760.533C321.067 763.565 322.667 766.622 323.948 770.179C325.917 775.633 326.752 781.169 326.329 786.601C326.12 789.316 325.6 792.008 324.771 794.637C323.937 797.224 322.79 799.729 321.352 802.139C315.643 811.728 304.928 819.234 292.045 821.234C292.044 821.233 286.678 822.19 277.189 823.092C267.704 823.985 254.061 824.692 237.469 823.36C229.164 822.612 220.131 821.375 210.561 819.231C200.995 817.027 190.886 813.893 180.651 809.389C170.43 804.886 160.069 798.954 150.434 791.312C140.799 783.702 131.969 774.341 124.91 763.854C117.819 753.382 112.552 741.892 109.054 730.483C108.248 727.642 107.414 724.755 106.723 721.963C106.176 719.267 105.634 716.585 105.094 713.918C104.822 712.648 104.598 711.073 104.37 709.625C104.158 708.11 103.892 706.775 103.751 705.123C103.426 701.928 103.145 698.751 103.107 695.552C102.702 682.788 104.804 670.295 108.204 659.175C111.704 648.065 116.483 638.271 121.623 629.977C132.019 613.409 143.325 602.445 151.491 595.429C153.531 593.65 155.405 592.145 157.052 590.86C158.681 589.547 160.113 588.502 161.272 587.652C163.582 585.936 164.853 585.084 164.853 585.084C170.844 580.893 177.473 578.291 183.927 577.25C190.382 576.187 196.648 576.674 202.137 578.509C204.876 579.411 207.418 580.633 209.734 582.173C212.039 583.69 214.092 585.468 215.898 587.529C219.501 591.621 221.99 596.606 223.502 602.213Z" fill="#EA482D"/>
<path d="M419.86 1089.88C417.112 1092.74 413.603 1095.39 409.506 1097.47C405.486 1099.4 400.709 1101.05 395.787 1101.69C385.805 1103.22 374.536 1101.68 364.859 1096.9C364.859 1096.9 363.241 1096.19 360.461 1094.67C359.057 1093.92 357.326 1092.99 355.293 1091.9C353.364 1090.73 351.149 1089.4 348.668 1087.9C338.864 1081.81 326.273 1072.23 313.488 1059.6C300.781 1046.94 287.87 1031.3 276.254 1013.41C264.636 995.453 254.128 975.509 246.126 952.958C242.083 941.583 239.03 929.484 237.068 917.311C235.111 905.156 234.442 892.99 234.732 881.177C235.27 857.535 240.352 835.308 247.414 816.905C254.427 798.443 263.464 783.916 270.513 774.287C272.238 771.85 273.901 769.746 275.367 767.926C276.815 766.097 278.065 764.552 279.144 763.343C281.272 760.909 282.408 759.61 282.408 759.61C291.671 749.303 304.084 743.398 315.272 742.312C326.531 741.119 336.544 744.678 343.416 751.104C328.38 750.6 311.886 756.803 298.283 768.107C284.567 779.3 273.995 795.205 268.053 811.694C266.086 817.242 264.464 822.815 263.407 828.374C263.023 830.261 262.674 832.124 262.429 833.997C260.396 850.651 262.054 867.059 265.798 882.149C269.524 897.28 275.266 911.147 281.637 923.774C287.944 936.443 294.765 947.974 300.452 959.767C306.174 971.556 310.838 983.516 313.816 996.866C314.353 998.988 315.032 1001.06 315.67 1003.17C315.682 1003.19 315.668 1003.2 315.679 1003.22C316.303 1005.32 317.012 1007.4 317.759 1009.48C317.784 1009.51 317.779 1009.54 317.787 1009.58C324.731 1029.21 335.412 1048.81 352.217 1064.63C360.587 1072.5 370.599 1079.33 382.166 1083.98C393.66 1088.64 406.809 1091.02 419.86 1089.88Z" fill="#892B1F"/>
<path d="M427.716 1068.25C427.74 1076.38 425.249 1083.54 419.372 1089.95C406.358 1091.09 393.23 1088.75 381.728 1084.14C370.16 1079.53 360.121 1072.76 351.713 1064.94C334.83 1049.22 324.029 1029.7 317.028 1010.09C317.02 1010.05 317.023 1010.02 317 1009.98C316.267 1007.89 315.542 1005.82 314.915 1003.72C314.903 1003.7 314.92 1003.69 314.907 1003.67C314.264 1001.56 313.587 999.485 313.048 997.362C310.065 984.003 305.391 972.035 299.655 960.239C293.953 948.438 287.119 936.9 280.798 924.222C274.413 911.588 268.661 897.713 264.924 882.571C261.172 867.471 259.511 851.053 261.548 834.388C261.793 832.513 262.143 830.65 262.528 828.761C263.588 823.198 265.233 817.628 267.185 812.071C273.183 795.573 283.831 779.698 297.604 768.549C311.264 757.292 327.79 751.141 342.839 751.657C345.542 754.167 347.713 756.897 349.585 760.222C352.452 765.328 354.116 770.784 355.011 776.084C355.863 781.341 356.074 786.618 355.693 791.367C354.935 801.046 352.603 808.981 347.205 814.881C347.205 814.881 346.648 815.522 345.603 816.722C345.058 817.299 344.451 818.076 343.737 818.988C343.008 819.886 342.169 820.921 341.317 822.156C337.79 826.977 333.129 834.34 329.331 844.323C325.528 854.248 322.536 866.804 322.245 880.592C322.086 887.462 322.449 894.61 323.611 901.729C324.782 908.811 326.523 915.994 329.119 923.239C334.316 937.976 342.225 953.291 350.802 966.427C359.397 979.653 368.756 990.832 377.166 999.213C385.642 1007.52 393.074 1013.09 398.187 1016.23C399.462 1017.01 400.6 1017.7 401.59 1018.3C402.571 1018.81 403.406 1019.25 404.083 1019.61C405.428 1020.38 406.134 1020.66 406.134 1020.66C412.878 1023.83 416.335 1029.71 419.975 1037.9C421.738 1041.86 423.53 1046.68 425.029 1051.66C426.515 1056.74 427.712 1062.35 427.716 1068.25Z" fill="#EA482D"/>
<path d="M514.329 968.531C513.283 971.802 511.773 974.92 509.817 977.781C507.818 980.535 505.314 982.943 502.439 984.997C500.997 986.007 499.474 986.969 497.845 987.729C496.201 988.436 494.474 989.025 492.687 989.481C490.899 989.937 489.05 990.263 487.168 990.446C485.289 990.658 483.361 990.465 481.431 990.255C481.431 990.255 480.2 990.094 477.887 989.792C476.735 989.621 475.305 989.456 473.646 989.155C472.003 988.781 470.116 988.353 468.003 987.872C459.557 986.022 447.756 981.926 435.802 974.849C423.794 967.829 411.974 957.835 402.073 946.245C392.069 934.664 383.957 921.569 377.469 908.238C364.448 881.547 358.061 853.786 355.524 832.299C354.83 826.949 354.506 821.943 354.181 817.525C353.997 813.049 353.813 809.168 353.823 805.906C353.849 802.638 353.871 800.072 353.885 798.32C353.969 796.539 354.012 795.591 354.012 795.591C354.195 791.8 355.27 788.17 357.292 784.811C358.274 783.147 359.436 781.577 360.755 780.126C362.139 778.641 363.682 777.277 365.353 776.057C368.673 773.622 372.55 771.728 376.873 770.453C381.153 769.191 385.738 768.593 390.467 768.624C380.757 774.639 374.812 783.787 372.016 793.537C369.225 803.323 369.551 813.739 371.961 823.345C372.741 826.579 373.818 829.71 374.929 832.773C375.34 833.807 375.788 834.818 376.226 835.824C380.537 844.672 386.443 852.817 392.697 860.3C395.757 864.067 399.102 867.617 402.203 871.103C405.401 874.507 408.549 877.861 411.625 881.137C417.665 887.666 423.044 893.894 427.214 900.543C431.382 907.232 434.065 914.49 435.67 923.558C435.998 924.967 436.305 926.436 436.784 927.795C436.794 927.805 436.78 927.818 436.788 927.828C437.225 929.206 437.691 930.607 438.185 932.008C438.203 932.028 438.199 932.048 438.203 932.081L439.106 934.578C439.45 935.386 439.824 936.181 440.197 936.989C440.95 938.596 441.746 940.217 442.588 941.839C443.436 943.455 444.481 944.941 445.492 946.501C446.554 948.01 447.531 949.65 448.801 951.036C451.272 953.875 453.822 956.82 456.939 959.217C458.47 960.447 459.996 961.729 461.662 962.831C463.355 963.891 465.094 964.915 466.874 965.894C481.143 973.86 499.78 974.704 514.329 968.531Z" fill="#892B1F"/>
<path d="M514.71 946.222C516.242 954.136 516.095 961.341 513.901 968.227C499.414 974.386 480.857 973.648 466.577 965.8C464.799 964.833 463.057 963.825 461.362 962.781C459.695 961.694 458.164 960.424 456.631 959.208C453.505 956.839 450.943 953.919 448.461 951.103C447.184 949.73 446.201 948.099 445.131 946.6C444.114 945.053 443.061 943.574 442.209 941.966C441.361 940.351 440.557 938.74 439.799 937.135C439.423 936.332 439.045 935.54 438.699 934.734L437.789 932.243C437.785 932.21 437.789 932.19 437.771 932.17C437.303 930.769 436.837 929.377 436.373 927.988C436.365 927.978 436.379 927.965 436.369 927.956C435.892 926.596 435.583 925.127 435.254 923.717C433.648 914.647 430.962 907.384 426.792 900.695C422.619 894.042 417.237 887.812 411.193 881.283C408.115 878.006 404.964 874.651 401.764 871.246C398.66 867.758 395.314 864.207 392.251 860.44C385.993 852.954 380.082 844.805 375.769 835.956C375.33 834.948 374.883 833.938 374.471 832.904C373.359 829.84 372.301 826.704 371.501 823.473C369.128 813.854 368.868 803.43 371.715 793.653C374.567 783.908 380.56 774.781 390.272 768.781C393.968 768.808 397.515 769.155 401.362 769.891C413.171 772.219 423.155 776.808 430.228 781.202C432.024 782.346 433.628 783.502 435.006 784.655C435.697 785.233 436.325 785.807 436.904 786.387C437.513 786.991 438.06 787.598 438.547 788.206C439.52 789.424 440.234 790.641 440.678 791.884C441.192 793.171 441.426 794.477 441.352 795.811C441.352 795.811 441.32 796.373 441.263 797.426C441.256 798.508 441.247 800.092 441.233 802.111C441.216 804.129 441.367 806.648 441.458 809.513C441.696 812.41 441.875 815.676 442.357 819.269C443.217 826.433 444.72 834.847 447.107 843.557C449.48 852.265 452.743 861.252 456.723 869.418C460.681 877.589 465.366 884.929 470.112 890.349C474.84 895.846 479.441 899.477 483.134 901.639C486.854 903.808 489.7 904.817 491.779 905.194C492.29 905.313 492.741 905.441 493.132 905.563C493.536 905.634 493.894 905.626 494.174 905.667C494.737 905.737 495.036 905.773 495.036 905.773C495.392 905.827 495.732 905.963 496.063 906.175C496.415 906.318 496.765 906.509 497.107 906.792C497.792 907.347 498.469 908.206 499.178 909.325C500.693 911.236 502.319 914.269 504.172 917.89C507.842 924.856 512.433 934.77 514.71 946.222Z" fill="#EA482D"/>
<path d="M582.644 914.952C580.088 913.053 577.823 911.232 575.747 909.506C573.619 907.762 571.778 906.151 570.325 904.704C568.946 903.278 567.602 901.885 566.92 900.686C566.539 900.071 566.366 899.521 566.184 898.934C566.004 898.35 565.96 897.788 566.067 897.237C566.065 897.236 566.412 895.87 566.629 893.233C566.672 892.909 566.716 892.567 566.763 892.206C566.77 891.828 566.774 891.43 566.779 891.017C566.811 890.189 566.845 889.293 566.882 888.336C566.822 887.333 566.775 886.266 566.751 885.138C566.756 884.019 566.497 882.743 566.409 881.462C565.798 876.257 564.368 869.741 561.771 862.475C559.213 855.216 555.471 847.253 550.874 839.379C541.764 823.564 529.388 808.367 519.352 797.792C514.36 792.454 509.929 788.255 506.825 785.349C505.257 783.918 504.026 782.789 503.185 782.022C502.33 781.278 501.876 780.881 501.876 780.881C500.058 779.297 498.935 777.111 498.354 774.537C497.792 771.92 497.8 768.873 498.299 765.521C499.341 758.747 502.288 750.748 507.054 742.582C506.951 752.558 509.163 760.354 513.079 766.779C516.98 773.207 522.579 778.286 528.939 782.669C531.051 784.155 533.26 785.543 535.549 786.843L537.861 788.171C545.145 791.661 553.103 794.876 560.958 798.5C568.817 802.107 576.62 806.106 583.279 811.051C589.942 815.972 595.619 821.763 598.907 828.637C602.202 835.471 603.358 843.298 600.716 851.6C600.408 852.895 600.13 854.181 599.761 855.471C599.763 855.481 599.743 855.487 599.747 855.498L598.714 859.29C598.72 859.31 598.702 859.326 598.689 859.35C597.961 862.285 596.922 865.188 596.122 867.967C595.237 870.754 594.255 873.458 593.414 876.053C591.461 881.239 589.805 886.023 588.089 890.378C586.575 894.785 585.034 898.727 584.223 902.7C583.14 906.599 582.838 910.575 582.644 914.952Z" fill="#892B1F"/>
<path d="M601.069 927.163C593.619 923.757 587.607 919.629 582.263 915.652C582.471 911.248 582.763 907.235 583.814 903.306C584.592 899.303 586.081 895.333 587.536 890.914C589.193 886.544 590.788 881.758 592.685 876.577C593.498 873.986 594.455 871.289 595.319 868.508C596.098 865.735 597.115 862.836 597.832 859.908C597.845 859.881 597.863 859.866 597.857 859.847C598.202 858.579 598.543 857.319 598.889 856.058C598.885 856.047 598.904 856.041 598.903 856.031C599.271 854.742 599.551 853.456 599.856 852.162C602.494 843.864 601.339 836.044 598.05 829.216C594.768 822.346 589.1 816.558 582.448 811.641C575.8 806.701 568.01 802.703 560.163 799.099C552.323 795.477 544.377 792.267 537.104 788.777L534.796 787.45C532.511 786.151 530.321 784.752 528.197 783.279C521.873 778.868 516.329 773.747 512.469 767.28C508.594 760.815 506.414 752.987 506.509 743.014C508.371 739.842 510.35 736.857 512.803 733.753C520.299 724.222 529.351 717.377 538.329 714.386C547.214 711.399 555.979 712.23 561.697 717.328C561.697 717.328 562.3 717.858 563.434 718.851C564.541 719.863 566.164 721.346 568.229 723.233C572.311 727.05 578.079 732.539 584.591 739.497C597.675 753.361 613.905 773.022 627.185 795.991C633.843 807.439 639.735 819.746 644.173 832.267C648.642 844.749 651.609 857.455 652.953 868.991C653.233 871.911 653.62 874.63 653.713 877.366C653.81 880.088 653.901 882.673 653.988 885.099C653.96 887.571 653.868 889.909 653.794 892.058C653.748 893.132 653.705 894.165 653.664 895.152C653.562 896.156 653.468 897.113 653.379 898.02C652.968 901.658 652.731 904.49 652.34 906.457C651.981 908.42 651.789 909.465 651.789 909.465C651.28 911.961 650.638 914.346 649.414 916.571C648.243 918.794 646.812 920.848 645.174 922.678C641.838 926.329 637.39 929.02 632.72 930.612C622.914 933.741 611.828 932.146 601.069 927.163Z" fill="#EA482D"/>
<path d="M733.819 871.973C727.429 870.594 721.666 868.593 717.475 866.118C713.166 863.616 710.368 860.614 709.405 856.782C709.405 856.782 709.263 856.168 708.999 855.019C708.674 853.865 708.2 852.174 707.594 850.02C707.009 847.863 706.059 845.247 705.083 842.239C703.952 839.25 702.735 835.858 701.12 832.208C697.982 824.901 693.734 816.475 688.385 807.867C683.049 799.261 676.627 790.48 669.524 782.42C662.399 774.385 654.622 767.092 646.95 761.122C639.277 755.128 631.729 750.482 625.179 747.175C623.539 746.342 621.98 745.514 620.461 744.91C618.951 744.274 617.538 743.571 616.191 743.059C613.487 742.097 611.161 741.093 609.217 740.592C607.282 740.022 605.777 739.452 604.738 739.273C603.706 739.026 603.155 738.895 603.155 738.895C602.056 738.648 601.046 738.103 600.099 737.51C599.15 736.934 598.269 736.153 597.434 735.192C595.771 733.187 594.29 730.824 592.939 727.752C592.264 726.241 591.622 724.527 591.02 722.803C590.414 721.084 589.848 719.24 589.329 717.289C588.294 713.389 587.44 709.071 586.951 704.505C593.513 712.494 599.79 717.871 606.616 721.664C613.414 725.458 620.841 727.863 628.879 729.975C631.587 730.61 634.284 731.405 637.108 731.929C638.067 732.113 638.992 732.378 639.945 732.587C648.64 733.977 658.048 735.52 667.487 737.906C676.907 740.281 686.464 743.389 694.921 747.884C703.378 752.352 710.931 758.014 716.304 765.094C721.625 772.192 724.917 780.593 724.784 790.212C724.895 791.686 724.904 793.223 724.972 794.71C724.978 794.721 724.962 794.73 724.968 794.741C725.026 796.213 725.081 797.698 725.137 799.171C725.15 799.194 725.139 799.212 725.133 799.245C725.622 813.145 725.514 826.501 726.434 838.594C727.371 850.742 729.335 861.559 733.819 871.973Z" fill="#892B1F"/>
<path d="M755.629 873.551C747.322 874.302 739.915 873.502 733.141 872.061C728.668 861.626 726.604 850.818 725.56 838.709C724.531 826.662 724.522 813.383 723.99 799.537C723.996 799.504 724.007 799.486 723.994 799.463C723.937 797.982 723.883 796.51 723.826 795.042C723.82 795.032 723.836 795.022 723.83 795.012C723.763 793.527 723.753 791.994 723.642 790.522C723.775 780.924 720.494 772.539 715.191 765.456C709.837 758.393 702.309 752.742 693.879 748.282C685.451 743.795 675.926 740.694 666.538 738.324C657.131 735.942 647.755 734.405 639.089 733.016C638.139 732.807 637.218 732.545 636.262 732.359C633.445 731.837 630.768 731.026 628.06 730.409C620.062 728.265 612.68 725.804 605.909 721.966C599.114 718.126 592.847 712.715 586.29 704.742C585.915 701.183 585.736 697.711 585.934 693.889C586.48 682.174 590.596 671.76 598.257 664.578C601.998 661.184 606.6 658.485 611.559 657.115C616.479 655.82 621.892 655.514 626.995 656.869C626.995 656.869 628.075 657.134 630.098 657.631C632.152 658.08 634.99 659.02 638.66 660.14C642.375 661.204 646.612 662.874 651.538 664.726C656.321 666.74 661.763 669.004 667.295 671.912C678.502 677.582 690.697 685.179 702.47 694.392C714.266 703.586 725.662 714.358 735.895 725.93C746.102 737.521 755.149 749.909 762.705 762.111C770.277 774.309 776.344 786.331 780.927 797.019C783.257 802.339 785.113 807.391 786.767 811.858C788.286 816.412 789.653 820.348 790.592 823.709C791.527 827.066 792.265 829.704 792.764 831.504C793.2 833.343 793.433 834.324 793.433 834.324C795.792 843.624 792.353 853.618 785.376 860.772C778.251 868.1 767.658 872.506 755.629 873.551Z" fill="#EA482D"/>
<path d="M883.892 781.381C880.4 781.483 876.998 781.254 873.786 780.711C870.522 780.188 867.383 779.376 864.551 778.229C861.724 777.08 859.164 775.615 856.805 773.877C854.469 772.133 852.568 769.998 850.944 767.569C850.944 767.569 848.829 764.486 845.129 759.082C843.149 756.48 840.848 753.234 838.047 749.649C835.16 746.145 832.037 742.057 828.271 737.975C820.91 729.667 811.853 720.399 801.389 712.033C790.964 703.651 779.225 696.04 767.296 690.778C764.284 689.665 761.345 688.347 758.345 687.278C756.826 686.819 755.309 686.359 753.796 685.9C752.3 685.453 750.758 684.884 749.348 684.564C746.479 683.836 742.949 683.109 739.379 682.438C735.792 681.764 732.088 681.169 728.44 680.611C713.74 678.418 699.64 677.202 688.011 676.756C682.187 676.544 676.971 676.532 672.452 676.608C667.999 676.753 664.176 676.926 661.268 677.217C659.773 677.337 658.48 677.46 657.427 677.609C656.365 677.749 655.388 677.827 654.722 677.951C653.35 678.169 652.618 678.284 652.618 678.284C646.73 679.236 643.198 677.1 639.532 672.62C638.651 671.535 637.853 670.233 636.551 669.045C635.255 668.013 633.709 666.869 632.091 665.798C630.494 664.745 628.762 663.687 626.94 662.599C625.131 661.528 623.308 660.446 621.459 659.353L623.307 659.168C623.931 659.135 624.583 659.142 625.189 659.128C626.375 659.076 627.611 659.177 628.763 659.269C629.911 659.264 630.943 659.621 631.862 659.805L633.324 660.122L634.811 660.41C638.813 661.15 643.303 661.577 648.253 661.739C658.143 662.085 669.671 661.297 681.614 660.047C685.608 659.625 689.649 659.139 693.684 658.604C695.062 658.418 696.428 658.232 697.792 658.049C709.945 655.905 722.6 653.419 735.348 651.451C741.719 650.475 748.119 649.636 754.441 649.14C760.774 648.518 766.918 648.84 773.239 649.238C798.134 651.664 821.327 663.999 831.16 685.468C832.034 687.1 832.914 688.746 833.793 690.385C833.807 690.395 833.794 690.41 833.806 690.421C834.703 692.001 835.46 693.744 836.289 695.386C836.314 695.409 836.312 695.433 836.322 695.472C844.086 711.044 850.837 726.653 858.205 741.207C865.575 755.796 873.569 769.29 883.892 781.381Z" fill="#892B1F"/>
<path d="M905.873 775.462C898.398 779.154 890.954 780.665 883.604 780.887C873.263 768.761 865.167 755.289 857.691 740.75C850.221 726.241 843.369 710.701 835.568 695.155C835.559 695.116 835.56 695.093 835.536 695.069C834.719 693.412 833.948 691.682 833.051 690.101C833.039 690.09 833.053 690.075 833.039 690.065C832.161 688.425 831.28 686.776 830.404 685.145C820.566 663.66 797.363 651.319 772.457 648.891C766.132 648.493 759.987 648.171 753.651 648.794C747.324 649.292 740.922 650.129 734.55 651.106C721.796 653.077 709.136 655.564 696.977 657.708C695.612 657.891 694.246 658.077 692.867 658.263C688.83 658.799 684.79 659.265 680.792 659.707C668.836 660.921 657.304 661.648 647.386 661.251C642.425 661.064 637.912 660.618 633.879 659.873L632.379 659.584L630.903 659.269C629.973 659.086 628.929 658.732 627.775 658.738C626.615 658.649 625.37 658.554 624.178 658.609C623.569 658.621 622.916 658.619 622.289 658.654L620.434 658.846C617.504 657.067 614.687 655.291 611.846 652.886C607.399 649.133 603.885 644.651 602.085 639.055C601.201 636.282 600.919 633.386 601.077 630.218C601.163 628.643 601.48 627.128 601.886 625.516C602.352 623.921 602.744 622.279 603.691 620.637C604.563 618.991 605.603 617.323 606.807 615.654C608.004 614 609.161 612.618 610.558 611.108C611.244 610.371 611.966 609.636 612.72 608.913C613.407 608.264 614.125 607.621 614.874 606.988C616.334 605.753 618.048 604.418 619.609 603.384C626.138 598.96 633.203 596.222 640.403 594.968C640.403 594.968 641.887 594.734 644.669 594.296C646.079 594.064 647.68 593.903 649.64 593.656C651.606 593.399 653.793 593.181 656.202 592.982C661.093 592.517 666.76 592.245 673.188 592.051C679.548 591.932 686.598 591.962 694.127 592.239C709.191 592.822 726.122 594.298 744.289 597.002C748.849 597.699 753.478 598.443 758.278 599.343C763.094 600.253 768.026 601.243 773.572 602.639C776.392 603.314 778.952 604.173 781.634 604.972C784.285 605.8 786.947 606.628 789.612 607.459C794.85 609.299 799.946 611.468 805.099 613.53C825.192 622.432 842.696 634.04 857.525 645.947C872.388 657.869 884.464 670.26 894.211 681.248C899.173 686.691 903.27 691.966 907.019 696.57C910.668 701.236 913.664 705.425 916.211 708.821C921.005 715.816 923.742 719.812 923.742 719.812C926.891 724.664 928.786 729.988 929.493 735.335C930.087 740.764 929.582 746.145 927.912 751.227C924.46 761.513 916.72 770.128 905.873 775.462Z" fill="#EA482D"/>
<path d="M946.852 527.295C940.844 539.781 928.926 549.26 915.12 550.447C915.12 550.447 910.724 550.835 903.032 551.511C895.364 552.191 884.546 553.184 871.817 554.556C846.374 557.331 813.836 561.998 784.075 571.351L778.48 573.08L773.007 575.021C771.185 575.663 769.368 576.302 767.555 576.94C765.797 577.64 764.044 578.34 762.301 579.036C760.559 579.729 758.82 580.422 757.092 581.111C754.966 581.998 752.847 582.883 750.742 583.761C746.651 585.43 742.609 587.078 738.635 588.699C723.455 594.833 710.57 600.445 700.467 605.665C690.407 610.851 683.28 615.429 679.288 618.481C678.288 619.244 677.361 619.917 676.721 620.489C676.056 621.059 675.379 621.543 675.021 621.915C674.203 622.656 673.768 623.048 673.768 623.048C673.32 623.436 673.014 623.748 672.562 624.032C672.116 624.316 671.652 624.553 671.278 624.721C670.866 624.895 670.388 625.037 669.888 625.142C669.483 625.22 669.021 625.267 668.501 625.292C667.934 625.333 667.48 625.296 666.962 625.245C666.447 625.193 665.803 625.148 665.22 625.061C664.181 624.838 662.627 624.677 661.308 624.416C660.599 624.3 659.822 624.201 658.988 624.119C658.16 624.037 657.411 623.944 656.527 623.893C655.663 623.839 654.743 623.811 653.779 623.807C652.833 623.832 651.898 623.931 650.897 624.017C646.847 624.374 642.509 625.086 637.926 625.683C639.97 623.962 642.067 622.414 644.009 621.264C645.955 620.15 647.773 619.238 649.602 618.34C653.202 616.573 656.676 614.763 660.466 612.476C667.981 607.956 676.837 601.802 686.24 594.998C689.372 592.72 692.604 590.387 695.794 587.994C696.89 587.174 697.978 586.364 699.063 585.551C708.507 577.911 718.455 569.713 728.719 561.532C733.909 557.415 739.083 553.31 744.207 549.245C749.208 545.378 754.298 541.47 759.684 538.197C780.994 524.57 805.388 517.15 829.004 522.64C830.895 522.989 832.805 523.34 834.706 523.691C834.723 523.687 834.725 523.706 834.743 523.704C836.624 524.052 838.518 524.405 840.407 524.754C840.442 524.749 840.461 524.766 840.497 524.779C858.307 528.066 876.103 531.245 893.916 532.324C911.705 533.401 929.583 532.36 946.852 527.295Z" fill="#892B1F"/>
<path d="M950.841 504.165C951.392 512.032 949.832 519.115 946.672 525.706C929.392 530.798 911.5 531.938 893.696 530.957C875.869 529.979 858.064 526.9 840.24 523.644C840.204 523.63 840.185 523.613 840.15 523.619C838.252 523.265 836.363 522.913 834.48 522.563C834.462 522.567 834.461 522.548 834.443 522.55C832.54 522.197 830.628 521.844 828.735 521.493C805.094 515.975 780.677 523.433 759.346 537.132C753.952 540.421 748.859 544.35 743.853 548.237C738.724 552.322 733.544 556.447 728.35 560.587C718.075 568.809 708.117 577.049 698.664 584.731C697.578 585.548 696.489 586.362 695.392 587.186C692.223 589.518 689.035 591.868 685.828 594.227C676.392 601.038 667.492 607.172 659.915 611.696C656.094 613.985 652.585 615.804 648.953 617.597C647.107 618.508 645.274 619.44 643.32 620.575C641.364 621.746 639.262 623.317 637.216 625.061C633.619 625.526 630.109 625.924 626.257 625.868C620.342 625.795 614.789 624.602 609.958 621.542C607.49 620.014 605.451 618.056 603.639 615.622C601.754 613.227 600.498 610.226 599.62 606.784C597.935 600.074 598.46 591.7 601.217 584.168C603.913 576.535 608.603 569.485 614.374 564.027C614.374 564.027 615.584 562.925 617.851 560.859C619.001 559.787 620.374 558.705 622.021 557.323C623.676 555.919 625.541 554.504 627.645 552.911C636.064 546.502 647.886 539.102 661.671 531.985C675.405 524.866 691.285 518.019 707.193 511.559C710.981 510.008 714.833 508.431 718.733 506.835C720.61 506.048 722.498 505.257 724.397 504.46C726.719 503.525 729.054 502.582 731.397 501.638C733.745 500.704 736.099 499.769 738.463 498.83C740.83 497.986 743.202 497.143 745.581 496.295C747.959 495.455 750.345 494.613 752.731 493.771L759.94 491.514C779.183 485.495 798.577 481.089 816.485 477.896C834.404 474.705 850.88 472.6 864.747 471.079C878.599 469.576 889.965 468.534 897.822 467.834C905.657 467.143 910.136 466.748 910.136 466.748C920.755 465.826 930.462 469.508 937.775 476.235C945.057 482.953 950.038 492.76 950.841 504.165Z" fill="#EA482D"/>
<path d="M844.522 351.775C850.174 355.345 854.735 359.965 857.469 365.569C860.198 371.161 861.031 377.92 859.035 385.254C859.035 385.254 858.702 386.435 858.076 388.649C857.791 389.728 857.279 391.2 856.754 392.85C856.221 394.51 855.601 396.417 854.726 398.661C854.305 399.766 853.86 400.932 853.394 402.154C852.913 403.38 852.303 404.714 851.711 406.074C850.574 408.78 849.047 411.79 847.362 414.98C843.85 421.351 839.247 428.641 832.898 435.85C829.733 439.366 826.138 443.115 822.629 446.11C821.733 446.899 820.831 447.694 819.921 448.496C819.217 449.061 818.505 449.634 817.79 450.208C816.359 451.355 814.907 452.519 813.432 453.699C810.477 456.048 807.443 458.466 804.341 460.932C801.26 463.284 798.178 465.395 795.008 467.697C793.425 468.831 791.829 469.971 790.223 471.121C788.634 472.252 786.938 473.487 785.478 474.481C782.452 476.576 779.388 478.699 776.301 480.836C774.759 481.904 773.209 482.978 771.654 484.055C770.249 485.07 768.838 486.089 767.424 487.11C764.609 489.14 761.782 491.181 758.956 493.219L756.928 494.695C756.434 495.048 755.752 495.538 755.423 495.747L754.428 496.406L752.05 497.983L747.489 501.026C744.546 503.037 741.613 505.042 738.703 507.028C732.97 511.019 727.475 515.003 722.339 518.912C712.063 526.712 703.264 534.256 696.975 540.496C690.632 546.74 687.054 551.522 685.78 553.605C685.102 554.684 684.944 555.089 684.896 555.197C684.884 555.222 684.871 555.245 684.856 555.262C684.849 555.269 684.851 555.269 684.856 555.262C684.71 555.206 684.571 555.152 684.439 555.101C684.138 554.991 683.865 554.892 683.623 554.802C682.636 554.47 682.127 554.3 682.127 554.3L681.355 554.062L680.965 553.948L680.771 553.893L680.673 553.865L680.624 553.852L680.599 553.846C679.656 553.557 688.717 556.335 684.883 555.159C684.897 555.117 684.907 555.074 684.907 555.031C684.913 554.946 684.896 554.843 684.854 554.761C684.781 554.745 684.578 554.707 684.394 554.689C683.957 554.637 683.353 554.61 682.554 554.657C680.973 554.745 678.703 555.198 676.231 556.136C673.751 557.062 671.079 558.457 668.393 560.12C665.685 561.787 662.938 563.738 659.944 565.684C660.487 562.482 661.509 559.563 662.983 556.967C664.449 554.376 666.444 552.141 668.119 550.498C669.584 549.404 671.371 546.985 673.561 543.986C675.706 540.985 678.211 537.385 680.808 533.556C682.613 530.881 684.411 528.211 686.201 525.556C686.824 524.612 687.442 523.676 688.062 522.739C698.503 505.373 710.28 484.972 724.646 468.464C726.443 466.399 728.283 464.396 730.163 462.458C731.128 461.492 732.009 460.551 732.914 459.571C733.828 458.603 734.754 457.65 735.695 456.715C739.459 453.002 743.394 449.484 747.622 446.557C751.85 443.628 756.309 441.116 761.063 439.12C765.778 437.093 770.773 435.528 776.215 434.551C777.913 434.139 779.625 433.726 781.326 433.313C781.341 433.305 781.351 433.318 781.364 433.309C783.025 432.8 784.698 432.287 786.365 431.776C786.39 431.757 786.413 431.762 786.449 431.758C790.397 430.509 794.376 429.166 798.36 427.717C799.37 427.326 800.322 427.048 801.378 426.546L804.555 425.029C806.698 424.057 808.777 422.737 810.88 421.4C819.238 416.007 826.609 408.402 831.838 400.186C837.147 391.963 840.58 383.306 842.542 375.124C844.505 366.914 845.041 359.123 844.522 351.775Z" fill="#892B1F"/>
<path d="M823.398 343.833C831.52 344.873 838.337 347.461 844.288 351.167C844.805 358.507 844.295 366.281 842.373 374.477C840.455 382.639 837.083 391.273 831.838 399.484C826.671 407.687 819.372 415.293 811.067 420.701C808.976 422.041 806.91 423.367 804.776 424.344L801.617 425.87C800.564 426.372 799.616 426.655 798.609 427.049C794.641 428.51 790.675 429.865 786.737 431.122C786.702 431.126 786.679 431.121 786.654 431.14C784.981 431.653 783.316 432.162 781.656 432.671C781.644 432.679 781.633 432.664 781.619 432.675C779.916 433.088 778.208 433.5 776.511 433.911C771.073 434.885 766.081 436.45 761.369 438.475C756.62 440.469 752.163 442.978 747.938 445.903C743.713 448.827 739.782 452.341 736.02 456.05C735.08 456.984 734.154 457.934 733.241 458.903C732.337 459.881 731.459 460.821 730.492 461.786C728.614 463.721 726.775 465.722 724.979 467.785C710.624 484.274 698.856 504.653 688.422 521.997C687.802 522.934 687.186 523.868 686.562 524.812C684.774 527.463 682.978 530.126 681.172 532.803C678.56 536.619 676.038 540.199 673.867 543.188C671.656 546.173 669.839 548.582 668.341 549.69C666.634 551.344 664.615 553.599 663.144 556.211C661.66 558.83 660.648 561.769 660.128 564.982C657.734 566.53 655.553 567.921 652.421 569.384C646.659 572.081 640.437 574.051 633.907 574.38C627.486 574.678 620.81 573.29 615.142 569.694C612.294 567.914 609.774 565.574 607.617 562.758C605.534 559.928 603.811 556.62 602.748 552.938C601.672 549.263 601.223 545.249 601.416 541.093C601.539 539.017 601.791 536.905 602.247 534.793C602.67 532.726 603.444 530.141 604.247 528.078C604.247 528.078 604.423 527.629 604.763 526.76C605.106 525.863 605.624 524.642 606.326 523.105C607.726 520.001 609.889 515.755 612.745 511.228C618.461 502.053 626.845 491.887 636.832 482.047C646.831 472.162 658.494 462.327 671.093 452.748C677.39 447.956 683.924 443.228 690.579 438.596C693.906 436.28 697.264 433.993 700.614 431.741C703.133 430.064 705.662 428.381 708.191 426.697C711.579 424.249 714.966 421.801 718.342 419.361C720.025 418.149 721.705 416.941 723.381 415.735C724.951 414.648 726.516 413.564 728.075 412.485C731.191 410.326 734.283 408.186 737.339 406.069C738.937 404.98 740.205 404.044 741.59 403.057C742.951 402.083 744.3 401.115 745.641 400.157C748.283 398.238 751.047 396.359 753.455 394.513C755.755 392.67 758.005 390.866 760.195 389.11C761.293 388.237 762.376 387.376 763.443 386.527C763.978 386.103 764.505 385.685 765.031 385.269L765.82 384.548C767.058 383.556 767.518 382.908 768.227 382.222C769.469 380.848 770.425 379.247 771.389 377.59C771.83 376.7 772.301 375.896 772.672 374.931C772.865 374.468 773.079 374.083 773.253 373.618C773.43 373.143 773.597 372.692 773.756 372.262C774.099 371.449 774.371 370.571 774.611 369.809C774.848 369.034 775.086 368.465 775.234 367.851C775.559 366.692 775.729 366.077 775.729 366.077C777.378 360.234 783.281 353.773 791.874 349.234C796.159 346.948 801.098 345.212 806.437 344.225C811.779 343.251 817.513 343.079 823.398 343.833Z" fill="#EA482D"/>
<path d="M834.623 452.061C844.245 449.993 850.631 440.778 848.885 431.479C847.14 422.179 837.925 416.317 828.303 418.385C818.681 420.453 812.295 429.668 814.04 438.967C815.786 448.267 825.001 454.129 834.623 452.061Z" fill="#EA482D"/>
<path d="M860.366 413.749C866.572 412.416 870.691 406.473 869.565 400.476C868.44 394.479 862.496 390.699 856.29 392.032C850.084 393.366 845.966 399.309 847.091 405.306C848.216 411.303 854.16 415.083 860.366 413.749Z" fill="#EA482D"/>
<path d="M857.344 570.639C866.962 568.577 873.34 559.362 871.59 550.058C869.841 540.754 860.625 534.884 851.007 536.946C841.389 539.009 835.01 548.223 836.76 557.527C838.51 566.831 847.725 572.702 857.344 570.639Z" fill="#EA482D"/>
<path d="M898.238 565.815C904.442 564.484 908.556 558.541 907.427 552.539C906.299 546.538 900.354 542.751 894.15 544.081C887.946 545.412 883.832 551.355 884.96 557.357C886.089 563.358 892.034 567.145 898.238 565.815Z" fill="#EA482D"/>
<path d="M818.954 740.099C828.575 738.032 834.959 728.818 833.213 719.52C831.467 710.221 822.252 704.358 812.631 706.425C803.01 708.492 796.626 717.705 798.372 727.004C800.118 736.303 809.333 742.165 818.954 740.099Z" fill="#EA482D"/>
<path d="M848.491 764.923C843.949 769.358 836.722 769.512 832.34 765.262C827.959 761.012 828.082 753.971 832.624 749.537C837.157 745.095 844.39 744.941 848.769 749.193C853.153 753.444 853.027 760.486 848.491 764.923Z" fill="#EA482D"/>
<path d="M692.665 813.135C702.283 811.073 708.66 801.859 706.911 792.556C705.161 783.253 695.947 777.383 686.329 779.445C676.712 781.508 670.334 790.721 672.084 800.024C673.834 809.328 683.048 815.197 692.665 813.135Z" fill="#EA482D"/>
<path d="M705.523 846.797C711.726 845.466 715.839 839.524 714.711 833.523C713.582 827.523 707.639 823.737 701.436 825.067C695.233 826.397 691.119 832.34 692.248 838.34C693.376 844.341 699.32 848.127 705.523 846.797Z" fill="#EA482D"/>
<path d="M565.405 852.815C575.021 850.753 581.398 841.541 579.649 832.239C577.899 822.937 568.686 817.067 559.07 819.13C549.454 821.192 543.077 830.404 544.827 839.706C546.576 849.008 555.79 854.877 565.405 852.815Z" fill="#EA482D"/>
<path d="M572.181 888.001C566.149 890.014 559.774 886.949 557.93 881.143C556.088 875.331 559.481 868.992 565.512 866.975C571.544 864.957 577.924 868.026 579.765 873.833C581.609 879.641 578.209 885.982 572.181 888.001Z" fill="#EA482D"/>
<path d="M419.407 948.739C413.606 956.624 402.526 958.683 394.647 953.342C386.78 947.997 385.095 937.272 390.901 929.388C396.698 921.495 407.781 919.437 415.655 924.783C423.525 930.124 425.211 940.85 419.407 948.739Z" fill="#EA482D"/>
<path d="M437.287 979.264C443.494 977.93 447.613 971.986 446.488 965.989C445.362 959.991 439.418 956.21 433.211 957.544C427.003 958.878 422.884 964.821 424.01 970.819C425.135 976.817 431.08 980.598 437.287 979.264Z" fill="#EA482D"/>
<path d="M286.587 1027.76C296.208 1025.7 302.593 1016.48 300.847 1007.18C299.102 997.885 289.887 992.023 280.266 994.09C270.645 996.157 264.261 1005.37 266.006 1014.67C267.752 1023.97 276.966 1029.83 286.587 1027.76Z" fill="#EA482D"/>
<path d="M311.85 1054.51C318.057 1053.18 322.176 1047.23 321.05 1041.24C319.924 1035.24 313.979 1031.46 307.773 1032.79C301.566 1034.12 297.447 1040.07 298.573 1046.06C299.699 1052.06 305.643 1055.84 311.85 1054.51Z" fill="#EA482D"/>
<path d="M202.188 708.335C195.493 715.533 184.288 716.298 177.157 710.053C170.038 703.806 169.686 692.91 176.386 685.719C183.082 678.52 194.283 677.756 201.411 684.004C208.537 690.246 208.887 701.144 202.188 708.335Z" fill="#EA482D"/>
<path d="M217.711 740.609C223.917 739.276 228.035 733.333 226.909 727.336C225.783 721.338 219.84 717.557 213.634 718.891C207.428 720.224 203.31 726.167 204.436 732.164C205.562 738.161 211.505 741.942 217.711 740.609Z" fill="#EA482D"/>
<path d="M914.281 236.985C926.294 236.292 935.914 231.542 935.769 226.377C935.624 221.211 925.769 217.586 913.756 218.279C901.744 218.972 892.124 223.722 892.269 228.887C892.414 234.053 902.269 237.678 914.281 236.985Z" fill="#4C4C4C"/>
<path d="M707.508 272.597C713.165 272.286 717.69 270.047 717.614 267.595C717.538 265.144 712.891 263.409 707.234 263.719C701.577 264.03 697.053 266.269 697.128 268.721C697.204 271.172 701.851 272.907 707.508 272.597Z" fill="#4C4C4C"/>
</svg>
