<?xml version="1.0" encoding="utf-8"?>
<!-- Generator: Adobe Illustrator 16.0.0, SVG Export Plug-In . SVG Version: 6.00 Build 0)  -->
<!DOCTYPE svg PUBLIC "-//W3C//DTD SVG 1.1//EN" "http://www.w3.org/Graphics/SVG/1.1/DTD/svg11.dtd">
<svg version="1.1" id="Layer_1" xmlns="http://www.w3.org/2000/svg" xmlns:xlink="http://www.w3.org/1999/xlink" x="0px" y="0px"
	 width="859px" height="1286px" viewBox="0 0 859 1286" enable-background="new 0 0 859 1286" xml:space="preserve">
<linearGradient id="SVGID_1_" gradientUnits="userSpaceOnUse" x1="412.001" y1="1277.626" x2="412.001" y2="1186.2861">
	<stop  offset="0" style="stop-color:#FFF23A"/>
	<stop  offset="0.0696" style="stop-color:#EFEC3B"/>
	<stop  offset="0.2552" style="stop-color:#CBDE3C"/>
	<stop  offset="0.4422" style="stop-color:#AFD33D"/>
	<stop  offset="0.6288" style="stop-color:#9BCB3E"/>
	<stop  offset="0.8148" style="stop-color:#8FC73F"/>
	<stop  offset="1" style="stop-color:#8BC53F"/>
</linearGradient>
<ellipse fill="url(#SVGID_1_)" cx="412.001" cy="1231.956" rx="273.719" ry="45.67"/>
<path fill="none" stroke="#96C949" stroke-width="2.6104" stroke-miterlimit="10" d="M86.159,1076.993
	c-20.253,50.014,21.49,114.024,93.329,143.116"/>
<path fill="none" stroke="#96C949" stroke-width="2.6104" stroke-miterlimit="10" d="M151.458,1087.77
	c-20.253,50.015,21.49,114.026,93.329,143.117"/>
<path fill="none" stroke="#96C949" stroke-width="2.6104" stroke-miterlimit="10" d="M699.806,1087.77
	c20.256,50.015-21.488,114.026-93.326,143.117"/>
<path fill="none" stroke="#96C949" stroke-width="2.6104" stroke-miterlimit="10" d="M755.103,1087.77
	c20.254,50.015-21.49,114.026-93.328,143.117"/>
<g>
	<path fill="#FFDC4D" stroke="#96C949" stroke-width="2.6104" stroke-miterlimit="10" d="M104.646,1081.834
		c8.602-0.605,17.117-1.563,24.916-5.874c1.759-1.405,2.111-3.868,1.376-5.902c-0.199-0.728-0.415-1.445-0.664-2.098
		c-3.064-8.033-7.83-15.225-13.857-21.136c-0.687-0.789-1.387-1.471-1.749-1.859c-4.455-3.48-10.788-1.721-14.305,2.147
		c-4.222,4.926-5.98,11.259-9.499,16.886c-3.519,5.629-7.739,10.554-12.313,15.479c8.094,0.351,16.184,0.705,23.897,2.257
		C103.095,1081.754,104.032,1081.88,104.646,1081.834z"/>
	<polygon fill="#FFDC4D" stroke="#96C949" stroke-width="2.6104" stroke-miterlimit="10" points="78.551,1079.477 78.551,1079.477 
		78.551,1079.477 	"/>
	<path fill="#FFDC4D" stroke="#96C949" stroke-width="2.6104" stroke-miterlimit="10" d="M124.988,1091.439
		c-5.628-4.574-12.049-6.509-18.686-7.302c-1.105-0.133-2.218-0.231-3.333-0.308c-7.882-2.592-16.326-2.944-24.419-4.354
		c0.001,0,0.002,0,0.002,0c10.202-13.015,19.349-35.529,4.92-48.865c-1.102-0.089-2.893-0.452-4.27-0.55
		c-1.376-0.095-2.767-0.145-4.168-0.145c-0.743,0-1.48,0.016-2.215,0.042c-1.196,0.148-2.154,0.249-3.097,0.36
		c-1.229,0.166-2.446,0.363-3.653,0.589c-0.603,0.111-1.325,0.382-2.064,0.671c-6.913,6.035-2.691,16.589-4.45,24.681
		c-5.276-4.222-10.554-9.498-17.589-10.201c-5.453-0.704-10.114,1.583-13.724,5.236c-0.451,0.456-1.023,1.037-1.596,1.646
		c-4.028,3.319-7.546,7.541-6.842,13.169c0.703,3.518,2.814,6.686,5.628,8.091c6.684,4.223,14.424,4.926,21.459,6.686
		c-10.202,3.868-25.681,2.813-30.563,14.621c0.115,0.67,0.141,1.533,0.246,2.246c0.576,3.884,1.529,7.647,2.824,11.249
		c0.148,1.04,0.355,1.727,0.561,2.43c0.197,5.337,3.362,10.61,9.695,9.206c9.85-2.534,16.771-9.344,23.831-15.931
		c0.883-0.823,1.909-1.613,2.746-2.429c0.783-0.671,1.527-1.007,2.293-1.172c0.768-0.172,1.609-0.179,3.345-0.347
		c-1.065,0.453-1.84,0.852-2.458,1.228c-0.616,0.377-1.174,0.752-1.701,1.147c-1.055,0.79-2.021,1.668-2.72,2.72
		c-0.612,1.022-1.389,2.06-2.08,3.107c-6.217,9.436-12.089,19.867-7.079,30.727c1.188,1.007,2.355,1.998,2.92,2.282
		c0.99,0.488,1.995,0.956,3.016,1.392c0.962,0.414,1.903,0.802,2.691,1.102c3.69,1.854,7.56,0.798,10.726-1.314
		c4.925-3.867,6.684-9.497,7.74-15.124c0.527-3.694,0.527-7.3,0.352-10.861c-0.03-0.596,0.134-1.548,0.216-2.219
		c0.699-4.931,2.038-9.416,3.075-14.238c0.206-0.963,0.474-2.054,0.832-3.328c-0.185,1.393-0.283,2.609-0.335,3.709
		c-0.255,5.486-1.057,10.812-1.469,16.379c0.276,1.293,0.545,2.604,0.822,3.913c2.221,10.477,4.973,20.954,15.571,24.242
		c1.168-0.44,2.797-0.866,4.106-1.365c0.618-0.237,1.23-0.48,1.838-0.735c0.882-0.356,1.619-0.67,2.347-0.991
		c7.471-2.192,8.527-10.636,6.065-16.616c-4.691-10.847-14.023-18.029-23.518-24.398c-0.951-0.635-1.892-1.293-2.783-2.03
		c-1.139-0.658-1.844-1.362-2.546-2.067c2.813-0.352,4.574,2.112,6.552,3.653c1.181,0.475,2.344,1.458,3.528,2.253
		c13.021,8.75,26.871,22.228,39.82,13.161c0.661-1.292,1.291-2.615,1.817-3.821C132.728,1105.158,131.321,1096.716,124.988,1091.439
		z"/>
</g>
<g>
	<path fill="#FFDC4D" stroke="#96C949" stroke-width="2.6104" stroke-miterlimit="10" d="M735.087,1075.908
		c8.601-0.606,17.116-1.564,24.914-5.873c1.76-1.407,2.112-3.87,1.376-5.902c-0.196-0.729-0.413-1.443-0.664-2.1
		c-3.064-8.031-7.829-15.222-13.854-21.135c-0.689-0.788-1.39-1.471-1.751-1.86c-4.454-3.479-10.786-1.721-14.305,2.151
		c-4.222,4.924-5.979,11.257-9.497,16.885c-3.519,5.627-7.74,10.554-12.314,15.478c8.096,0.353,16.184,0.704,23.897,2.257
		C733.534,1075.828,734.472,1075.955,735.087,1075.908z"/>
	<polygon fill="#FFDC4D" stroke="#D9EAC7" stroke-width="2.6104" stroke-miterlimit="10" points="708.991,1073.552 
		708.991,1073.552 708.991,1073.552 	"/>
	<path fill="#FFDC4D" stroke="#96C949" stroke-width="2.6104" stroke-miterlimit="10" d="M755.429,1085.513
		c-5.627-4.573-12.049-6.507-18.686-7.299c-1.106-0.134-2.219-0.233-3.336-0.308c-7.879-2.595-16.323-2.947-24.419-4.354
		c0.003,0,0.003,0,0.003,0c10.203-13.017,19.35-35.529,4.921-48.865c-1.103-0.089-2.894-0.452-4.27-0.55
		c-1.378-0.096-2.768-0.145-4.168-0.145c-0.742,0-1.479,0.016-2.216,0.042c-1.194,0.147-2.152,0.251-3.098,0.36
		c-1.228,0.167-2.444,0.363-3.651,0.589c-0.602,0.111-1.323,0.38-2.064,0.671c-6.912,6.035-2.691,16.589-4.448,24.682
		c-5.279-4.223-10.554-9.5-17.591-10.202c-5.451-0.704-10.115,1.583-13.725,5.236c-0.451,0.456-1.023,1.038-1.595,1.646
		c-4.029,3.32-7.548,7.539-6.845,13.168c0.706,3.518,2.815,6.685,5.63,8.094c6.685,4.219,14.425,4.924,21.461,6.682
		c-10.204,3.872-25.684,2.815-30.564,14.622c0.114,0.671,0.143,1.532,0.247,2.247c0.574,3.884,1.528,7.649,2.823,11.248
		c0.147,1.041,0.356,1.727,0.56,2.429c0.197,5.338,3.363,10.614,9.694,9.208c9.851-2.534,16.773-9.344,23.832-15.93
		c0.883-0.823,1.91-1.612,2.745-2.429c0.782-0.672,1.527-1.008,2.293-1.175c0.769-0.168,1.61-0.177,3.347-0.345
		c-1.065,0.455-1.844,0.851-2.457,1.228c-0.617,0.377-1.177,0.752-1.701,1.146c-1.057,0.792-2.023,1.671-2.721,2.724
		c-0.615,1.019-1.391,2.057-2.082,3.105c-6.216,9.436-12.087,19.867-7.078,30.727c1.188,1.007,2.357,1.996,2.922,2.28
		c0.99,0.491,1.994,0.958,3.015,1.394c0.963,0.414,1.902,0.801,2.692,1.102c3.688,1.854,7.559,0.798,10.725-1.313
		c4.927-3.869,6.684-9.499,7.74-15.127c0.526-3.693,0.526-7.299,0.353-10.861c-0.031-0.594,0.135-1.547,0.216-2.218
		c0.698-4.933,2.038-9.418,3.075-14.239c0.207-0.961,0.473-2.053,0.832-3.325c-0.185,1.39-0.284,2.607-0.337,3.707
		c-0.252,5.486-1.057,10.812-1.467,16.378c0.275,1.295,0.544,2.604,0.822,3.915c2.221,10.476,4.973,20.954,15.571,24.241
		c1.166-0.439,2.795-0.866,4.105-1.365c0.616-0.235,1.229-0.48,1.837-0.737c0.883-0.354,1.619-0.668,2.348-0.989
		c7.472-2.192,8.528-10.636,6.063-16.618c-4.691-10.846-14.022-18.028-23.517-24.396c-0.952-0.637-1.891-1.295-2.783-2.031
		c-1.14-0.658-1.845-1.361-2.545-2.066c2.813-0.354,4.572,2.11,6.552,3.652c1.181,0.476,2.343,1.458,3.527,2.253
		c13.021,8.751,26.871,22.228,39.82,13.162c0.66-1.292,1.291-2.615,1.817-3.822C763.167,1099.232,761.761,1090.792,755.429,1085.513
		z"/>
</g>
<g>
	<path fill="#FFDC4D" stroke="#96C949" stroke-width="2.6104" stroke-miterlimit="10" d="M775.15,1111.523
		c4.167-0.295,8.292-0.759,12.071-2.847c0.851-0.683,1.021-1.877,0.667-2.859c-0.097-0.353-0.2-0.7-0.323-1.018
		c-1.484-3.892-3.792-7.376-6.713-10.239c-0.334-0.382-0.671-0.713-0.845-0.9c-2.161-1.687-5.229-0.834-6.932,1.039
		c-2.046,2.387-2.896,5.455-4.603,8.182c-1.705,2.727-3.749,5.112-5.965,7.498c3.92,0.173,7.842,0.343,11.578,1.095
		C774.398,1111.481,774.853,1111.544,775.15,1111.523z"/>
	<polygon fill="#FFDC4D" stroke="#D9EAC7" stroke-width="2.6104" stroke-miterlimit="10" points="762.509,1110.379 
		762.509,1110.379 762.509,1110.379 	"/>
	<path fill="#FFDC4D" stroke="#96C949" stroke-width="2.6104" stroke-miterlimit="10" d="M785.005,1116.175
		c-2.727-2.217-5.837-3.153-9.053-3.536c-0.534-0.065-1.074-0.113-1.613-0.15c-3.818-1.254-7.91-1.427-11.83-2.109l0,0
		c4.943-6.305,9.372-17.212,2.383-23.672c-0.533-0.044-1.401-0.221-2.068-0.267c-0.665-0.046-1.339-0.071-2.019-0.071
		c-0.36,0-0.719,0.008-1.073,0.02c-0.579,0.074-1.043,0.121-1.501,0.177c-0.595,0.079-1.185,0.174-1.77,0.284
		c-0.291,0.056-0.642,0.184-1.001,0.324c-3.348,2.924-1.303,8.038-2.154,11.958c-2.558-2.046-5.112-4.604-8.521-4.941
		c-2.641-0.343-4.9,0.767-6.65,2.534c-0.217,0.224-0.494,0.505-0.772,0.8c-1.952,1.607-3.655,3.652-3.314,6.382
		c0.341,1.701,1.362,3.234,2.727,3.918c3.238,2.044,6.987,2.385,10.398,3.237c-4.943,1.878-12.443,1.362-14.81,7.084
		c0.056,0.326,0.068,0.742,0.119,1.088c0.279,1.882,0.741,3.707,1.369,5.45c0.072,0.505,0.173,0.836,0.272,1.176
		c0.095,2.587,1.629,5.142,4.696,4.462c4.771-1.228,8.124-4.527,11.546-7.718c0.428-0.399,0.925-0.781,1.329-1.177
		c0.381-0.324,0.738-0.488,1.109-0.567c0.372-0.084,0.78-0.088,1.622-0.169c-0.515,0.22-0.891,0.412-1.19,0.595
		c-0.299,0.183-0.569,0.364-0.824,0.556c-0.512,0.384-0.979,0.809-1.318,1.318c-0.295,0.495-0.671,0.996-1.006,1.506
		c-3.013,4.57-5.858,9.624-3.429,14.886c0.573,0.486,1.14,0.967,1.413,1.105c0.479,0.236,0.966,0.464,1.461,0.676
		c0.467,0.2,0.924,0.387,1.304,0.531c1.787,0.899,3.662,0.387,5.198-0.636c2.385-1.874,3.236-4.602,3.747-7.327
		c0.257-1.79,0.257-3.537,0.172-5.262c-0.015-0.289,0.065-0.751,0.104-1.076c0.339-2.39,0.988-4.561,1.489-6.898
		c0.1-0.465,0.229-0.992,0.403-1.609c-0.089,0.671-0.138,1.263-0.161,1.793c-0.125,2.66-0.513,5.24-0.713,7.937
		c0.132,0.628,0.265,1.263,0.398,1.896c1.076,5.075,2.409,10.151,7.545,11.743c0.563-0.211,1.354-0.418,1.986-0.661
		c0.301-0.112,0.598-0.23,0.893-0.356c0.428-0.171,0.782-0.324,1.136-0.479c3.62-1.063,4.132-5.153,2.938-8.051
		c-2.271-5.255-6.792-8.734-11.392-11.82c-0.461-0.309-0.917-0.627-1.351-0.982c-0.551-0.319-0.891-0.662-1.231-1.003
		c1.364-0.171,2.216,1.023,3.174,1.771c0.572,0.23,1.136,0.706,1.709,1.091c6.307,4.241,13.019,10.77,19.292,6.377
		c0.32-0.626,0.626-1.269,0.879-1.853C788.756,1122.822,788.072,1118.731,785.005,1116.175z"/>
</g>
<g>
	<path fill="#FFDC4D" stroke="#96C949" stroke-width="2.6104" stroke-miterlimit="10" d="M161.285,1089.88
		c4.166-0.295,8.293-0.759,12.071-2.847c0.851-0.682,1.023-1.877,0.667-2.861c-0.096-0.352-0.201-0.698-0.323-1.016
		c-1.484-3.891-3.792-7.374-6.713-10.24c-0.331-0.382-0.671-0.712-0.846-0.899c-2.158-1.688-5.228-0.834-6.932,1.04
		c-2.045,2.386-2.897,5.454-4.601,8.182c-1.704,2.727-3.749,5.111-5.965,7.497c3.921,0.172,7.842,0.342,11.577,1.095
		C160.534,1089.84,160.987,1089.901,161.285,1089.88z"/>
	<polygon fill="#FFDC4D" stroke="#D9EAC7" stroke-width="2.6104" stroke-miterlimit="10" points="148.644,1088.735 
		148.644,1088.735 148.644,1088.735 	"/>
	<path fill="#FFDC4D" stroke="#96C949" stroke-width="2.6104" stroke-miterlimit="10" d="M171.14,1094.531
		c-2.727-2.218-5.837-3.153-9.053-3.536c-0.535-0.066-1.075-0.112-1.615-0.15c-3.818-1.256-7.91-1.427-11.83-2.109h0.001
		c4.943-6.305,9.373-17.212,2.383-23.673c-0.533-0.044-1.402-0.221-2.069-0.266c-0.667-0.046-1.34-0.071-2.019-0.071
		c-0.36,0-0.718,0.009-1.073,0.02c-0.58,0.072-1.043,0.123-1.5,0.176c-0.596,0.081-1.186,0.175-1.771,0.285
		c-0.292,0.055-0.642,0.184-1,0.324c-3.349,2.925-1.304,8.038-2.156,11.958c-2.556-2.046-5.113-4.604-8.521-4.943
		c-2.641-0.341-4.9,0.769-6.648,2.537c-0.219,0.223-0.496,0.504-0.773,0.798c-1.952,1.608-3.657,3.652-3.315,6.38
		c0.34,1.705,1.363,3.238,2.726,3.922c3.238,2.043,6.988,2.385,10.397,3.236c-4.943,1.875-12.442,1.363-14.808,7.084
		c0.057,0.326,0.068,0.741,0.12,1.088c0.278,1.882,0.74,3.706,1.367,5.451c0.073,0.504,0.173,0.837,0.273,1.177
		c0.095,2.583,1.628,5.14,4.696,4.46c4.772-1.228,8.126-4.527,11.546-7.719c0.427-0.397,0.924-0.781,1.33-1.176
		c0.379-0.325,0.739-0.488,1.111-0.569c0.372-0.082,0.779-0.086,1.62-0.167c-0.516,0.221-0.891,0.411-1.19,0.594
		c-0.298,0.184-0.568,0.365-0.824,0.557c-0.51,0.383-0.978,0.808-1.317,1.318c-0.298,0.494-0.673,0.996-1.008,1.506
		c-3.012,4.57-5.857,9.624-3.429,14.887c0.576,0.485,1.141,0.966,1.414,1.104c0.48,0.235,0.967,0.464,1.461,0.674
		c0.466,0.201,0.921,0.389,1.304,0.533c1.788,0.899,3.663,0.388,5.197-0.636c2.385-1.875,3.238-4.602,3.749-7.327
		c0.255-1.791,0.255-3.537,0.17-5.264c-0.014-0.288,0.065-0.749,0.105-1.074c0.338-2.39,0.987-4.561,1.49-6.896
		c0.1-0.467,0.229-0.996,0.404-1.614c-0.091,0.674-0.14,1.266-0.163,1.798c-0.123,2.659-0.512,5.238-0.711,7.935
		c0.134,0.627,0.265,1.262,0.398,1.896c1.076,5.076,2.408,10.152,7.543,11.745c0.565-0.213,1.355-0.42,1.99-0.662
		c0.298-0.113,0.596-0.232,0.891-0.356c0.426-0.173,0.784-0.324,1.136-0.48c3.62-1.063,4.13-5.153,2.938-8.049
		c-2.272-5.257-6.794-8.736-11.394-11.822c-0.459-0.307-0.916-0.625-1.347-0.984c-0.551-0.317-0.894-0.658-1.233-1
		c1.363-0.17,2.216,1.023,3.174,1.771c0.574,0.23,1.136,0.704,1.709,1.09c6.308,4.24,13.019,10.77,19.292,6.376
		c0.32-0.624,0.624-1.267,0.88-1.852C174.889,1101.179,174.207,1097.087,171.14,1094.531z"/>
</g>
<g>
	<path fill="#FFDC4D" stroke="#96C949" stroke-width="2.6104" stroke-miterlimit="10" d="M135.095,1183.411
		c4.167-0.295,8.293-0.759,12.072-2.847c0.852-0.68,1.022-1.875,0.666-2.859c-0.095-0.351-0.201-0.697-0.32-1.017
		c-1.485-3.891-3.794-7.374-6.714-10.239c-0.332-0.381-0.671-0.713-0.846-0.898c-2.159-1.688-5.227-0.836-6.931,1.038
		c-2.046,2.386-2.897,5.454-4.602,8.182c-1.705,2.726-3.749,5.111-5.965,7.498c3.921,0.171,7.841,0.343,11.577,1.094
		C134.344,1183.372,134.798,1183.432,135.095,1183.411z"/>
	<polygon fill="#FFDC4D" stroke="#D9EAC7" stroke-width="2.6104" stroke-miterlimit="10" points="122.454,1182.269 
		122.454,1182.269 122.454,1182.269 	"/>
	<path fill="#FFDC4D" stroke="#96C949" stroke-width="2.6104" stroke-miterlimit="10" d="M144.95,1188.063
		c-2.727-2.215-5.837-3.15-9.052-3.535c-0.535-0.066-1.076-0.112-1.615-0.148c-3.819-1.256-7.91-1.429-11.831-2.11h0.001
		c4.942-6.306,9.374-17.212,2.383-23.673c-0.534-0.044-1.401-0.221-2.068-0.267c-0.667-0.046-1.34-0.07-2.019-0.07
		c-0.36,0-0.718,0.008-1.073,0.021c-0.579,0.072-1.043,0.121-1.5,0.176c-0.596,0.08-1.185,0.174-1.771,0.285
		c-0.291,0.053-0.641,0.184-1,0.322c-3.349,2.926-1.304,8.039-2.156,11.96c-2.557-2.048-5.112-4.604-8.522-4.944
		c-2.641-0.342-4.899,0.769-6.648,2.536c-0.218,0.223-0.496,0.504-0.773,0.799c-1.952,1.609-3.656,3.653-3.314,6.381
		c0.34,1.702,1.363,3.235,2.726,3.919c3.239,2.046,6.989,2.386,10.397,3.237c-4.943,1.877-12.442,1.363-14.808,7.085
		c0.057,0.324,0.068,0.742,0.119,1.087c0.279,1.882,0.741,3.707,1.368,5.452c0.073,0.504,0.173,0.835,0.272,1.178
		c0.095,2.582,1.629,5.14,4.697,4.459c4.772-1.229,8.126-4.526,11.545-7.719c0.428-0.399,0.925-0.782,1.331-1.178
		c0.379-0.324,0.739-0.488,1.111-0.566c0.372-0.082,0.779-0.088,1.62-0.168c-0.516,0.221-0.891,0.41-1.19,0.594
		c-0.297,0.183-0.568,0.365-0.823,0.556c-0.511,0.383-0.979,0.81-1.318,1.318c-0.296,0.496-0.672,0.997-1.007,1.507
		c-3.012,4.57-5.857,9.622-3.429,14.884c0.575,0.489,1.141,0.97,1.414,1.107c0.479,0.236,0.967,0.463,1.461,0.674
		c0.467,0.201,0.922,0.39,1.305,0.533c1.788,0.899,3.661,0.388,5.196-0.637c2.386-1.874,3.238-4.601,3.75-7.326
		c0.255-1.791,0.255-3.538,0.17-5.263c-0.014-0.288,0.065-0.75,0.104-1.074c0.339-2.393,0.987-4.563,1.49-6.899
		c0.1-0.466,0.229-0.994,0.403-1.611c-0.089,0.673-0.138,1.265-0.162,1.796c-0.124,2.659-0.513,5.238-0.712,7.936
		c0.134,0.628,0.265,1.263,0.398,1.895c1.076,5.078,2.409,10.152,7.545,11.745c0.565-0.212,1.354-0.419,1.988-0.661
		c0.3-0.113,0.597-0.231,0.891-0.356c0.427-0.171,0.784-0.324,1.137-0.479c3.619-1.063,4.131-5.154,2.938-8.051
		c-2.272-5.257-6.794-8.734-11.394-11.82c-0.461-0.308-0.917-0.627-1.349-0.984c-0.551-0.317-0.893-0.66-1.233-1.001
		c1.363-0.172,2.216,1.023,3.174,1.771c0.572,0.229,1.136,0.705,1.709,1.091c6.308,4.239,13.019,10.768,19.292,6.374
		c0.319-0.625,0.625-1.266,0.88-1.852C148.701,1194.711,148.019,1190.619,144.95,1188.063z"/>
</g>
<g>
	<path fill="#FFDC4D" stroke="#96C949" stroke-width="2.6104" stroke-miterlimit="10" d="M187.41,1147.026
		c2.21-0.157,4.397-0.402,6.401-1.51c0.452-0.362,0.543-0.994,0.354-1.518c-0.05-0.186-0.106-0.369-0.17-0.539
		c-0.788-2.063-2.013-3.912-3.561-5.429c-0.177-0.203-0.356-0.379-0.45-0.478c-1.144-0.896-2.771-0.443-3.675,0.551
		c-1.084,1.265-1.537,2.892-2.44,4.339c-0.905,1.445-1.988,2.711-3.163,3.977c2.078,0.09,4.157,0.181,6.139,0.582
		C187.01,1147.006,187.251,1147.036,187.41,1147.026z"/>
	<polygon fill="#FFDC4D" stroke="#D9EAC7" stroke-width="2.6104" stroke-miterlimit="10" points="180.706,1146.42 180.706,1146.42 
		180.706,1146.42 	"/>
	<path fill="#FFDC4D" stroke="#96C949" stroke-width="2.6104" stroke-miterlimit="10" d="M192.636,1149.493
		c-1.445-1.176-3.096-1.673-4.8-1.875c-0.284-0.034-0.571-0.06-0.857-0.078c-2.024-0.666-4.195-0.759-6.274-1.12h0.001
		c2.62-3.346,4.971-9.128,1.263-12.556c-0.283-0.023-0.742-0.115-1.096-0.142c-0.355-0.022-0.711-0.037-1.072-0.037
		c-0.191,0-0.38,0.003-0.568,0.01c-0.308,0.041-0.554,0.066-0.796,0.094c-0.317,0.045-0.629,0.092-0.938,0.151
		c-0.156,0.028-0.341,0.098-0.532,0.172c-1.776,1.552-0.69,4.264-1.143,6.344c-1.354-1.087-2.71-2.442-4.52-2.623
		c-1.4-0.181-2.598,0.408-3.525,1.345c-0.117,0.12-0.265,0.266-0.412,0.424c-1.033,0.854-1.938,1.936-1.757,3.385
		c0.181,0.902,0.724,1.716,1.445,2.077c1.718,1.085,3.708,1.266,5.516,1.718c-2.623,0.997-6.599,0.725-7.853,3.758
		c0.029,0.173,0.035,0.393,0.063,0.578c0.147,0.996,0.393,1.965,0.725,2.89c0.038,0.266,0.092,0.442,0.144,0.624
		c0.053,1.369,0.866,2.727,2.492,2.366c2.531-0.653,4.31-2.401,6.124-4.095c0.227-0.211,0.491-0.414,0.706-0.623
		c0.201-0.173,0.392-0.259,0.588-0.301c0.197-0.045,0.415-0.046,0.86-0.089c-0.274,0.116-0.474,0.217-0.632,0.314
		s-0.301,0.193-0.437,0.294c-0.27,0.204-0.518,0.43-0.699,0.7c-0.156,0.263-0.356,0.53-0.535,0.799
		c-1.595,2.424-3.104,5.104-1.818,7.895c0.305,0.259,0.604,0.514,0.749,0.585c0.256,0.125,0.514,0.248,0.777,0.359
		c0.248,0.104,0.489,0.207,0.69,0.282c0.948,0.477,1.943,0.205,2.756-0.338c1.267-0.994,1.718-2.439,1.988-3.886
		c0.136-0.951,0.136-1.877,0.092-2.791c-0.008-0.152,0.033-0.398,0.056-0.569c0.178-1.269,0.523-2.421,0.789-3.659
		c0.053-0.247,0.122-0.527,0.215-0.854c-0.049,0.356-0.074,0.67-0.086,0.952c-0.065,1.41-0.271,2.777-0.377,4.209
		c0.07,0.334,0.139,0.668,0.212,1.004c0.57,2.693,1.276,5.386,4,6.23c0.3-0.112,0.718-0.223,1.054-0.351
		c0.159-0.062,0.317-0.125,0.473-0.189c0.227-0.091,0.417-0.171,0.604-0.253c1.918-0.564,2.191-2.736,1.558-4.271
		c-1.204-2.787-3.603-4.633-6.043-6.27c-0.242-0.162-0.486-0.33-0.715-0.522c-0.292-0.167-0.473-0.35-0.653-0.529
		c0.723-0.091,1.173,0.543,1.683,0.94c0.303,0.122,0.601,0.373,0.906,0.576c3.345,2.249,6.905,5.712,10.232,3.381
		c0.168-0.328,0.33-0.671,0.466-0.981C194.625,1153.02,194.263,1150.85,192.636,1149.493z"/>
</g>
<g>
	<path fill="#FFDC4D" stroke="#96C949" stroke-width="2.6104" stroke-miterlimit="10" d="M641.072,1132.163
		c2.209-0.159,4.396-0.403,6.401-1.511c0.452-0.361,0.543-0.996,0.354-1.518c-0.053-0.185-0.108-0.37-0.171-0.538
		c-0.788-2.066-2.014-3.913-3.562-5.431c-0.178-0.203-0.356-0.379-0.451-0.478c-1.143-0.894-2.77-0.442-3.673,0.551
		c-1.085,1.266-1.536,2.894-2.439,4.338c-0.905,1.448-1.989,2.714-3.166,3.978c2.079,0.091,4.158,0.183,6.141,0.582
		C640.673,1132.141,640.915,1132.173,641.072,1132.163z"/>
	<polygon fill="#FFDC4D" stroke="#D9EAC7" stroke-width="2.6104" stroke-miterlimit="10" points="634.366,1131.555 
		634.366,1131.555 634.366,1131.555 	"/>
	<path fill="#FFDC4D" stroke="#96C949" stroke-width="2.6104" stroke-miterlimit="10" d="M646.298,1134.629
		c-1.444-1.177-3.096-1.672-4.801-1.876c-0.283-0.034-0.569-0.058-0.856-0.079c-2.024-0.665-4.195-0.756-6.275-1.119h0.001
		c2.622-3.344,4.972-9.128,1.265-12.556c-0.283-0.022-0.742-0.114-1.098-0.141c-0.352-0.023-0.711-0.036-1.069-0.036
		c-0.191,0-0.383,0.003-0.57,0.01c-0.307,0.039-0.553,0.064-0.796,0.095c-0.316,0.04-0.628,0.091-0.938,0.15
		c-0.154,0.027-0.342,0.098-0.531,0.171c-1.775,1.551-0.69,4.263-1.144,6.343c-1.355-1.086-2.712-2.441-4.519-2.621
		c-1.401-0.183-2.599,0.407-3.527,1.345c-0.116,0.118-0.264,0.266-0.409,0.423c-1.035,0.854-1.938,1.937-1.759,3.385
		c0.18,0.903,0.724,1.715,1.448,2.078c1.716,1.083,3.704,1.264,5.513,1.718c-2.621,0.994-6.601,0.721-7.854,3.756
		c0.03,0.173,0.037,0.395,0.063,0.578c0.149,0.998,0.395,1.967,0.727,2.892c0.038,0.267,0.092,0.44,0.146,0.623
		c0.05,1.37,0.864,2.725,2.49,2.365c2.53-0.649,4.31-2.399,6.122-4.094c0.228-0.212,0.49-0.415,0.706-0.624
		c0.203-0.173,0.394-0.259,0.589-0.301c0.197-0.045,0.413-0.046,0.861-0.089c-0.275,0.117-0.475,0.217-0.632,0.314
		s-0.304,0.193-0.438,0.294c-0.27,0.204-0.52,0.43-0.697,0.7c-0.157,0.263-0.357,0.529-0.536,0.799
		c-1.595,2.424-3.104,5.104-1.816,7.895c0.302,0.259,0.604,0.514,0.749,0.587c0.253,0.125,0.511,0.246,0.773,0.357
		c0.247,0.105,0.492,0.207,0.692,0.282c0.948,0.478,1.943,0.206,2.758-0.337c1.264-0.994,1.715-2.441,1.988-3.887
		c0.135-0.949,0.135-1.876,0.09-2.791c-0.008-0.151,0.033-0.398,0.053-0.569c0.182-1.269,0.525-2.42,0.792-3.658
		c0.054-0.247,0.123-0.528,0.215-0.855c-0.047,0.358-0.075,0.671-0.088,0.954c-0.063,1.41-0.27,2.777-0.376,4.208
		c0.07,0.333,0.138,0.669,0.212,1.004c0.569,2.694,1.276,5.385,4.001,6.229c0.3-0.11,0.719-0.22,1.053-0.351
		c0.158-0.059,0.317-0.123,0.475-0.188c0.226-0.09,0.415-0.171,0.602-0.253c1.919-0.564,2.193-2.734,1.559-4.271
		c-1.205-2.788-3.603-4.631-6.043-6.269c-0.243-0.163-0.487-0.331-0.713-0.522c-0.295-0.168-0.476-0.351-0.657-0.53
		c0.726-0.09,1.175,0.543,1.684,0.94c0.306,0.122,0.604,0.374,0.907,0.577c3.346,2.25,6.905,5.712,10.232,3.382
		c0.171-0.332,0.331-0.671,0.466-0.983C648.286,1138.156,647.926,1135.984,646.298,1134.629z"/>
</g>
<path fill="#F27E86" d="M733.383,581.32c-0.329,1.909-0.777,3.783-1.366,5.613c-4.613,14.343-19.205,17.063-29.847,25.979
	c-20.486,17.165-33.95,40.543-51.439,60.417c-18.567,21.101-41.996,37.631-66.452,51.28
	c-49.904,27.854-106.378,42.417-163.529,42.417c-56.498,0-111.79-14.329-161.426-41.201c-22.153-11.993-44.329-27.219-62.487-44.798
	c-16.755-16.218-28.994-41.421-53.057-48.448c-46.671-13.632-25.669-36.297-34.926-76.865
	c-5.862-25.685-22.749-47.579-28.357-73.494c-6.176-28.541,10.554-51.772,25.768-74.057c7.109-10.413,15.653-21.157,19.796-33.23
	c5.354-15.6,0.405-31.189,3.845-46.91c2.548-11.646,13.002-27.457,19.692-37.223c19.459-28.405,52.138-43.172,80.612-60.622
	c24.685-15.127,37.076-44.073,61.454-59.165c21.617-13.382,51.74-13.089,76.362-15.517c28.946-2.854,54.42,15.973,82.062,21.001
	c18.323,3.333,36.914,2.882,55.438,2.407c44.846-1.149,78.164,2.972,108.571,39.247c27.014,32.226,50.382,67.22,76.096,100.447
	c21.476,27.752,47.422,53.857,50.517,90.704c2.598,30.921-9.03,60.527-14.327,90.521C721.75,526.044,737.614,556.708,733.383,581.32
	z"/>
<g>
	<path fill="#FFDC4D" stroke="#96C949" stroke-width="2.6104" stroke-miterlimit="10" d="M719.46,1175.56
		c4.057-0.289,8.071-0.739,11.751-2.771c0.828-0.664,0.994-1.826,0.648-2.784c-0.093-0.341-0.196-0.68-0.313-0.99
		c-1.448-3.788-3.692-7.179-6.535-9.966c-0.325-0.373-0.655-0.696-0.827-0.876c-2.101-1.644-5.088-0.814-6.746,1.01
		c-1.99,2.323-2.82,5.31-4.479,7.964c-1.66,2.656-3.65,4.979-5.807,7.301c3.816,0.167,7.632,0.332,11.27,1.066
		C718.729,1175.521,719.169,1175.578,719.46,1175.56z"/>
	<polygon fill="#FFDC4D" stroke="#D9EAC7" stroke-width="2.6104" stroke-miterlimit="10" points="707.153,1174.446 
		707.153,1174.446 707.153,1174.446 	"/>
	<path fill="#FFDC4D" stroke="#96C949" stroke-width="2.6104" stroke-miterlimit="10" d="M729.052,1180.088
		c-2.652-2.16-5.68-3.072-8.811-3.443c-0.521-0.063-1.047-0.107-1.572-0.146c-3.72-1.222-7.699-1.389-11.518-2.053h0.002
		c4.812-6.14,9.126-16.756,2.318-23.047c-0.518-0.043-1.361-0.21-2.014-0.261c-0.648-0.041-1.304-0.065-1.965-0.065
		c-0.349,0-0.697,0.007-1.046,0.019c-0.563,0.072-1.015,0.117-1.459,0.173c-0.579,0.077-1.155,0.168-1.724,0.275
		c-0.282,0.053-0.626,0.18-0.975,0.314c-3.259,2.849-1.267,7.825-2.098,11.644c-2.487-1.993-4.976-4.482-8.294-4.813
		c-2.573-0.334-4.772,0.748-6.475,2.469c-0.212,0.219-0.483,0.488-0.752,0.776c-1.899,1.567-3.559,3.554-3.226,6.212
		c0.331,1.659,1.326,3.15,2.652,3.814c3.152,1.99,6.805,2.323,10.123,3.153c-4.813,1.827-12.113,1.323-14.415,6.894
		c0.054,0.318,0.066,0.724,0.115,1.063c0.271,1.833,0.721,3.608,1.331,5.304c0.07,0.491,0.168,0.814,0.266,1.147
		c0.094,2.516,1.586,5.004,4.573,4.343c4.644-1.195,7.908-4.406,11.24-7.515c0.416-0.39,0.899-0.763,1.293-1.146
		c0.369-0.317,0.72-0.477,1.082-0.553c0.361-0.081,0.759-0.083,1.577-0.163c-0.503,0.215-0.867,0.398-1.16,0.578
		c-0.288,0.177-0.551,0.357-0.803,0.54c-0.496,0.376-0.952,0.788-1.281,1.285c-0.289,0.481-0.655,0.97-0.982,1.467
		c-2.929,4.448-5.699,9.368-3.337,14.489c0.561,0.475,1.11,0.944,1.377,1.076c0.469,0.229,0.939,0.452,1.421,0.658
		c0.455,0.193,0.899,0.376,1.271,0.517c1.738,0.876,3.566,0.378,5.061-0.618c2.32-1.824,3.148-4.479,3.648-7.136
		c0.248-1.74,0.248-3.441,0.164-5.122c-0.013-0.276,0.065-0.729,0.102-1.044c0.331-2.329,0.962-4.442,1.452-6.717
		c0.095-0.454,0.224-0.966,0.393-1.567c-0.086,0.654-0.135,1.229-0.159,1.748c-0.118,2.588-0.496,5.099-0.693,7.727
		c0.131,0.61,0.258,1.226,0.389,1.844c1.05,4.943,2.345,9.883,7.344,11.434c0.551-0.207,1.318-0.408,1.937-0.644
		c0.292-0.114,0.58-0.228,0.868-0.349c0.414-0.166,0.764-0.314,1.107-0.466c3.523-1.033,4.021-5.018,2.859-7.841
		c-2.214-5.114-6.614-8.501-11.094-11.506c-0.445-0.299-0.89-0.606-1.312-0.956c-0.537-0.308-0.867-0.644-1.2-0.974
		c1.325-0.165,2.155,0.997,3.089,1.724c0.56,0.225,1.105,0.688,1.664,1.062c6.142,4.13,12.675,10.483,18.782,6.206
		c0.31-0.606,0.607-1.232,0.854-1.804C732.705,1186.561,732.039,1182.576,729.052,1180.088z"/>
</g>
<g>
	<g>
		<path fill="#FDF5F8" stroke="#EE4A6C" stroke-width="1.7403" stroke-miterlimit="10" d="M391.773,1175.561
			c0,60.018-20.024,58.13-44.725,58.13s-44.725,1.888-44.725-58.13c0-60.021,20.024-108.676,44.725-108.676
			S391.773,1115.54,391.773,1175.561z"/>
		<path fill="#FDF5F8" stroke="#EE4A6C" stroke-width="1.7403" stroke-miterlimit="10" d="M533.695,1175.561
			c0,60.018-20.023,58.13-44.727,58.13c-24.7,0-44.725,1.888-44.725-58.13c0-60.021,20.024-108.676,44.725-108.676
			C513.672,1066.885,533.695,1115.54,533.695,1175.561z"/>
		<path fill="#FDF5F8" stroke="#EE4A6C" stroke-width="1.7403" stroke-miterlimit="10" d="M95.396,642.476
			c-11.772,23.588-2.316,66.484,60.609,97.887c62.928,31.401,125.166,37.735,136.939,14.143
			c11.772-23.591-31.381-68.168-94.307-99.571C135.712,623.531,107.169,618.882,95.396,642.476z"/>
		<path fill="#FDF5F8" stroke="#EE4A6C" stroke-width="1.7403" stroke-miterlimit="10" d="M523.854,759.617
			c11.984,23.483,72.479,16.609,135.122-15.359c62.642-31.963,83.488-90.393,71.505-113.877
			c-11.983-23.482-52.261-3.129-114.901,28.838C552.937,691.18,511.871,736.133,523.854,759.617z"/>
		<path fill="#FDF5F8" stroke="#EE4A6C" stroke-width="1.7403" stroke-miterlimit="10" d="M616.625,941.104
			c0,128.083-90.313,183.476-201.722,183.476c-111.407,0-201.721-55.393-201.721-183.476c0-128.08,90.314-281.962,201.721-281.962
			C526.313,659.142,616.625,813.023,616.625,941.104z"/>
		
			<ellipse transform="matrix(0.9452 -0.3266 0.3266 0.9452 -54.8286 98.9297)" fill="#FDF5F8" stroke="#EE4A6C" stroke-width="1.7403" stroke-miterlimit="10" cx="267.197" cy="212.743" rx="60.761" ry="204.92"/>
		
			<ellipse transform="matrix(0.9451 0.3267 -0.3267 0.9451 99.2382 -165.3796)" fill="#FDF5F8" stroke="#EE4A6C" stroke-width="1.7403" stroke-miterlimit="10" cx="541.956" cy="212.743" rx="60.762" ry="204.921"/>
		
			<ellipse transform="matrix(0.9452 -0.3266 0.3266 0.9452 -63.4468 103.7755)" fill="#EC6F7C" stroke="#FFFFFF" stroke-width="0.8701" stroke-miterlimit="10" cx="277.305" cy="240.823" rx="27.985" ry="124.708"/>
		
			<ellipse transform="matrix(-0.9452 -0.3266 0.3266 -0.9452 940.9972 662.1132)" fill="#EC6F7C" stroke="#FFFFFF" stroke-width="0.8701" stroke-miterlimit="10" cx="526.086" cy="252.056" rx="27.985" ry="124.708"/>
		<path fill="#FDF5F8" stroke="#EE4A6C" stroke-width="1.7403" stroke-miterlimit="10" d="M653.088,556.822
			c0,133.657-108.354,208.312-242.013,208.312c-133.659,0-242.012-74.654-242.012-208.312
			c0-133.659,108.354-242.013,242.012-242.013C544.734,314.81,653.088,423.163,653.088,556.822z"/>
		<circle fill="#B43225" stroke="#FFFFFF" stroke-width="0.8701" stroke-miterlimit="10" cx="371.334" cy="534.46" r="15.947"/>
		<circle fill="#B43225" stroke="#FFFFFF" stroke-width="0.8701" stroke-miterlimit="10" cx="466.777" cy="534.46" r="15.947"/>
		<circle fill="#FFFFFF" cx="371.333" cy="528.842" r="7.369"/>
		<circle fill="#FFFFFF" cx="466.777" cy="528.842" r="7.369"/>
		<ellipse fill="#E26168" cx="417.815" cy="561.418" rx="10.876" ry="10.109"/>
		<path fill="none" stroke="#E2545C" stroke-width="1.7403" stroke-miterlimit="10" d="M417.814,571.527
			c0,9.778-9.452,17.692-21.136,17.692"/>
		<path fill="none" stroke="#E2545C" stroke-width="1.7403" stroke-miterlimit="10" d="M417.814,571.527
			c0,9.778,9.454,17.692,21.139,17.692"/>
		
			<ellipse transform="matrix(0.9403 -0.3404 0.3404 0.9403 -150.3474 154.5804)" fill="#F38183" cx="365.417" cy="505.816" rx="13.284" ry="5.898"/>
		
			<ellipse transform="matrix(0.9755 0.2199 -0.2199 0.9755 122.6539 -90.2625)" fill="#F38183" cx="466.776" cy="505.817" rx="13.285" ry="5.896"/>
		<circle fill="#F48A84" cx="124.73" cy="667.566" r="16.849"/>
		<circle fill="#F48A84" cx="98.333" cy="659.142" r="5.055"/>
		<circle fill="#F48A84" cx="107.881" cy="644.538" r="5.055"/>
		<circle fill="#F48A84" cx="122.603" cy="639.485" r="5.055"/>
		<circle fill="#FBDFE7" cx="701.643" cy="634.43" r="5.054"/>
		<path fill="#F48A84" d="M718.489,634.43c0,2.792-2.259,5.056-5.053,5.056c-2.791,0-5.055-2.264-5.055-5.056
			s2.264-5.055,5.055-5.055C716.23,629.375,718.489,631.638,718.489,634.43z"/>
		<circle fill="#F48A84" cx="725.23" cy="642.293" r="5.055"/>
		<circle fill="#F48A84" cx="708.382" cy="659.142" r="16.848"/>
		<circle fill="#FACCCB" cx="310.749" cy="580.373" r="47.21"/>
		<circle fill="#FACCCB" cx="521.776" cy="580.373" r="47.209"/>
	</g>
	<circle fill="#FFFFFF" cx="413.679" cy="960.621" r="128.89"/>
</g>
<path fill="none" stroke="#F9C5C8" stroke-width="13.9221" stroke-miterlimit="10" d="M754.566,774.814
	c0-86.646-15.174-156.76-33.929-156.76h1.244c-18.753,0-33.929,70.113-33.929,156.76"/>
<path fill="#F27E86" d="M730.405,1015.807c0,5.926-19.17,31.725-19.17,31.752c-1.139-2.56-67.651,3.393-77.206,3.054
	c-34.691-1.201-65.286,33.16-100.013,32.551c-34.996-0.609-92.112-25.982-147.982-26.626c-52.896-0.6-100.222,10.163-121.009,7.258
	c-34.988-4.899-50.477-44.717-85.865-45.239c-23.092-0.348-65.354-10.737-87.396-16.967c11.052-42.618,73.735-49.301,93.4-89.059
	c20.604-41.66,42.158-82.939,62.118-124.862c0.775-1.61,17.491-40.906,24.607-54.383c38.199,19.768,86.57,31.576,139.195,31.576
	c54.688,0,104.781-12.756,143.641-33.935c37.903,76.571,90.459,182.719,127.605,257.514
	C692.024,1007.966,730.405,994.41,730.405,1015.807z"/>
<path fill="#F9C5C9" stroke="#D55464" stroke-width="2.6104" stroke-miterlimit="10" d="M838.318,920.084
	c0,11.534-9.35,20.884-20.884,20.884h-201.99c-11.533,0-20.883-9.35-20.883-20.884l-8.701-127.106
	c0-11.532,9.35-20.882,20.882-20.882l110.628-17.402l108.767,17.402c11.532,0,20.884,9.35,20.884,20.882L838.318,920.084z"/>
<path fill="#F38688" stroke="#AF4859" stroke-width="1.7403" stroke-miterlimit="10" d="M854.415,787.459
	c0,9.162-6.832,16.588-15.262,16.588l-123.937-39.944l-123.936,39.944c-8.429,0-15.262-7.426-15.262-16.588l0,0
	c0-9.161,6.833-16.588,15.262-16.588l123.164-39.946l124.708,39.946C847.583,770.871,854.415,778.298,854.415,787.459
	L854.415,787.459z"/>
</svg>
