<?xml version="1.0" encoding="utf-8"?>
<!-- Generator: Adobe Illustrator 16.0.0, SVG Export Plug-In . SVG Version: 6.00 Build 0)  -->
<!DOCTYPE svg PUBLIC "-//W3C//DTD SVG 1.1//EN" "http://www.w3.org/Graphics/SVG/1.1/DTD/svg11.dtd">
<svg version="1.1" xmlns="http://www.w3.org/2000/svg" xmlns:xlink="http://www.w3.org/1999/xlink" x="0px" y="0px" width="1920px"
	 height="1678px" viewBox="0 0 1920 1678" enable-background="new 0 0 1920 1678" xml:space="preserve">
<symbol  id="New_Symbol" viewBox="-75.693 -141.939 151.386 283.877">
	<g>
		<path fill="#D9E9B9" d="M17.995,98.484c3.364-22.257,0.336-41.171-6.763-42.244C4.133,55.167-4.349,72.341-7.713,94.599
			s-0.336,41.171,6.763,42.244S14.631,120.743,17.995,98.484z"/>
		<path fill="#D9E9B9" d="M-6.762,99.631C5.795,72.56,8.975,47.366,0.34,43.361c-8.634-4.006-25.814,14.694-38.372,41.766
			c-12.557,27.073-15.737,52.267-7.102,56.271C-36.5,145.403-19.319,126.704-6.762,99.631z"/>
		<path fill="#D9E9B9" d="M-36.426,81.557c15.728-16.104,24.315-33.226,19.178-38.242c-5.136-5.017-22.051,3.972-37.779,20.075
			c-15.729,16.105-24.315,33.227-19.178,38.243C-69.069,106.649-52.154,97.662-36.426,81.557z"/>
	</g>
	<path fill="#FBBE94" d="M55.959,35.659c14.067-43.059,33.939-167.396,4.541-177C31.102-150.945-36.436-42.18-50.503,0.878
		C-64.57,43.938-40.77,51.823-11.372,61.428C18.027,71.032,41.893,78.718,55.959,35.659z"/>
	<g>
		<path fill="#F9D395" d="M57.092,7.167c1.196-3.09-8.237-9.62-21.069-14.584c-12.831-4.963-24.202-6.482-25.397-3.392
			c-1.196,3.09,8.237,9.621,21.068,14.584C44.525,8.74,55.896,10.258,57.092,7.167z"/>
		<path fill="#F9D395" d="M58.739-14.862c1.195-3.09-5.56-8.584-15.089-12.271c-9.529-3.686-18.223-4.169-19.418-1.079
			c-1.195,3.09,5.56,8.584,15.089,12.271C48.85-12.254,57.543-11.772,58.739-14.862z"/>
		<path fill="#F9D395" d="M58.927-34.512c0.807-2.084-3.378-5.645-9.346-7.954c-5.968-2.309-11.459-2.491-12.266-0.407
			c-0.807,2.084,3.378,5.645,9.346,7.954C52.63-32.61,58.122-32.429,58.927-34.512z"/>
	</g>
</symbol>
<g id="Layer_3">
</g>
<g id="Layer_2">
	<g>
		<defs>
			<rect id="SVGID_1_" width="1920" height="1678"/>
		</defs>
		<clipPath id="SVGID_2_">
			<use xlink:href="#SVGID_1_"  overflow="visible"/>
		</clipPath>
		<g clip-path="url(#SVGID_2_)">
			
				<use xlink:href="#New_Symbol"  width="151.386" height="283.877" x="-75.693" y="-141.939" transform="matrix(1 0 0 -1 293.1655 314.2373)" overflow="visible" opacity="0.3088"/>
			
				<use xlink:href="#New_Symbol"  width="151.386" height="283.877" x="-75.693" y="-141.939" transform="matrix(1 0 0 -1 159.146 979.0664)" overflow="visible" opacity="0.2741"/>
			
				<use xlink:href="#New_Symbol"  width="151.386" height="283.877" x="-75.693" y="-141.939" transform="matrix(1 0 0 -1 484.8618 713.3047)" overflow="visible" opacity="0.4529"/>
			
				<use xlink:href="#New_Symbol"  width="151.386" height="283.877" x="-75.693" y="-141.939" transform="matrix(1 0 0 -1 603.4111 22.376)" overflow="visible" opacity="0.2564"/>
			
				<use xlink:href="#New_Symbol"  width="151.386" height="283.877" x="-75.693" y="-141.939" transform="matrix(1 0 0 -1 -35.3843 65.4146)" overflow="visible" opacity="0.2589"/>
			
				<use xlink:href="#New_Symbol"  width="151.386" height="283.877" x="-75.693" y="-141.939" transform="matrix(1 0 0 -1 49.4004 621.2588)" overflow="visible" opacity="0.2378"/>
			
				<use xlink:href="#New_Symbol"  width="151.386" height="283.877" x="-75.693" y="-141.939" transform="matrix(1 0 0 -1 99.9404 1462.1777)" overflow="visible" opacity="0.4902"/>
			
				<use xlink:href="#New_Symbol"  width="151.386" height="283.877" x="-75.693" y="-141.939" transform="matrix(1 0 0 -1 451.6162 1545.416)" overflow="visible" opacity="0.5395"/>
			
				<use xlink:href="#New_Symbol"  width="151.386" height="283.877" x="-75.693" y="-141.939" transform="matrix(1 0 0 -1 1461.0537 269.5127)" overflow="visible" opacity="0.2626"/>
			
				<use xlink:href="#New_Symbol"  width="151.386" height="283.877" x="-75.693" y="-141.939" transform="matrix(1 0 0 -1 1182.9824 -24.0752)" overflow="visible" opacity="0.2293"/>
			
				<use xlink:href="#New_Symbol"  width="151.386" height="283.877" x="-75.693" y="-141.939" transform="matrix(1 0 0 -1 1576.1201 734.1865)" overflow="visible" opacity="0.1754"/>
			
				<use xlink:href="#New_Symbol"  width="151.386" height="283.877" x="-75.693" y="-141.939" transform="matrix(1 0 0 -1 1886.7168 412.8662)" overflow="visible" opacity="0.5531"/>
			
				<use xlink:href="#New_Symbol"  width="151.386" height="283.877" x="-75.693" y="-141.939" transform="matrix(1 0 0 -1 1751.4209 11.3418)" overflow="visible" opacity="0.2103"/>
			
				<use xlink:href="#New_Symbol"  width="151.386" height="283.877" x="-75.693" y="-141.939" transform="matrix(1 0 0 -1 1878.875 1029.0615)" overflow="visible" opacity="0.345"/>
			
				<use xlink:href="#New_Symbol"  width="151.386" height="283.877" x="-75.693" y="-141.939" transform="matrix(1 0 0 -1 1724.9492 1575.8691)" overflow="visible" opacity="0.3642"/>
			
				<use xlink:href="#New_Symbol"  width="151.386" height="283.877" x="-75.693" y="-141.939" transform="matrix(1 0 0 -1 1350.7178 1680.6494)" overflow="visible" opacity="0.3414"/>
			
				<use xlink:href="#New_Symbol"  width="151.386" height="283.877" x="-75.693" y="-141.939" transform="matrix(1 0 0 -1 1561.0381 1185.207)" overflow="visible" opacity="0.1644"/>
		</g>
	</g>
	<g>
		<defs>
			<rect id="SVGID_3_" width="1920" height="1678"/>
		</defs>
		<clipPath id="SVGID_4_">
			<use xlink:href="#SVGID_3_"  overflow="visible"/>
		</clipPath>
		<g clip-path="url(#SVGID_4_)">
			
				<use xlink:href="#New_Symbol"  width="151.386" height="283.877" x="-75.693" y="-141.939" transform="matrix(1 0 0 -1 293.1655 314.2373)" overflow="visible" opacity="0.3088"/>
			
				<use xlink:href="#New_Symbol"  width="151.386" height="283.877" x="-75.693" y="-141.939" transform="matrix(1 0 0 -1 159.146 979.0664)" overflow="visible" opacity="0.2741"/>
			
				<use xlink:href="#New_Symbol"  width="151.386" height="283.877" x="-75.693" y="-141.939" transform="matrix(1 0 0 -1 484.8618 713.3047)" overflow="visible" opacity="0.4529"/>
			
				<use xlink:href="#New_Symbol"  width="151.386" height="283.877" x="-75.693" y="-141.939" transform="matrix(1 0 0 -1 603.4111 22.376)" overflow="visible" opacity="0.2564"/>
			
				<use xlink:href="#New_Symbol"  width="151.386" height="283.877" x="-75.693" y="-141.939" transform="matrix(1 0 0 -1 -35.3843 65.4146)" overflow="visible" opacity="0.2589"/>
			
				<use xlink:href="#New_Symbol"  width="151.386" height="283.877" x="-75.693" y="-141.939" transform="matrix(1 0 0 -1 49.4004 621.2588)" overflow="visible" opacity="0.2378"/>
			
				<use xlink:href="#New_Symbol"  width="151.386" height="283.877" x="-75.693" y="-141.939" transform="matrix(1 0 0 -1 99.9404 1462.1777)" overflow="visible" opacity="0.4902"/>
			
				<use xlink:href="#New_Symbol"  width="151.386" height="283.877" x="-75.693" y="-141.939" transform="matrix(1 0 0 -1 451.6162 1545.416)" overflow="visible" opacity="0.5395"/>
			
				<use xlink:href="#New_Symbol"  width="151.386" height="283.877" x="-75.693" y="-141.939" transform="matrix(1 0 0 -1 1461.0537 269.5127)" overflow="visible" opacity="0.2626"/>
			
				<use xlink:href="#New_Symbol"  width="151.386" height="283.877" x="-75.693" y="-141.939" transform="matrix(1 0 0 -1 1182.9824 -24.0752)" overflow="visible" opacity="0.2293"/>
			
				<use xlink:href="#New_Symbol"  width="151.386" height="283.877" x="-75.693" y="-141.939" transform="matrix(1 0 0 -1 1576.1201 734.1865)" overflow="visible" opacity="0.1754"/>
			
				<use xlink:href="#New_Symbol"  width="151.386" height="283.877" x="-75.693" y="-141.939" transform="matrix(1 0 0 -1 1886.7168 412.8662)" overflow="visible" opacity="0.5531"/>
			
				<use xlink:href="#New_Symbol"  width="151.386" height="283.877" x="-75.693" y="-141.939" transform="matrix(1 0 0 -1 1751.4209 11.3418)" overflow="visible" opacity="0.2103"/>
			
				<use xlink:href="#New_Symbol"  width="151.386" height="283.877" x="-75.693" y="-141.939" transform="matrix(1 0 0 -1 1878.875 1029.0615)" overflow="visible" opacity="0.345"/>
			
				<use xlink:href="#New_Symbol"  width="151.386" height="283.877" x="-75.693" y="-141.939" transform="matrix(1 0 0 -1 1724.9492 1575.8691)" overflow="visible" opacity="0.3642"/>
			
				<use xlink:href="#New_Symbol"  width="151.386" height="283.877" x="-75.693" y="-141.939" transform="matrix(1 0 0 -1 1350.7178 1680.6494)" overflow="visible" opacity="0.3414"/>
			
				<use xlink:href="#New_Symbol"  width="151.386" height="283.877" x="-75.693" y="-141.939" transform="matrix(1 0 0 -1 1561.0381 1185.207)" overflow="visible" opacity="0.1644"/>
		</g>
	</g>
	<g>
		<defs>
			<rect id="SVGID_5_" width="1920" height="1678"/>
		</defs>
		<clipPath id="SVGID_6_">
			<use xlink:href="#SVGID_5_"  overflow="visible"/>
		</clipPath>
		<g clip-path="url(#SVGID_6_)">
			
				<use xlink:href="#New_Symbol"  width="151.386" height="283.877" x="-75.693" y="-141.939" transform="matrix(1 0 0 -1 293.1655 314.2373)" overflow="visible" opacity="0.3088"/>
			
				<use xlink:href="#New_Symbol"  width="151.386" height="283.877" x="-75.693" y="-141.939" transform="matrix(1 0 0 -1 159.146 979.0664)" overflow="visible" opacity="0.2741"/>
			
				<use xlink:href="#New_Symbol"  width="151.386" height="283.877" x="-75.693" y="-141.939" transform="matrix(1 0 0 -1 484.8618 713.3047)" overflow="visible" opacity="0.4529"/>
			
				<use xlink:href="#New_Symbol"  width="151.386" height="283.877" x="-75.693" y="-141.939" transform="matrix(1 0 0 -1 603.4111 22.376)" overflow="visible" opacity="0.2564"/>
			
				<use xlink:href="#New_Symbol"  width="151.386" height="283.877" x="-75.693" y="-141.939" transform="matrix(1 0 0 -1 -35.3843 65.4146)" overflow="visible" opacity="0.2589"/>
			
				<use xlink:href="#New_Symbol"  width="151.386" height="283.877" x="-75.693" y="-141.939" transform="matrix(1 0 0 -1 49.4004 621.2588)" overflow="visible" opacity="0.2378"/>
			
				<use xlink:href="#New_Symbol"  width="151.386" height="283.877" x="-75.693" y="-141.939" transform="matrix(1 0 0 -1 99.9404 1462.1777)" overflow="visible" opacity="0.4902"/>
			
				<use xlink:href="#New_Symbol"  width="151.386" height="283.877" x="-75.693" y="-141.939" transform="matrix(1 0 0 -1 451.6162 1545.416)" overflow="visible" opacity="0.5395"/>
			
				<use xlink:href="#New_Symbol"  width="151.386" height="283.877" x="-75.693" y="-141.939" transform="matrix(1 0 0 -1 1461.0537 269.5127)" overflow="visible" opacity="0.2626"/>
			
				<use xlink:href="#New_Symbol"  width="151.386" height="283.877" x="-75.693" y="-141.939" transform="matrix(1 0 0 -1 1182.9824 -24.0752)" overflow="visible" opacity="0.2293"/>
			
				<use xlink:href="#New_Symbol"  width="151.386" height="283.877" x="-75.693" y="-141.939" transform="matrix(1 0 0 -1 1576.1201 734.1865)" overflow="visible" opacity="0.1754"/>
			
				<use xlink:href="#New_Symbol"  width="151.386" height="283.877" x="-75.693" y="-141.939" transform="matrix(1 0 0 -1 1886.7168 412.8662)" overflow="visible" opacity="0.5531"/>
			
				<use xlink:href="#New_Symbol"  width="151.386" height="283.877" x="-75.693" y="-141.939" transform="matrix(1 0 0 -1 1751.4209 11.3418)" overflow="visible" opacity="0.2103"/>
			
				<use xlink:href="#New_Symbol"  width="151.386" height="283.877" x="-75.693" y="-141.939" transform="matrix(1 0 0 -1 1878.875 1029.0615)" overflow="visible" opacity="0.345"/>
			
				<use xlink:href="#New_Symbol"  width="151.386" height="283.877" x="-75.693" y="-141.939" transform="matrix(1 0 0 -1 1724.9492 1575.8691)" overflow="visible" opacity="0.3642"/>
			
				<use xlink:href="#New_Symbol"  width="151.386" height="283.877" x="-75.693" y="-141.939" transform="matrix(1 0 0 -1 1350.7178 1680.6494)" overflow="visible" opacity="0.3414"/>
			
				<use xlink:href="#New_Symbol"  width="151.386" height="283.877" x="-75.693" y="-141.939" transform="matrix(1 0 0 -1 1561.0381 1185.207)" overflow="visible" opacity="0.1644"/>
		</g>
	</g>
</g>
<g id="Layer_1">
	<linearGradient id="SVGID_7_" gradientUnits="userSpaceOnUse" x1="961.0527" y1="1534.9063" x2="961.0527" y2="1429.9336">
		<stop  offset="0" style="stop-color:#FFF33B"/>
		<stop  offset="0.1127" style="stop-color:#ECE83B"/>
		<stop  offset="0.2897" style="stop-color:#CBDC3C"/>
		<stop  offset="0.468" style="stop-color:#B0D23D"/>
		<stop  offset="0.6459" style="stop-color:#9DCB3E"/>
		<stop  offset="0.8234" style="stop-color:#91C83F"/>
		<stop  offset="1" style="stop-color:#8DC63F"/>
	</linearGradient>
	<ellipse fill="url(#SVGID_7_)" cx="961.053" cy="1482.42" rx="314.573" ry="52.486"/>
	<path fill="none" stroke="#97CA4A" stroke-width="3" stroke-miterlimit="10" d="M586.578,1304.328
		c-23.277,57.479,24.696,131.044,107.258,164.477"/>
	<path fill="none" stroke="#97CA4A" stroke-width="3" stroke-miterlimit="10" d="M661.623,1316.713
		c-23.276,57.48,24.697,131.045,107.258,164.479"/>
	<path fill="none" stroke="#97CA4A" stroke-width="3" stroke-miterlimit="10" d="M1291.814,1316.713
		c23.278,57.48-24.696,131.045-107.256,164.479"/>
	<path fill="none" stroke="#97CA4A" stroke-width="3" stroke-miterlimit="10" d="M1355.363,1316.713
		c23.277,57.48-24.697,131.045-107.257,164.479"/>
	<g>
		<path fill="#FEDD4D" stroke="#97CA4A" stroke-width="3" stroke-miterlimit="10" d="M607.824,1309.892
			c9.885-0.696,19.672-1.798,28.634-6.751c2.022-1.615,2.427-4.446,1.582-6.783c-0.228-0.837-0.477-1.66-0.764-2.411
			c-3.521-9.231-8.998-17.496-15.925-24.29c-0.789-0.906-1.595-1.691-2.01-2.138c-5.12-3.999-12.398-1.978-16.44,2.47
			c-4.852,5.66-6.873,12.938-10.916,19.405c-4.044,6.47-8.894,12.129-14.151,17.788c9.302,0.404,18.6,0.811,27.463,2.595
			C606.042,1309.8,607.119,1309.943,607.824,1309.892z"/>
		<polygon fill="#FEDD4D" stroke="#97CA4A" stroke-width="3" stroke-miterlimit="10" points="577.835,1307.182 577.835,1307.182 
			577.835,1307.182 		"/>
		<path fill="#FEDD4D" stroke="#97CA4A" stroke-width="3" stroke-miterlimit="10" d="M631.203,1320.93
			c-6.469-5.257-13.848-7.479-21.476-8.391c-1.271-0.152-2.549-0.267-3.831-0.354c-9.059-2.979-18.762-3.384-28.064-5.004
			c0.002,0,0.003,0,0.003,0c11.725-14.957,22.236-40.832,5.655-56.158c-1.267-0.102-3.325-0.52-4.907-0.631
			c-1.583-0.109-3.18-0.166-4.791-0.166c-0.854,0-1.701,0.017-2.545,0.047c-1.374,0.172-2.476,0.287-3.559,0.415
			c-1.412,0.19-2.811,0.417-4.198,0.676c-0.693,0.129-1.522,0.438-2.372,0.771c-7.944,6.937-3.093,19.065-5.115,28.364
			c-6.063-4.852-12.129-10.916-20.215-11.723c-6.266-0.811-11.623,1.818-15.772,6.017c-0.519,0.525-1.176,1.192-1.833,1.891
			c-4.63,3.815-8.673,8.667-7.864,15.136c0.809,4.043,3.234,7.682,6.468,9.299c7.682,4.852,16.578,5.66,24.663,7.683
			c-11.725,4.446-29.515,3.232-35.125,16.803c0.133,0.771,0.162,1.762,0.283,2.581c0.662,4.465,1.758,8.791,3.245,12.929
			c0.17,1.195,0.409,1.984,0.645,2.792c0.226,6.134,3.864,12.195,11.142,10.581c11.32-2.912,19.275-10.739,27.388-18.308
			c1.015-0.947,2.194-1.854,3.155-2.792c0.9-0.771,1.754-1.157,2.636-1.348c0.882-0.196,1.849-0.204,3.844-0.398
			c-1.225,0.522-2.115,0.979-2.824,1.411c-0.707,0.434-1.349,0.864-1.954,1.318c-1.212,0.909-2.322,1.917-3.126,3.127
			c-0.704,1.174-1.596,2.366-2.391,3.57c-7.144,10.844-13.894,22.832-8.135,35.313c1.365,1.157,2.707,2.296,3.356,2.622
			c1.138,0.563,2.292,1.1,3.465,1.601c1.106,0.475,2.187,0.922,3.092,1.265c4.242,2.132,8.688,0.918,12.327-1.509
			c5.66-4.445,7.682-10.915,8.895-17.383c0.606-4.246,0.606-8.389,0.405-12.482c-0.034-0.684,0.154-1.778,0.248-2.55
			c0.803-5.667,2.342-10.821,3.534-16.363c0.237-1.106,0.544-2.359,0.956-3.823c-0.212,1.599-0.326,2.998-0.385,4.261
			c-0.292,6.306-1.214,12.426-1.688,18.823c0.317,1.487,0.626,2.993,0.945,4.498c2.552,12.04,5.714,24.082,17.895,27.86
			c1.342-0.505,3.214-0.995,4.718-1.569c0.709-0.271,1.414-0.553,2.112-0.845c1.014-0.409,1.861-0.771,2.698-1.139
			c8.586-2.521,9.799-12.225,6.97-19.098c-5.391-12.465-16.116-20.72-27.028-28.04c-1.093-0.729-2.173-1.485-3.198-2.332
			c-1.31-0.757-2.119-1.566-2.926-2.376c3.234-0.404,5.256,2.427,7.53,4.198c1.358,0.546,2.695,1.676,4.056,2.588
			c14.964,10.059,30.881,25.547,45.764,15.126c0.759-1.484,1.482-3.005,2.087-4.392
			C640.096,1336.697,638.48,1326.994,631.203,1320.93z"/>
	</g>
	<g>
		<path fill="#FEDD4D" stroke="#97CA4A" stroke-width="3" stroke-miterlimit="10" d="M1332.36,1303.082
			c9.885-0.697,19.671-1.798,28.634-6.75c2.021-1.617,2.427-4.448,1.581-6.783c-0.227-0.838-0.476-1.66-0.764-2.413
			c-3.521-9.229-8.998-17.494-15.922-24.29c-0.792-0.905-1.597-1.689-2.013-2.137c-5.119-3.999-12.396-1.978-16.439,2.471
			c-4.853,5.659-6.872,12.938-10.915,19.405c-4.044,6.468-8.896,12.129-14.152,17.788c9.304,0.404,18.6,0.81,27.464,2.594
			C1330.577,1302.989,1331.653,1303.134,1332.36,1303.082z"/>
		<polygon fill="#FEDD4D" stroke="#DAEBC7" stroke-width="3" stroke-miterlimit="10" points="1302.37,1300.373 1302.37,1300.373 
			1302.37,1300.373 		"/>
		<path fill="#FEDD4D" stroke="#97CA4A" stroke-width="3" stroke-miterlimit="10" d="M1355.738,1314.12
			c-6.467-5.257-13.847-7.479-21.475-8.39c-1.271-0.152-2.549-0.268-3.832-0.354c-9.057-2.981-18.762-3.386-28.064-5.004
			c0.003,0,0.003,0,0.003,0c11.726-14.959,22.237-40.832,5.656-56.158c-1.268-0.103-3.326-0.52-4.907-0.632
			c-1.584-0.11-3.181-0.166-4.79-0.166c-0.854,0-1.701,0.017-2.547,0.047c-1.373,0.171-2.474,0.288-3.56,0.415
			c-1.411,0.191-2.81,0.417-4.197,0.677c-0.691,0.128-1.521,0.438-2.372,0.771c-7.943,6.936-3.093,19.064-5.112,28.365
			c-6.066-4.853-12.129-10.918-20.217-11.725c-6.265-0.809-11.624,1.819-15.773,6.018c-0.518,0.525-1.176,1.193-1.831,1.892
			c-4.632,3.815-8.675,8.665-7.866,15.134c0.811,4.043,3.234,7.682,6.469,9.301c7.683,4.85,16.578,5.66,24.664,7.681
			c-11.727,4.448-29.516,3.234-35.125,16.804c0.131,0.771,0.162,1.762,0.282,2.581c0.662,4.465,1.757,8.792,3.245,12.929
			c0.17,1.195,0.409,1.983,0.644,2.791c0.228,6.135,3.865,12.197,11.142,10.582c11.32-2.912,19.277-10.738,27.389-18.309
			c1.014-0.945,2.194-1.853,3.155-2.79c0.899-0.772,1.755-1.158,2.635-1.35c0.884-0.194,1.851-0.203,3.846-0.396
			c-1.224,0.522-2.117,0.978-2.823,1.411c-0.709,0.433-1.352,0.863-1.956,1.316c-1.213,0.91-2.323,1.919-3.126,3.129
			c-0.706,1.172-1.598,2.365-2.393,3.57c-7.144,10.843-13.891,22.831-8.135,35.313c1.365,1.156,2.709,2.295,3.358,2.62
			c1.138,0.564,2.292,1.101,3.465,1.603c1.106,0.475,2.187,0.92,3.094,1.265c4.239,2.132,8.687,0.917,12.325-1.509
			c5.662-4.446,7.682-10.916,8.896-17.385c0.605-4.244,0.605-8.388,0.404-12.482c-0.034-0.682,0.155-1.776,0.248-2.549
			c0.804-5.668,2.343-10.822,3.534-16.363c0.238-1.105,0.545-2.359,0.957-3.822c-0.212,1.597-0.326,2.997-0.387,4.261
			c-0.29,6.306-1.214,12.425-1.687,18.822c0.317,1.488,0.626,2.993,0.946,4.499c2.551,12.039,5.714,24.082,17.894,27.859
			c1.341-0.506,3.213-0.994,4.719-1.569c0.709-0.271,1.413-0.552,2.111-0.846c1.015-0.408,1.861-0.769,2.698-1.139
			c8.586-2.52,9.801-12.223,6.969-19.097c-5.391-12.466-16.116-20.72-27.027-28.039c-1.094-0.73-2.173-1.487-3.198-2.334
			c-1.311-0.757-2.119-1.564-2.925-2.375c3.234-0.405,5.255,2.426,7.529,4.197c1.357,0.547,2.693,1.676,4.055,2.59
			c14.964,10.058,30.882,25.545,45.764,15.126c0.758-1.484,1.483-3.005,2.088-4.393
			C1364.633,1329.887,1363.016,1320.186,1355.738,1314.12z"/>
	</g>
	<g>
		<path fill="#FEDD4D" stroke="#97CA4A" stroke-width="3" stroke-miterlimit="10" d="M1378.403,1344.012
			c4.789-0.339,9.53-0.872,13.873-3.271c0.979-0.784,1.175-2.156,0.767-3.286c-0.109-0.405-0.23-0.805-0.371-1.169
			c-1.705-4.473-4.358-8.477-7.715-11.769c-0.383-0.438-0.771-0.818-0.971-1.034c-2.482-1.938-6.009-0.959-7.967,1.195
			c-2.352,2.742-3.329,6.269-5.289,9.402c-1.959,3.133-4.309,5.875-6.854,8.617c4.505,0.197,9.012,0.393,13.306,1.257
			C1377.54,1343.965,1378.063,1344.036,1378.403,1344.012z"/>
		<polygon fill="#FEDD4D" stroke="#DAEBC7" stroke-width="3" stroke-miterlimit="10" points="1363.876,1342.697 1363.876,1342.697 
			1363.876,1342.697 		"/>
		<path fill="#FEDD4D" stroke="#97CA4A" stroke-width="3" stroke-miterlimit="10" d="M1389.729,1349.357
			c-3.134-2.547-6.708-3.624-10.403-4.064c-0.615-0.075-1.235-0.129-1.855-0.172c-4.389-1.442-9.09-1.64-13.596-2.424h0.001
			c5.681-7.246,10.771-19.781,2.738-27.205c-0.612-0.051-1.611-0.255-2.378-0.307c-0.765-0.054-1.539-0.082-2.319-0.082
			c-0.414,0-0.825,0.01-1.233,0.022c-0.665,0.084-1.198,0.14-1.725,0.203c-0.684,0.092-1.361,0.2-2.033,0.327
			c-0.335,0.063-0.738,0.211-1.15,0.372c-3.849,3.36-1.497,9.237-2.477,13.743c-2.939-2.352-5.875-5.291-9.794-5.68
			c-3.034-0.394-5.631,0.881-7.642,2.914c-0.25,0.255-0.568,0.578-0.889,0.917c-2.243,1.849-4.201,4.198-3.809,7.334
			c0.391,1.956,1.565,3.719,3.134,4.504c3.722,2.35,8.03,2.741,11.949,3.721c-5.681,2.157-14.3,1.566-17.02,8.142
			c0.064,0.374,0.079,0.853,0.138,1.25c0.32,2.162,0.852,4.26,1.572,6.264c0.083,0.58,0.198,0.961,0.313,1.352
			c0.109,2.972,1.872,5.908,5.397,5.127c5.482-1.41,9.337-5.202,13.27-8.87c0.49-0.458,1.063-0.897,1.527-1.352
			c0.437-0.373,0.848-0.562,1.275-0.653c0.428-0.095,0.896-0.1,1.863-0.192c-0.592,0.253-1.023,0.473-1.367,0.684
			c-0.344,0.209-0.654,0.419-0.947,0.638c-0.589,0.441-1.126,0.93-1.516,1.515c-0.339,0.569-0.771,1.146-1.156,1.731
			c-3.463,5.252-6.732,11.06-3.941,17.107c0.66,0.559,1.312,1.111,1.625,1.271c0.551,0.272,1.109,0.533,1.679,0.775
			c0.536,0.23,1.062,0.446,1.499,0.612c2.054,1.033,4.208,0.444,5.973-0.731c2.741-2.153,3.721-5.287,4.308-8.421
			c0.295-2.058,0.295-4.064,0.197-6.048c-0.017-0.33,0.074-0.862,0.12-1.236c0.39-2.745,1.135-5.241,1.711-7.927
			c0.115-0.535,0.264-1.142,0.464-1.851c-0.103,0.772-0.158,1.452-0.186,2.062c-0.144,3.057-0.589,6.021-0.818,9.121
			c0.152,0.721,0.304,1.451,0.457,2.179c1.236,5.833,2.77,11.667,8.671,13.497c0.649-0.244,1.556-0.482,2.284-0.76
			c0.345-0.13,0.687-0.267,1.025-0.41c0.491-0.197,0.899-0.372,1.306-0.551c4.159-1.222,4.748-5.922,3.375-9.252
			c-2.608-6.04-7.806-10.038-13.092-13.584c-0.529-0.355-1.055-0.72-1.552-1.131c-0.634-0.366-1.024-0.76-1.416-1.151
			c1.567-0.196,2.547,1.177,3.648,2.035c0.657,0.265,1.305,0.812,1.964,1.253c7.248,4.874,14.961,12.377,22.172,7.329
			c0.367-0.72,0.719-1.457,1.01-2.13C1394.04,1356.997,1393.255,1352.296,1389.729,1349.357z"/>
	</g>
	<g>
		<path fill="#FEDD4D" stroke="#97CA4A" stroke-width="3" stroke-miterlimit="10" d="M672.916,1319.138
			c4.789-0.339,9.531-0.872,13.874-3.271c0.978-0.784,1.175-2.156,0.766-3.287c-0.11-0.404-0.231-0.804-0.37-1.169
			c-1.707-4.471-4.36-8.475-7.715-11.768c-0.382-0.438-0.772-0.818-0.974-1.034c-2.479-1.938-6.007-0.958-7.965,1.195
			c-2.35,2.742-3.329,6.269-5.288,9.402c-1.959,3.134-4.309,5.875-6.856,8.617c4.506,0.196,9.011,0.393,13.305,1.257
			C672.053,1319.092,672.575,1319.162,672.916,1319.138z"/>
		<polygon fill="#FEDD4D" stroke="#DAEBC7" stroke-width="3" stroke-miterlimit="10" points="658.388,1317.823 658.388,1317.823 
			658.388,1317.823 		"/>
		<path fill="#FEDD4D" stroke="#97CA4A" stroke-width="3" stroke-miterlimit="10" d="M684.243,1324.483
			c-3.133-2.548-6.708-3.624-10.403-4.063c-0.616-0.076-1.236-0.129-1.856-0.173c-4.39-1.443-9.09-1.64-13.597-2.424h0.001
			c5.68-7.246,10.772-19.781,2.739-27.206c-0.613-0.052-1.61-0.254-2.377-0.306c-0.766-0.054-1.54-0.082-2.32-0.082
			c-0.414,0-0.824,0.01-1.233,0.022c-0.666,0.083-1.199,0.141-1.724,0.202c-0.685,0.093-1.363,0.201-2.035,0.327
			c-0.335,0.063-0.737,0.212-1.148,0.373c-3.849,3.361-1.499,9.237-2.479,13.744c-2.938-2.353-5.875-5.292-9.793-5.682
			c-3.035-0.393-5.631,0.883-7.64,2.915c-0.252,0.255-0.57,0.579-0.889,0.917c-2.243,1.85-4.202,4.197-3.81,7.332
			c0.392,1.959,1.567,3.721,3.133,4.506c3.721,2.35,8.031,2.741,11.948,3.721c-5.681,2.155-14.299,1.565-17.017,8.142
			c0.064,0.374,0.079,0.852,0.137,1.249c0.32,2.163,0.851,4.26,1.572,6.266c0.083,0.579,0.198,0.961,0.313,1.352
			c0.109,2.971,1.872,5.907,5.397,5.126c5.484-1.41,9.339-5.202,13.269-8.87c0.492-0.457,1.063-0.897,1.529-1.352
			c0.436-0.373,0.85-0.562,1.277-0.653c0.427-0.095,0.896-0.1,1.862-0.192c-0.593,0.253-1.024,0.473-1.368,0.682
			c-0.342,0.211-0.653,0.421-0.947,0.641c-0.586,0.439-1.125,0.928-1.514,1.514c-0.342,0.569-0.773,1.146-1.158,1.731
			c-3.462,5.253-6.731,11.06-3.941,17.107c0.661,0.56,1.311,1.111,1.625,1.271c0.551,0.271,1.111,0.533,1.679,0.775
			c0.536,0.23,1.06,0.446,1.499,0.612c2.055,1.033,4.209,0.444,5.972-0.731c2.742-2.154,3.721-5.287,4.309-8.421
			c0.293-2.058,0.293-4.065,0.196-6.048c-0.016-0.331,0.075-0.861,0.121-1.236c0.389-2.745,1.134-5.241,1.712-7.926
			c0.115-0.536,0.264-1.144,0.463-1.854c-0.104,0.774-0.158,1.454-0.187,2.064c-0.141,3.057-0.589,6.021-0.818,9.12
			c0.153,0.721,0.304,1.45,0.458,2.179c1.237,5.833,2.769,11.668,8.67,13.498c0.649-0.244,1.556-0.482,2.286-0.761
			c0.344-0.13,0.685-0.267,1.023-0.41c0.491-0.197,0.901-0.373,1.307-0.551c4.159-1.222,4.747-5.923,3.376-9.252
			c-2.611-6.04-7.808-10.038-13.094-13.586c-0.529-0.353-1.053-0.718-1.549-1.131c-0.634-0.364-1.026-0.757-1.417-1.149
			c1.567-0.195,2.546,1.177,3.647,2.035c0.659,0.266,1.306,0.811,1.965,1.254c7.25,4.873,14.962,12.377,22.172,7.327
			c0.367-0.718,0.717-1.456,1.011-2.129C688.552,1332.123,687.768,1327.422,684.243,1324.483z"/>
	</g>
	<g>
		<path fill="#FEDD4D" stroke="#97CA4A" stroke-width="3" stroke-miterlimit="10" d="M642.817,1426.63
			c4.789-0.339,9.531-0.872,13.874-3.271c0.979-0.782,1.175-2.155,0.766-3.286c-0.11-0.404-0.23-0.803-0.37-1.169
			c-1.707-4.472-4.36-8.475-7.715-11.767c-0.382-0.439-0.772-0.82-0.973-1.034c-2.48-1.939-6.007-0.96-7.965,1.194
			c-2.351,2.741-3.33,6.268-5.289,9.401c-1.958,3.134-4.308,5.876-6.855,8.617c4.506,0.197,9.012,0.395,13.305,1.258
			C641.955,1426.585,642.477,1426.654,642.817,1426.63z"/>
		<polygon fill="#FEDD4D" stroke="#DAEBC7" stroke-width="3" stroke-miterlimit="10" points="628.289,1425.315 628.289,1425.315 
			628.289,1425.315 		"/>
		<path fill="#FEDD4D" stroke="#97CA4A" stroke-width="3" stroke-miterlimit="10" d="M654.144,1431.976
			c-3.133-2.547-6.708-3.622-10.403-4.063c-0.616-0.076-1.236-0.129-1.856-0.171c-4.388-1.443-9.089-1.641-13.596-2.426h0
			c5.681-7.245,10.773-19.781,2.739-27.205c-0.614-0.051-1.61-0.253-2.377-0.307c-0.767-0.053-1.54-0.081-2.32-0.081
			c-0.414,0-0.825,0.01-1.234,0.023c-0.666,0.083-1.199,0.14-1.724,0.202c-0.685,0.093-1.362,0.2-2.035,0.327
			c-0.335,0.062-0.737,0.212-1.149,0.372c-3.849,3.36-1.499,9.238-2.478,13.744c-2.938-2.354-5.875-5.291-9.794-5.682
			c-3.035-0.394-5.631,0.882-7.641,2.914c-0.251,0.256-0.57,0.579-0.888,0.918c-2.243,1.85-4.202,4.198-3.81,7.333
			c0.391,1.957,1.566,3.719,3.133,4.504c3.722,2.352,8.031,2.742,11.949,3.722c-5.681,2.156-14.299,1.566-17.017,8.141
			c0.064,0.374,0.078,0.854,0.137,1.25c0.321,2.164,0.852,4.261,1.572,6.265c0.083,0.579,0.199,0.961,0.313,1.354
			c0.11,2.969,1.873,5.907,5.398,5.126c5.484-1.411,9.339-5.202,13.269-8.871c0.492-0.458,1.063-0.898,1.528-1.353
			c0.437-0.373,0.85-0.562,1.277-0.651c0.427-0.095,0.895-0.101,1.861-0.194c-0.593,0.255-1.024,0.473-1.368,0.684
			c-0.342,0.21-0.654,0.42-0.946,0.639c-0.588,0.44-1.125,0.929-1.515,1.516c-0.341,0.569-0.773,1.146-1.158,1.729
			c-3.461,5.253-6.731,11.06-3.941,17.107c0.661,0.561,1.312,1.112,1.625,1.271c0.551,0.271,1.111,0.533,1.679,0.774
			c0.536,0.231,1.06,0.447,1.499,0.613c2.055,1.033,4.208,0.445,5.972-0.732c2.742-2.153,3.721-5.287,4.309-8.419
			c0.293-2.059,0.293-4.066,0.196-6.048c-0.016-0.331,0.075-0.863,0.12-1.236c0.39-2.747,1.135-5.243,1.712-7.928
			c0.115-0.535,0.264-1.143,0.464-1.852c-0.103,0.773-0.158,1.452-0.187,2.063c-0.142,3.056-0.589,6.021-0.818,9.119
			c0.153,0.722,0.304,1.451,0.458,2.179c1.237,5.835,2.769,11.668,8.67,13.498c0.65-0.243,1.556-0.482,2.285-0.76
			c0.344-0.131,0.685-0.267,1.024-0.41c0.491-0.196,0.901-0.373,1.307-0.55c4.159-1.222,4.748-5.924,3.376-9.253
			c-2.612-6.041-7.808-10.037-13.094-13.585c-0.53-0.354-1.054-0.72-1.55-1.131c-0.634-0.364-1.026-0.759-1.417-1.149
			c1.566-0.197,2.546,1.176,3.647,2.035c0.658,0.264,1.306,0.811,1.965,1.253c7.249,4.872,14.962,12.376,22.172,7.327
			c0.367-0.719,0.718-1.455,1.011-2.129C658.453,1439.615,657.669,1434.914,654.144,1431.976z"/>
	</g>
	<g>
		<path fill="#FEDD4D" stroke="#97CA4A" stroke-width="3" stroke-miterlimit="10" d="M702.94,1384.814
			c2.541-0.181,5.055-0.463,7.357-1.736c0.52-0.415,0.624-1.143,0.407-1.743c-0.059-0.213-0.123-0.425-0.197-0.62
			c-0.905-2.371-2.312-4.495-4.091-6.239c-0.204-0.233-0.411-0.436-0.518-0.548c-1.315-1.029-3.185-0.51-4.224,0.633
			c-1.247,1.453-1.766,3.323-2.805,4.986c-1.039,1.662-2.285,3.116-3.635,4.569c2.389,0.104,4.779,0.209,7.056,0.669
			C702.482,1384.79,702.759,1384.826,702.94,1384.814z"/>
		<polygon fill="#FEDD4D" stroke="#DAEBC7" stroke-width="3" stroke-miterlimit="10" points="695.235,1384.116 695.235,1384.116 
			695.235,1384.116 		"/>
		<path fill="#FEDD4D" stroke="#97CA4A" stroke-width="3" stroke-miterlimit="10" d="M708.947,1387.649
			c-1.662-1.352-3.558-1.923-5.518-2.155c-0.326-0.039-0.655-0.068-0.984-0.09c-2.328-0.767-4.821-0.871-7.211-1.288h0.001
			c3.012-3.844,5.714-10.49,1.452-14.429c-0.325-0.027-0.854-0.133-1.26-0.164c-0.407-0.025-0.816-0.041-1.231-0.041
			c-0.219,0-0.437,0.004-0.654,0.012c-0.353,0.046-0.636,0.074-0.915,0.107c-0.364,0.05-0.723,0.105-1.079,0.174
			c-0.178,0.032-0.391,0.111-0.61,0.197c-2.041,1.783-0.794,4.899-1.314,7.29c-1.558-1.249-3.116-2.806-5.194-3.015
			c-1.61-0.208-2.987,0.469-4.053,1.547c-0.133,0.137-0.302,0.306-0.472,0.486c-1.189,0.981-2.227,2.226-2.02,3.89
			c0.208,1.038,0.831,1.972,1.661,2.388c1.974,1.246,4.26,1.455,6.338,1.975c-3.013,1.145-7.584,0.831-9.025,4.318
			c0.034,0.197,0.042,0.451,0.072,0.663c0.17,1.146,0.452,2.259,0.833,3.321c0.044,0.307,0.105,0.509,0.166,0.717
			c0.059,1.575,0.993,3.134,2.863,2.72c2.908-0.749,4.953-2.759,7.037-4.704c0.261-0.244,0.564-0.478,0.811-0.717
			c0.231-0.199,0.451-0.299,0.676-0.347c0.227-0.051,0.477-0.053,0.988-0.103c-0.315,0.135-0.543,0.25-0.726,0.362
			c-0.182,0.111-0.346,0.223-0.502,0.338c-0.311,0.234-0.597,0.494-0.803,0.804c-0.181,0.303-0.41,0.609-0.614,0.919
			c-1.835,2.785-3.569,5.865-2.09,9.073c0.35,0.297,0.695,0.59,0.861,0.672c0.293,0.145,0.589,0.284,0.891,0.413
			c0.285,0.12,0.563,0.237,0.795,0.324c1.089,0.548,2.232,0.235,3.167-0.389c1.455-1.142,1.973-2.804,2.285-4.466
			c0.155-1.092,0.155-2.156,0.104-3.207c-0.008-0.175,0.04-0.458,0.063-0.655c0.207-1.457,0.602-2.781,0.908-4.204
			c0.061-0.284,0.14-0.605,0.246-0.982c-0.055,0.41-0.084,0.77-0.099,1.095c-0.075,1.62-0.313,3.192-0.434,4.837
			c0.082,0.383,0.161,0.768,0.243,1.153c0.656,3.096,1.468,6.189,4.598,7.16c0.345-0.129,0.825-0.255,1.212-0.403
			c0.182-0.07,0.365-0.143,0.544-0.217c0.26-0.104,0.477-0.197,0.693-0.291c2.206-0.648,2.518-3.144,1.791-4.909
			c-1.385-3.203-4.141-5.323-6.945-7.205c-0.279-0.187-0.558-0.38-0.821-0.6c-0.337-0.192-0.544-0.402-0.751-0.609
			c0.831-0.103,1.35,0.625,1.934,1.08c0.35,0.141,0.693,0.429,1.042,0.663c3.845,2.586,7.936,6.564,11.76,3.887
			c0.194-0.379,0.38-0.771,0.535-1.129C711.233,1391.702,710.817,1389.208,708.947,1387.649z"/>
	</g>
	<g>
		<path fill="#FEDD4D" stroke="#97CA4A" stroke-width="3" stroke-miterlimit="10" d="M1224.313,1367.732
			c2.54-0.183,5.054-0.465,7.356-1.736c0.521-0.416,0.625-1.145,0.408-1.744c-0.061-0.213-0.125-0.425-0.196-0.619
			c-0.905-2.373-2.313-4.496-4.093-6.241c-0.204-0.232-0.41-0.435-0.518-0.548c-1.313-1.028-3.185-0.509-4.223,0.633
			c-1.246,1.455-1.766,3.324-2.804,4.986c-1.04,1.663-2.286,3.117-3.638,4.57c2.389,0.104,4.779,0.209,7.057,0.668
			C1223.855,1367.707,1224.133,1367.743,1224.313,1367.732z"/>
		<polygon fill="#FEDD4D" stroke="#DAEBC7" stroke-width="3" stroke-miterlimit="10" points="1216.607,1367.033 1216.607,1367.033 
			1216.607,1367.033 		"/>
		<path fill="#FEDD4D" stroke="#97CA4A" stroke-width="3" stroke-miterlimit="10" d="M1230.32,1370.566
			c-1.66-1.353-3.558-1.923-5.518-2.156c-0.325-0.039-0.655-0.066-0.984-0.091c-2.327-0.765-4.822-0.869-7.212-1.286h0.001
			c3.013-3.844,5.713-10.49,1.453-14.43c-0.325-0.026-0.853-0.132-1.262-0.162c-0.404-0.026-0.817-0.041-1.229-0.041
			c-0.22,0-0.439,0.004-0.655,0.011c-0.353,0.045-0.635,0.073-0.915,0.108c-0.363,0.048-0.722,0.105-1.077,0.174
			c-0.178,0.031-0.394,0.111-0.61,0.196c-2.041,1.783-0.795,4.899-1.314,7.289c-1.559-1.247-3.117-2.806-5.193-3.013
			c-1.61-0.209-2.987,0.469-4.054,1.546c-0.133,0.137-0.303,0.306-0.471,0.486c-1.189,0.98-2.228,2.226-2.021,3.89
			c0.206,1.038,0.831,1.972,1.663,2.389c1.974,1.244,4.259,1.453,6.337,1.974c-3.013,1.144-7.586,0.83-9.026,4.317
			c0.034,0.197,0.042,0.452,0.071,0.663c0.172,1.147,0.453,2.261,0.835,3.323c0.044,0.307,0.105,0.508,0.166,0.717
			c0.059,1.574,0.993,3.132,2.863,2.718c2.908-0.747,4.953-2.758,7.036-4.704c0.26-0.243,0.563-0.477,0.811-0.717
			c0.233-0.199,0.453-0.298,0.678-0.347c0.227-0.051,0.475-0.052,0.989-0.102c-0.316,0.134-0.546,0.249-0.727,0.361
			c-0.181,0.111-0.348,0.223-0.504,0.338c-0.31,0.234-0.597,0.494-0.801,0.804c-0.181,0.303-0.411,0.609-0.616,0.919
			c-1.834,2.786-3.568,5.866-2.088,9.073c0.348,0.298,0.694,0.591,0.86,0.674c0.292,0.144,0.588,0.283,0.89,0.411
			c0.284,0.122,0.564,0.237,0.795,0.324c1.09,0.549,2.234,0.236,3.17-0.388c1.452-1.142,1.972-2.805,2.284-4.466
			c0.155-1.092,0.155-2.157,0.104-3.208c-0.01-0.174,0.039-0.458,0.062-0.654c0.208-1.458,0.603-2.781,0.909-4.205
			c0.061-0.283,0.141-0.605,0.247-0.981c-0.055,0.41-0.086,0.771-0.101,1.095c-0.074,1.621-0.311,3.192-0.433,4.838
			c0.08,0.382,0.159,0.768,0.243,1.153c0.654,3.095,1.468,6.188,4.598,7.158c0.345-0.128,0.826-0.254,1.211-0.403
			c0.182-0.068,0.363-0.141,0.545-0.217c0.26-0.104,0.477-0.197,0.691-0.291c2.205-0.648,2.521-3.143,1.791-4.908
			c-1.385-3.204-4.141-5.323-6.945-7.205c-0.279-0.188-0.559-0.38-0.819-0.6c-0.338-0.193-0.546-0.403-0.755-0.609
			c0.834-0.104,1.352,0.624,1.936,1.08c0.351,0.141,0.693,0.43,1.043,0.664c3.845,2.585,7.935,6.563,11.759,3.886
			c0.196-0.38,0.381-0.771,0.536-1.13C1232.605,1374.619,1232.19,1372.124,1230.32,1370.566z"/>
	</g>
	<path fill="#F37E86" d="M1330.402,734.675c-0.377,2.194-0.894,4.346-1.57,6.45c-5.302,16.483-22.072,19.61-34.302,29.857
		c-23.544,19.727-39.017,46.593-59.115,69.434c-21.341,24.251-48.266,43.248-76.372,58.936
		c-57.353,32.01-122.255,48.746-187.936,48.746c-64.932,0-128.477-16.468-185.521-47.351
		c-25.459-13.783-50.945-31.281-71.813-51.482c-19.256-18.64-33.321-47.604-60.976-55.681c-53.637-15.666-29.5-41.714-40.139-88.336
		c-6.736-29.519-26.144-54.682-32.589-84.465c-7.098-32.801,12.129-59.5,29.614-85.109c8.17-11.967,17.989-24.316,22.751-38.191
		c6.152-17.929,0.466-35.843,4.419-53.911c2.929-13.385,14.943-31.555,22.632-42.779c22.364-32.644,59.918-49.616,92.644-69.67
		c28.37-17.385,42.61-50.651,70.626-67.995c24.843-15.38,59.462-15.042,87.759-17.833c33.267-3.28,62.543,18.356,94.311,24.135
		c21.057,3.831,42.422,3.313,63.712,2.767c51.54-1.321,89.83,3.415,124.776,45.104c31.045,37.036,57.901,77.253,87.453,115.439
		c24.682,31.894,54.5,61.895,58.058,104.241c2.985,35.535-10.38,69.561-16.468,104.032
		C1317.034,671.146,1335.267,706.388,1330.402,734.675z"/>
	<g>
		<path fill="#FEDD4D" stroke="#97CA4A" stroke-width="3" stroke-miterlimit="10" d="M1314.401,1417.606
			c4.662-0.333,9.276-0.851,13.505-3.186c0.952-0.763,1.143-2.1,0.745-3.2c-0.106-0.392-0.226-0.781-0.359-1.138
			c-1.663-4.354-4.243-8.251-7.511-11.454c-0.373-0.428-0.753-0.799-0.95-1.006c-2.413-1.89-5.847-0.936-7.753,1.16
			c-2.287,2.67-3.241,6.103-5.146,9.153c-1.909,3.052-4.194,5.722-6.673,8.39c4.385,0.191,8.77,0.383,12.95,1.226
			C1313.562,1417.562,1314.067,1417.627,1314.401,1417.606z"/>
		<polygon fill="#FEDD4D" stroke="#DAEBC7" stroke-width="3" stroke-miterlimit="10" points="1300.259,1416.326 1300.259,1416.326 
			1300.259,1416.326 		"/>
		<path fill="#FEDD4D" stroke="#97CA4A" stroke-width="3" stroke-miterlimit="10" d="M1325.425,1422.811
			c-3.048-2.482-6.527-3.53-10.126-3.958c-0.599-0.072-1.203-0.124-1.806-0.166c-4.274-1.405-8.85-1.597-13.237-2.36h0.003
			c5.528-7.056,10.486-19.256,2.663-26.486c-0.595-0.05-1.564-0.242-2.313-0.299c-0.746-0.048-1.499-0.076-2.26-0.076
			c-0.4,0-0.802,0.008-1.201,0.021c-0.646,0.083-1.166,0.134-1.677,0.198c-0.666,0.089-1.328,0.193-1.981,0.317
			c-0.324,0.061-0.719,0.205-1.119,0.36c-3.746,3.274-1.456,8.994-2.411,13.382c-2.858-2.291-5.719-5.151-9.532-5.531
			c-2.956-0.383-5.484,0.859-7.44,2.838c-0.243,0.25-0.556,0.562-0.865,0.892c-2.183,1.802-4.089,4.086-3.706,7.14
			c0.38,1.906,1.523,3.621,3.048,4.384c3.623,2.288,7.819,2.67,11.634,3.624c-5.532,2.1-13.92,1.521-16.566,7.923
			c0.062,0.366,0.076,0.831,0.133,1.221c0.312,2.106,0.829,4.146,1.528,6.096c0.083,0.564,0.194,0.935,0.306,1.317
			c0.108,2.892,1.823,5.752,5.256,4.992c5.338-1.375,9.09-5.064,12.918-8.637c0.479-0.448,1.033-0.876,1.486-1.316
			c0.424-0.364,0.827-0.548,1.244-0.635c0.415-0.093,0.871-0.097,1.812-0.188c-0.577,0.246-0.997,0.458-1.332,0.664
			c-0.332,0.203-0.635,0.41-0.923,0.62c-0.57,0.432-1.095,0.905-1.473,1.477c-0.332,0.555-0.753,1.116-1.129,1.687
			c-3.367,5.111-6.551,10.766-3.835,16.652c0.644,0.545,1.275,1.084,1.581,1.236c0.539,0.263,1.081,0.52,1.635,0.757
			c0.522,0.222,1.033,0.433,1.46,0.594c1.999,1.006,4.099,0.433,5.815-0.711c2.668-2.097,3.619-5.147,4.194-8.2
			c0.284-2.001,0.284-3.955,0.188-5.887c-0.015-0.318,0.074-0.839,0.117-1.2c0.38-2.676,1.104-5.104,1.668-7.719
			c0.109-0.522,0.257-1.111,0.451-1.802c-0.099,0.752-0.154,1.412-0.183,2.01c-0.136,2.975-0.571,5.858-0.796,8.879
			c0.149,0.7,0.295,1.408,0.446,2.118c1.205,5.682,2.694,11.358,8.439,13.14c0.634-0.236,1.515-0.469,2.225-0.739
			c0.336-0.13,0.668-0.261,0.998-0.399c0.477-0.191,0.877-0.361,1.272-0.535c4.049-1.188,4.621-5.767,3.286-9.011
			c-2.544-5.879-7.602-9.771-12.749-13.224c-0.512-0.344-1.023-0.697-1.507-1.1c-0.618-0.354-0.998-0.739-1.38-1.118
			c1.523-0.19,2.477,1.146,3.551,1.981c0.643,0.257,1.271,0.789,1.912,1.219c7.059,4.746,14.566,12.049,21.585,7.132
			c0.355-0.695,0.698-1.415,0.983-2.071C1329.623,1430.248,1328.858,1425.67,1325.425,1422.811z"/>
	</g>
	<g>
		<g>
			<path fill="#FEF5F9" stroke="#EF4A6C" stroke-width="2" stroke-miterlimit="10" d="M937.808,1417.607
				c0,68.976-23.013,66.806-51.401,66.806c-28.387,0-51.4,2.17-51.4-66.806c0-68.979,23.013-124.896,51.4-124.896
				C914.794,1292.712,937.808,1348.628,937.808,1417.607z"/>
			<path fill="#FEF5F9" stroke="#EF4A6C" stroke-width="2" stroke-miterlimit="10" d="M1100.911,1417.607
				c0,68.976-23.013,66.806-51.402,66.806c-28.387,0-51.4,2.17-51.4-66.806c0-68.979,23.014-124.896,51.4-124.896
				C1077.898,1292.712,1100.911,1348.628,1100.911,1417.607z"/>
			<path fill="#FEF5F9" stroke="#EF4A6C" stroke-width="2" stroke-miterlimit="10" d="M597.193,804.956
				c-13.529,27.109-2.662,76.409,69.656,112.497c72.319,36.088,143.847,43.368,157.377,16.255
				c13.53-27.112-36.064-78.344-108.382-114.434C643.527,783.185,610.724,777.842,597.193,804.956z"/>
			<path fill="#FEF5F9" stroke="#EF4A6C" stroke-width="2" stroke-miterlimit="10" d="M1089.601,939.582
				c13.773,26.988,83.297,19.088,155.29-17.651c71.99-36.734,95.949-103.884,82.178-130.874
				c-13.772-26.988-60.061-3.595-132.051,33.142C1123.024,860.931,1075.829,912.594,1089.601,939.582z"/>
			<path fill="#FEF5F9" stroke="#EF4A6C" stroke-width="2" stroke-miterlimit="10" d="M1196.219,1148.157
				c0,147.198-103.793,210.859-231.83,210.859c-128.035,0-231.829-63.661-231.829-210.859s103.794-324.045,231.829-324.045
				C1092.426,824.112,1196.219,1000.959,1196.219,1148.157z"/>
			
				<ellipse transform="matrix(0.9452 -0.3266 0.3266 0.9452 -58.0247 276.5822)" fill="#FEF5F9" stroke="#EF4A6C" stroke-width="2" stroke-miterlimit="10" cx="794.635" cy="311.085" rx="69.83" ry="235.506"/>
			
				<ellipse transform="matrix(0.9451 0.3267 -0.3267 0.9451 162.5551 -345.6899)" fill="#FEF5F9" stroke="#EF4A6C" stroke-width="2" stroke-miterlimit="10" cx="1110.404" cy="311.085" rx="69.831" ry="235.506"/>
			
				<ellipse transform="matrix(0.9452 -0.3266 0.3266 0.9452 -67.9274 282.1489)" fill="#EC707C" stroke="#FFFFFF" stroke-miterlimit="10" cx="806.253" cy="343.357" rx="32.162" ry="143.32"/>
			
				<ellipse transform="matrix(-0.9452 -0.3266 0.3266 -0.9452 2008.0823 1049.6951)" fill="#EC707C" stroke="#FFFFFF" stroke-miterlimit="10" cx="1092.165" cy="356.265" rx="32.162" ry="143.32"/>
			<path fill="#FEF5F9" stroke="#EF4A6C" stroke-width="2" stroke-miterlimit="10" d="M1238.123,706.519
				c0,153.607-124.525,239.404-278.134,239.404c-153.609,0-278.134-85.797-278.134-239.404
				c0-153.608,124.525-278.133,278.134-278.133C1113.598,428.386,1238.123,552.911,1238.123,706.519z"/>
			<circle fill="#B53225" stroke="#FFFFFF" stroke-miterlimit="10" cx="914.317" cy="680.819" r="18.327"/>
			<circle fill="#B53225" stroke="#FFFFFF" stroke-miterlimit="10" cx="1024.005" cy="680.819" r="18.327"/>
			<circle fill="#FFFFFF" cx="914.316" cy="674.364" r="8.468"/>
			<circle fill="#FFFFFF" cx="1024.004" cy="674.364" r="8.468"/>
			<ellipse fill="#E26168" cx="967.735" cy="711.801" rx="12.5" ry="11.618"/>
			<path fill="none" stroke="#E2545B" stroke-width="2" stroke-miterlimit="10" d="M967.734,723.419
				c0,11.237-10.864,20.333-24.292,20.333"/>
			<path fill="none" stroke="#E2545B" stroke-width="2" stroke-miterlimit="10" d="M967.734,723.419
				c0,11.237,10.865,20.333,24.293,20.333"/>
			
				<ellipse transform="matrix(0.9403 -0.3404 0.3404 0.9403 -166.353 347.6253)" fill="#F48284" cx="907.517" cy="647.9" rx="15.268" ry="6.778"/>
			
				<ellipse transform="matrix(0.9755 0.2199 -0.2199 0.9755 167.5348 -209.3157)" fill="#F48284" cx="1024.004" cy="647.901" rx="15.268" ry="6.777"/>
			<circle fill="#F58A85" cx="630.905" cy="833.794" r="19.364"/>
			<circle fill="#F58A85" cx="600.569" cy="824.112" r="5.809"/>
			<circle fill="#F58A85" cx="611.542" cy="807.329" r="5.809"/>
			<circle fill="#F58A85" cx="628.46" cy="801.52" r="5.809"/>
			<circle fill="#FCE0E7" cx="1293.925" cy="795.711" r="5.808"/>
			<circle fill="#F58A85" cx="1307.478" cy="795.711" r="5.809"/>
			<path fill="#F58A85" d="M1326.842,804.748c0,3.208-2.598,5.809-5.809,5.809c-3.207,0-5.809-2.602-5.809-5.809
				c0-3.209,2.602-5.809,5.809-5.809C1324.244,798.938,1326.842,801.538,1326.842,804.748z"/>
			<path fill="#F58A85" d="M1321.033,824.112c0,10.692-8.669,19.365-19.364,19.365c-10.691,0-19.361-8.673-19.361-19.365
				c0-10.696,8.67-19.364,19.361-19.364C1312.364,804.748,1321.033,813.416,1321.033,824.112z"/>
			<circle fill="#FBCDCC" cx="844.688" cy="733.586" r="54.257"/>
			<circle fill="#FBCDCC" cx="1087.212" cy="733.586" r="54.256"/>
		</g>
		<circle fill="#FFFFFF" cx="962.981" cy="1170.588" r="148.126"/>
	</g>
	<path fill="none" stroke="#FAC6C9" stroke-width="16" stroke-miterlimit="10" d="M1354.748,957.049
		c0-99.58-17.439-180.158-38.992-180.158h1.43c-21.553,0-38.992,80.578-38.992,180.158"/>
	<path fill="#F37E86" d="M1326.98,1234.01c0,6.81-22.03,36.459-22.03,36.489c-1.31-2.94-77.75,3.899-88.729,3.511
		c-39.87-1.381-75.03,38.109-114.94,37.409c-40.22-0.7-105.86-29.86-170.07-30.6c-60.79-0.69-115.18,11.68-139.069,8.34
		c-40.21-5.63-58.011-51.39-98.681-51.99c-26.54-0.399-75.109-12.34-100.439-19.5c12.7-48.979,84.739-56.659,107.34-102.35
		c23.68-47.88,48.45-95.32,71.39-143.5c0.891-1.851,20.101-47.011,28.28-62.5c43.9,22.72,99.49,36.29,159.97,36.29
		c62.851,0,120.42-14.66,165.08-39c43.561,88,103.96,209.99,146.65,295.949C1282.87,1224.999,1326.98,1209.419,1326.98,1234.01z"/>
	<path fill="#FAC6CA" stroke="#D65464" stroke-width="3" stroke-miterlimit="10" d="M1451,1124c0,13.255-10.745,24-24,24h-232.139
		c-13.255,0-24-10.745-24-24l-10-146.077c0-13.255,10.745-24,24-24l127.139-20l125,20c13.255,0,24,10.745,24,24L1451,1124z"/>
	<path fill="#F48789" stroke="#AF485A" stroke-width="2" stroke-miterlimit="10" d="M1469.499,971.58
		c0,10.529-7.853,19.063-17.54,19.063l-142.434-45.907l-142.433,45.907c-9.688,0-17.54-8.534-17.54-19.063l0,0
		c0-10.529,7.853-19.064,17.54-19.064l141.546-45.907l143.32,45.907C1461.646,952.516,1469.499,961.051,1469.499,971.58
		L1469.499,971.58z"/>
</g>
</svg>
