<svg xmlns="http://www.w3.org/2000/svg" xmlns:xlink="http://www.w3.org/1999/xlink" viewBox="0 0 2096.48 1199.41"><defs><style>.cls-1{fill:none;}.cls-2{clip-path:url(#clip-path);}</style><clipPath id="clip-path" transform="translate(88.24 -66.44)"><rect class="cls-1" width="1920" height="965"/></clipPath></defs><title>black-line_1</title><g id="Layer_2" data-name="Layer 2"><g id="Layer_1-2" data-name="Layer 1"><g class="cls-2"><path d="M1739.72,965h-62.66a31.33,31.33,0,0,0,31.33-31.33A31.33,31.33,0,0,0,1739.72,965Z" transform="translate(88.24 -66.44)"/><path d="M1440.36,965H1377.7A31.33,31.33,0,0,0,1409,933.67,31.33,31.33,0,0,0,1440.36,965Z" transform="translate(88.24 -66.44)"/><path d="M1141,965h-62.66a31.33,31.33,0,0,0,31.33-31.33A31.33,31.33,0,0,0,1141,965Z" transform="translate(88.24 -66.44)"/><path d="M841.65,965H779a31.33,31.33,0,0,0,31.33-31.33A31.33,31.33,0,0,0,841.65,965Z" transform="translate(88.24 -66.44)"/><path d="M542.3,965H479.64A31.33,31.33,0,0,0,511,933.67,31.33,31.33,0,0,0,542.3,965Z" transform="translate(88.24 -66.44)"/><path d="M242.94,965H180.28a31.33,31.33,0,0,0,31.33-31.33A31.33,31.33,0,0,0,242.94,965Z" transform="translate(88.24 -66.44)"/><path d="M180.28,366.79H-56.41A31.87,31.87,0,0,1-88.24,335V98.27A31.87,31.87,0,0,1-56.41,66.44H180.28a31.87,31.87,0,0,1,31.83,31.83V335A31.87,31.87,0,0,1,180.28,366.79ZM-56.41,67.44A30.86,30.86,0,0,0-87.24,98.27V335a30.86,30.86,0,0,0,30.83,30.83H180.28A30.86,30.86,0,0,0,211.11,335V98.27a30.86,30.86,0,0,0-30.83-30.83Z" transform="translate(88.24 -66.44)"/><path d="M479.64,366.79H242.94A31.87,31.87,0,0,1,211.11,335V98.27a31.87,31.87,0,0,1,31.83-31.83h236.7a31.87,31.87,0,0,1,31.83,31.83V335A31.87,31.87,0,0,1,479.64,366.79ZM242.94,67.44a30.86,30.86,0,0,0-30.83,30.83V335a30.86,30.86,0,0,0,30.83,30.83h236.7A30.86,30.86,0,0,0,510.47,335V98.27a30.86,30.86,0,0,0-30.83-30.83Z" transform="translate(88.24 -66.44)"/><path d="M180.28,965.5H-56.41a31.87,31.87,0,0,1-31.83-31.83V697a31.87,31.87,0,0,1,31.83-31.83H180.28A31.87,31.87,0,0,1,212.11,697V933.67A31.87,31.87,0,0,1,180.28,965.5ZM-56.41,666.15A30.86,30.86,0,0,0-87.24,697V933.67A30.86,30.86,0,0,0-56.41,964.5H180.28a30.86,30.86,0,0,0,30.83-30.83V697a30.86,30.86,0,0,0-30.83-30.83Z" transform="translate(88.24 -66.44)"/><path d="M242.94,665.65A31.33,31.33,0,0,0,211.61,697a31.32,31.32,0,0,0-31.33-31.33,31.33,31.33,0,0,0,31.33-31.34A31.34,31.34,0,0,0,242.94,665.65Z" transform="translate(88.24 -66.44)"/><path d="M479.64,965.5H242.94a31.87,31.87,0,0,1-31.83-31.83V697a31.87,31.87,0,0,1,31.83-31.83h236.7A31.87,31.87,0,0,1,511.47,697V933.67A31.87,31.87,0,0,1,479.64,965.5ZM242.94,666.15A30.86,30.86,0,0,0,212.11,697V933.67a30.86,30.86,0,0,0,30.83,30.83h236.7a30.86,30.86,0,0,0,30.83-30.83V697a30.86,30.86,0,0,0-30.83-30.83Z" transform="translate(88.24 -66.44)"/><path d="M779,366.79H542.3A31.87,31.87,0,0,1,510.47,335V98.27A31.87,31.87,0,0,1,542.3,66.44H779a31.87,31.87,0,0,1,31.83,31.83V335A31.87,31.87,0,0,1,779,366.79ZM542.3,67.44a30.86,30.86,0,0,0-30.83,30.83V335a30.86,30.86,0,0,0,30.83,30.83H779A30.86,30.86,0,0,0,809.82,335V98.27A30.86,30.86,0,0,0,779,67.44Z" transform="translate(88.24 -66.44)"/><path d="M1078.35,366.79H841.65A31.87,31.87,0,0,1,809.82,335V98.27a31.87,31.87,0,0,1,31.83-31.83h236.7a31.87,31.87,0,0,1,31.83,31.83V335A31.87,31.87,0,0,1,1078.35,366.79ZM841.65,67.44a30.86,30.86,0,0,0-30.83,30.83V335a30.86,30.86,0,0,0,30.83,30.83h236.7A30.86,30.86,0,0,0,1109.18,335V98.27a30.86,30.86,0,0,0-30.83-30.83Z" transform="translate(88.24 -66.44)"/><path d="M542.3,665.65A31.32,31.32,0,0,0,511,697a31.33,31.33,0,0,0-31.33-31.33A31.34,31.34,0,0,0,511,634.31,31.33,31.33,0,0,0,542.3,665.65Z" transform="translate(88.24 -66.44)"/><path d="M779,965.5H542.3a31.87,31.87,0,0,1-31.83-31.83V697a31.87,31.87,0,0,1,31.83-31.83H779A31.87,31.87,0,0,1,810.82,697V933.67A31.87,31.87,0,0,1,779,965.5ZM542.3,666.15A30.86,30.86,0,0,0,511.47,697V933.67A30.86,30.86,0,0,0,542.3,964.5H779a30.86,30.86,0,0,0,30.83-30.83V697A30.86,30.86,0,0,0,779,666.15Z" transform="translate(88.24 -66.44)"/><path d="M841.65,665.65A31.33,31.33,0,0,0,810.32,697,31.32,31.32,0,0,0,779,665.65a31.33,31.33,0,0,0,31.33-31.34A31.34,31.34,0,0,0,841.65,665.65Z" transform="translate(88.24 -66.44)"/><path d="M1078.35,965.5H841.65a31.87,31.87,0,0,1-31.83-31.83V697a31.87,31.87,0,0,1,31.83-31.83h236.7A31.87,31.87,0,0,1,1110.18,697V933.67A31.87,31.87,0,0,1,1078.35,965.5ZM841.65,666.15A30.86,30.86,0,0,0,810.82,697V933.67a30.86,30.86,0,0,0,30.83,30.83h236.7a30.86,30.86,0,0,0,30.83-30.83V697a30.86,30.86,0,0,0-30.83-30.83Z" transform="translate(88.24 -66.44)"/><path d="M1377.7,366.79H1141A31.87,31.87,0,0,1,1109.18,335V98.27A31.87,31.87,0,0,1,1141,66.44H1377.7a31.87,31.87,0,0,1,31.83,31.83V335A31.87,31.87,0,0,1,1377.7,366.79ZM1141,67.44a30.86,30.86,0,0,0-30.83,30.83V335A30.86,30.86,0,0,0,1141,365.79H1377.7A30.86,30.86,0,0,0,1408.53,335V98.27a30.86,30.86,0,0,0-30.83-30.83Z" transform="translate(88.24 -66.44)"/><path d="M1677.06,366.79h-236.7A31.87,31.87,0,0,1,1408.53,335V98.27a31.87,31.87,0,0,1,31.83-31.83h236.7a31.87,31.87,0,0,1,31.83,31.83V335A31.87,31.87,0,0,1,1677.06,366.79ZM1440.36,67.44a30.86,30.86,0,0,0-30.83,30.83V335a30.86,30.86,0,0,0,30.83,30.83h236.7A30.86,30.86,0,0,0,1707.89,335V98.27a30.86,30.86,0,0,0-30.83-30.83Z" transform="translate(88.24 -66.44)"/><path d="M1141,665.65A31.32,31.32,0,0,0,1109.68,697a31.33,31.33,0,0,0-31.33-31.33,31.34,31.34,0,0,0,31.33-31.34A31.33,31.33,0,0,0,1141,665.65Z" transform="translate(88.24 -66.44)"/><path d="M1377.7,965.5H1141a31.87,31.87,0,0,1-31.83-31.83V697A31.87,31.87,0,0,1,1141,665.15H1377.7A31.87,31.87,0,0,1,1409.53,697V933.67A31.87,31.87,0,0,1,1377.7,965.5ZM1141,666.15A30.86,30.86,0,0,0,1110.18,697V933.67A30.86,30.86,0,0,0,1141,964.5H1377.7a30.86,30.86,0,0,0,30.83-30.83V697a30.86,30.86,0,0,0-30.83-30.83Z" transform="translate(88.24 -66.44)"/><path d="M1440.36,665.65A31.33,31.33,0,0,0,1409,697a31.32,31.32,0,0,0-31.33-31.33A31.33,31.33,0,0,0,1409,634.31,31.34,31.34,0,0,0,1440.36,665.65Z" transform="translate(88.24 -66.44)"/><path d="M1677.06,965.5h-236.7a31.87,31.87,0,0,1-31.83-31.83V697a31.87,31.87,0,0,1,31.83-31.83h236.7A31.87,31.87,0,0,1,1708.89,697V933.67A31.87,31.87,0,0,1,1677.06,965.5Zm-236.7-299.35A30.86,30.86,0,0,0,1409.53,697V933.67a30.86,30.86,0,0,0,30.83,30.83h236.7a30.86,30.86,0,0,0,30.83-30.83V697a30.86,30.86,0,0,0-30.83-30.83Z" transform="translate(88.24 -66.44)"/><path d="M1976.41,366.79H1739.72A31.87,31.87,0,0,1,1707.89,335V98.27a31.87,31.87,0,0,1,31.83-31.83h236.69a31.87,31.87,0,0,1,31.83,31.83V335A31.87,31.87,0,0,1,1976.41,366.79ZM1739.72,67.44a30.86,30.86,0,0,0-30.83,30.83V335a30.86,30.86,0,0,0,30.83,30.83h236.69A30.86,30.86,0,0,0,2007.24,335V98.27a30.86,30.86,0,0,0-30.83-30.83Z" transform="translate(88.24 -66.44)"/><path d="M1739.72,665.65A31.32,31.32,0,0,0,1708.39,697a31.33,31.33,0,0,0-31.33-31.33,31.34,31.34,0,0,0,31.33-31.34A31.33,31.33,0,0,0,1739.72,665.65Z" transform="translate(88.24 -66.44)"/><path d="M1976.41,965.5H1739.72a31.87,31.87,0,0,1-31.83-31.83V697a31.87,31.87,0,0,1,31.83-31.83h236.69A31.87,31.87,0,0,1,2008.24,697V933.67A31.87,31.87,0,0,1,1976.41,965.5ZM1739.72,666.15A30.86,30.86,0,0,0,1708.89,697V933.67a30.86,30.86,0,0,0,30.83,30.83h236.69a30.86,30.86,0,0,0,30.83-30.83V697a30.86,30.86,0,0,0-30.83-30.83Z" transform="translate(88.24 -66.44)"/><path d="M180.28,666.15H-56.41a31.87,31.87,0,0,1-31.83-31.83V397.63A31.87,31.87,0,0,1-56.41,365.8H180.28a31.87,31.87,0,0,1,31.83,31.83V634.32A31.87,31.87,0,0,1,180.28,666.15ZM-56.41,366.8a30.86,30.86,0,0,0-30.83,30.83V634.32a30.86,30.86,0,0,0,30.83,30.83H180.28a30.86,30.86,0,0,0,30.83-30.83V397.63a30.86,30.86,0,0,0-30.83-30.83Z" transform="translate(88.24 -66.44)"/><path d="M242.94,366.3a31.33,31.33,0,0,0-31.33,31.33,31.32,31.32,0,0,0-31.33-31.33A31.33,31.33,0,0,0,211.61,335,31.34,31.34,0,0,0,242.94,366.3Z" transform="translate(88.24 -66.44)"/><path d="M479.64,666.15H242.94a31.87,31.87,0,0,1-31.83-31.83V397.63a31.87,31.87,0,0,1,31.83-31.83h236.7a31.87,31.87,0,0,1,31.83,31.83V634.32A31.87,31.87,0,0,1,479.64,666.15ZM242.94,366.8a30.86,30.86,0,0,0-30.83,30.83V634.32a30.86,30.86,0,0,0,30.83,30.83h236.7a30.86,30.86,0,0,0,30.83-30.83V397.63a30.86,30.86,0,0,0-30.83-30.83Z" transform="translate(88.24 -66.44)"/><path d="M542.3,366.3A31.32,31.32,0,0,0,511,397.63a31.33,31.33,0,0,0-31.33-31.33A31.34,31.34,0,0,0,511,335,31.33,31.33,0,0,0,542.3,366.3Z" transform="translate(88.24 -66.44)"/><path d="M779,666.15H542.3a31.87,31.87,0,0,1-31.83-31.83V397.63A31.87,31.87,0,0,1,542.3,365.8H779a31.87,31.87,0,0,1,31.83,31.83V634.32A31.87,31.87,0,0,1,779,666.15ZM542.3,366.8a30.86,30.86,0,0,0-30.83,30.83V634.32a30.86,30.86,0,0,0,30.83,30.83H779a30.86,30.86,0,0,0,30.83-30.83V397.63A30.86,30.86,0,0,0,779,366.8Z" transform="translate(88.24 -66.44)"/><path d="M841.65,366.3a31.33,31.33,0,0,0-31.33,31.33A31.32,31.32,0,0,0,779,366.3,31.33,31.33,0,0,0,810.32,335,31.34,31.34,0,0,0,841.65,366.3Z" transform="translate(88.24 -66.44)"/><path d="M1078.35,666.15H841.65a31.87,31.87,0,0,1-31.83-31.83V397.63a31.87,31.87,0,0,1,31.83-31.83h236.7a31.87,31.87,0,0,1,31.83,31.83V634.32A31.87,31.87,0,0,1,1078.35,666.15ZM841.65,366.8a30.86,30.86,0,0,0-30.83,30.83V634.32a30.86,30.86,0,0,0,30.83,30.83h236.7a30.86,30.86,0,0,0,30.83-30.83V397.63a30.86,30.86,0,0,0-30.83-30.83Z" transform="translate(88.24 -66.44)"/><path d="M1141,366.3a31.32,31.32,0,0,0-31.33,31.33,31.33,31.33,0,0,0-31.33-31.33A31.34,31.34,0,0,0,1109.68,335,31.33,31.33,0,0,0,1141,366.3Z" transform="translate(88.24 -66.44)"/><path d="M1377.7,666.15H1141a31.87,31.87,0,0,1-31.83-31.83V397.63A31.87,31.87,0,0,1,1141,365.8H1377.7a31.87,31.87,0,0,1,31.83,31.83V634.32A31.87,31.87,0,0,1,1377.7,666.15ZM1141,366.8a30.86,30.86,0,0,0-30.83,30.83V634.32A30.86,30.86,0,0,0,1141,665.15H1377.7a30.86,30.86,0,0,0,30.83-30.83V397.63a30.86,30.86,0,0,0-30.83-30.83Z" transform="translate(88.24 -66.44)"/><path d="M1440.36,366.3A31.33,31.33,0,0,0,1409,397.63a31.32,31.32,0,0,0-31.33-31.33A31.33,31.33,0,0,0,1409,335,31.34,31.34,0,0,0,1440.36,366.3Z" transform="translate(88.24 -66.44)"/><path d="M1677.06,666.15h-236.7a31.87,31.87,0,0,1-31.83-31.83V397.63a31.87,31.87,0,0,1,31.83-31.83h236.7a31.87,31.87,0,0,1,31.83,31.83V634.32A31.87,31.87,0,0,1,1677.06,666.15ZM1440.36,366.8a30.86,30.86,0,0,0-30.83,30.83V634.32a30.86,30.86,0,0,0,30.83,30.83h236.7a30.86,30.86,0,0,0,30.83-30.83V397.63a30.86,30.86,0,0,0-30.83-30.83Z" transform="translate(88.24 -66.44)"/><path d="M1739.72,366.3a31.32,31.32,0,0,0-31.33,31.33,31.33,31.33,0,0,0-31.33-31.33A31.34,31.34,0,0,0,1708.39,335,31.33,31.33,0,0,0,1739.72,366.3Z" transform="translate(88.24 -66.44)"/><path d="M1976.41,666.15H1739.72a31.87,31.87,0,0,1-31.83-31.83V397.63a31.87,31.87,0,0,1,31.83-31.83h236.69a31.87,31.87,0,0,1,31.83,31.83V634.32A31.87,31.87,0,0,1,1976.41,666.15ZM1739.72,366.8a30.86,30.86,0,0,0-30.83,30.83V634.32a30.86,30.86,0,0,0,30.83,30.83h236.69a30.86,30.86,0,0,0,30.83-30.83V397.63a30.86,30.86,0,0,0-30.83-30.83Z" transform="translate(88.24 -66.44)"/><path d="M542.3,66.94A31.32,31.32,0,0,0,511,98.27a31.33,31.33,0,0,0-31.33-31.33Z" transform="translate(88.24 -66.44)"/><path d="M511.47,98.27h-1a30.86,30.86,0,0,0-30.83-30.83v-1H542.3v1A30.86,30.86,0,0,0,511.47,98.27Zm-23.9-30.83A31.94,31.94,0,0,1,511,92.63a31.92,31.92,0,0,1,23.4-25.19Z" transform="translate(88.24 -66.44)"/><path d="M841.65,66.94a31.33,31.33,0,0,0-31.33,31.33A31.32,31.32,0,0,0,779,66.94Z" transform="translate(88.24 -66.44)"/><path d="M810.82,98.27h-1A30.86,30.86,0,0,0,779,67.44v-1h62.66v1A30.86,30.86,0,0,0,810.82,98.27Zm-23.9-30.83a31.92,31.92,0,0,1,23.4,25.19,31.94,31.94,0,0,1,23.4-25.19Z" transform="translate(88.24 -66.44)"/><rect x="630.54" width="236.69" height="1"/><path d="M1141,66.94a31.32,31.32,0,0,0-31.33,31.33,31.33,31.33,0,0,0-31.33-31.33Z" transform="translate(88.24 -66.44)"/><path d="M1110.18,98.27h-1a30.86,30.86,0,0,0-30.83-30.83v-1H1141v1A30.86,30.86,0,0,0,1110.18,98.27Zm-23.9-30.83a31.94,31.94,0,0,1,23.4,25.19,31.92,31.92,0,0,1,23.4-25.19Z" transform="translate(88.24 -66.44)"/><path d="M1739.72,66.94a31.32,31.32,0,0,0-31.33,31.33,31.33,31.33,0,0,0-31.33-31.33Z" transform="translate(88.24 -66.44)"/><path d="M1708.89,98.27h-1a30.86,30.86,0,0,0-30.83-30.83v-1h62.66v1A30.86,30.86,0,0,0,1708.89,98.27ZM1685,67.44a31.94,31.94,0,0,1,23.4,25.19,31.92,31.92,0,0,1,23.4-25.19Z" transform="translate(88.24 -66.44)"/><path d="M1440.36,66.94A31.33,31.33,0,0,0,1409,98.27a31.32,31.32,0,0,0-31.33-31.33Z" transform="translate(88.24 -66.44)"/><path d="M1409.53,98.27h-1a30.86,30.86,0,0,0-30.83-30.83v-1h62.66v1A30.86,30.86,0,0,0,1409.53,98.27Zm-23.9-30.83A31.92,31.92,0,0,1,1409,92.63a31.94,31.94,0,0,1,23.4-25.19Z" transform="translate(88.24 -66.44)"/><rect x="1528.6" width="236.7" height="1"/><rect x="1229.25" width="236.69" height="1"/><rect x="1827.96" width="180.28" height="1"/><rect x="929.89" width="236.7" height="1"/><path d="M242.94,66.94a31.33,31.33,0,0,0-31.33,31.33,31.32,31.32,0,0,0-31.33-31.33Z" transform="translate(88.24 -66.44)"/><path d="M212.11,98.27h-1a30.86,30.86,0,0,0-30.83-30.83v-1h62.66v1A30.86,30.86,0,0,0,212.11,98.27Zm-23.9-30.83a31.92,31.92,0,0,1,23.4,25.19A31.94,31.94,0,0,1,235,67.44Z" transform="translate(88.24 -66.44)"/><rect x="88.24" width="180.28" height="1"/><rect x="331.18" width="236.7" height="1"/><path d="M180.28,1265.85H-56.41A31.87,31.87,0,0,1-88.24,1234V997.33A31.87,31.87,0,0,1-56.41,965.5H180.28a31.87,31.87,0,0,1,31.83,31.83V1234A31.87,31.87,0,0,1,180.28,1265.85ZM-56.41,966.5a30.86,30.86,0,0,0-30.83,30.83V1234a30.86,30.86,0,0,0,30.83,30.83H180.28A30.86,30.86,0,0,0,211.11,1234V997.33a30.86,30.86,0,0,0-30.83-30.83Z" transform="translate(88.24 -66.44)"/><path d="M479.64,1265.85H242.94A31.87,31.87,0,0,1,211.11,1234V997.33a31.87,31.87,0,0,1,31.83-31.83h236.7a31.87,31.87,0,0,1,31.83,31.83V1234A31.87,31.87,0,0,1,479.64,1265.85ZM242.94,966.5a30.86,30.86,0,0,0-30.83,30.83V1234a30.86,30.86,0,0,0,30.83,30.83h236.7A30.86,30.86,0,0,0,510.47,1234V997.33a30.86,30.86,0,0,0-30.83-30.83Z" transform="translate(88.24 -66.44)"/><path d="M779,1265.85H542.3A31.87,31.87,0,0,1,510.47,1234V997.33A31.87,31.87,0,0,1,542.3,965.5H779a31.87,31.87,0,0,1,31.83,31.83V1234A31.87,31.87,0,0,1,779,1265.85ZM542.3,966.5a30.86,30.86,0,0,0-30.83,30.83V1234a30.86,30.86,0,0,0,30.83,30.83H779A30.86,30.86,0,0,0,809.82,1234V997.33A30.86,30.86,0,0,0,779,966.5Z" transform="translate(88.24 -66.44)"/><path d="M1078.35,1265.85H841.65A31.87,31.87,0,0,1,809.82,1234V997.33a31.87,31.87,0,0,1,31.83-31.83h236.7a31.87,31.87,0,0,1,31.83,31.83V1234A31.87,31.87,0,0,1,1078.35,1265.85ZM841.65,966.5a30.86,30.86,0,0,0-30.83,30.83V1234a30.86,30.86,0,0,0,30.83,30.83h236.7a30.86,30.86,0,0,0,30.83-30.83V997.33a30.86,30.86,0,0,0-30.83-30.83Z" transform="translate(88.24 -66.44)"/><path d="M1377.7,1265.85H1141a31.87,31.87,0,0,1-31.83-31.83V997.33A31.87,31.87,0,0,1,1141,965.5H1377.7a31.87,31.87,0,0,1,31.83,31.83V1234A31.87,31.87,0,0,1,1377.7,1265.85ZM1141,966.5a30.86,30.86,0,0,0-30.83,30.83V1234a30.86,30.86,0,0,0,30.83,30.83H1377.7a30.86,30.86,0,0,0,30.83-30.83V997.33a30.86,30.86,0,0,0-30.83-30.83Z" transform="translate(88.24 -66.44)"/><path d="M1677.06,1265.85h-236.7a31.87,31.87,0,0,1-31.83-31.83V997.33a31.87,31.87,0,0,1,31.83-31.83h236.7a31.87,31.87,0,0,1,31.83,31.83V1234A31.87,31.87,0,0,1,1677.06,1265.85ZM1440.36,966.5a30.86,30.86,0,0,0-30.83,30.83V1234a30.86,30.86,0,0,0,30.83,30.83h236.7a30.86,30.86,0,0,0,30.83-30.83V997.33a30.86,30.86,0,0,0-30.83-30.83Z" transform="translate(88.24 -66.44)"/><path d="M1976.41,1265.85H1739.72a31.87,31.87,0,0,1-31.83-31.83V997.33a31.87,31.87,0,0,1,31.83-31.83h236.69a31.87,31.87,0,0,1,31.83,31.83V1234A31.87,31.87,0,0,1,1976.41,1265.85ZM1739.72,966.5a30.86,30.86,0,0,0-30.83,30.83V1234a30.86,30.86,0,0,0,30.83,30.83h236.69a30.86,30.86,0,0,0,30.83-30.83V997.33a30.86,30.86,0,0,0-30.83-30.83Z" transform="translate(88.24 -66.44)"/><path d="M542.3,966A31.32,31.32,0,0,0,511,997.33,31.33,31.33,0,0,0,479.64,966Z" transform="translate(88.24 -66.44)"/><path d="M511.47,997.33h-1a30.86,30.86,0,0,0-30.83-30.83v-1H542.3v1A30.86,30.86,0,0,0,511.47,997.33Zm-23.9-30.83A31.94,31.94,0,0,1,511,991.69a31.92,31.92,0,0,1,23.4-25.19Z" transform="translate(88.24 -66.44)"/><path d="M841.65,966a31.33,31.33,0,0,0-31.33,31.33A31.32,31.32,0,0,0,779,966Z" transform="translate(88.24 -66.44)"/><path d="M810.82,997.33h-1A30.86,30.86,0,0,0,779,966.5v-1h62.66v1A30.86,30.86,0,0,0,810.82,997.33Zm-23.9-30.83a31.92,31.92,0,0,1,23.4,25.19,31.94,31.94,0,0,1,23.4-25.19Z" transform="translate(88.24 -66.44)"/><rect x="630.54" y="899.06" width="236.69" height="1"/><path d="M1141,966a31.32,31.32,0,0,0-31.33,31.33A31.33,31.33,0,0,0,1078.35,966Z" transform="translate(88.24 -66.44)"/><path d="M1110.18,997.33h-1a30.86,30.86,0,0,0-30.83-30.83v-1H1141v1A30.86,30.86,0,0,0,1110.18,997.33Zm-23.9-30.83a31.94,31.94,0,0,1,23.4,25.19,31.92,31.92,0,0,1,23.4-25.19Z" transform="translate(88.24 -66.44)"/><path d="M1739.72,966a31.32,31.32,0,0,0-31.33,31.33A31.33,31.33,0,0,0,1677.06,966Z" transform="translate(88.24 -66.44)"/><path d="M1708.89,997.33h-1a30.86,30.86,0,0,0-30.83-30.83v-1h62.66v1A30.86,30.86,0,0,0,1708.89,997.33ZM1685,966.5a31.94,31.94,0,0,1,23.4,25.19,31.92,31.92,0,0,1,23.4-25.19Z" transform="translate(88.24 -66.44)"/><path d="M1440.36,966A31.33,31.33,0,0,0,1409,997.33,31.32,31.32,0,0,0,1377.7,966Z" transform="translate(88.24 -66.44)"/><path d="M1409.53,997.33h-1a30.86,30.86,0,0,0-30.83-30.83v-1h62.66v1A30.86,30.86,0,0,0,1409.53,997.33Zm-23.9-30.83a31.92,31.92,0,0,1,23.4,25.19,31.94,31.94,0,0,1,23.4-25.19Z" transform="translate(88.24 -66.44)"/><rect x="1528.6" y="899.06" width="236.7" height="1"/><rect x="1229.25" y="899.06" width="236.69" height="1"/><rect x="1827.96" y="899.06" width="180.28" height="1"/><rect x="929.89" y="899.06" width="236.7" height="1"/><path d="M242.94,966a31.33,31.33,0,0,0-31.33,31.33A31.32,31.32,0,0,0,180.28,966Z" transform="translate(88.24 -66.44)"/><path d="M212.11,997.33h-1a30.86,30.86,0,0,0-30.83-30.83v-1h62.66v1A30.86,30.86,0,0,0,212.11,997.33Zm-23.9-30.83a31.92,31.92,0,0,1,23.4,25.19A31.94,31.94,0,0,1,235,966.5Z" transform="translate(88.24 -66.44)"/><rect x="88.24" y="899.06" width="180.28" height="1"/><rect x="331.18" y="899.06" width="236.7" height="1"/><rect x="268.37" y="898.19" width="1757.16" height="1.75"/></g></g></g></svg>