<svg width="212" height="97" viewBox="0 0 212 97" fill="none" xmlns="http://www.w3.org/2000/svg">
<path d="M90.879 2.22023L114.135 27.5548L114.628 28.0878L115.438 27.8536L154.067 16.7087L143.436 38.0537L142.954 39.0228L144.344 39.1358L197.218 43.4L158.896 52.6794L156.356 53.2932L158.765 54.1654L205.485 71.3027L153.826 65.8756L151.1 65.593L152.721 67.1597L177.192 90.8387L130.351 72.2638L129.114 71.7712L128.775 72.7726L121.11 94.796L97.8866 69.4453L97.4486 68.9284L96.6384 69.1626L57.9546 80.2914L68.5754 58.9464L69.0571 57.9773L67.6666 57.8642L14.7925 53.5839L53.115 44.3045L55.6552 43.6907L53.2573 42.8185L6.56957 25.6973L58.2283 31.1244L60.8671 31.4071L59.2466 29.8403L34.7859 6.16135L81.6269 24.7363L82.8532 25.2289L83.2145 24.2436L90.879 2.22023ZM90.3973 0.281982L82.1196 24.0417L30.8441 3.67392L58.3816 30.3249L0 24.1952L52.8084 43.5777L9.63537 53.9958L67.5461 58.6718L56.0822 81.6966L96.9778 69.9056L121.592 96.7181L129.858 72.9664L181.145 93.3342L153.618 66.6832L212 72.813L159.192 53.4305L202.354 43.0043L144.454 38.3282L155.918 15.3034L115.022 27.1025L90.3973 0.281982Z" fill="white"/>
</svg>
