<svg width="179" height="39" viewBox="0 0 179 39" fill="none" xmlns="http://www.w3.org/2000/svg">
<g clip-path="url(#clip0_191_2410)">
<path d="M13.2699 39H0L20.9521 0H34.222L13.2699 39Z" fill="white"/>
<path d="M37.5006 39H24.2227L45.1827 0H58.4526L37.5006 39Z" fill="white"/>
<path d="M61.7211 39H48.4512L69.4033 0H82.6732L61.7211 39Z" fill="white"/>
<path d="M85.9437 39H72.6738L93.6259 0H106.904L85.9437 39Z" fill="white"/>
<path d="M110.182 39H96.9043L117.864 0H131.134L110.182 39Z" fill="white"/>
<path d="M134.405 39H121.135L142.087 0H155.357L134.405 39Z" fill="white"/>
<path d="M158.625 39H145.355L166.308 0H179.585L158.625 39Z" fill="white"/>
</g>
<defs>
<clipPath id="clip0_191_2410">
<rect width="179" height="39" fill="white"/>
</clipPath>
</defs>
</svg>
