<svg width="55" height="37" viewBox="0 0 55 37" fill="none" xmlns="http://www.w3.org/2000/svg">
<path fill-rule="evenodd" clip-rule="evenodd" d="M36.4825 18.581C36.4663 22.0386 35.412 25.4141 33.4528 28.2813C31.4935 31.1485 28.717 33.3789 25.4738 34.691C22.2306 36.0031 18.666 36.3382 15.23 35.6538C11.7939 34.9694 8.64038 33.2964 6.16741 30.8458C3.69444 28.3952 2.01287 25.2768 1.33495 21.8844C0.657018 18.492 1.01312 14.9775 2.3583 11.7845C3.70348 8.59148 5.97745 5.86312 8.89319 3.94375C11.8089 2.02438 15.2358 1.00004 18.7412 1C23.4557 1.01592 27.9714 2.87589 31.2974 6.17183C34.6234 9.46777 36.4882 13.9305 36.4825 18.581ZM1.44725 18.581C1.46307 21.9514 2.49078 25.2417 4.40065 28.0366C6.31053 30.8315 9.01697 33.0056 12.1784 34.2847C15.3398 35.5637 18.8145 35.8903 22.1639 35.2231C25.5133 34.556 28.5873 32.9252 30.9979 30.5364C33.4085 28.1475 35.0476 25.1079 35.7084 21.801C36.3693 18.4941 36.0221 15.0682 34.7109 11.9558C33.3996 8.84332 31.183 6.18378 28.3408 4.31282C25.4986 2.44186 22.1582 1.44335 18.7412 1.44331C14.1455 1.45892 9.74382 3.27201 6.5017 6.48483C3.25959 9.69765 1.44184 14.0478 1.44725 18.581ZM53.9992 18.581C53.983 22.0387 52.9287 25.4141 50.9694 28.2814C49.01 31.1486 46.2335 33.379 42.9903 34.6911C39.747 36.0032 36.1824 36.3382 32.7463 35.6537C29.3102 34.9693 26.1567 33.2962 23.6838 30.8455C21.2108 28.3948 19.5293 25.2764 18.8515 21.8839C18.1737 18.4914 18.5299 14.9769 19.8752 11.7839C21.2205 8.59095 23.4946 5.86265 26.4104 3.94337C29.3263 2.0241 32.7532 0.999884 36.2586 1C40.9732 1.01592 45.4888 2.87589 48.8148 6.17183C52.1409 9.46777 54.0056 13.9305 54 18.581L53.9992 18.581ZM18.9639 18.581C18.9796 21.9515 20.0073 25.2419 21.9172 28.0369C23.827 30.8319 26.5335 33.0061 29.6949 34.2853C32.8564 35.5644 36.3311 35.8911 39.6806 35.224C43.0301 34.557 46.1042 32.9261 48.5149 30.5373C50.9256 28.1485 52.5649 25.1088 53.2258 21.8018C53.8867 18.4949 53.5397 15.069 52.2284 11.9564C50.9172 8.84382 48.7006 6.18416 45.8584 4.3131C43.0162 2.44203 39.6757 1.44342 36.2586 1.44331C31.663 1.45892 27.2613 3.27201 24.0191 6.48483C20.777 9.69764 18.9593 14.0478 18.9647 18.581L18.9639 18.581Z" fill="white" stroke="white"/>
</svg>
