<svg xmlns="http://www.w3.org/2000/svg" viewBox="0 0 1920 899.06"><defs><style>.cls-1{fill:#fff;}</style></defs><title>Asset 15</title><g id="Layer_2" data-name="Layer 2"><g id="Layer_1-2" data-name="Layer 1"><path class="cls-1" d="M1708.92,30.49A30.89,30.89,0,0,1,1732,2a31.54,31.54,0,0,1,7.7-1H1920V0H0V1H180.28A31.54,31.54,0,0,1,188,2a30.89,30.89,0,0,1,23.1,28.52c0,.45,0,.89,0,1.34V268.52a30.86,30.86,0,0,1-30.83,30.83H0v1H180.28a30.86,30.86,0,0,1,30.83,30.83V567.88a30.86,30.86,0,0,1-30.83,30.83H0v1H180.28a30.86,30.86,0,0,1,30.83,30.83V867.23a30.86,30.86,0,0,1-30.83,30.83H0v1H1920v-1H1739.72a30.86,30.86,0,0,1-30.83-30.83V630.54a30.86,30.86,0,0,1,30.83-30.83H1920v-1H1739.72a30.86,30.86,0,0,1-30.83-30.83V331.19a30.86,30.86,0,0,1,30.83-30.83H1920v-1H1739.72a30.86,30.86,0,0,1-30.83-30.83V31.83C1708.89,31.38,1708.9,30.94,1708.92,30.49ZM510.47,867.23a30.86,30.86,0,0,1-30.83,30.83H242.94a30.86,30.86,0,0,1-30.83-30.83V630.54a30.86,30.86,0,0,1,30.83-30.83h236.7a30.86,30.86,0,0,1,30.83,30.83Zm0-299.35a30.86,30.86,0,0,1-30.83,30.83H242.94a30.86,30.86,0,0,1-30.83-30.83V331.19a30.86,30.86,0,0,1,30.83-30.83h236.7a30.86,30.86,0,0,1,30.83,30.83Zm0-299.36a30.86,30.86,0,0,1-30.83,30.83H242.94a30.86,30.86,0,0,1-30.83-30.83V31.83c0-.45,0-.89,0-1.34A30.89,30.89,0,0,1,235.24,2a31.54,31.54,0,0,1,7.7-1h236.7a31.54,31.54,0,0,1,7.7,1,30.89,30.89,0,0,1,23.1,28.52c0,.45,0,.89,0,1.34ZM809.82,867.23A30.86,30.86,0,0,1,779,898.06H542.3a30.86,30.86,0,0,1-30.83-30.83V630.54a30.86,30.86,0,0,1,30.83-30.83H779a30.86,30.86,0,0,1,30.83,30.83Zm0-299.35A30.86,30.86,0,0,1,779,598.71H542.3a30.86,30.86,0,0,1-30.83-30.83V331.19a30.86,30.86,0,0,1,30.83-30.83H779a30.86,30.86,0,0,1,30.83,30.83Zm0-299.36A30.86,30.86,0,0,1,779,299.35H542.3a30.86,30.86,0,0,1-30.83-30.83V31.83c0-.45,0-.89,0-1.34A30.89,30.89,0,0,1,534.6,2a31.54,31.54,0,0,1,7.7-1H779a31.54,31.54,0,0,1,7.7,1,30.89,30.89,0,0,1,23.1,28.52c0,.45,0,.89,0,1.34Zm299.36,598.71a30.86,30.86,0,0,1-30.83,30.83H841.65a30.86,30.86,0,0,1-30.83-30.83V630.54a30.86,30.86,0,0,1,30.83-30.83h236.7a30.86,30.86,0,0,1,30.83,30.83Zm0-299.35a30.86,30.86,0,0,1-30.83,30.83H841.65a30.86,30.86,0,0,1-30.83-30.83V331.19a30.86,30.86,0,0,1,30.83-30.83h236.7a30.86,30.86,0,0,1,30.83,30.83Zm0-299.36a30.86,30.86,0,0,1-30.83,30.83H841.65a30.86,30.86,0,0,1-30.83-30.83V31.83c0-.45,0-.89,0-1.34A30.89,30.89,0,0,1,834,2a31.54,31.54,0,0,1,7.7-1h236.7a31.54,31.54,0,0,1,7.7,1,30.89,30.89,0,0,1,23.1,28.52c0,.45,0,.89,0,1.34Zm299.35,598.71a30.86,30.86,0,0,1-30.83,30.83H1141a30.86,30.86,0,0,1-30.83-30.83V630.54A30.86,30.86,0,0,1,1141,599.71H1377.7a30.86,30.86,0,0,1,30.83,30.83Zm0-299.35a30.86,30.86,0,0,1-30.83,30.83H1141a30.86,30.86,0,0,1-30.83-30.83V331.19A30.86,30.86,0,0,1,1141,300.36H1377.7a30.86,30.86,0,0,1,30.83,30.83Zm0-299.36a30.86,30.86,0,0,1-30.83,30.83H1141a30.86,30.86,0,0,1-30.83-30.83V31.83c0-.45,0-.89,0-1.34A30.89,30.89,0,0,1,1133.31,2a31.54,31.54,0,0,1,7.7-1H1377.7a31.54,31.54,0,0,1,7.7,1,30.89,30.89,0,0,1,23.1,28.52c0,.45,0,.89,0,1.34Zm299.36,598.71a30.86,30.86,0,0,1-30.83,30.83h-236.7a30.86,30.86,0,0,1-30.83-30.83V630.54a30.86,30.86,0,0,1,30.83-30.83h236.7a30.86,30.86,0,0,1,30.83,30.83Zm0-299.35a30.86,30.86,0,0,1-30.83,30.83h-236.7a30.86,30.86,0,0,1-30.83-30.83V331.19a30.86,30.86,0,0,1,30.83-30.83h236.7a30.86,30.86,0,0,1,30.83,30.83Zm0-299.36a30.86,30.86,0,0,1-30.83,30.83h-236.7a30.86,30.86,0,0,1-30.83-30.83V31.83c0-.45,0-.89,0-1.34A30.89,30.89,0,0,1,1432.66,2a31.54,31.54,0,0,1,7.7-1h236.7a31.54,31.54,0,0,1,7.7,1,30.89,30.89,0,0,1,23.1,28.52c0,.45,0,.89,0,1.34Z"/></g></g></svg>