<svg width="36" height="26" viewBox="0 0 36 26" fill="none" xmlns="http://www.w3.org/2000/svg">
<path d="M34.7625 4.575C34.5633 3.83505 34.1733 3.16039 33.6314 2.61854C33.0896 2.0767 32.4149 1.68667 31.675 1.4875C28.95 0.75 18 0.75 18 0.75C18 0.75 7.04999 0.75 4.32499 1.4875C3.58504 1.68667 2.91038 2.0767 2.36854 2.61854C1.82669 3.16039 1.43667 3.83505 1.23749 4.575C0.728676 7.35408 0.481761 10.1748 0.499994 13C0.481761 15.8252 0.728676 18.6459 1.23749 21.425C1.43667 22.1649 1.82669 22.8396 2.36854 23.3814C2.91038 23.9233 3.58504 24.3133 4.32499 24.5125C7.04999 25.25 18 25.25 18 25.25C18 25.25 28.95 25.25 31.675 24.5125C32.4149 24.3133 33.0896 23.9233 33.6314 23.3814C34.1733 22.8396 34.5633 22.1649 34.7625 21.425C35.2713 18.6459 35.5182 15.8252 35.5 13C35.5182 10.1748 35.2713 7.35408 34.7625 4.575ZM14.5 18.25V7.75L23.5875 13L14.5 18.25Z" fill="#008250"/>
</svg>
