<svg width="45" height="45" viewBox="0 0 45 45" fill="none" xmlns="http://www.w3.org/2000/svg">
<path d="M19.4 28.7C20.2525 28.7 20.95 28.0025 20.95 27.15V17.85C20.95 16.9975 20.2525 16.3 19.4 16.3C18.5475 16.3 17.85 16.9975 17.85 17.85V27.15C17.85 28.0025 18.5475 28.7 19.4 28.7ZM22.5 7C13.944 7 7 13.944 7 22.5C7 31.056 13.944 38 22.5 38C31.056 38 38 31.056 38 22.5C38 13.944 31.056 7 22.5 7ZM22.5 34.9C15.6645 34.9 10.1 29.3355 10.1 22.5C10.1 15.6645 15.6645 10.1 22.5 10.1C29.3355 10.1 34.9 15.6645 34.9 22.5C34.9 29.3355 29.3355 34.9 22.5 34.9ZM25.6 28.7C26.4525 28.7 27.15 28.0025 27.15 27.15V17.85C27.15 16.9975 26.4525 16.3 25.6 16.3C24.7475 16.3 24.05 16.9975 24.05 17.85V27.15C24.05 28.0025 24.7475 28.7 25.6 28.7Z" fill="white"/>
</svg>
