<svg width="45" height="45" viewBox="0 0 45 45" fill="none" xmlns="http://www.w3.org/2000/svg">
<path d="M27.5813 29.775L20.3063 22.5L27.5813 15.225C27.7549 15.0514 27.8926 14.8453 27.9865 14.6185C28.0804 14.3917 28.1288 14.1486 28.1288 13.9031C28.1288 13.6576 28.0804 13.4145 27.9865 13.1877C27.8926 12.9609 27.7549 12.7548 27.5813 12.5812C27.4077 12.4076 27.2016 12.2699 26.9748 12.176C26.748 12.082 26.5049 12.0337 26.2594 12.0337C26.0139 12.0337 25.7708 12.082 25.544 12.176C25.3172 12.2699 25.1111 12.4076 24.9375 12.5812L16.3313 21.1875C16.1574 21.3609 16.0195 21.567 15.9255 21.7938C15.8314 22.0206 15.7829 22.2638 15.7829 22.5094C15.7829 22.7549 15.8314 22.9981 15.9255 23.2249C16.0195 23.4517 16.1574 23.6578 16.3313 23.8312L24.9375 32.4375C25.6688 33.1687 26.85 33.1687 27.5813 32.4375C28.2938 31.7062 28.3125 30.5062 27.5813 29.775Z" fill="white" fill-opacity="0.9"/>
</svg>
