<svg width="45" height="45" viewBox="0 0 45 45" fill="none" xmlns="http://www.w3.org/2000/svg">
<path d="M17.4188 29.775L24.6938 22.5L17.4188 15.225C17.2452 15.0514 17.1075 14.8453 17.0135 14.6185C16.9196 14.3917 16.8712 14.1486 16.8712 13.9031C16.8712 13.6576 16.9196 13.4145 17.0135 13.1877C17.1075 12.9609 17.2452 12.7548 17.4188 12.5812C17.5923 12.4076 17.7984 12.2699 18.0252 12.176C18.252 12.082 18.4951 12.0337 18.7406 12.0337C18.9861 12.0337 19.2292 12.082 19.456 12.176C19.6828 12.2699 19.8889 12.4076 20.0625 12.5812L28.6688 21.1875C29.4 21.9187 29.4 23.1 28.6688 23.8312L20.0625 32.4375C19.889 32.6113 19.683 32.7492 19.4562 32.8433C19.2294 32.9374 18.9862 32.9858 18.7406 32.9858C18.4951 32.9858 18.2519 32.9374 18.0251 32.8433C17.7983 32.7492 17.5922 32.6113 17.4188 32.4375C16.7063 31.7062 16.6875 30.5062 17.4188 29.775Z" fill="white" fill-opacity="0.9"/>
</svg>
