<svg xmlns="http://www.w3.org/2000/svg" width="1968" height="1046" fill="none"><path fill="#fff" fill-opacity=".8" d="M643.352 645.99a478.206 478.206 0 0 0 5.45-72V0H1967.8v432c-136-209.19-365.75-334-615-334-335.56 0-625.498 224.69-709.448 547.99Z"/><path fill="#fff" fill-opacity=".8" d="M137.725 1046c-46.433.02-92.653-5.79-137.39-17.29V0h648.001v574a441.303 441.303 0 0 1-8.049 83.94c-2.899 11-5.549 22.31-7.864 33.45-13.919 50.266-36.767 98.049-67.613 141.399-30.383 42.779-68.068 80.721-111.588 112.35C363.336 1010.63 252.174 1046.17 137.725 1046Z"/></svg>