<svg xmlns="http://www.w3.org/2000/svg" width="3010" height="1601" fill="none"><path fill="#fff" fill-opacity=".8" d="M983.82 988.494a731.153 731.153 0 0 0 8.334-110.099V.682H3009.1v660.59c-207.97-319.882-559.29-510.734-940.43-510.734-513.12 0-956.48 343.583-1084.85 837.956Z"/><path fill="#fff" fill-opacity=".8" d="M210.642 1600.17c-71.002.03-141.68-8.86-210.087-26.44V.682H991.44V878.41a674.972 674.972 0 0 1-12.308 128.36 1000.898 1000.898 0 0 0-12.026 51.15c-21.284 76.86-56.222 149.93-103.39 216.22-46.46 65.41-104.085 123.43-170.634 171.8-137.448 100.14-307.431 154.48-482.441 154.23Z"/></svg>