<svg width="307" height="146" viewBox="0 0 307 146" fill="none" xmlns="http://www.w3.org/2000/svg">
<path d="M20.9901 17.2188V66.4281H5.66406V17.2188H20.9901ZM30.907 66.4281V17.2188H46.2328V38.2211H47.1346L69.0417 17.2188H87.2529L63.903 39.1725L87.6132 66.4281H69.2221L52.7239 46.9212L46.2328 52.9702V66.4281H30.907ZM93.3833 66.4281V17.2188H138.55V26.6664H108.709V37.0655H136.206V46.5133H108.709V56.9803H138.64V66.4281H93.3833Z" fill="#3284FF"/>
<path d="M184.341 17.2188V66.4281H169.016V17.2188H184.341ZM194.258 66.4281V17.2188H209.585V38.2211H210.486L232.393 17.2188H250.604L227.254 39.1725L250.965 66.4281H232.573L216.076 46.9212L209.585 52.9702V66.4281H194.258ZM256.735 66.4281V17.2188H301.901V26.6664H272.061V37.0655H299.557V46.5133H272.061V56.9803H301.992V66.4281H256.735Z" fill="#3284FF"/>
<path d="M5.34375 70.7188H27.1918L46.5546 106.16H47.383L66.7464 70.7188H88.5944V126.99H71.4059V92.0147H70.7843L52.5606 126.679H41.3775L23.1536 91.8591H22.5323V126.99H5.34375V70.7188ZM115.516 126.99H96.4639L121.936 70.7188H145.337L170.706 126.99H151.757L146.684 114.942H120.59L115.516 126.99ZM124.835 104.839H142.438L133.947 84.6309H133.326L124.835 104.839ZM178.679 126.99V70.7188H196.282V94.7348H197.317L222.479 70.7188H243.395L216.577 95.823L243.809 126.99H222.686L203.737 104.683L196.282 111.601V126.99H178.679ZM250.436 126.99V70.7188H302.312V81.522H268.038V93.4135H299.62V104.217H268.038V116.186H302.416V126.99H250.436Z" fill="#3284FF"/>
</svg>
