<svg width="1969" height="1047" viewBox="0 0 1969 1047" fill="none" xmlns="http://www.w3.org/2000/svg">
<path d="M644.047 646.49C647.676 622.662 649.498 598.593 649.497 574.49V0.5H1968.5V432.5C1832.5 223.31 1602.75 98.5 1353.5 98.5C1017.94 98.5 727.997 323.19 644.047 646.49Z" fill="white" fill-opacity="0.8"/>
<path d="M1968 1V430.85C1831.82 222.37 1602.35 98 1353.5 98C1020.58 98 732.497 319.05 645.757 638.13C648.581 617.038 649.998 595.781 649.997 574.5V1H1968ZM1969 0H648.997V574.5C649.005 602.665 646.512 630.776 641.547 658.5C719.277 337.46 1008.54 99 1353.5 99C1611.61 99 1838.5 232.51 1969 434.22V0Z" fill="black"/>
<path d="M138.389 1047C91.9563 1047.02 45.736 1041.21 1 1029.71V1H649V575C649.005 603.144 646.312 631.234 640.951 658.94C638.052 669.94 635.402 681.25 633.087 692.39C619.168 742.656 596.32 790.439 565.474 833.789C535.091 876.568 497.406 914.51 453.886 946.139C364 1011.63 252.838 1047.17 138.389 1047Z" fill="white" fill-opacity="0.8"/>
<path d="M648.917 1V574.5C648.92 602.608 646.226 630.661 640.867 658.33C637.964 669.39 635.321 680.64 632.992 691.76C619.072 741.971 596.217 789.7 565.359 833C534.978 875.729 497.295 913.63 453.776 945.23C390.69 990.927 316.854 1022.3 238.221 1036.82C159.589 1051.34 78.3594 1048.61 1.08333 1028.83V1H648.917ZM650 0H0V1029.59C44.9672 1041.18 91.439 1047.03 138.125 1047C376.892 1047 577.471 896.1 634.053 692C636.393 680.76 639.019 669.61 641.929 658.55C647.308 630.826 650.009 602.715 650 574.55V0Z" fill="black"/>
</svg>
