<svg width="223" height="105" viewBox="0 0 223 105" fill="none" xmlns="http://www.w3.org/2000/svg">
<mask id="path-1-outside-1_894_6" maskUnits="userSpaceOnUse" x="-2" y="-1" width="226" height="107" fill="black">
<rect fill="white" x="-2" y="-1" width="226" height="107"/>
<path d="M47 33.56V11.72L46.4 3.2L53.24 6.79999H91.64L95.6 2L101.36 6.56C102.8 7.64 103.28 8.47999 103.28 9.07999C103.28 10.04 101.36 10.4 99.44 10.4V93.56C99.44 99.2 95.48 102.92 86.96 104.72L86 100.88C85.4 99.2 84.32 98.6 73.4 95.84V94.04C75.8 94.28 87.44 95.72 90.08 95.72C93.08 95.72 93.8 95 94.04 93.44V8.72H75.2C76.52 9.07999 76.88 9.32 76.88 9.67999C76.88 10.52 74 11.36 73.4 11.6V24.8H78.56L81.8 20L87.8 24.44C88.64 25.04 89 25.4 89 25.76C89 26.48 87.92 26.72 86.48 26.72H73.4V42.2H82.04L85.76 37.4L92 41.84C92.84 42.44 93.2 42.8 93.2 43.16C93.2 43.76 92 44.12 90.56 44.12H52.64C51.32 76.52 43.04 91.76 25.76 102.56L24.8 101.12C42.2 88.64 47.6 69.68 47 33.56ZM68 8.72H52.88C52.88 25.64 52.88 37.76 52.76 42.2H68V26.72L57.32 26.96L56 24.56L68 24.8V8.72ZM57.32 84.68V60.8L56.96 54.8L63.08 57.92H78.68L81.68 53.96L86.6 57.8C88.16 59 88.76 59.72 88.76 60.32C88.76 61.4 86.48 61.52 85.4 61.52V78.8C85.4 80.12 85.52 81.2 85.52 82.04C85.52 83.84 85.04 84.68 82.16 85.4C81.68 85.52 81.32 85.64 80.96 85.64C80.12 85.64 79.88 85.04 79.88 84.2C79.88 83.48 80 82.64 80 81.8H62.72C62.72 83 62.96 83.84 62.96 84.68C62.96 86.24 60.68 87.32 58.88 87.32C57.44 87.32 57.32 86.24 57.32 84.68ZM80 59.84H62.72V79.88H80V59.84ZM26 67.76H10.52V88.52H26V67.76ZM5.12 98.84V68.48L4.76 62L10.52 65.84H25.4L28.88 62.6L33.08 65.96C34.28 66.92 34.76 67.64 34.76 68.24C34.76 69.32 32.6 69.56 31.4 69.56V86.6C31.4 87.44 31.52 91.52 31.52 92.48C31.52 95 28.28 96.08 27.08 96.08C26.12 96.08 25.88 95.36 25.88 94.16C25.88 93.68 26 91.04 26 90.44H10.52C10.52 91.64 10.76 97.4 10.76 98.72C10.76 101 10.28 101.48 7.88 102.2C7.16 102.44 6.68 102.56 6.2 102.56C5.12 102.56 5.12 102.2 5.12 98.84ZM5.6 9.55999L4.04 7.16C6.08 7.39999 9.2 7.39999 9.8 7.39999H24.32L28.88 3.32L34.52 7.04C35.36 7.52 35.72 7.87999 35.72 8.24C35.72 8.84 34.64 9.32 33.2 9.32H11.6C9.2 9.32 7.16 9.44 5.6 9.55999ZM2.36 24.2L0.800001 21.8C2.72 22.04 5.96 22.16 6.44 22.16H30.08L34.4 17.48L40.28 21.8C41.12 22.28 41.36 22.76 41.36 23.12C41.36 23.72 40.28 24.08 38.84 24.08H8.24C5.96 24.08 3.8 24.2 2.36 24.2ZM5.84 39.2L4.28 36.8C6.2 37.04 9.44 37.16 9.92 37.16H23.96L28.28 32.48L34.16 36.8C35 37.28 35.36 37.64 35.36 38C35.36 38.6 34.16 39.08 32.72 39.08H11.72C9.44 39.08 7.4 39.2 5.84 39.2ZM6.2 53.96L4.64 51.56C6.68 51.8 9.8 51.8 10.4 51.8H24.32L28.64 47.12L34.52 51.44C35.36 51.92 35.72 52.28 35.72 52.64C35.72 53.24 34.64 53.72 33.2 53.72H12.2C9.8 53.72 7.76 53.84 6.2 53.96ZM213.8 19.64H190.64V81.08H213.8V19.64ZM185.24 91.52V22.64L184.88 13.76L191.24 17.72H212.6L215.72 14.6L220.76 18.08C222.32 19.16 222.8 20 222.8 20.48C222.8 21.68 220.4 21.92 219.2 21.92V80C219.44 83 219.56 85.04 219.56 86.48C219.56 89.96 216.92 90.44 215.36 90.44C213.8 90.44 213.8 89.72 213.8 83H190.64C190.64 87.2 190.88 89.84 190.88 91.64C190.88 92.96 190.88 95.84 186.8 95.84C185.36 95.84 185.12 95 185.12 93.8C185.12 93.08 185.24 92.24 185.24 91.52ZM121.28 34.88L120.2 32L129.92 32.6H149V12.08C142.28 13.4 129.56 14.96 123.44 15.56L122.96 14C137 11.6 153.92 7.99999 170.72 0.559996L176 4.4C176.96 5.11999 177.56 5.84 177.56 6.31999C177.56 6.68 177.2 6.91999 176.48 6.91999C175.76 6.91999 174.56 6.79999 172.88 6.19999C167.12 7.76 160.28 9.67999 155.24 10.76C156.68 10.88 157.52 11.6 157.52 12.2C157.52 12.8 156.56 13.52 154.4 13.4V32.6H167.96L173.84 27.44L180.56 32.36C181.16 32.96 181.52 33.32 181.52 33.68C181.52 34.16 180.8 34.4 179.24 34.4H154.4V44.84C168.56 51.68 177.2 58.76 177.2 64.28C177.2 65.24 176.72 68.84 174.8 68.84C173.96 68.84 173 68 172.16 66.44C169.52 60.92 163.28 53.48 154.4 47V95.12C154.4 96.92 154.64 98.36 154.64 99.56C154.64 101.24 154.16 102.2 151.4 102.8C150.8 103.04 150.32 103.16 149.96 103.16C149 103.16 148.76 102.56 148.76 101.48C148.76 100.52 149 99.08 149 97.4V50.48C138.92 66.32 131.96 74 122.48 83.6L121.28 82.4C130.4 71.6 140.24 58.28 148.88 34.4H130.28L121.28 34.88Z"/>
</mask>
<path d="M47 33.56V11.72L46.4 3.2L53.24 6.79999H91.64L95.6 2L101.36 6.56C102.8 7.64 103.28 8.47999 103.28 9.07999C103.28 10.04 101.36 10.4 99.44 10.4V93.56C99.44 99.2 95.48 102.92 86.96 104.72L86 100.88C85.4 99.2 84.32 98.6 73.4 95.84V94.04C75.8 94.28 87.44 95.72 90.08 95.72C93.08 95.72 93.8 95 94.04 93.44V8.72H75.2C76.52 9.07999 76.88 9.32 76.88 9.67999C76.88 10.52 74 11.36 73.4 11.6V24.8H78.56L81.8 20L87.8 24.44C88.64 25.04 89 25.4 89 25.76C89 26.48 87.92 26.72 86.48 26.72H73.4V42.2H82.04L85.76 37.4L92 41.84C92.84 42.44 93.2 42.8 93.2 43.16C93.2 43.76 92 44.12 90.56 44.12H52.64C51.32 76.52 43.04 91.76 25.76 102.56L24.8 101.12C42.2 88.64 47.6 69.68 47 33.56ZM68 8.72H52.88C52.88 25.64 52.88 37.76 52.76 42.2H68V26.72L57.32 26.96L56 24.56L68 24.8V8.72ZM57.32 84.68V60.8L56.96 54.8L63.08 57.92H78.68L81.68 53.96L86.6 57.8C88.16 59 88.76 59.72 88.76 60.32C88.76 61.4 86.48 61.52 85.4 61.52V78.8C85.4 80.12 85.52 81.2 85.52 82.04C85.52 83.84 85.04 84.68 82.16 85.4C81.68 85.52 81.32 85.64 80.96 85.64C80.12 85.64 79.88 85.04 79.88 84.2C79.88 83.48 80 82.64 80 81.8H62.72C62.72 83 62.96 83.84 62.96 84.68C62.96 86.24 60.68 87.32 58.88 87.32C57.44 87.32 57.32 86.24 57.32 84.68ZM80 59.84H62.72V79.88H80V59.84ZM26 67.76H10.52V88.52H26V67.76ZM5.12 98.84V68.48L4.76 62L10.52 65.84H25.4L28.88 62.6L33.08 65.96C34.28 66.92 34.76 67.64 34.76 68.24C34.76 69.32 32.6 69.56 31.4 69.56V86.6C31.4 87.44 31.52 91.52 31.52 92.48C31.52 95 28.28 96.08 27.08 96.08C26.12 96.08 25.88 95.36 25.88 94.16C25.88 93.68 26 91.04 26 90.44H10.52C10.52 91.64 10.76 97.4 10.76 98.72C10.76 101 10.28 101.48 7.88 102.2C7.16 102.44 6.68 102.56 6.2 102.56C5.12 102.56 5.12 102.2 5.12 98.84ZM5.6 9.55999L4.04 7.16C6.08 7.39999 9.2 7.39999 9.8 7.39999H24.32L28.88 3.32L34.52 7.04C35.36 7.52 35.72 7.87999 35.72 8.24C35.72 8.84 34.64 9.32 33.2 9.32H11.6C9.2 9.32 7.16 9.44 5.6 9.55999ZM2.36 24.2L0.800001 21.8C2.72 22.04 5.96 22.16 6.44 22.16H30.08L34.4 17.48L40.28 21.8C41.12 22.28 41.36 22.76 41.36 23.12C41.36 23.72 40.28 24.08 38.84 24.08H8.24C5.96 24.08 3.8 24.2 2.36 24.2ZM5.84 39.2L4.28 36.8C6.2 37.04 9.44 37.16 9.92 37.16H23.96L28.28 32.48L34.16 36.8C35 37.28 35.36 37.64 35.36 38C35.36 38.6 34.16 39.08 32.72 39.08H11.72C9.44 39.08 7.4 39.2 5.84 39.2ZM6.2 53.96L4.64 51.56C6.68 51.8 9.8 51.8 10.4 51.8H24.32L28.64 47.12L34.52 51.44C35.36 51.92 35.72 52.28 35.72 52.64C35.72 53.24 34.64 53.72 33.2 53.72H12.2C9.8 53.72 7.76 53.84 6.2 53.96ZM213.8 19.64H190.64V81.08H213.8V19.64ZM185.24 91.52V22.64L184.88 13.76L191.24 17.72H212.6L215.72 14.6L220.76 18.08C222.32 19.16 222.8 20 222.8 20.48C222.8 21.68 220.4 21.92 219.2 21.92V80C219.44 83 219.56 85.04 219.56 86.48C219.56 89.96 216.92 90.44 215.36 90.44C213.8 90.44 213.8 89.72 213.8 83H190.64C190.64 87.2 190.88 89.84 190.88 91.64C190.88 92.96 190.88 95.84 186.8 95.84C185.36 95.84 185.12 95 185.12 93.8C185.12 93.08 185.24 92.24 185.24 91.52ZM121.28 34.88L120.2 32L129.92 32.6H149V12.08C142.28 13.4 129.56 14.96 123.44 15.56L122.96 14C137 11.6 153.92 7.99999 170.72 0.559996L176 4.4C176.96 5.11999 177.56 5.84 177.56 6.31999C177.56 6.68 177.2 6.91999 176.48 6.91999C175.76 6.91999 174.56 6.79999 172.88 6.19999C167.12 7.76 160.28 9.67999 155.24 10.76C156.68 10.88 157.52 11.6 157.52 12.2C157.52 12.8 156.56 13.52 154.4 13.4V32.6H167.96L173.84 27.44L180.56 32.36C181.16 32.96 181.52 33.32 181.52 33.68C181.52 34.16 180.8 34.4 179.24 34.4H154.4V44.84C168.56 51.68 177.2 58.76 177.2 64.28C177.2 65.24 176.72 68.84 174.8 68.84C173.96 68.84 173 68 172.16 66.44C169.52 60.92 163.28 53.48 154.4 47V95.12C154.4 96.92 154.64 98.36 154.64 99.56C154.64 101.24 154.16 102.2 151.4 102.8C150.8 103.04 150.32 103.16 149.96 103.16C149 103.16 148.76 102.56 148.76 101.48C148.76 100.52 149 99.08 149 97.4V50.48C138.92 66.32 131.96 74 122.48 83.6L121.28 82.4C130.4 71.6 140.24 58.28 148.88 34.4H130.28L121.28 34.88Z" fill="#FF9B05"/>
<path d="M47 33.56H46V33.5683L46.0001 33.5766L47 33.56ZM47 11.72H48V11.6848L47.9975 11.6497L47 11.72ZM46.4 3.2L46.8657 2.31508L45.2763 1.47853L45.4025 3.27025L46.4 3.2ZM53.24 6.79999L52.7743 7.68491L52.9929 7.79999H53.24V6.79999ZM91.64 6.79999V7.79999H92.1114L92.4114 7.43638L91.64 6.79999ZM95.6 2L96.2207 1.21595L95.4523 0.60764L94.8286 1.36362L95.6 2ZM101.36 6.56L100.739 7.34404L100.75 7.35215L100.76 7.36L101.36 6.56ZM99.44 10.4V9.4H98.44V10.4H99.44ZM86.96 104.72L85.9899 104.963L86.2236 105.898L87.1667 105.698L86.96 104.72ZM86 100.88L86.9701 100.637L86.9582 100.59L86.9417 100.544L86 100.88ZM73.4 95.84H72.4V96.6187L73.155 96.8095L73.4 95.84ZM73.4 94.04L73.4995 93.045L72.4 92.935V94.04H73.4ZM94.04 93.44L95.0284 93.5921L95.04 93.5165V93.44H94.04ZM94.04 8.72H95.04V7.72H94.04V8.72ZM75.2 8.72V7.72L74.9369 9.68476L75.2 8.72ZM73.4 11.6L73.0286 10.6715L72.4 10.923V11.6H73.4ZM73.4 24.8H72.4V25.8H73.4V24.8ZM78.56 24.8V25.8H79.0915L79.3889 25.3595L78.56 24.8ZM81.8 20L82.3948 19.1962L81.5554 18.575L80.9712 19.4405L81.8 20ZM87.8 24.44L87.2052 25.2438L87.2119 25.2488L87.2188 25.2537L87.8 24.44ZM73.4 26.72V25.72H72.4V26.72H73.4ZM73.4 42.2H72.4V43.2H73.4V42.2ZM82.04 42.2V43.2H82.5302L82.8304 42.8126L82.04 42.2ZM85.76 37.4L86.3398 36.5852L85.5576 36.0287L84.9696 36.7874L85.76 37.4ZM92 41.84L92.5812 41.0263L92.5798 41.0252L92 41.84ZM52.64 44.12V43.12H51.6799L51.6408 44.0793L52.64 44.12ZM25.76 102.56L24.9279 103.115L25.4666 103.923L26.29 103.408L25.76 102.56ZM24.8 101.12L24.2172 100.307L23.4319 100.871L23.968 101.675L24.8 101.12ZM68 8.72H69V7.72H68V8.72ZM52.88 8.72V7.72H51.88V8.72H52.88ZM52.76 42.2L51.7604 42.173L51.7326 43.2H52.76V42.2ZM68 42.2V43.2H69V42.2H68ZM68 26.72H69V25.6973L67.9775 25.7202L68 26.72ZM57.32 26.96L56.4438 27.4419L56.7361 27.9734L57.3425 27.9597L57.32 26.96ZM56 24.56L56.02 23.5602L54.2898 23.5256L55.1238 25.0419L56 24.56ZM68 24.8L67.98 25.7998L69 25.8202V24.8H68ZM57.32 60.8H58.32V60.77L58.3182 60.7401L57.32 60.8ZM56.96 54.8L57.4142 53.9091L55.8571 53.1153L55.9618 54.8599L56.96 54.8ZM63.08 57.92L62.6258 58.8109L62.8398 58.92H63.08V57.92ZM78.68 57.92V58.92H79.177L79.4771 58.5239L78.68 57.92ZM81.68 53.96L82.2953 53.1717L81.4955 52.5475L80.8829 53.3561L81.68 53.96ZM86.6 57.8L85.9847 58.5883L85.9903 58.5926L86.6 57.8ZM85.4 61.52V60.52H84.4V61.52H85.4ZM82.16 85.4L82.4025 86.3701L82.4025 86.3701L82.16 85.4ZM80 81.8H81V80.8H80V81.8ZM62.72 81.8V80.8H61.72V81.8H62.72ZM80 59.84H81V58.84H80V59.84ZM62.72 59.84V58.84H61.72V59.84H62.72ZM62.72 79.88H61.72V80.88H62.72V79.88ZM80 79.88V80.88H81V79.88H80ZM26 67.76H27V66.76H26V67.76ZM10.52 67.76V66.76H9.52V67.76H10.52ZM10.52 88.52H9.52V89.52H10.52V88.52ZM26 88.52V89.52H27V88.52H26ZM5.12 68.48H6.12V68.4522L6.11846 68.4245L5.12 68.48ZM4.76 62L5.3147 61.1679L3.6506 60.0585L3.76154 62.0555L4.76 62ZM10.52 65.84L9.9653 66.672L10.2172 66.84H10.52V65.84ZM25.4 65.84V66.84H25.7935L26.0814 66.5719L25.4 65.84ZM28.88 62.6L29.5047 61.8191L28.8305 61.2798L28.1986 61.8681L28.88 62.6ZM33.08 65.96L33.7047 65.1791L33.7047 65.1791L33.08 65.96ZM31.4 69.56V68.56H30.4V69.56H31.4ZM26 90.44H27V89.44H26V90.44ZM10.52 90.44V89.44H9.52V90.44H10.52ZM7.88 102.2L7.59265 101.242L7.57814 101.247L7.56377 101.251L7.88 102.2ZM5.6 9.55999L4.76156 10.105L5.08499 10.6026L5.6767 10.557L5.6 9.55999ZM4.04 7.16L4.15684 6.16685L2.03988 5.9178L3.20156 7.70499L4.04 7.16ZM24.32 7.39999V8.39999H24.7021L24.9868 8.14524L24.32 7.39999ZM28.88 3.32L29.4306 2.48522L28.7874 2.06099L28.2132 2.57475L28.88 3.32ZM34.52 7.04L33.9694 7.87477L33.9961 7.89238L34.0239 7.90824L34.52 7.04ZM2.36 24.2L1.52156 24.745L1.81731 25.2H2.36V24.2ZM0.800001 21.8L0.924037 20.8077L-1.21115 20.5408L-0.0384436 22.345L0.800001 21.8ZM30.08 22.16V23.16H30.5178L30.8148 22.8383L30.08 22.16ZM34.4 17.48L34.9921 16.6741L34.2716 16.1448L33.6652 16.8017L34.4 17.48ZM40.28 21.8L39.6879 22.6059L39.7341 22.6398L39.7839 22.6682L40.28 21.8ZM5.84 39.2L5.00156 39.745L5.29731 40.2H5.84V39.2ZM4.28 36.8L4.40404 35.8077L2.26885 35.5408L3.44156 37.345L4.28 36.8ZM23.96 37.16V38.16H24.3978L24.6948 37.8383L23.96 37.16ZM28.28 32.48L28.8721 31.6741L28.1516 31.1448L27.5452 31.8017L28.28 32.48ZM34.16 36.8L33.5679 37.6059L33.6141 37.6398L33.6639 37.6682L34.16 36.8ZM6.2 53.96L5.36156 54.505L5.68499 55.0026L6.2767 54.9571L6.2 53.96ZM4.64 51.56L4.75684 50.5668L2.63988 50.3178L3.80156 52.105L4.64 51.56ZM24.32 51.8V52.8H24.7578L25.0548 52.4783L24.32 51.8ZM28.64 47.12L29.2321 46.3141L28.5116 45.7848L27.9052 46.4417L28.64 47.12ZM34.52 51.44L33.9279 52.2459L33.9741 52.2798L34.0239 52.3082L34.52 51.44ZM48 33.56V11.72H46V33.56H48ZM47.9975 11.6497L47.3975 3.12975L45.4025 3.27025L46.0025 11.7902L47.9975 11.6497ZM45.9343 4.08492L52.7743 7.68491L53.7058 5.91508L46.8657 2.31508L45.9343 4.08492ZM53.24 7.79999H91.64V5.79999H53.24V7.79999ZM92.4114 7.43638L96.3714 2.63638L94.8286 1.36362L90.8686 6.16361L92.4114 7.43638ZM94.9793 2.78404L100.739 7.34404L101.981 5.77595L96.2207 1.21595L94.9793 2.78404ZM100.76 7.36C102.163 8.41253 102.28 8.99076 102.28 9.07999H104.28C104.28 7.96922 103.437 6.86746 101.96 5.76L100.76 7.36ZM102.28 9.07999C102.28 8.93619 102.369 8.87565 102.324 8.91174C102.259 8.96396 102.1 9.0526 101.8 9.14C101.21 9.31218 100.356 9.4 99.44 9.4V11.4C100.444 11.4 101.51 11.3078 102.36 11.06C102.78 10.9374 103.221 10.756 103.576 10.4708C103.951 10.1693 104.28 9.70379 104.28 9.07999H102.28ZM98.44 10.4V93.56H100.44V10.4H98.44ZM98.44 93.56C98.44 96.1131 97.5582 98.1784 95.7239 99.8386C93.8528 101.532 90.9265 102.86 86.7533 103.742L87.1667 105.698C91.5135 104.78 94.8272 103.348 97.0661 101.321C99.3418 99.2616 100.44 96.6469 100.44 93.56H98.44ZM87.9301 104.477L86.9701 100.637L85.0299 101.123L85.9899 104.963L87.9301 104.477ZM86.9417 100.544C86.7606 100.036 86.5106 99.5255 85.9995 99.044C85.5148 98.5874 84.854 98.2127 83.9512 97.8405C82.1608 97.1024 79.0835 96.245 73.645 94.8705L73.155 96.8095C78.6366 98.195 81.5592 99.0176 83.1888 99.6895C83.996 100.022 84.4002 100.285 84.628 100.5C84.8295 100.69 84.9394 100.884 85.0583 101.216L86.9417 100.544ZM74.4 95.84V94.04H72.4V95.84H74.4ZM73.3005 95.035C74.4966 95.1546 77.979 95.5716 81.5405 95.964C85.0504 96.3507 88.6905 96.72 90.08 96.72V94.72C88.8295 94.72 85.3296 94.3693 81.7595 93.976C78.241 93.5884 74.7034 93.1654 73.4995 93.045L73.3005 95.035ZM90.08 96.72C91.6074 96.72 92.7912 96.5476 93.6347 96.0069C94.5707 95.4069 94.8894 94.4953 95.0284 93.5921L93.0516 93.2879C92.9506 93.9447 92.7893 94.1731 92.5553 94.3231C92.2289 94.5324 91.5526 94.72 90.08 94.72V96.72ZM95.04 93.44V8.72H93.04V93.44H95.04ZM94.04 7.72H75.2V9.72H94.04V7.72ZM74.9369 9.68476C75.5962 9.86458 75.8995 9.98637 76.028 10.0619C76.0821 10.0937 76.0371 10.0792 75.9802 9.99694C75.9094 9.89429 75.88 9.7748 75.88 9.67999H77.88C77.88 9.40519 77.8057 9.1207 77.626 8.86055C77.4605 8.62077 77.2429 8.45624 77.042 8.33806C76.6605 8.11362 76.1238 7.93541 75.4631 7.75523L74.9369 9.68476ZM75.88 9.67999C75.88 9.49035 75.9614 9.38544 75.9627 9.38385C75.9642 9.38187 75.9337 9.41918 75.8373 9.48836C75.6448 9.62659 75.3432 9.78437 74.9669 9.94765C74.6009 10.1065 74.2098 10.2513 73.8628 10.3743C73.5455 10.4868 73.2026 10.6019 73.0286 10.6715L73.7714 12.5285C73.8974 12.4781 74.1395 12.3982 74.531 12.2594C74.8927 12.1312 75.3342 11.9685 75.7631 11.7823C76.1818 11.6006 76.6377 11.3759 77.0039 11.1129C77.187 10.9814 77.3861 10.8134 77.5475 10.6038C77.7086 10.3945 77.88 10.0796 77.88 9.67999H75.88ZM72.4 11.6V24.8H74.4V11.6H72.4ZM73.4 25.8H78.56V23.8H73.4V25.8ZM79.3889 25.3595L82.6289 20.5595L80.9712 19.4405L77.7312 24.2405L79.3889 25.3595ZM81.2052 20.8038L87.2052 25.2438L88.3948 23.6362L82.3948 19.1962L81.2052 20.8038ZM87.2188 25.2537C87.6325 25.5493 87.861 25.74 87.9822 25.8704C88.1025 25.9999 88 25.9458 88 25.76H90C90 25.2142 89.7175 24.8 89.4478 24.5095C89.179 24.22 88.8075 23.9307 88.3812 23.6263L87.2188 25.2537ZM88 25.76C88 25.6574 88.0505 25.5578 88.1016 25.5066C88.1282 25.48 88.1078 25.5133 87.9638 25.5613C87.6701 25.6592 87.1708 25.72 86.48 25.72V27.72C87.2292 27.72 87.9899 27.6608 88.5962 27.4587C89.1769 27.2651 90 26.7842 90 25.76H88ZM86.48 25.72H73.4V27.72H86.48V25.72ZM72.4 26.72V42.2H74.4V26.72H72.4ZM73.4 43.2H82.04V41.2H73.4V43.2ZM82.8304 42.8126L86.5504 38.0126L84.9696 36.7874L81.2496 41.5874L82.8304 42.8126ZM85.1803 38.2148L91.4203 42.6548L92.5798 41.0252L86.3398 36.5852L85.1803 38.2148ZM91.4188 42.6537C91.8325 42.9493 92.061 43.14 92.1822 43.2704C92.3025 43.4 92.2 43.3458 92.2 43.16H94.2C94.2 42.6142 93.9175 42.2 93.6478 41.9095C93.379 41.62 93.0075 41.3307 92.5812 41.0263L91.4188 42.6537ZM92.2 43.16C92.2 42.9383 92.3213 42.8195 92.3315 42.8105C92.3352 42.8073 92.3212 42.8201 92.2782 42.8427C92.2362 42.8649 92.176 42.8914 92.0949 42.9193C91.7539 43.0365 91.2128 43.12 90.56 43.12V45.12C91.3472 45.12 92.1261 45.0235 92.7451 44.8107C93.0511 44.7055 93.3792 44.5513 93.6485 44.3157C93.9287 44.0705 94.2 43.6817 94.2 43.16H92.2ZM90.56 43.12H52.64V45.12H90.56V43.12ZM51.6408 44.0793C50.9835 60.2127 48.5956 71.971 44.2825 81.0093C39.9825 90.0202 33.7365 96.3955 25.23 101.712L26.29 103.408C35.0635 97.9245 41.5975 91.2798 46.0875 81.8707C50.5644 72.489 52.9765 60.4273 53.6392 44.1607L51.6408 44.0793ZM26.5921 102.005L25.6321 100.565L23.968 101.675L24.9279 103.115L26.5921 102.005ZM25.3828 101.933C43.2122 89.1447 48.6008 69.7204 47.9999 33.5434L46.0001 33.5766C46.5992 69.6396 41.1878 88.1353 24.2172 100.307L25.3828 101.933ZM68 7.72H52.88V9.72H68V7.72ZM51.88 8.72C51.88 25.6513 51.8799 37.7506 51.7604 42.173L53.7596 42.227C53.8801 37.7693 53.88 25.6287 53.88 8.72H51.88ZM52.76 43.2H68V41.2H52.76V43.2ZM69 42.2V26.72H67V42.2H69ZM67.9775 25.7202L57.2975 25.9603L57.3425 27.9597L68.0225 27.7197L67.9775 25.7202ZM58.1962 26.4781L56.8762 24.0781L55.1238 25.0419L56.4438 27.4419L58.1962 26.4781ZM55.98 25.5598L67.98 25.7998L68.02 23.8002L56.02 23.5602L55.98 25.5598ZM69 24.8V8.72H67V24.8H69ZM58.32 84.68V60.8H56.32V84.68H58.32ZM58.3182 60.7401L57.9582 54.7401L55.9618 54.8599L56.3218 60.8599L58.3182 60.7401ZM56.5058 55.6909L62.6258 58.8109L63.5342 57.0291L57.4142 53.9091L56.5058 55.6909ZM63.08 58.92H78.68V56.92H63.08V58.92ZM79.4771 58.5239L82.4771 54.5639L80.8829 53.3561L77.8829 57.3161L79.4771 58.5239ZM81.0647 54.7483L85.9847 58.5883L87.2153 57.0117L82.2953 53.1717L81.0647 54.7483ZM85.9903 58.5926C86.7548 59.1807 87.228 59.6098 87.5038 59.9335C87.786 60.2648 87.76 60.3683 87.76 60.32H89.76C89.76 59.6717 89.434 59.1152 89.0262 58.6365C88.612 58.1502 88.0052 57.6193 87.2097 57.0074L85.9903 58.5926ZM87.76 60.32C87.76 60.1726 87.8611 60.1101 87.8094 60.1467C87.7319 60.2015 87.5577 60.281 87.2571 60.3513C86.6685 60.4891 85.923 60.52 85.4 60.52V62.52C85.957 62.52 86.8916 62.4909 87.7129 62.2987C88.1173 62.204 88.5806 62.051 88.9643 61.7795C89.3739 61.4899 89.76 61.0074 89.76 60.32H87.76ZM84.4 61.52V78.8H86.4V61.52H84.4ZM84.4 78.8C84.4 79.4892 84.4314 80.1122 84.4615 80.6555C84.4924 81.2112 84.52 81.6552 84.52 82.04H86.52C86.52 81.5848 86.4876 81.0688 86.4585 80.5445C86.4286 80.0078 86.4 79.4308 86.4 78.8H84.4ZM84.52 82.04C84.52 82.8765 84.3999 83.2118 84.182 83.4502C83.9154 83.7417 83.332 84.0762 81.9175 84.4299L82.4025 86.3701C83.868 86.0038 84.9646 85.5583 85.658 84.7998C86.4001 83.9882 86.52 83.0035 86.52 82.04H84.52ZM81.9175 84.4299C81.3235 84.5783 81.1577 84.64 80.96 84.64V86.64C81.4823 86.64 82.0365 86.4617 82.4025 86.3701L81.9175 84.4299ZM80.96 84.64C80.8681 84.64 80.8538 84.6237 80.8793 84.6363C80.9114 84.6522 80.9358 84.6783 80.9446 84.6917C80.9477 84.6966 80.9287 84.6686 80.9104 84.5792C80.8922 84.4903 80.88 84.3662 80.88 84.2H78.88C78.88 84.6766 78.9405 85.2761 79.2654 85.7783C79.6464 86.3671 80.2636 86.64 80.96 86.64V84.64ZM80.88 84.2C80.88 83.8848 80.9064 83.5356 80.9373 83.1189C80.967 82.7172 81 82.2621 81 81.8H79C79 82.1779 78.973 82.5628 78.9427 82.9711C78.9136 83.3644 78.88 83.7952 78.88 84.2H80.88ZM80 80.8H62.72V82.8H80V80.8ZM61.72 81.8C61.72 82.4671 61.7871 83.0296 61.8482 83.503C61.9117 83.9946 61.96 84.3395 61.96 84.68H63.96C63.96 84.1805 63.8883 83.6854 63.8318 83.247C63.7729 82.7904 63.72 82.3329 63.72 81.8H61.72ZM61.96 84.68C61.96 84.9334 61.7628 85.3284 61.0901 85.7218C60.4504 86.096 59.605 86.32 58.88 86.32V88.32C59.955 88.32 61.1496 88.004 62.0999 87.4482C63.0172 86.9116 63.96 85.9866 63.96 84.68H61.96ZM58.88 86.32C58.6408 86.32 58.5527 86.2749 58.5354 86.2647C58.5297 86.2614 58.5067 86.2517 58.4714 86.1734C58.4283 86.0781 58.3841 85.9153 58.3558 85.6459C58.3278 85.3802 58.32 85.0639 58.32 84.68H56.32C56.32 85.4196 56.3351 86.3024 56.6486 86.9966C56.8233 87.3833 57.1003 87.7411 57.5221 87.989C57.9323 88.2301 58.3992 88.32 58.88 88.32V86.32ZM80 58.84H62.72V60.84H80V58.84ZM61.72 59.84V79.88H63.72V59.84H61.72ZM62.72 80.88H80V78.88H62.72V80.88ZM81 79.88V59.84H79V79.88H81ZM26 66.76H10.52V68.76H26V66.76ZM9.52 67.76V88.52H11.52V67.76H9.52ZM10.52 89.52H26V87.52H10.52V89.52ZM27 88.52V67.76H25V88.52H27ZM6.12 98.84V68.48H4.12V98.84H6.12ZM6.11846 68.4245L5.75846 61.9445L3.76154 62.0555L4.12154 68.5355L6.11846 68.4245ZM4.2053 62.832L9.9653 66.672L11.0747 65.0079L5.3147 61.1679L4.2053 62.832ZM10.52 66.84H25.4V64.84H10.52V66.84ZM26.0814 66.5719L29.5614 63.3319L28.1986 61.8681L24.7186 65.1081L26.0814 66.5719ZM28.2553 63.3809L32.4553 66.7409L33.7047 65.1791L29.5047 61.8191L28.2553 63.3809ZM32.4553 66.7409C33.0191 67.1919 33.3624 67.547 33.5585 67.8193C33.7528 68.0892 33.76 68.2177 33.76 68.24H35.76C35.76 67.6623 35.5272 67.1308 35.1815 66.6507C34.8376 66.173 34.3409 65.6881 33.7047 65.1791L32.4553 66.7409ZM33.76 68.24C33.76 68.1232 33.8366 68.0756 33.7848 68.1165C33.7104 68.1751 33.545 68.2616 33.258 68.3427C32.6932 68.5023 31.9562 68.56 31.4 68.56V70.56C32.0438 70.56 32.9868 70.4977 33.802 70.2673C34.205 70.1534 34.6546 69.9774 35.0227 69.6873C35.4134 69.3794 35.76 68.8968 35.76 68.24H33.76ZM30.4 69.56V86.6H32.4V69.56H30.4ZM30.4 86.6C30.4 87.0358 30.4305 88.2844 30.4603 89.5191C30.4905 90.7729 30.52 92.0156 30.52 92.48H32.52C32.52 91.9844 32.4895 90.7071 32.4597 89.4709C32.4295 88.2156 32.4 87.0042 32.4 86.6H30.4ZM30.52 92.48C30.52 93.2469 30.0402 93.8771 29.2296 94.3711C28.4074 94.8721 27.4754 95.08 27.08 95.08V97.08C27.8846 97.08 29.1726 96.7479 30.2704 96.0789C31.3798 95.4029 32.52 94.2331 32.52 92.48H30.52ZM27.08 95.08C26.9637 95.08 26.9436 95.0584 26.9678 95.0717C26.9995 95.089 27.0086 95.1108 26.9979 95.0911C26.9806 95.0595 26.9468 94.9773 26.9201 94.8095C26.8939 94.6441 26.88 94.4312 26.88 94.16H24.88C24.88 94.7776 24.9323 95.4808 25.2421 96.0489C25.4114 96.3592 25.6605 96.636 26.0072 96.8258C26.3464 97.0116 26.7163 97.08 27.08 97.08V95.08ZM26.88 94.16C26.88 93.9448 26.9086 93.195 26.9393 92.3827C26.9688 91.6014 27 90.7644 27 90.44H25C25 90.7156 24.9712 91.4986 24.9407 92.3073C24.9114 93.085 24.88 93.8952 24.88 94.16H26.88ZM26 89.44H10.52V91.44H26V89.44ZM9.52 90.44C9.52 91.0624 9.58107 92.8285 9.64058 94.5692C9.70102 96.337 9.76 98.0822 9.76 98.72H11.76C11.76 98.0378 11.699 96.243 11.6394 94.5008C11.5789 92.7315 11.52 91.0176 11.52 90.44H9.52ZM9.76 98.72C9.76 99.8519 9.62252 100.204 9.45749 100.398C9.25618 100.635 8.82866 100.871 7.59265 101.242L8.16735 103.158C9.33134 102.809 10.3438 102.445 10.9825 101.692C11.6575 100.896 11.76 99.8681 11.76 98.72H9.76ZM7.56377 101.251C6.85854 101.486 6.50839 101.56 6.2 101.56V103.56C6.85161 103.56 7.46147 103.394 8.19623 103.149L7.56377 101.251ZM6.2 101.56C5.9378 101.56 5.97314 101.527 6.06945 101.582C6.2367 101.677 6.25049 101.813 6.22171 101.704C6.1856 101.568 6.15303 101.307 6.13632 100.805C6.12013 100.32 6.12 99.6869 6.12 98.84H4.12C4.12 99.6731 4.11987 100.345 4.13743 100.872C4.15447 101.383 4.1894 101.842 4.2883 102.216C4.39451 102.617 4.6108 103.053 5.0818 103.321C5.48186 103.548 5.9222 103.56 6.2 103.56V101.56ZM6.43844 9.01501L4.87844 6.61501L3.20156 7.70499L4.76156 10.105L6.43844 9.01501ZM3.92316 8.15315C6.03251 8.4013 9.21439 8.39999 9.8 8.39999V6.39999C9.18561 6.39999 6.12749 6.39868 4.15684 6.16685L3.92316 8.15315ZM9.8 8.39999H24.32V6.39999H9.8V8.39999ZM24.9868 8.14524L29.5468 4.06524L28.2132 2.57475L23.6532 6.65475L24.9868 8.14524ZM28.3294 4.15477L33.9694 7.87477L35.0706 6.20523L29.4306 2.48522L28.3294 4.15477ZM34.0239 7.90824C34.419 8.13401 34.6275 8.29168 34.7279 8.3921C34.8237 8.48788 34.72 8.42833 34.72 8.24H36.72C36.72 7.69166 36.4363 7.27211 36.1421 6.97789C35.8525 6.68831 35.461 6.42598 35.0161 6.17176L34.0239 7.90824ZM34.72 8.24C34.72 8.0673 34.8027 7.97425 34.8061 7.97065C34.8072 7.96954 34.7943 7.98302 34.7584 8.00623C34.7232 8.02911 34.6721 8.05725 34.6024 8.08744C34.3098 8.21424 33.8229 8.32 33.2 8.32V10.32C34.0171 10.32 34.7902 10.1858 35.3976 9.92255C35.9112 9.70001 36.72 9.1874 36.72 8.24H34.72ZM33.2 8.32H11.6V10.32H33.2V8.32ZM11.6 8.32C9.16662 8.32 7.09966 8.44168 5.52331 8.56294L5.6767 10.557C7.22034 10.4383 9.23338 10.32 11.6 10.32V8.32ZM3.19844 23.655L1.63844 21.255L-0.0384436 22.345L1.52156 24.745L3.19844 23.655ZM0.675964 22.7923C2.64724 23.0387 5.93018 23.16 6.44 23.16V21.16C5.98983 21.16 2.79276 21.0413 0.924037 20.8077L0.675964 22.7923ZM6.44 23.16H30.08V21.16H6.44V23.16ZM30.8148 22.8383L35.1348 18.1583L33.6652 16.8017L29.3452 21.4817L30.8148 22.8383ZM33.8079 18.2859L39.6879 22.6059L40.8721 20.9941L34.9921 16.6741L33.8079 18.2859ZM39.7839 22.6682C40.1201 22.8604 40.2689 23.015 40.3286 23.0964C40.3816 23.1687 40.36 23.1749 40.36 23.12H42.36C42.36 22.2518 41.7717 21.5006 40.7761 20.9318L39.7839 22.6682ZM40.36 23.12C40.36 22.9364 40.4527 22.8242 40.4783 22.7998C40.4892 22.7893 40.4473 22.8306 40.2958 22.8861C39.9958 22.9961 39.4941 23.08 38.84 23.08V25.08C39.6259 25.08 40.3842 24.9839 40.9843 24.7639C41.4832 24.5809 42.36 24.1151 42.36 23.12H40.36ZM38.84 23.08H8.24V25.08H38.84V23.08ZM8.24 23.08C7.08391 23.08 5.96107 23.1104 4.95516 23.1404C3.94095 23.1707 3.06094 23.2 2.36 23.2V25.2C3.09907 25.2 4.01906 25.1693 5.01484 25.1396C6.01893 25.1096 7.11609 25.08 8.24 25.08V23.08ZM6.67845 38.655L5.11844 36.255L3.44156 37.345L5.00156 39.745L6.67845 38.655ZM4.15596 37.7923C6.12724 38.0387 9.41018 38.16 9.92 38.16V36.16C9.46983 36.16 6.27276 36.0413 4.40404 35.8077L4.15596 37.7923ZM9.92 38.16H23.96V36.16H9.92V38.16ZM24.6948 37.8383L29.0148 33.1583L27.5452 31.8017L23.2252 36.4817L24.6948 37.8383ZM27.6879 33.2859L33.5679 37.6059L34.7521 35.9941L28.8721 31.6741L27.6879 33.2859ZM33.6639 37.6682C34.059 37.894 34.2675 38.0517 34.3679 38.1521C34.4637 38.2479 34.36 38.1883 34.36 38H36.36C36.36 37.4517 36.0763 37.0321 35.7821 36.7379C35.4925 36.4483 35.101 36.186 34.6561 35.9318L33.6639 37.6682ZM34.36 38C34.36 37.7913 34.4686 37.6898 34.4581 37.6999C34.4449 37.7125 34.3733 37.7696 34.2036 37.8385C33.8693 37.9743 33.3426 38.08 32.72 38.08V40.08C33.5375 40.08 34.3307 39.9456 34.9564 39.6915C35.2667 39.5654 35.5851 39.39 35.8419 39.1439C36.1014 38.8952 36.36 38.5087 36.36 38H34.36ZM32.72 38.08H11.72V40.08H32.72V38.08ZM11.72 38.08C10.5636 38.08 9.47054 38.1104 8.47971 38.1405C7.48195 38.1707 6.60094 38.2 5.84 38.2V40.2C6.63906 40.2 7.55805 40.1693 8.54029 40.1395C9.52946 40.1096 10.5964 40.08 11.72 40.08V38.08ZM7.03844 53.415L5.47844 51.015L3.80156 52.105L5.36156 54.505L7.03844 53.415ZM4.52316 52.5531C6.63251 52.8013 9.81439 52.8 10.4 52.8V50.8C9.78561 50.8 6.72749 50.7987 4.75684 50.5668L4.52316 52.5531ZM10.4 52.8H24.32V50.8H10.4V52.8ZM25.0548 52.4783L29.3748 47.7983L27.9052 46.4417L23.5852 51.1217L25.0548 52.4783ZM28.0479 47.9259L33.9279 52.2459L35.1121 50.6341L29.2321 46.3141L28.0479 47.9259ZM34.0239 52.3082C34.419 52.534 34.6275 52.6917 34.7279 52.7921C34.8237 52.8879 34.72 52.8283 34.72 52.64H36.72C36.72 52.0917 36.4363 51.6721 36.1421 51.3779C35.8525 51.0883 35.461 50.826 35.0161 50.5718L34.0239 52.3082ZM34.72 52.64C34.72 52.4673 34.8027 52.3742 34.8061 52.3706C34.8072 52.3695 34.7943 52.383 34.7584 52.4062C34.7232 52.4291 34.6721 52.4573 34.6024 52.4874C34.3098 52.6142 33.8229 52.72 33.2 52.72V54.72C34.0171 54.72 34.7902 54.5858 35.3976 54.3226C35.9112 54.1 36.72 53.5874 36.72 52.64H34.72ZM33.2 52.72H12.2V54.72H33.2V52.72ZM12.2 52.72C9.76662 52.72 7.69966 52.8417 6.1233 52.9629L6.2767 54.9571C7.82034 54.8383 9.83338 54.72 12.2 54.72V52.72ZM213.8 19.64H214.8V18.64H213.8V19.64ZM190.64 19.64V18.64H189.64V19.64H190.64ZM190.64 81.08H189.64V82.08H190.64V81.08ZM213.8 81.08V82.08H214.8V81.08H213.8ZM185.24 22.64H186.24V22.6197L186.239 22.5995L185.24 22.64ZM184.88 13.76L185.409 12.9111L183.804 11.9122L183.881 13.8005L184.88 13.76ZM191.24 17.72L190.711 18.5689L190.954 18.72H191.24V17.72ZM212.6 17.72V18.72H213.014L213.307 18.4271L212.6 17.72ZM215.72 14.6L216.288 13.7771L215.602 13.3035L215.013 13.8929L215.72 14.6ZM220.76 18.08L221.329 17.2578L221.328 17.2571L220.76 18.08ZM219.2 21.92V20.92H218.2V21.92H219.2ZM219.2 80H218.2V80.0399L218.203 80.0797L219.2 80ZM213.8 83H214.8V82H213.8V83ZM190.64 83V82H189.64V83H190.64ZM121.28 34.88L120.344 35.2311L120.601 35.9176L121.333 35.8786L121.28 34.88ZM120.2 32L120.262 31.0019L118.722 30.9069L119.264 32.3511L120.2 32ZM129.92 32.6L129.858 33.5981L129.889 33.6H129.92V32.6ZM149 32.6V33.6H150V32.6H149ZM149 12.08H150V10.8645L148.807 11.0987L149 12.08ZM123.44 15.56L122.484 15.8541L122.724 16.6349L123.538 16.5552L123.44 15.56ZM122.96 14L122.792 13.0143L121.669 13.2061L122.004 14.2941L122.96 14ZM170.72 0.559996L171.308 -0.24874L170.842 -0.587732L170.315 -0.354354L170.72 0.559996ZM176 4.4L176.6 3.59999L176.594 3.59558L176.588 3.59126L176 4.4ZM172.88 6.19999L173.216 5.25825L172.921 5.15283L172.619 5.23477L172.88 6.19999ZM155.24 10.76L155.03 9.78219L155.157 11.7565L155.24 10.76ZM154.4 13.4L154.455 12.4015L153.4 12.3429V13.4H154.4ZM154.4 32.6H153.4V33.6H154.4V32.6ZM167.96 32.6V33.6H168.337L168.62 33.3516L167.96 32.6ZM173.84 27.44L174.431 26.6331L173.783 26.1592L173.18 26.6884L173.84 27.44ZM180.56 32.36L181.267 31.6529L181.213 31.5985L181.151 31.5531L180.56 32.36ZM154.4 34.4V33.4H153.4V34.4H154.4ZM154.4 44.84H153.4V45.4675L153.965 45.7404L154.4 44.84ZM172.16 66.44L171.258 66.8715L171.268 66.893L171.28 66.9141L172.16 66.44ZM154.4 47L154.989 46.1922L153.4 45.0323V47H154.4ZM151.4 102.8L151.188 101.823L151.106 101.841L151.029 101.872L151.4 102.8ZM149 50.48H150V47.0459L148.156 49.9431L149 50.48ZM122.48 83.6L121.773 84.3071L122.484 85.0187L123.192 84.3026L122.48 83.6ZM121.28 82.4L120.516 81.7548L119.923 82.4571L120.573 83.1071L121.28 82.4ZM148.88 34.4L149.82 34.7402L150.305 33.4H148.88V34.4ZM130.28 34.4V33.4H130.253L130.227 33.4014L130.28 34.4ZM213.8 18.64H190.64V20.64H213.8V18.64ZM189.64 19.64V81.08H191.64V19.64H189.64ZM190.64 82.08H213.8V80.08H190.64V82.08ZM214.8 81.08V19.64H212.8V81.08H214.8ZM186.24 91.52V22.64H184.24V91.52H186.24ZM186.239 22.5995L185.879 13.7195L183.881 13.8005L184.241 22.6805L186.239 22.5995ZM184.351 14.6089L190.711 18.5689L191.769 16.8711L185.409 12.9111L184.351 14.6089ZM191.24 18.72H212.6V16.72H191.24V18.72ZM213.307 18.4271L216.427 15.3071L215.013 13.8929L211.893 17.0129L213.307 18.4271ZM215.152 15.4229L220.192 18.9029L221.328 17.2571L216.288 13.7771L215.152 15.4229ZM220.191 18.9022C220.917 19.4046 221.342 19.8181 221.576 20.1189C221.822 20.4363 221.8 20.5527 221.8 20.48H223.8C223.8 19.9273 223.538 19.3837 223.154 18.8911C222.758 18.3819 222.163 17.8354 221.329 17.2578L220.191 18.9022ZM221.8 20.48C221.8 20.3926 221.862 20.367 221.789 20.4245C221.693 20.5001 221.498 20.5982 221.18 20.687C220.555 20.8622 219.757 20.92 219.2 20.92V22.92C219.843 22.92 220.845 22.8578 221.72 22.613C222.152 22.4918 222.632 22.3049 223.024 21.998C223.438 21.673 223.8 21.1674 223.8 20.48H221.8ZM218.2 21.92V80H220.2V21.92H218.2ZM218.203 80.0797C218.443 83.0794 218.56 85.084 218.56 86.48H220.56C220.56 84.996 220.437 82.9206 220.197 79.9203L218.203 80.0797ZM218.56 86.48C218.56 87.9231 218.038 88.5773 217.501 88.9262C216.887 89.3247 216.07 89.44 215.36 89.44V91.44C216.21 91.44 217.493 91.3153 218.589 90.6038C219.762 89.8427 220.56 88.5169 220.56 86.48H218.56ZM215.36 89.44C215.002 89.44 215.012 89.3859 215.076 89.4364C215.146 89.491 215.061 89.4892 214.977 89.0522C214.897 88.6306 214.848 87.9831 214.824 86.9734C214.8 85.9758 214.8 84.685 214.8 83H212.8C212.8 84.675 212.8 85.9942 212.825 87.0216C212.849 88.0369 212.898 88.8294 213.013 89.4278C213.124 90.0108 213.332 90.609 213.84 91.0086C214.343 91.4041 214.938 91.44 215.36 91.44V89.44ZM213.8 82H190.64V84H213.8V82ZM189.64 83C189.64 85.1198 189.701 86.8453 189.761 88.2625C189.822 89.6936 189.88 90.7681 189.88 91.64H191.88C191.88 90.7119 191.818 89.5664 191.759 88.1775C191.699 86.7747 191.64 85.0802 191.64 83H189.64ZM189.88 91.64C189.88 92.3318 189.861 93.1151 189.504 93.7357C189.212 94.2409 188.571 94.84 186.8 94.84V96.84C189.109 96.84 190.508 95.9991 191.236 94.7343C191.899 93.5849 191.88 92.2682 191.88 91.64H189.88ZM186.8 94.84C186.532 94.84 186.391 94.8001 186.328 94.7724C186.278 94.7509 186.264 94.7337 186.252 94.7153C186.231 94.684 186.193 94.6082 186.164 94.4461C186.134 94.2831 186.12 94.0731 186.12 93.8H184.12C184.12 94.4088 184.167 95.1933 184.588 95.8247C185.077 96.5586 185.88 96.84 186.8 96.84V94.84ZM186.12 93.8C186.12 93.4856 186.146 93.1355 186.177 92.7367C186.206 92.3555 186.24 91.9256 186.24 91.52H184.24C184.24 91.8344 184.214 92.1845 184.183 92.5833C184.154 92.9645 184.12 93.3944 184.12 93.8H186.12ZM122.216 34.5289L121.136 31.6489L119.264 32.3511L120.344 35.2311L122.216 34.5289ZM120.138 32.9981L129.858 33.5981L129.982 31.6019L120.262 31.0019L120.138 32.9981ZM129.92 33.6H149V31.6H129.92V33.6ZM150 32.6V12.08H148V32.6H150ZM148.807 11.0987C142.135 12.4093 129.453 13.9657 123.342 14.5648L123.538 16.5552C129.667 15.9543 142.425 14.3907 149.193 13.0612L148.807 11.0987ZM124.396 15.2659L123.916 13.7059L122.004 14.2941L122.484 15.8541L124.396 15.2659ZM123.128 14.9857C137.196 12.581 154.212 8.96436 171.125 1.47435L170.315 -0.354354C153.628 7.03562 136.804 10.619 122.792 13.0143L123.128 14.9857ZM170.132 1.36873L175.412 5.20873L176.588 3.59126L171.308 -0.24874L170.132 1.36873ZM175.4 5.2C175.838 5.52877 176.162 5.83443 176.366 6.08323C176.604 6.37409 176.56 6.44275 176.56 6.31999H178.56C178.56 5.71725 178.216 5.1859 177.914 4.81676C177.578 4.40556 177.122 3.99122 176.6 3.59999L175.4 5.2ZM176.56 6.31999C176.56 6.23635 176.583 6.13546 176.641 6.04152C176.696 5.95156 176.759 5.90686 176.786 5.89121C176.81 5.87724 176.805 5.88622 176.749 5.89789C176.694 5.90926 176.607 5.91999 176.48 5.91999V7.91999C176.927 7.91999 177.399 7.84935 177.794 7.61877C178.24 7.35865 178.56 6.90101 178.56 6.31999H176.56ZM176.48 5.91999C175.877 5.91999 174.791 5.82049 173.216 5.25825L172.544 7.14174C174.329 7.77949 175.643 7.91999 176.48 7.91999V5.91999ZM172.619 5.23477C166.838 6.8003 160.036 8.70948 155.03 9.78219L155.45 11.7378C160.524 10.6505 167.402 8.71969 173.141 7.16522L172.619 5.23477ZM155.157 11.7565C155.735 11.8047 156.129 11.9689 156.351 12.1222C156.606 12.2988 156.52 12.3637 156.52 12.2H158.52C158.52 11.4363 158.014 10.8412 157.489 10.4778C156.931 10.0911 156.185 9.8353 155.323 9.76345L155.157 11.7565ZM156.52 12.2C156.52 11.936 156.698 11.9986 156.344 12.1652C156.031 12.3125 155.431 12.4557 154.455 12.4015L154.345 14.3985C155.529 14.4643 156.489 14.3075 157.196 13.9748C157.862 13.6614 158.52 13.064 158.52 12.2H156.52ZM153.4 13.4V32.6H155.4V13.4H153.4ZM154.4 33.6H167.96V31.6H154.4V33.6ZM168.62 33.3516L174.5 28.1916L173.18 26.6884L167.3 31.8484L168.62 33.3516ZM173.249 28.2469L179.969 33.1669L181.151 31.5531L174.431 26.6331L173.249 28.2469ZM179.853 33.0671C180.17 33.3839 180.359 33.5757 180.479 33.7278C180.603 33.8858 180.52 33.8427 180.52 33.68H182.52C182.52 33.1573 182.257 32.7542 182.051 32.4922C181.841 32.2242 181.55 31.9361 181.267 31.6529L179.853 33.0671ZM180.52 33.68C180.52 33.5158 180.595 33.3677 180.683 33.2806C180.745 33.22 180.769 33.2329 180.66 33.2676C180.438 33.3386 179.996 33.4 179.24 33.4V35.4C180.044 35.4 180.742 35.3414 181.27 35.1724C181.536 35.0871 181.837 34.9499 182.083 34.7094C182.355 34.4423 182.52 34.0842 182.52 33.68H180.52ZM179.24 33.4H154.4V35.4H179.24V33.4ZM153.4 34.4V44.84H155.4V34.4H153.4ZM153.965 45.7404C161.006 49.1414 166.624 52.5791 170.465 55.8194C172.386 57.4394 173.835 58.987 174.797 60.4303C175.761 61.8765 176.2 63.162 176.2 64.28H178.2C178.2 62.638 177.559 60.9685 176.461 59.3209C175.36 57.6705 173.764 55.9856 171.755 54.2906C167.736 50.9009 161.954 47.3786 154.835 43.9395L153.965 45.7404ZM176.2 64.28C176.2 64.6638 176.094 65.6891 175.777 66.5872C175.619 67.0354 175.433 67.3798 175.239 67.5962C175.062 67.7944 174.926 67.84 174.8 67.84V69.84C175.634 69.84 176.278 69.4356 176.731 68.9288C177.167 68.4402 177.461 67.8246 177.663 67.2528C178.066 66.1109 178.2 64.8562 178.2 64.28H176.2ZM174.8 67.84C174.718 67.84 174.496 67.7941 174.149 67.4817C173.81 67.1765 173.425 66.68 173.04 65.9659L171.28 66.9141C171.735 67.7599 172.25 68.4635 172.811 68.9683C173.364 69.4659 174.042 69.84 174.8 69.84V67.84ZM173.062 66.0085C170.331 60.2981 163.961 52.7389 154.989 46.1922L153.811 47.8078C162.599 54.2211 168.709 61.5419 171.258 66.8715L173.062 66.0085ZM153.4 47V95.12H155.4V47H153.4ZM153.4 95.12C153.4 96.0631 153.463 96.907 153.523 97.6464C153.585 98.402 153.64 99.0112 153.64 99.56H155.64C155.64 98.9088 155.575 98.198 155.517 97.4836C155.457 96.753 155.4 95.9769 155.4 95.12H153.4ZM153.64 99.56C153.64 100.327 153.524 100.677 153.306 100.922C153.058 101.202 152.511 101.535 151.188 101.823L151.612 103.777C153.049 103.465 154.122 103.018 154.804 102.248C155.516 101.443 155.64 100.473 155.64 99.56H153.64ZM151.029 101.872C150.468 102.096 150.129 102.16 149.96 102.16V104.16C150.511 104.16 151.132 103.984 151.771 103.728L151.029 101.872ZM149.96 102.16C149.82 102.16 149.778 102.137 149.789 102.142C149.812 102.153 149.837 102.177 149.845 102.191C149.846 102.191 149.82 102.149 149.797 102.021C149.774 101.893 149.76 101.718 149.76 101.48H147.76C147.76 102.04 147.811 102.715 148.155 103.259C148.57 103.917 149.249 104.16 149.96 104.16V102.16ZM149.76 101.48C149.76 101.056 149.814 100.517 149.876 99.7966C149.937 99.1009 150 98.2853 150 97.4H148C148 98.1947 147.943 98.9391 147.884 99.6234C147.826 100.283 147.76 100.944 147.76 101.48H149.76ZM150 97.4V50.48H148V97.4H150ZM148.156 49.9431C138.124 65.7083 131.213 73.3333 121.768 82.8974L123.192 84.3026C132.707 74.6667 139.716 66.9317 149.844 51.0169L148.156 49.9431ZM123.187 82.8929L121.987 81.6929L120.573 83.1071L121.773 84.3071L123.187 82.8929ZM122.044 83.0452C131.218 72.1812 141.13 58.76 149.82 34.7402L147.94 34.0598C139.35 57.8 129.582 71.0188 120.516 81.7548L122.044 83.0452ZM148.88 33.4H130.28V35.4H148.88V33.4ZM130.227 33.4014L121.227 33.8814L121.333 35.8786L130.333 35.3986L130.227 33.4014Z" fill="#FF9B05" mask="url(#path-1-outside-1_894_6)"/>
</svg>
