<svg xmlns="http://www.w3.org/2000/svg" width="1969" height="1047" fill="none"><path fill="#fff" fill-opacity=".8" d="M644.047 646.49a478.075 478.075 0 0 0 5.45-72V.5H1968.5v432c-136-209.19-365.75-334-615-334-335.56 0-625.503 224.69-709.453 547.99Z"/><path fill="#000" d="M1968 1v429.85C1831.82 222.37 1602.35 98 1353.5 98c-332.92 0-621.003 221.05-707.743 540.13a479.314 479.314 0 0 0 4.24-63.63V1H1968Zm1-1H648.997v574.5a475.747 475.747 0 0 1-7.45 84C719.277 337.46 1008.54 99 1353.5 99c258.11 0 485 133.51 615.5 335.22V0Z"/><path fill="#fff" fill-opacity=".8" d="M138.389 1047c-46.433.02-92.653-5.79-137.389-17.29V1h648v574a441.303 441.303 0 0 1-8.049 83.94c-2.899 11-5.549 22.31-7.864 33.45-13.919 50.266-36.767 98.049-67.613 141.399-30.383 42.779-68.068 80.721-111.588 112.35C364 1011.63 252.838 1047.17 138.389 1047Z"/><path fill="#000" d="M648.917 1v573.5a440.479 440.479 0 0 1-8.05 83.83 686.949 686.949 0 0 0-7.875 33.43c-13.92 50.211-36.775 97.94-67.633 141.24-30.381 42.729-68.064 80.63-111.583 112.23-63.086 45.697-136.922 77.07-215.555 91.59-78.632 14.52-159.862 11.79-237.138-7.99V1h647.834ZM650 0H0v1029.59c44.967 11.59 91.439 17.44 138.125 17.41 238.767 0 439.346-150.9 495.928-355a660.498 660.498 0 0 1 7.876-33.45 440.144 440.144 0 0 0 8.071-84V0Z"/></svg>