<svg width="32" height="31" viewBox="0 0 32 31" fill="none" xmlns="http://www.w3.org/2000/svg">
<g clip-path="url(#clip0_1251_82)">
<path d="M10.3438 0.344238H13.5998V1.70575H11.7053V3.06726H13.5998V4.42877H10.3438V0.344238ZM14.2502 0.344238H17.5075V1.52893H15.613V1.76511H17.5075V4.48813H14.2502V3.24534H16.1447V3.0079H14.2502V0.344238ZM18.1592 0.344238H21.4139V1.52893H19.5194V1.76511H21.4139V4.48813H18.1592V3.24534H20.0537V3.0079H18.1592V0.344238Z" fill="black" fill-opacity="0.7"/>
<path fill-rule="evenodd" clip-rule="evenodd" d="M16.0118 30.6563L7.2416 28.2213L4.65625 6.302H27.3902L24.8061 28.2188L16.0118 30.6563ZM9.76759 16.2241L10.0088 18.9117H19.3259L19.014 22.3976L16.0156 23.2085H16.0131L13.0198 22.4001L12.8278 20.2568H10.1288L10.5052 24.4778L16.0118 26.006L21.5273 24.4778L22.1993 16.9453L22.2649 16.2241L22.7499 10.7818H9.28387L9.52889 13.4708H19.8046L19.5596 16.2241H9.76759Z" fill="black" fill-opacity="0.7"/>
</g>
<defs>
<clipPath id="clip0_1251_82">
<rect width="30.3119" height="30.3119" fill="white" transform="translate(0.859375 0.344238)"/>
</clipPath>
</defs>
</svg>
