<svg width="31" height="31" viewBox="0 0 31 31" fill="none" xmlns="http://www.w3.org/2000/svg">
<g clip-path="url(#clip0_1251_93)">
<path d="M0.570312 0.344238V30.6561H30.8822V0.344238H0.570312ZM17.0665 23.9843C17.0665 26.9343 15.3344 28.281 12.8109 28.281C10.531 28.281 9.21137 27.1042 8.53476 25.6763L10.8558 24.2755C11.3029 25.0668 11.7088 25.7369 12.6897 25.7369C13.6228 25.7369 14.2182 25.371 14.2182 23.9442V14.2617H17.0665V23.9843ZM23.8044 28.281C21.1586 28.281 19.447 27.023 18.6145 25.371L20.9356 24.0319C21.5451 25.0268 22.3429 25.764 23.7438 25.764C24.9205 25.764 25.6794 25.1751 25.6794 24.3567C25.6794 23.3824 24.9075 23.037 23.6019 22.4622L22.8918 22.158C20.8349 21.2854 19.4752 20.1823 19.4752 17.8613C19.4752 15.7232 21.1055 14.0993 23.6431 14.0993C25.4564 14.0993 26.7555 14.7283 27.6897 16.3792L25.4704 17.8006C24.9833 16.9281 24.455 16.5828 23.6366 16.5828C22.8052 16.5828 22.2769 17.111 22.2769 17.8006C22.2769 18.6537 22.8052 18.998 24.0296 19.5327L24.7397 19.837C27.1625 20.8719 28.5222 21.935 28.5222 24.3155C28.5222 26.8736 26.5054 28.2799 23.8055 28.2799L23.8044 28.281Z" fill="black" fill-opacity="0.7"/>
</g>
<defs>
<clipPath id="clip0_1251_93">
<rect width="30.3119" height="30.3119" fill="white" transform="translate(0.570312 0.344238)"/>
</clipPath>
</defs>
</svg>
