<svg width="32" height="31" viewBox="0 0 32 31" fill="none" xmlns="http://www.w3.org/2000/svg">
<g clip-path="url(#clip0_1251_78)">
<path d="M16.0622 0.344238C7.68854 0.344238 0.90625 7.12652 0.90625 15.5002C0.90625 22.2067 5.24464 27.8712 11.2691 29.8794C12.0269 30.012 12.3111 29.5573 12.3111 29.1595C12.3111 28.7995 12.2922 27.606 12.2922 26.3367C8.48422 27.0376 7.49909 25.4084 7.19597 24.5559C7.02546 24.1201 6.28661 22.775 5.64248 22.4151C5.11202 22.1309 4.35423 21.4299 5.62354 21.411C6.81707 21.3921 7.66959 22.5098 7.95376 22.9645C9.3178 25.2568 11.4965 24.6127 12.3679 24.2149C12.5005 23.2297 12.8984 22.5666 13.3341 22.1877C9.96193 21.8088 6.43817 20.5016 6.43817 14.7045C6.43817 13.0563 7.02546 11.6923 7.99165 10.6313C7.8401 10.2524 7.30964 8.69895 8.14321 6.61501C8.14321 6.61501 9.41252 6.21717 12.3111 8.1685C13.5236 7.82749 14.8118 7.65698 16.1001 7.65698C17.3883 7.65698 18.6766 7.82749 19.8891 8.1685C22.7876 6.19822 24.057 6.61501 24.057 6.61501C24.8905 8.69895 24.3601 10.2524 24.2085 10.6313C25.1747 11.6923 25.762 13.0373 25.762 14.7045C25.762 20.5206 22.2193 21.8088 18.8471 22.1877C19.3965 22.6614 19.8701 23.5707 19.8701 24.9916C19.8701 27.0187 19.8512 28.648 19.8512 29.1595C19.8512 29.5573 20.1354 30.0309 20.8932 29.8794C23.902 28.8639 26.5167 26.9303 28.3689 24.3508C30.2211 21.7713 31.2176 18.6758 31.2181 15.5002C31.2181 7.12652 24.4359 0.344238 16.0622 0.344238Z" fill="black" fill-opacity="0.7"/>
</g>
<defs>
<clipPath id="clip0_1251_78">
<rect width="30.3119" height="30.3119" fill="white" transform="translate(0.90625 0.344238)"/>
</clipPath>
</defs>
</svg>
