<svg width="31" height="31" viewBox="0 0 31 31" fill="none" xmlns="http://www.w3.org/2000/svg">
<path fill-rule="evenodd" clip-rule="evenodd" d="M30.3588 0.344238H0.046875V30.6561H30.3588V0.344238ZM11.4182 4.32355C10.3295 4.32355 9.28541 4.75602 8.5156 5.52583C7.74579 6.29564 7.31332 7.33972 7.31332 8.42839C7.31332 9.51706 7.74579 10.5611 8.5156 11.3309C8.76274 11.5781 9.03816 11.7905 9.33424 11.9649C9.0383 12.1393 8.76301 12.3516 8.51597 12.5987C7.74627 13.3684 7.31385 14.4123 7.31385 15.5008C7.31385 16.5894 7.74627 17.6333 8.51597 18.403C8.76282 18.6499 9.03786 18.862 9.33354 19.0363C9.26719 19.0754 9.20182 19.1165 9.13753 19.1594C8.4626 19.6104 7.93654 20.2513 7.62586 21.0012C7.31518 21.7511 7.23383 22.5762 7.3921 23.3724C7.55036 24.1685 7.94114 24.8998 8.51501 25.4739C9.08889 26.0479 9.82009 26.4389 10.6162 26.5974C11.4122 26.7559 12.2374 26.6748 12.9874 26.3643C13.7374 26.0539 14.3785 25.528 14.8296 24.8532C15.2808 24.1785 15.5217 23.385 15.5219 22.5733V22.5732V19.6051H15.5225V19.0368V18.3362C15.5439 18.3586 15.5656 18.3808 15.5875 18.4028C16.3573 19.1726 17.4014 19.605 18.4901 19.605C19.5787 19.605 20.6228 19.1726 21.3926 18.4028C22.1624 17.6329 22.5949 16.5889 22.5949 15.5002C22.5949 14.4115 22.1624 13.3674 21.3926 12.5976C21.1461 12.3511 20.8714 12.1391 20.5761 11.9649C20.8722 11.7904 21.1476 11.5781 21.3947 11.3309C22.1645 10.5611 22.597 9.51706 22.597 8.42839C22.597 7.33972 22.1645 6.29564 21.3947 5.52583C20.6249 4.75602 19.5808 4.32355 18.4921 4.32355H15.5225H14.9562H14.9541H14.3878H11.4182ZM15.5225 12.5332V12.6642C15.5439 12.6418 15.5656 12.6196 15.5875 12.5976C15.6093 12.5759 15.6312 12.5544 15.6534 12.5332H15.5225ZM18.5547 11.3959C18.5332 11.3955 18.5116 11.3954 18.4901 11.3954C18.4574 11.3954 18.4247 11.3958 18.3921 11.3965H15.5245V5.46025H18.4921C19.2793 5.46025 20.0343 5.77296 20.5909 6.3296C21.1476 6.88623 21.4603 7.64119 21.4603 8.42839C21.4603 9.21559 21.1476 9.97054 20.5909 10.5272C20.0491 11.069 19.3193 11.3798 18.5547 11.3959ZM18.4068 12.5332C17.6498 12.5545 16.9283 12.8644 16.3913 13.4014C15.8479 13.9448 15.5369 14.6772 15.5225 15.4442V15.5562C15.5369 16.3231 15.8479 17.0556 16.3913 17.599C16.9479 18.1556 17.7029 18.4683 18.4901 18.4683C19.2773 18.4683 20.0322 18.1556 20.5889 17.599C21.1455 17.0424 21.4582 16.2874 21.4582 15.5002C21.4582 14.713 21.1455 13.958 20.5889 13.4014C20.0474 12.8599 19.3183 12.5493 18.5544 12.5328C18.5336 12.5331 18.5129 12.5332 18.4921 12.5332H18.4068ZM14.3852 15.5002C14.3852 15.4782 14.3854 15.4562 14.3858 15.4343V12.5332H11.4182C10.6311 12.5332 9.87628 12.8459 9.31974 13.4024C8.76321 13.959 8.45055 14.7138 8.45055 15.5008C8.45055 16.2879 8.76321 17.0427 9.31974 17.5993C9.87628 18.1558 10.6311 18.4684 11.4182 18.4684H14.3858V15.5661C14.3854 15.5441 14.3852 15.5222 14.3852 15.5002ZM9.31937 10.5272C9.876 11.0838 10.631 11.3965 11.4182 11.3965H14.3858V5.46025H11.4182C10.631 5.46025 9.876 5.77296 9.31937 6.3296C8.76273 6.88623 8.45002 7.64119 8.45002 8.42839C8.45002 9.21559 8.76273 9.97054 9.31937 10.5272ZM11.4176 19.6056C10.8301 19.6056 10.2565 19.7789 9.769 20.1046C9.281 20.4306 8.90064 20.894 8.676 21.4363C8.45136 21.9785 8.39254 22.5751 8.50698 23.1507C8.62141 23.7264 8.90396 24.2552 9.3189 24.6702C9.73384 25.0853 10.2625 25.368 10.8381 25.4826C11.4137 25.5972 12.0104 25.5386 12.5527 25.3141C13.0949 25.0896 13.5585 24.7094 13.8847 24.2215C14.2108 23.7336 14.385 23.16 14.3852 22.5732V22.573V19.6056H11.4176Z" fill="black" fill-opacity="0.7"/>
</svg>
