<svg width="30" height="31" viewBox="0 0 30 31" fill="none" xmlns="http://www.w3.org/2000/svg">
<g clip-path="url(#clip0_1251_85)">
<mask id="mask0_1251_85" style="mask-type:luminance" maskUnits="userSpaceOnUse" x="0" y="0" width="30" height="31">
<path d="M0.09375 0.344238H29.6478V30.6561H0.09375V0.344238Z" fill="white"/>
</mask>
<g mask="url(#mask0_1251_85)">
<path d="M6.35938 0.344238H7.69177V1.69438H8.91088V0.344238H10.2433V4.43129H8.91088V3.06347H7.69177V4.43129H6.36061L6.35938 0.344238ZM11.9944 1.69943H10.822V0.344238H14.5003V1.69943H13.3268V4.43129H11.9944V1.69943ZM15.084 0.344238H16.473L17.3276 1.78026L18.181 0.344238H19.5701V4.43129H18.2438V2.40545L17.3276 3.85915H17.3042L16.3868 2.40671V4.43129H15.084V0.344238ZM20.2326 0.344238H21.5662V3.08115H23.4379V4.43255H20.2326V0.344238Z" fill="black" fill-opacity="0.7"/>
<path fill-rule="evenodd" clip-rule="evenodd" d="M6.31636 28.2213L3.79688 6.302H25.9624L23.4417 28.2188L14.8673 30.6563L6.31636 28.2213ZM11.4107 16.2228L11.1719 13.4695H21.2018L21.4357 10.7818H8.3088L9.01564 18.9117H18.0998L17.7957 22.3976L14.8723 23.2085H14.8698L11.9513 22.4001L11.7642 20.2568H9.13139L9.49835 24.4778L14.8673 26.006L20.245 24.4778L20.9001 16.9453L20.9641 16.2241L11.4107 16.2228Z" fill="black" fill-opacity="0.7"/>
</g>
</g>
<defs>
<clipPath id="clip0_1251_85">
<rect width="29.5541" height="30.3119" fill="white" transform="translate(0.09375 0.344238)"/>
</clipPath>
</defs>
</svg>
