<svg width="31" height="31" viewBox="0 0 31 31" fill="none" xmlns="http://www.w3.org/2000/svg">
<g clip-path="url(#clip0_1251_103)">
<path fill-rule="evenodd" clip-rule="evenodd" d="M30.3119 30.6561H0V0.344238H30.3119V30.6561ZM24.0607 13.1921V10.8412C23.6735 10.6688 21.4563 10.0345 19.7046 10.7029C17.1814 11.6657 17.272 14.566 18.2295 15.7043C19.4701 17.1792 22.5562 17.7291 22.0512 19.1767C21.7897 19.9263 20.5689 20.0568 19.4926 19.8051C18.4903 19.5708 17.6188 18.9771 17.6188 18.9771V21.4663C17.6188 21.4663 18.4802 21.9466 19.5374 22.0608C20.8928 22.2072 22.5917 21.9307 23.4428 21.1743C24.9578 19.8276 25.1904 16.8443 22.3194 15.459C19.9302 14.3064 19.9696 13.9774 19.9863 13.3861C20.0088 12.5942 21.6715 12.1067 24.0607 13.1921ZM11.1769 6.59459C13.1648 6.66373 16.0861 7.5799 16.0861 11.4865C16.0861 15.3931 12.5118 16.6751 9.2504 16.3957V21.9273H6.82077V6.64639C6.82077 6.64639 9.189 6.52544 11.1769 6.59459ZM11.8078 13.9757C12.8554 13.5934 13.5364 12.7716 13.5364 11.4951C13.5364 10.1417 12.8434 9.22515 11.7836 8.96625C10.6359 8.68581 9.25034 8.85111 9.25034 8.85111V14.182C9.25034 14.182 11.1682 14.2091 11.8078 13.9757Z" fill="black" fill-opacity="0.7"/>
</g>
<defs>
<clipPath id="clip0_1251_103">
<rect width="30.3119" height="30.3119" fill="white" transform="translate(0 0.344238)"/>
</clipPath>
</defs>
</svg>
