<svg width="31" height="31" viewBox="0 0 31 31" fill="none" xmlns="http://www.w3.org/2000/svg">
<g clip-path="url(#clip0_1251_80)">
<path d="M11.7393 19.0572L11.785 19.0794L11.8664 19.1188C11.9704 19.1683 12.0753 19.2173 12.1812 19.2644L12.2477 19.294C12.3692 19.3473 12.4914 19.398 12.615 19.4467L12.7045 19.4818C12.8187 19.5263 12.9347 19.5694 13.051 19.6104L13.0945 19.6253C13.2222 19.6698 13.351 19.7113 13.481 19.7518L13.5746 19.7795C13.7067 19.8195 13.8372 19.8671 13.9736 19.8924C22.63 21.4708 25.1442 14.6904 25.1442 14.6904C23.0323 17.4417 19.2839 18.1675 15.7322 17.3595C15.5976 17.3292 15.4669 17.287 15.3357 17.2482L15.237 17.2183C15.1091 17.1791 14.9818 17.1377 14.8552 17.0943L14.8029 17.0753C14.6901 17.0354 14.5779 16.9938 14.4664 16.9505L14.3721 16.9136C14.2501 16.8656 14.129 16.8152 14.0089 16.7625L13.9362 16.7303C13.8335 16.684 13.7313 16.6364 13.6297 16.5877L13.5409 16.5451C13.4614 16.5063 13.3825 16.4648 13.3039 16.4243L13.1457 16.3414C13.0501 16.29 12.9554 16.2369 12.8618 16.1821L12.7658 16.1285C12.6413 16.0548 12.5179 15.9792 12.3957 15.9017L12.296 15.8354C12.2073 15.7785 12.1195 15.7201 12.0327 15.6604L11.9479 15.6007C11.8641 15.5415 11.7812 15.4816 11.699 15.4207L11.5887 15.3371C11.5131 15.2797 11.4382 15.2212 11.3642 15.1619L11.264 15.0814C11.1697 15.004 11.0764 14.9254 10.9841 14.8457L10.9535 14.8199C10.8538 14.7326 10.7556 14.6436 10.6589 14.553L10.5761 14.4732C10.5043 14.4053 10.434 14.3366 10.3646 14.2663L10.2817 14.1834C10.1938 14.0933 10.1073 14.0019 10.0224 13.9091L10.0096 13.8954C9.92001 13.7973 9.83229 13.6975 9.7465 13.5961L9.67759 13.5141C9.61365 13.4372 9.55018 13.359 9.48838 13.2802L9.41899 13.194C9.34473 13.098 9.27187 13.001 9.20041 12.9029C7.22872 10.2132 6.52018 6.50357 8.09616 3.45698L6.69921 5.22881C4.90915 7.80129 5.13223 11.1484 6.49934 13.8821L6.59951 14.0766L6.66369 14.1997L6.70347 14.2705L6.77475 14.3982C6.81714 14.473 6.86048 14.5473 6.905 14.6217L6.97959 14.7446C7.02885 14.8242 7.07929 14.9028 7.13115 14.9814L7.19556 15.0814C7.26685 15.1874 7.33978 15.2935 7.41485 15.3977L7.42125 15.406L7.45819 15.456C7.52331 15.5457 7.59033 15.6343 7.65806 15.7219L7.73336 15.8176C7.79375 15.8936 7.85556 15.9694 7.91808 16.0447L7.98865 16.1288C8.07272 16.228 8.15844 16.3265 8.24606 16.4229L8.25127 16.4283L8.26122 16.4392C8.34647 16.5325 8.43409 16.6235 8.52266 16.7149L8.60649 16.7994C8.67516 16.8686 8.74479 16.9365 8.81536 17.0043L8.90085 17.0855C8.99486 17.1741 9.08982 17.261 9.18691 17.3462L9.19165 17.3498L9.24138 17.3924C9.32687 17.4663 9.41402 17.5399 9.50164 17.6122L9.60939 17.6979C9.6809 17.7552 9.75337 17.8118 9.82631 17.8674L9.94211 17.9555C10.0226 18.0147 10.1036 18.073 10.1853 18.1301L10.2741 18.1931L10.2985 18.2103C10.3762 18.2639 10.4555 18.315 10.5348 18.3664L10.6371 18.4346C10.7586 18.5116 10.8822 18.5876 11.007 18.661L11.1094 18.7188C11.2012 18.7716 11.2934 18.8235 11.3869 18.8741L11.5403 18.9537L11.7393 19.0572ZM12.6138 10.3437C12.8078 10.6217 13.0226 10.9523 13.28 11.1759C13.3733 11.2786 13.4708 11.3786 13.5703 11.4773L13.647 11.5526C13.7439 11.6464 13.8422 11.7385 13.9435 11.8283L13.9558 11.8387L13.9587 11.8418C14.0712 11.9403 14.1872 12.035 14.3051 12.1283L14.384 12.1899C14.5024 12.2806 14.6229 12.3696 14.7465 12.4546L14.7572 12.4625L14.9225 12.5714L15.0011 12.6235C15.0894 12.6799 15.1787 12.7353 15.2699 12.7878L15.3078 12.8099C15.3862 12.8551 15.4657 12.8996 15.5453 12.9427L15.6296 12.987L15.7959 13.073L15.821 13.0843C15.9351 13.1404 16.0502 13.1944 16.1676 13.2458L16.2441 13.2773C16.3379 13.3171 16.4329 13.3562 16.5281 13.3927L16.6498 13.4372C16.7365 13.4694 16.8231 13.4987 16.9108 13.5279L17.0289 13.5658C17.1535 13.6044 17.2764 13.6531 17.4062 13.6747C24.0895 14.7823 25.6325 9.63611 25.6325 9.63611C24.2415 11.6393 21.548 12.5948 18.6736 11.8489C18.5466 11.8155 18.4204 11.779 18.2952 11.7395L18.1813 11.7028C18.0925 11.6741 18.0041 11.6436 17.9165 11.6116L17.7971 11.5671C17.7015 11.5303 17.6064 11.4921 17.512 11.4522L17.4353 11.4195C17.3178 11.3684 17.2015 11.3143 17.0867 11.2573L16.9117 11.1683L16.8108 11.1164C16.7365 11.0762 16.6626 11.034 16.5896 10.9916L16.5368 10.9615C16.4465 10.9088 16.3571 10.8544 16.2688 10.7984L16.188 10.7442L16.0147 10.6295C15.8921 10.5445 15.7717 10.4565 15.6535 10.3655L15.5723 10.3013C14.3141 9.30836 13.3169 7.95048 12.8426 6.41097C12.3457 4.81486 12.4528 3.02267 13.3136 1.56841L12.256 3.06175C10.9616 4.92427 11.0319 7.41813 12.0417 9.38817C12.2106 9.71925 12.4017 10.0385 12.6138 10.3437ZM19.6583 8.03929L19.8243 8.09683L19.8974 8.12004C19.9763 8.14467 20.0542 8.17356 20.1354 8.18872C23.8257 8.90176 24.8269 6.29493 25.0933 5.9113C24.2164 7.17374 22.743 7.47662 20.9349 7.03781C20.7869 7.00014 20.6408 6.95509 20.4973 6.90283C20.3206 6.84002 20.1472 6.76809 19.9779 6.68733C19.6567 6.53276 19.3516 6.34657 19.0672 6.13153C17.4493 4.90367 16.4442 2.56231 17.4999 0.655029L16.9288 1.44219C16.1658 2.56539 16.0907 3.96021 16.6202 5.20015C17.1786 6.51683 18.3229 7.54933 19.6583 8.03929ZM16.0961 23.1481H15.0954C15.067 23.1492 15.0398 23.1594 15.0178 23.1772C14.9957 23.195 14.98 23.2194 14.9729 23.2469L14.6177 24.8903L14.2625 26.5338C14.2555 26.5612 14.2398 26.5857 14.2178 26.6035C14.1958 26.6213 14.1686 26.6315 14.1403 26.6326H13.432C12.7313 26.6326 12.8123 26.1478 12.9558 25.4838L12.96 25.4637L12.9757 25.3798L12.9785 25.3642L13.0105 25.1937L13.0448 25.0111L13.0813 24.8252L13.2428 24.0362L13.4045 23.2471C13.4076 23.235 13.4078 23.2224 13.4052 23.2103C13.4025 23.1981 13.397 23.1868 13.3892 23.1771C13.3813 23.1675 13.3713 23.1598 13.3599 23.1547C13.3486 23.1496 13.3362 23.1473 13.3238 23.1479H12.2967C12.2684 23.1489 12.2413 23.1591 12.2193 23.177C12.1973 23.1948 12.1818 23.2194 12.175 23.2469L11.9541 24.2945L11.7334 25.3424L11.7329 25.3438L11.7125 25.4414C11.4582 26.6025 11.5254 27.71 12.9079 27.7449L12.9482 27.7456H15.1181C15.1464 27.7445 15.1736 27.7343 15.1956 27.7165C15.2176 27.6987 15.2333 27.6743 15.2403 27.6468L15.7082 25.4471L16.1762 23.2471C16.1878 23.1926 16.1518 23.1483 16.0961 23.1481ZM5.37898 23.1365H4.28018C4.25179 23.1376 4.2245 23.1478 4.2023 23.1655C4.1801 23.1832 4.16416 23.2076 4.1568 23.235L4.0526 23.6949L3.9484 24.1548C3.93633 24.209 3.97161 24.2533 4.02726 24.2533H5.13459C5.16295 24.2523 5.19021 24.2421 5.21232 24.2243C5.23442 24.2065 5.25019 24.182 5.25726 24.1546L5.35791 23.6949L5.45855 23.2353C5.47016 23.181 5.43463 23.1365 5.37898 23.1365ZM5.06023 24.5678H3.95267C3.92429 24.5689 3.89702 24.5791 3.87483 24.5968C3.85263 24.6145 3.83668 24.6389 3.82929 24.6663L3.6737 25.3554L3.51835 26.0443L3.47502 26.2418L3.32559 26.9451L3.1764 27.6487C3.16479 27.7029 3.14088 27.7906 3.12312 27.8431C3.12312 27.8431 2.91614 28.4588 2.56827 28.4517L2.52469 28.4508L2.2237 28.4453C2.19543 28.446 2.16788 28.4557 2.14554 28.4731C2.12321 28.4904 2.10702 28.5145 2.09938 28.5417L1.98452 29.0246L1.86991 29.5072C1.85688 29.5612 1.89193 29.6057 1.94711 29.6067C2.14437 29.609 2.58626 29.614 2.85362 29.614C3.72249 29.614 4.18072 29.1326 4.47413 27.7472L4.81774 26.1573L5.14004 24.6661C5.15164 24.6123 5.11565 24.5678 5.06023 24.5678ZM25.4537 24.1951L25.4078 24.0054L25.3626 23.8112L25.3396 23.7131C25.2496 23.3634 24.9856 23.1618 24.412 23.1618L23.5192 23.1609L22.697 23.1597H21.7718C21.7435 23.1608 21.7163 23.1709 21.6943 23.1888C21.6724 23.2066 21.6567 23.231 21.6498 23.2585L21.6089 23.4517L21.5606 23.68L21.5471 23.7442L21.1305 25.6955L20.735 27.5478C20.7232 27.6023 20.7194 27.6691 20.726 27.6961C20.7327 27.7233 20.8395 27.7456 20.8949 27.7456H21.7294C21.7851 27.7456 21.8554 27.7356 21.8857 27.7233C21.916 27.711 21.9608 27.6018 21.9719 27.5476L22.1201 26.8137L22.2686 26.0796L22.2689 26.0784L22.2888 25.9806L22.4687 25.1376L22.6276 24.393C22.6346 24.3656 22.6503 24.3412 22.6723 24.3235C22.6942 24.3057 22.7213 24.2954 22.7496 24.2943L25.3756 24.2931C25.4312 24.2936 25.4663 24.2493 25.4537 24.1951ZM28.8342 22.4805L28.632 22.4812H27.7915C27.7608 22.483 27.7307 22.4913 27.7034 22.5058C27.6762 22.5202 27.6523 22.5404 27.6336 22.5648L25.7749 25.2877C25.7436 25.3336 25.7078 25.327 25.6955 25.273L25.5586 24.6732C25.5513 24.6457 25.5353 24.6213 25.5131 24.6036C25.4908 24.5858 25.4635 24.5757 25.435 24.5747H24.2403C24.1847 24.5747 24.1518 24.6182 24.1669 24.6715L24.7023 26.5473C24.7175 26.6008 24.7187 26.6884 24.7049 26.7424L24.4717 27.6501C24.4577 27.7041 24.4918 27.7479 24.5475 27.7479H25.7284C25.757 27.7468 25.7845 27.7367 25.8071 27.7192C25.8297 27.7017 25.8462 27.6775 25.8544 27.6501L26.0879 26.7424C26.1064 26.6785 26.1355 26.618 26.1739 26.5636L29.1913 22.5589C29.225 22.5144 29.2067 22.4782 29.1513 22.4786L28.8342 22.4805ZM19.3414 24.8295V24.8285C19.3373 24.8571 19.3232 24.8833 19.3015 24.9025C19.2799 24.9216 19.2521 24.9324 19.2232 24.933H17.7083C17.6558 24.933 17.6292 24.8974 17.6371 24.8534L17.6385 24.8498L17.6375 24.8503L17.6382 24.8453L17.6451 24.8195C17.7898 24.4349 18.0844 24.1825 18.6383 24.1825C19.2621 24.1823 19.3838 24.4868 19.3414 24.8295ZM18.8969 23.0809C16.9524 23.0809 16.4916 24.2611 16.233 25.4525C15.9746 26.6669 15.9967 27.8019 18.0091 27.8019H18.253L18.3136 27.8017H18.3278L18.5694 27.801H18.5737C19.1051 27.7989 19.6381 27.7948 19.8539 27.7932C19.882 27.7917 19.9089 27.7813 19.9306 27.7634C19.9523 27.7455 19.9677 27.721 19.9744 27.6937L20.0559 27.2956L20.0717 27.2182L20.1688 26.7431C20.1719 26.7311 20.1721 26.7185 20.1695 26.7064C20.1668 26.6942 20.1613 26.6829 20.1535 26.6732C20.1456 26.6636 20.1356 26.656 20.1242 26.6509C20.1129 26.6459 20.1005 26.6435 20.0881 26.6442H18.2791C17.5594 26.6442 17.3458 26.4531 17.4246 25.8909H20.3164L20.3161 25.8911L20.318 25.8909C20.3409 25.8899 20.363 25.8823 20.3817 25.8691C20.4004 25.8558 20.4149 25.8375 20.4234 25.8163L20.4303 25.7912L20.43 25.7914C20.8594 24.1718 20.7362 23.0811 18.8969 23.0809ZM9.70624 24.8233L9.67877 24.9202L9.46043 25.6943L9.24209 26.468C9.23316 26.4954 9.21606 26.5194 9.19307 26.5368C9.17008 26.5542 9.14231 26.5642 9.1135 26.5653H7.95786C7.08118 26.5653 6.86758 25.8795 7.08119 24.8683C7.29455 23.8339 7.713 23.191 8.57594 23.1258C9.75526 23.0368 9.99113 23.8661 9.70624 24.8233ZM10.4991 26.5059C10.4991 26.5059 11.044 25.1826 11.1676 24.4186C11.3365 23.3958 10.8242 21.912 8.84591 21.912C6.87895 21.912 6.02453 23.3283 5.69868 24.8683C5.37283 26.4194 5.7998 27.7794 7.75562 27.7683L9.29869 27.7626L10.7406 27.7574C10.7692 27.756 10.7967 27.7458 10.8193 27.7283C10.8419 27.7108 10.8586 27.6867 10.8671 27.6594L11.1184 26.7012C11.1323 26.6472 11.0985 26.6032 11.0428 26.6027L10.802 26.6013L10.5611 26.5999C10.514 26.5996 10.487 26.5689 10.4927 26.5284L10.4991 26.5059ZM20.2368 25.6199C20.2368 25.6287 20.2351 25.6373 20.2318 25.6453C20.2285 25.6534 20.2236 25.6607 20.2174 25.6669C20.2113 25.673 20.204 25.6779 20.196 25.6813C20.1879 25.6846 20.1793 25.6864 20.1706 25.6864C20.1619 25.6864 20.1533 25.6847 20.1452 25.6814C20.1372 25.6781 20.1298 25.6732 20.1237 25.667C20.1175 25.6609 20.1126 25.6536 20.1093 25.6455C20.1059 25.6375 20.1042 25.6289 20.1042 25.6202C20.1041 25.6026 20.1111 25.5857 20.1235 25.5733C20.1359 25.5608 20.1528 25.5538 20.1704 25.5538C20.1879 25.5537 20.2048 25.5607 20.2173 25.5731C20.2297 25.5855 20.2368 25.6024 20.2368 25.6199Z" fill="black" fill-opacity="0.7"/>
</g>
<defs>
<clipPath id="clip0_1251_80">
<rect width="30.3119" height="30.3119" fill="white" transform="translate(0.382812 0.344238)"/>
</clipPath>
</defs>
</svg>
