<svg width="30" height="30" viewBox="0 0 30 30" fill="none" xmlns="http://www.w3.org/2000/svg">
<path d="M5.0061 20V5H2.5061V2.5H6.2561C6.94647 2.5 7.5061 3.05965 7.5061 3.75V18.75H23.0541L25.5541 8.75H10.0061V6.25H27.1551C27.8455 6.25 28.4051 6.80965 28.4051 7.5C28.4051 7.6022 28.3926 7.70402 28.3678 7.80317L25.2428 20.3031C25.1038 20.8596 24.6038 21.25 24.0301 21.25H6.2561C5.56575 21.25 5.0061 20.6904 5.0061 20ZM7.5061 28.75C6.12539 28.75 5.0061 27.6308 5.0061 26.25C5.0061 24.8692 6.12539 23.75 7.5061 23.75C8.88682 23.75 10.0061 24.8692 10.0061 26.25C10.0061 27.6308 8.88682 28.75 7.5061 28.75ZM22.5061 28.75C21.1254 28.75 20.0061 27.6308 20.0061 26.25C20.0061 24.8692 21.1254 23.75 22.5061 23.75C23.8869 23.75 25.0061 24.8692 25.0061 26.25C25.0061 27.6308 23.8869 28.75 22.5061 28.75Z" fill="white"/>
</svg>
