<svg width="30" height="30" viewBox="0 0 30 30" fill="none" xmlns="http://www.w3.org/2000/svg">
<path d="M27.51 2.48997C24.19 -0.830003 18.8074 -0.82998 15.4874 2.48997C15.2182 2.75916 14.7818 2.75916 14.5126 2.48997C11.1926 -0.82998 5.80997 -0.830003 2.48999 2.48997C-0.829979 5.80995 -0.830002 11.1927 2.48995 14.5126C2.75913 14.7818 2.75918 15.2182 2.49004 15.4874C-0.829933 18.8073 -0.82998 24.19 2.48999 27.51C5.80996 30.83 11.1927 30.83 14.5127 27.51C14.7818 27.2409 15.2182 27.2409 15.4873 27.51C18.8073 30.83 24.19 30.83 27.51 27.51C30.83 24.19 30.8299 18.8073 27.51 15.4874C27.2408 15.2182 27.2409 14.7818 27.5101 14.5126C30.83 11.1927 30.83 5.80995 27.51 2.48997Z" fill="#FF4000"/>
</svg>
