<svg width="266" height="46" viewBox="0 0 266 46" fill="none" xmlns="http://www.w3.org/2000/svg">
<path fill-rule="evenodd" clip-rule="evenodd" d="M169.767 45.5C162.18 45.4995 155.473 41.722 151.413 35.9401C147.352 41.722 140.645 45.4995 133.059 45.4995C125.471 45.5 118.764 41.7225 114.704 35.9396C110.644 41.722 103.937 45.5 96.35 45.5C88.7632 45.5 82.0558 41.722 77.9955 35.9401C73.9358 41.7225 67.2284 45.4995 59.6415 45.4995C52.0542 45.5 45.3473 41.7225 41.287 35.9396C37.2273 41.722 30.5199 45.5 22.933 45.4999C10.5436 45.4997 0.500152 35.4263 0.5 23.0001C0.499802 10.5738 10.5436 0.500082 22.933 0.500281C30.5199 0.500385 37.2271 4.27806 41.2874 10.0601C45.3473 4.27786 52.0542 0.500397 59.6417 0.5C67.2286 0.500099 73.9358 4.27781 77.9955 10.0602C82.0557 4.27831 88.7632 0.500344 96.35 0.500341C103.937 0.500344 110.644 4.27782 114.705 10.0602C118.764 4.27782 125.471 0.500248 133.058 0.500152C140.645 0.500049 147.353 4.27797 151.413 10.0602C155.472 4.27772 162.18 0.500499 169.767 0.500402C182.156 0.500255 192.2 10.5735 192.2 23.0002C192.2 35.4265 182.156 45.4998 169.767 45.5Z" fill="#CCFF00"/>
<path fill-rule="evenodd" clip-rule="evenodd" d="M243.567 45.5C235.98 45.4995 229.273 41.722 225.212 35.9401C221.152 41.722 214.445 45.4995 206.858 45.4995C199.271 45.5 192.564 41.7225 188.504 35.9396C184.444 41.722 177.737 45.5 170.15 45.5C162.563 45.5 155.856 41.722 151.796 35.9401C147.736 41.7225 141.028 45.4995 133.441 45.4995C125.854 45.5 119.147 41.7225 115.087 35.9396C111.027 41.722 104.32 45.5 96.7329 45.4999C84.3436 45.4997 74.3001 35.4263 74.3 23.0001C74.2998 10.5738 84.3436 0.500082 96.733 0.500281C104.32 0.500385 111.027 4.27806 115.087 10.0601C119.147 4.27786 125.854 0.500397 133.442 0.5C141.029 0.500099 147.736 4.27781 151.796 10.0602C155.856 4.27831 162.563 0.500344 170.15 0.500341C177.737 0.500344 184.444 4.27782 188.504 10.0602C192.564 4.27782 199.271 0.500248 206.858 0.500152C214.445 0.500049 221.153 4.27797 225.212 10.0602C229.272 4.27772 235.98 0.500499 243.567 0.500402C255.956 0.500255 266 10.5735 266 23.0002C266 35.4265 255.956 45.4998 243.567 45.5Z" fill="#CCFF00"/>
</svg>
