<svg width="200" height="200" viewBox="0 0 200 200" fill="none" xmlns="http://www.w3.org/2000/svg">
<path d="M100 0C73.4615 0 51.9481 21.5136 51.9481 48.0519C51.9481 50.2037 50.2037 51.9481 48.0519 51.9481C21.5136 51.9481 0 73.4615 0 100C0 126.539 21.5136 148.052 48.0519 148.052C50.2037 148.052 51.9481 149.796 51.9481 151.948C51.9481 178.486 73.4615 200 100 200C126.539 200 148.052 178.486 148.052 151.948C148.052 149.796 149.796 148.052 151.948 148.052C178.486 148.052 200 126.539 200 100C200 73.4615 178.486 51.9481 151.948 51.9481C149.796 51.9481 148.052 50.2037 148.052 48.0519C148.052 21.5136 126.539 0 100 0Z" fill="#FFEDDD"/>
</svg>
