<svg width="50" height="50" viewBox="0 0 50 50" fill="none" xmlns="http://www.w3.org/2000/svg">
<path d="M25.434 39.008L43.643 25.9805C43.8052 25.864 43.9375 25.7107 44.0289 25.5331C44.1203 25.3555 44.1681 25.1587 44.1685 24.959L44.1685 24.956C44.168 24.7555 44.1198 24.558 44.0277 24.3799C43.9356 24.2018 43.8023 24.0482 43.639 23.932L25.43 10.9885C25.2418 10.8545 25.0203 10.7751 24.7898 10.7589C24.5594 10.7428 24.329 10.7906 24.124 10.897C23.9187 11.0027 23.7465 11.163 23.6264 11.3602C23.5064 11.5575 23.4431 11.784 23.4435 12.015L23.4435 18.1065L7.08896 18.106C6.92376 18.1059 6.76017 18.1384 6.60754 18.2016C6.45491 18.2648 6.31624 18.3575 6.19945 18.4743C6.08266 18.5911 5.99005 18.7299 5.9269 18.8825C5.86376 19.0352 5.83133 19.1988 5.83146 19.364L5.83196 30.6345C5.83189 30.7997 5.8644 30.9634 5.92763 31.1161C5.99086 31.2688 6.08356 31.4075 6.20045 31.5243C6.31733 31.6412 6.45609 31.7338 6.60881 31.797C6.76152 31.8602 6.92519 31.8926 7.09046 31.8925L23.443 31.8925L23.443 37.986C23.443 38.456 23.708 38.8875 24.1265 39.1045C24.3321 39.2105 24.5631 39.2576 24.7938 39.2405C25.0246 39.2235 25.2461 39.143 25.434 39.008Z" fill="#2CFF05"/>
</svg>
