<svg width="28" height="30" viewBox="0 0 28 30" fill="none" xmlns="http://www.w3.org/2000/svg">
<path d="M18.3786 0L16.166 2.25L18.3786 4.5L20.5913 2.25L18.3786 0ZM12.4782 1.5C11.0031 10.5 21.3288 12 25.7541 6L22.8039 3.75C21.3288 6 15.4284 9 12.4782 1.5ZM9.52805 7.5C6.57786 7.5 2.89012 9.75 2.89012 9.75L5.10276 13.5C6.57786 12 9.52805 11.25 11.0031 12C13.9533 13.5 9.52805 16.5 6.57786 15V20.25C11.0031 18 13.9533 21 12.4782 23.25C8.05295 30 0.677477 21 0.677477 16.5C-2.27271 25.5 5.10276 30 9.52805 30C13.9533 30 16.9035 27 14.6909 19.5H16.9035C14.6909 26.25 22.8039 33 27.2292 24C28.7043 21 28.7043 11.25 21.3288 11.25C15.4284 11.25 16.9035 19.5 11.7407 17.25C16.9035 12 13.9533 7.5 9.52805 7.5ZM24.279 15C28.7043 19.5 18.3786 28.5 18.3786 19.5C18.3786 16.5 21.3288 12.75 24.279 15Z" fill="#2E2E2E"/>
</svg>
