<svg width="20" height="20" viewBox="0 0 20 20" fill="none" xmlns="http://www.w3.org/2000/svg">
<path d="M12.0098 7.89092C12.4039 7.59464 12.7297 7.21704 12.9651 6.78373C12.1251 6.19342 11.1029 5.84717 10.0004 5.84717C8.89788 5.84717 7.87538 6.19342 7.03538 6.78373C7.27072 7.21704 7.59653 7.59464 7.99069 7.89092C8.571 7.5181 9.26038 7.3006 10.0007 7.3006C10.741 7.3006 11.4294 7.5181 12.0098 7.89092ZM15.1673 10.659C14.6729 10.6556 14.1838 10.7598 13.7338 10.9644C13.7349 10.9946 13.7356 11.0249 13.736 11.0553C13.737 11.7313 13.5555 12.395 13.2107 12.9765C12.8659 13.558 12.3706 14.0356 11.7769 14.359C11.8238 14.8503 11.9766 15.3294 12.2257 15.7597C13.1732 15.3054 13.9612 14.5751 14.4862 13.6648C15.0112 12.7545 15.2486 11.7067 15.1673 10.659ZM6.26413 11.0553C6.26454 11.0205 6.26538 10.9859 6.26663 10.9515C5.81545 10.7513 5.32613 10.6515 4.83256 10.659C4.82277 10.7899 4.81788 10.922 4.81788 11.0553C4.81654 12.0428 5.0959 13.0103 5.6234 13.8451C6.1509 14.6799 6.90481 15.3476 7.79725 15.7703C8.04641 15.3423 8.20102 14.8659 8.25069 14.3731C7.64984 14.0522 7.14758 13.5739 6.79765 12.9895C6.44772 12.4051 6.2633 11.7365 6.26413 11.0553Z" fill="white"/>
<path d="M2.75462 10.6341C4.60399 9.56125 6.93587 10.1031 8.10681 11.8278L8.82868 11.4091C8.77995 11.248 8.76484 11.0787 8.78427 10.9115C8.80371 10.7444 8.85729 10.583 8.94168 10.4374C9.02607 10.2919 9.13947 10.1652 9.27485 10.0653C9.41023 9.96535 9.5647 9.89431 9.72868 9.85656V9.03063C7.64274 8.88906 5.99399 7.12437 5.99337 4.96812C5.99368 3.31281 6.96524 1.88844 8.36024 1.25125L8.34962 1.255L8.36024 1.25C7.30897 1.60008 6.39472 2.27249 5.74735 3.17174C5.09999 4.07098 4.75241 5.15135 4.75399 6.25938V6.26062C4.75399 6.96594 4.89181 7.63844 5.14181 8.25344C4.47422 8.34772 3.83122 8.57047 3.24837 8.90938C1.23525 10.0778 0.284308 12.3841 0.735245 14.5525C0.661397 13.7746 0.812431 12.9918 1.1704 12.2972C1.52837 11.6026 2.07822 11.0253 2.75462 10.6341ZM19.3746 13.5316C19.3927 11.6912 18.4499 9.89531 16.7512 8.90938C16.1683 8.57047 15.5253 8.34772 14.8577 8.25344C15.1077 7.63844 15.2456 6.96594 15.2456 6.26062V6.25969C15.2472 5.1516 14.8997 4.07117 14.2523 3.17186C13.6049 2.27255 12.6906 1.60009 11.6393 1.25L11.6499 1.25531L11.6393 1.25156C13.0343 1.88844 14.0059 3.31313 14.0059 4.96844C14.0056 7.12469 12.3568 8.88938 10.2706 9.03094V9.85687C10.5414 9.91941 10.7831 10.072 10.956 10.2897C11.1289 10.5074 11.2228 10.7773 11.2224 11.0553C11.2224 11.1853 11.2024 11.3097 11.1652 11.4275L11.8827 11.8438C13.0506 10.1081 15.3902 9.55937 17.2446 10.6353C17.9205 11.0268 18.47 11.6039 18.828 12.2982C19.1859 12.9925 19.3372 13.7748 19.264 14.5525V14.5519V14.5544C19.3352 14.215 19.3712 13.8728 19.3746 13.5316ZM13.2384 17.6087C12.621 17.2515 12.108 16.7388 11.7504 16.1216C11.3928 15.5045 11.203 14.8045 11.1999 14.0912C11.1977 13.4754 11.3381 12.8675 11.6102 12.315L10.8906 11.8969C10.7766 12.0191 10.6387 12.1165 10.4855 12.1832C10.3323 12.2498 10.167 12.2843 9.99993 12.2844C9.82964 12.2844 9.66123 12.2487 9.50557 12.1797C9.34991 12.1106 9.21045 12.0097 9.09618 11.8834L8.38149 12.2978C9.32274 14.19 8.62868 16.525 6.76087 17.6084C6.08832 18.0016 5.31638 18.1918 4.53815 18.1561C3.75993 18.1204 3.00865 17.8603 2.37493 17.4072C4.01837 18.8837 6.48149 19.2097 8.49462 18.0413C9.07533 17.7047 9.58611 17.2599 9.99931 16.7309C10.4127 17.2605 10.924 17.7057 11.5052 18.0425C13.5181 19.2106 15.9815 18.8853 17.6249 17.4084L17.6171 17.4141L17.6249 17.4075C16.991 17.8604 16.2396 18.1203 15.4614 18.156C14.6831 18.1917 13.9111 18.0017 13.2384 17.6087Z" fill="white"/>
</svg>
