<?xml version="1.0" encoding="UTF-8"?>
<svg id="Layer_2" data-name="Layer 2" xmlns="http://www.w3.org/2000/svg" viewBox="0 0 238.98 240.73">
  <defs>
    <style>
      .cls-1 {
        fill: #ff4000;
      }
    </style>
  </defs>
  <g id="Layer_1-2" data-name="Layer 1">
    <g>
      <path class="cls-1" d="M238.98,120.37c0,66.47-53.89,120.36-120.37,120.36-59.48,0-108.88-43.15-118.61-99.85,8.99,32.86,39.05,57.01,74.77,57.01,42.81,0,77.52-34.71,77.52-77.52S117.58,42.85,74.77,42.85C39.06,42.85,8.99,66.99,0,99.85,9.73,43.14,59.13,0,118.61,0c66.48,0,120.37,53.89,120.37,120.37Z"/>
      <path class="cls-1" d="M58.53,120.37c0,26.55,21.53,48.08,48.09,48.08,23.76,0,43.5-17.24,47.38-39.89-3.59,13.13-15.6,22.78-29.87,22.78-17.1,0-30.97-13.87-30.97-30.97,0-17.11,13.87-30.97,30.97-30.97,14.27,0,26.28,9.64,29.87,22.77-3.89-22.66-23.62-39.89-47.38-39.89-26.56,0-48.09,21.53-48.09,48.09Z"/>
    </g>
  </g>
</svg>