<?xml version="1.0" encoding="UTF-8"?>
<svg id="Layer_2" data-name="Layer 2" xmlns="http://www.w3.org/2000/svg" viewBox="0 0 285.72 289.89">
  <defs>
    <style>
      .cls-1 {
        fill: #ff4000;
      }
    </style>
  </defs>
  <g id="Layer_1-2" data-name="Layer 1">
    <g>
      <path class="cls-1" d="M151.81,150.38C126.88,48.75,93.7,21.56,64.71,30.47c28.56-40.63,145.62-40.63,174.2-.01h0c17.46,24.82,1.88,64.79-87.1,119.92Z"/>
      <path class="cls-1" d="M151.81,150.38C71.9,217.95,29.07,220.44,10.85,196.19c-29.83-39.72,6.38-151.14,53.86-165.72-17.46,24.81-1.88,64.78,87.1,119.91Z"/>
      <path class="cls-1" d="M128.55,272.18c-6.39-23.16-1.21-61.89,23.26-121.8,24.47,59.9,29.65,98.64,23.26,121.8-6.52,23.62-40,23.62-46.52,0Z"/>
      <path class="cls-1" d="M260.44,210.14c-24-1.09-59.23-17.99-108.64-59.76,64.53-4.76,102.96,2.28,123.02,15.52,20.45,13.5,10.09,45.35-14.38,44.24Z"/>
      <circle class="cls-1" cx="218.03" cy="240.79" r="35.45"/>
    </g>
  </g>
</svg>