<svg width="66" height="44" viewBox="0 0 66 44" fill="none" xmlns="http://www.w3.org/2000/svg">
<path d="M33.0001 13.25C35.3207 13.25 37.5463 14.1719 39.1873 15.8128C40.8282 17.4538 41.7501 19.6794 41.7501 22C41.7501 24.3206 40.8282 26.5462 39.1873 28.1872C37.5463 29.8281 35.3207 30.75 33.0001 30.75C30.6794 30.75 28.4538 29.8281 26.8129 28.1872C25.172 26.5462 24.2501 24.3206 24.2501 22C24.2501 19.6794 25.172 17.4538 26.8129 15.8128C28.4538 14.1719 30.6794 13.25 33.0001 13.25ZM33.0001 0.125C47.5834 0.125 60.0376 9.19583 65.0834 22C60.0376 34.8042 47.5834 43.875 33.0001 43.875C18.4167 43.875 5.96258 34.8042 0.916748 22C5.96258 9.19583 18.4167 0.125 33.0001 0.125ZM7.27508 22C9.63249 26.8134 13.2931 30.8688 17.8406 33.7053C22.3882 36.5418 27.6404 38.0455 33.0001 38.0455C38.3598 38.0455 43.6119 36.5418 48.1595 33.7053C52.7071 30.8688 56.3677 26.8134 58.7251 22C56.3677 17.1866 52.7071 13.1312 48.1595 10.2947C43.6119 7.4582 38.3598 5.95449 33.0001 5.95449C27.6404 5.95449 22.3882 7.4582 17.8406 10.2947C13.2931 13.1312 9.63249 17.1866 7.27508 22Z" fill="black"/>
</svg>
