<svg width="54" height="30" viewBox="0 0 54 30" fill="none" xmlns="http://www.w3.org/2000/svg">
<path d="M0.895807 4.15405C0.771827 3.78379 0.723452 3.39241 0.753552 3.00311C0.783652 2.61381 0.891614 2.23451 1.07103 1.88771C1.25046 1.54091 1.49768 1.23367 1.79806 0.984201C2.09844 0.734731 2.44585 0.548113 2.81969 0.435412C3.19354 0.322712 3.58621 0.286224 3.97442 0.32811C4.36263 0.369996 4.73848 0.489403 5.07968 0.679254C5.42088 0.869105 5.72049 1.12553 5.96074 1.43334C6.20099 1.74114 6.37699 2.09404 6.47831 2.47113C12.5625 22.847 41.4258 22.8499 47.5158 2.4828C47.625 2.11548 47.8054 1.77326 48.0468 1.47568C48.2882 1.17809 48.5859 0.930973 48.9228 0.748429C49.2598 0.565884 49.6293 0.451489 50.0105 0.411775C50.3916 0.37206 50.7768 0.407803 51.1441 0.516965C51.5115 0.626126 51.8537 0.806569 52.1513 1.04799C52.4489 1.28941 52.696 1.58707 52.8785 1.924C53.0611 2.26092 53.1755 2.63049 53.2152 3.01163C53.2549 3.39276 53.2191 3.77798 53.11 4.1453C52.0495 7.79488 50.2495 11.1873 47.8221 14.1115L51.5408 17.8332C52.0721 18.3833 52.3661 19.1201 52.3594 19.8848C52.3528 20.6495 52.0461 21.3811 51.5053 21.9219C50.9645 22.4626 50.233 22.7694 49.4682 22.776C48.7035 22.7827 47.9667 22.4887 47.4166 21.9574L43.5929 18.1336C41.5296 19.6903 39.25 20.9372 36.8262 21.8349L37.8675 25.7286C37.9786 26.1021 38.0137 26.4941 37.9708 26.8813C37.9278 27.2686 37.8078 27.6434 37.6176 27.9835C37.4274 28.3236 37.1711 28.6221 36.8636 28.8615C36.5562 29.1009 36.2039 29.2762 35.8275 29.3772C35.4512 29.4781 35.0584 29.5026 34.6724 29.4493C34.2865 29.3959 33.9151 29.2658 33.5803 29.0665C33.2454 28.8672 32.9539 28.6029 32.7229 28.2891C32.4919 27.9753 32.3262 27.6184 32.2354 27.2395L31.1737 23.2815C28.4116 23.6899 25.5883 23.6899 22.8262 23.2815L21.7646 27.2395C21.6738 27.6184 21.508 27.9753 21.277 28.2891C21.0461 28.6029 20.7545 28.8672 20.4197 29.0665C20.0849 29.2658 19.7135 29.3959 19.3275 29.4493C18.9415 29.5026 18.5488 29.4781 18.1724 29.3772C17.7961 29.2762 17.4438 29.1009 17.1363 28.8615C16.8289 28.6221 16.5725 28.3236 16.3823 27.9835C16.1922 27.6434 16.0721 27.2686 16.0292 26.8813C15.9863 26.4941 16.0214 26.1021 16.1325 25.7286L17.1737 21.8349C14.7498 20.9363 12.4702 19.6884 10.4071 18.1307L6.58622 21.9574C6.03933 22.5051 5.29726 22.813 4.52329 22.8136C3.74931 22.8141 3.00681 22.5072 2.45914 21.9603C1.91147 21.4134 1.60348 20.6713 1.60294 19.8974C1.60239 19.1234 1.90933 18.3809 2.45622 17.8332L6.17497 14.1145C3.88831 11.3845 2.06247 8.0653 0.889974 4.15697L0.895807 4.15405Z" fill="#2CFF05"/>
</svg>
