<svg width="32" height="33" viewBox="0 0 32 33" fill="none" xmlns="http://www.w3.org/2000/svg">
<path d="M18.6667 11.1667H5.33341C3.86275 11.1667 2.66675 12.3627 2.66675 13.8334V27.1667C2.66675 28.6374 3.86275 29.8334 5.33341 29.8334H18.6667C20.1374 29.8334 21.3334 28.6374 21.3334 27.1667V13.8334C21.3334 12.3627 20.1374 11.1667 18.6667 11.1667Z" fill="#1B1B1B"/>
<path d="M26.6667 3.16669H13.3334C12.6262 3.16669 11.9479 3.44764 11.4478 3.94774C10.9477 4.44783 10.6667 5.12611 10.6667 5.83335V8.50002H21.3334C22.0407 8.50002 22.7189 8.78097 23.219 9.28107C23.7191 9.78117 24.0001 10.4594 24.0001 11.1667V21.8334H26.6667C27.374 21.8334 28.0523 21.5524 28.5524 21.0523C29.0525 20.5522 29.3334 19.8739 29.3334 19.1667V5.83335C29.3334 5.12611 29.0525 4.44783 28.5524 3.94774C28.0523 3.44764 27.374 3.16669 26.6667 3.16669Z" fill="#1B1B1B"/>
</svg>
