<svg width="40" height="40" viewBox="0 0 40 40" fill="none" xmlns="http://www.w3.org/2000/svg">
<path fill-rule="evenodd" clip-rule="evenodd" d="M0.649028 0.705328C1.06514 0.290329 1.6292 0.0572283 2.2173 0.0572283C2.80541 0.0572283 3.36947 0.290329 3.78558 0.705328L19.9713 16.8679L36.1571 0.705328C36.3603 0.4876 36.6053 0.312967 36.8775 0.191845C37.1497 0.0707226 37.4436 0.00559488 37.7416 0.000344889C38.0396 -0.00490511 38.3356 0.0498303 38.6119 0.161287C38.8882 0.272744 39.1393 0.438639 39.35 0.649074C39.5607 0.85951 39.7269 1.11017 39.8385 1.38612C39.9501 1.66206 40.0049 1.95762 39.9997 2.25517C39.9944 2.55273 39.9292 2.84618 39.8079 3.11801C39.6866 3.38985 39.5117 3.63451 39.2937 3.83739L23.1079 20L39.2937 36.1626C39.5117 36.3655 39.6866 36.6101 39.8079 36.882C39.9292 37.1538 39.9944 37.4473 39.9997 37.7448C40.0049 38.0424 39.9501 38.3379 39.8385 38.6139C39.7269 38.8898 39.5607 39.1405 39.35 39.3509C39.1393 39.5614 38.8882 39.7273 38.6119 39.8387C38.3356 39.9502 38.0396 40.0049 37.7416 39.9997C37.4436 39.9944 37.1497 39.9293 36.8775 39.8082C36.6053 39.687 36.3603 39.5124 36.1571 39.2947L19.9713 23.1321L3.78558 39.2947C3.36488 39.6861 2.80845 39.8992 2.23351 39.8891C1.65857 39.879 1.11002 39.6464 0.70341 39.2404C0.296804 38.8343 0.0638948 38.2866 0.0537507 37.7125C0.0436066 37.1383 0.257019 36.5827 0.649028 36.1626L16.8348 20L0.649028 3.83739C0.233434 3.42187 0 2.85862 0 2.27136C0 1.6841 0.233434 1.12084 0.649028 0.705328Z" fill="#999999"/>
</svg>
