<?xml version="1.0" encoding="UTF-8"?>
<svg id="Layer_1" xmlns="http://www.w3.org/2000/svg" version="1.1" viewBox="0 0 1000 1000">
  <!-- Generator: Adobe Illustrator 29.2.0, SVG Export Plug-In . SVG Version: 2.1.0 Build 108)  -->
  <defs>
    <style>
      .st0 {
        stroke-miterlimit: 10;
      }

      .st0, .st1, .st2 {
        fill: none;
        stroke: #000;
        stroke-width: 100px;
      }

      .st1 {
        stroke-linejoin: bevel;
      }

      .st3 {
        fill: #6dff00;
      }

      .st2 {
        stroke-miterlimit: 3;
      }
    </style>
  </defs>
  <path d="M-816.29,1167.66h0s-486.07-.01-486.07-.01v486.06h486.07v-.02c133.66-.65,241.82-109.19,241.82-243.01s-108.16-242.37-241.82-243.02ZM-1020.6,1522.67h-159.05v-65.88h159.05v65.88ZM-1020.6,1364.56h-159.05v-65.87h159.05v65.87ZM-813,1500.62c-65.39,0-122.36-36.01-152.17-89.29,19.92-35.59,51.94-63.49,90.52-78.08-16.66,16.12-27.02,38.71-27.02,63.73,0,48.97,39.7,88.67,88.67,88.67s88.67-39.7,88.67-88.67c0-25.02-10.35-47.61-27.02-63.73,38.58,14.59,70.61,42.49,90.53,78.08-29.81,53.28-86.79,89.29-152.18,89.29Z"/>
  <polyline class="st2" points="-1151.3 1608.56 -1251.12 1848.86 -1344.77 1786.14"/>
  <polyline class="st2" points="-953.66 1629.51 -1053.49 1869.81 -1147.14 1807.08"/>
  <path class="st1" d="M-880.43,2088.43s26.79,150.74,85.99,200.68c59.2,49.94,141.46-6.88,184.08-52.94"/>
  <path class="st0" d="M-880.43,1608.56s23.92,105.35,49.54,149.52,100.71,113.96,152.83,5.3l89.63,58.08"/>
  <path class="st3" d="M249.88,797.25l-29.94,67.54-171-97.96,72.95-108.92,40.3,26.99,34.09-82.06h-70.69V86.78h516.07v.51c63.03,3.88,121.74,30.37,166.66,75.49,48.47,48.69,75.16,113.33,75.16,182.03s-26.69,133.34-75.16,182.03c-43.91,44.11-101.01,70.41-162.44,75.19,8.36,26.72,16.17,46.83,22.4,57.57,3.86,6.66,11.65,17.12,20.88,24.7,2.24,1.84,4.11,3.15,5.61,4.07,2.65-3.15,6.69-8.92,11.52-18.98l31.95-66.61,164.22,106.41-70.7,109.1-50.4-32.66c-28.58,26.88-58.53,33.78-79.49,34.6-1.55.06-3.11.09-4.64.09-29.07,0-58.73-10.97-85.79-31.72-21.62-16.58-41.37-39.24-55.61-63.78-12.47-21.5-23.95-52.25-33.27-81.59l-109.68,247.39-163-93.38ZM271.55,748.37l43.28-64.62,40.3,26.99,44.82-107.9h-63.89l-64.52,145.53ZM407.35,441.8v-35.88h-129.05v35.88h129.05ZM730.88,307.22c1.81,7.73,2.74,15.73,2.74,23.89,0,26.08-9.68,49.94-25.64,68.18,22.76-12.8,42.37-31.16,56.7-53.83-9.2-14.55-20.64-27.45-33.8-38.25ZM495.23,345.46c14.33,22.67,33.93,41.03,56.68,53.82-15.95-18.24-25.63-42.1-25.63-68.17,0-8.16.93-16.16,2.74-23.89-13.16,10.79-24.6,23.7-33.79,38.24ZM407.35,283.69v-35.87h-129.05v35.87h129.05Z"/>
  <path d="M744.39,624.65l-24.58,51.24c-11.48,23.93-20.76,29.37-22.44,29.44-2.07.09-8.42-1.78-17.73-9.43-10.77-8.84-19.63-20.66-24.34-28.77-9.5-16.38-20.34-48.23-29.36-79.29h.71v-.02c133.66-.65,241.82-109.19,241.82-243.01s-108.16-242.37-241.82-243.02h0s-486.07-.01-486.07-.01v486.06h78.17l-49.72,119.7-43.03-28.82-55.65,83.09,142.61,81.7,113.35-255.66h96.12l-60.46,145.54-43.03-28.82-55.65,83.09,142.61,81.7,119.49-269.52c10.16,37.04,25.88,87.26,43.41,117.48,23.8,41.04,71.42,88.03,128.42,88.03,1.35,0,2.7-.03,4.06-.08,22.32-.88,51.21-9.21,77.94-38.86l48.11,31.17,54.38-83.92-137.33-88.99ZM568.3,267.38c-16.66,16.12-27.02,38.71-27.02,63.73,0,48.97,39.7,88.67,88.67,88.67s88.67-39.7,88.67-88.67c0-25.02-10.35-47.61-27.02-63.73,38.58,14.59,70.61,42.49,90.53,78.08-29.81,53.28-86.79,89.29-152.18,89.29s-122.36-36.01-152.17-89.29c19.92-35.59,51.94-63.49,90.52-78.08ZM422.35,456.8h-159.05v-65.88h159.05v65.88ZM422.35,298.69h-159.05v-65.87h159.05v65.87Z"/>
  <circle class="st3" cx="629.95" cy="330.59" r="68.69"/>
  <circle class="st3" cx="-813" cy="1399.32" r="68.69"/>
</svg>