<svg width="44" height="44" viewBox="0 0 44 44" fill="none" xmlns="http://www.w3.org/2000/svg">
<path d="M20.5625 6.1875V1.875C20.5625 1.49375 20.714 1.12812 20.9835 0.858534C21.2531 0.58895 21.6188 0.4375 22 0.4375C22.3812 0.4375 22.7469 0.58895 23.0165 0.858534C23.2861 1.12812 23.4375 1.49375 23.4375 1.875V6.1875C23.4375 6.56875 23.2861 6.93438 23.0165 7.20397C22.7469 7.47355 22.3812 7.625 22 7.625C21.6188 7.625 21.2531 7.47355 20.9835 7.20397C20.714 6.93438 20.5625 6.56875 20.5625 6.1875ZM33.5 22C33.5 24.2745 32.8255 26.4979 31.5619 28.3891C30.2983 30.2802 28.5022 31.7542 26.4009 32.6246C24.2995 33.495 21.9872 33.7228 19.7565 33.279C17.5257 32.8353 15.4766 31.74 13.8683 30.1317C12.26 28.5234 11.1647 26.4743 10.721 24.2435C10.2772 22.0128 10.505 19.7005 11.3754 17.5991C12.2458 15.4978 13.7198 13.7017 15.6109 12.4381C17.5021 11.1745 19.7255 10.5 22 10.5C25.049 10.5033 27.9721 11.716 30.1281 13.8719C32.284 16.0279 33.4967 18.951 33.5 22ZM30.625 22C30.625 20.2941 30.1192 18.6266 29.1714 17.2082C28.2237 15.7898 26.8767 14.6843 25.3006 14.0315C23.7246 13.3787 21.9904 13.2079 20.3173 13.5407C18.6443 13.8735 17.1074 14.695 15.9012 15.9012C14.695 17.1074 13.8735 18.6443 13.5407 20.3173C13.2079 21.9904 13.3787 23.7246 14.0315 25.3006C14.6843 26.8767 15.7898 28.2237 17.2082 29.1714C18.6266 30.1192 20.2941 30.625 22 30.625C24.2868 30.6226 26.4792 29.7132 28.0962 28.0962C29.7132 26.4792 30.6226 24.2868 30.625 22ZM9.48297 11.517C9.7527 11.7868 10.1185 11.9383 10.5 11.9383C10.8815 11.9383 11.2473 11.7868 11.517 11.517C11.7868 11.2473 11.9383 10.8815 11.9383 10.5C11.9383 10.1185 11.7868 9.7527 11.517 9.48297L8.64203 6.60797C8.3723 6.33824 8.00646 6.1867 7.625 6.1867C7.24354 6.1867 6.8777 6.33824 6.60797 6.60797C6.33824 6.8777 6.1867 7.24354 6.1867 7.625C6.1867 8.00646 6.33824 8.3723 6.60797 8.64203L9.48297 11.517ZM9.48297 32.483L6.60797 35.358C6.33824 35.6277 6.1867 35.9935 6.1867 36.375C6.1867 36.7565 6.33824 37.1223 6.60797 37.392C6.8777 37.6618 7.24354 37.8133 7.625 37.8133C8.00646 37.8133 8.3723 37.6618 8.64203 37.392L11.517 34.517C11.6506 34.3835 11.7565 34.2249 11.8288 34.0504C11.9011 33.8759 11.9383 33.6889 11.9383 33.5C11.9383 33.3111 11.9011 33.1241 11.8288 32.9496C11.7565 32.7751 11.6506 32.6165 11.517 32.483C11.3835 32.3494 11.2249 32.2435 11.0504 32.1712C10.8759 32.0989 10.6889 32.0617 10.5 32.0617C10.3111 32.0617 10.1241 32.0989 9.94959 32.1712C9.77508 32.2435 9.61653 32.3494 9.48297 32.483ZM33.5 11.9375C33.6888 11.9376 33.8758 11.9006 34.0503 11.8284C34.2249 11.7563 34.3834 11.6505 34.517 11.517L37.392 8.64203C37.6618 8.3723 37.8133 8.00646 37.8133 7.625C37.8133 7.24354 37.6618 6.8777 37.392 6.60797C37.1223 6.33824 36.7565 6.1867 36.375 6.1867C35.9935 6.1867 35.6277 6.33824 35.358 6.60797L32.483 9.48297C32.2817 9.68401 32.1446 9.94025 32.0891 10.2192C32.0335 10.4982 32.062 10.7875 32.1709 11.0503C32.2798 11.3131 32.4642 11.5377 32.7008 11.6956C32.9374 11.8535 33.2155 11.9377 33.5 11.9375ZM34.517 32.483C34.2473 32.2132 33.8815 32.0617 33.5 32.0617C33.1185 32.0617 32.7527 32.2132 32.483 32.483C32.2132 32.7527 32.0617 33.1185 32.0617 33.5C32.0617 33.8815 32.2132 34.2473 32.483 34.517L35.358 37.392C35.4915 37.5256 35.6501 37.6315 35.8246 37.7038C35.9991 37.7761 36.1861 37.8133 36.375 37.8133C36.5639 37.8133 36.7509 37.7761 36.9254 37.7038C37.0999 37.6315 37.2585 37.5256 37.392 37.392C37.5256 37.2585 37.6315 37.0999 37.7038 36.9254C37.7761 36.7509 37.8133 36.5639 37.8133 36.375C37.8133 36.1861 37.7761 35.9991 37.7038 35.8246C37.6315 35.6501 37.5256 35.4915 37.392 35.358L34.517 32.483ZM7.625 22C7.625 21.6188 7.47355 21.2531 7.20397 20.9835C6.93438 20.714 6.56875 20.5625 6.1875 20.5625H1.875C1.49375 20.5625 1.12812 20.714 0.858534 20.9835C0.58895 21.2531 0.4375 21.6188 0.4375 22C0.4375 22.3812 0.58895 22.7469 0.858534 23.0165C1.12812 23.2861 1.49375 23.4375 1.875 23.4375H6.1875C6.56875 23.4375 6.93438 23.2861 7.20397 23.0165C7.47355 22.7469 7.625 22.3812 7.625 22ZM22 36.375C21.6188 36.375 21.2531 36.5264 20.9835 36.796C20.714 37.0656 20.5625 37.4313 20.5625 37.8125V42.125C20.5625 42.5062 20.714 42.8719 20.9835 43.1415C21.2531 43.4111 21.6188 43.5625 22 43.5625C22.3812 43.5625 22.7469 43.4111 23.0165 43.1415C23.2861 42.8719 23.4375 42.5062 23.4375 42.125V37.8125C23.4375 37.4313 23.2861 37.0656 23.0165 36.796C22.7469 36.5264 22.3812 36.375 22 36.375ZM42.125 20.5625H37.8125C37.4313 20.5625 37.0656 20.714 36.796 20.9835C36.5264 21.2531 36.375 21.6188 36.375 22C36.375 22.3812 36.5264 22.7469 36.796 23.0165C37.0656 23.2861 37.4313 23.4375 37.8125 23.4375H42.125C42.5062 23.4375 42.8719 23.2861 43.1415 23.0165C43.4111 22.7469 43.5625 22.3812 43.5625 22C43.5625 21.6188 43.4111 21.2531 43.1415 20.9835C42.8719 20.714 42.5062 20.5625 42.125 20.5625Z" fill="#F8F8F8"/>
</svg>
