<svg width="36" height="67" viewBox="0 0 36 67" fill="none" xmlns="http://www.w3.org/2000/svg">
<path d="M1.2917 61.9262L29.0012 33.5L1.2917 5.0739C0.795619 4.56602 0.517894 3.88423 0.517894 3.17427C0.517894 2.46432 0.795619 1.78253 1.2917 1.27465C1.53264 1.02873 1.82023 0.833366 2.13763 0.699994C2.45503 0.566622 2.79585 0.497925 3.14013 0.497925C3.48441 0.497925 3.82523 0.566622 4.14263 0.699994C4.46003 0.833366 4.74762 1.02873 4.98857 1.27465L34.4726 31.5151C34.9902 32.0461 35.2799 32.7584 35.2799 33.5C35.2799 34.2416 34.9902 34.9539 34.4726 35.485L4.99426 65.7254C4.75313 65.9731 4.46483 66.1699 4.14638 66.3043C3.82793 66.4387 3.48579 66.5079 3.14014 66.5079C2.79448 66.5079 2.45233 66.4387 2.13388 66.3043C1.81543 66.1699 1.52714 65.9731 1.28601 65.7254C0.789932 65.2175 0.51221 64.5357 0.51221 63.8258C0.51221 63.1158 0.789932 62.434 1.28601 61.9262L1.2917 61.9262Z" fill="#EEEEEE"/>
</svg>
