<svg width="25" height="35" viewBox="0 0 25 35" fill="none" xmlns="http://www.w3.org/2000/svg">
<path d="M21.8539 11.4664C22.9104 10.674 23.6908 9.56933 24.0845 8.3088C24.4783 7.04827 24.4655 5.69581 24.0479 4.44298C23.6303 3.19015 22.829 2.10047 21.7577 1.3283C20.6864 0.556137 19.3993 0.140625 18.0787 0.140625H6.75292C5.43232 0.140625 4.1452 0.556137 3.07388 1.3283C2.00255 2.10047 1.20134 3.19015 0.783729 4.44298C0.366119 5.69581 0.353285 7.04827 0.747044 8.3088C1.1408 9.56933 1.92119 10.674 2.97767 11.4664C2.17776 12.0658 1.53219 12.8473 1.09443 13.7459C0.656668 14.6446 0.439318 15.6346 0.460382 16.634C0.481446 17.6334 0.740317 18.6134 1.21555 19.4928C1.69079 20.3722 2.36872 21.1258 3.19318 21.691C2.2554 22.404 1.51512 23.3445 1.04244 24.4236C0.569755 25.5026 0.38031 26.6845 0.492043 27.8572C0.603775 29.0299 1.01299 30.1547 1.68093 31.1251C2.34887 32.0954 3.25344 32.8793 4.30898 33.4023C5.36453 33.9254 6.53611 34.1704 7.7128 34.1141C8.88949 34.0578 10.0323 33.7021 11.0331 33.0807C12.0339 32.4593 12.8596 31.5927 13.4319 30.563C14.0041 29.5333 14.3041 28.3746 14.3034 27.1966V21.5337C14.9645 22.0295 15.7167 22.3902 16.5171 22.5953C17.3175 22.8003 18.1505 22.8457 18.9685 22.7289C19.7865 22.612 20.5734 22.3352 21.2844 21.9142C21.9954 21.4932 22.6166 20.9363 23.1123 20.2753C23.6081 19.6143 23.9688 18.8621 24.1739 18.0616C24.379 17.2612 24.4244 16.4282 24.3075 15.6102C24.1907 14.7922 23.9138 14.0053 23.4928 13.2943C23.0719 12.5833 22.515 11.9621 21.8539 11.4664ZM21.8539 6.43271C21.8539 7.43397 21.4562 8.39422 20.7482 9.10221C20.0402 9.81021 19.0799 10.208 18.0787 10.208H14.3034V2.65746H18.0787C19.0799 2.65746 20.0402 3.05521 20.7482 3.7632C21.4562 4.4712 21.8539 5.43145 21.8539 6.43271ZM2.97767 6.43271C2.97767 5.43145 3.37542 4.4712 4.08342 3.7632C4.79141 3.05521 5.75166 2.65746 6.75292 2.65746H11.7866V10.208H6.75292C5.75166 10.208 4.79141 9.81021 4.08342 9.10221C3.37542 8.39422 2.97767 7.43397 2.97767 6.43271ZM6.75292 20.2753C5.75166 20.2753 4.79141 19.8775 4.08342 19.1695C3.37542 18.4615 2.97767 17.5013 2.97767 16.5C2.97767 15.4988 3.37542 14.5385 4.08342 13.8305C4.79141 13.1225 5.75166 12.7248 6.75292 12.7248H11.7866V20.2753H6.75292ZM11.7866 27.1966C11.7866 28.0677 11.5283 28.9193 11.0443 29.6436C10.5603 30.3679 9.87245 30.9324 9.06764 31.2658C8.26283 31.5991 7.37724 31.6864 6.52286 31.5164C5.66848 31.3465 4.88368 30.927 4.26771 30.311C3.65173 29.695 3.23225 28.9102 3.0623 28.0558C2.89236 27.2015 2.97958 26.3159 3.31294 25.5111C3.6463 24.7063 4.21083 24.0184 4.93514 23.5344C5.65945 23.0504 6.51101 22.7921 7.38213 22.7921H11.7866V27.1966ZM18.0787 20.2753C17.332 20.2753 16.6021 20.0539 15.9813 19.639C15.3604 19.2242 14.8765 18.6346 14.5908 17.9448C14.3051 17.2549 14.2303 16.4959 14.376 15.7635C14.5216 15.0312 14.8812 14.3585 15.4092 13.8305C15.9371 13.3026 16.6098 12.943 17.3422 12.7973C18.0745 12.6517 18.8336 12.7264 19.5234 13.0122C20.2132 13.2979 20.8028 13.7818 21.2177 14.4026C21.6325 15.0235 21.8539 15.7534 21.8539 16.5C21.8539 17.5013 21.4562 18.4615 20.7482 19.1695C20.0402 19.8775 19.0799 20.2753 18.0787 20.2753Z" fill="#F8F8F8"/>
</svg>
