<svg width="25" height="36" viewBox="0 0 25 36" fill="none" xmlns="http://www.w3.org/2000/svg">
<path d="M22.3389 12.5735C23.4284 11.7563 24.2332 10.6171 24.6393 9.31717C25.0454 8.01722 25.0321 6.62246 24.6015 5.33045C24.1708 4.03844 23.3445 2.91469 22.2397 2.11838C21.1349 1.32206 19.8075 0.893555 18.4456 0.893555H6.76567C5.40377 0.893555 4.0764 1.32206 2.97157 2.11838C1.86674 2.91469 1.04047 4.03844 0.609802 5.33045C0.179133 6.62246 0.165897 8.01722 0.57197 9.31717C0.978044 10.6171 1.78284 11.7563 2.87236 12.5735C2.04743 13.1917 1.38167 13.9976 0.930218 14.9243C0.478768 15.8511 0.254621 16.8721 0.276343 17.9027C0.298066 18.9334 0.565033 19.944 1.05513 20.8509C1.54523 21.7579 2.24436 22.535 3.0946 23.1179C2.1275 23.8531 1.36407 24.8231 0.876602 25.9359C0.389137 27.0487 0.193768 28.2675 0.308994 29.4769C0.424221 30.6863 0.846229 31.8462 1.53506 32.847C2.22389 33.8477 3.15675 34.656 4.2453 35.1954C5.33385 35.7349 6.54207 35.9875 7.75556 35.9295C8.96905 35.8714 10.1476 35.5046 11.1797 34.8638C12.2118 34.2229 13.0633 33.3292 13.6535 32.2673C14.2436 31.2054 14.553 30.0105 14.5523 28.7956V22.9556C15.234 23.4669 16.0097 23.8389 16.8352 24.0504C17.6607 24.2619 18.5197 24.3087 19.3633 24.1882C20.2068 24.0677 21.0184 23.7822 21.7516 23.3481C22.4849 22.9139 23.1254 22.3396 23.6367 21.6579C24.148 20.9762 24.52 20.2004 24.7314 19.375C24.9429 18.5495 24.9897 17.6905 24.8692 16.8469C24.7487 16.0033 24.4632 15.1918 24.0291 14.4585C23.5949 13.7253 23.0206 13.0848 22.3389 12.5735ZM22.3389 7.38241C22.3389 8.41498 21.9287 9.40526 21.1986 10.1354C20.4685 10.8655 19.4782 11.2757 18.4456 11.2757H14.5523V3.4891H18.4456C19.4782 3.4891 20.4685 3.89928 21.1986 4.62942C21.9287 5.35956 22.3389 6.34984 22.3389 7.38241ZM2.87236 7.38241C2.87236 6.34984 3.28254 5.35956 4.01268 4.62942C4.74282 3.89928 5.7331 3.4891 6.76567 3.4891H11.9567V11.2757H6.76567C5.7331 11.2757 4.74282 10.8655 4.01268 10.1354C3.28254 9.40526 2.87236 8.41498 2.87236 7.38241ZM6.76567 21.6579C5.7331 21.6579 4.74282 21.2477 4.01268 20.5176C3.28254 19.7874 2.87236 18.7971 2.87236 17.7646C2.87236 16.732 3.28254 15.7417 4.01268 15.0116C4.74282 14.2814 5.7331 13.8713 6.76567 13.8713H11.9567V21.6579H6.76567ZM11.9567 28.7956C11.9567 29.694 11.6904 30.5722 11.1913 31.3191C10.6921 32.0661 9.98275 32.6483 9.15278 32.9921C8.3228 33.3358 7.40951 33.4258 6.52841 33.2505C5.64731 33.0753 4.83797 32.6427 4.20273 32.0074C3.5675 31.3722 3.13489 30.5629 2.95963 29.6818C2.78437 28.8007 2.87432 27.8874 3.21811 27.0574C3.5619 26.2274 4.14408 25.518 4.89104 25.0189C5.638 24.5198 6.51619 24.2534 7.41455 24.2534H11.9567V28.7956ZM18.4456 21.6579C17.6756 21.6579 16.9228 21.4295 16.2826 21.0017C15.6423 20.5739 15.1433 19.9659 14.8487 19.2545C14.554 18.5431 14.4769 17.7602 14.6271 17.005C14.7773 16.2498 15.1481 15.5561 15.6926 15.0116C16.2371 14.4671 16.9308 14.0963 17.6861 13.9461C18.4413 13.7958 19.2241 13.8729 19.9355 14.1676C20.6469 14.4623 21.255 14.9613 21.6828 15.6016C22.1106 16.2418 22.3389 16.9945 22.3389 17.7646C22.3389 18.7971 21.9287 19.7874 21.1986 20.5176C20.4685 21.2477 19.4782 21.6579 18.4456 21.6579Z" fill="#333333"/>
</svg>
