<svg width="42" height="42" viewBox="0 0 42 42" fill="none" xmlns="http://www.w3.org/2000/svg">
<path d="M36.3374 12.1128V29.4165C36.3374 31.2521 35.6082 33.0126 34.3102 34.3107C33.0121 35.6087 31.2516 36.3379 29.416 36.3379H12.1124C10.2767 36.3379 8.51618 35.6087 7.21816 34.3107C5.92014 33.0126 5.19092 31.2521 5.19092 29.4165V12.1128C5.19092 10.2772 5.92014 8.51667 7.21816 7.21865C8.51618 5.92063 10.2767 5.19141 12.1124 5.19141H29.416C31.2516 5.19141 33.0121 5.92063 34.3102 7.21865C35.6082 8.51667 36.3374 10.2772 36.3374 12.1128Z" stroke="#333333" stroke-width="2.59554" stroke-linecap="round" stroke-linejoin="round"/>
<path d="M12.1128 27.6857V20.7642M12.1128 20.7642V13.8428H15.5735C16.4914 13.8428 17.3716 14.2074 18.0206 14.8564C18.6696 15.5054 19.0342 16.3857 19.0342 17.3035C19.0342 18.2213 18.6696 19.1016 18.0206 19.7506C17.3716 20.3996 16.4914 20.7642 15.5735 20.7642H12.1128ZM29.4164 19.0339C28.8869 17.9731 27.802 17.3035 26.6167 17.3035H25.9557C25.2673 17.3035 24.6071 17.577 24.1204 18.0637C23.6336 18.5505 23.3601 19.2107 23.3601 19.899C23.3601 20.5874 23.6336 21.2476 24.1204 21.7344C24.6071 22.2211 25.2673 22.4946 25.9557 22.4946H26.8209C27.5092 22.4946 28.1694 22.768 28.6562 23.2548C29.1429 23.7415 29.4164 24.4017 29.4164 25.0901C29.4164 25.7785 29.1429 26.4387 28.6562 26.9254C28.1694 27.4122 27.5092 27.6857 26.8209 27.6857H26.1599C25.5785 27.6856 25.0087 27.5238 24.5142 27.2181C24.0197 26.9125 23.6201 26.4752 23.3601 25.9553" stroke="#333333" stroke-width="2.59554" stroke-linecap="round" stroke-linejoin="round"/>
</svg>
