<svg width="32" height="33" viewBox="0 0 32 33" fill="none" xmlns="http://www.w3.org/2000/svg">
<path d="M29.8332 1.9209L26.3725 27.0111L15.9903 30.4718L5.60818 27.0111L2.14746 1.9209H29.8332Z" stroke="#333333" stroke-width="3.46072" stroke-linecap="round" stroke-linejoin="round"/>
<path d="M8.20361 8.84277H13.3947V22.6857L9.93397 20.9553M23.7769 8.84277H19.451C19.2215 8.84277 19.0014 8.93393 18.8392 9.09618C18.6769 9.25843 18.5858 9.47849 18.5858 9.70795V14.899C18.5858 15.1285 18.6769 15.3486 18.8392 15.5108C19.0014 15.6731 19.2215 15.7642 19.451 15.7642H21.9133C22.0371 15.7642 22.1595 15.7908 22.2722 15.8422C22.3848 15.8936 22.4852 15.9686 22.5664 16.0621C22.6476 16.1556 22.7078 16.2655 22.7428 16.3842C22.7779 16.503 22.7871 16.6279 22.7698 16.7505L22.0465 21.8205L18.5858 22.6857" stroke="#333333" stroke-width="3.46072" stroke-linecap="round" stroke-linejoin="round"/>
</svg>
