<svg width="29" height="34" viewBox="0 0 29 34" fill="none" xmlns="http://www.w3.org/2000/svg">
<path d="M4.23308 3.32073C4.09367 3.32073 3.95998 3.37611 3.86141 3.47469C3.76283 3.57326 3.70745 3.70695 3.70745 3.84636V23.9252C3.70745 24.1144 3.80837 24.2868 3.97027 24.3814L14.1863 30.2726C14.2644 30.3178 14.3528 30.3421 14.443 30.3432C14.5332 30.3443 14.6222 30.3222 14.7014 30.2789L25.5103 24.3562C25.5933 24.3108 25.6624 24.2439 25.7106 24.1625C25.7587 24.0811 25.7839 23.9882 25.7837 23.8936V3.84636C25.7837 3.70695 25.7283 3.57326 25.6297 3.47469C25.5311 3.37611 25.3974 3.32073 25.258 3.32073H4.23308ZM0.553711 3.84636C0.553711 1.81535 2.20207 0.166992 4.23308 0.166992H25.258C27.289 0.166992 28.9374 1.81535 28.9374 3.84636V23.8957C28.9371 24.5553 28.7596 25.2026 28.4234 25.77C28.0872 26.3374 27.6046 26.804 27.0262 27.121L16.2173 33.0458C15.6629 33.3492 15.0398 33.5048 14.4078 33.4974C13.7759 33.49 13.1566 33.32 12.6094 33.0038L2.3955 27.1126C1.83563 26.7898 1.37064 26.3253 1.04732 25.7658C0.724003 25.2062 0.553756 24.5714 0.553711 23.9252V3.84636ZM8.43807 9.10259C8.43807 8.68438 8.6042 8.2833 8.89992 7.98758C9.19564 7.69186 9.59673 7.52572 10.0149 7.52572H19.718C20.1362 7.52572 20.5372 7.69186 20.833 7.98758C21.1287 8.2833 21.2948 8.68438 21.2948 9.10259V21.9194C21.295 22.2122 21.2137 22.4992 21.0599 22.7484C20.9062 22.9976 20.6861 23.199 20.4244 23.3302L15.5718 25.7565C15.3531 25.8657 15.112 25.9225 14.8675 25.9225C14.623 25.9225 14.3819 25.8657 14.1632 25.7565L9.3106 23.3302C9.04878 23.1995 8.82849 22.9985 8.67439 22.7497C8.52029 22.5009 8.43847 22.2141 8.43807 21.9215V20.7063C8.43807 20.2881 8.6042 19.887 8.89992 19.5912C9.19564 19.2955 9.59673 19.1294 10.0149 19.1294C10.4332 19.1294 10.8342 19.2955 11.13 19.5912C11.4257 19.887 11.5918 20.2881 11.5918 20.7063V20.9459L14.8675 22.5817L18.1411 20.9459V17.4327H12.6431C12.2248 17.4327 11.8238 17.2665 11.528 16.9708C11.2323 16.6751 11.0662 16.274 11.0662 15.8558C11.0662 15.4376 11.2323 15.0365 11.528 14.7408C11.8238 14.4451 12.2248 14.2789 12.6431 14.2789H18.1411V10.6795H10.0149C9.59673 10.6795 9.19564 10.5133 8.89992 10.2176C8.6042 9.92189 8.43807 9.52081 8.43807 9.10259Z" fill="#333333"/>
</svg>
