<svg width="40" height="40" viewBox="0 0 40 40" fill="none" xmlns="http://www.w3.org/2000/svg">
<path d="M19.9999 19.1666C18.8948 19.1666 17.835 18.7277 17.0536 17.9463C16.2722 17.1649 15.8333 16.105 15.8333 15C15.8333 13.8949 16.2722 12.8351 17.0536 12.0537C17.835 11.2723 18.8948 10.8333 19.9999 10.8333C21.105 10.8333 22.1648 11.2723 22.9462 12.0537C23.7276 12.8351 24.1666 13.8949 24.1666 15C24.1666 15.5472 24.0588 16.089 23.8494 16.5945C23.64 17.1 23.3331 17.5593 22.9462 17.9463C22.5593 18.3332 22.1 18.6401 21.5944 18.8495C21.0889 19.0589 20.5471 19.1666 19.9999 19.1666ZM19.9999 3.33331C16.9057 3.33331 13.9383 4.56248 11.7503 6.7504C9.56241 8.93832 8.33325 11.9058 8.33325 15C8.33325 23.75 19.9999 36.6666 19.9999 36.6666C19.9999 36.6666 31.6666 23.75 31.6666 15C31.6666 11.9058 30.4374 8.93832 28.2495 6.7504C26.0616 4.56248 23.0941 3.33331 19.9999 3.33331Z" fill="#008250"/>
</svg>
