<svg width="45" height="45" viewBox="0 0 45 45" fill="none" xmlns="http://www.w3.org/2000/svg">
<path d="M18.625 18.3537V26.6462C18.625 27.2662 18.8962 27.7183 19.4387 28.0025C19.9812 28.2867 20.5108 28.2608 21.0275 27.925L27.46 23.8175C27.9508 23.5333 28.1963 23.0942 28.1963 22.5C28.1963 21.9058 27.9508 21.4667 27.46 21.1825L21.0275 17.075C20.5108 16.7392 19.9812 16.7133 19.4387 16.9975C18.8962 17.2817 18.625 17.7337 18.625 18.3537ZM22.5 38C20.3558 38 18.3408 37.5929 16.455 36.7786C14.5692 35.9643 12.9288 34.8602 11.5338 33.4662C10.1388 32.0712 9.03463 30.4308 8.2214 28.545C7.40817 26.6592 7.00103 24.6442 7 22.5C7 20.3558 7.40713 18.3408 8.2214 16.455C9.03567 14.5692 10.1398 12.9288 11.5338 11.5338C12.9288 10.1388 14.5692 9.03463 16.455 8.2214C18.3408 7.40817 20.3558 7.00103 22.5 7C24.6442 7 26.6592 7.40713 28.545 8.2214C30.4308 9.03567 32.0712 10.1398 33.4662 11.5338C34.8612 12.9288 35.9659 14.5692 36.7801 16.455C37.5944 18.3408 38.001 20.3558 38 22.5C38 24.6442 37.5929 26.6592 36.7786 28.545C35.9643 30.4308 34.8602 32.0712 33.4662 33.4662C32.0712 34.8612 30.4308 35.9659 28.545 36.7801C26.6592 37.5944 24.6442 38.001 22.5 38ZM22.5 34.9C25.9358 34.9 28.8617 33.6925 31.2776 31.2776C33.6936 28.8627 34.901 25.9369 34.9 22.5C34.9 19.0642 33.6925 16.1383 31.2776 13.7223C28.8627 11.3064 25.9369 10.099 22.5 10.1C19.0642 10.1 16.1383 11.3074 13.7223 13.7223C11.3064 16.1372 10.099 19.0631 10.1 22.5C10.1 25.9358 11.3074 28.8617 13.7223 31.2776C16.1372 33.6936 19.0631 34.901 22.5 34.9Z" fill="white"/>
</svg>
