<svg width="15" height="17" viewBox="0 0 15 17" fill="none" xmlns="http://www.w3.org/2000/svg">
<path d="M0.917422 0.570391C0.998686 0.523905 1.09076 0.49963 1.18437 0.500004C1.27799 0.500379 1.36987 0.52539 1.45076 0.572525L9.81662 5.45253L7.22782 7.78212L0.649689 1.86212V1.03332C0.649612 0.939422 0.674328 0.847163 0.72134 0.765876C0.768352 0.684589 0.835992 0.617155 0.917422 0.570391ZM0.649689 3.29786V13.7021L6.43102 8.49999L0.649689 3.29786ZM0.649689 15.1379V15.9667C0.649661 16.0605 0.674394 16.1527 0.721391 16.2339C0.768388 16.3151 0.835985 16.3825 0.917356 16.4293C0.998727 16.476 1.09099 16.5005 1.18483 16.5001C1.27867 16.4998 1.37077 16.4748 1.45182 16.4275L9.81662 11.5475L7.22782 9.21786L0.649689 15.1379ZM10.7841 10.9832L14.2508 8.96079C14.3313 8.91384 14.3982 8.84658 14.4446 8.76573C14.4911 8.68487 14.5156 8.59325 14.5156 8.49999C14.5156 8.40674 14.4911 8.31511 14.4446 8.23426C14.3982 8.1534 14.3313 8.08614 14.2508 8.03919L10.7841 6.01679L8.02462 8.49999L10.7841 10.9832Z" fill="white"/>
</svg>
