<svg width="76" height="53" viewBox="0 0 76 53" fill="none" xmlns="http://www.w3.org/2000/svg">
<path d="M9.97 16.741C9.96966 13.9901 10.6531 11.2823 11.9589 8.86113C13.2646 6.43992 15.1517 4.38126 17.4505 2.87029C19.7492 1.35932 22.3875 0.443444 25.128 0.205031C27.8685 -0.0333817 30.6253 0.413148 33.1504 1.50446C35.6756 2.59577 37.8898 4.29763 39.5941 6.45698C41.2983 8.61633 42.4391 11.1654 42.9138 13.875C43.3885 16.5846 43.1822 19.3697 42.3135 21.9798C41.4449 24.5899 39.941 26.9432 37.9373 28.8279C41.7156 30.6614 44.996 33.3789 47.5005 36.7501C50.005 40.1213 51.6595 44.0467 52.3239 48.1935C52.3971 48.6549 52.3787 49.1262 52.2697 49.5805C52.1607 50.0348 51.9633 50.4632 51.6888 50.8412C51.4142 51.2193 51.0679 51.5395 50.6696 51.7837C50.2713 52.0278 49.8288 52.1912 49.3674 52.2643C48.906 52.3375 48.4347 52.3191 47.9804 52.2101C47.5261 52.1011 47.0977 51.9037 46.7197 51.6292C46.3417 51.3547 46.0214 51.0083 45.7772 50.61C45.5331 50.2117 45.3697 49.7692 45.2966 49.3078C44.5853 44.852 42.3089 40.7956 38.876 37.8672C35.4431 34.9388 31.0786 33.3301 26.5664 33.3301C22.0541 33.3301 17.6897 34.9388 14.2568 37.8672C10.8239 40.7956 8.5474 44.852 7.83618 49.3078C7.7627 49.7692 7.59905 50.2117 7.35459 50.6099C7.11012 51.008 6.78963 51.3542 6.41139 51.6285C6.03316 51.9028 5.6046 52.0999 5.15018 52.2086C4.69576 52.3173 4.22438 52.3355 3.76295 52.262C3.30153 52.1885 2.8591 52.0249 2.46091 51.7804C2.06273 51.5359 1.7166 51.2154 1.44228 50.8372C1.16797 50.459 0.970831 50.0304 0.862138 49.576C0.753444 49.1216 0.73532 48.6502 0.808799 48.1888C1.47424 44.0435 3.12933 40.1199 5.63375 36.7504C8.13818 33.3809 11.4181 30.6649 15.1955 28.8326C13.5438 27.2817 12.2278 25.4084 11.329 23.3286C10.4302 21.2488 9.96767 19.0067 9.97 16.741ZM52.6464 9.62827C55.4014 9.63019 58.0967 10.4318 60.405 11.9359C62.7133 13.4399 64.5354 15.5817 65.65 18.1012C66.7646 20.6207 67.124 23.4096 66.6843 26.1293C66.2446 28.8491 65.0249 31.3827 63.1732 33.4227C66.0595 34.8556 68.624 36.8607 70.7109 39.3161C72.7978 41.7714 74.3633 44.6256 75.3123 47.7051C75.5003 48.3029 75.5267 48.9398 75.389 49.5511C75.2512 50.1624 74.9542 50.7264 74.528 51.1858C74.1018 51.6453 73.5616 51.9837 72.9623 52.1669C72.3631 52.3501 71.726 52.3714 71.1158 52.2288C70.5061 52.0868 69.9446 51.7868 69.4876 51.3589C69.0306 50.9311 68.6943 50.3905 68.5125 49.7915C67.6627 47.0422 66.114 44.5605 64.0178 42.5891C61.9217 40.6176 59.3498 39.2238 56.5536 38.5439C55.7771 38.3564 55.0863 37.913 54.5926 37.2851C54.0988 36.6571 53.8308 35.8812 53.8318 35.0824V33.4132C53.8314 32.7511 54.0159 32.102 54.3644 31.5391C54.7129 30.9761 55.2116 30.5216 55.8044 30.2267C57.242 29.5143 58.3964 28.3368 59.0803 26.8854C59.7641 25.434 59.9372 23.7941 59.5714 22.232C59.2056 20.6698 58.3223 19.2773 57.0652 18.2804C55.808 17.2836 54.2508 16.7411 52.6464 16.741C51.7032 16.741 50.7986 16.3663 50.1317 15.6994C49.4647 15.0324 49.09 14.1278 49.09 13.1846C49.09 12.2414 49.4647 11.3369 50.1317 10.6699C50.7986 10.003 51.7032 9.62827 52.6464 9.62827ZM26.5664 7.25736C25.3034 7.2288 24.0475 7.45284 22.8724 7.91633C21.6972 8.37983 20.6265 9.07343 19.7231 9.95642C18.8197 10.8394 18.1018 11.894 17.6116 13.0582C17.1213 14.2225 16.8686 15.4729 16.8683 16.7362C16.868 17.9995 17.1201 19.25 17.6097 20.4145C18.0994 21.579 18.8167 22.634 19.7197 23.5174C20.6227 24.4009 21.693 25.095 22.868 25.5591C24.0429 26.0232 25.2987 26.2478 26.5616 26.2199C29.0395 26.1651 31.3975 25.1424 33.1308 23.3708C34.8641 21.5992 35.835 19.2194 35.8356 16.7409C35.8362 14.2624 34.8665 11.8822 33.1341 10.1097C31.4017 8.33723 29.0442 7.31339 26.5664 7.25736Z" fill="#4CA14C"/>
</svg>
