<svg width="38" height="40" viewBox="0 0 38 40" fill="none" xmlns="http://www.w3.org/2000/svg">
<path d="M20.0001 0.818359C16.5303 0.818997 13.1259 1.7615 10.1498 3.54532C7.17372 5.32915 4.7377 7.88738 3.10158 10.9471C1.46546 14.0069 0.69061 17.4534 0.859688 20.919C1.02877 24.3846 2.13543 27.7393 4.06163 30.6253C5.98783 33.5112 8.66131 35.8202 11.7969 37.3059C14.9325 38.7915 18.4125 39.3981 21.8658 39.061C25.3191 38.7239 28.6162 37.4557 31.4052 35.3916C34.1943 33.3276 36.3707 30.5452 37.7024 27.3412C38.356 25.7695 36.7901 24.1902 35.2146 24.8304C32.5143 25.9242 29.5161 26.037 26.7413 25.1493C23.9664 24.2617 21.5904 22.4296 20.0264 19.9716C18.4624 17.5137 17.8092 14.5854 18.1805 11.6957C18.5517 8.80612 19.924 6.138 22.0586 4.15528L22.2061 4.00194C23.2622 2.79444 22.4227 0.833693 20.7533 0.833693H20.2435L20.1131 0.822193L19.9981 0.818359H20.0001Z" fill="#333333"/>
</svg>
