<svg width="36" height="67" viewBox="0 0 36 67" fill="none" xmlns="http://www.w3.org/2000/svg">
<path d="M34.7083 61.9262L6.9988 33.5L34.7083 5.0739C35.2044 4.56602 35.4821 3.88423 35.4821 3.17427C35.4821 2.46432 35.2044 1.78253 34.7083 1.27465C34.4674 1.02873 34.1798 0.833366 33.8624 0.699994C33.545 0.566622 33.2041 0.497925 32.8599 0.497925C32.5156 0.497925 32.1748 0.566622 31.8574 0.699994C31.54 0.833366 31.2524 1.02873 31.0114 1.27465L1.52743 31.5151C1.00979 32.0461 0.72008 32.7584 0.72008 33.5C0.72008 34.2416 1.00979 34.9539 1.52743 35.485L31.0057 65.7254C31.2469 65.9731 31.5352 66.1699 31.8536 66.3043C32.1721 66.4387 32.5142 66.5079 32.8599 66.5079C33.2055 66.5079 33.5477 66.4387 33.8661 66.3043C34.1846 66.1699 34.4729 65.9731 34.714 65.7254C35.2101 65.2175 35.4878 64.5357 35.4878 63.8258C35.4878 63.1158 35.2101 62.434 34.714 61.9262L34.7083 61.9262Z" fill="#333333"/>
</svg>
