<svg width="28" height="33" viewBox="0 0 28 33" fill="none" xmlns="http://www.w3.org/2000/svg">
<path d="M3.76115 3.46436C3.62597 3.46436 3.49633 3.51806 3.40075 3.61364C3.30517 3.70923 3.25147 3.83887 3.25147 3.97404V23.444C3.25147 23.6275 3.34933 23.7947 3.50631 23.8864L13.4125 29.5989C13.4883 29.6427 13.574 29.6663 13.6615 29.6674C13.749 29.6685 13.8352 29.647 13.912 29.6051L24.3932 23.8619C24.4736 23.8179 24.5407 23.753 24.5873 23.6741C24.634 23.5952 24.6585 23.5051 24.6582 23.4134V3.97404C24.6582 3.83887 24.6045 3.70923 24.5089 3.61364C24.4134 3.51806 24.2837 3.46436 24.1485 3.46436H3.76115ZM0.193359 3.97404C0.193359 2.00462 1.79173 0.40625 3.76115 0.40625H24.1485C26.118 0.40625 27.7163 2.00462 27.7163 3.97404V23.4155C27.7161 24.055 27.5439 24.6827 27.2179 25.2329C26.8919 25.7831 26.424 26.2355 25.8631 26.5429L15.382 32.288C14.8444 32.5823 14.2401 32.7331 13.6274 32.7259C13.0146 32.7188 12.414 32.5539 11.8835 32.2473L1.97929 26.5347C1.43641 26.2218 0.985519 25.7713 0.672003 25.2288C0.358488 24.6862 0.193403 24.0706 0.193359 23.444V3.97404ZM7.83863 9.07089C7.83863 8.66536 7.99972 8.27644 8.28648 7.98968C8.57323 7.70293 8.96215 7.54183 9.36768 7.54183H18.7765C19.182 7.54183 19.5709 7.70293 19.8577 7.98968C20.1444 8.27644 20.3055 8.66536 20.3055 9.07089V21.499C20.3057 21.7829 20.2268 22.0613 20.0778 22.3029C19.9287 22.5445 19.7153 22.7398 19.4615 22.867L14.7561 25.2197C14.544 25.3256 14.3102 25.3807 14.0731 25.3807C13.836 25.3807 13.6022 25.3256 13.3901 25.2197L8.6847 22.867C8.43082 22.7403 8.21721 22.5454 8.06779 22.3041C7.91836 22.0629 7.83902 21.7848 7.83863 21.5011V20.3227C7.83863 19.9172 7.99972 19.5282 8.28648 19.2415C8.57323 18.9547 8.96215 18.7936 9.36768 18.7936C9.77321 18.7936 10.1621 18.9547 10.4489 19.2415C10.7356 19.5282 10.8967 19.9172 10.8967 20.3227V20.5551L14.0731 22.1412L17.2474 20.5551V17.1484H11.9161C11.5106 17.1484 11.1217 16.9873 10.8349 16.7005C10.5481 16.4138 10.3871 16.0248 10.3871 15.6193C10.3871 15.2138 10.5481 14.8249 10.8349 14.5381C11.1217 14.2514 11.5106 14.0903 11.9161 14.0903H17.2474V10.5999H9.36768C8.96215 10.5999 8.57323 10.4388 8.28648 10.1521C7.99972 9.86534 7.83863 9.47642 7.83863 9.07089Z" fill="#F8F8F8"/>
</svg>
