<svg width="28" height="31" viewBox="0 0 28 31" fill="none" xmlns="http://www.w3.org/2000/svg">
<path d="M0.828125 0.560547L3.22581 27.4505L13.9855 30.4383L24.7733 27.4468L27.1747 0.560547H0.829992H0.828125ZM22.7173 25.7363L14.0453 28.1396V28.1526L14.0229 28.1452L14.0005 28.1526V28.1396L5.32846 25.7363L3.2781 2.76029H24.7676L22.7173 25.7363ZM18.0489 16.0297L17.668 20.306L13.9855 21.2994L10.3124 20.3097L10.0771 17.6767H6.76632L7.22756 22.8568L13.9986 24.7298L20.7491 22.8568L21.6548 12.732H9.63458L9.33394 9.35393H21.9535L22.2486 6.05618H5.72807L6.6188 16.0297H18.0489Z" fill="#F8F8F8"/>
</svg>
