<svg width="32" height="32" viewBox="0 0 32 32" fill="none" xmlns="http://www.w3.org/2000/svg">
<path d="M29.3335 2.07715L25.9777 26.4065L15.9104 29.7623L5.84308 26.4065L2.4873 2.07715H29.3335Z" stroke="#F8F8F8" stroke-width="3.35578" stroke-linecap="round" stroke-linejoin="round"/>
<path d="M8.35938 8.78906H13.393V22.2122L10.0373 20.5343M23.4604 8.78906H19.2657C19.0431 8.78906 18.8298 8.87745 18.6724 9.03478C18.5151 9.19212 18.4267 9.4055 18.4267 9.62801V14.6617C18.4267 14.8842 18.5151 15.0976 18.6724 15.2549C18.8298 15.4122 19.0431 15.5006 19.2657 15.5006H21.6533C21.7734 15.5006 21.8921 15.5264 22.0013 15.5763C22.1106 15.6261 22.2079 15.6988 22.2866 15.7895C22.3653 15.8801 22.4237 15.9867 22.4577 16.1018C22.4917 16.217 22.5007 16.3381 22.4838 16.457L21.7825 21.3732L18.4267 22.2122" stroke="#F8F8F8" stroke-width="3.35578" stroke-linecap="round" stroke-linejoin="round"/>
</svg>
