<svg width="34" height="35" viewBox="0 0 34 35" fill="none" xmlns="http://www.w3.org/2000/svg">
<path d="M23.9312 17.7647V24.6861M23.9312 12.5736V12.5909M32.583 9.11285V26.4165C32.583 28.2521 31.8538 30.0126 30.5558 31.3107C29.2577 32.6087 27.4973 33.3379 25.6616 33.3379H8.35797C6.52228 33.3379 4.76179 32.6087 3.46377 31.3107C2.16574 30.0126 1.43652 28.2521 1.43652 26.4165V9.11285C1.43652 7.27717 2.16574 5.51667 3.46377 4.21865C4.76179 2.92063 6.52228 2.19141 8.35797 2.19141H25.6616C27.4973 2.19141 29.2577 2.92063 30.5558 4.21865C31.8538 5.51667 32.583 7.27717 32.583 9.11285Z" stroke="#333333" stroke-width="2.59554" stroke-linecap="round" stroke-linejoin="round"/>
<path d="M8.3584 24.6857L10.3051 19.4946M10.3051 19.4946L13.5495 10.8428L16.7939 19.4946M10.3051 19.4946H16.7939M18.7406 24.6857L16.7939 19.4946" stroke="#333333" stroke-width="2.59554" stroke-linecap="round" stroke-linejoin="round"/>
</svg>
