<svg width="31" height="33" viewBox="0 0 31 33" fill="none" xmlns="http://www.w3.org/2000/svg">
<path d="M11.014 20.6232L11.0648 20.6479L11.1554 20.6916C11.271 20.7466 11.3876 20.8011 11.5052 20.8535L11.5792 20.8864C11.7143 20.9456 11.8501 21.002 11.9875 21.0562L12.087 21.0952C12.2139 21.1447 12.3429 21.1926 12.4721 21.2381L12.5206 21.2547C12.6625 21.3042 12.8057 21.3502 12.9502 21.3953L13.0542 21.4261C13.2011 21.4705 13.3461 21.5235 13.4977 21.5516C23.1204 23.3061 25.9152 15.7689 25.9152 15.7689C23.5676 18.8273 19.4007 19.6342 15.4526 18.736C15.3031 18.7023 15.1577 18.6554 15.0119 18.6122L14.9021 18.5791C14.7599 18.5354 14.6185 18.4894 14.4778 18.4411L14.4196 18.4201C14.2942 18.3757 14.1695 18.3294 14.0455 18.2813L13.9408 18.2403C13.8051 18.1869 13.6705 18.1309 13.537 18.0723L13.4561 18.0365C13.342 17.985 13.2284 17.9322 13.1155 17.8781L13.0168 17.8307C12.9283 17.7875 12.8407 17.7414 12.7533 17.6964L12.5774 17.6043C12.4712 17.5471 12.3659 17.4881 12.2618 17.4271L12.1552 17.3676C12.0167 17.2857 11.8796 17.2016 11.7437 17.1154L11.6329 17.0417C11.5343 16.9785 11.4367 16.9136 11.3402 16.8472L11.2459 16.7809C11.1528 16.715 11.0606 16.6484 10.9693 16.5808L10.8466 16.4879C10.7626 16.424 10.6794 16.359 10.597 16.2931L10.4857 16.2036C10.3809 16.1175 10.2772 16.0302 10.1745 15.9416L10.1406 15.9129C10.0298 15.8159 9.92058 15.717 9.8131 15.6163L9.72097 15.5275C9.64121 15.452 9.56302 15.3757 9.48589 15.2975L9.39376 15.2053C9.29605 15.1053 9.19995 15.0036 9.1055 14.9005L9.09129 14.8852C8.9917 14.7762 8.89419 14.6652 8.79883 14.5525L8.72222 14.4614C8.65115 14.3759 8.5806 14.289 8.51189 14.2013L8.43476 14.1055C8.35221 13.9988 8.27121 13.891 8.19178 13.782C6.00001 10.792 5.21239 6.66833 6.96428 3.2817L5.4114 5.25129C3.42154 8.11091 3.66951 11.8316 5.18922 14.8705L5.30057 15.0866L5.37191 15.2235L5.41614 15.3022L5.49537 15.4441C5.5425 15.5273 5.59067 15.6099 5.64016 15.6926L5.72308 15.8292C5.77784 15.9177 5.83391 16.0051 5.89156 16.0925L5.96316 16.2036C6.0424 16.3215 6.12348 16.4394 6.20692 16.5553L6.21403 16.5645L6.2551 16.62C6.32749 16.7198 6.40199 16.8182 6.47728 16.9156L6.56099 17.022C6.62811 17.1065 6.69682 17.1907 6.76632 17.2744L6.84476 17.3679C6.93822 17.4782 7.03351 17.5877 7.13091 17.6948L7.1367 17.7009L7.14776 17.713C7.24253 17.8167 7.33993 17.9178 7.43838 18.0194L7.53157 18.1134C7.60791 18.1903 7.6853 18.2658 7.76375 18.3411L7.85878 18.4314C7.96329 18.5298 8.06885 18.6265 8.17678 18.7212L8.18204 18.7252L8.23732 18.7726C8.33236 18.8547 8.42923 18.9366 8.52663 19.0168L8.64641 19.1121C8.72591 19.1758 8.80646 19.2388 8.88754 19.3006L9.01627 19.3986C9.10577 19.4644 9.1958 19.5291 9.28662 19.5926L9.38533 19.6626L9.41245 19.6818C9.49879 19.7413 9.58698 19.7982 9.67517 19.8553L9.78889 19.9311C9.92393 20.0166 10.0613 20.1011 10.2001 20.1828L10.3138 20.247C10.4159 20.3057 10.5183 20.3633 10.6223 20.4197L10.7929 20.5081L11.014 20.6232ZM11.9862 10.9371C12.2018 11.2461 12.4405 11.6136 12.7267 11.8621C12.8304 11.9764 12.9389 12.0875 13.0494 12.1972L13.1347 12.281C13.2424 12.3852 13.3516 12.4876 13.4643 12.5874L13.478 12.599L13.4811 12.6024C13.6062 12.7119 13.7352 12.8172 13.8663 12.9209L13.9539 12.9893C14.0856 13.0902 14.2195 13.1891 14.357 13.2837L14.3688 13.2923L14.5526 13.4134L14.6399 13.4713C14.7381 13.534 14.8374 13.5956 14.9387 13.654L14.9808 13.6785C15.068 13.7288 15.1564 13.7783 15.2449 13.8262L15.3386 13.8754L15.5234 13.971L15.5513 13.9836C15.6782 14.046 15.8061 14.106 15.9367 14.1632L16.0217 14.1982C16.126 14.2424 16.2315 14.2858 16.3373 14.3264L16.4727 14.3759C16.569 14.4117 16.6653 14.4443 16.7627 14.4767L16.8941 14.5188C17.0326 14.5617 17.1692 14.6159 17.3135 14.6399C24.7427 15.8711 26.458 10.1505 26.458 10.1505C24.9117 12.3773 21.9176 13.4395 18.7223 12.6103C18.5811 12.5732 18.4409 12.5326 18.3017 12.4887L18.1751 12.4479C18.0763 12.416 17.9781 12.382 17.8807 12.3465L17.7481 12.297C17.6417 12.2562 17.5361 12.2136 17.4311 12.1693L17.3458 12.133C17.2152 12.0762 17.086 12.016 16.9583 11.9527L16.7638 11.8537L16.6517 11.7961C16.569 11.7513 16.4869 11.7045 16.4058 11.6573L16.3471 11.6239C16.2466 11.5653 16.1473 11.5048 16.0491 11.4425L15.9593 11.3822L15.7666 11.2548C15.6304 11.1603 15.4965 11.0625 15.3652 10.9613L15.2749 10.89C13.8763 9.78619 12.7678 8.27675 12.2405 6.5654C11.6882 4.79114 11.8072 2.79891 12.7641 1.18232L11.5884 2.84234C10.1495 4.91276 10.2277 7.68498 11.3502 9.87491C11.5379 10.2429 11.7504 10.5978 11.9862 10.9371ZM19.8169 8.37547L20.0014 8.43944L20.0828 8.46523C20.1704 8.49261 20.2571 8.52473 20.3473 8.54158C24.4495 9.3342 25.5625 6.43641 25.8586 6.00996C24.8838 7.41331 23.2459 7.75 21.2361 7.26221C21.0715 7.22033 20.9091 7.17026 20.7496 7.11216C20.5531 7.04234 20.3604 6.96238 20.1723 6.87261C19.8151 6.70078 19.476 6.49382 19.1598 6.25477C17.3614 4.88985 16.2442 2.28716 17.4177 0.166992L16.7828 1.04202C15.9346 2.29058 15.8511 3.84109 16.4397 5.21944C17.0605 6.68307 18.3325 7.83082 19.8169 8.37547ZM15.8572 25.1707H14.7447C14.7132 25.1719 14.683 25.1833 14.6585 25.203C14.634 25.2228 14.6165 25.25 14.6086 25.2805L14.2138 27.1074L13.8189 28.9343C13.8111 28.9648 13.7937 28.992 13.7692 29.0118C13.7447 29.0316 13.7145 29.0429 13.6831 29.0441H12.8957C12.1168 29.0441 12.2068 28.5052 12.3663 27.7671L12.371 27.7447L12.3884 27.6515L12.3916 27.6341L12.4271 27.4446L12.4653 27.2416L12.5058 27.035L12.6854 26.1579L12.8652 25.2807C12.8686 25.2673 12.8688 25.2533 12.8659 25.2398C12.8629 25.2263 12.8568 25.2137 12.8481 25.203C12.8393 25.1922 12.8282 25.1837 12.8156 25.1781C12.803 25.1724 12.7892 25.1698 12.7754 25.1704H11.6337C11.6023 25.1716 11.572 25.1829 11.5476 25.2028C11.5232 25.2227 11.5059 25.2499 11.4984 25.2805L11.2528 26.4451L11.0074 27.6099L11.0069 27.6115L10.9843 27.72C10.7016 29.0106 10.7763 30.2418 12.3131 30.2805L12.3579 30.2813H14.77C14.8014 30.2801 14.8317 30.2688 14.8562 30.249C14.8806 30.2292 14.8981 30.2021 14.9058 30.1716L15.426 27.7263L15.9462 25.2807C15.9591 25.2202 15.9191 25.171 15.8572 25.1707ZM3.94381 25.1578H2.72236C2.69081 25.159 2.66047 25.1703 2.63579 25.19C2.61112 25.2097 2.59339 25.2368 2.58521 25.2673L2.46938 25.7785L2.35356 26.2898C2.34013 26.35 2.37935 26.3993 2.44122 26.3993H3.67215C3.70367 26.3981 3.73397 26.3868 3.75855 26.367C3.78312 26.3472 3.80064 26.32 3.80851 26.2895L3.92039 25.7785L4.03226 25.2676C4.04516 25.2073 4.00568 25.1578 3.94381 25.1578ZM3.58949 26.7489H2.3583C2.32675 26.7501 2.29644 26.7614 2.27177 26.7811C2.2471 26.8008 2.22936 26.8279 2.22114 26.8584L2.04819 27.6244L1.87551 28.3902L1.82733 28.6097L1.66122 29.3916L1.49538 30.1737C1.48248 30.2339 1.45589 30.3313 1.43615 30.3898C1.43615 30.3898 1.20608 31.0742 0.81937 31.0663L0.770933 31.0653L0.43635 31.0592C0.404919 31.06 0.374293 31.0708 0.349463 31.0901C0.324633 31.1093 0.306646 31.1361 0.298147 31.1664L0.170473 31.7031L0.0430633 32.2396C0.0285849 32.2996 0.067545 32.3491 0.128881 32.3502C0.348163 32.3528 0.839377 32.3583 1.13658 32.3583C2.10242 32.3583 2.6118 31.8231 2.93796 30.2832L3.31993 28.5157L3.6782 26.8581C3.6911 26.7983 3.65109 26.7489 3.58949 26.7489ZM26.2593 26.3345L26.2082 26.1236L26.1579 25.9078L26.1324 25.7988C26.0324 25.41 25.7388 25.186 25.1013 25.186L24.1088 25.1849L23.1949 25.1836H22.1664C22.1349 25.1848 22.1047 25.1961 22.0803 25.2159C22.0558 25.2357 22.0385 25.2629 22.0308 25.2934L21.9852 25.5082L21.9315 25.762L21.9165 25.8333L21.4535 28.0024L21.0139 30.0615C21.0007 30.1221 20.9965 30.1963 21.0039 30.2263C21.0112 30.2566 21.13 30.2813 21.1916 30.2813H22.1192C22.1811 30.2813 22.2593 30.2703 22.293 30.2566C22.3267 30.2429 22.3764 30.1215 22.3888 30.0613L22.5536 29.2455L22.7186 28.4294L22.7189 28.4281L22.741 28.3194L22.9411 27.3822L23.1177 26.5546C23.1255 26.5241 23.1429 26.497 23.1673 26.4772C23.1917 26.4575 23.2219 26.4461 23.2533 26.4448L26.1724 26.4435C26.2343 26.444 26.2732 26.3948 26.2593 26.3345ZM30.0171 24.4286L29.7923 24.4294H28.858C28.8238 24.4313 28.7904 24.4406 28.7601 24.4567C28.7298 24.4727 28.7033 24.4951 28.6824 24.5223L26.6162 27.5491C26.5815 27.6002 26.5417 27.5928 26.528 27.5328L26.3759 26.866C26.3677 26.8355 26.3499 26.8083 26.3252 26.7886C26.3005 26.7689 26.2701 26.7577 26.2385 26.7565H24.9104C24.8486 26.7565 24.812 26.8049 24.8288 26.8642L25.424 28.9493C25.4409 29.0088 25.4422 29.1062 25.4269 29.1662L25.1676 30.1752C25.1521 30.2353 25.19 30.284 25.2518 30.284H26.5646C26.5964 30.2827 26.627 30.2715 26.6521 30.252C26.6772 30.2325 26.6956 30.2057 26.7047 30.1752L26.9642 29.1662C26.9848 29.0951 27.0171 29.0279 27.0598 28.9675L30.4141 24.5158C30.4514 24.4663 30.4312 24.426 30.3696 24.4265L30.0171 24.4286ZM19.4647 27.0397V27.0387C19.4601 27.0705 19.4444 27.0996 19.4203 27.1209C19.3963 27.1421 19.3654 27.1542 19.3333 27.1548H17.6494C17.5909 27.1548 17.5614 27.1153 17.5701 27.0663L17.5717 27.0624L17.5706 27.0629L17.5714 27.0574L17.5791 27.0287C17.7399 26.6012 18.0674 26.3206 18.6831 26.3206C19.3765 26.3203 19.5118 26.6588 19.4647 27.0397ZM18.9706 25.0959C16.8091 25.0959 16.2968 26.408 16.0093 27.7323C15.7221 29.0822 15.7466 30.344 17.9837 30.344H18.2548L18.3222 30.3437H18.338L18.6065 30.3429H18.6112C19.202 30.3406 19.7945 30.3361 20.0343 30.3342C20.0656 30.3327 20.0955 30.321 20.1196 30.3011C20.1438 30.2812 20.1609 30.2541 20.1683 30.2237L20.2589 29.7812L20.2765 29.6951L20.3845 29.167C20.3879 29.1536 20.3881 29.1396 20.3852 29.1261C20.3822 29.1126 20.3761 29.1 20.3674 29.0893C20.3586 29.0786 20.3475 29.0701 20.3349 29.0645C20.3223 29.0589 20.3085 29.0563 20.2947 29.057H18.2838C17.4838 29.057 17.2463 28.8445 17.334 28.2196H20.5485L20.5482 28.2199L20.5503 28.2196C20.5757 28.2185 20.6003 28.2101 20.6211 28.1954C20.6419 28.1807 20.658 28.1603 20.6674 28.1367L20.6751 28.1088L20.6748 28.109C21.1521 26.3087 21.0152 25.0962 18.9706 25.0959ZM8.75407 27.0329L8.72354 27.1406L8.48083 28.0011L8.23812 28.8611C8.22819 28.8916 8.20917 28.9183 8.18362 28.9376C8.15806 28.957 8.1272 28.968 8.09517 28.9693H6.81054C5.83601 28.9693 5.59857 28.207 5.83601 27.0829C6.0732 25.9331 6.53835 25.2184 7.49761 25.146C8.80857 25.047 9.07076 25.9689 8.75407 27.0329ZM9.63541 28.9032C9.63541 28.9032 10.2411 27.4322 10.3786 26.583C10.5662 25.4461 9.99685 23.7966 7.79771 23.7966C5.6112 23.7966 4.66142 25.371 4.29919 27.0829C3.93697 28.8072 4.4116 30.319 6.58573 30.3066L8.30103 30.3003L9.90392 30.2945C9.9357 30.2929 9.96622 30.2816 9.99136 30.2621C10.0165 30.2426 10.035 30.2159 10.0445 30.1855L10.3238 29.1204C10.3393 29.0604 10.3017 29.0114 10.2398 29.0109L9.9721 29.0093L9.70439 29.0077C9.652 29.0075 9.62199 28.9733 9.62831 28.9282L9.63541 28.9032ZM20.46 27.9184C20.46 27.9281 20.4581 27.9377 20.4545 27.9467C20.4508 27.9556 20.4453 27.9637 20.4385 27.9706C20.4317 27.9775 20.4236 27.9829 20.4146 27.9866C20.4057 27.9903 20.3961 27.9923 20.3864 27.9923C20.3768 27.9923 20.3672 27.9904 20.3582 27.9867C20.3493 27.983 20.3411 27.9776 20.3343 27.9708C20.3274 27.964 20.322 27.9558 20.3183 27.9469C20.3145 27.938 20.3126 27.9284 20.3126 27.9187C20.3126 27.8992 20.3203 27.8804 20.3341 27.8666C20.3479 27.8527 20.3666 27.8449 20.3862 27.8449C20.4057 27.8448 20.4245 27.8526 20.4383 27.8664C20.4522 27.8802 20.46 27.8989 20.46 27.9184Z" fill="#333333"/>
</svg>
