<svg width="29" height="32" viewBox="0 0 29 32" fill="none" xmlns="http://www.w3.org/2000/svg">
<path d="M0.916504 0.358398L3.38917 28.0893L14.4854 31.1705L25.6105 28.0854L28.087 0.358398H0.91843H0.916504ZM23.4902 26.3214L14.547 28.7999V28.8133L14.5239 28.8056L14.5008 28.8133V28.7999L5.55757 26.3214L3.44309 2.62694H25.6047L23.4902 26.3214ZM18.6758 16.3113L18.283 20.7213L14.4854 21.7458L10.6974 20.7252L10.4548 18.0099H7.0404L7.51606 23.3519L14.4989 25.2834L21.4605 23.3519L22.3944 12.9105H9.99836L9.68832 9.42678H22.7026L23.0068 6.02589H5.96968L6.88827 16.3113H18.6758Z" fill="#333333"/>
</svg>
