<svg width="30" height="32" viewBox="0 0 30 32" fill="none" xmlns="http://www.w3.org/2000/svg">
<path d="M10.7711 20.2421L10.8204 20.2661L10.9082 20.3085C11.0202 20.3618 11.1333 20.4147 11.2474 20.4655L11.3191 20.4974C11.4501 20.5548 11.5818 20.6094 11.715 20.662L11.8115 20.6998C11.9346 20.7478 12.0596 20.7942 12.185 20.8384L12.2319 20.8545C12.3695 20.9025 12.5084 20.9471 12.6485 20.9908L12.7494 21.0207C12.8918 21.0638 13.0325 21.1151 13.1795 21.1424C22.5103 22.8437 25.2204 15.5351 25.2204 15.5351C22.944 18.5007 18.9035 19.2831 15.0751 18.4121C14.9301 18.3795 14.7892 18.334 14.6477 18.2922L14.5413 18.26C14.4034 18.2177 14.2662 18.1731 14.1298 18.1262L14.0734 18.1058C13.9518 18.0628 13.8309 18.0179 13.7107 17.9713L13.6091 17.9315C13.4775 17.8797 13.347 17.8254 13.2175 17.7686L13.1391 17.7339C13.0285 17.684 12.9183 17.6327 12.8088 17.5802L12.7131 17.5343C12.6274 17.4924 12.5423 17.4478 12.4576 17.4041L12.2871 17.3148C12.184 17.2594 12.082 17.2021 11.981 17.143L11.8776 17.0853C11.7434 17.0059 11.6104 16.9243 11.4787 16.8407L11.3712 16.7693C11.2756 16.7079 11.181 16.645 11.0874 16.5806L10.996 16.5163C10.9056 16.4525 10.8163 16.3879 10.7277 16.3223L10.6087 16.2322C10.5273 16.1703 10.4466 16.1073 10.3668 16.0433L10.2588 15.9565C10.1572 15.8731 10.0566 15.7884 9.95706 15.7025L9.92413 15.6747C9.81667 15.5806 9.7108 15.4847 9.60659 15.387L9.51725 15.301C9.4399 15.2277 9.36409 15.1537 9.2893 15.0779L9.19996 14.9886C9.10521 14.8915 9.01203 14.793 8.92044 14.693L8.90666 14.6782C8.81009 14.5724 8.71554 14.4649 8.62307 14.3555L8.54878 14.2672C8.47986 14.1842 8.41145 14.1 8.34483 14.015L8.27004 13.9221C8.19 13.8187 8.11145 13.7141 8.03443 13.6084C5.90913 10.7091 5.14538 6.71044 6.84415 3.4265L5.33836 5.33637C3.40884 8.10927 3.6493 11.7171 5.12292 14.6639L5.2309 14.8734L5.30007 15.0062L5.34296 15.0825L5.41979 15.2201C5.46548 15.3008 5.51219 15.3809 5.56018 15.4611L5.64059 15.5935C5.69368 15.6793 5.74806 15.7641 5.80396 15.8488L5.87339 15.9565C5.95022 16.0709 6.02884 16.1852 6.10976 16.2975L6.11665 16.3065L6.15647 16.3603C6.22667 16.4571 6.29891 16.5526 6.37191 16.647L6.45309 16.7501C6.51818 16.8321 6.5848 16.9138 6.65219 16.9949L6.72826 17.0855C6.81888 17.1925 6.91128 17.2987 7.00573 17.4026L7.01134 17.4084L7.02206 17.4202C7.11396 17.5208 7.20841 17.6188 7.30387 17.7173L7.39424 17.8084C7.46826 17.883 7.54331 17.9562 7.61938 18.0292L7.71153 18.1168C7.81286 18.2123 7.91522 18.3059 8.01988 18.3978L8.02499 18.4017L8.07859 18.4476C8.17074 18.5273 8.26468 18.6066 8.35912 18.6845L8.47527 18.7769C8.55236 18.8387 8.63047 18.8997 8.70909 18.9597L8.83391 19.0546C8.9207 19.1184 9.008 19.1812 9.09606 19.2428L9.19179 19.3107L9.21808 19.3293C9.3018 19.387 9.38732 19.4421 9.47283 19.4975L9.5831 19.571C9.71405 19.654 9.8473 19.7359 9.98182 19.8151L10.0921 19.8773C10.1911 19.9343 10.2904 19.9902 10.3913 20.0448L10.5567 20.1306L10.7711 20.2421ZM11.7138 10.8498C11.9228 11.1494 12.1544 11.5058 12.4318 11.7467C12.5324 11.8575 12.6376 11.9653 12.7448 12.0717L12.8275 12.1529C12.9319 12.254 13.0378 12.3532 13.1471 12.45L13.1603 12.4612L13.1634 12.4645C13.2846 12.5707 13.4097 12.6728 13.5368 12.7734L13.6218 12.8398C13.7495 12.9375 13.8794 13.0335 14.0127 13.1252L14.0241 13.1336L14.2023 13.251L14.2871 13.3072C14.3823 13.3679 14.4785 13.4276 14.5768 13.4843L14.6176 13.5081C14.7021 13.5568 14.7879 13.6048 14.8736 13.6513L14.9645 13.699L15.1437 13.7916L15.1708 13.8039C15.2938 13.8644 15.4179 13.9226 15.5445 13.978L15.6269 14.0119C15.728 14.0548 15.8304 14.0969 15.933 14.1362L16.0642 14.1842C16.1576 14.219 16.251 14.2506 16.3455 14.282L16.4729 14.3228C16.6071 14.3645 16.7396 14.417 16.8795 14.4403C24.0835 15.6341 25.7468 10.087 25.7468 10.087C24.2474 12.2463 21.344 13.2763 18.2457 12.4722C18.1087 12.4362 17.9727 12.3969 17.8377 12.3543L17.715 12.3147C17.6192 12.2838 17.524 12.2509 17.4296 12.2164L17.3009 12.1684C17.1978 12.1288 17.0954 12.0876 16.9936 12.0446L16.9109 12.0094C16.7842 11.9543 16.6589 11.896 16.5351 11.8346L16.3465 11.7386L16.2378 11.6827C16.1576 11.6393 16.078 11.5938 15.9994 11.5482L15.9424 11.5157C15.845 11.4589 15.7487 11.4003 15.6535 11.3399L15.5664 11.2814L15.3796 11.1579C15.2475 11.0662 15.1177 10.9713 14.9903 10.8732L14.9028 10.8041C13.5465 9.73376 12.4716 8.27009 11.9604 6.61063C11.4248 4.89017 11.5402 2.95835 12.4681 1.39079L11.3281 3.00047C9.93281 5.0081 10.0086 7.69626 11.0971 9.81978C11.2791 10.1767 11.4851 10.5208 11.7138 10.8498ZM19.307 8.36581L19.486 8.42784L19.5648 8.45285C19.6498 8.4794 19.7338 8.51054 19.8214 8.52688C23.7991 9.29547 24.8784 6.48556 25.1655 6.07203C24.2203 7.43283 22.6321 7.75931 20.6831 7.28631C20.5236 7.2457 20.3661 7.19714 20.2114 7.14081C20.0209 7.07311 19.8341 6.99558 19.6516 6.90852C19.3053 6.74191 18.9764 6.54122 18.6699 6.30942C16.926 4.98589 15.8426 2.46213 16.9806 0.40625L16.3649 1.25474C15.5424 2.46544 15.4615 3.96893 16.0323 5.30548C16.6342 6.72473 17.8676 7.83767 19.307 8.36581ZM15.4674 24.6517H14.3887C14.3581 24.6529 14.3288 24.6639 14.305 24.6831C14.2813 24.7023 14.2643 24.7286 14.2567 24.7582L13.8738 26.5297L13.4909 28.3012C13.4834 28.3308 13.4665 28.3571 13.4427 28.3763C13.419 28.3955 13.3897 28.4065 13.3592 28.4077H12.5957C11.8404 28.4077 11.9277 27.8851 12.0824 27.1694L12.087 27.1477L12.1038 27.0573L12.1069 27.0405L12.1413 26.8567L12.1783 26.6599L12.2177 26.4595L12.3917 25.609L12.5661 24.7584C12.5694 24.7455 12.5696 24.7319 12.5668 24.7188C12.5639 24.7057 12.558 24.6934 12.5495 24.683C12.5411 24.6726 12.5303 24.6644 12.518 24.6589C12.5058 24.6534 12.4924 24.6509 12.479 24.6515H11.372C11.3415 24.6526 11.3122 24.6636 11.2885 24.6829C11.2648 24.7021 11.2481 24.7286 11.2408 24.7582L11.0026 25.8875L10.7647 27.017L10.7642 27.0185L10.7422 27.1237C10.4681 28.3752 10.5406 29.5691 12.0308 29.6066L12.0742 29.6074H14.4132C14.4437 29.6062 14.473 29.5952 14.4967 29.5761C14.5205 29.5569 14.5373 29.5305 14.5449 29.5009L15.0493 27.1298L15.5537 24.7584C15.5662 24.6997 15.5274 24.652 15.4674 24.6517ZM3.91528 24.6392H2.73087C2.70027 24.6404 2.67085 24.6514 2.64692 24.6705C2.62299 24.6896 2.60581 24.7158 2.59787 24.7454L2.48556 25.2411L2.37324 25.7369C2.36023 25.7953 2.39826 25.843 2.45825 25.843H3.65185C3.68242 25.8419 3.7118 25.831 3.73563 25.8118C3.75946 25.7926 3.77645 25.7662 3.78407 25.7366L3.89256 25.2411L4.00105 24.7457C4.01355 24.6872 3.97527 24.6392 3.91528 24.6392ZM3.5717 26.182H2.37784C2.34725 26.1833 2.31786 26.1942 2.29394 26.2133C2.27001 26.2324 2.25282 26.2587 2.24485 26.2882L2.07714 27.031L1.90969 27.7736L1.86298 27.9865L1.70191 28.7446L1.54109 29.503C1.52858 29.5614 1.5028 29.6559 1.48366 29.7126C1.48366 29.7126 1.26056 30.3762 0.885581 30.3686L0.838613 30.3676L0.514176 30.3617C0.483698 30.3624 0.454001 30.3729 0.429924 30.3916C0.405847 30.4103 0.388405 30.4362 0.380164 30.4656L0.256362 30.9861L0.132815 31.5063C0.118776 31.5645 0.156555 31.6125 0.216031 31.6135C0.428663 31.616 0.904981 31.6214 1.19317 31.6214C2.12973 31.6214 2.62366 31.1025 2.93992 29.6092L3.31031 27.8953L3.65772 26.288C3.67023 26.23 3.63143 26.182 3.5717 26.182ZM25.554 25.7803L25.5045 25.5758L25.4558 25.3665L25.431 25.2608C25.334 24.8838 25.0494 24.6665 24.4311 24.6665L23.4688 24.6655L22.5825 24.6643H21.5852C21.5548 24.6654 21.5255 24.6764 21.5018 24.6956C21.4781 24.7147 21.4612 24.7411 21.4538 24.7707L21.4096 24.979L21.3575 25.2251L21.343 25.2942L20.894 27.3976L20.4677 29.3942C20.4549 29.453 20.4509 29.5249 20.458 29.554C20.4652 29.5834 20.5803 29.6074 20.64 29.6074H21.5395C21.5995 29.6074 21.6753 29.5967 21.708 29.5834C21.7407 29.5701 21.7889 29.4524 21.8009 29.394L21.9607 28.6029L22.1208 27.8116L22.121 27.8103L22.1425 27.7049L22.3365 26.7962L22.5078 25.9937C22.5153 25.9641 22.5322 25.9378 22.5559 25.9187C22.5795 25.8995 22.6088 25.8885 22.6392 25.8872L25.4698 25.8859C25.5298 25.8864 25.5676 25.8387 25.554 25.7803ZM29.1979 23.9322L28.9799 23.9329H28.074C28.0408 23.9348 28.0084 23.9438 27.979 23.9594C27.9496 23.9749 27.9239 23.9966 27.9037 24.023L25.9002 26.958C25.8665 27.0076 25.8279 27.0004 25.8147 26.9422L25.6671 26.2956C25.6592 26.266 25.642 26.2397 25.618 26.2206C25.594 26.2015 25.5645 26.1906 25.5339 26.1894H24.2461C24.1861 26.1894 24.1506 26.2364 24.167 26.2938L24.7441 28.3158C24.7604 28.3735 24.7617 28.4679 24.7469 28.5261L24.4955 29.5045C24.4804 29.5627 24.5172 29.6099 24.5772 29.6099H25.8501C25.8809 29.6087 25.9106 29.5979 25.9349 29.579C25.9593 29.5601 25.9771 29.534 25.9859 29.5045L26.2376 28.5261C26.2575 28.4571 26.2889 28.392 26.3303 28.3334L29.5828 24.0167C29.6191 23.9687 29.5994 23.9296 29.5397 23.9301L29.1979 23.9322ZM18.9655 26.4641V26.4631C18.9611 26.4939 18.9458 26.5222 18.9225 26.5428C18.8992 26.5634 18.8693 26.5751 18.8381 26.5756H17.2052C17.1485 26.5756 17.1199 26.5374 17.1284 26.4899L17.1299 26.4861L17.1289 26.4866L17.1297 26.4812L17.1371 26.4534C17.293 26.0388 17.6106 25.7667 18.2076 25.7667C18.88 25.7665 19.0112 26.0947 18.9655 26.4641ZM18.4864 24.5792C16.3904 24.5792 15.8937 25.8515 15.6149 27.1357C15.3364 28.4447 15.3602 29.6681 17.5294 29.6681H17.7923L17.8577 29.6679H17.873L18.1333 29.6671H18.1379C18.7107 29.6648 19.2853 29.6605 19.5179 29.6587C19.5482 29.6572 19.5772 29.6459 19.6006 29.6266C19.624 29.6073 19.6405 29.5809 19.6478 29.5515L19.7356 29.1224L19.7527 29.0389L19.8574 28.5269C19.8607 28.5139 19.8609 28.5003 19.8581 28.4872C19.8552 28.4741 19.8493 28.4619 19.8408 28.4515C19.8323 28.4411 19.8216 28.4329 19.8093 28.4274C19.7971 28.422 19.7837 28.4195 19.7703 28.4202H17.8204C17.0446 28.4202 16.8144 28.2142 16.8994 27.6082H20.0164L20.0161 27.6084L20.0182 27.6082C20.0428 27.6071 20.0667 27.599 20.0868 27.5847C20.107 27.5704 20.1226 27.5507 20.1318 27.5278L20.1392 27.5007L20.1389 27.501C20.6017 25.7552 20.469 24.5795 18.4864 24.5792ZM8.57967 26.4575L8.55006 26.5619L8.31471 27.3963L8.07936 28.2303C8.06974 28.2598 8.05129 28.2857 8.02651 28.3045C8.00173 28.3232 7.9718 28.3339 7.94075 28.3352H6.69508C5.7501 28.3352 5.51985 27.5959 5.7501 26.506C5.98009 25.391 6.43114 24.6979 7.36131 24.6277C8.63251 24.5318 8.88675 25.4257 8.57967 26.4575ZM9.43429 28.2711C9.43429 28.2711 10.0216 26.8447 10.1549 26.0212C10.3369 24.9187 9.78476 23.3193 7.65231 23.3193C5.5321 23.3193 4.61112 24.846 4.25988 26.506C3.90864 28.1779 4.36888 29.6439 6.47708 29.6319L8.14036 29.6258L9.69465 29.6202C9.72546 29.6186 9.75505 29.6077 9.77943 29.5888C9.80381 29.5699 9.8218 29.5439 9.83096 29.5145L10.1018 28.4817C10.1169 28.4235 10.0804 28.376 10.0204 28.3755L9.76076 28.374L9.50116 28.3724C9.45037 28.3722 9.42127 28.339 9.42739 28.2953L9.43429 28.2711ZM19.9306 27.3162C19.9307 27.3255 19.9288 27.3348 19.9252 27.3435C19.9217 27.3522 19.9164 27.3601 19.9098 27.3667C19.9032 27.3734 19.8953 27.3787 19.8866 27.3823C19.878 27.3859 19.8687 27.3877 19.8593 27.3878C19.8499 27.3878 19.8406 27.3859 19.8319 27.3824C19.8232 27.3788 19.8154 27.3735 19.8087 27.3669C19.8021 27.3603 19.7968 27.3524 19.7932 27.3438C19.7896 27.3351 19.7877 27.3258 19.7877 27.3164C19.7877 27.2975 19.7951 27.2793 19.8085 27.2658C19.8219 27.2524 19.8401 27.2449 19.859 27.2448C19.878 27.2448 19.8962 27.2523 19.9096 27.2657C19.923 27.279 19.9306 27.2972 19.9306 27.3162Z" fill="#F8F8F8"/>
</svg>
