<svg width="34" height="33" viewBox="0 0 34 33" fill="none" xmlns="http://www.w3.org/2000/svg">
<path d="M23.8013 16.5004V23.212M23.8013 11.4667V11.4835M32.1908 8.11097V24.8899C32.1908 26.6699 31.4837 28.377 30.225 29.6356C28.9663 30.8943 27.2592 31.6014 25.4792 31.6014H8.70032C6.92031 31.6014 5.2132 30.8943 3.95454 29.6356C2.69588 28.377 1.98877 26.6699 1.98877 24.8899V8.11097C1.98877 6.33095 2.69588 4.62384 3.95454 3.36518C5.2132 2.10652 6.92031 1.39941 8.70032 1.39941H25.4792C27.2592 1.39941 28.9663 2.10652 30.225 3.36518C31.4837 4.62384 32.1908 6.33095 32.1908 8.11097Z" stroke="#F8F8F8" stroke-width="2.51683" stroke-linecap="round" stroke-linejoin="round"/>
<path d="M8.70068 23.2122L10.5883 18.1785M10.5883 18.1785L13.7343 9.78906L16.8804 18.1785M10.5883 18.1785H16.8804M18.768 23.2122L16.8804 18.1785" stroke="#F8F8F8" stroke-width="2.51683" stroke-linecap="round" stroke-linejoin="round"/>
</svg>
