<svg width="206" height="96" viewBox="0 0 206 96" fill="none" xmlns="http://www.w3.org/2000/svg">
<mask id="path-1-outside-1_799_22" maskUnits="userSpaceOnUse" x="-1" y="-2" width="208" height="99" fill="black">
<rect fill="white" x="-1" y="-2" width="208" height="99"/>
<path d="M17.62 16.96H5.52V56.45H17.62V16.96ZM0.570001 66.35V19.71L0.240001 12.34L5.74 15.2H16.41L19.93 12.23L24 15.31C25.32 16.3 25.76 17.07 25.76 17.62C25.76 18.83 23.56 19.05 22.57 19.05V57.44C22.57 58.76 22.68 59.75 22.68 60.63C22.68 63.05 19.93 64.15 18.72 64.15C17.73 64.15 17.62 63.16 17.62 61.51V58.21H5.52C5.52 59.42 5.63 65.14 5.63 66.46C5.63 67.67 5.63 70.31 1.89 70.31C0.680001 70.31 0.46 69.54 0.46 68.44C0.46 67.78 0.570001 67.01 0.570001 66.35ZM29.5 15.42L28.95 13.77C39.62 12.45 63.82 8.16 79 0.129997L83.18 3.21C84.28 4.2 85.27 5.08 85.27 5.63C85.27 5.85 84.94 6.07 84.17 6.07C83.4 6.07 82.19 5.85 80.43 5.52C73.72 7.49999 68.55 9.15 62.5 10.58C63.38 10.91 63.93 11.35 63.93 11.79C63.93 12.34 62.94 12.78 60.85 12.78V50.95H82.96L88.46 46.11L94.07 50.51C94.73 51.06 95.06 51.5 95.06 51.83C95.06 52.38 94.4 52.71 92.75 52.71H60.85V85.71C60.74 90 57.55 93.63 49.96 94.95L49.08 91.21C48.64 90.22 42.15 87.91 36.76 86.15L37.09 84.72C42.92 85.6 49.3 86.37 53.04 86.7C54.25 86.7 55.9 86.7 55.9 85.05V52.71H35.99L24.66 53.15L23.89 50.4L33.9 50.95H55.9V12.01C47.21 13.44 38.85 14.43 29.5 15.42ZM28.62 25.65L29.5 24.77C38.85 30.71 44.35 36.1 44.35 40.83C44.35 42.48 43.25 44.35 42.04 44.35C41.38 44.35 40.72 43.8 40.17 42.26C38.85 39.18 35.11 31.26 28.62 25.65ZM79.44 18.5L83.95 21.47C85.71 22.57 86.59 23.34 86.59 23.89C86.59 24.33 85.82 24.55 84.61 24.55C84.06 24.55 83.4 24.55 82.74 24.44C74.38 35.66 69.21 42.59 65.14 47.98L63.6 47.43C67.56 40.39 72.4 31.7 79.44 18.5ZM145.55 6.94999H179.32L182.4 4.2L186.36 7.72C187.35 8.6 187.9 9.26 187.9 9.59C187.9 10.25 186.8 10.58 184.71 10.8L175.25 36.1H185.37L188.67 32.25L193.18 36.76C194.28 37.86 195.05 38.63 195.05 39.18C195.05 39.84 193.84 40.17 191.2 40.5C186.91 53.15 180.53 64.92 176.46 69.98C180.75 75.04 193.4 85.05 205.94 87.25V88.35C201.98 88.68 198.9 89.34 196.92 91.65C185.7 85.71 180.75 81.09 173.82 73.28C165.35 83.73 155.34 91.54 140.49 95.83L139.61 94.95C152.26 90.22 163.15 80.76 171.4 69.76C166.67 62.61 160.95 48.53 157.1 29.72C153.47 54.69 144.67 77.9 118.71 92.42L118.16 91.1C141.15 75.15 151.71 52.6 154.35 8.6H143.68L137.63 9.03999L136.2 6.50999L145.55 6.94999ZM186.25 37.86H160.84C162.93 43.8 166.78 55.68 173.93 66.68C177.89 60.96 184.05 49.08 186.25 37.86ZM179.98 8.6H160.95C161.83 8.92999 162.27 9.37 162.27 9.81C162.27 10.36 161.39 10.91 159.41 11.13C159.3 14.32 158.75 19.49 157.98 24.11C158.42 27.41 159.52 32.36 160.4 36.1H170.74L179.98 8.6ZM118.05 13.22H129.6L132.35 9.7L136.86 13.22C137.85 13.99 138.29 14.54 138.29 15.09C138.29 15.75 137.52 16.41 136.09 17.29V56.12C136.09 58.1 132.13 59.09 131.69 59.09C131.14 59.09 130.92 58.76 130.92 58.1C130.92 57.66 131.14 52.71 131.14 51.72H117.5V58.43C117.5 59.86 117.72 60.63 117.72 61.29C117.72 62.28 117.28 62.72 115.19 63.71C114.09 64.26 113.43 64.48 112.99 64.48C112.44 64.48 112.22 64.04 112.22 63.27C112.22 62.28 112.55 60.74 112.55 58.65V17.51L112.11 9.81L118.05 13.22ZM131.14 49.96V14.98H117.5V49.96H131.14Z"/>
</mask>
<path d="M17.62 16.96H5.52V56.45H17.62V16.96ZM0.570001 66.35V19.71L0.240001 12.34L5.74 15.2H16.41L19.93 12.23L24 15.31C25.32 16.3 25.76 17.07 25.76 17.62C25.76 18.83 23.56 19.05 22.57 19.05V57.44C22.57 58.76 22.68 59.75 22.68 60.63C22.68 63.05 19.93 64.15 18.72 64.15C17.73 64.15 17.62 63.16 17.62 61.51V58.21H5.52C5.52 59.42 5.63 65.14 5.63 66.46C5.63 67.67 5.63 70.31 1.89 70.31C0.680001 70.31 0.46 69.54 0.46 68.44C0.46 67.78 0.570001 67.01 0.570001 66.35ZM29.5 15.42L28.95 13.77C39.62 12.45 63.82 8.16 79 0.129997L83.18 3.21C84.28 4.2 85.27 5.08 85.27 5.63C85.27 5.85 84.94 6.07 84.17 6.07C83.4 6.07 82.19 5.85 80.43 5.52C73.72 7.49999 68.55 9.15 62.5 10.58C63.38 10.91 63.93 11.35 63.93 11.79C63.93 12.34 62.94 12.78 60.85 12.78V50.95H82.96L88.46 46.11L94.07 50.51C94.73 51.06 95.06 51.5 95.06 51.83C95.06 52.38 94.4 52.71 92.75 52.71H60.85V85.71C60.74 90 57.55 93.63 49.96 94.95L49.08 91.21C48.64 90.22 42.15 87.91 36.76 86.15L37.09 84.72C42.92 85.6 49.3 86.37 53.04 86.7C54.25 86.7 55.9 86.7 55.9 85.05V52.71H35.99L24.66 53.15L23.89 50.4L33.9 50.95H55.9V12.01C47.21 13.44 38.85 14.43 29.5 15.42ZM28.62 25.65L29.5 24.77C38.85 30.71 44.35 36.1 44.35 40.83C44.35 42.48 43.25 44.35 42.04 44.35C41.38 44.35 40.72 43.8 40.17 42.26C38.85 39.18 35.11 31.26 28.62 25.65ZM79.44 18.5L83.95 21.47C85.71 22.57 86.59 23.34 86.59 23.89C86.59 24.33 85.82 24.55 84.61 24.55C84.06 24.55 83.4 24.55 82.74 24.44C74.38 35.66 69.21 42.59 65.14 47.98L63.6 47.43C67.56 40.39 72.4 31.7 79.44 18.5ZM145.55 6.94999H179.32L182.4 4.2L186.36 7.72C187.35 8.6 187.9 9.26 187.9 9.59C187.9 10.25 186.8 10.58 184.71 10.8L175.25 36.1H185.37L188.67 32.25L193.18 36.76C194.28 37.86 195.05 38.63 195.05 39.18C195.05 39.84 193.84 40.17 191.2 40.5C186.91 53.15 180.53 64.92 176.46 69.98C180.75 75.04 193.4 85.05 205.94 87.25V88.35C201.98 88.68 198.9 89.34 196.92 91.65C185.7 85.71 180.75 81.09 173.82 73.28C165.35 83.73 155.34 91.54 140.49 95.83L139.61 94.95C152.26 90.22 163.15 80.76 171.4 69.76C166.67 62.61 160.95 48.53 157.1 29.72C153.47 54.69 144.67 77.9 118.71 92.42L118.16 91.1C141.15 75.15 151.71 52.6 154.35 8.6H143.68L137.63 9.03999L136.2 6.50999L145.55 6.94999ZM186.25 37.86H160.84C162.93 43.8 166.78 55.68 173.93 66.68C177.89 60.96 184.05 49.08 186.25 37.86ZM179.98 8.6H160.95C161.83 8.92999 162.27 9.37 162.27 9.81C162.27 10.36 161.39 10.91 159.41 11.13C159.3 14.32 158.75 19.49 157.98 24.11C158.42 27.41 159.52 32.36 160.4 36.1H170.74L179.98 8.6ZM118.05 13.22H129.6L132.35 9.7L136.86 13.22C137.85 13.99 138.29 14.54 138.29 15.09C138.29 15.75 137.52 16.41 136.09 17.29V56.12C136.09 58.1 132.13 59.09 131.69 59.09C131.14 59.09 130.92 58.76 130.92 58.1C130.92 57.66 131.14 52.71 131.14 51.72H117.5V58.43C117.5 59.86 117.72 60.63 117.72 61.29C117.72 62.28 117.28 62.72 115.19 63.71C114.09 64.26 113.43 64.48 112.99 64.48C112.44 64.48 112.22 64.04 112.22 63.27C112.22 62.28 112.55 60.74 112.55 58.65V17.51L112.11 9.81L118.05 13.22ZM131.14 49.96V14.98H117.5V49.96H131.14Z" fill="black"/>
<path d="M17.62 16.96H18.62V15.96H17.62V16.96ZM5.52 16.96V15.96H4.52V16.96H5.52ZM5.52 56.45H4.52V57.45H5.52V56.45ZM17.62 56.45V57.45H18.62V56.45H17.62ZM0.570001 19.71H1.57V19.6876L1.569 19.6653L0.570001 19.71ZM0.240001 12.34L0.701354 11.4528L-0.836535 10.6531L-0.758998 12.3847L0.240001 12.34ZM5.74 15.2L5.27865 16.0872L5.49554 16.2H5.74V15.2ZM16.41 15.2V16.2H16.7755L17.0549 15.9643L16.41 15.2ZM19.93 12.23L20.5334 11.4326L19.8961 10.9502L19.2851 11.4657L19.93 12.23ZM24 15.31L23.3966 16.1074L23.4 16.11L24 15.31ZM22.57 19.05V18.05H21.57V19.05H22.57ZM17.62 58.21H18.62V57.21H17.62V58.21ZM5.52 58.21V57.21H4.52V58.21H5.52ZM29.5 15.42L28.5513 15.7362L28.8056 16.4991L29.6053 16.4144L29.5 15.42ZM28.95 13.77L28.8272 12.7776L27.6151 12.9275L28.0013 14.0862L28.95 13.77ZM79 0.129997L79.5932 -0.67506L79.0876 -1.04762L78.5324 -0.753948L79 0.129997ZM83.18 3.21L83.849 2.46671L83.8126 2.43397L83.7732 2.40494L83.18 3.21ZM80.43 5.52L80.6143 4.53712L80.3778 4.49278L80.147 4.56088L80.43 5.52ZM62.5 10.58L62.27 9.60681L59.0723 10.3626L62.1489 11.5163L62.5 10.58ZM60.85 12.78V11.78H59.85V12.78H60.85ZM60.85 50.95H59.85V51.95H60.85V50.95ZM82.96 50.95V51.95H83.3373L83.6206 51.7007L82.96 50.95ZM88.46 46.11L89.0771 45.3231L88.4232 44.8103L87.7994 45.3593L88.46 46.11ZM94.07 50.51L94.7102 49.7418L94.6988 49.7323L94.6871 49.7231L94.07 50.51ZM60.85 52.71V51.71H59.85V52.71H60.85ZM60.85 85.71L61.8497 85.7356L61.85 85.7228V85.71H60.85ZM49.96 94.95L48.9866 95.179L49.2025 96.0967L50.1313 95.9352L49.96 94.95ZM49.08 91.21L50.0534 90.981L50.0319 90.8896L49.9938 90.8039L49.08 91.21ZM36.76 86.15L35.7856 85.9251L35.5799 86.8166L36.4496 87.1006L36.76 86.15ZM37.09 84.72L37.2393 83.7312L36.3238 83.593L36.1156 84.4951L37.09 84.72ZM53.04 86.7L52.9521 87.6961L52.996 87.7H53.04V86.7ZM55.9 52.71H56.9V51.71H55.9V52.71ZM35.99 52.71V51.71H35.9706L35.9512 51.7108L35.99 52.71ZM24.66 53.15L23.697 53.4196L23.9099 54.1799L24.6988 54.1492L24.66 53.15ZM23.89 50.4L23.9449 49.4015L22.5505 49.3249L22.927 50.6696L23.89 50.4ZM33.9 50.95L33.8451 51.9485L33.8726 51.95H33.9V50.95ZM55.9 50.95V51.95H56.9V50.95H55.9ZM55.9 12.01H56.9V10.832L55.7376 11.0233L55.9 12.01ZM28.62 25.65L27.9129 24.9429L27.1525 25.7033L27.966 26.4065L28.62 25.65ZM29.5 24.77L30.0362 23.9259L29.3597 23.4961L28.7929 24.0629L29.5 24.77ZM40.17 42.26L41.1117 41.9237L41.1013 41.8945L41.0891 41.8661L40.17 42.26ZM79.44 18.5L79.99 17.6648L79.0739 17.0615L78.5576 18.0294L79.44 18.5ZM83.95 21.47L83.4 22.3052L83.4099 22.3117L83.42 22.318L83.95 21.47ZM82.74 24.44L82.9044 23.4536L82.3026 23.3533L81.9381 23.8425L82.74 24.44ZM65.14 47.98L64.8037 48.9217L65.4954 49.1688L65.938 48.5826L65.14 47.98ZM63.6 47.43L62.7284 46.9397L62.1472 47.973L63.2637 48.3717L63.6 47.43ZM17.62 15.96H5.52V17.96H17.62V15.96ZM4.52 16.96V56.45H6.52V16.96H4.52ZM5.52 57.45H17.62V55.45H5.52V57.45ZM18.62 56.45V16.96H16.62V56.45H18.62ZM1.57 66.35V19.71H-0.429999V66.35H1.57ZM1.569 19.6653L1.239 12.2953L-0.758998 12.3847L-0.428999 19.7547L1.569 19.6653ZM-0.221353 13.2272L5.27865 16.0872L6.20135 14.3128L0.701354 11.4528L-0.221353 13.2272ZM5.74 16.2H16.41V14.2H5.74V16.2ZM17.0549 15.9643L20.5749 12.9943L19.2851 11.4657L15.7651 14.4357L17.0549 15.9643ZM19.3266 13.0274L23.3966 16.1074L24.6034 14.5126L20.5334 11.4326L19.3266 13.0274ZM23.4 16.11C24.6834 17.0725 24.76 17.5808 24.76 17.62H26.76C26.76 16.5592 25.9566 15.5275 24.6 14.51L23.4 16.11ZM24.76 17.62C24.76 17.5735 24.7974 17.5538 24.7485 17.5959C24.6745 17.6596 24.5156 17.7493 24.2435 17.8326C23.7041 17.9977 23.0178 18.05 22.57 18.05V20.05C23.1122 20.05 24.0209 19.9923 24.829 19.7449C25.2306 19.622 25.6837 19.4297 26.053 19.1119C26.4476 18.7724 26.76 18.2715 26.76 17.62H24.76ZM21.57 19.05V57.44H23.57V19.05H21.57ZM21.57 57.44C21.57 58.1275 21.5987 58.7266 21.6264 59.2526C21.6546 59.7879 21.68 60.2229 21.68 60.63H23.68C23.68 60.1571 23.6504 59.6571 23.6236 59.1474C23.5963 58.6284 23.57 58.0725 23.57 57.44H21.57ZM21.68 60.63C21.68 61.4074 21.2526 62.0154 20.5867 62.4739C19.8951 62.95 19.0999 63.15 18.72 63.15V65.15C19.5501 65.15 20.7349 64.8 21.7209 64.1211C22.7324 63.4246 23.68 62.2726 23.68 60.63H21.68ZM18.72 63.15C18.6466 63.15 18.6881 63.1355 18.7519 63.186C18.8036 63.227 18.785 63.2453 18.7474 63.1325C18.6562 62.859 18.62 62.3655 18.62 61.51H16.62C16.62 62.3045 16.6388 63.131 16.8501 63.765C16.9637 64.106 17.1583 64.4748 17.5091 64.753C17.8719 65.0408 18.2984 65.15 18.72 65.15V63.15ZM18.62 61.51V58.21H16.62V61.51H18.62ZM17.62 57.21H5.52V59.21H17.62V57.21ZM4.52 58.21C4.52 58.8253 4.54773 60.5698 4.57512 62.3095C4.60272 64.0617 4.63 65.8102 4.63 66.46H6.63C6.63 65.7898 6.60228 64.0183 6.57488 62.278C6.54727 60.5252 6.52 58.8047 6.52 58.21H4.52ZM4.63 66.46C4.63 67.0968 4.6112 67.7926 4.29607 68.3394C4.04745 68.7709 3.49137 69.31 1.89 69.31V71.31C4.02863 71.31 5.34255 70.5291 6.02893 69.338C6.6488 68.2624 6.63 67.0332 6.63 66.46H4.63ZM1.89 69.31C1.6891 69.31 1.60284 69.2775 1.58032 69.2669C1.5705 69.2623 1.5741 69.2653 1.56925 69.2575C1.55615 69.2365 1.52409 69.1718 1.49844 69.0246C1.47285 68.8777 1.46 68.6874 1.46 68.44H-0.54C-0.54 69.002 -0.496085 69.7266 -0.126748 70.3175C0.313765 71.0223 1.05014 71.31 1.89 71.31V69.31ZM1.46 68.44C1.46 68.1556 1.48388 67.838 1.51205 67.4717C1.53888 67.123 1.57 66.7256 1.57 66.35H-0.429999C-0.429999 66.6344 -0.453879 66.952 -0.482054 67.3183C-0.50888 67.667 -0.54 68.0644 -0.54 68.44H1.46ZM30.4487 15.1038L29.8987 13.4538L28.0013 14.0862L28.5513 15.7362L30.4487 15.1038ZM29.0728 14.7624C39.7552 13.4409 64.1139 9.1358 79.4676 1.01394L78.5324 -0.753948C63.5261 7.18419 39.4848 11.4591 28.8272 12.7776L29.0728 14.7624ZM78.4068 0.935051L82.5868 4.01505L83.7732 2.40494L79.5932 -0.67506L78.4068 0.935051ZM82.511 3.95329C83.0744 4.4603 83.5582 4.89417 83.9064 5.26732C84.0796 5.45287 84.1895 5.59243 84.2511 5.69055C84.3241 5.80702 84.27 5.77153 84.27 5.63H86.27C86.27 5.21347 86.0921 4.86172 85.9452 4.62757C85.7868 4.37506 85.5804 4.12962 85.3686 3.90268C84.9468 3.45083 84.3856 2.94969 83.849 2.46671L82.511 3.95329ZM84.27 5.63C84.27 5.41879 84.3534 5.25307 84.4382 5.15137C84.5155 5.05865 84.5852 5.02661 84.5897 5.02454C84.5924 5.02328 84.4781 5.07 84.17 5.07V7.07C84.6319 7.07 85.0676 7.00671 85.4278 6.84045C85.7631 6.68572 86.27 6.30878 86.27 5.63H84.27ZM84.17 5.07C83.517 5.07 82.4215 4.87598 80.6143 4.53712L80.2457 6.50287C81.9585 6.82401 83.2831 7.07 84.17 7.07V5.07ZM80.147 4.56088C73.4123 6.54815 68.2848 8.18513 62.27 9.60681L62.73 11.5532C68.8152 10.1149 74.0277 8.45184 80.713 6.47911L80.147 4.56088ZM62.1489 11.5163C62.5285 11.6587 62.7738 11.8028 62.9048 11.912C63.0558 12.0378 62.93 12.0035 62.93 11.79H64.93C64.93 11.1365 64.5292 10.6622 64.1852 10.3755C63.8212 10.0722 63.3516 9.83132 62.8511 9.64366L62.1489 11.5163ZM62.93 11.79C62.93 11.3651 63.2946 11.3889 62.8423 11.5478C62.4858 11.673 61.8438 11.78 60.85 11.78V13.78C61.9462 13.78 62.8442 13.667 63.5052 13.4347C64.0704 13.2361 64.93 12.7649 64.93 11.79H62.93ZM59.85 12.78V50.95H61.85V12.78H59.85ZM60.85 51.95H82.96V49.95H60.85V51.95ZM83.6206 51.7007L89.1206 46.8607L87.7994 45.3593L82.2994 50.1993L83.6206 51.7007ZM87.8429 46.8969L93.4529 51.2969L94.6871 49.7231L89.0771 45.3231L87.8429 46.8969ZM93.4298 51.2782C93.7295 51.528 93.9124 51.7191 94.0125 51.8525C94.1264 52.0044 94.06 51.9835 94.06 51.83H96.06C96.06 51.3465 95.8286 50.9406 95.6125 50.6525C95.3826 50.3459 95.0705 50.042 94.7102 49.7418L93.4298 51.2782ZM94.06 51.83C94.06 51.75 94.0903 51.6489 94.1539 51.5703C94.204 51.5083 94.2303 51.516 94.1465 51.5502C93.9587 51.6267 93.5391 51.71 92.75 51.71V53.71C93.6109 53.71 94.3463 53.6283 94.9011 53.4023C95.1884 53.2853 95.4828 53.1073 95.7083 52.8287C95.9472 52.5336 96.06 52.185 96.06 51.83H94.06ZM92.75 51.71H60.85V53.71H92.75V51.71ZM59.85 52.71V85.71H61.85V52.71H59.85ZM59.8503 85.6844C59.8021 87.566 59.0885 89.2859 57.5353 90.7056C55.9607 92.1449 53.4658 93.3253 49.7887 93.9648L50.1313 95.9352C54.0442 95.2547 56.9393 93.9601 58.8847 92.1819C60.8515 90.3841 61.7879 88.144 61.8497 85.7356L59.8503 85.6844ZM50.9334 94.721L50.0534 90.981L48.1066 91.439L48.9866 95.179L50.9334 94.721ZM49.9938 90.8039C49.8172 90.4064 49.4561 90.1276 49.2195 89.9618C48.9344 89.7618 48.5769 89.5591 48.1802 89.3577C47.383 88.9527 46.3272 88.5024 45.1411 88.0377C42.7628 87.1058 39.7712 86.0813 37.0704 85.1994L36.4496 87.1006C39.1388 87.9787 42.0872 88.9892 44.4114 89.8998C45.5765 90.3563 46.5626 90.7792 47.2745 91.1408C47.6324 91.3226 47.8962 91.4765 48.0712 91.5993C48.2949 91.7561 48.2328 91.7661 48.1662 91.6161L49.9938 90.8039ZM37.7344 86.3749L38.0644 84.9449L36.1156 84.4951L35.7856 85.9251L37.7344 86.3749ZM36.9408 85.7088C42.7861 86.5911 49.187 87.3639 52.9521 87.6961L53.1279 85.7039C49.413 85.3761 43.0539 84.6089 37.2393 83.7312L36.9408 85.7088ZM53.04 87.7C53.5969 87.7 54.5046 87.7119 55.2673 87.4329C55.6751 87.2837 56.1029 87.0321 56.424 86.603C56.7504 86.1667 56.9 85.6358 56.9 85.05H54.9C54.9 85.2892 54.8434 85.377 54.8226 85.4049C54.7965 85.4397 54.7362 85.4976 54.5802 85.5546C54.2154 85.6881 53.6931 85.7 53.04 85.7V87.7ZM56.9 85.05V52.71H54.9V85.05H56.9ZM55.9 51.71H35.99V53.71H55.9V51.71ZM35.9512 51.7108L24.6212 52.1507L24.6988 54.1492L36.0288 53.7092L35.9512 51.7108ZM25.623 52.8804L24.853 50.1304L22.927 50.6696L23.697 53.4196L25.623 52.8804ZM23.8351 51.3985L33.8451 51.9485L33.9549 49.9515L23.9449 49.4015L23.8351 51.3985ZM33.9 51.95H55.9V49.95H33.9V51.95ZM56.9 50.95V12.01H54.9V50.95H56.9ZM55.7376 11.0233C47.076 12.4486 38.7383 13.4362 29.3947 14.4256L29.6053 16.4144C38.9617 15.4238 47.344 14.4314 56.0624 12.9967L55.7376 11.0233ZM29.3271 26.3571L30.2071 25.4771L28.7929 24.0629L27.9129 24.9429L29.3271 26.3571ZM28.9638 25.6141C33.609 28.5651 37.2435 31.3466 39.7058 33.942C42.1879 36.5583 43.35 38.8496 43.35 40.83H45.35C45.35 38.0804 43.7621 35.3117 41.1567 32.5655C38.5315 29.7984 34.741 26.9148 30.0362 23.9259L28.9638 25.6141ZM43.35 40.83C43.35 41.4534 43.1355 42.1496 42.8037 42.6741C42.4417 43.2462 42.127 43.35 42.04 43.35V45.35C43.163 45.35 44.0033 44.5188 44.4938 43.7434C45.0145 42.9204 45.35 41.8566 45.35 40.83H43.35ZM42.04 43.35C42.0251 43.35 41.945 43.3567 41.7857 43.1906C41.6048 43.0018 41.3621 42.6246 41.1117 41.9237L39.2283 42.5963C39.8009 44.1996 40.6878 45.35 42.04 45.35V43.35ZM41.0891 41.8661C39.7557 38.7547 35.943 30.6582 29.274 24.8935L27.966 26.4065C34.277 31.8618 37.9443 39.6053 39.2509 42.6539L41.0891 41.8661ZM78.89 19.3352L83.4 22.3052L84.5 20.6348L79.99 17.6648L78.89 19.3352ZM83.42 22.318C84.286 22.8593 84.8856 23.2893 85.2585 23.6272C85.4447 23.796 85.5437 23.9146 85.5903 23.9853C85.6396 24.06 85.59 24.0192 85.59 23.89H87.59C87.59 23.4858 87.4304 23.1425 87.2597 22.8838C87.0863 22.621 86.8553 22.3752 86.6015 22.1453C86.0944 21.6857 85.374 21.1807 84.48 20.622L83.42 22.318ZM85.59 23.89C85.59 23.668 85.7011 23.5085 85.7795 23.4375C85.8349 23.3874 85.8496 23.4004 85.749 23.4326C85.5503 23.4961 85.1756 23.55 84.61 23.55V25.55C85.2544 25.55 85.8697 25.4939 86.3585 25.3374C86.7527 25.2113 87.59 24.8328 87.59 23.89H85.59ZM84.61 23.55C84.0504 23.55 83.4707 23.548 82.9044 23.4536L82.5756 25.4264C83.3294 25.552 84.0696 25.55 84.61 25.55V23.55ZM81.9381 23.8425C73.5776 35.0633 68.4096 41.9905 64.342 47.3774L65.938 48.5826C70.0104 43.1895 75.1824 36.2567 83.5419 25.0375L81.9381 23.8425ZM65.4763 47.0383L63.9363 46.4883L63.2637 48.3717L64.8037 48.9217L65.4763 47.0383ZM64.4716 47.9203C68.4342 40.8755 73.278 32.1788 80.3224 18.9706L78.5576 18.0294C71.522 31.2212 66.6858 39.9045 62.7284 46.9397L64.4716 47.9203ZM145.55 6.95L145.503 7.94889L145.526 7.95H145.55V6.95ZM179.32 6.95V7.95H179.701L179.986 7.69593L179.32 6.95ZM182.4 4.2L183.064 3.45259L182.399 2.86073L181.734 3.45406L182.4 4.2ZM186.36 7.71999L187.024 6.97259L186.36 7.71999ZM184.71 10.8L184.605 9.80549L183.99 9.87026L183.773 10.4498L184.71 10.8ZM175.25 36.1L174.313 35.7498L173.808 37.1H175.25V36.1ZM185.37 36.1V37.1H185.83L186.129 36.7508L185.37 36.1ZM188.67 32.25L189.377 31.5429L188.614 30.7793L187.911 31.5992L188.67 32.25ZM191.2 40.5L191.076 39.5077L190.454 39.5854L190.253 40.1788L191.2 40.5ZM176.46 69.98L175.681 69.3532L175.163 69.9967L175.697 70.6267L176.46 69.98ZM205.94 87.25H206.94V86.4102L206.113 86.265L205.94 87.25ZM205.94 88.35L206.023 89.3465L206.94 89.2701V88.35H205.94ZM196.92 91.65L196.452 92.5338L197.159 92.9079L197.679 92.3008L196.92 91.65ZM173.82 73.28L174.568 72.6163L173.786 71.7344L173.043 72.6503L173.82 73.28ZM140.49 95.83L139.783 96.5371L140.2 96.9546L140.768 96.7907L140.49 95.83ZM139.61 94.95L139.26 94.0133L137.804 94.5578L138.903 95.6571L139.61 94.95ZM171.4 69.76L172.2 70.36L172.623 69.7961L172.234 69.2083L171.4 69.76ZM157.1 29.72L158.08 29.5195L156.11 29.5761L157.1 29.72ZM118.71 92.42L117.787 92.8046L118.219 93.8406L119.198 93.2928L118.71 92.42ZM118.16 91.1L117.59 90.2784L116.926 90.7389L117.237 91.4846L118.16 91.1ZM154.35 8.6L155.348 8.65989L155.412 7.6H154.35V8.6ZM143.68 8.6V7.6H143.644L143.607 7.60263L143.68 8.6ZM137.63 9.03999L136.759 9.53205L137.071 10.0833L137.703 10.0374L137.63 9.03999ZM136.2 6.50999L136.247 5.5111L134.439 5.42599L135.329 7.00205L136.2 6.50999ZM186.25 37.86L187.231 38.0524L187.465 36.86H186.25V37.86ZM160.84 37.86V36.86H159.428L159.897 38.1919L160.84 37.86ZM173.93 66.68L173.092 67.225L173.904 68.4746L174.752 67.2492L173.93 66.68ZM179.98 8.6L180.928 8.9185L181.371 7.6H179.98V8.6ZM160.95 8.6V7.6L160.599 9.53633L160.95 8.6ZM159.41 11.13L159.3 10.1361L158.44 10.2316L158.411 11.0955L159.41 11.13ZM157.98 24.11L156.994 23.9456L156.969 24.0935L156.989 24.2422L157.98 24.11ZM160.4 36.1L159.427 36.329L159.608 37.1H160.4V36.1ZM170.74 36.1V37.1H171.459L171.688 36.4185L170.74 36.1ZM118.05 13.22L117.552 14.0872L117.783 14.22H118.05V13.22ZM129.6 13.22V14.22H130.088L130.388 13.8356L129.6 13.22ZM132.35 9.7L132.965 8.91168L132.177 8.2967L131.562 9.08435L132.35 9.7ZM136.86 13.22L136.245 14.0083L136.246 14.0094L136.86 13.22ZM136.09 17.29L135.566 16.4383L135.09 16.7312V17.29H136.09ZM131.14 51.72H132.14V50.72H131.14V51.72ZM117.5 51.72V50.72H116.5V51.72H117.5ZM115.19 63.71L114.762 62.8063L114.752 62.8108L114.743 62.8156L115.19 63.71ZM112.55 17.51H113.55V17.4814L113.548 17.4529L112.55 17.51ZM112.11 9.81L112.608 8.94274L111.006 8.02331L111.112 9.86704L112.11 9.81ZM131.14 49.96V50.96H132.14V49.96H131.14ZM131.14 14.98H132.14V13.98H131.14V14.98ZM117.5 14.98V13.98H116.5V14.98H117.5ZM117.5 49.96H116.5V50.96H117.5V49.96ZM145.55 7.95H179.32V5.95H145.55V7.95ZM179.986 7.69593L183.066 4.94594L181.734 3.45406L178.654 6.20406L179.986 7.69593ZM181.736 4.9474L185.696 8.46741L187.024 6.97259L183.064 3.45259L181.736 4.9474ZM185.696 8.46741C186.173 8.89132 186.515 9.23786 186.73 9.49813C186.838 9.62903 186.896 9.71649 186.922 9.76379C186.959 9.83127 186.9 9.75703 186.9 9.59H188.9C188.9 9.25796 188.772 8.97748 188.675 8.8009C188.567 8.60413 188.425 8.40972 188.272 8.22437C187.965 7.85213 187.537 7.42868 187.024 6.97259L185.696 8.46741ZM186.9 9.59C186.9 9.21465 187.248 9.24037 186.751 9.4188C186.336 9.5677 185.642 9.69638 184.605 9.80549L184.815 11.7945C185.868 11.6836 186.769 11.5373 187.427 11.3012C188.002 11.0946 188.9 10.6254 188.9 9.59H186.9ZM183.773 10.4498L174.313 35.7498L176.187 36.4502L185.647 11.1502L183.773 10.4498ZM175.25 37.1H185.37V35.1H175.25V37.1ZM186.129 36.7508L189.429 32.9008L187.911 31.5992L184.611 35.4492L186.129 36.7508ZM187.963 32.9571L192.473 37.4671L193.887 36.0529L189.377 31.5429L187.963 32.9571ZM192.473 37.4671C193.036 38.0299 193.464 38.4596 193.757 38.8138C193.902 38.9884 193.986 39.1129 194.031 39.197C194.079 39.2862 194.05 39.2702 194.05 39.18H196.05C196.05 38.8148 195.925 38.4962 195.794 38.2521C195.66 38.0028 195.483 37.7629 195.298 37.5387C194.931 37.0954 194.424 36.5901 193.887 36.0529L192.473 37.4671ZM194.05 39.18C194.05 38.9845 194.16 38.8662 194.18 38.8501C194.18 38.8494 194.174 38.8544 194.159 38.8641C194.143 38.8737 194.121 38.8867 194.089 38.9023C194.023 38.9342 193.931 38.9718 193.805 39.013C193.274 39.1862 192.399 39.3424 191.076 39.5077L191.324 41.4923C192.641 41.3276 193.691 41.1538 194.425 40.9145C194.789 40.7959 195.162 40.6345 195.46 40.3865C195.789 40.1125 196.05 39.7055 196.05 39.18H194.05ZM190.253 40.1788C185.987 52.7581 179.655 64.4126 175.681 69.3532L177.239 70.6068C181.405 65.4274 187.833 53.5419 192.147 40.8212L190.253 40.1788ZM175.697 70.6267C177.92 73.2482 182.235 77.0773 187.563 80.5269C192.891 83.9771 199.317 87.1033 205.767 88.235L206.113 86.265C200.023 85.1967 193.854 82.2179 188.65 78.8481C183.445 75.4777 179.29 71.7718 177.223 69.3333L175.697 70.6267ZM204.94 87.25V88.35H206.94V87.25H204.94ZM205.857 87.3535C201.901 87.6831 198.43 88.3516 196.161 90.9992L197.679 92.3008C199.37 90.3284 202.059 89.6769 206.023 89.3465L205.857 87.3535ZM197.388 90.7662C186.297 84.8945 181.438 80.3588 174.568 72.6163L173.072 73.9437C180.062 81.8212 185.103 86.5255 196.452 92.5338L197.388 90.7662ZM173.043 72.6503C164.678 82.9705 154.833 90.6455 140.212 94.8693L140.768 96.7907C155.847 92.4345 166.022 84.4895 174.597 73.9097L173.043 72.6503ZM141.197 95.1229L140.317 94.2429L138.903 95.6571L139.783 96.5371L141.197 95.1229ZM139.96 95.8867C152.837 91.0719 163.87 81.4662 172.2 70.36L170.6 69.16C162.43 80.0538 151.683 89.3681 139.26 94.0133L139.96 95.8867ZM172.234 69.2083C167.601 62.2045 161.916 48.261 158.08 29.5195L156.12 29.9205C159.984 48.799 165.739 63.0155 170.566 70.3117L172.234 69.2083ZM156.11 29.5761C152.502 54.4007 143.794 77.2443 118.222 91.5472L119.198 93.2928C145.546 78.5557 154.438 54.9793 158.09 29.8639L156.11 29.5761ZM119.633 92.0354L119.083 90.7154L117.237 91.4846L117.787 92.8046L119.633 92.0354ZM118.73 91.9216C130.363 83.8506 138.876 74.0865 144.8 60.7753C150.712 47.4897 154.025 30.7183 155.348 8.65989L153.352 8.54011C152.035 30.4817 148.748 46.9853 142.973 59.9622C137.209 72.9135 128.947 82.3994 117.59 90.2784L118.73 91.9216ZM154.35 7.6H143.68V9.6H154.35V7.6ZM143.607 7.60263L137.557 8.04263L137.703 10.0374L143.753 9.59737L143.607 7.60263ZM138.501 8.54794L137.071 6.01794L135.329 7.00205L136.759 9.53205L138.501 8.54794ZM136.153 7.50889L145.503 7.94889L145.597 5.9511L136.247 5.5111L136.153 7.50889ZM186.25 36.86H160.84V38.86H186.25V36.86ZM159.897 38.1919C161.978 44.1062 165.864 56.1062 173.092 67.225L174.768 66.135C167.696 55.2538 163.882 43.4938 161.783 37.5281L159.897 38.1919ZM174.752 67.2492C178.769 61.4476 184.998 49.441 187.231 38.0524L185.269 37.6676C183.102 48.719 177.011 60.4724 173.108 66.1108L174.752 67.2492ZM179.98 7.6H160.95V9.6H179.98V7.6ZM160.599 9.53633C160.965 9.67358 161.165 9.80746 161.256 9.89329C161.344 9.97551 161.27 9.94894 161.27 9.81H163.27C163.27 9.23105 162.976 8.76448 162.624 8.4342C162.275 8.10753 161.815 7.85641 161.301 7.66367L160.599 9.53633ZM161.27 9.81C161.27 9.49459 161.508 9.5131 161.135 9.69932C160.816 9.85884 160.232 10.0325 159.3 10.1361L159.52 12.1239C160.568 12.0075 161.414 11.7962 162.03 11.4882C162.592 11.2069 163.27 10.6754 163.27 9.81H161.27ZM158.411 11.0955C158.302 14.231 157.759 19.3561 156.994 23.9456L158.966 24.2744C159.741 19.6239 160.298 14.409 160.409 11.1645L158.411 11.0955ZM156.989 24.2422C157.436 27.5981 158.548 32.594 159.427 36.329L161.373 35.871C160.492 32.126 159.404 27.2219 158.971 23.9778L156.989 24.2422ZM160.4 37.1H170.74V35.1H160.4V37.1ZM171.688 36.4185L180.928 8.9185L179.032 8.28149L169.792 35.7815L171.688 36.4185ZM118.05 14.22H129.6V12.22H118.05V14.22ZM130.388 13.8356L133.138 10.3156L131.562 9.08435L128.812 12.6044L130.388 13.8356ZM131.735 10.4883L136.245 14.0083L137.475 12.4317L132.965 8.91168L131.735 10.4883ZM136.246 14.0094C136.718 14.3767 136.998 14.6458 137.155 14.8489C137.23 14.9458 137.263 15.0108 137.278 15.0474C137.285 15.065 137.288 15.076 137.289 15.0812C137.29 15.0861 137.29 15.0886 137.29 15.09H139.29C139.29 14.5241 139.057 14.0392 138.738 13.626C138.427 13.2242 137.992 12.8333 137.474 12.4306L136.246 14.0094ZM137.29 15.09C137.29 15.0105 137.337 15.0945 137.033 15.3872C136.743 15.6664 136.269 16.0054 135.566 16.4383L136.614 18.1417C137.341 17.6946 137.967 17.2636 138.42 16.8278C138.858 16.4055 139.29 15.8295 139.29 15.09H137.29ZM135.09 17.29V56.12H137.09V17.29H135.09ZM135.09 56.12C135.09 56.2545 135.028 56.4464 134.764 56.7058C134.497 56.9682 134.098 57.2207 133.627 57.4438C133.165 57.6628 132.682 57.8305 132.288 57.9428C132.093 57.9988 131.927 58.0389 131.804 58.0641C131.651 58.0955 131.632 58.09 131.69 58.09V60.09C131.858 60.09 132.059 60.0536 132.207 60.0231C132.385 59.9864 132.6 59.9337 132.838 59.8659C133.311 59.7308 133.9 59.5272 134.483 59.2512C135.057 58.9793 135.676 58.613 136.165 58.1329C136.657 57.6499 137.09 56.9755 137.09 56.12H135.09ZM131.69 58.09C131.649 58.09 131.671 58.0835 131.726 58.1065C131.754 58.1183 131.786 58.1362 131.819 58.1617C131.852 58.1871 131.878 58.2153 131.899 58.2425C131.939 58.296 131.942 58.3286 131.936 58.3033C131.93 58.2766 131.92 58.2137 131.92 58.1H129.92C129.92 58.5032 129.98 59.0171 130.299 59.4425C130.666 59.9319 131.204 60.09 131.69 60.09V58.09ZM131.92 58.1C131.92 57.9059 131.973 56.5952 132.029 55.1551C132.084 53.7521 132.14 52.24 132.14 51.72H130.14C130.14 52.19 130.086 53.6479 130.031 55.0774C129.977 56.4698 129.92 57.8541 129.92 58.1H131.92ZM131.14 50.72H117.5V52.72H131.14V50.72ZM116.5 51.72V58.43H118.5V51.72H116.5ZM116.5 58.43C116.5 59.2 116.56 59.7934 116.617 60.2691C116.679 60.775 116.72 61.0392 116.72 61.29H118.72C118.72 60.8808 118.651 60.43 118.603 60.0284C118.55 59.5966 118.5 59.09 118.5 58.43H116.5ZM116.72 61.29C116.72 61.466 116.7 61.5488 116.683 61.5936C116.669 61.63 116.641 61.6874 116.545 61.7797C116.308 62.0077 115.822 62.304 114.762 62.8063L115.618 64.6137C116.648 64.126 117.427 63.7073 117.932 63.2203C118.208 62.9551 118.42 62.655 118.554 62.2995C118.685 61.9525 118.72 61.609 118.72 61.29H116.72ZM114.743 62.8156C113.631 63.3715 113.166 63.48 112.99 63.48V65.48C113.694 65.48 114.549 65.1485 115.637 64.6044L114.743 62.8156ZM112.99 63.48C112.987 63.48 113.041 63.4803 113.115 63.5207C113.193 63.5628 113.238 63.6185 113.256 63.6493C113.27 63.6724 113.258 63.6629 113.244 63.5921C113.231 63.5228 113.22 63.4182 113.22 63.27H111.22C111.22 63.7146 111.277 64.2378 111.541 64.6782C111.859 65.2078 112.39 65.48 112.99 65.48V63.48ZM113.22 63.27C113.22 62.8452 113.292 62.2965 113.379 61.479C113.463 60.6959 113.55 59.7475 113.55 58.65H111.55C111.55 59.6425 111.472 60.5091 111.391 61.266C111.313 61.9885 111.22 62.7048 111.22 63.27H113.22ZM113.55 58.65V17.51H111.55V58.65H113.55ZM113.548 17.4529L113.108 9.75294L111.112 9.86704L111.552 17.567L113.548 17.4529ZM111.612 10.6772L117.552 14.0872L118.548 12.3527L112.608 8.94274L111.612 10.6772ZM132.14 49.96V14.98H130.14V49.96H132.14ZM131.14 13.98H117.5V15.98H131.14V13.98ZM116.5 14.98V49.96H118.5V14.98H116.5ZM117.5 50.96H131.14V48.96H117.5V50.96Z" fill="black" mask="url(#path-1-outside-1_799_22)"/>
</svg>
