<svg width="209" height="99" viewBox="0 0 209 99" fill="none" xmlns="http://www.w3.org/2000/svg">
<mask id="path-1-outside-1_799_26" maskUnits="userSpaceOnUse" x="-1" y="-1" width="211" height="101" fill="black">
<rect fill="white" x="-1" y="-1" width="211" height="101"/>
<path d="M18.54 98.37L17.55 97.71C34.93 90.34 52.64 78.02 53.85 55.14C48.02 59.21 39.88 64.05 35.92 66.8C35.92 69.66 35.48 71.42 34.6 71.42C33.94 71.42 33.06 70.54 31.85 68.34L29.21 63.5C36.69 60.2 46.7 56.13 53.96 52.72V33.58C53.96 21.7 53.85 10.37 52.75 3L58.25 4.1C60.56 4.65 61.66 5.41999 61.66 6.19C61.66 6.85 60.78 7.62 58.91 8.17V52.94C58.91 64.71 54.95 74.28 47.8 81.76C40.65 89.24 30.64 94.74 18.54 98.37ZM37.57 21.92L38.45 20.93C44.39 25 50.44 34.13 50.44 39.63C50.44 42.49 49.01 45.24 47.14 45.24C45.16 45.24 44.72 42.71 44.72 39.74C44.5 36.44 42.19 28.63 37.57 21.92ZM16.34 2.12L21.51 3.99C23.93 4.76 25.14 5.53 25.14 6.3C25.14 6.95999 23.93 7.73 21.51 8.72V26.21H27.01L31.63 21.7L35.7 25.33C36.58 26.21 36.91 26.76 36.91 27.2C36.91 27.75 36.14 27.97 35.04 27.97H21.51V49.42C25.8 47.22 30.86 44.8 37.57 41.61L38.34 42.27C33.06 45.79 25.8 50.19 21.51 53.05V84.51C21.51 94.96 18.1 97.6 10.95 98.37C9.96 95.07 7.98 93.75 0.0600004 90.56V89.46C4.79 90.89 8.31 91.66 10.84 91.66C15.02 91.66 16.56 89.57 16.56 84.73V56.13L7.32 61.96C7.21 64.49 6.77 66.36 5.89 66.36C5.34 66.36 4.68 65.7 3.69 64.05L0.72 59.65C4.79 57.45 11.61 53.93 16.56 51.84V27.97H0.94L0.5 25.99L4.9 26.21H16.56V7.18L16.34 2.12ZM91.8 19.28L95.65 22.69C97.19 24.01 97.85 25 97.85 25.55C97.85 25.99 97.41 26.21 96.64 26.21C95.87 26.21 94.66 25.99 93.23 25.55C85.31 30.17 79.15 34.02 73.21 37.21V48.1C81.13 50.08 90.26 55.47 92.9 58.22C94.77 60.42 95.43 62.51 95.43 64.05C95.43 65.37 94.99 66.47 93.78 66.47C92.68 66.47 91.25 65.37 89.6 62.62C88.39 60.75 81.9 53.38 73.21 49.53V83.74C73.21 88.58 75.63 89.13 83.55 89.13C85.09 89.02 86.3 88.8 87.84 88.69C91.58 87.7 92.46 83.3 95.65 66.47L96.86 66.69C96.31 74.39 95.98 79.34 95.98 82.64C95.98 86.49 96.42 87.7 97.85 88.03C98.95 88.25 99.61 88.91 99.61 89.68C99.61 93.2 90.92 93.2 84.43 93.2C81.02 93.2 77.5 93.2 74.42 93.09C70.35 92.76 68.26 89.9 68.26 84.4V9.38L68.04 3L73.21 4.65C76.07 5.41999 77.39 6.08 77.39 6.74C77.39 7.39999 75.85 8.17 73.21 8.93999V35.01C78.38 31.16 85.31 25 91.8 19.28ZM141.63 74.61V92.1C141.63 92.98 141.74 93.75 141.74 94.3C141.74 96.72 139.43 97.71 137.89 97.71C136.79 97.71 136.57 97.16 136.57 95.95C136.57 95.29 136.57 94.3 136.68 93.2V74.61H120.84L113.58 75.05L112.15 72.63L119.19 72.85H136.68V60.75H121.94V63.06C121.94 64.82 120.07 66.03 118.09 66.03C117.1 66.03 116.88 65.37 116.88 64.49C116.88 63.72 116.99 62.95 116.99 62.18V32.15L116.55 26.54L122.27 29.73H155.27L159.01 26.65L163.19 29.73C164.73 30.94 165.28 31.71 165.28 32.26C165.28 33.25 163.08 33.25 161.65 33.25V37.32L173.75 36.11C172.98 26.1 172.54 14.11 172.54 0.909993L177.49 2.12C180.13 2.77999 181.45 3.32999 181.45 3.87999C181.45 4.31999 180.24 4.86999 177.49 5.41999C177.27 14.66 177.49 25.55 178.26 35.67L197.84 33.8L201.36 28.74L207.52 32.48C208.18 32.92 208.62 33.36 208.62 33.8C208.62 34.24 208.07 34.57 206.64 34.68L178.48 37.32C179.25 47 180.9 56.24 183.32 62.95C186.4 58.33 189.37 53.16 192.34 47.44L196.85 49.75C198.94 50.74 199.93 51.62 199.93 52.17C199.93 53.16 196.74 53.05 195.75 52.94C192.45 58.44 189.04 63.39 185.52 67.9H185.63C189.04 75.49 198.39 86.93 200.04 86.93C201.25 86.93 203.12 82.2 206.2 68.56L207.41 68.89C206.2 77.91 205.1 88.14 204.99 90.89C206.09 92.98 206.64 94.63 206.64 95.73C206.64 96.61 206.31 97.05 205.54 97.05C202.57 97.05 190.69 87.7 182.33 71.64C172.54 82.97 161.1 91 146.47 97.38L145.7 96.17C160.11 88.25 171 79.78 180.35 67.35C176.94 60.31 175.18 51.73 173.97 37.76L161.65 38.86V59.65C161.65 60.53 161.76 61.3 161.76 61.85C161.76 63.72 158.9 64.38 158.02 64.38C156.92 64.38 156.7 63.72 156.7 62.73C156.7 62.18 156.81 61.52 156.81 60.75H141.63V72.85H158.35L162.53 68.67L168.25 72.52C169.02 73.07 169.24 73.4 169.24 73.73C169.24 74.28 168.25 74.61 166.93 74.61H141.63ZM156.7 31.49H142.95C143.72 32.15 144.49 32.7 144.49 33.14C144.49 33.58 143.72 33.91 141.63 33.91V44.14H156.7V31.49ZM136.68 31.49H121.94V44.14H136.68V31.49ZM136.68 45.9H121.94V58.99H136.68V45.9ZM141.63 58.99H156.7V45.9H141.63V58.99ZM115.45 19.83V7.94999L115.01 2.44999L119.52 5.31H129.64L132.61 2.67L136.46 5.64C137.89 6.52 138.44 7.18 138.44 7.62C138.44 8.49999 136.46 8.61 135.8 8.61V19.61C135.8 20.93 135.47 21.59 132.83 22.25C132.39 22.36 132.06 22.47 131.73 22.47C130.96 22.47 130.74 21.92 130.74 21.26C130.74 20.82 130.85 20.27 130.85 19.72H120.4V20.6C120.4 23.68 116.66 23.79 116.55 23.79C115.56 23.79 115.34 23.02 115.34 22.03C115.34 21.37 115.45 20.6 115.45 19.83ZM130.85 7.07H120.4V17.96H130.85V7.07ZM143.72 19.94V7.94999L143.28 2.44999L147.79 5.31H157.8L160.88 2.67L164.73 5.64C166.16 6.52 166.6 7.18 166.6 7.62C166.6 8.49999 164.62 8.61 163.96 8.61V17.08C163.96 17.52 164.07 19.39 164.07 19.83C164.07 21.81 161.21 22.58 159.89 22.58C159.12 22.58 159.01 22.14 159.01 21.48C159.01 21.04 159.12 20.38 159.12 19.83H148.67C148.67 20.38 148.78 20.93 148.78 21.37C148.78 22.91 146.25 23.79 144.82 23.79C143.83 23.79 143.61 23.13 143.61 22.25C143.61 21.59 143.72 20.71 143.72 19.94ZM159.01 7.07H148.67V18.07H159.01V7.07ZM183.43 11.03L184.09 10.04C193.66 15.65 198.61 18.84 198.61 22.91C198.61 23.79 198.5 26.98 197.07 26.98C196.41 26.98 195.53 26.32 194.32 24.45C193 22.03 189.81 17.3 183.43 11.03Z"/>
</mask>
<path d="M18.54 98.37L17.55 97.71C34.93 90.34 52.64 78.02 53.85 55.14C48.02 59.21 39.88 64.05 35.92 66.8C35.92 69.66 35.48 71.42 34.6 71.42C33.94 71.42 33.06 70.54 31.85 68.34L29.21 63.5C36.69 60.2 46.7 56.13 53.96 52.72V33.58C53.96 21.7 53.85 10.37 52.75 3L58.25 4.1C60.56 4.65 61.66 5.41999 61.66 6.19C61.66 6.85 60.78 7.62 58.91 8.17V52.94C58.91 64.71 54.95 74.28 47.8 81.76C40.65 89.24 30.64 94.74 18.54 98.37ZM37.57 21.92L38.45 20.93C44.39 25 50.44 34.13 50.44 39.63C50.44 42.49 49.01 45.24 47.14 45.24C45.16 45.24 44.72 42.71 44.72 39.74C44.5 36.44 42.19 28.63 37.57 21.92ZM16.34 2.12L21.51 3.99C23.93 4.76 25.14 5.53 25.14 6.3C25.14 6.95999 23.93 7.73 21.51 8.72V26.21H27.01L31.63 21.7L35.7 25.33C36.58 26.21 36.91 26.76 36.91 27.2C36.91 27.75 36.14 27.97 35.04 27.97H21.51V49.42C25.8 47.22 30.86 44.8 37.57 41.61L38.34 42.27C33.06 45.79 25.8 50.19 21.51 53.05V84.51C21.51 94.96 18.1 97.6 10.95 98.37C9.96 95.07 7.98 93.75 0.0600004 90.56V89.46C4.79 90.89 8.31 91.66 10.84 91.66C15.02 91.66 16.56 89.57 16.56 84.73V56.13L7.32 61.96C7.21 64.49 6.77 66.36 5.89 66.36C5.34 66.36 4.68 65.7 3.69 64.05L0.72 59.65C4.79 57.45 11.61 53.93 16.56 51.84V27.97H0.94L0.5 25.99L4.9 26.21H16.56V7.18L16.34 2.12ZM91.8 19.28L95.65 22.69C97.19 24.01 97.85 25 97.85 25.55C97.85 25.99 97.41 26.21 96.64 26.21C95.87 26.21 94.66 25.99 93.23 25.55C85.31 30.17 79.15 34.02 73.21 37.21V48.1C81.13 50.08 90.26 55.47 92.9 58.22C94.77 60.42 95.43 62.51 95.43 64.05C95.43 65.37 94.99 66.47 93.78 66.47C92.68 66.47 91.25 65.37 89.6 62.62C88.39 60.75 81.9 53.38 73.21 49.53V83.74C73.21 88.58 75.63 89.13 83.55 89.13C85.09 89.02 86.3 88.8 87.84 88.69C91.58 87.7 92.46 83.3 95.65 66.47L96.86 66.69C96.31 74.39 95.98 79.34 95.98 82.64C95.98 86.49 96.42 87.7 97.85 88.03C98.95 88.25 99.61 88.91 99.61 89.68C99.61 93.2 90.92 93.2 84.43 93.2C81.02 93.2 77.5 93.2 74.42 93.09C70.35 92.76 68.26 89.9 68.26 84.4V9.38L68.04 3L73.21 4.65C76.07 5.41999 77.39 6.08 77.39 6.74C77.39 7.39999 75.85 8.17 73.21 8.93999V35.01C78.38 31.16 85.31 25 91.8 19.28ZM141.63 74.61V92.1C141.63 92.98 141.74 93.75 141.74 94.3C141.74 96.72 139.43 97.71 137.89 97.71C136.79 97.71 136.57 97.16 136.57 95.95C136.57 95.29 136.57 94.3 136.68 93.2V74.61H120.84L113.58 75.05L112.15 72.63L119.19 72.85H136.68V60.75H121.94V63.06C121.94 64.82 120.07 66.03 118.09 66.03C117.1 66.03 116.88 65.37 116.88 64.49C116.88 63.72 116.99 62.95 116.99 62.18V32.15L116.55 26.54L122.27 29.73H155.27L159.01 26.65L163.19 29.73C164.73 30.94 165.28 31.71 165.28 32.26C165.28 33.25 163.08 33.25 161.65 33.25V37.32L173.75 36.11C172.98 26.1 172.54 14.11 172.54 0.909993L177.49 2.12C180.13 2.77999 181.45 3.32999 181.45 3.87999C181.45 4.31999 180.24 4.86999 177.49 5.41999C177.27 14.66 177.49 25.55 178.26 35.67L197.84 33.8L201.36 28.74L207.52 32.48C208.18 32.92 208.62 33.36 208.62 33.8C208.62 34.24 208.07 34.57 206.64 34.68L178.48 37.32C179.25 47 180.9 56.24 183.32 62.95C186.4 58.33 189.37 53.16 192.34 47.44L196.85 49.75C198.94 50.74 199.93 51.62 199.93 52.17C199.93 53.16 196.74 53.05 195.75 52.94C192.45 58.44 189.04 63.39 185.52 67.9H185.63C189.04 75.49 198.39 86.93 200.04 86.93C201.25 86.93 203.12 82.2 206.2 68.56L207.41 68.89C206.2 77.91 205.1 88.14 204.99 90.89C206.09 92.98 206.64 94.63 206.64 95.73C206.64 96.61 206.31 97.05 205.54 97.05C202.57 97.05 190.69 87.7 182.33 71.64C172.54 82.97 161.1 91 146.47 97.38L145.7 96.17C160.11 88.25 171 79.78 180.35 67.35C176.94 60.31 175.18 51.73 173.97 37.76L161.65 38.86V59.65C161.65 60.53 161.76 61.3 161.76 61.85C161.76 63.72 158.9 64.38 158.02 64.38C156.92 64.38 156.7 63.72 156.7 62.73C156.7 62.18 156.81 61.52 156.81 60.75H141.63V72.85H158.35L162.53 68.67L168.25 72.52C169.02 73.07 169.24 73.4 169.24 73.73C169.24 74.28 168.25 74.61 166.93 74.61H141.63ZM156.7 31.49H142.95C143.72 32.15 144.49 32.7 144.49 33.14C144.49 33.58 143.72 33.91 141.63 33.91V44.14H156.7V31.49ZM136.68 31.49H121.94V44.14H136.68V31.49ZM136.68 45.9H121.94V58.99H136.68V45.9ZM141.63 58.99H156.7V45.9H141.63V58.99ZM115.45 19.83V7.94999L115.01 2.44999L119.52 5.31H129.64L132.61 2.67L136.46 5.64C137.89 6.52 138.44 7.18 138.44 7.62C138.44 8.49999 136.46 8.61 135.8 8.61V19.61C135.8 20.93 135.47 21.59 132.83 22.25C132.39 22.36 132.06 22.47 131.73 22.47C130.96 22.47 130.74 21.92 130.74 21.26C130.74 20.82 130.85 20.27 130.85 19.72H120.4V20.6C120.4 23.68 116.66 23.79 116.55 23.79C115.56 23.79 115.34 23.02 115.34 22.03C115.34 21.37 115.45 20.6 115.45 19.83ZM130.85 7.07H120.4V17.96H130.85V7.07ZM143.72 19.94V7.94999L143.28 2.44999L147.79 5.31H157.8L160.88 2.67L164.73 5.64C166.16 6.52 166.6 7.18 166.6 7.62C166.6 8.49999 164.62 8.61 163.96 8.61V17.08C163.96 17.52 164.07 19.39 164.07 19.83C164.07 21.81 161.21 22.58 159.89 22.58C159.12 22.58 159.01 22.14 159.01 21.48C159.01 21.04 159.12 20.38 159.12 19.83H148.67C148.67 20.38 148.78 20.93 148.78 21.37C148.78 22.91 146.25 23.79 144.82 23.79C143.83 23.79 143.61 23.13 143.61 22.25C143.61 21.59 143.72 20.71 143.72 19.94ZM159.01 7.07H148.67V18.07H159.01V7.07ZM183.43 11.03L184.09 10.04C193.66 15.65 198.61 18.84 198.61 22.91C198.61 23.79 198.5 26.98 197.07 26.98C196.41 26.98 195.53 26.32 194.32 24.45C193 22.03 189.81 17.3 183.43 11.03Z" fill="black"/>
<path d="M18.54 98.37L17.9853 99.2021L18.3767 99.463L18.8274 99.3278L18.54 98.37ZM17.55 97.71L17.1596 96.7894L15.4523 97.5134L16.9953 98.5421L17.55 97.71ZM53.85 55.14L54.8486 55.1928L54.9568 53.1478L53.2776 54.32L53.85 55.14ZM35.92 66.8L35.3496 65.9786L34.92 66.277V66.8H35.92ZM31.85 68.34L30.9721 68.8188L30.9738 68.8219L31.85 68.34ZM29.21 63.5L28.8064 62.5851L27.8113 63.0241L28.3321 63.9789L29.21 63.5ZM53.96 52.72L54.3851 53.6251L54.96 53.3551V52.72H53.96ZM52.75 3L52.9461 2.01942L51.5509 1.74038L51.761 3.14761L52.75 3ZM58.25 4.1L58.4816 3.12719L58.4639 3.12298L58.4461 3.11942L58.25 4.1ZM58.91 8.17L58.6278 7.21063L57.91 7.42176V8.17H58.91ZM47.8 81.76L47.0771 81.069L47.8 81.76ZM37.57 21.92L36.8226 21.2556L36.3018 21.8415L36.7464 22.4871L37.57 21.92ZM38.45 20.93L39.0152 20.1051L38.2882 19.6069L37.7026 20.2656L38.45 20.93ZM44.72 39.74H45.72V39.7067L45.7178 39.6735L44.72 39.74ZM16.34 2.12L16.6801 1.17962L15.2761 0.671772L15.3409 2.16343L16.34 2.12ZM21.51 3.99L21.1699 4.93037L21.1882 4.93701L21.2068 4.94292L21.51 3.99ZM21.51 8.71999L21.1314 7.79445L20.51 8.04865V8.71999H21.51ZM21.51 26.21H20.51V27.21H21.51V26.21ZM27.01 26.21V27.21H27.4172L27.7085 26.9256L27.01 26.21ZM31.63 21.7L32.2956 20.9537L31.5992 20.3326L30.9315 20.9844L31.63 21.7ZM35.7 25.33L36.4071 24.6229L36.3869 24.6027L36.3656 24.5837L35.7 25.33ZM21.51 27.97V26.97H20.51V27.97H21.51ZM21.51 49.42H20.51V51.0566L21.9663 50.3098L21.51 49.42ZM37.57 41.61L38.2208 40.8507L37.7275 40.4279L37.1406 40.7069L37.57 41.61ZM38.34 42.27L38.8947 43.1021L39.993 42.3698L38.9908 41.5107L38.34 42.27ZM21.51 53.05L20.9553 52.2179L20.51 52.5148V53.05H21.51ZM10.95 98.37L9.99218 98.6573L10.2309 99.4532L11.0571 99.3643L10.95 98.37ZM0.0600004 90.56H-0.94V91.2353L-0.313611 91.4876L0.0600004 90.56ZM0.0600004 89.46L0.34939 88.5028L-0.94 88.113V89.46H0.0600004ZM16.56 56.13H17.56V54.3166L16.0264 55.2843L16.56 56.13ZM7.32 61.96L6.78639 61.1143L6.34368 61.3936L6.32094 61.9166L7.32 61.96ZM3.69 64.05L4.54749 63.5355L4.53377 63.5126L4.51885 63.4905L3.69 64.05ZM0.72 59.65L0.244483 58.7703L-0.726146 59.295L-0.108849 60.2095L0.72 59.65ZM16.56 51.84L16.949 52.7612L17.56 52.5033V51.84H16.56ZM16.56 27.97H17.56V26.97H16.56V27.97ZM0.94 27.97L-0.0361867 28.1869L0.137828 28.97H0.94V27.97ZM0.5 25.99L0.549937 24.9912L-0.760903 24.9257L-0.476187 26.2069L0.5 25.99ZM4.9 26.21L4.85006 27.2087L4.87502 27.21H4.9V26.21ZM16.56 26.21V27.21H17.56V26.21H16.56ZM16.56 7.18H17.56V7.15827L17.5591 7.13656L16.56 7.18ZM91.8 19.28L92.463 18.5314L91.8016 17.9456L91.1388 18.5298L91.8 19.28ZM95.65 22.69L94.987 23.4386L94.993 23.444L94.9992 23.4492L95.65 22.69ZM93.23 25.55L93.5241 24.5942L93.1049 24.4652L92.7261 24.6862L93.23 25.55ZM73.21 37.21L72.7369 36.329L72.21 36.612V37.21H73.21ZM73.21 48.1H72.21V48.8808L72.9675 49.0701L73.21 48.1ZM92.9 58.22L93.6619 57.5723L93.6423 57.5493L93.6214 57.5275L92.9 58.22ZM89.6 62.62L90.4575 62.1055L90.4488 62.091L90.4396 62.0767L89.6 62.62ZM73.21 49.53L73.6151 48.6157L72.21 47.9932V49.53H73.21ZM83.55 89.13V90.13H83.5857L83.6213 90.1275L83.55 89.13ZM87.84 88.69L87.9113 89.6875L88.005 89.6808L88.0959 89.6567L87.84 88.69ZM95.65 66.47L95.8289 65.4861L94.8523 65.3086L94.6675 66.2838L95.65 66.47ZM96.86 66.69L97.8575 66.7612L97.9214 65.8666L97.0389 65.7061L96.86 66.69ZM97.85 88.03L97.6251 89.0044L97.6395 89.0077L97.6539 89.0106L97.85 88.03ZM74.42 93.09L74.3392 94.0867L74.3617 94.0886L74.3843 94.0894L74.42 93.09ZM68.26 9.38H69.26V9.36276L69.2594 9.34554L68.26 9.38ZM68.04 3L68.344 2.04734L66.9917 1.61573L67.0406 3.03446L68.04 3ZM73.21 4.64999L72.906 5.60265L72.9278 5.60964L72.95 5.61562L73.21 4.64999ZM73.21 8.93999L72.93 7.98L72.21 8.18999V8.93999H73.21ZM73.21 35.01H72.21V37.0015L73.8073 35.812L73.21 35.01ZM19.0947 97.5379L18.1047 96.8779L16.9953 98.5421L17.9853 99.2021L19.0947 97.5379ZM17.9404 98.6306C35.4013 91.2263 53.6065 78.6795 54.8486 55.1928L52.8514 55.0872C51.6735 77.3605 34.4587 89.4536 17.1596 96.7894L17.9404 98.6306ZM53.2776 54.32C50.3838 56.3403 46.9096 58.5563 43.649 60.62C40.4026 62.6747 37.3522 64.5879 35.3496 65.9786L36.4904 67.6214C38.4478 66.2621 41.4474 64.3803 44.7186 62.31C47.9754 60.2487 51.4862 58.0097 54.4224 55.96L53.2776 54.32ZM34.92 66.8C34.92 68.1983 34.8104 69.248 34.626 69.9166C34.5326 70.2553 34.4398 70.4207 34.3916 70.4819C34.361 70.5208 34.434 70.42 34.6 70.42V72.42C35.206 72.42 35.664 72.0992 35.9634 71.7187C36.2452 71.3605 36.4274 70.9072 36.554 70.4484C36.8096 69.522 36.92 68.2617 36.92 66.8H34.92ZM34.6 70.42C34.7084 70.42 34.5758 70.4737 34.1684 70.0293C33.7933 69.6201 33.3157 68.9299 32.7262 67.8581L30.9738 68.8219C31.5943 69.9501 32.1617 70.7999 32.6941 71.3807C33.1942 71.9263 33.8316 72.42 34.6 72.42V70.42ZM32.7279 67.8611L30.0879 63.0211L28.3321 63.9789L30.9721 68.8188L32.7279 67.8611ZM29.6136 64.4149C37.0434 61.1371 47.1179 57.0385 54.3851 53.6251L53.5349 51.8149C46.2821 55.2215 36.3366 59.2629 28.8064 62.5851L29.6136 64.4149ZM54.96 52.72V33.58H52.96V52.72H54.96ZM54.96 33.58C54.96 21.7239 54.8523 10.3114 53.739 2.85238L51.761 3.14761C52.8477 10.4286 52.96 21.6761 52.96 33.58H54.96ZM52.5539 3.98058L58.0539 5.08058L58.4461 3.11942L52.9461 2.01942L52.5539 3.98058ZM58.0184 5.07281C59.1221 5.33559 59.8543 5.63345 60.2857 5.90701C60.7495 6.20114 60.66 6.32354 60.66 6.18999H62.66C62.66 5.28645 62.0205 4.63885 61.3568 4.21799C60.6607 3.77654 59.6879 3.41441 58.4816 3.12719L58.0184 5.07281ZM60.66 6.18999C60.66 6.0609 60.7322 6.15915 60.3824 6.42416C60.0583 6.66965 59.4947 6.95567 58.6278 7.21063L59.1922 9.12936C60.1953 8.83433 61.0067 8.46034 61.5901 8.01834C62.1478 7.59584 62.66 6.9791 62.66 6.18999H60.66ZM57.91 8.17V52.94H59.91V8.17H57.91ZM57.91 52.94C57.91 64.4632 54.042 73.7827 47.0771 81.069L48.5229 82.451C55.858 74.7773 59.91 64.9567 59.91 52.94H57.91ZM47.0771 81.069C40.0795 88.3896 30.239 93.8163 18.2527 97.4122L18.8274 99.3278C31.041 95.6637 41.2205 90.0903 48.5229 82.451L47.0771 81.069ZM38.3174 22.5844L39.1974 21.5944L37.7026 20.2656L36.8226 21.2556L38.3174 22.5844ZM37.8848 21.7549C40.719 23.6969 43.6302 26.8888 45.8334 30.2877C48.056 33.7165 49.44 37.1733 49.44 39.63H51.44C51.44 36.5867 49.799 32.7285 47.5116 29.1998C45.2048 25.6412 42.121 22.2331 39.0152 20.1051L37.8848 21.7549ZM49.44 39.63C49.44 40.9086 49.1173 42.1377 48.6209 43.0151C48.1039 43.9288 47.5451 44.24 47.14 44.24V46.24C48.6049 46.24 49.6961 45.1762 50.3616 43.9999C51.0477 42.7873 51.44 41.2114 51.44 39.63H49.44ZM47.14 44.24C46.88 44.24 46.7199 44.1653 46.5902 44.0502C46.4391 43.9161 46.2745 43.6751 46.1295 43.2682C45.8333 42.4364 45.72 41.2082 45.72 39.74H43.72C43.72 41.2418 43.8267 42.7636 44.2455 43.9393C44.458 44.5361 44.7747 45.1132 45.263 45.5464C45.7726 45.9985 46.41 46.24 47.14 46.24V44.24ZM45.7178 39.6735C45.4841 36.1689 43.1004 28.1889 38.3937 21.3529L36.7464 22.4871C41.2796 29.0711 43.5159 36.7111 43.7222 39.8065L45.7178 39.6735ZM15.9999 3.06037L21.1699 4.93037L21.8501 3.04962L16.6801 1.17962L15.9999 3.06037ZM21.2068 4.94292C22.3873 5.31853 23.1988 5.67249 23.6956 5.98866C24.2529 6.34332 24.14 6.46798 24.14 6.3H26.14C26.14 5.36201 25.4221 4.71667 24.7694 4.30134C24.0562 3.84751 23.0527 3.43147 21.8132 3.03707L21.2068 4.94292ZM24.14 6.3C24.14 6.14639 24.2114 6.09785 24.1467 6.175C24.0825 6.25158 23.9438 6.37885 23.6822 6.55128C23.1605 6.89512 22.3259 7.30578 21.1314 7.79445L21.8886 9.64555C23.1141 9.14422 24.0945 8.67487 24.7828 8.22121C25.1262 7.9949 25.4412 7.74403 25.6796 7.45967C25.9174 7.17588 26.14 6.7836 26.14 6.3H24.14ZM20.51 8.71999V26.21H22.51V8.71999H20.51ZM21.51 27.21H27.01V25.21H21.51V27.21ZM27.7085 26.9256L32.3285 22.4156L30.9315 20.9844L26.3115 25.4944L27.7085 26.9256ZM30.9644 22.4463L35.0344 26.0763L36.3656 24.5837L32.2956 20.9537L30.9644 22.4463ZM34.9929 26.0371C35.4111 26.4553 35.6555 26.7535 35.7913 26.9669C35.9262 27.1787 35.91 27.2388 35.91 27.2H37.91C37.91 26.7212 37.7288 26.2863 37.4787 25.8931C37.2295 25.5015 36.8689 25.0847 36.4071 24.6229L34.9929 26.0371ZM35.91 27.2C35.91 27.0783 35.9618 26.9572 36.0337 26.8784C36.0867 26.8203 36.1125 26.8264 36.0364 26.8549C35.8745 26.9156 35.5494 26.97 35.04 26.97V28.97C35.6306 28.97 36.2405 28.9144 36.7386 28.7276C37.2372 28.5406 37.91 28.087 37.91 27.2H35.91ZM35.04 26.97H21.51V28.97H35.04V26.97ZM20.51 27.97V49.42H22.51V27.97H20.51ZM21.9663 50.3098C26.2406 48.1179 31.2867 45.7044 37.9994 42.5131L37.1406 40.7069C30.4333 43.8956 25.3594 46.3221 21.0537 48.5302L21.9663 50.3098ZM36.9192 42.3693L37.6892 43.0293L38.9908 41.5107L38.2208 40.8507L36.9192 42.3693ZM37.7853 41.438C35.1579 43.1896 32.0339 45.1627 29.0206 47.0615C26.0146 48.9557 23.1137 50.779 20.9553 52.2179L22.0647 53.882C24.1963 52.461 27.0704 50.6543 30.0869 48.7535C33.0961 46.8573 36.2422 44.8704 38.8947 43.1021L37.7853 41.438ZM20.51 53.05V84.51H22.51V53.05H20.51ZM20.51 84.51C20.51 89.6718 19.6579 92.6406 18.1481 94.4238C16.6585 96.1832 14.349 96.9982 10.8429 97.3757L11.0571 99.3643C14.701 98.9718 17.6715 98.0818 19.6744 95.7162C21.6571 93.3744 22.51 89.7982 22.51 84.51H20.51ZM11.9078 98.0827C11.3527 96.2323 10.4837 94.886 8.68235 93.6081C6.96267 92.3882 4.37811 91.2212 0.433611 89.6324L-0.313611 91.4876C3.66189 93.0888 6.02733 94.1768 7.52515 95.2394C8.94134 96.244 9.55728 97.2077 9.99218 98.6573L11.9078 98.0827ZM1.06 90.56V89.46H-0.94V90.56H1.06ZM-0.229389 90.4172C4.50502 91.8485 8.14917 92.66 10.84 92.66V90.66C8.47083 90.66 5.07498 89.9315 0.34939 88.5028L-0.229389 90.4172ZM10.84 92.66C13.085 92.66 14.8727 92.0954 16.0465 90.637C17.1755 89.2343 17.56 87.2096 17.56 84.73H15.56C15.56 87.0904 15.1745 88.5307 14.4885 89.383C13.8473 90.1796 12.775 90.66 10.84 90.66V92.66ZM17.56 84.73V56.13H15.56V84.73H17.56ZM16.0264 55.2843L6.78639 61.1143L7.85361 62.8057L17.0936 56.9757L16.0264 55.2843ZM6.32094 61.9166C6.26721 63.1525 6.13425 64.1564 5.93546 64.8229C5.83456 65.1613 5.73734 65.3403 5.67919 65.4152C5.63252 65.4754 5.70319 65.36 5.89 65.36V67.36C6.51682 67.36 6.97248 67.0109 7.25925 66.6413C7.53454 66.2866 7.7192 65.84 7.85204 65.3946C8.12076 64.4936 8.2628 63.2974 8.31906 62.0034L6.32094 61.9166ZM5.89 65.36C6.02885 65.36 5.97324 65.4395 5.67532 65.1301C5.39692 64.841 5.03046 64.3404 4.54749 63.5355L2.83251 64.5645C3.33954 65.4096 3.79809 66.064 4.23468 66.5174C4.65176 66.9505 5.20115 67.36 5.89 67.36V65.36ZM4.51885 63.4905L1.54885 59.0905L-0.108849 60.2095L2.86115 64.6095L4.51885 63.4905ZM1.19552 60.5297C5.25945 58.333 12.045 54.8318 16.949 52.7612L16.171 50.9187C11.175 53.0282 4.32056 56.567 0.244483 58.7703L1.19552 60.5297ZM17.56 51.84V27.97H15.56V51.84H17.56ZM16.56 26.97H0.94V28.97H16.56V26.97ZM1.91619 27.7531L1.47619 25.7731L-0.476187 26.2069L-0.0361867 28.1869L1.91619 27.7531ZM0.450063 26.9887L4.85006 27.2087L4.94994 25.2112L0.549937 24.9912L0.450063 26.9887ZM4.9 27.21H16.56V25.21H4.9V27.21ZM17.56 26.21V7.18H15.56V26.21H17.56ZM17.5591 7.13656L17.3391 2.07656L15.3409 2.16343L15.5609 7.22343L17.5591 7.13656ZM91.137 20.0286L94.987 23.4386L96.313 21.9414L92.463 18.5314L91.137 20.0286ZM94.9992 23.4492C95.7344 24.0794 96.226 24.6029 96.5248 25.0051C96.8545 25.449 96.85 25.6124 96.85 25.55H98.85C98.85 24.9376 98.5155 24.331 98.1302 23.8124C97.714 23.2521 97.1056 22.6206 96.3008 21.9307L94.9992 23.4492ZM96.85 25.55C96.85 25.4854 96.8688 25.3897 96.9292 25.2962C96.9861 25.2081 97.0484 25.1705 97.0632 25.1626C97.0745 25.1566 97.0516 25.1708 96.973 25.1852C96.8967 25.1993 96.7873 25.21 96.64 25.21V27.21C97.0915 27.21 97.5864 27.1502 98.0043 26.9274C98.4899 26.6684 98.85 26.1892 98.85 25.55H96.85ZM96.64 25.21C96.0154 25.21 94.9155 25.0224 93.5241 24.5942L92.9359 26.5058C94.4045 26.9576 95.7246 27.21 96.64 27.21V25.21ZM92.7261 24.6862C84.7688 29.328 78.6577 33.1493 72.7369 36.329L73.6831 38.091C79.6423 34.8907 85.8512 31.012 93.7339 26.4138L92.7261 24.6862ZM72.21 37.21V48.1H74.21V37.21H72.21ZM72.9675 49.0701C76.8222 50.0338 81.0052 51.8382 84.5611 53.7518C88.1413 55.6786 90.9704 57.6539 92.1786 58.9125L93.6214 57.5275C92.1897 56.0361 89.1337 53.9414 85.5089 51.9907C81.8598 50.0268 77.5178 48.1462 73.4525 47.1299L72.9675 49.0701ZM92.1381 58.8676C93.8838 60.9214 94.43 62.789 94.43 64.05H96.43C96.43 62.231 95.6563 59.9186 93.6619 57.5723L92.1381 58.8676ZM94.43 64.05C94.43 64.6265 94.3293 65.0248 94.1989 65.2445C94.1407 65.3425 94.0863 65.3892 94.0431 65.4145C94.002 65.4386 93.9258 65.47 93.78 65.47V67.47C94.7563 67.47 95.4868 66.9929 95.9186 66.2655C96.3107 65.6052 96.43 64.7935 96.43 64.05H94.43ZM93.78 65.47C93.568 65.47 93.1624 65.3598 92.5579 64.8264C91.9612 64.2999 91.2526 63.4308 90.4575 62.1055L88.7425 63.1345C89.5974 64.5592 90.4289 65.6151 91.2346 66.3261C92.0327 67.0302 92.892 67.47 93.78 67.47V65.47ZM90.4396 62.0767C89.769 61.0404 87.7744 58.6634 84.8766 56.0721C81.9663 53.4696 78.0843 50.5957 73.6151 48.6157L72.8049 50.4443C77.0258 52.3143 80.7337 55.0504 83.5434 57.5629C86.3656 60.0866 88.221 62.3296 88.7604 63.1632L90.4396 62.0767ZM72.21 49.53V83.74H74.21V49.53H72.21ZM72.21 83.74C72.21 85.0165 72.3666 86.1301 72.81 87.056C73.271 88.0187 74.003 88.698 74.988 89.1566C75.9383 89.599 77.116 89.8328 78.4987 89.964C79.8897 90.0959 81.5663 90.13 83.55 90.13V88.13C81.5737 88.13 79.9778 88.0953 78.6876 87.9729C77.389 87.8497 76.4767 87.6435 75.832 87.3434C75.222 87.0595 74.854 86.6938 74.6138 86.1922C74.3559 85.6537 74.21 84.8835 74.21 83.74H72.21ZM83.6213 90.1275C84.4186 90.0705 85.1287 89.9851 85.8141 89.9029C86.5037 89.8201 87.1686 89.7405 87.9113 89.6875L87.7688 87.6925C86.9715 87.7495 86.2613 87.8349 85.5759 87.9171C84.8863 87.9999 84.2215 88.0795 83.4788 88.1325L83.6213 90.1275ZM88.0959 89.6567C89.2273 89.3572 90.1697 88.7829 90.9674 87.7957C91.7379 86.8421 92.344 85.5394 92.9019 83.8303C94.0133 80.4257 95.044 75.0367 96.6325 66.6562L94.6675 66.2838C93.066 74.7333 92.0617 79.9594 91.0006 83.2097C90.4723 84.8281 89.9578 85.8629 89.4117 86.5387C88.8928 87.1809 88.3227 87.5278 87.5841 87.7233L88.0959 89.6567ZM95.4711 67.4539L96.6811 67.6739L97.0389 65.7061L95.8289 65.4861L95.4711 67.4539ZM95.8625 66.6188C95.3136 74.3038 94.98 79.2958 94.98 82.64H96.98C96.98 79.3842 97.3064 74.4762 97.8575 66.7612L95.8625 66.6188ZM94.98 82.64C94.98 84.559 95.0836 85.9816 95.4349 86.9854C95.619 87.5115 95.8866 87.9711 96.2824 88.3304C96.6807 88.692 97.1443 88.8934 97.6251 89.0044L98.0749 87.0556C97.8407 87.0016 97.7131 86.928 97.6267 86.8496C97.5378 86.7689 97.4272 86.6235 97.3226 86.3246C97.0964 85.6784 96.98 84.571 96.98 82.64H94.98ZM97.6539 89.0106C98.5074 89.1813 98.61 89.5808 98.61 89.68H100.61C100.61 88.2392 99.3926 87.3187 98.0461 87.0494L97.6539 89.0106ZM98.61 89.68C98.61 90.049 98.4182 90.4339 97.6754 90.8352C96.9145 91.2463 95.7639 91.556 94.3079 91.7707C91.4117 92.1978 87.6971 92.2 84.43 92.2V94.2C87.6529 94.2 91.5283 94.2022 94.5996 93.7493C96.1273 93.524 97.5548 93.1737 98.6262 92.5948C99.7156 92.0061 100.61 91.071 100.61 89.68H98.61ZM84.43 92.2C81.0154 92.2 77.5144 92.1999 74.4557 92.0906L74.3843 94.0894C77.4856 94.2001 81.0246 94.2 84.43 94.2V92.2ZM74.5008 92.0933C72.7058 91.9477 71.4586 91.2661 70.6275 90.1025C69.7662 88.8967 69.26 87.0453 69.26 84.4H67.26C67.26 87.2547 67.7988 89.5833 69 91.265C70.2314 92.9889 72.0642 93.9023 74.3392 94.0867L74.5008 92.0933ZM69.26 84.4V9.38H67.26V84.4H69.26ZM69.2594 9.34554L69.0394 2.96554L67.0406 3.03446L67.2606 9.41446L69.2594 9.34554ZM67.736 3.95266L72.906 5.60265L73.514 3.69733L68.344 2.04734L67.736 3.95266ZM72.95 5.61562C74.3647 5.99648 75.3305 6.3333 75.9253 6.63068C76.225 6.78052 76.374 6.89308 76.4356 6.954C76.4939 7.01172 76.39 6.93635 76.39 6.74H78.39C78.39 6.21365 78.1211 5.80827 77.8425 5.53255C77.5672 5.26004 77.2075 5.03572 76.8197 4.84182C76.0395 4.45169 74.9153 4.07351 73.47 3.68438L72.95 5.61562ZM76.39 6.74C76.39 6.50439 76.5219 6.4311 76.418 6.53024C76.3294 6.61472 76.1475 6.74598 75.8292 6.91125C75.1996 7.23815 74.227 7.60171 72.93 7.98L73.49 9.89999C74.833 9.50829 75.9504 9.10184 76.7508 8.68624C77.1475 8.48026 77.5156 8.24715 77.7983 7.97756C78.0656 7.72264 78.39 7.3056 78.39 6.74H76.39ZM72.21 8.93999V35.01H74.21V8.93999H72.21ZM73.8073 35.812C79.019 31.931 85.9877 25.7357 92.4612 20.0302L91.1388 18.5298C84.6323 24.2643 77.741 30.389 72.6127 34.208L73.8073 35.812ZM141.63 74.61V73.61H140.63V74.61H141.63ZM136.68 93.2L137.675 93.2995L137.68 93.2499V93.2H136.68ZM136.68 74.61H137.68V73.61H136.68V74.61ZM120.84 74.61V73.61H120.81L120.78 73.6118L120.84 74.61ZM113.58 75.05L112.719 75.5587L113.03 76.0852L113.64 76.0482L113.58 75.05ZM112.15 72.63L112.181 71.6305L110.364 71.5737L111.289 73.1387L112.15 72.63ZM119.19 72.85L119.159 73.8495L119.174 73.85H119.19V72.85ZM136.68 72.85V73.85H137.68V72.85H136.68ZM136.68 60.75H137.68V59.75H136.68V60.75ZM121.94 60.75V59.75H120.94V60.75H121.94ZM116.99 32.15H117.99V32.1108L117.987 32.0718L116.99 32.15ZM116.55 26.54L117.037 25.6666L115.407 24.7576L115.553 26.6182L116.55 26.54ZM122.27 29.73L121.783 30.6034L122.01 30.73H122.27V29.73ZM155.27 29.73V30.73H155.629L155.906 30.5019L155.27 29.73ZM159.01 26.65L159.603 25.8449L158.976 25.3827L158.374 25.8781L159.01 26.65ZM163.19 29.73L163.808 28.9437L163.796 28.9341L163.783 28.9249L163.19 29.73ZM161.65 33.25V32.25H160.65V33.25H161.65ZM161.65 37.32H160.65V38.425L161.75 38.315L161.65 37.32ZM173.75 36.11L173.85 37.105L174.822 37.0078L174.747 36.0333L173.75 36.11ZM172.54 0.909992L172.777 -0.0614052L171.54 -0.363895V0.909992H172.54ZM177.49 2.12L177.733 1.14984L177.727 1.1486L177.49 2.12ZM177.49 5.41999L177.294 4.43941L176.509 4.59632L176.49 5.39619L177.49 5.41999ZM178.26 35.67L177.263 35.7459L177.34 36.7624L178.355 36.6655L178.26 35.67ZM197.84 33.8L197.935 34.7955L198.396 34.7514L198.661 34.3711L197.84 33.8ZM201.36 28.74L201.879 27.8852L201.076 27.3975L200.539 28.1689L201.36 28.74ZM207.52 32.48L208.075 31.6479L208.057 31.6362L208.039 31.6252L207.52 32.48ZM206.64 34.68L206.563 33.6829L206.555 33.6836L206.547 33.6844L206.64 34.68ZM178.48 37.32L178.387 36.3244L177.405 36.4164L177.483 37.3993L178.48 37.32ZM183.32 62.95L182.379 63.2893L183.052 65.1547L184.152 63.5047L183.32 62.95ZM192.34 47.44L192.796 46.55L191.911 46.0966L191.453 46.9792L192.34 47.44ZM196.85 49.75L196.394 50.64L196.408 50.6471L196.422 50.6537L196.85 49.75ZM195.75 52.94L195.86 51.9461L195.223 51.8753L194.893 52.4255L195.75 52.94ZM185.52 67.9L184.732 67.2847L183.471 68.9H185.52V67.9ZM185.63 67.9L186.542 67.4902L186.277 66.9H185.63V67.9ZM206.2 68.56L206.463 67.5952L205.455 67.3202L205.225 68.3397L206.2 68.56ZM207.41 68.89L208.401 69.0229L208.517 68.1555L207.673 67.9252L207.41 68.89ZM204.99 90.89L203.991 90.85L203.98 91.1182L204.105 91.3557L204.99 90.89ZM182.33 71.64L183.217 71.1783L182.537 69.8713L181.573 70.9862L182.33 71.64ZM146.47 97.38L145.626 97.9169L146.086 98.6386L146.87 98.2966L146.47 97.38ZM145.7 96.17L145.218 95.2936L144.284 95.8073L144.856 96.7069L145.7 96.17ZM180.35 67.35L181.149 67.9511L181.516 67.4634L181.25 66.9141L180.35 67.35ZM173.97 37.76L174.966 37.6737L174.88 36.6748L173.881 36.764L173.97 37.76ZM161.65 38.86L161.561 37.864L160.65 37.9453V38.86H161.65ZM156.81 60.75H157.81V59.75H156.81V60.75ZM141.63 60.75V59.75H140.63V60.75H141.63ZM141.63 72.85H140.63V73.85H141.63V72.85ZM158.35 72.85V73.85H158.764L159.057 73.5571L158.35 72.85ZM162.53 68.67L163.088 67.8404L162.405 67.3806L161.823 67.9629L162.53 68.67ZM168.25 72.52L168.831 71.7063L168.82 71.6982L168.808 71.6904L168.25 72.52ZM156.7 31.49H157.7V30.49H156.7V31.49ZM142.95 31.49V30.49H140.247L142.299 32.2493L142.95 31.49ZM141.63 33.91V32.91H140.63V33.91H141.63ZM141.63 44.14H140.63V45.14H141.63V44.14ZM156.7 44.14V45.14H157.7V44.14H156.7ZM136.68 31.49H137.68V30.49H136.68V31.49ZM121.94 31.49V30.49H120.94V31.49H121.94ZM121.94 44.14H120.94V45.14H121.94V44.14ZM136.68 44.14V45.14H137.68V44.14H136.68ZM136.68 45.9H137.68V44.9H136.68V45.9ZM121.94 45.9V44.9H120.94V45.9H121.94ZM121.94 58.99H120.94V59.99H121.94V58.99ZM136.68 58.99V59.99H137.68V58.99H136.68ZM141.63 58.99H140.63V59.99H141.63V58.99ZM156.7 58.99V59.99H157.7V58.99H156.7ZM156.7 45.9H157.7V44.9H156.7V45.9ZM141.63 45.9V44.9H140.63V45.9H141.63ZM115.45 7.95H116.45V7.91006L116.447 7.87025L115.45 7.95ZM115.01 2.44999L115.546 1.60548L113.853 0.532417L114.013 2.52974L115.01 2.44999ZM119.52 5.31L118.984 6.1545L119.23 6.31H119.52V5.31ZM129.64 5.31V6.31H130.02L130.304 6.0574L129.64 5.31ZM132.61 2.67L133.221 1.87822L132.565 1.37218L131.946 1.92259L132.61 2.67ZM136.46 5.64L135.849 6.43178L135.891 6.464L135.936 6.49165L136.46 5.64ZM135.8 8.61V7.61H134.8V8.61H135.8ZM132.83 22.25L133.073 23.2201V23.2201L132.83 22.25ZM130.85 19.72H131.85V18.72H130.85V19.72ZM120.4 19.72V18.72H119.4V19.72H120.4ZM130.85 7.07H131.85V6.07H130.85V7.07ZM120.4 7.07V6.07H119.4V7.07H120.4ZM120.4 17.96H119.4V18.96H120.4V17.96ZM130.85 17.96V18.96H131.85V17.96H130.85ZM143.72 7.95H144.72V7.91006L144.717 7.87025L143.72 7.95ZM143.28 2.44999L143.816 1.60548L142.123 0.532417L142.283 2.52974L143.28 2.44999ZM147.79 5.31L147.254 6.1545L147.5 6.31H147.79V5.31ZM157.8 5.31V6.31H158.17L158.451 6.06925L157.8 5.31ZM160.88 2.67L161.491 1.87822L160.847 1.38139L160.229 1.91074L160.88 2.67ZM164.73 5.64L164.119 6.43178L164.161 6.464L164.206 6.49165L164.73 5.64ZM163.96 8.61V7.61H162.96V8.61H163.96ZM159.12 19.83H160.12V18.83H159.12V19.83ZM148.67 19.83V18.83H147.67V19.83H148.67ZM159.01 7.07H160.01V6.07H159.01V7.07ZM148.67 7.07V6.07H147.67V7.07H148.67ZM148.67 18.07H147.67V19.07H148.67V18.07ZM159.01 18.07V19.07H160.01V18.07H159.01ZM183.43 11.03L182.598 10.4753L182.139 11.1635L182.729 11.7432L183.43 11.03ZM184.09 10.04L184.596 9.17729L183.781 8.69999L183.258 9.4853L184.09 10.04ZM194.32 24.45L193.442 24.9288L193.46 24.9618L193.48 24.9932L194.32 24.45ZM140.63 74.61V92.1H142.63V74.61H140.63ZM140.63 92.1C140.63 92.5793 140.66 93.0229 140.688 93.3976C140.717 93.7913 140.74 94.0722 140.74 94.3H142.74C142.74 93.9778 142.708 93.5987 142.682 93.2499C142.655 92.8821 142.63 92.5007 142.63 92.1H140.63ZM140.74 94.3C140.74 95.1408 140.358 95.7079 139.811 96.0988C139.23 96.514 138.476 96.71 137.89 96.71V98.71C138.844 98.71 140.015 98.411 140.974 97.7262C141.967 97.0171 142.74 95.8792 142.74 94.3H140.74ZM137.89 96.71C137.689 96.71 137.608 96.6836 137.593 96.6773C137.588 96.6756 137.599 96.6793 137.615 96.6925C137.632 96.706 137.644 96.7202 137.65 96.729C137.658 96.7417 137.631 96.7083 137.607 96.5674C137.583 96.4266 137.57 96.2297 137.57 95.95H135.57C135.57 96.5427 135.607 97.2707 135.985 97.8385C136.445 98.5285 137.187 98.71 137.89 98.71V96.71ZM137.57 95.95C137.57 95.2904 137.57 94.3449 137.675 93.2995L135.685 93.1005C135.57 94.2551 135.57 95.2896 135.57 95.95H137.57ZM137.68 93.2V74.61H135.68V93.2H137.68ZM136.68 73.61H120.84V75.61H136.68V73.61ZM120.78 73.6118L113.52 74.0518L113.64 76.0482L120.9 75.6082L120.78 73.6118ZM114.441 74.5413L113.011 72.1213L111.289 73.1387L112.719 75.5587L114.441 74.5413ZM112.119 73.6295L119.159 73.8495L119.221 71.8505L112.181 71.6305L112.119 73.6295ZM119.19 73.85H136.68V71.85H119.19V73.85ZM137.68 72.85V60.75H135.68V72.85H137.68ZM136.68 59.75H121.94V61.75H136.68V59.75ZM120.94 60.75V63.06H122.94V60.75H120.94ZM120.94 63.06C120.94 63.5508 120.687 64.0178 120.167 64.3976C119.64 64.7833 118.888 65.03 118.09 65.03V67.03C119.272 67.03 120.445 66.6717 121.348 66.0124C122.258 65.3472 122.94 64.3292 122.94 63.06H120.94ZM118.09 65.03C117.951 65.03 117.905 65.0066 117.911 65.0092C117.926 65.0163 117.945 65.034 117.952 65.045C117.953 65.0457 117.931 65.0119 117.911 64.911C117.892 64.8102 117.88 64.673 117.88 64.49H115.88C115.88 64.9683 115.93 65.604 116.275 66.135C116.682 66.7605 117.345 67.03 118.09 67.03V65.03ZM117.88 64.49C117.88 64.1466 117.905 63.7973 117.932 63.4062C117.96 63.0273 117.99 62.6066 117.99 62.18H115.99C115.99 62.5234 115.965 62.8727 115.938 63.2637C115.91 63.6427 115.88 64.0634 115.88 64.49H117.88ZM117.99 62.18V32.15H115.99V62.18H117.99ZM117.987 32.0718L117.547 26.4618L115.553 26.6182L115.993 32.2282L117.987 32.0718ZM116.063 27.4134L121.783 30.6034L122.757 28.8566L117.037 25.6666L116.063 27.4134ZM122.27 30.73H155.27V28.73H122.27V30.73ZM155.906 30.5019L159.646 27.4219L158.374 25.8781L154.634 28.9581L155.906 30.5019ZM158.417 27.4551L162.597 30.535L163.783 28.9249L159.603 25.8449L158.417 27.4551ZM162.572 30.5163C163.316 31.1006 163.771 31.541 164.032 31.8672C164.303 32.2069 164.28 32.3171 164.28 32.26H166.28C166.28 31.6529 165.982 31.1031 165.593 30.6178C165.194 30.119 164.604 29.5694 163.808 28.9437L162.572 30.5163ZM164.28 32.26C164.28 32.0522 164.428 31.9574 164.394 31.9783C164.327 32.0191 164.155 32.0858 163.834 32.1404C163.205 32.2472 162.388 32.25 161.65 32.25V34.25C162.342 34.25 163.34 34.2528 164.169 34.1121C164.576 34.0429 165.044 33.924 165.434 33.6864C165.857 33.4289 166.28 32.9627 166.28 32.26H164.28ZM160.65 33.25V37.32H162.65V33.25H160.65ZM161.75 38.315L173.85 37.105L173.65 35.115L161.551 36.325L161.75 38.315ZM174.747 36.0333C173.979 26.0532 173.54 14.0892 173.54 0.909992H171.54C171.54 14.1308 171.981 26.1468 172.753 36.1867L174.747 36.0333ZM172.303 1.88139L177.253 3.09139L177.727 1.1486L172.777 -0.0614052L172.303 1.88139ZM177.247 3.09014C178.557 3.41762 179.48 3.70389 180.059 3.95741C180.353 4.08615 180.5 4.18144 180.558 4.23006C180.627 4.28882 180.45 4.17275 180.45 3.88H182.45C182.45 3.31223 182.108 2.92117 181.847 2.70148C181.575 2.47168 181.227 2.28509 180.861 2.12509C180.12 1.8011 179.063 1.48237 177.733 1.14985L177.247 3.09014ZM180.45 3.88C180.45 3.51566 180.688 3.3743 180.603 3.44048C180.552 3.48009 180.412 3.5661 180.126 3.68163C179.565 3.90841 178.646 4.16896 177.294 4.43941L177.686 6.40057C179.084 6.12103 180.145 5.83158 180.876 5.53586C181.236 5.39014 181.571 5.22177 181.833 5.01732C182.061 4.83944 182.45 4.46433 182.45 3.88H180.45ZM176.49 5.39619C176.27 14.6667 176.49 25.5901 177.263 35.7459L179.257 35.5941C178.49 25.5099 178.27 14.6533 178.49 5.44379L176.49 5.39619ZM178.355 36.6655L197.935 34.7955L197.745 32.8045L178.165 34.6745L178.355 36.6655ZM198.661 34.3711L202.181 29.3111L200.539 28.1689L197.019 33.2289L198.661 34.3711ZM200.841 29.5948L207.001 33.3348L208.039 31.6252L201.879 27.8852L200.841 29.5948ZM206.965 33.312C207.263 33.5107 207.456 33.674 207.565 33.7985C207.68 33.9296 207.62 33.9227 207.62 33.8H209.62C209.62 33.2373 209.34 32.7904 209.07 32.4815C208.794 32.166 208.437 31.8893 208.075 31.6479L206.965 33.312ZM207.62 33.8C207.62 33.6833 207.662 33.5703 207.724 33.4917C207.773 33.4286 207.802 33.4296 207.735 33.4616C207.586 33.5327 207.238 33.631 206.563 33.6829L206.717 35.6771C207.472 35.619 208.114 35.4973 208.598 35.2659C209.106 35.0227 209.62 34.5515 209.62 33.8H207.62ZM206.547 33.6844L178.387 36.3244L178.573 38.3156L206.733 35.6756L206.547 33.6844ZM177.483 37.3993C178.257 47.1254 179.917 56.463 182.379 63.2893L184.261 62.6107C181.883 56.017 180.243 46.8746 179.477 37.2407L177.483 37.3993ZM184.152 63.5047C187.258 58.8462 190.246 53.6429 193.227 47.9008L191.453 46.9792C188.494 52.6771 185.542 57.8138 182.488 62.3953L184.152 63.5047ZM191.884 48.33L196.394 50.64L197.306 48.86L192.796 46.55L191.884 48.33ZM196.422 50.6537C197.428 51.1303 198.12 51.5582 198.544 51.9018C198.757 52.0742 198.874 52.2029 198.929 52.2811C198.993 52.3703 198.93 52.3248 198.93 52.17H200.93C200.93 51.7402 200.743 51.3785 200.556 51.1171C200.361 50.8446 200.1 50.5883 199.804 50.3482C199.21 49.8668 198.362 49.3597 197.278 48.8463L196.422 50.6537ZM198.93 52.17C198.93 51.7617 199.279 51.7003 199.041 51.7964C198.865 51.8678 198.552 51.933 198.122 51.9715C197.283 52.0466 196.307 51.9958 195.86 51.9461L195.64 53.9339C196.183 53.9942 197.297 54.0534 198.3 53.9635C198.792 53.9195 199.339 53.8334 199.791 53.6505C200.182 53.4922 200.93 53.0733 200.93 52.17H198.93ZM194.893 52.4255C191.613 57.8916 188.226 62.8078 184.732 67.2847L186.308 68.5153C189.854 63.9721 193.287 58.9884 196.607 53.4545L194.893 52.4255ZM185.52 68.9H185.63V66.9H185.52V68.9ZM184.718 68.3098C186.471 72.2111 189.716 77.0415 192.706 80.8762C194.206 82.7989 195.66 84.4964 196.856 85.7222C197.452 86.3326 198.001 86.845 198.472 87.2122C198.707 87.3951 198.943 87.5588 199.172 87.6813C199.375 87.7901 199.686 87.93 200.04 87.93V85.93C200.188 85.93 200.232 85.9806 200.116 85.9181C200.025 85.8693 199.888 85.7798 199.702 85.635C199.332 85.3469 198.854 84.9063 198.288 84.3256C197.16 83.1692 195.754 81.5323 194.284 79.6463C191.334 75.8635 188.199 71.1789 186.542 67.4902L184.718 68.3098ZM200.04 87.93C200.532 87.93 200.922 87.6893 201.195 87.4427C201.471 87.1938 201.715 86.8629 201.938 86.492C202.384 85.7469 202.854 84.6528 203.363 83.1883C204.386 80.2458 205.634 75.6085 207.175 68.7803L205.225 68.3397C203.686 75.1515 202.459 79.6992 201.474 82.5316C200.98 83.9547 200.563 84.8956 200.222 85.4637C200.051 85.7493 199.926 85.8944 199.856 85.9575C199.784 86.0229 199.851 85.93 200.04 85.93V87.93ZM205.937 69.5248L207.147 69.8548L207.673 67.9252L206.463 67.5952L205.937 69.5248ZM206.419 68.757C205.21 77.7717 204.103 88.0464 203.991 90.85L205.989 90.93C206.097 88.2336 207.19 78.0483 208.401 69.0229L206.419 68.757ZM204.105 91.3557C205.193 93.4224 205.64 94.8884 205.64 95.73H207.64C207.64 94.3716 206.987 92.5376 205.875 90.4243L204.105 91.3557ZM205.64 95.73C205.64 95.8915 205.624 95.995 205.609 96.0555C205.594 96.1134 205.583 96.1131 205.603 96.0894C205.626 96.0605 205.656 96.0428 205.669 96.0374C205.675 96.0353 205.64 96.05 205.54 96.05V98.05C206.119 98.05 206.727 97.8766 207.155 97.3506C207.546 96.8691 207.64 96.2627 207.64 95.73H205.64ZM205.54 96.05C205.388 96.05 205.036 95.9771 204.45 95.708C203.89 95.4509 203.199 95.054 202.397 94.5106C200.797 93.425 198.82 91.7966 196.66 89.6571C192.342 85.3799 187.346 79.1101 183.217 71.1783L181.443 72.1017C185.674 80.2299 190.798 86.6651 195.253 91.0779C197.479 93.2834 199.551 94.9962 201.275 96.1657C202.136 96.7497 202.925 97.2088 203.616 97.5257C204.28 97.8308 204.95 98.05 205.54 98.05V96.05ZM181.573 70.9862C171.894 82.1883 160.582 90.1349 146.07 96.4634L146.87 98.2966C161.618 91.8651 173.186 83.7517 183.087 72.2938L181.573 70.9862ZM147.314 96.8431L146.544 95.6331L144.856 96.7069L145.626 97.9169L147.314 96.8431ZM146.182 97.0464C160.68 89.0778 171.692 80.5229 181.149 67.9511L179.551 66.7489C170.308 79.0371 159.54 87.4222 145.218 95.2936L146.182 97.0464ZM181.25 66.9141C177.922 60.0439 176.174 51.614 174.966 37.6737L172.974 37.8463C174.186 51.846 175.958 60.5761 179.45 67.7859L181.25 66.9141ZM173.881 36.764L161.561 37.864L161.739 39.856L174.059 38.756L173.881 36.764ZM160.65 38.86V59.65H162.65V38.86H160.65ZM160.65 59.65C160.65 60.1293 160.68 60.5729 160.708 60.9476C160.737 61.3413 160.76 61.6222 160.76 61.85H162.76C162.76 61.5278 162.728 61.1487 162.702 60.7999C162.675 60.4321 162.65 60.0507 162.65 59.65H160.65ZM160.76 61.85C160.76 62.1892 160.509 62.5658 159.785 62.9159C159.091 63.251 158.305 63.38 158.02 63.38V65.38C158.615 65.38 159.699 65.179 160.655 64.7166C161.581 64.2692 162.76 63.3808 162.76 61.85H160.76ZM158.02 63.38C157.84 63.38 157.767 63.3524 157.753 63.3465C157.753 63.3464 157.771 63.3583 157.78 63.3716C157.78 63.3727 157.756 63.3361 157.734 63.2207C157.713 63.1047 157.7 62.9463 157.7 62.73H155.7C155.7 63.2452 155.745 63.9252 156.115 64.4809C156.553 65.1365 157.258 65.38 158.02 65.38V63.38ZM157.7 62.73C157.7 62.5068 157.722 62.2544 157.752 61.9055C157.779 61.5734 157.81 61.18 157.81 60.75H155.81C155.81 61.09 155.786 61.4116 155.758 61.7395C155.733 62.0506 155.7 62.4032 155.7 62.73H157.7ZM156.81 59.75H141.63V61.75H156.81V59.75ZM140.63 60.75V72.85H142.63V60.75H140.63ZM141.63 73.85H158.35V71.85H141.63V73.85ZM159.057 73.5571L163.237 69.3771L161.823 67.9629L157.643 72.1429L159.057 73.5571ZM161.972 69.4996L167.692 73.3496L168.808 71.6904L163.088 67.8404L161.972 69.4996ZM167.669 73.3337C168.028 73.5901 168.184 73.7446 168.247 73.8253C168.274 73.8591 168.269 73.8612 168.259 73.8343C168.247 73.8029 168.24 73.7647 168.24 73.73H170.24C170.24 72.8456 169.59 72.2481 168.831 71.7063L167.669 73.3337ZM168.24 73.73C168.24 73.5339 168.338 73.4104 168.374 73.3762C168.395 73.3559 168.369 73.3887 168.236 73.4374C167.973 73.5336 167.524 73.61 166.93 73.61V75.61C167.656 75.61 168.362 75.5214 168.924 75.3151C169.386 75.1459 170.24 74.7001 170.24 73.73H168.24ZM166.93 73.61H141.63V75.61H166.93V73.61ZM156.7 30.49H142.95V32.49H156.7V30.49ZM142.299 32.2493C142.736 32.6233 143.053 32.8686 143.319 33.1216C143.443 33.2397 143.505 33.3138 143.531 33.352C143.563 33.3992 143.49 33.3168 143.49 33.14H145.49C145.49 32.7432 145.321 32.4271 145.184 32.2267C145.042 32.0175 144.863 31.8303 144.698 31.6734C144.387 31.3764 143.934 31.0167 143.601 30.7307L142.299 32.2493ZM143.49 33.14C143.49 32.9161 143.603 32.7602 143.674 32.6972C143.72 32.6567 143.71 32.6855 143.554 32.733C143.243 32.8273 142.645 32.91 141.63 32.91V34.91C142.705 34.91 143.537 34.8277 144.134 34.647C144.431 34.557 144.744 34.4208 145 34.1947C145.281 33.9461 145.49 33.5839 145.49 33.14H143.49ZM140.63 33.91V44.14H142.63V33.91H140.63ZM141.63 45.14H156.7V43.14H141.63V45.14ZM157.7 44.14V31.49H155.7V44.14H157.7ZM136.68 30.49H121.94V32.49H136.68V30.49ZM120.94 31.49V44.14H122.94V31.49H120.94ZM121.94 45.14H136.68V43.14H121.94V45.14ZM137.68 44.14V31.49H135.68V44.14H137.68ZM136.68 44.9H121.94V46.9H136.68V44.9ZM120.94 45.9V58.99H122.94V45.9H120.94ZM121.94 59.99H136.68V57.99H121.94V59.99ZM137.68 58.99V45.9H135.68V58.99H137.68ZM141.63 59.99H156.7V57.99H141.63V59.99ZM157.7 58.99V45.9H155.7V58.99H157.7ZM156.7 44.9H141.63V46.9H156.7V44.9ZM140.63 45.9V58.99H142.63V45.9H140.63ZM116.45 19.83V7.95H114.45V19.83H116.45ZM116.447 7.87025L116.007 2.37025L114.013 2.52974L114.453 8.02974L116.447 7.87025ZM114.474 3.2945L118.984 6.1545L120.056 4.46548L115.546 1.60548L114.474 3.2945ZM119.52 6.31H129.64V4.31H119.52V6.31ZM130.304 6.0574L133.274 3.4174L131.946 1.92259L128.976 4.56258L130.304 6.0574ZM131.999 3.46178L135.849 6.43178L137.071 4.84821L133.221 1.87822L131.999 3.46178ZM135.936 6.49165C136.614 6.909 137.03 7.24263 137.264 7.4869C137.528 7.76173 137.44 7.79515 137.44 7.62H139.44C139.44 7.00484 139.077 6.48827 138.708 6.1031C138.31 5.68737 137.736 5.251 136.984 4.78834L135.936 6.49165ZM137.44 7.62C137.44 7.39767 137.587 7.29906 137.556 7.32063C137.507 7.35387 137.376 7.41499 137.136 7.47219C136.669 7.58334 136.099 7.61 135.8 7.61V9.61C136.161 9.61 136.911 9.58166 137.599 9.4178C137.936 9.3375 138.342 9.20612 138.685 8.97124C139.045 8.72468 139.44 8.28233 139.44 7.62H137.44ZM134.8 8.61V19.61H136.8V8.61H134.8ZM134.8 19.61C134.8 20.202 134.719 20.3497 134.598 20.4704C134.396 20.6722 133.897 20.9524 132.587 21.2799L133.073 23.2201C134.403 22.8876 135.389 22.5078 136.012 21.8846C136.716 21.1803 136.8 20.338 136.8 19.61H134.8ZM132.587 21.2799C132.034 21.4183 131.898 21.47 131.73 21.47V23.47C132.222 23.47 132.746 23.3017 133.073 23.2201L132.587 21.2799ZM131.73 21.47C131.656 21.47 131.652 21.457 131.683 21.4722C131.698 21.4796 131.716 21.4908 131.734 21.506C131.751 21.521 131.763 21.5356 131.77 21.546C131.783 21.5651 131.774 21.5601 131.762 21.5069C131.75 21.4536 131.74 21.3728 131.74 21.26H129.74C129.74 21.6686 129.802 22.2133 130.122 22.679C130.49 23.2144 131.073 23.47 131.73 23.47V21.47ZM131.74 21.26C131.74 21.1046 131.76 20.9176 131.79 20.6359C131.817 20.3778 131.85 20.0542 131.85 19.72H129.85C129.85 19.9358 129.828 20.1622 129.8 20.4266C129.775 20.6674 129.74 20.9754 129.74 21.26H131.74ZM130.85 18.72H120.4V20.72H130.85V18.72ZM119.4 19.72V20.6H121.4V19.72H119.4ZM119.4 20.6C119.4 21.1501 119.239 21.5138 119.031 21.7757C118.81 22.0533 118.493 22.2698 118.118 22.4329C117.346 22.7682 116.539 22.79 116.55 22.79V24.79C116.671 24.79 117.789 24.7568 118.915 24.2671C119.489 24.0177 120.113 23.6292 120.597 23.0199C121.093 22.3949 121.4 21.5899 121.4 20.6H119.4ZM116.55 22.79C116.432 22.79 116.406 22.7676 116.424 22.7774C116.447 22.7901 116.454 22.8062 116.444 22.7892C116.429 22.7622 116.399 22.6929 116.376 22.5544C116.352 22.4177 116.34 22.2445 116.34 22.03H114.34C114.34 22.5558 114.39 23.219 114.703 23.7733C114.872 24.0725 115.12 24.343 115.462 24.531C115.8 24.7161 116.173 24.79 116.55 24.79V22.79ZM116.34 22.03C116.34 21.7448 116.364 21.4281 116.392 21.0451C116.42 20.6772 116.45 20.2571 116.45 19.83H114.45C114.45 20.1729 114.425 20.5228 114.398 20.8974C114.371 21.2569 114.34 21.6552 114.34 22.03H116.34ZM130.85 6.07H120.4V8.07H130.85V6.07ZM119.4 7.07V17.96H121.4V7.07H119.4ZM120.4 18.96H130.85V16.96H120.4V18.96ZM131.85 17.96V7.07H129.85V17.96H131.85ZM144.72 19.94V7.95H142.72V19.94H144.72ZM144.717 7.87025L144.277 2.37025L142.283 2.52974L142.723 8.02974L144.717 7.87025ZM142.744 3.2945L147.254 6.1545L148.326 4.46548L143.816 1.60548L142.744 3.2945ZM147.79 6.31H157.8V4.31H147.79V6.31ZM158.451 6.06925L161.531 3.42925L160.229 1.91074L157.149 4.55074L158.451 6.06925ZM160.269 3.46178L164.119 6.43178L165.341 4.84821L161.491 1.87822L160.269 3.46178ZM164.206 6.49165C164.874 6.90285 165.25 7.22684 165.449 7.4535C165.654 7.68799 165.6 7.7369 165.6 7.62H167.6C167.6 7.0631 167.326 6.562 166.954 6.1365C166.575 5.70316 166.016 5.25715 165.254 4.78834L164.206 6.49165ZM165.6 7.62C165.6 7.39767 165.747 7.29907 165.716 7.32063C165.667 7.35387 165.536 7.41499 165.296 7.47219C164.829 7.58334 164.259 7.61 163.96 7.61V9.61C164.321 9.61 165.071 9.58166 165.759 9.4178C166.096 9.3375 166.502 9.20612 166.845 8.97124C167.205 8.72467 167.6 8.28233 167.6 7.62H165.6ZM162.96 8.61V17.08H164.96V8.61H162.96ZM162.96 17.08C162.96 17.3309 162.99 17.9433 163.016 18.5026C163.044 19.0983 163.07 19.6409 163.07 19.83H165.07C165.07 19.5791 165.04 18.9667 165.014 18.4074C164.986 17.8117 164.96 17.2691 164.96 17.08H162.96ZM163.07 19.83C163.07 20.2529 162.779 20.6775 162.028 21.0531C161.297 21.4186 160.406 21.58 159.89 21.58V23.58C160.694 23.58 161.893 23.3564 162.922 22.8419C163.931 22.3375 165.07 21.3871 165.07 19.83H163.07ZM159.89 21.58C159.786 21.58 159.781 21.5642 159.826 21.5839C159.851 21.5947 159.885 21.6136 159.92 21.6436C159.956 21.6736 159.983 21.7065 160.002 21.7367C160.039 21.7929 160.035 21.8193 160.026 21.7659C160.022 21.7416 160.017 21.7064 160.014 21.6569C160.011 21.6075 160.01 21.5494 160.01 21.48H158.01C158.01 21.8003 158.021 22.3528 158.32 22.8183C158.695 23.4019 159.312 23.58 159.89 23.58V21.58ZM160.01 21.48C160.01 21.3192 160.031 21.1014 160.061 20.7911C160.087 20.5087 160.12 20.1599 160.12 19.83H158.12C158.12 20.0501 158.098 20.3063 158.07 20.6014C158.044 20.8686 158.01 21.2008 158.01 21.48H160.01ZM159.12 18.83H148.67V20.83H159.12V18.83ZM147.67 19.83C147.67 20.1642 147.703 20.4878 147.73 20.7459C147.76 21.0276 147.78 21.2146 147.78 21.37H149.78C149.78 21.0854 149.745 20.7774 149.72 20.5366C149.692 20.2722 149.67 20.0458 149.67 19.83H147.67ZM147.78 21.37C147.78 21.5419 147.618 21.8924 146.883 22.2661C146.208 22.6093 145.373 22.79 144.82 22.79V24.79C145.697 24.79 146.842 24.5307 147.79 24.0489C148.677 23.5976 149.78 22.7381 149.78 21.37H147.78ZM144.82 22.79C144.681 22.79 144.635 22.7666 144.641 22.7692C144.656 22.7763 144.675 22.794 144.682 22.805C144.683 22.8057 144.661 22.7719 144.641 22.671C144.622 22.5702 144.61 22.433 144.61 22.25H142.61C142.61 22.7283 142.66 23.364 143.005 23.895C143.412 24.5205 144.075 24.79 144.82 24.79V22.79ZM144.61 22.25C144.61 21.9622 144.634 21.6164 144.663 21.205C144.69 20.8112 144.72 20.3649 144.72 19.94H142.72C142.72 20.2851 142.695 20.6638 142.667 21.0674C142.641 21.4536 142.61 21.8778 142.61 22.25H144.61ZM159.01 6.07H148.67V8.07H159.01V6.07ZM147.67 7.07V18.07H149.67V7.07H147.67ZM148.67 19.07H159.01V17.07H148.67V19.07ZM160.01 18.07V7.07H158.01V18.07H160.01ZM184.262 11.5847L184.922 10.5947L183.258 9.4853L182.598 10.4753L184.262 11.5847ZM183.584 10.9027C188.387 13.718 191.942 15.8771 194.302 17.8239C196.672 19.7782 197.61 21.3368 197.61 22.91H199.61C199.61 20.4132 198.073 18.3418 195.575 16.2811C193.068 14.2129 189.363 11.972 184.596 9.17729L183.584 10.9027ZM197.61 22.91C197.61 23.3291 197.582 24.2569 197.401 25.0534C197.309 25.4587 197.195 25.7452 197.085 25.9079C196.989 26.0504 196.986 25.98 197.07 25.98V27.98C197.869 27.98 198.416 27.5108 198.742 27.0278C199.055 26.5648 199.237 25.9988 199.351 25.4966C199.583 24.4781 199.61 23.3709 199.61 22.91H197.61ZM197.07 25.98C197.083 25.98 196.925 25.9844 196.561 25.6651C196.205 25.3519 195.74 24.8042 195.16 23.9067L193.48 24.9932C194.11 25.9658 194.69 26.6831 195.241 27.1674C195.785 27.6456 196.397 27.98 197.07 27.98V25.98ZM195.198 23.9711C193.823 21.45 190.568 16.6429 184.131 10.3168L182.729 11.7432C189.052 17.9571 192.177 22.61 193.442 24.9288L195.198 23.9711Z" fill="black" mask="url(#path-1-outside-1_799_26)"/>
</svg>
