<svg width="157" height="17" viewBox="0 0 157 17" fill="none" xmlns="http://www.w3.org/2000/svg">
<path d="M6.852 16V9.906L7.49 11.666L0.802 0.599999H3.86L9.228 9.51H7.512L12.924 0.599999H15.74L9.052 11.666L9.712 9.906V16H6.852ZM24.1629 16.22C22.9602 16.22 21.8529 16.022 20.8409 15.626C19.8289 15.23 18.9489 14.68 18.2009 13.976C17.4529 13.2573 16.8736 12.4213 16.4629 11.468C16.0522 10.5 15.8469 9.444 15.8469 8.3C15.8469 7.156 16.0522 6.10733 16.4629 5.154C16.8736 4.186 17.4529 3.35 18.2009 2.646C18.9489 1.92733 19.8289 1.37 20.8409 0.973999C21.8529 0.577999 22.9529 0.379999 24.1409 0.379999C25.3436 0.379999 26.4436 0.577999 27.4409 0.973999C28.4529 1.37 29.3329 1.92733 30.0809 2.646C30.8289 3.35 31.4082 4.186 31.8189 5.154C32.2296 6.10733 32.4349 7.156 32.4349 8.3C32.4349 9.444 32.2296 10.5 31.8189 11.468C31.4082 12.436 30.8289 13.272 30.0809 13.976C29.3329 14.68 28.4529 15.23 27.4409 15.626C26.4436 16.022 25.3509 16.22 24.1629 16.22ZM24.1409 13.712C24.9182 13.712 25.6369 13.58 26.2969 13.316C26.9569 13.052 27.5289 12.678 28.0129 12.194C28.4969 11.6953 28.8709 11.1233 29.1349 10.478C29.4136 9.818 29.5529 9.092 29.5529 8.3C29.5529 7.508 29.4136 6.78933 29.1349 6.144C28.8709 5.484 28.4969 4.912 28.0129 4.428C27.5289 3.92933 26.9569 3.548 26.2969 3.284C25.6369 3.02 24.9182 2.888 24.1409 2.888C23.3636 2.888 22.6449 3.02 21.9849 3.284C21.3396 3.548 20.7676 3.92933 20.2689 4.428C19.7849 4.912 19.4036 5.484 19.1249 6.144C18.8609 6.78933 18.7289 7.508 18.7289 8.3C18.7289 9.07733 18.8609 9.796 19.1249 10.456C19.4036 11.116 19.7849 11.6953 20.2689 12.194C20.7529 12.678 21.3249 13.052 21.9849 13.316C22.6449 13.58 23.3636 13.712 24.1409 13.712ZM42.6824 16.22C41.4798 16.22 40.3724 16.022 39.3604 15.626C38.3484 15.23 37.4684 14.68 36.7204 13.976C35.9724 13.2573 35.3931 12.4213 34.9824 11.468C34.5718 10.5 34.3664 9.444 34.3664 8.3C34.3664 7.156 34.5718 6.10733 34.9824 5.154C35.3931 4.186 35.9724 3.35 36.7204 2.646C37.4684 1.92733 38.3484 1.37 39.3604 0.973999C40.3724 0.577999 41.4724 0.379999 42.6604 0.379999C43.8631 0.379999 44.9631 0.577999 45.9604 0.973999C46.9724 1.37 47.8524 1.92733 48.6004 2.646C49.3484 3.35 49.9278 4.186 50.3384 5.154C50.7491 6.10733 50.9544 7.156 50.9544 8.3C50.9544 9.444 50.7491 10.5 50.3384 11.468C49.9278 12.436 49.3484 13.272 48.6004 13.976C47.8524 14.68 46.9724 15.23 45.9604 15.626C44.9631 16.022 43.8704 16.22 42.6824 16.22ZM42.6604 13.712C43.4378 13.712 44.1564 13.58 44.8164 13.316C45.4764 13.052 46.0484 12.678 46.5324 12.194C47.0164 11.6953 47.3904 11.1233 47.6544 10.478C47.9331 9.818 48.0724 9.092 48.0724 8.3C48.0724 7.508 47.9331 6.78933 47.6544 6.144C47.3904 5.484 47.0164 4.912 46.5324 4.428C46.0484 3.92933 45.4764 3.548 44.8164 3.284C44.1564 3.02 43.4378 2.888 42.6604 2.888C41.8831 2.888 41.1644 3.02 40.5044 3.284C39.8591 3.548 39.2871 3.92933 38.7884 4.428C38.3044 4.912 37.9231 5.484 37.6444 6.144C37.3804 6.78933 37.2484 7.508 37.2484 8.3C37.2484 9.07733 37.3804 9.796 37.6444 10.456C37.9231 11.116 38.3044 11.6953 38.7884 12.194C39.2724 12.678 39.8444 13.052 40.5044 13.316C41.1644 13.58 41.8831 13.712 42.6604 13.712ZM53.986 16V0.599999H56.34L65.998 12.458H64.832V0.599999H67.67V16H65.316L55.658 4.142H56.824V16H53.986ZM88.7006 0.599999H91.5606V16H88.7006V0.599999ZM80.7366 16H77.8766V0.599999H80.7366V16ZM88.9206 9.4H80.4946V6.958H88.9206V9.4ZM99.4711 16V9.906L100.109 11.666L93.4211 0.599999H96.4791L101.847 9.51H100.131L105.543 0.599999H108.359L101.671 11.666L102.331 9.906V16H99.4711ZM112.679 7.002H120.335V9.356H112.679V7.002ZM112.899 13.602H121.589V16H110.039V0.599999H121.281V2.998H112.899V13.602ZM131.993 16.22C130.79 16.22 129.683 16.022 128.671 15.626C127.659 15.23 126.779 14.68 126.031 13.976C125.283 13.2573 124.704 12.4213 124.293 11.468C123.882 10.5 123.677 9.444 123.677 8.3C123.677 7.156 123.882 6.10733 124.293 5.154C124.704 4.186 125.283 3.35 126.031 2.646C126.779 1.92733 127.659 1.37 128.671 0.973999C129.683 0.577999 130.783 0.379999 131.971 0.379999C133.174 0.379999 134.274 0.577999 135.271 0.973999C136.283 1.37 137.163 1.92733 137.911 2.646C138.659 3.35 139.238 4.186 139.649 5.154C140.06 6.10733 140.265 7.156 140.265 8.3C140.265 9.444 140.06 10.5 139.649 11.468C139.238 12.436 138.659 13.272 137.911 13.976C137.163 14.68 136.283 15.23 135.271 15.626C134.274 16.022 133.181 16.22 131.993 16.22ZM131.971 13.712C132.748 13.712 133.467 13.58 134.127 13.316C134.787 13.052 135.359 12.678 135.843 12.194C136.327 11.6953 136.701 11.1233 136.965 10.478C137.244 9.818 137.383 9.092 137.383 8.3C137.383 7.508 137.244 6.78933 136.965 6.144C136.701 5.484 136.327 4.912 135.843 4.428C135.359 3.92933 134.787 3.548 134.127 3.284C133.467 3.02 132.748 2.888 131.971 2.888C131.194 2.888 130.475 3.02 129.815 3.284C129.17 3.548 128.598 3.92933 128.099 4.428C127.615 4.912 127.234 5.484 126.955 6.144C126.691 6.78933 126.559 7.508 126.559 8.3C126.559 9.07733 126.691 9.796 126.955 10.456C127.234 11.116 127.615 11.6953 128.099 12.194C128.583 12.678 129.155 13.052 129.815 13.316C130.475 13.58 131.194 13.712 131.971 13.712ZM143.297 16V0.599999H145.651L155.309 12.458H154.143V0.599999H156.981V16H154.627L144.969 4.142H146.135V16H143.297Z" fill="black"/>
</svg>
