<svg xmlns="http://www.w3.org/2000/svg" width="1970" height="1048" fill="none"><path fill="#000" d="M1968.33 1.587v429.85c-136.18-208.48-365.65-332.85-614.5-332.85-332.92 0-620.997 221.05-707.737 540.13a479.314 479.314 0 0 0 4.24-63.63V1.587H1968.33Zm1-1H649.333v574.5a475.747 475.747 0 0 1-7.45 84c77.73-321.04 366.987-559.5 711.947-559.5 258.11 0 485 133.51 615.5 335.22V.587Z"/><path fill="#000" d="M649.253 1.587v573.5a440.479 440.479 0 0 1-8.05 83.83 686.949 686.949 0 0 0-7.875 33.43c-13.92 50.211-36.775 97.94-67.633 141.24-30.381 42.729-68.064 80.63-111.583 112.23-63.086 45.697-136.922 77.073-215.555 91.593-78.632 14.52-159.862 11.78-237.138-7.99V1.587h647.834Zm1.083-1h-650V1030.18c44.967 11.58 91.439 17.44 138.125 17.41 238.767 0 439.346-150.903 495.928-355.003a659.422 659.422 0 0 1 7.876-33.45 440.225 440.225 0 0 0 8.071-84V.587Z"/></svg>