<svg xmlns="http://www.w3.org/2000/svg" width="3012" height="1602" fill="none"><path fill="#000" d="M3009.57 2.5v657.303c-208.24-318.796-559.13-508.976-939.66-508.976-509.08 0-949.6 338.017-1082.238 825.937a732.92 732.92 0 0 0 6.484-97.3V2.5H3009.57Zm1.53-1.53H992.627v878.494a727.482 727.482 0 0 1-11.393 128.446C1100.09 516.996 1542.42 152.356 2069.91 152.356c394.69 0 741.63 204.156 941.19 512.6V.971Z"/><path fill="#000" d="M992.506 2.5v876.964a673.54 673.54 0 0 1-12.308 128.186 1049.48 1049.48 0 0 0-12.043 51.12c-21.286 76.78-56.235 149.77-103.42 215.98-46.458 65.34-104.08 123.29-170.627 171.61-96.467 69.88-209.373 117.86-329.614 140.06-120.241 22.21-244.452 18.02-362.619-12.22V2.5h990.631Zm1.657-1.53H.219v1574.39c68.761 17.72 139.823 26.68 211.213 26.63 365.109 0 671.823-230.75 758.346-542.85 3.578-17.19 7.593-34.24 12.043-51.15a673.14 673.14 0 0 0 12.342-128.449V.971Z"/></svg>