<svg width="259" height="75" viewBox="0 0 259 75" fill="none" xmlns="http://www.w3.org/2000/svg">
<path d="M3.68 9.59609V74.0761H0.4V0.636089H3.68H14.32L32.48 65.5161L50.56 0.636089H50.64H52.24H63.84V74.1561H50.64V12.4761L34.16 71.5961L33.44 74.1561H31.76H21.68L3.68 9.59609ZM122.285 28.7161C127.512 28.7161 131.778 30.7161 135.085 34.7161C138.232 38.5028 139.805 43.4894 139.805 49.6761V74.3161H126.605V49.6761V49.5961C126.605 48.6361 126.525 47.6761 126.365 46.7161C125.885 38.0228 124.338 33.1428 121.725 32.0761L120.925 31.9961L119.885 32.2361C117.112 33.7294 115.592 39.5428 115.325 49.6761H115.245V74.3161H102.125V49.6761V49.5961C102.125 48.6361 102.045 47.6761 101.885 46.7161C101.352 38.0228 99.7783 33.1428 97.165 32.0761L96.445 31.9961L95.405 32.2361C92.6317 33.7294 91.1117 39.5428 90.845 49.6761H90.765V74.1561H77.645V28.8761H90.765V30.2361C92.9517 29.2228 95.2717 28.7161 97.725 28.7161H97.805C102.765 28.7161 106.845 30.5294 110.045 34.1561C113.298 30.5294 117.378 28.7161 122.285 28.7161ZM197.129 28.7161C202.355 28.7161 206.622 30.7161 209.929 34.7161C213.075 38.5028 214.649 43.4894 214.649 49.6761V74.3161H201.449V49.6761V49.5961C201.449 48.6361 201.369 47.6761 201.209 46.7161C200.729 38.0228 199.182 33.1428 196.569 32.0761L195.769 31.9961L194.729 32.2361C191.955 33.7294 190.435 39.5428 190.169 49.6761H190.089V74.3161H176.969V49.6761V49.5961C176.969 48.6361 176.889 47.6761 176.729 46.7161C176.195 38.0228 174.622 33.1428 172.009 32.0761L171.289 31.9961L170.249 32.2361C167.475 33.7294 165.955 39.5428 165.689 49.6761H165.609V74.1561H152.489V28.8761H165.609V30.2361C167.795 29.2228 170.115 28.7161 172.569 28.7161H172.649C177.609 28.7161 181.689 30.5294 184.889 34.1561C188.142 30.5294 192.222 28.7161 197.129 28.7161ZM245.215 55.2761V0.55609H258.335V55.2761H245.215ZM245.215 74.0761V61.9161H258.335V74.0761H245.215Z" fill="#F40F8B"/>
</svg>
