<svg width="205" height="97" viewBox="0 0 205 97" fill="none" xmlns="http://www.w3.org/2000/svg">
<mask id="path-1-outside-1_799_53" maskUnits="userSpaceOnUse" x="-1" y="-1" width="207" height="99" fill="black">
<rect fill="white" x="-1" y="-1" width="207" height="99"/>
<path d="M31.18 29.51V8.72L30.63 3.99L38 5.75C40.2 6.40999 41.08 6.85 41.08 7.39999C41.08 8.17 38.88 8.72 36.13 9.27V29.51H60.77V8.83L60.22 4.1L67.7 5.85999C69.57 6.40999 70.23 6.85 70.23 7.29C70.23 8.17 67.7 8.83 65.72 9.38V29.51H81.89L86.84 24.34L93.55 29.18C94.32 29.62 94.65 30.06 94.65 30.39C94.65 30.94 93.66 31.27 92.34 31.27H65.72V57.34H84.2L89.48 52.17L95.97 57.01C96.63 57.45 96.96 57.89 96.96 58.22C96.96 58.77 95.86 59.1 94.54 59.1H9.51L2.25 59.54L0.93 57.12L7.86 57.45H31.18V31.27H13.14L5.88 31.6L4.45 29.4L11.6 29.51H31.18ZM36.13 57.34H60.77V31.27H36.13V57.34ZM35.69 65.26L40.2 67.68C42.07 68.89 43.17 69.77 43.17 70.43C43.17 71.2 41.19 71.31 39.21 71.2C29.64 80.33 22.49 86.93 4.56 94.85L4.12 93.97C18.2 85.06 27.55 76.92 35.69 65.26ZM57.58 67.57L58.24 66.47C69.9 72.19 85.41 80.33 87.83 87.92C87.94 88.58 87.94 89.24 87.94 89.9C87.94 92.54 87.17 94.08 85.96 94.08C85.08 94.08 83.98 93.31 82.88 91.33C79.25 85.72 69.13 76.59 57.58 67.57ZM134.58 39.52H150.75L153.5 36.33L158.34 39.96C159.22 40.73 159.66 41.28 159.66 41.72C159.66 42.38 158.67 42.82 156.69 43.26V53.6C156.69 55.58 156.91 56.68 156.91 57.45C156.91 58.44 156.47 58.88 154.71 59.65C153.61 60.2 152.84 60.42 152.4 60.42C151.85 60.42 151.63 59.98 151.63 59.32C151.63 58.44 151.85 57.23 151.85 55.8H134.14C134.14 56.35 134.36 59.21 134.36 59.87C134.36 60.75 133.92 61.19 131.72 62.07C130.73 62.51 130.07 62.73 129.63 62.73C129.08 62.73 128.86 62.29 128.86 61.63C128.86 60.75 129.19 59.32 129.19 57.45V41.39L128.86 36.33L134.58 39.52ZM151.74 54.15V41.28H134.14V54.15H151.74ZM169.45 14.88H192L197.17 9.04999L203.77 14.55C204.54 14.99 204.87 15.43 204.87 15.87C204.87 16.42 204.1 16.75 203 16.64H169.67C170.55 25.99 173.74 39.63 176.16 43.15C179.24 39.19 183.53 31.16 186.06 22.58L191.89 26.65C192.99 27.42 193.43 27.97 193.43 28.3C193.43 29.18 191.34 29.4 189.58 29.4C187.16 35.23 182.54 42.38 178.8 47C181.33 51.07 191.45 59.76 195.3 59.76C196.73 59.76 197.83 58.55 198.82 55.25L203.11 42.49L204.32 43.15L202.12 57.78C201.9 58.66 201.9 59.43 201.9 59.98C201.9 63.72 204.87 62.4 204.87 65.15C204.87 66.36 203.77 67.02 202.23 67.02C194.64 67.02 181.22 57.67 175.83 50.52C170.99 56.13 161.53 62.4 148.55 66.8L148 65.26C156.47 62.07 166.04 55.8 173.19 47C169.45 40.29 166.92 32.92 164.72 16.64H124.9V27.42H150.2L154.05 22.69L160.32 27.31C160.76 27.64 160.98 27.97 160.98 28.3C160.98 28.85 159.99 29.18 159 29.18H124.9C124.79 48.43 122.48 58.55 110.38 70.43L109.5 69.77C119.84 56.9 119.84 49.86 119.84 29.4V17.85L119.29 11.8L124.9 14.88H164.5C164.39 10.37 163.95 7.29 163.62 0.799994L171.32 2.44999C172.64 2.67 173.41 3 173.41 3.55C173.41 4.1 172.09 4.97999 169.34 5.85999L169.45 14.88ZM177.81 3L178.91 1.89999C184.52 4.31999 188.37 6.95999 189.8 9.38C190.13 10.26 190.35 10.92 190.35 11.47C190.35 12.9 189.36 13.56 188.37 13.56C187.49 13.56 186.61 13.12 186.28 12.24C183.42 7.94999 181.11 5.75 177.81 3ZM187.38 73.95L188.26 72.85C203.33 80.88 204.54 87.59 204.54 88.03C204.54 91.99 203.22 93.86 201.79 93.86C200.58 93.86 199.26 92.54 198.49 89.9C197.94 84.73 191.67 77.36 187.38 73.95ZM154.82 66.8L155.92 65.7C162.52 69 166.7 73.4 167.47 76.48C167.36 79.67 165.93 81.76 164.5 81.76C163.62 81.76 162.63 80.77 162.08 78.57C161.2 73.29 158.01 69.44 154.82 66.8ZM124.57 71.75L126 71.97C126.11 73.07 126.11 74.17 126.11 75.16C126.11 90.78 115.66 95.62 114.78 95.62C113.46 95.62 112.14 94.08 112.14 92.21C112.14 90.78 112.91 89.13 114.78 87.59C118.52 84.73 122.59 82.09 124.57 71.75ZM137.33 66.47L142.61 67.79C144.7 68.34 145.8 69 145.8 69.55C145.8 70.21 144.59 70.87 142.28 71.75V88.36C142.28 91.77 145.36 92.54 148.88 92.43H165.05C170.77 92.43 173.08 91.55 174.4 87.7L178.8 72.96L180.34 73.18L178.58 88.8C178.69 91.55 182.1 90.23 182.1 93.2C182.1 95.4 177.04 96.28 170.44 96.28H146.57C141.95 96.5 137.33 94.74 137.33 89.79V66.47Z"/>
</mask>
<path d="M31.18 29.51V8.72L30.63 3.99L38 5.75C40.2 6.40999 41.08 6.85 41.08 7.39999C41.08 8.17 38.88 8.72 36.13 9.27V29.51H60.77V8.83L60.22 4.1L67.7 5.85999C69.57 6.40999 70.23 6.85 70.23 7.29C70.23 8.17 67.7 8.83 65.72 9.38V29.51H81.89L86.84 24.34L93.55 29.18C94.32 29.62 94.65 30.06 94.65 30.39C94.65 30.94 93.66 31.27 92.34 31.27H65.72V57.34H84.2L89.48 52.17L95.97 57.01C96.63 57.45 96.96 57.89 96.96 58.22C96.96 58.77 95.86 59.1 94.54 59.1H9.51L2.25 59.54L0.93 57.12L7.86 57.45H31.18V31.27H13.14L5.88 31.6L4.45 29.4L11.6 29.51H31.18ZM36.13 57.34H60.77V31.27H36.13V57.34ZM35.69 65.26L40.2 67.68C42.07 68.89 43.17 69.77 43.17 70.43C43.17 71.2 41.19 71.31 39.21 71.2C29.64 80.33 22.49 86.93 4.56 94.85L4.12 93.97C18.2 85.06 27.55 76.92 35.69 65.26ZM57.58 67.57L58.24 66.47C69.9 72.19 85.41 80.33 87.83 87.92C87.94 88.58 87.94 89.24 87.94 89.9C87.94 92.54 87.17 94.08 85.96 94.08C85.08 94.08 83.98 93.31 82.88 91.33C79.25 85.72 69.13 76.59 57.58 67.57ZM134.58 39.52H150.75L153.5 36.33L158.34 39.96C159.22 40.73 159.66 41.28 159.66 41.72C159.66 42.38 158.67 42.82 156.69 43.26V53.6C156.69 55.58 156.91 56.68 156.91 57.45C156.91 58.44 156.47 58.88 154.71 59.65C153.61 60.2 152.84 60.42 152.4 60.42C151.85 60.42 151.63 59.98 151.63 59.32C151.63 58.44 151.85 57.23 151.85 55.8H134.14C134.14 56.35 134.36 59.21 134.36 59.87C134.36 60.75 133.92 61.19 131.72 62.07C130.73 62.51 130.07 62.73 129.63 62.73C129.08 62.73 128.86 62.29 128.86 61.63C128.86 60.75 129.19 59.32 129.19 57.45V41.39L128.86 36.33L134.58 39.52ZM151.74 54.15V41.28H134.14V54.15H151.74ZM169.45 14.88H192L197.17 9.04999L203.77 14.55C204.54 14.99 204.87 15.43 204.87 15.87C204.87 16.42 204.1 16.75 203 16.64H169.67C170.55 25.99 173.74 39.63 176.16 43.15C179.24 39.19 183.53 31.16 186.06 22.58L191.89 26.65C192.99 27.42 193.43 27.97 193.43 28.3C193.43 29.18 191.34 29.4 189.58 29.4C187.16 35.23 182.54 42.38 178.8 47C181.33 51.07 191.45 59.76 195.3 59.76C196.73 59.76 197.83 58.55 198.82 55.25L203.11 42.49L204.32 43.15L202.12 57.78C201.9 58.66 201.9 59.43 201.9 59.98C201.9 63.72 204.87 62.4 204.87 65.15C204.87 66.36 203.77 67.02 202.23 67.02C194.64 67.02 181.22 57.67 175.83 50.52C170.99 56.13 161.53 62.4 148.55 66.8L148 65.26C156.47 62.07 166.04 55.8 173.19 47C169.45 40.29 166.92 32.92 164.72 16.64H124.9V27.42H150.2L154.05 22.69L160.32 27.31C160.76 27.64 160.98 27.97 160.98 28.3C160.98 28.85 159.99 29.18 159 29.18H124.9C124.79 48.43 122.48 58.55 110.38 70.43L109.5 69.77C119.84 56.9 119.84 49.86 119.84 29.4V17.85L119.29 11.8L124.9 14.88H164.5C164.39 10.37 163.95 7.29 163.62 0.799994L171.32 2.44999C172.64 2.67 173.41 3 173.41 3.55C173.41 4.1 172.09 4.97999 169.34 5.85999L169.45 14.88ZM177.81 3L178.91 1.89999C184.52 4.31999 188.37 6.95999 189.8 9.38C190.13 10.26 190.35 10.92 190.35 11.47C190.35 12.9 189.36 13.56 188.37 13.56C187.49 13.56 186.61 13.12 186.28 12.24C183.42 7.94999 181.11 5.75 177.81 3ZM187.38 73.95L188.26 72.85C203.33 80.88 204.54 87.59 204.54 88.03C204.54 91.99 203.22 93.86 201.79 93.86C200.58 93.86 199.26 92.54 198.49 89.9C197.94 84.73 191.67 77.36 187.38 73.95ZM154.82 66.8L155.92 65.7C162.52 69 166.7 73.4 167.47 76.48C167.36 79.67 165.93 81.76 164.5 81.76C163.62 81.76 162.63 80.77 162.08 78.57C161.2 73.29 158.01 69.44 154.82 66.8ZM124.57 71.75L126 71.97C126.11 73.07 126.11 74.17 126.11 75.16C126.11 90.78 115.66 95.62 114.78 95.62C113.46 95.62 112.14 94.08 112.14 92.21C112.14 90.78 112.91 89.13 114.78 87.59C118.52 84.73 122.59 82.09 124.57 71.75ZM137.33 66.47L142.61 67.79C144.7 68.34 145.8 69 145.8 69.55C145.8 70.21 144.59 70.87 142.28 71.75V88.36C142.28 91.77 145.36 92.54 148.88 92.43H165.05C170.77 92.43 173.08 91.55 174.4 87.7L178.8 72.96L180.34 73.18L178.58 88.8C178.69 91.55 182.1 90.23 182.1 93.2C182.1 95.4 177.04 96.28 170.44 96.28H146.57C141.95 96.5 137.33 94.74 137.33 89.79V66.47Z" fill="black"/>
<path d="M31.18 29.51V30.51H32.18V29.51H31.18ZM31.18 8.72H32.18V8.66205L32.1733 8.6045L31.18 8.72ZM30.63 3.99L30.8623 3.01735L29.4715 2.68523L29.6367 4.1055L30.63 3.99ZM38 5.75L38.2873 4.79217L38.26 4.78397L38.2323 4.77735L38 5.75ZM36.13 9.27L35.9339 8.28942L35.13 8.45019V9.27H36.13ZM36.13 29.51H35.13V30.51H36.13V29.51ZM60.77 29.51V30.51H61.77V29.51H60.77ZM60.77 8.83H61.77V8.77205L61.7633 8.71449L60.77 8.83ZM60.22 4.1L60.449 3.12658L59.0621 2.80025L59.2267 4.2155L60.22 4.1ZM67.7 5.85999L67.9822 4.90063L67.9558 4.89287L67.929 4.88658L67.7 5.85999ZM65.72 9.38L65.4524 8.41648L64.72 8.61991V9.38H65.72ZM65.72 29.51H64.72V30.51H65.72V29.51ZM81.89 29.51V30.51H82.317L82.6123 30.2016L81.89 29.51ZM86.84 24.34L87.425 23.529L86.7194 23.02L86.1177 23.6484L86.84 24.34ZM93.55 29.18L92.965 29.991L93.0079 30.022L93.0539 30.0482L93.55 29.18ZM65.72 31.27V30.27H64.72V31.27H65.72ZM65.72 57.34H64.72V58.34H65.72V57.34ZM84.2 57.34V58.34H84.6081L84.8996 58.0545L84.2 57.34ZM89.48 52.17L90.0778 51.3684L89.3918 50.8568L88.7804 51.4555L89.48 52.17ZM95.97 57.01L95.3722 57.8116L95.3933 57.8274L95.4153 57.842L95.97 57.01ZM9.51 59.1V58.1H9.47972L9.44951 58.1018L9.51 59.1ZM2.25 59.54L1.3721 60.0189L1.67633 60.5766L2.3105 60.5382L2.25 59.54ZM0.93 57.12L0.977566 56.1211L-0.800098 56.0365L0.0521044 57.5988L0.93 57.12ZM7.86 57.45L7.81243 58.4489L7.8362 58.45H7.86V57.45ZM31.18 57.45V58.45H32.18V57.45H31.18ZM31.18 31.27H32.18V30.27H31.18V31.27ZM13.14 31.27V30.27H13.1173L13.0946 30.271L13.14 31.27ZM5.88 31.6L5.04156 32.145L5.35354 32.625L5.92541 32.599L5.88 31.6ZM4.45 29.4L4.46538 28.4001L2.58862 28.3712L3.61156 29.945L4.45 29.4ZM11.6 29.51L11.5846 30.5099L11.5923 30.51H11.6V29.51ZM36.13 57.34H35.13V58.34H36.13V57.34ZM60.77 57.34V58.34H61.77V57.34H60.77ZM60.77 31.27H61.77V30.27H60.77V31.27ZM36.13 31.27V30.27H35.13V31.27H36.13ZM35.69 65.26L36.1628 64.3788L35.3791 63.9583L34.87 64.6876L35.69 65.26ZM40.2 67.68L40.7433 66.8404L40.7089 66.8182L40.6728 66.7988L40.2 67.68ZM39.21 71.2L39.2655 70.2015L38.8331 70.1775L38.5197 70.4765L39.21 71.2ZM4.56 94.85L3.66557 95.2972L4.09195 96.15L4.96405 95.7647L4.56 94.85ZM4.12 93.97L3.58526 93.125L2.82121 93.6085L3.22557 94.4172L4.12 93.97ZM57.58 67.57L56.7225 67.0555L56.2675 67.8138L56.9645 68.3581L57.58 67.57ZM58.24 66.47L58.6804 65.5722L57.8553 65.1675L57.3825 65.9555L58.24 66.47ZM87.83 87.92L88.8164 87.7556L88.8046 87.6847L88.7827 87.6162L87.83 87.92ZM82.88 91.33L83.7542 90.8444L83.7378 90.815L83.7196 90.7867L82.88 91.33ZM32.18 29.51V8.72H30.18V29.51H32.18ZM32.1733 8.6045L31.6233 3.8745L29.6367 4.1055L30.1867 8.8355L32.1733 8.6045ZM30.3977 4.96265L37.7677 6.72265L38.2323 4.77735L30.8623 3.01735L30.3977 4.96265ZM37.7127 6.70782C38.8114 7.03745 39.4978 7.28927 39.8982 7.50063C40.3734 7.75139 40.08 7.74748 40.08 7.39999H42.08C42.08 6.50251 41.3466 6.0036 40.8318 5.73186C40.2422 5.42072 39.3886 5.12254 38.2873 4.79217L37.7127 6.70782ZM40.08 7.39999C40.08 7.07519 40.3083 6.9929 40.1333 7.11117C39.9952 7.20452 39.7343 7.3286 39.3157 7.47028C38.4908 7.74948 37.3123 8.01373 35.9339 8.28942L36.3261 10.2506C37.6977 9.97627 38.9942 9.69052 39.9568 9.36471C40.432 9.2039 40.8929 9.01173 41.2532 8.7682C41.5767 8.5496 42.08 8.1098 42.08 7.39999H40.08ZM35.13 9.27V29.51H37.13V9.27H35.13ZM36.13 30.51H60.77V28.51H36.13V30.51ZM61.77 29.51V8.83H59.77V29.51H61.77ZM61.7633 8.71449L61.2133 3.9845L59.2267 4.2155L59.7767 8.9455L61.7633 8.71449ZM59.991 5.07341L67.471 6.83341L67.929 4.88658L60.449 3.12658L59.991 5.07341ZM67.4178 6.81936C68.3338 7.08877 68.8705 7.30893 69.1605 7.47894C69.5002 7.67805 69.23 7.63954 69.23 7.29H71.23C71.23 6.50045 70.6298 6.02194 70.172 5.75355C69.6645 5.45606 68.9362 5.18122 67.9822 4.90063L67.4178 6.81936ZM69.23 7.29C69.23 7.0056 69.4232 6.95135 69.2171 7.10061C69.0522 7.22008 68.7674 7.36565 68.3537 7.52729C67.533 7.84787 66.4666 8.13475 65.4524 8.41648L65.9876 10.3435C66.9534 10.0752 68.142 9.75713 69.0814 9.3902C69.5476 9.20809 70.0191 8.98929 70.3904 8.72032C70.7206 8.48114 71.23 8.01439 71.23 7.29H69.23ZM64.72 9.38V29.51H66.72V9.38H64.72ZM65.72 30.51H81.89V28.51H65.72V30.51ZM82.6123 30.2016L87.5623 25.0316L86.1177 23.6484L81.1677 28.8184L82.6123 30.2016ZM86.255 25.151L92.965 29.991L94.135 28.369L87.425 23.529L86.255 25.151ZM93.0539 30.0482C93.375 30.2317 93.5501 30.3855 93.6331 30.4812C93.7251 30.5874 93.65 30.5553 93.65 30.39H95.65C95.65 29.8947 95.4099 29.4776 95.1444 29.1713C94.8699 28.8545 94.495 28.5683 94.0461 28.3118L93.0539 30.0482ZM93.65 30.39C93.65 30.1939 93.7483 30.0704 93.7842 30.0362C93.8055 30.0159 93.7785 30.0487 93.6457 30.0974C93.3833 30.1936 92.9341 30.27 92.34 30.27V32.27C93.0659 32.27 93.7717 32.1814 94.3343 31.9751C94.7957 31.8059 95.65 31.3601 95.65 30.39H93.65ZM92.34 30.27H65.72V32.27H92.34V30.27ZM64.72 31.27V57.34H66.72V31.27H64.72ZM65.72 58.34H84.2V56.34H65.72V58.34ZM84.8996 58.0545L90.1796 52.8845L88.7804 51.4555L83.5004 56.6255L84.8996 58.0545ZM88.8822 52.9716L95.3722 57.8116L96.5678 56.2084L90.0778 51.3684L88.8822 52.9716ZM95.4153 57.842C95.6877 58.0236 95.849 58.1777 95.9316 58.2809C96.027 58.4002 95.96 58.3756 95.96 58.22H97.96C97.96 57.7344 97.728 57.3248 97.4934 57.0316C97.246 56.7223 96.9123 56.4364 96.5247 56.1779L95.4153 57.842ZM95.96 58.22C95.96 57.9858 96.0875 57.8557 96.109 57.837C96.1195 57.8277 96.0739 57.8676 95.9199 57.9206C95.6189 58.024 95.1328 58.1 94.54 58.1V60.1C95.2672 60.1 95.9911 60.011 96.5701 59.8119C96.8561 59.7136 97.168 59.5679 97.426 59.3421C97.695 59.1068 97.96 58.7292 97.96 58.22H95.96ZM94.54 58.1H9.51V60.1H94.54V58.1ZM9.44951 58.1018L2.18951 58.5418L2.3105 60.5382L9.5705 60.0982L9.44951 58.1018ZM3.1279 59.0611L1.8079 56.6411L0.0521044 57.5988L1.3721 60.0189L3.1279 59.0611ZM0.882435 58.1189L7.81243 58.4489L7.90757 56.4511L0.977566 56.1211L0.882435 58.1189ZM7.86 58.45H31.18V56.45H7.86V58.45ZM32.18 57.45V31.27H30.18V57.45H32.18ZM31.18 30.27H13.14V32.27H31.18V30.27ZM13.0946 30.271L5.83459 30.601L5.92541 32.599L13.1854 32.269L13.0946 30.271ZM6.71844 31.055L5.28844 28.855L3.61156 29.945L5.04156 32.145L6.71844 31.055ZM4.43462 30.3999L11.5846 30.5099L11.6154 28.5101L4.46538 28.4001L4.43462 30.3999ZM11.6 30.51H31.18V28.51H11.6V30.51ZM36.13 58.34H60.77V56.34H36.13V58.34ZM61.77 57.34V31.27H59.77V57.34H61.77ZM60.77 30.27H36.13V32.27H60.77V30.27ZM35.13 31.27V57.34H37.13V31.27H35.13ZM35.2172 66.1412L39.7272 68.5612L40.6728 66.7988L36.1628 64.3788L35.2172 66.1412ZM39.6568 68.5196C40.5864 69.1211 41.2733 69.6086 41.7206 70.0075C41.9441 70.2068 42.0742 70.3549 42.1425 70.4551C42.2144 70.5606 42.17 70.5425 42.17 70.43H44.17C44.17 69.9875 43.9881 69.6119 43.7953 69.3289C43.5989 69.0407 43.3372 68.7694 43.0519 68.515C42.4817 68.0064 41.6836 67.4489 40.7433 66.8404L39.6568 68.5196ZM42.17 70.43C42.17 70.0991 42.4132 69.9791 42.3548 70.0106C42.2904 70.0453 42.1165 70.1068 41.786 70.1558C41.1451 70.2507 40.2358 70.2554 39.2655 70.2015L39.1545 72.1985C40.1643 72.2546 41.2349 72.2593 42.0791 72.1342C42.491 72.0732 42.9358 71.9697 43.3046 71.7706C43.6793 71.5684 44.17 71.1459 44.17 70.43H42.17ZM38.5197 70.4765C28.9927 79.5655 21.9387 86.0803 4.15595 93.9353L4.96405 95.7647C23.0413 87.7797 30.2873 81.0945 39.9003 71.9235L38.5197 70.4765ZM5.45443 94.4028L5.01443 93.5228L3.22557 94.4172L3.66557 95.2972L5.45443 94.4028ZM4.65474 94.815C18.8104 85.8571 28.2725 77.632 36.51 65.8324L34.87 64.6876C26.8275 76.208 17.5896 84.2629 3.58526 93.125L4.65474 94.815ZM58.4375 68.0845L59.0975 66.9845L57.3825 65.9555L56.7225 67.0555L58.4375 68.0845ZM57.7996 67.3678C63.6274 70.2267 70.3706 73.6683 75.9514 77.3299C78.7416 79.1605 81.2146 81.029 83.1286 82.8881C85.0543 84.7586 86.3446 86.5531 86.8773 88.2238L88.7827 87.6162C88.1054 85.4919 86.5494 83.4226 84.5221 81.4535C82.4829 79.4728 79.8959 77.5258 77.0486 75.6576C71.3544 71.9217 64.5127 68.4333 58.6804 65.5722L57.7996 67.3678ZM86.8436 88.0844C86.9378 88.6494 86.94 89.2268 86.94 89.9H88.94C88.94 89.2532 88.9422 88.5106 88.8164 87.7556L86.8436 88.0844ZM86.94 89.9C86.94 91.1445 86.7553 92.021 86.5025 92.5467C86.2578 93.0558 86.0461 93.08 85.96 93.08V95.08C87.0839 95.08 87.8622 94.3342 88.305 93.4133C88.7398 92.509 88.94 91.2955 88.94 89.9H86.94ZM85.96 93.08C85.6649 93.08 84.8214 92.7655 83.7542 90.8444L82.0058 91.8156C83.1386 93.8546 84.4951 95.08 85.96 95.08V93.08ZM83.7196 90.7867C81.833 87.8711 78.3171 84.1157 73.8805 79.996C69.4264 75.86 63.9858 71.3038 58.1955 66.7819L56.9645 68.3581C62.7242 72.8562 68.1187 77.375 72.5196 81.4615C76.9379 85.5643 80.2971 89.1789 82.0404 91.8733L83.7196 90.7867ZM134.58 39.52L134.093 40.3934L134.32 40.52H134.58V39.52ZM150.75 39.52V40.52H151.208L151.507 40.1729L150.75 39.52ZM153.5 36.33L154.1 35.53L153.353 34.9694L152.743 35.6771L153.5 36.33ZM158.34 39.96L158.999 39.2074L158.97 39.1826L158.94 39.16L158.34 39.96ZM156.69 43.26L156.473 42.2838L155.69 42.4578V43.26H156.69ZM154.71 59.65L154.309 58.7338L154.286 58.7441L154.263 58.7556L154.71 59.65ZM151.85 55.8H152.85V54.8H151.85V55.8ZM134.14 55.8V54.8H133.14V55.8H134.14ZM131.72 62.07L131.349 61.1415L131.331 61.1485L131.314 61.1562L131.72 62.07ZM129.19 41.39H130.19V41.3574L130.188 41.3249L129.19 41.39ZM128.86 36.33L129.347 35.4566L127.743 34.5618L127.862 36.3951L128.86 36.33ZM151.74 54.15V55.15H152.74V54.15H151.74ZM151.74 41.28H152.74V40.28H151.74V41.28ZM134.14 41.28V40.28H133.14V41.28H134.14ZM134.14 54.15H133.14V55.15H134.14V54.15ZM169.45 14.88L168.45 14.8922L168.462 15.88H169.45V14.88ZM192 14.88V15.88H192.45L192.748 15.5435L192 14.88ZM197.17 9.04999L197.81 8.28177L197.065 7.66097L196.422 8.38651L197.17 9.04999ZM203.77 14.55L203.13 15.3182L203.197 15.3746L203.274 15.4182L203.77 14.55ZM203 16.64L203.1 15.645L203.05 15.64H203V16.64ZM169.67 16.64V15.64H168.571L168.674 16.7337L169.67 16.64ZM176.16 43.15L175.336 43.7165L176.11 44.8428L176.949 43.7639L176.16 43.15ZM186.06 22.58L186.632 21.76L185.494 20.965L185.101 22.2972L186.06 22.58ZM191.89 26.65L192.463 25.8308L192.462 25.83L191.89 26.65ZM189.58 29.4V28.4H188.912L188.656 29.0166L189.58 29.4ZM178.8 47L178.023 46.3708L177.575 46.9237L177.951 47.5279L178.8 47ZM198.82 55.25L197.872 54.9313L197.867 54.9469L197.862 54.9627L198.82 55.25ZM203.11 42.49L203.589 41.6121L202.542 41.0412L202.162 42.1713L203.11 42.49ZM204.32 43.15L205.309 43.2987L205.413 42.607L204.799 42.2721L204.32 43.15ZM202.12 57.78L203.09 58.0225L203.102 57.9761L203.109 57.9287L202.12 57.78ZM175.83 50.52L176.629 49.918L175.882 48.9283L175.073 49.8668L175.83 50.52ZM148.55 66.8L147.608 67.1363L147.939 68.0629L148.871 67.7471L148.55 66.8ZM148 65.26L147.648 64.3242L146.728 64.6706L147.058 65.5963L148 65.26ZM173.19 47L173.966 47.6306L174.393 47.1048L174.063 46.5131L173.19 47ZM164.72 16.64L165.711 16.5061L165.594 15.64H164.72V16.64ZM124.9 16.64V15.64H123.9V16.64H124.9ZM124.9 27.42H123.9V28.42H124.9V27.42ZM150.2 27.42V28.42H150.675L150.976 28.0513L150.2 27.42ZM154.05 22.69L154.643 21.8849L153.876 21.3196L153.274 22.0587L154.05 22.69ZM160.32 27.31L160.92 26.51L160.913 26.5049L160.32 27.31ZM124.9 29.18V28.18H123.906L123.9 29.1743L124.9 29.18ZM110.38 70.43L109.78 71.23L110.467 71.7456L111.081 71.1436L110.38 70.43ZM109.5 69.77L108.72 69.1437L108.073 69.9497L108.9 70.57L109.5 69.77ZM119.84 17.85H120.84V17.8046L120.836 17.7595L119.84 17.85ZM119.29 11.8L119.771 10.9234L118.124 10.019L118.294 11.8905L119.29 11.8ZM124.9 14.88L124.419 15.7566L124.644 15.88H124.9V14.88ZM164.5 14.88V15.88H165.525L165.5 14.8556L164.5 14.88ZM163.62 0.799994L163.83 -0.177808L162.555 -0.450899L162.621 0.850775L163.62 0.799994ZM171.32 2.44999L171.11 3.4278L171.133 3.43261L171.156 3.43639L171.32 2.44999ZM169.34 5.85999L169.035 4.90757L168.331 5.1329L168.34 5.87219L169.34 5.85999ZM177.81 3L177.103 2.29289L176.329 3.0672L177.17 3.76822L177.81 3ZM178.91 1.89999L179.306 0.981782L178.683 0.712932L178.203 1.19289L178.91 1.89999ZM189.8 9.38L190.736 9.02887L190.706 8.94676L190.661 8.87127L189.8 9.38ZM186.28 12.24L187.216 11.8889L187.176 11.7811L187.112 11.6853L186.28 12.24ZM187.38 73.95L186.599 73.3253L185.972 74.1086L186.758 74.7328L187.38 73.95ZM188.26 72.85L188.73 71.9675L187.998 71.5771L187.479 72.2253L188.26 72.85ZM198.49 89.9L197.496 90.0058L197.505 90.0944L197.53 90.18L198.49 89.9ZM154.82 66.8L154.113 66.0929L153.336 66.8698L154.182 67.5704L154.82 66.8ZM155.92 65.7L156.367 64.8056L155.723 64.4832L155.213 64.9929L155.92 65.7ZM167.47 76.48L168.469 76.5145L168.474 76.3739L168.44 76.2375L167.47 76.48ZM162.08 78.57L161.094 78.7344L161.1 78.7738L161.11 78.8125L162.08 78.57ZM124.57 71.75L124.722 70.7616L123.769 70.615L123.588 71.5619L124.57 71.75ZM126 71.97L126.995 71.8705L126.918 71.0995L126.152 70.9816L126 71.97ZM114.78 87.59L114.173 86.7956L114.158 86.8066L114.144 86.8181L114.78 87.59ZM137.33 66.47L137.573 65.4999L136.33 65.1892V66.47H137.33ZM142.61 67.79L142.865 66.8229L142.853 66.8199L142.61 67.79ZM142.28 71.75L141.924 70.8155L141.28 71.0608V71.75H142.28ZM148.88 92.43V91.43H148.864L148.849 91.4305L148.88 92.43ZM174.4 87.7L175.346 88.0243L175.352 88.0053L175.358 87.986L174.4 87.7ZM178.8 72.96L178.941 71.9701L178.088 71.8482L177.842 72.674L178.8 72.96ZM180.34 73.18L181.334 73.292L181.442 72.3273L180.481 72.1901L180.34 73.18ZM178.58 88.8L177.586 88.688L177.578 88.7638L177.581 88.84L178.58 88.8ZM146.57 96.28V95.28H146.546L146.522 95.2811L146.57 96.28ZM134.58 40.52H150.75V38.52H134.58V40.52ZM151.507 40.1729L154.257 36.9829L152.743 35.6771L149.993 38.8671L151.507 40.1729ZM152.9 37.13L157.74 40.76L158.94 39.16L154.1 35.53L152.9 37.13ZM157.681 40.7126C158.104 41.0824 158.375 41.3606 158.535 41.5698C158.706 41.795 158.66 41.8261 158.66 41.72H160.66C160.66 41.1739 160.394 40.71 160.125 40.3577C159.845 39.9894 159.456 39.6076 158.999 39.2074L157.681 40.7126ZM158.66 41.72C158.66 41.446 158.891 41.4677 158.47 41.6781C158.092 41.8671 157.452 42.0662 156.473 42.2838L156.907 44.2362C157.908 44.0138 158.753 43.7729 159.365 43.4669C159.934 43.1823 160.66 42.654 160.66 41.72H158.66ZM155.69 43.26V53.6H157.69V43.26H155.69ZM155.69 53.6C155.69 54.6293 155.747 55.4307 155.804 56.0673C155.863 56.7352 155.91 57.1239 155.91 57.45H157.91C157.91 57.0061 157.847 56.4598 157.796 55.8902C157.743 55.2893 157.69 54.5507 157.69 53.6H155.69ZM155.91 57.45C155.91 57.7557 155.858 57.8306 155.763 57.9254C155.581 58.1069 155.195 58.3463 154.309 58.7338L155.111 60.5662C155.985 60.1837 156.699 59.8181 157.177 59.3396C157.742 58.7744 157.91 58.1343 157.91 57.45H155.91ZM154.263 58.7556C153.188 59.2927 152.595 59.42 152.4 59.42V61.42C153.085 61.42 154.032 61.1073 155.157 60.5444L154.263 58.7556ZM152.4 59.42C152.398 59.42 152.446 59.4204 152.513 59.456C152.583 59.4929 152.628 59.543 152.65 59.5767C152.668 59.6044 152.661 59.6059 152.65 59.5574C152.64 59.5096 152.63 59.4323 152.63 59.32H150.63C150.63 59.7311 150.693 60.2315 150.968 60.6583C151.288 61.1562 151.808 61.42 152.4 61.42V59.42ZM152.63 59.32C152.63 58.9393 152.678 58.4786 152.736 57.8589C152.791 57.2624 152.85 56.5639 152.85 55.8H150.85C150.85 56.4661 150.799 57.0876 150.744 57.6736C150.692 58.2364 150.63 58.8207 150.63 59.32H152.63ZM151.85 54.8H134.14V56.8H151.85V54.8ZM133.14 55.8C133.14 56.1166 133.199 57.0191 133.252 57.8571C133.308 58.7464 133.36 59.5811 133.36 59.87H135.36C135.36 59.4989 135.302 58.5736 135.248 57.7304C135.191 56.8359 135.14 56.0333 135.14 55.8H133.14ZM133.36 59.87C133.36 60.0078 133.342 60.0562 133.336 60.0716C133.332 60.0814 133.313 60.1258 133.214 60.2107C132.971 60.4194 132.459 60.6975 131.349 61.1415L132.091 62.9985C133.181 62.5625 133.989 62.1806 134.516 61.7293C134.802 61.4841 135.031 61.1986 135.178 60.8509C135.323 60.5088 135.36 60.1722 135.36 59.87H133.36ZM131.314 61.1562C130.833 61.3699 130.458 61.5185 130.164 61.6126C129.86 61.7097 129.699 61.73 129.63 61.73V63.73C130.001 63.73 130.39 63.6403 130.774 63.5174C131.167 63.3915 131.617 63.2101 132.126 62.9838L131.314 61.1562ZM129.63 61.73C129.628 61.73 129.676 61.7304 129.743 61.766C129.813 61.8029 129.858 61.853 129.88 61.8867C129.898 61.9144 129.891 61.9159 129.88 61.8674C129.87 61.8196 129.86 61.7423 129.86 61.63H127.86C127.86 62.0411 127.923 62.5415 128.198 62.9683C128.518 63.4662 129.038 63.73 129.63 63.73V61.73ZM129.86 61.63C129.86 61.2671 129.929 60.7822 130.018 60.0281C130.102 59.3132 130.19 58.4431 130.19 57.45H128.19C128.19 58.3269 128.113 59.1068 128.032 59.7944C127.956 60.4428 127.86 61.1129 127.86 61.63H129.86ZM130.19 57.45V41.39H128.19V57.45H130.19ZM130.188 41.3249L129.858 36.2649L127.862 36.3951L128.192 41.4551L130.188 41.3249ZM128.373 37.2034L134.093 40.3934L135.067 38.6466L129.347 35.4566L128.373 37.2034ZM152.74 54.15V41.28H150.74V54.15H152.74ZM151.74 40.28H134.14V42.28H151.74V40.28ZM133.14 41.28V54.15H135.14V41.28H133.14ZM134.14 55.15H151.74V53.15H134.14V55.15ZM169.45 15.88H192V13.88H169.45V15.88ZM192.748 15.5435L197.918 9.71348L196.422 8.38651L191.252 14.2165L192.748 15.5435ZM196.53 9.81821L203.13 15.3182L204.41 13.7818L197.81 8.28177L196.53 9.81821ZM203.274 15.4182C203.597 15.6028 203.759 15.7499 203.833 15.8406C203.896 15.9181 203.87 15.9219 203.87 15.87H205.87C205.87 14.8633 205.111 14.1645 204.266 13.6818L203.274 15.4182ZM203.87 15.87C203.87 15.7556 203.916 15.6553 203.966 15.5952C204.006 15.5475 204.023 15.5542 203.963 15.5794C203.835 15.6329 203.547 15.6897 203.1 15.645L202.9 17.635C203.553 17.7003 204.2 17.6471 204.732 17.4256C205.259 17.206 205.87 16.71 205.87 15.87H203.87ZM203 15.64H169.67V17.64H203V15.64ZM168.674 16.7337C169.12 21.4649 170.146 27.2601 171.365 32.3156C171.975 34.8447 172.636 37.2028 173.302 39.1597C173.959 41.0904 174.648 42.7154 175.336 43.7165L176.984 42.5835C176.462 41.8246 175.845 40.4246 175.195 38.5156C174.555 36.6328 173.91 34.3366 173.31 31.8469C172.109 26.8649 171.1 21.1651 170.666 16.5463L168.674 16.7337ZM176.949 43.7639C180.117 39.6914 184.459 31.5449 187.019 22.8628L185.101 22.2972C182.601 30.7751 178.363 38.6886 175.371 42.5361L176.949 43.7639ZM185.488 23.4L191.318 27.47L192.462 25.83L186.632 21.76L185.488 23.4ZM191.317 27.4692C191.834 27.8316 192.152 28.1121 192.329 28.309C192.417 28.4068 192.452 28.4637 192.461 28.4804C192.472 28.5017 192.43 28.4343 192.43 28.3H194.43C194.43 27.7419 194.094 27.28 193.816 26.971C193.498 26.6179 193.046 26.2384 192.463 25.8308L191.317 27.4692ZM192.43 28.3C192.43 28.052 192.6 27.9603 192.533 28.0032C192.456 28.0532 192.274 28.1315 191.948 28.2038C191.313 28.345 190.436 28.4 189.58 28.4V30.4C190.484 30.4 191.532 30.345 192.382 30.1562C192.799 30.0635 193.249 29.9218 193.619 29.683C193.999 29.4372 194.43 28.988 194.43 28.3H192.43ZM188.656 29.0166C186.283 34.7353 181.72 41.8034 178.023 46.3708L179.577 47.6292C183.36 42.9566 188.037 35.7247 190.504 29.7834L188.656 29.0166ZM177.951 47.5279C179.307 49.7097 182.577 52.985 185.928 55.6849C187.617 57.0462 189.366 58.2933 190.956 59.2058C192.494 60.0891 194.05 60.76 195.3 60.76V58.76C194.625 58.76 193.472 58.3446 191.951 57.4714C190.481 56.6273 188.821 55.4475 187.182 54.1276C183.878 51.465 180.823 48.3603 179.649 46.4721L177.951 47.5279ZM195.3 60.76C196.361 60.76 197.265 60.2844 198.003 59.3708C198.703 58.5044 199.27 57.2289 199.778 55.5373L197.862 54.9627C197.38 56.5711 196.902 57.5506 196.447 58.1142C196.03 58.6306 195.669 58.76 195.3 58.76V60.76ZM199.768 55.5687L204.058 42.8087L202.162 42.1713L197.872 54.9313L199.768 55.5687ZM202.631 43.3679L203.841 44.0279L204.799 42.2721L203.589 41.6121L202.631 43.3679ZM203.331 43.0013L201.131 57.6313L203.109 57.9287L205.309 43.2987L203.331 43.0013ZM201.15 57.5375C200.897 58.5476 200.9 59.4263 200.9 59.98H202.9C202.9 59.4337 202.903 58.7724 203.09 58.0225L201.15 57.5375ZM200.9 59.98C200.9 61.0492 201.113 61.8652 201.516 62.5092C201.915 63.1467 202.44 63.5157 202.841 63.7754C203.29 64.0662 203.491 64.1788 203.65 64.3627C203.75 64.478 203.87 64.6687 203.87 65.15H205.87C205.87 64.2563 205.619 63.5808 205.162 63.0532C204.764 62.5943 204.223 62.2875 203.929 62.0971C203.587 61.8755 203.37 61.7014 203.212 61.4486C203.058 61.2023 202.9 60.7808 202.9 59.98H200.9ZM203.87 65.15C203.87 65.4031 203.777 65.5687 203.567 65.7105C203.318 65.879 202.875 66.02 202.23 66.02V68.02C203.125 68.02 204.002 67.831 204.688 67.367C205.413 66.8763 205.87 66.1069 205.87 65.15H203.87ZM202.23 66.02C200.517 66.02 198.393 65.4869 196.04 64.5221C193.701 63.5628 191.199 62.2029 188.75 60.6125C183.836 57.4227 179.232 53.3723 176.629 49.918L175.031 51.122C177.818 54.8177 182.619 59.0173 187.661 62.29C190.188 63.9309 192.801 65.3553 195.281 66.3726C197.749 67.3844 200.148 68.02 202.23 68.02V66.02ZM175.073 49.8668C170.385 55.3008 161.1 61.4899 148.229 65.8529L148.871 67.7471C161.96 63.3101 171.595 56.9592 176.587 51.1732L175.073 49.8668ZM149.492 66.4637L148.942 64.9237L147.058 65.5963L147.608 67.1363L149.492 66.4637ZM148.352 66.1958C156.975 62.9483 166.696 56.5784 173.966 47.6306L172.414 46.3694C165.384 55.0216 155.965 61.1917 147.648 64.3242L148.352 66.1958ZM174.063 46.5131C170.407 39.9526 167.902 32.7179 165.711 16.5061L163.729 16.7739C165.938 33.1221 168.493 40.6273 172.317 47.4869L174.063 46.5131ZM164.72 15.64H124.9V17.64H164.72V15.64ZM123.9 16.64V27.42H125.9V16.64H123.9ZM124.9 28.42H150.2V26.42H124.9V28.42ZM150.976 28.0513L154.826 23.3213L153.274 22.0587L149.424 26.7887L150.976 28.0513ZM153.457 23.4951L159.727 28.115L160.913 26.5049L154.643 21.8849L153.457 23.4951ZM159.72 28.11C159.882 28.2313 159.955 28.3177 159.983 28.3597C160.006 28.3941 159.98 28.3693 159.98 28.3H161.98C161.98 27.4934 161.445 26.9041 160.92 26.51L159.72 28.11ZM159.98 28.3C159.98 28.1084 160.074 27.991 160.103 27.9624C160.121 27.9445 160.096 27.9744 159.984 28.0202C159.762 28.1107 159.401 28.18 159 28.18V30.18C159.589 30.18 160.218 30.0843 160.739 29.8723C161.159 29.701 161.98 29.2459 161.98 28.3H159.98ZM159 28.18H124.9V30.18H159V28.18ZM123.9 29.1743C123.845 38.7772 123.239 45.9904 121.186 52.2574C119.143 58.4944 115.642 63.8623 109.679 69.7164L111.081 71.1436C117.218 65.1177 120.922 59.4856 123.087 52.8801C125.241 46.3046 125.845 38.8328 125.9 29.1857L123.9 29.1743ZM110.98 69.63L110.1 68.97L108.9 70.57L109.78 71.23L110.98 69.63ZM110.28 70.3963C115.514 63.8805 118.19 58.7648 119.525 52.6443C120.845 46.5891 120.84 39.59 120.84 29.4H118.84C118.84 39.67 118.835 46.4209 117.57 52.2182C116.32 57.9502 113.826 62.7895 108.72 69.1437L110.28 70.3963ZM120.84 29.4V17.85H118.84V29.4H120.84ZM120.836 17.7595L120.286 11.7095L118.294 11.8905L118.844 17.9405L120.836 17.7595ZM118.809 12.6766L124.419 15.7566L125.381 14.0034L119.771 10.9234L118.809 12.6766ZM124.9 15.88H164.5V13.88H124.9V15.88ZM165.5 14.8556C165.444 12.5726 165.305 10.6528 165.14 8.5058C164.974 6.35889 164.783 3.97917 164.619 0.749213L162.621 0.850775C162.787 4.11082 162.981 6.5161 163.145 8.65919C163.31 10.8022 163.446 12.6774 163.5 14.9044L165.5 14.8556ZM163.41 1.7778L171.11 3.4278L171.53 1.47219L163.83 -0.177808L163.41 1.7778ZM171.156 3.43639C171.791 3.54221 172.193 3.66064 172.413 3.77067C172.649 3.88865 172.41 3.84726 172.41 3.55H174.41C174.41 2.70274 173.786 2.22135 173.307 1.98182C172.812 1.73435 172.169 1.57778 171.484 1.4636L171.156 3.43639ZM172.41 3.55C172.41 3.29958 172.544 3.21792 172.44 3.32653C172.359 3.41012 172.192 3.54591 171.897 3.72067C171.312 4.06675 170.372 4.47972 169.035 4.90757L169.645 6.81242C171.058 6.36026 172.153 5.89324 172.916 5.44182C173.294 5.21783 173.629 4.97549 173.882 4.7119C174.111 4.47333 174.41 4.07542 174.41 3.55H172.41ZM168.34 5.87219L168.45 14.8922L170.45 14.8678L170.34 5.8478L168.34 5.87219ZM178.517 3.70711L179.617 2.6071L178.203 1.19289L177.103 2.29289L178.517 3.70711ZM178.514 2.8182C181.278 4.0106 183.582 5.24608 185.356 6.46439C187.145 7.69261 188.331 8.85885 188.939 9.88872L190.661 8.87127C189.839 7.48114 188.385 6.11738 186.489 4.81559C184.578 3.50391 182.152 2.20939 179.306 0.981782L178.514 2.8182ZM188.864 9.73112C189.208 10.6481 189.35 11.1339 189.35 11.47H191.35C191.35 10.7061 191.052 9.87189 190.736 9.02887L188.864 9.73112ZM189.35 11.47C189.35 11.9382 189.196 12.1835 189.052 12.3175C188.891 12.4663 188.65 12.56 188.37 12.56V14.56C189.08 14.56 189.829 14.3237 190.411 13.785C191.009 13.2314 191.35 12.4318 191.35 11.47H189.35ZM188.37 12.56C187.786 12.56 187.362 12.2763 187.216 11.8889L185.344 12.5911C185.858 13.9637 187.194 14.56 188.37 14.56V12.56ZM187.112 11.6853C184.182 7.29089 181.798 5.02127 178.45 2.23178L177.17 3.76822C180.422 6.47873 182.658 8.60909 185.448 12.7947L187.112 11.6853ZM188.161 74.5747L189.041 73.4747L187.479 72.2253L186.599 73.3253L188.161 74.5747ZM187.79 73.7325C195.235 77.6999 199.188 81.3048 201.27 83.9105C202.311 85.2129 202.885 86.2667 203.196 86.9947C203.523 87.7596 203.54 88.1164 203.54 88.03H205.54C205.54 87.7236 205.406 87.0767 205.035 86.2087C204.648 85.3039 203.978 84.0959 202.833 82.662C200.542 79.7952 196.355 76.0301 188.73 71.9675L187.79 73.7325ZM203.54 88.03C203.54 89.9164 203.223 91.195 202.817 91.9627C202.413 92.7279 202.007 92.86 201.79 92.86V94.86C203.003 94.86 203.972 94.0571 204.585 92.8973C205.197 91.74 205.54 90.1036 205.54 88.03H203.54ZM201.79 92.86C201.566 92.86 201.186 92.7358 200.728 92.2115C200.273 91.6917 199.807 90.8454 199.45 89.62L197.53 90.18C197.943 91.5946 198.522 92.7283 199.222 93.5285C199.919 94.3242 200.804 94.86 201.79 94.86V92.86ZM199.484 89.7942C199.18 86.9291 197.334 83.6123 195.139 80.6674C192.92 77.6892 190.22 74.9304 188.002 73.1672L186.758 74.7328C188.83 76.3796 191.41 79.0108 193.536 81.8626C195.686 84.7477 197.25 87.7009 197.496 90.0058L199.484 89.7942ZM155.527 67.5071L156.627 66.4071L155.213 64.9929L154.113 66.0929L155.527 67.5071ZM155.473 66.5944C158.693 68.2045 161.302 70.0731 163.187 71.8921C165.094 73.7326 166.18 75.4447 166.5 76.7225L168.44 76.2375C167.99 74.4353 166.601 72.4074 164.576 70.4529C162.528 68.4769 159.747 66.4955 156.367 64.8056L155.473 66.5944ZM166.471 76.4455C166.42 77.909 166.068 79.0562 165.621 79.8036C165.153 80.5875 164.706 80.76 164.5 80.76V82.76C165.724 82.76 166.707 81.8875 167.339 80.8289C167.992 79.7338 168.41 78.241 168.469 76.5145L166.471 76.4455ZM164.5 80.76C164.457 80.76 164.249 80.7347 163.941 80.3579C163.636 79.9841 163.302 79.336 163.05 78.3275L161.11 78.8125C161.408 80.004 161.844 80.9509 162.391 81.6221C162.936 82.2903 163.663 82.76 164.5 82.76V80.76ZM163.066 78.4056C162.133 72.8023 158.753 68.7565 155.458 66.0296L154.182 67.5704C157.267 70.1235 160.267 73.7777 161.094 78.7344L163.066 78.4056ZM124.418 72.7384L125.848 72.9584L126.152 70.9816L124.722 70.7616L124.418 72.7384ZM125.005 72.0695C125.109 73.1121 125.11 74.1631 125.11 75.16H127.11C127.11 74.1769 127.111 73.0279 126.995 71.8705L125.005 72.0695ZM125.11 75.16C125.11 82.726 122.586 87.6105 120.017 90.5951C118.726 92.095 117.414 93.1248 116.387 93.7745C115.873 94.0997 115.436 94.3255 115.117 94.4663C114.956 94.537 114.834 94.5823 114.752 94.6079C114.639 94.6434 114.672 94.62 114.78 94.62V96.62C114.998 96.62 115.215 96.5588 115.352 96.5158C115.521 96.4629 115.713 96.3889 115.922 96.2968C116.343 96.1118 116.867 95.8375 117.456 95.4649C118.636 94.7189 120.102 93.5625 121.533 91.8999C124.409 88.5595 127.11 83.214 127.11 75.16H125.11ZM114.78 94.62C114.511 94.62 114.113 94.451 113.746 93.9916C113.39 93.5465 113.14 92.9134 113.14 92.21H111.14C111.14 93.3766 111.55 94.4485 112.184 95.2409C112.807 96.019 113.729 96.62 114.78 96.62V94.62ZM113.14 92.21C113.14 91.158 113.707 89.7688 115.416 88.3619L114.144 86.8181C112.113 88.4912 111.14 90.402 111.14 92.21H113.14ZM115.387 88.3844C117.225 86.9794 119.303 85.5181 121.135 83.075C122.979 80.6164 124.541 77.2205 125.552 71.9381L123.588 71.5619C122.619 76.6195 121.156 79.7136 119.535 81.875C117.902 84.0519 116.075 85.3406 114.173 86.7956L115.387 88.3844ZM137.087 67.4401L142.367 68.7601L142.853 66.8199L137.573 65.4999L137.087 67.4401ZM142.356 68.7571C143.36 69.0214 144.066 69.2975 144.497 69.541C144.715 69.6637 144.82 69.7546 144.859 69.7968C144.902 69.8439 144.8 69.7574 144.8 69.55H146.8C146.8 69.0676 146.56 68.6923 146.332 68.4438C146.099 68.1904 145.799 67.9788 145.48 67.799C144.839 67.4375 143.95 67.1086 142.864 66.8229L142.356 68.7571ZM144.8 69.55C144.8 69.3884 144.878 69.3268 144.827 69.3845C144.772 69.4464 144.644 69.5576 144.389 69.7118C143.88 70.0193 143.073 70.3779 141.924 70.8155L142.636 72.6845C143.797 72.2421 144.75 71.8307 145.424 71.4232C145.76 71.2199 146.079 70.9874 146.323 70.7123C146.57 70.4332 146.8 70.0416 146.8 69.55H144.8ZM141.28 71.75V88.36H143.28V71.75H141.28ZM141.28 88.36C141.28 89.3672 141.509 90.2454 141.968 90.98C142.427 91.7137 143.075 92.2406 143.813 92.6094C145.251 93.3286 147.107 93.4859 148.911 93.4295L148.849 91.4305C147.133 91.4841 145.689 91.3114 144.707 90.8206C144.235 90.5844 143.893 90.2863 143.664 89.92C143.436 89.5546 143.28 89.0578 143.28 88.36H141.28ZM148.88 93.43H165.05V91.43H148.88V93.43ZM165.05 93.43C167.917 93.43 170.128 93.2183 171.809 92.4099C173.579 91.5583 174.629 90.1161 175.346 88.0243L173.454 87.3757C172.851 89.1339 172.086 90.0567 170.941 90.6076C169.707 91.2017 167.903 91.43 165.05 91.43V93.43ZM175.358 87.986L179.758 73.246L177.842 72.674L173.442 87.414L175.358 87.986ZM178.659 73.9499L180.199 74.1699L180.481 72.1901L178.941 71.9701L178.659 73.9499ZM179.346 73.068L177.586 88.688L179.574 88.912L181.334 73.292L179.346 73.068ZM177.581 88.84C177.618 89.7727 177.954 90.4625 178.498 90.9648C178.98 91.4094 179.589 91.6597 179.975 91.8313C180.429 92.033 180.677 92.1633 180.842 92.3366C180.959 92.4596 181.1 92.6733 181.1 93.2H183.1C183.1 92.2417 182.814 91.5067 182.289 90.9559C181.811 90.4554 181.2 90.187 180.787 90.0037C180.307 89.7903 180.043 89.6693 179.855 89.4952C179.729 89.3787 179.597 89.2023 179.579 88.76L177.581 88.84ZM181.1 93.2C181.1 93.3003 181.063 93.4981 180.645 93.7819C180.213 94.0746 179.51 94.3561 178.515 94.5919C176.537 95.0602 173.713 95.28 170.44 95.28V97.28C173.767 97.28 176.773 97.0598 178.975 96.5381C180.07 96.2789 181.044 95.9279 181.768 95.4369C182.505 94.9369 183.1 94.1997 183.1 93.2H181.1ZM170.44 95.28H146.57V97.28H170.44V95.28ZM146.522 95.2811C144.33 95.3855 142.236 95.0116 140.729 94.1145C139.279 93.2512 138.33 91.8891 138.33 89.79H136.33C136.33 92.6409 137.691 94.6338 139.706 95.833C141.664 96.9984 144.19 97.3945 146.618 97.2789L146.522 95.2811ZM138.33 89.79V66.47H136.33V89.79H138.33Z" fill="black" mask="url(#path-1-outside-1_799_53)"/>
</svg>
