<svg width="31" height="31" viewBox="0 0 31 31" fill="none" xmlns="http://www.w3.org/2000/svg">
<g clip-path="url(#clip0_1251_101)">
<path fill-rule="evenodd" clip-rule="evenodd" d="M10.7092 6.73863H13.8668L18.4072 21.9503H15.6646L14.5352 17.6173H10.11L8.9576 21.9503H6.53757L10.7093 7.45315L10.7092 6.73863ZM13.9129 15.3817L12.3456 8.95116L10.7323 15.3815L13.9129 15.3817ZM23.1091 10.6454H20.6199V21.9503H23.1091V10.6454ZM21.8323 6.25334C21.0259 6.25334 20.3722 6.89954 20.3722 7.69671C20.3722 8.49387 21.0259 9.14013 21.8323 9.14013C22.6387 9.14013 23.2925 8.49393 23.2925 7.69677C23.2925 6.8996 22.6388 6.25334 21.8323 6.25334ZM30.8353 30.6561H0.523438V0.344238H30.8353V30.6561Z" fill="black" fill-opacity="0.7"/>
</g>
<defs>
<clipPath id="clip0_1251_101">
<rect width="30.3119" height="30.3119" fill="white" transform="translate(0.523438 0.344238)"/>
</clipPath>
</defs>
</svg>
