<svg width="1000" height="328" viewBox="0 0 1000 328" fill="none" xmlns="http://www.w3.org/2000/svg">
<path d="M68.5631 324.6L67.5673 324.691L67.6504 325.6H68.5631V324.6ZM43.8131 54.15L44.809 54.0588L44.8078 54.0471L43.8131 54.15ZM41.1131 32.55L40.1253 32.7059L41.1131 32.55ZM33.0131 19.05L32.4217 19.8564L33.0131 19.05ZM9.16309 12.3L9.26778 11.3055L9.16309 12.3ZM0.613087 11.4L-0.339336 11.0952L-0.713932 12.2658L0.508404 12.3945L0.613087 11.4ZM4.21309 0.149979L4.23466 -0.849792L3.48821 -0.865906L3.26067 -0.1548L4.21309 0.149979ZM66.7631 1.49998L66.7415 2.49976L66.7641 2.50024L66.7867 2.49971L66.7631 1.49998ZM123.913 0.149979L124.866 0.454742L125.294 -0.882919L123.889 -0.849747L123.913 0.149979ZM120.313 11.4L120.477 12.3864L121.079 12.2861L121.266 11.7048L120.313 11.4ZM114.913 12.3L115.055 13.2899L115.066 13.2883L115.077 13.2864L114.913 12.3ZM96.4631 16.8L96.7642 17.7536L96.7789 17.7489L96.7934 17.7438L96.4631 16.8ZM82.5131 26.25L81.7322 25.6253L81.7268 25.6322L82.5131 26.25ZM78.4631 45.15L77.4656 45.2212L77.4662 45.2294L77.4669 45.2376L78.4631 45.15ZM97.8131 265.2L96.8169 265.288L97.0978 268.482L98.6824 265.694L97.8131 265.2ZM209.863 68.1L210.732 68.5942L210.737 68.5856L209.863 68.1ZM217.963 51.45L218.885 51.838L218.888 51.8297L218.892 51.8214L217.963 51.45ZM216.613 22.2L215.85 22.8459L215.863 22.8611L215.876 22.8757L216.613 22.2ZM198.613 14.55L198.457 15.5377L198.467 15.5393L198.476 15.5406L198.613 14.55ZM181.513 11.85L180.525 11.6979L180.373 12.6824L181.357 12.8378L181.513 11.85ZM183.313 0.149979L183.424 -0.843918L182.471 -0.949799L182.325 -0.00209045L183.313 0.149979ZM195.463 1.49998L195.591 0.508209L195.582 0.50708L195.574 0.506104L195.463 1.49998ZM217.963 6.89999L217.575 7.82162L217.596 7.83046L217.617 7.83833L217.963 6.89999ZM231.013 15.45L230.245 16.0902L230.879 16.8515L231.646 16.224L231.013 15.45ZM252.613 4.64999L252.396 3.67378L252.388 3.6756L252.613 4.64999ZM278.713 1.04999L278.777 2.04796L278.787 2.04726L278.713 1.04999ZM290.863 0.149979L291.862 0.1884L291.905 -0.929977L290.789 -0.84729L290.863 0.149979ZM290.413 11.85L290.513 12.845L291.379 12.7584L291.412 11.8884L290.413 11.85ZM272.413 13.65L272.494 14.6467L272.503 14.646L272.513 14.645L272.413 13.65ZM245.413 23.1L244.797 22.3125L244.788 22.3192L244.78 22.326L245.413 23.1ZM235.513 51.9H234.513V51.999L234.533 52.0961L235.513 51.9ZM236.413 56.85L237.405 56.721L237.402 56.7033L237.399 56.6856L236.413 56.85ZM263.863 267.9L262.871 268.029L263.26 271.016L264.735 268.39L263.863 267.9ZM388.963 45.15L389.835 45.6397L389.843 45.6262L389.85 45.6125L388.963 45.15ZM363.313 12.3L363.371 11.3017L363.367 11.3014L363.313 12.3ZM346.663 11.4L345.711 11.0952L345.316 12.3286L346.609 12.3985L346.663 11.4ZM350.263 0.149979L350.285 -0.849792L349.538 -0.866135L349.311 -0.1548L350.263 0.149979ZM411.913 1.49998L411.891 2.49974L411.914 2.50026L411.938 2.49968L411.913 1.49998ZM466.813 0.149979L467.766 0.454742L468.194 -0.884293L466.789 -0.849731L466.813 0.149979ZM463.213 11.4L463.308 12.3955L463.964 12.3329L464.166 11.7048L463.213 11.4ZM453.763 12.3L453.849 13.2964L453.858 13.2955L453.763 12.3ZM428.563 18.6L429.01 19.4944L429.019 19.4902L429.027 19.4858L428.563 18.6ZM400.663 51.9L399.795 51.4038L399.791 51.4107L400.663 51.9ZM247.663 324.6V325.6H248.249L248.535 325.089L247.663 324.6ZM235.963 324.6L234.971 324.725L235.082 325.6H235.963V324.6ZM207.613 100.5L208.605 100.374L208.228 97.3937L206.744 100.006L207.613 100.5ZM80.2631 324.6V325.6H80.845L81.1325 325.094L80.2631 324.6ZM69.5589 324.509L44.8089 54.0588L42.8173 54.2411L67.5673 324.691L69.5589 324.509ZM44.8078 54.0471C43.9068 45.3374 43.0047 38.1181 42.1009 32.394L40.1253 32.7059C41.0215 38.3818 41.9194 45.5626 42.8184 54.2529L44.8078 54.0471ZM42.1009 32.394C41.1613 26.4433 38.3252 21.7055 33.6045 18.2436L32.4217 19.8564C36.701 22.9945 39.2649 27.2567 40.1253 32.7059L42.1009 32.394ZM33.6045 18.2436C28.8761 14.7761 20.6943 12.5083 9.26778 11.3055L9.0584 13.2945C20.4319 14.4917 28.1501 16.7238 32.4217 19.8564L33.6045 18.2436ZM9.26778 11.3055L0.71777 10.4055L0.508404 12.3945L9.05841 13.2945L9.26778 11.3055ZM1.56551 11.7048L5.16551 0.454742L3.26067 -0.1548L-0.339336 11.0952L1.56551 11.7048ZM4.19151 1.14973L66.7415 2.49976L66.7847 0.500214L4.23466 -0.849792L4.19151 1.14973ZM66.7867 2.49971L123.937 1.14969L123.889 -0.849747L66.7395 0.500259L66.7867 2.49971ZM122.961 -0.1548L119.361 11.0952L121.266 11.7048L124.866 0.454742L122.961 -0.1548ZM120.149 10.4136L114.749 11.3136L115.077 13.2864L120.477 12.3864L120.149 10.4136ZM114.772 11.31C108.407 12.2192 102.194 13.7346 96.1327 15.8561L96.7934 17.7438C102.732 15.6653 108.819 14.1808 115.055 13.2899L114.772 11.31ZM96.162 15.8464C90.2804 17.7037 85.4608 20.9646 81.7322 25.6253L83.294 26.8747C86.7654 22.5354 91.2457 19.4962 96.7642 17.7536L96.162 15.8464ZM81.7268 25.6322C78.2056 30.1136 76.8577 36.7098 77.4656 45.2212L79.4606 45.0787C78.8685 36.7902 80.2206 30.7863 83.2994 26.8678L81.7268 25.6322ZM77.4669 45.2376L96.8169 265.288L98.8092 265.112L79.4592 45.0624L77.4669 45.2376ZM98.6824 265.694L210.732 68.5942L208.994 67.6058L96.9438 264.706L98.6824 265.694ZM210.737 68.5856C213.755 63.1539 216.471 57.5714 218.885 51.838L217.041 51.0619C214.655 56.7286 211.971 62.246 208.989 67.6143L210.737 68.5856ZM218.892 51.8214C221.323 45.7417 222.563 40.2129 222.563 35.25H220.563C220.563 39.887 219.403 45.1582 217.035 51.0786L218.892 51.8214ZM222.563 35.25C222.563 29.912 220.827 25.3175 217.35 21.5243L215.876 22.8757C218.999 26.2825 220.563 30.388 220.563 35.25H222.563ZM217.376 21.554C213.837 17.3705 207.533 14.7708 198.75 13.5594L198.476 15.5406C207.094 16.7292 212.79 19.2295 215.85 22.8459L217.376 21.554ZM198.769 13.5622L181.669 10.8622L181.357 12.8378L198.457 15.5377L198.769 13.5622ZM182.501 12.002L184.301 0.302032L182.325 -0.00209045L180.525 11.6979L182.501 12.002ZM183.203 1.14386L195.353 2.49387L195.574 0.506104L183.424 -0.843918L183.203 1.14386ZM195.335 2.49176C204.587 3.68552 211.989 5.4697 217.575 7.82162L218.351 5.97836C212.537 3.53029 204.94 1.71446 195.591 0.508209L195.335 2.49176ZM217.617 7.83833C223.2 9.89523 227.386 12.6591 230.245 16.0902L231.781 14.8098C228.641 11.0408 224.126 8.10474 218.309 5.96165L217.617 7.83833ZM231.646 16.224C238.135 10.9147 245.197 7.38759 252.838 5.62439L252.388 3.6756C244.429 5.51239 237.091 9.18524 230.38 14.676L231.646 16.224ZM252.83 5.62619C260.874 3.83859 269.523 2.64499 278.777 2.04791L278.649 0.052063C269.304 0.654968 260.552 1.86137 252.396 3.67381L252.83 5.62619ZM278.787 2.04726L290.937 1.14725L290.789 -0.84729L278.639 0.0527191L278.787 2.04726ZM289.864 0.111542L289.414 11.8116L291.412 11.8884L291.862 0.1884L289.864 0.111542ZM290.314 10.8549L272.314 12.655L272.513 14.645L290.513 12.845L290.314 10.8549ZM272.332 12.6533C261.09 13.5648 251.888 16.763 244.797 22.3125L246.029 23.8875C252.738 18.637 261.536 15.5352 272.494 14.6467L272.332 12.6533ZM244.78 22.326C237.895 27.9594 234.513 36.2262 234.513 46.95H236.513C236.513 36.6738 239.732 29.0405 246.046 23.8739L244.78 22.326ZM234.513 46.95C234.513 46.9529 234.513 46.9558 234.513 46.9588C234.513 46.9617 234.513 46.9646 234.513 46.9676C234.513 46.9705 234.513 46.9734 234.513 46.9764C234.513 46.9793 234.513 46.9822 234.513 46.9852C234.513 46.9881 234.513 46.991 234.513 46.994C234.513 46.9969 234.513 46.9998 234.513 47.0028C234.513 47.0057 234.513 47.0087 234.513 47.0116C234.513 47.0145 234.513 47.0175 234.513 47.0204C234.513 47.0233 234.513 47.0263 234.513 47.0292C234.513 47.0322 234.513 47.0351 234.513 47.0381C234.513 47.041 234.513 47.0439 234.513 47.0469C234.513 47.0498 234.513 47.0528 234.513 47.0557C234.513 47.0586 234.513 47.0616 234.513 47.0645C234.513 47.0675 234.513 47.0704 234.513 47.0734C234.513 47.0763 234.513 47.0793 234.513 47.0822C234.513 47.0852 234.513 47.0881 234.513 47.091C234.513 47.094 234.513 47.097 234.513 47.0999C234.513 47.1028 234.513 47.1058 234.513 47.1087C234.513 47.1117 234.513 47.1147 234.513 47.1176C234.513 47.1205 234.513 47.1235 234.513 47.1264C234.513 47.1294 234.513 47.1324 234.513 47.1353C234.513 47.1383 234.513 47.1412 234.513 47.1442C234.513 47.1471 234.513 47.1501 234.513 47.153C234.513 47.156 234.513 47.159 234.513 47.1619C234.513 47.1649 234.513 47.1678 234.513 47.1708C234.513 47.1738 234.513 47.1767 234.513 47.1797C234.513 47.1826 234.513 47.1856 234.513 47.1885C234.513 47.1915 234.513 47.1945 234.513 47.1974C234.513 47.2004 234.513 47.2034 234.513 47.2063C234.513 47.2093 234.513 47.2122 234.513 47.2152C234.513 47.2182 234.513 47.2211 234.513 47.2241C234.513 47.2271 234.513 47.23 234.513 47.233C234.513 47.236 234.513 47.2389 234.513 47.2419C234.513 47.2449 234.513 47.2478 234.513 47.2508C234.513 47.2538 234.513 47.2567 234.513 47.2597C234.513 47.2627 234.513 47.2656 234.513 47.2686C234.513 47.2716 234.513 47.2746 234.513 47.2775C234.513 47.2805 234.513 47.2835 234.513 47.2865C234.513 47.2894 234.513 47.2924 234.513 47.2954C234.513 47.2983 234.513 47.3013 234.513 47.3043C234.513 47.3073 234.513 47.3102 234.513 47.3132C234.513 47.3162 234.513 47.3192 234.513 47.3222C234.513 47.3251 234.513 47.3281 234.513 47.3311C234.513 47.3341 234.513 47.3371 234.513 47.34C234.513 47.343 234.513 47.346 234.513 47.349C234.513 47.352 234.513 47.3549 234.513 47.3579C234.513 47.3609 234.513 47.3639 234.513 47.3669C234.513 47.3698 234.513 47.3728 234.513 47.3758C234.513 47.3788 234.513 47.3818 234.513 47.3848C234.513 47.3878 234.513 47.3907 234.513 47.3937C234.513 47.3967 234.513 47.3997 234.513 47.4027C234.513 47.4057 234.513 47.4087 234.513 47.4117C234.513 47.4146 234.513 47.4176 234.513 47.4206C234.513 47.4236 234.513 47.4266 234.513 47.4296C234.513 47.4326 234.513 47.4356 234.513 47.4386C234.513 47.4416 234.513 47.4446 234.513 47.4476C234.513 47.4505 234.513 47.4536 234.513 47.4565C234.513 47.4595 234.513 47.4625 234.513 47.4655C234.513 47.4685 234.513 47.4715 234.513 47.4745C234.513 47.4775 234.513 47.4805 234.513 47.4835C234.513 47.4865 234.513 47.4895 234.513 47.4925C234.513 47.4955 234.513 47.4985 234.513 47.5015C234.513 47.5045 234.513 47.5075 234.513 47.5105C234.513 47.5135 234.513 47.5165 234.513 47.5195C234.513 47.5225 234.513 47.5255 234.513 47.5285C234.513 47.5315 234.513 47.5345 234.513 47.5375C234.513 47.5405 234.513 47.5435 234.513 47.5466C234.513 47.5496 234.513 47.5526 234.513 47.5556C234.513 47.5586 234.513 47.5616 234.513 47.5646C234.513 47.5676 234.513 47.5706 234.513 47.5736C234.513 47.5766 234.513 47.5797 234.513 47.5827C234.513 47.5857 234.513 47.5887 234.513 47.5917C234.513 47.5947 234.513 47.5977 234.513 47.6007C234.513 47.6037 234.513 47.6068 234.513 47.6098C234.513 47.6128 234.513 47.6158 234.513 47.6188C234.513 47.6218 234.513 47.6248 234.513 47.6279C234.513 47.6309 234.513 47.6339 234.513 47.6369C234.513 47.6399 234.513 47.643 234.513 47.646C234.513 47.649 234.513 47.652 234.513 47.655C234.513 47.6581 234.513 47.6611 234.513 47.6641C234.513 47.6671 234.513 47.6701 234.513 47.6732C234.513 47.6762 234.513 47.6792 234.513 47.6822C234.513 47.6853 234.513 47.6883 234.513 47.6913C234.513 47.6943 234.513 47.6974 234.513 47.7004C234.513 47.7034 234.513 47.7064 234.513 47.7095C234.513 47.7125 234.513 47.7155 234.513 47.7185C234.513 47.7216 234.513 47.7246 234.513 47.7276C234.513 47.7307 234.513 47.7337 234.513 47.7367C234.513 47.7397 234.513 47.7428 234.513 47.7458C234.513 47.7488 234.513 47.7519 234.513 47.7549C234.513 47.7579 234.513 47.761 234.513 47.764C234.513 47.767 234.513 47.7701 234.513 47.7731C234.513 47.7761 234.513 47.7792 234.513 47.7822C234.513 47.7852 234.513 47.7883 234.513 47.7913C234.513 47.7944 234.513 47.7974 234.513 47.8004C234.513 47.8035 234.513 47.8065 234.513 47.8096C234.513 47.8126 234.513 47.8156 234.513 47.8187C234.513 47.8217 234.513 47.8248 234.513 47.8278C234.513 47.8308 234.513 47.8339 234.513 47.8369C234.513 47.84 234.513 47.843 234.513 47.8461C234.513 47.8491 234.513 47.8521 234.513 47.8552C234.513 47.8582 234.513 47.8613 234.513 47.8643C234.513 47.8674 234.513 47.8704 234.513 47.8735C234.513 47.8765 234.513 47.8796 234.513 47.8826C234.513 47.8857 234.513 47.8887 234.513 47.8918C234.513 47.8948 234.513 47.8979 234.513 47.9009C234.513 47.904 234.513 47.907 234.513 47.9101C234.513 47.9131 234.513 47.9162 234.513 47.9192C234.513 47.9223 234.513 47.9253 234.513 47.9284C234.513 47.9314 234.513 47.9345 234.513 47.9376C234.513 47.9406 234.513 47.9437 234.513 47.9467C234.513 47.9498 234.513 47.9528 234.513 47.9559C234.513 47.959 234.513 47.962 234.513 47.9651C234.513 47.9681 234.513 47.9712 234.513 47.9742C234.513 47.9773 234.513 47.9804 234.513 47.9834C234.513 47.9865 234.513 47.9895 234.513 47.9926C234.513 47.9957 234.513 47.9987 234.513 48.0018C234.513 48.0049 234.513 48.0079 234.513 48.011C234.513 48.0141 234.513 48.0171 234.513 48.0202C234.513 48.0233 234.513 48.0263 234.513 48.0294C234.513 48.0325 234.513 48.0355 234.513 48.0386C234.513 48.0417 234.513 48.0447 234.513 48.0478C234.513 48.0509 234.513 48.0539 234.513 48.057C234.513 48.0601 234.513 48.0632 234.513 48.0662C234.513 48.0693 234.513 48.0724 234.513 48.0754C234.513 48.0785 234.513 48.0816 234.513 48.0847C234.513 48.0877 234.513 48.0908 234.513 48.0939C234.513 48.097 234.513 48.1 234.513 48.1031C234.513 48.1062 234.513 48.1093 234.513 48.1123C234.513 48.1154 234.513 48.1185 234.513 48.1216C234.513 48.1246 234.513 48.1277 234.513 48.1308C234.513 48.1339 234.513 48.137 234.513 48.1401C234.513 48.1431 234.513 48.1462 234.513 48.1493C234.513 48.1524 234.513 48.1555 234.513 48.1585C234.513 48.1616 234.513 48.1647 234.513 48.1678C234.513 48.1709 234.513 48.174 234.513 48.177C234.513 48.1801 234.513 48.1832 234.513 48.1863C234.513 48.1894 234.513 48.1925 234.513 48.1956C234.513 48.1987 234.513 48.2017 234.513 48.2048C234.513 48.2079 234.513 48.211 234.513 48.2141C234.513 48.2172 234.513 48.2203 234.513 48.2234C234.513 48.2265 234.513 48.2296 234.513 48.2327C234.513 48.2357 234.513 48.2388 234.513 48.2419C234.513 48.245 234.513 48.2481 234.513 48.2512C234.513 48.2543 234.513 48.2574 234.513 48.2605C234.513 48.2636 234.513 48.2667 234.513 48.2698C234.513 48.2729 234.513 48.276 234.513 48.2791C234.513 48.2822 234.513 48.2853 234.513 48.2884C234.513 48.2915 234.513 48.2946 234.513 48.2977C234.513 48.3008 234.513 48.3039 234.513 48.307C234.513 48.3101 234.513 48.3132 234.513 48.3163C234.513 48.3194 234.513 48.3225 234.513 48.3256C234.513 48.3287 234.513 48.3318 234.513 48.3349C234.513 48.338 234.513 48.3411 234.513 48.3442C234.513 48.3473 234.513 48.3504 234.513 48.3535C234.513 48.3566 234.513 48.3597 234.513 48.3629C234.513 48.366 234.513 48.3691 234.513 48.3722C234.513 48.3753 234.513 48.3784 234.513 48.3815C234.513 48.3846 234.513 48.3877 234.513 48.3908C234.513 48.394 234.513 48.3971 234.513 48.4002C234.513 48.4033 234.513 48.4064 234.513 48.4095C234.513 48.4126 234.513 48.4158 234.513 48.4189C234.513 48.422 234.513 48.4251 234.513 48.4282C234.513 48.4313 234.513 48.4344 234.513 48.4376C234.513 48.4407 234.513 48.4438 234.513 48.4469C234.513 48.45 234.513 48.4532 234.513 48.4563C234.513 48.4594 234.513 48.4625 234.513 48.4656C234.513 48.4688 234.513 48.4719 234.513 48.475C234.513 48.4781 234.513 48.4812 234.513 48.4844C234.513 48.4875 234.513 48.4906 234.513 48.4937C234.513 48.4969 234.513 48.5 234.513 48.5031C234.513 48.5062 234.513 48.5094 234.513 48.5125C234.513 48.5156 234.513 48.5187 234.513 48.5219C234.513 48.525 234.513 48.5281 234.513 48.5312C234.513 48.5344 234.513 48.5375 234.513 48.5406C234.513 48.5438 234.513 48.5469 234.513 48.55C234.513 48.5532 234.513 48.5563 234.513 48.5594C234.513 48.5626 234.513 48.5657 234.513 48.5688C234.513 48.572 234.513 48.5751 234.513 48.5782C234.513 48.5814 234.513 48.5845 234.513 48.5876C234.513 48.5908 234.513 48.5939 234.513 48.597C234.513 48.6002 234.513 48.6033 234.513 48.6065C234.513 48.6096 234.513 48.6127 234.513 48.6159C234.513 48.619 234.513 48.6221 234.513 48.6253C234.513 48.6284 234.513 48.6316 234.513 48.6347C234.513 48.6378 234.513 48.641 234.513 48.6441C234.513 48.6473 234.513 48.6504 234.513 48.6536C234.513 48.6567 234.513 48.6599 234.513 48.663C234.513 48.6662 234.513 48.6693 234.513 48.6724C234.513 48.6756 234.513 48.6787 234.513 48.6819C234.513 48.685 234.513 48.6882 234.513 48.6913C234.513 48.6945 234.513 48.6976 234.513 48.7008C234.513 48.7039 234.513 48.7071 234.513 48.7102C234.513 48.7134 234.513 48.7165 234.513 48.7197C234.513 48.7228 234.513 48.726 234.513 48.7291C234.513 48.7323 234.513 48.7354 234.513 48.7386C234.513 48.7417 234.513 48.7449 234.513 48.748C234.513 48.7512 234.513 48.7544 234.513 48.7575C234.513 48.7607 234.513 48.7638 234.513 48.767C234.513 48.7701 234.513 48.7733 234.513 48.7765C234.513 48.7796 234.513 48.7828 234.513 48.7859C234.513 48.7891 234.513 48.7923 234.513 48.7954C234.513 48.7986 234.513 48.8017 234.513 48.8049C234.513 48.8081 234.513 48.8112 234.513 48.8144C234.513 48.8176 234.513 48.8207 234.513 48.8239C234.513 48.827 234.513 48.8302 234.513 48.8334C234.513 48.8365 234.513 48.8397 234.513 48.8429C234.513 48.846 234.513 48.8492 234.513 48.8524C234.513 48.8555 234.513 48.8587 234.513 48.8619C234.513 48.8651 234.513 48.8682 234.513 48.8714C234.513 48.8746 234.513 48.8777 234.513 48.8809C234.513 48.8841 234.513 48.8873 234.513 48.8904C234.513 48.8936 234.513 48.8968 234.513 48.8999C234.513 48.9031 234.513 48.9063 234.513 48.9095C234.513 48.9126 234.513 48.9158 234.513 48.919C234.513 48.9222 234.513 48.9253 234.513 48.9285C234.513 48.9317 234.513 48.9349 234.513 48.938C234.513 48.9412 234.513 48.9444 234.513 48.9476C234.513 48.9508 234.513 48.9539 234.513 48.9571C234.513 48.9603 234.513 48.9635 234.513 48.9667C234.513 48.9698 234.513 48.973 234.513 48.9762C234.513 48.9794 234.513 48.9826 234.513 48.9858C234.513 48.9889 234.513 48.9921 234.513 48.9953C234.513 48.9985 234.513 49.0017 234.513 49.0049C234.513 49.0081 234.513 49.0112 234.513 49.0144C234.513 49.0176 234.513 49.0208 234.513 49.024C234.513 49.0272 234.513 49.0304 234.513 49.0336C234.513 49.0367 234.513 49.0399 234.513 49.0431C234.513 49.0463 234.513 49.0495 234.513 49.0527C234.513 49.0559 234.513 49.0591 234.513 49.0623C234.513 49.0655 234.513 49.0687 234.513 49.0719C234.513 49.0751 234.513 49.0782 234.513 49.0814C234.513 49.0846 234.513 49.0878 234.513 49.091C234.513 49.0942 234.513 49.0974 234.513 49.1006C234.513 49.1038 234.513 49.107 234.513 49.1102C234.513 49.1134 234.513 49.1166 234.513 49.1198C234.513 49.123 234.513 49.1262 234.513 49.1294C234.513 49.1326 234.513 49.1358 234.513 49.139C234.513 49.1422 234.513 49.1454 234.513 49.1486C234.513 49.1518 234.513 49.155 234.513 49.1582C234.513 49.1614 234.513 49.1646 234.513 49.1678C234.513 49.1711 234.513 49.1743 234.513 49.1775C234.513 49.1807 234.513 49.1839 234.513 49.1871C234.513 49.1903 234.513 49.1935 234.513 49.1967C234.513 49.1999 234.513 49.2031 234.513 49.2063C234.513 49.2095 234.513 49.2128 234.513 49.216C234.513 49.2192 234.513 49.2224 234.513 49.2256C234.513 49.2288 234.513 49.232 234.513 49.2352C234.513 49.2385 234.513 49.2417 234.513 49.2449C234.513 49.2481 234.513 49.2513 234.513 49.2545C234.513 49.2578 234.513 49.261 234.513 49.2642C234.513 49.2674 234.513 49.2706 234.513 49.2738C234.513 49.2771 234.513 49.2803 234.513 49.2835C234.513 49.2867 234.513 49.2899 234.513 49.2932C234.513 49.2964 234.513 49.2996 234.513 49.3028C234.513 49.306 234.513 49.3093 234.513 49.3125C234.513 49.3157 234.513 49.3189 234.513 49.3222C234.513 49.3254 234.513 49.3286 234.513 49.3318C234.513 49.3351 234.513 49.3383 234.513 49.3415C234.513 49.3447 234.513 49.348 234.513 49.3512C234.513 49.3544 234.513 49.3576 234.513 49.3609C234.513 49.3641 234.513 49.3673 234.513 49.3706C234.513 49.3738 234.513 49.377 234.513 49.3802C234.513 49.3835 234.513 49.3867 234.513 49.3899C234.513 49.3932 234.513 49.3964 234.513 49.3996C234.513 49.4029 234.513 49.4061 234.513 49.4093C234.513 49.4126 234.513 49.4158 234.513 49.419C234.513 49.4223 234.513 49.4255 234.513 49.4287C234.513 49.432 234.513 49.4352 234.513 49.4385C234.513 49.4417 234.513 49.4449 234.513 49.4482C234.513 49.4514 234.513 49.4547 234.513 49.4579C234.513 49.4611 234.513 49.4644 234.513 49.4676C234.513 49.4709 234.513 49.4741 234.513 49.4773C234.513 49.4806 234.513 49.4838 234.513 49.4871C234.513 49.4903 234.513 49.4935 234.513 49.4968C234.513 49.5 234.513 49.5033 234.513 49.5065C234.513 49.5098 234.513 49.513 234.513 49.5163C234.513 49.5195 234.513 49.5228 234.513 49.526C234.513 49.5293 234.513 49.5325 234.513 49.5358C234.513 49.539 234.513 49.5423 234.513 49.5455C234.513 49.5488 234.513 49.552 234.513 49.5553C234.513 49.5585 234.513 49.5618 234.513 49.565C234.513 49.5683 234.513 49.5715 234.513 49.5748C234.513 49.578 234.513 49.5813 234.513 49.5845C234.513 49.5878 234.513 49.591 234.513 49.5943C234.513 49.5975 234.513 49.6008 234.513 49.6041C234.513 49.6073 234.513 49.6106 234.513 49.6138C234.513 49.6171 234.513 49.6204 234.513 49.6236C234.513 49.6269 234.513 49.6301 234.513 49.6334C234.513 49.6367 234.513 49.6399 234.513 49.6432C234.513 49.6464 234.513 49.6497 234.513 49.653C234.513 49.6562 234.513 49.6595 234.513 49.6628C234.513 49.666 234.513 49.6693 234.513 49.6725C234.513 49.6758 234.513 49.6791 234.513 49.6823C234.513 49.6856 234.513 49.6889 234.513 49.6921C234.513 49.6954 234.513 49.6987 234.513 49.702C234.513 49.7052 234.513 49.7085 234.513 49.7118C234.513 49.715 234.513 49.7183 234.513 49.7216C234.513 49.7248 234.513 49.7281 234.513 49.7314C234.513 49.7346 234.513 49.7379 234.513 49.7412C234.513 49.7445 234.513 49.7477 234.513 49.751C234.513 49.7543 234.513 49.7576 234.513 49.7608C234.513 49.7641 234.513 49.7674 234.513 49.7707C234.513 49.7739 234.513 49.7772 234.513 49.7805C234.513 49.7838 234.513 49.7871 234.513 49.7903C234.513 49.7936 234.513 49.7969 234.513 49.8002C234.513 49.8035 234.513 49.8067 234.513 49.81C234.513 49.8133 234.513 49.8166 234.513 49.8199C234.513 49.8231 234.513 49.8264 234.513 49.8297C234.513 49.833 234.513 49.8363 234.513 49.8396C234.513 49.8428 234.513 49.8461 234.513 49.8494C234.513 49.8527 234.513 49.856 234.513 49.8593C234.513 49.8626 234.513 49.8658 234.513 49.8691C234.513 49.8724 234.513 49.8757 234.513 49.879C234.513 49.8823 234.513 49.8856 234.513 49.8889C234.513 49.8922 234.513 49.8954 234.513 49.8987C234.513 49.902 234.513 49.9053 234.513 49.9086C234.513 49.9119 234.513 49.9152 234.513 49.9185C234.513 49.9218 234.513 49.9251 234.513 49.9284C234.513 49.9317 234.513 49.935 234.513 49.9383C234.513 49.9416 234.513 49.9449 234.513 49.9482C234.513 49.9514 234.513 49.9547 234.513 49.9581C234.513 49.9613 234.513 49.9646 234.513 49.9679C234.513 49.9712 234.513 49.9745 234.513 49.9778C234.513 49.9811 234.513 49.9845 234.513 49.9877C234.513 49.991 234.513 49.9944 234.513 49.9977C234.513 50.001 234.513 50.0043 234.513 50.0076C234.513 50.0109 234.513 50.0142 234.513 50.0175C234.513 50.0208 234.513 50.0241 234.513 50.0274C234.513 50.0307 234.513 50.034 234.513 50.0373C234.513 50.0406 234.513 50.0439 234.513 50.0472C234.513 50.0505 234.513 50.0538 234.513 50.0572C234.513 50.0605 234.513 50.0638 234.513 50.0671C234.513 50.0704 234.513 50.0737 234.513 50.077C234.513 50.0803 234.513 50.0836 234.513 50.087C234.513 50.0903 234.513 50.0936 234.513 50.0969C234.513 50.1002 234.513 50.1035 234.513 50.1069C234.513 50.1102 234.513 50.1135 234.513 50.1168C234.513 50.1201 234.513 50.1234 234.513 50.1268C234.513 50.1301 234.513 50.1334 234.513 50.1367C234.513 50.14 234.513 50.1433 234.513 50.1467C234.513 50.15 234.513 50.1533 234.513 50.1566C234.513 50.1599 234.513 50.1633 234.513 50.1666C234.513 50.1699 234.513 50.1732 234.513 50.1766C234.513 50.1799 234.513 50.1832 234.513 50.1865C234.513 50.1898 234.513 50.1932 234.513 50.1965C234.513 50.1998 234.513 50.2032 234.513 50.2065C234.513 50.2098 234.513 50.2131 234.513 50.2165C234.513 50.2198 234.513 50.2231 234.513 50.2265C234.513 50.2298 234.513 50.2331 234.513 50.2364C234.513 50.2398 234.513 50.2431 234.513 50.2464C234.513 50.2498 234.513 50.2531 234.513 50.2564C234.513 50.2598 234.513 50.2631 234.513 50.2664C234.513 50.2698 234.513 50.2731 234.513 50.2764C234.513 50.2798 234.513 50.2831 234.513 50.2864C234.513 50.2898 234.513 50.2931 234.513 50.2964C234.513 50.2998 234.513 50.3031 234.513 50.3065C234.513 50.3098 234.513 50.3131 234.513 50.3165C234.513 50.3198 234.513 50.3232 234.513 50.3265C234.513 50.3298 234.513 50.3332 234.513 50.3365C234.513 50.3399 234.513 50.3432 234.513 50.3465C234.513 50.3499 234.513 50.3532 234.513 50.3566C234.513 50.3599 234.513 50.3633 234.513 50.3666C234.513 50.3699 234.513 50.3733 234.513 50.3766C234.513 50.38 234.513 50.3833 234.513 50.3867C234.513 50.39 234.513 50.3934 234.513 50.3967C234.513 50.4001 234.513 50.4034 234.513 50.4068C234.513 50.4101 234.513 50.4135 234.513 50.4168C234.513 50.4202 234.513 50.4235 234.513 50.4269C234.513 50.4302 234.513 50.4336 234.513 50.4369C234.513 50.4403 234.513 50.4436 234.513 50.447C234.513 50.4503 234.513 50.4537 234.513 50.4571C234.513 50.4604 234.513 50.4638 234.513 50.4671C234.513 50.4705 234.513 50.4738 234.513 50.4772C234.513 50.4806 234.513 50.4839 234.513 50.4873C234.513 50.4906 234.513 50.494 234.513 50.4974C234.513 50.5007 234.513 50.5041 234.513 50.5074C234.513 50.5108 234.513 50.5142 234.513 50.5175C234.513 50.5209 234.513 50.5242 234.513 50.5276C234.513 50.531 234.513 50.5343 234.513 50.5377C234.513 50.5411 234.513 50.5444 234.513 50.5478C234.513 50.5512 234.513 50.5545 234.513 50.5579C234.513 50.5613 234.513 50.5646 234.513 50.568C234.513 50.5714 234.513 50.5747 234.513 50.5781C234.513 50.5815 234.513 50.5848 234.513 50.5882C234.513 50.5916 234.513 50.595 234.513 50.5983C234.513 50.6017 234.513 50.6051 234.513 50.6084C234.513 50.6118 234.513 50.6152 234.513 50.6186C234.513 50.6219 234.513 50.6253 234.513 50.6287C234.513 50.6321 234.513 50.6354 234.513 50.6388C234.513 50.6422 234.513 50.6456 234.513 50.6489C234.513 50.6523 234.513 50.6557 234.513 50.6591C234.513 50.6625 234.513 50.6658 234.513 50.6692C234.513 50.6726 234.513 50.676 234.513 50.6794C234.513 50.6827 234.513 50.6861 234.513 50.6895C234.513 50.6929 234.513 50.6963 234.513 50.6996C234.513 50.703 234.513 50.7064 234.513 50.7098C234.513 50.7132 234.513 50.7166 234.513 50.7199C234.513 50.7233 234.513 50.7267 234.513 50.7301C234.513 50.7335 234.513 50.7369 234.513 50.7403C234.513 50.7437 234.513 50.747 234.513 50.7504C234.513 50.7538 234.513 50.7572 234.513 50.7606C234.513 50.764 234.513 50.7674 234.513 50.7708C234.513 50.7742 234.513 50.7775 234.513 50.7809C234.513 50.7843 234.513 50.7877 234.513 50.7911C234.513 50.7945 234.513 50.7979 234.513 50.8013C234.513 50.8047 234.513 50.8081 234.513 50.8115C234.513 50.8149 234.513 50.8183 234.513 50.8217C234.513 50.8251 234.513 50.8285 234.513 50.8319C234.513 50.8353 234.513 50.8387 234.513 50.8421C234.513 50.8455 234.513 50.8489 234.513 50.8523C234.513 50.8557 234.513 50.8591 234.513 50.8625C234.513 50.8659 234.513 50.8693 234.513 50.8727C234.513 50.8761 234.513 50.8795 234.513 50.8829C234.513 50.8863 234.513 50.8897 234.513 50.8931C234.513 50.8965 234.513 50.8999 234.513 50.9033C234.513 50.9067 234.513 50.9101 234.513 50.9135C234.513 50.9169 234.513 50.9203 234.513 50.9237C234.513 50.9272 234.513 50.9306 234.513 50.934C234.513 50.9374 234.513 50.9408 234.513 50.9442C234.513 50.9476 234.513 50.951 234.513 50.9544C234.513 50.9578 234.513 50.9613 234.513 50.9647C234.513 50.9681 234.513 50.9715 234.513 50.9749C234.513 50.9783 234.513 50.9817 234.513 50.9852C234.513 50.9886 234.513 50.992 234.513 50.9954C234.513 50.9988 234.513 51.0022 234.513 51.0056C234.513 51.0091 234.513 51.0125 234.513 51.0159C234.513 51.0193 234.513 51.0227 234.513 51.0262C234.513 51.0296 234.513 51.033 234.513 51.0364C234.513 51.0398 234.513 51.0433 234.513 51.0467C234.513 51.0501 234.513 51.0535 234.513 51.0569C234.513 51.0604 234.513 51.0638 234.513 51.0672C234.513 51.0706 234.513 51.0741 234.513 51.0775C234.513 51.0809 234.513 51.0843 234.513 51.0878C234.513 51.0912 234.513 51.0946 234.513 51.0981C234.513 51.1015 234.513 51.1049 234.513 51.1083C234.513 51.1118 234.513 51.1152 234.513 51.1186C234.513 51.1221 234.513 51.1255 234.513 51.1289C234.513 51.1323 234.513 51.1358 234.513 51.1392C234.513 51.1426 234.513 51.1461 234.513 51.1495C234.513 51.1529 234.513 51.1564 234.513 51.1598C234.513 51.1632 234.513 51.1667 234.513 51.1701C234.513 51.1735 234.513 51.177 234.513 51.1804C234.513 51.1839 234.513 51.1873 234.513 51.1907C234.513 51.1942 234.513 51.1976 234.513 51.201C234.513 51.2045 234.513 51.2079 234.513 51.2114C234.513 51.2148 234.513 51.2182 234.513 51.2217C234.513 51.2251 234.513 51.2286 234.513 51.232C234.513 51.2355 234.513 51.2389 234.513 51.2423C234.513 51.2458 234.513 51.2492 234.513 51.2527C234.513 51.2561 234.513 51.2596 234.513 51.263C234.513 51.2664 234.513 51.2699 234.513 51.2733C234.513 51.2768 234.513 51.2802 234.513 51.2837C234.513 51.2871 234.513 51.2906 234.513 51.294C234.513 51.2975 234.513 51.3009 234.513 51.3044C234.513 51.3078 234.513 51.3113 234.513 51.3147C234.513 51.3182 234.513 51.3216 234.513 51.3251C234.513 51.3286 234.513 51.332 234.513 51.3354C234.513 51.3389 234.513 51.3424 234.513 51.3458C234.513 51.3493 234.513 51.3527 234.513 51.3562C234.513 51.3596 234.513 51.3631 234.513 51.3665C234.513 51.37 234.513 51.3735 234.513 51.3769C234.513 51.3804 234.513 51.3839 234.513 51.3873C234.513 51.3908 234.513 51.3942 234.513 51.3977C234.513 51.4011 234.513 51.4046 234.513 51.4081C234.513 51.4115 234.513 51.415 234.513 51.4185C234.513 51.4219 234.513 51.4254 234.513 51.4288C234.513 51.4323 234.513 51.4358 234.513 51.4392C234.513 51.4427 234.513 51.4462 234.513 51.4496C234.513 51.4531 234.513 51.4566 234.513 51.46C234.513 51.4635 234.513 51.467 234.513 51.4704C234.513 51.4739 234.513 51.4774 234.513 51.4809C234.513 51.4843 234.513 51.4878 234.513 51.4913C234.513 51.4947 234.513 51.4982 234.513 51.5017C234.513 51.5051 234.513 51.5086 234.513 51.5121C234.513 51.5156 234.513 51.519 234.513 51.5225C234.513 51.526 234.513 51.5295 234.513 51.5329C234.513 51.5364 234.513 51.5399 234.513 51.5434C234.513 51.5468 234.513 51.5503 234.513 51.5538C234.513 51.5573 234.513 51.5608 234.513 51.5642C234.513 51.5677 234.513 51.5712 234.513 51.5747C234.513 51.5782 234.513 51.5816 234.513 51.5851C234.513 51.5886 234.513 51.5921 234.513 51.5956C234.513 51.599 234.513 51.6025 234.513 51.606C234.513 51.6095 234.513 51.613 234.513 51.6165C234.513 51.6199 234.513 51.6234 234.513 51.6269C234.513 51.6304 234.513 51.6339 234.513 51.6374C234.513 51.6409 234.513 51.6443 234.513 51.6478C234.513 51.6513 234.513 51.6548 234.513 51.6583C234.513 51.6618 234.513 51.6653 234.513 51.6688C234.513 51.6723 234.513 51.6758 234.513 51.6792C234.513 51.6827 234.513 51.6862 234.513 51.6897C234.513 51.6932 234.513 51.6967 234.513 51.7002C234.513 51.7037 234.513 51.7072 234.513 51.7107C234.513 51.7142 234.513 51.7177 234.513 51.7212C234.513 51.7247 234.513 51.7282 234.513 51.7317C234.513 51.7352 234.513 51.7387 234.513 51.7422C234.513 51.7457 234.513 51.7492 234.513 51.7527C234.513 51.7562 234.513 51.7597 234.513 51.7632C234.513 51.7667 234.513 51.7702 234.513 51.7737C234.513 51.7772 234.513 51.7807 234.513 51.7842C234.513 51.7877 234.513 51.7912 234.513 51.7947C234.513 51.7982 234.513 51.8017 234.513 51.8052C234.513 51.8087 234.513 51.8122 234.513 51.8157C234.513 51.8192 234.513 51.8227 234.513 51.8262C234.513 51.8297 234.513 51.8333 234.513 51.8368C234.513 51.8403 234.513 51.8438 234.513 51.8473C234.513 51.8508 234.513 51.8543 234.513 51.8578C234.513 51.8613 234.513 51.8648 234.513 51.8683C234.513 51.8719 234.513 51.8754 234.513 51.8789C234.513 51.8824 234.513 51.8859 234.513 51.8894C234.513 51.8929 234.513 51.8965 234.513 51.9H236.513C236.513 51.8965 236.513 51.8929 236.513 51.8894C236.513 51.8859 236.513 51.8824 236.513 51.8789C236.513 51.8754 236.513 51.8719 236.513 51.8683C236.513 51.8648 236.513 51.8613 236.513 51.8578C236.513 51.8543 236.513 51.8508 236.513 51.8473C236.513 51.8438 236.513 51.8403 236.513 51.8368C236.513 51.8333 236.513 51.8297 236.513 51.8262C236.513 51.8227 236.513 51.8192 236.513 51.8157C236.513 51.8122 236.513 51.8087 236.513 51.8052C236.513 51.8017 236.513 51.7982 236.513 51.7947C236.513 51.7912 236.513 51.7877 236.513 51.7842C236.513 51.7807 236.513 51.7772 236.513 51.7737C236.513 51.7702 236.513 51.7667 236.513 51.7632C236.513 51.7597 236.513 51.7562 236.513 51.7527C236.513 51.7492 236.513 51.7457 236.513 51.7422C236.513 51.7387 236.513 51.7352 236.513 51.7317C236.513 51.7282 236.513 51.7247 236.513 51.7212C236.513 51.7177 236.513 51.7142 236.513 51.7107C236.513 51.7072 236.513 51.7037 236.513 51.7002C236.513 51.6967 236.513 51.6932 236.513 51.6897C236.513 51.6862 236.513 51.6827 236.513 51.6792C236.513 51.6758 236.513 51.6723 236.513 51.6688C236.513 51.6653 236.513 51.6618 236.513 51.6583C236.513 51.6548 236.513 51.6513 236.513 51.6478C236.513 51.6443 236.513 51.6409 236.513 51.6374C236.513 51.6339 236.513 51.6304 236.513 51.6269C236.513 51.6234 236.513 51.6199 236.513 51.6165C236.513 51.613 236.513 51.6095 236.513 51.606C236.513 51.6025 236.513 51.599 236.513 51.5956C236.513 51.5921 236.513 51.5886 236.513 51.5851C236.513 51.5816 236.513 51.5782 236.513 51.5747C236.513 51.5712 236.513 51.5677 236.513 51.5642C236.513 51.5608 236.513 51.5573 236.513 51.5538C236.513 51.5503 236.513 51.5468 236.513 51.5434C236.513 51.5399 236.513 51.5364 236.513 51.5329C236.513 51.5295 236.513 51.526 236.513 51.5225C236.513 51.519 236.513 51.5156 236.513 51.5121C236.513 51.5086 236.513 51.5051 236.513 51.5017C236.513 51.4982 236.513 51.4947 236.513 51.4913C236.513 51.4878 236.513 51.4843 236.513 51.4809C236.513 51.4774 236.513 51.4739 236.513 51.4704C236.513 51.467 236.513 51.4635 236.513 51.46C236.513 51.4566 236.513 51.4531 236.513 51.4496C236.513 51.4462 236.513 51.4427 236.513 51.4392C236.513 51.4358 236.513 51.4323 236.513 51.4288C236.513 51.4254 236.513 51.4219 236.513 51.4185C236.513 51.415 236.513 51.4115 236.513 51.4081C236.513 51.4046 236.513 51.4011 236.513 51.3977C236.513 51.3942 236.513 51.3908 236.513 51.3873C236.513 51.3839 236.513 51.3804 236.513 51.3769C236.513 51.3735 236.513 51.37 236.513 51.3665C236.513 51.3631 236.513 51.3596 236.513 51.3562C236.513 51.3527 236.513 51.3493 236.513 51.3458C236.513 51.3424 236.513 51.3389 236.513 51.3354C236.513 51.332 236.513 51.3286 236.513 51.3251C236.513 51.3216 236.513 51.3182 236.513 51.3147C236.513 51.3113 236.513 51.3078 236.513 51.3044C236.513 51.3009 236.513 51.2975 236.513 51.294C236.513 51.2906 236.513 51.2871 236.513 51.2837C236.513 51.2802 236.513 51.2768 236.513 51.2733C236.513 51.2699 236.513 51.2664 236.513 51.263C236.513 51.2596 236.513 51.2561 236.513 51.2527C236.513 51.2492 236.513 51.2458 236.513 51.2423C236.513 51.2389 236.513 51.2355 236.513 51.232C236.513 51.2286 236.513 51.2251 236.513 51.2217C236.513 51.2182 236.513 51.2148 236.513 51.2114C236.513 51.2079 236.513 51.2045 236.513 51.201C236.513 51.1976 236.513 51.1942 236.513 51.1907C236.513 51.1873 236.513 51.1839 236.513 51.1804C236.513 51.177 236.513 51.1735 236.513 51.1701C236.513 51.1667 236.513 51.1632 236.513 51.1598C236.513 51.1564 236.513 51.1529 236.513 51.1495C236.513 51.1461 236.513 51.1426 236.513 51.1392C236.513 51.1358 236.513 51.1323 236.513 51.1289C236.513 51.1255 236.513 51.1221 236.513 51.1186C236.513 51.1152 236.513 51.1118 236.513 51.1083C236.513 51.1049 236.513 51.1015 236.513 51.0981C236.513 51.0946 236.513 51.0912 236.513 51.0878C236.513 51.0843 236.513 51.0809 236.513 51.0775C236.513 51.0741 236.513 51.0706 236.513 51.0672C236.513 51.0638 236.513 51.0604 236.513 51.0569C236.513 51.0535 236.513 51.0501 236.513 51.0467C236.513 51.0433 236.513 51.0398 236.513 51.0364C236.513 51.033 236.513 51.0296 236.513 51.0262C236.513 51.0227 236.513 51.0193 236.513 51.0159C236.513 51.0125 236.513 51.0091 236.513 51.0056C236.513 51.0022 236.513 50.9988 236.513 50.9954C236.513 50.992 236.513 50.9886 236.513 50.9852C236.513 50.9817 236.513 50.9783 236.513 50.9749C236.513 50.9715 236.513 50.9681 236.513 50.9647C236.513 50.9613 236.513 50.9578 236.513 50.9544C236.513 50.951 236.513 50.9476 236.513 50.9442C236.513 50.9408 236.513 50.9374 236.513 50.934C236.513 50.9306 236.513 50.9272 236.513 50.9237C236.513 50.9203 236.513 50.9169 236.513 50.9135C236.513 50.9101 236.513 50.9067 236.513 50.9033C236.513 50.8999 236.513 50.8965 236.513 50.8931C236.513 50.8897 236.513 50.8863 236.513 50.8829C236.513 50.8795 236.513 50.8761 236.513 50.8727C236.513 50.8693 236.513 50.8659 236.513 50.8625C236.513 50.8591 236.513 50.8557 236.513 50.8523C236.513 50.8489 236.513 50.8455 236.513 50.8421C236.513 50.8387 236.513 50.8353 236.513 50.8319C236.513 50.8285 236.513 50.8251 236.513 50.8217C236.513 50.8183 236.513 50.8149 236.513 50.8115C236.513 50.8081 236.513 50.8047 236.513 50.8013C236.513 50.7979 236.513 50.7945 236.513 50.7911C236.513 50.7877 236.513 50.7843 236.513 50.7809C236.513 50.7775 236.513 50.7742 236.513 50.7708C236.513 50.7674 236.513 50.764 236.513 50.7606C236.513 50.7572 236.513 50.7538 236.513 50.7504C236.513 50.747 236.513 50.7437 236.513 50.7403C236.513 50.7369 236.513 50.7335 236.513 50.7301C236.513 50.7267 236.513 50.7233 236.513 50.7199C236.513 50.7166 236.513 50.7132 236.513 50.7098C236.513 50.7064 236.513 50.703 236.513 50.6996C236.513 50.6963 236.513 50.6929 236.513 50.6895C236.513 50.6861 236.513 50.6827 236.513 50.6794C236.513 50.676 236.513 50.6726 236.513 50.6692C236.513 50.6658 236.513 50.6625 236.513 50.6591C236.513 50.6557 236.513 50.6523 236.513 50.6489C236.513 50.6456 236.513 50.6422 236.513 50.6388C236.513 50.6354 236.513 50.6321 236.513 50.6287C236.513 50.6253 236.513 50.6219 236.513 50.6186C236.513 50.6152 236.513 50.6118 236.513 50.6084C236.513 50.6051 236.513 50.6017 236.513 50.5983C236.513 50.595 236.513 50.5916 236.513 50.5882C236.513 50.5848 236.513 50.5815 236.513 50.5781C236.513 50.5747 236.513 50.5714 236.513 50.568C236.513 50.5646 236.513 50.5613 236.513 50.5579C236.513 50.5545 236.513 50.5512 236.513 50.5478C236.513 50.5444 236.513 50.5411 236.513 50.5377C236.513 50.5343 236.513 50.531 236.513 50.5276C236.513 50.5242 236.513 50.5209 236.513 50.5175C236.513 50.5142 236.513 50.5108 236.513 50.5074C236.513 50.5041 236.513 50.5007 236.513 50.4974C236.513 50.494 236.513 50.4906 236.513 50.4873C236.513 50.4839 236.513 50.4806 236.513 50.4772C236.513 50.4738 236.513 50.4705 236.513 50.4671C236.513 50.4638 236.513 50.4604 236.513 50.4571C236.513 50.4537 236.513 50.4503 236.513 50.447C236.513 50.4436 236.513 50.4403 236.513 50.4369C236.513 50.4336 236.513 50.4302 236.513 50.4269C236.513 50.4235 236.513 50.4202 236.513 50.4168C236.513 50.4135 236.513 50.4101 236.513 50.4068C236.513 50.4034 236.513 50.4001 236.513 50.3967C236.513 50.3934 236.513 50.39 236.513 50.3867C236.513 50.3833 236.513 50.38 236.513 50.3766C236.513 50.3733 236.513 50.3699 236.513 50.3666C236.513 50.3633 236.513 50.3599 236.513 50.3566C236.513 50.3532 236.513 50.3499 236.513 50.3465C236.513 50.3432 236.513 50.3399 236.513 50.3365C236.513 50.3332 236.513 50.3298 236.513 50.3265C236.513 50.3232 236.513 50.3198 236.513 50.3165C236.513 50.3131 236.513 50.3098 236.513 50.3065C236.513 50.3031 236.513 50.2998 236.513 50.2964C236.513 50.2931 236.513 50.2898 236.513 50.2864C236.513 50.2831 236.513 50.2798 236.513 50.2764C236.513 50.2731 236.513 50.2698 236.513 50.2664C236.513 50.2631 236.513 50.2598 236.513 50.2564C236.513 50.2531 236.513 50.2498 236.513 50.2464C236.513 50.2431 236.513 50.2398 236.513 50.2364C236.513 50.2331 236.513 50.2298 236.513 50.2265C236.513 50.2231 236.513 50.2198 236.513 50.2165C236.513 50.2131 236.513 50.2098 236.513 50.2065C236.513 50.2032 236.513 50.1998 236.513 50.1965C236.513 50.1932 236.513 50.1898 236.513 50.1865C236.513 50.1832 236.513 50.1799 236.513 50.1766C236.513 50.1732 236.513 50.1699 236.513 50.1666C236.513 50.1633 236.513 50.1599 236.513 50.1566C236.513 50.1533 236.513 50.15 236.513 50.1467C236.513 50.1433 236.513 50.14 236.513 50.1367C236.513 50.1334 236.513 50.1301 236.513 50.1268C236.513 50.1234 236.513 50.1201 236.513 50.1168C236.513 50.1135 236.513 50.1102 236.513 50.1069C236.513 50.1035 236.513 50.1002 236.513 50.0969C236.513 50.0936 236.513 50.0903 236.513 50.087C236.513 50.0836 236.513 50.0803 236.513 50.077C236.513 50.0737 236.513 50.0704 236.513 50.0671C236.513 50.0638 236.513 50.0605 236.513 50.0572C236.513 50.0538 236.513 50.0505 236.513 50.0472C236.513 50.0439 236.513 50.0406 236.513 50.0373C236.513 50.034 236.513 50.0307 236.513 50.0274C236.513 50.0241 236.513 50.0208 236.513 50.0175C236.513 50.0142 236.513 50.0109 236.513 50.0076C236.513 50.0043 236.513 50.001 236.513 49.9977C236.513 49.9944 236.513 49.991 236.513 49.9877C236.513 49.9845 236.513 49.9811 236.513 49.9778C236.513 49.9745 236.513 49.9712 236.513 49.9679C236.513 49.9646 236.513 49.9613 236.513 49.9581C236.513 49.9547 236.513 49.9514 236.513 49.9482C236.513 49.9449 236.513 49.9416 236.513 49.9383C236.513 49.935 236.513 49.9317 236.513 49.9284C236.513 49.9251 236.513 49.9218 236.513 49.9185C236.513 49.9152 236.513 49.9119 236.513 49.9086C236.513 49.9053 236.513 49.902 236.513 49.8987C236.513 49.8954 236.513 49.8922 236.513 49.8889C236.513 49.8856 236.513 49.8823 236.513 49.879C236.513 49.8757 236.513 49.8724 236.513 49.8691C236.513 49.8658 236.513 49.8626 236.513 49.8593C236.513 49.856 236.513 49.8527 236.513 49.8494C236.513 49.8461 236.513 49.8428 236.513 49.8396C236.513 49.8363 236.513 49.833 236.513 49.8297C236.513 49.8264 236.513 49.8231 236.513 49.8199C236.513 49.8166 236.513 49.8133 236.513 49.81C236.513 49.8067 236.513 49.8035 236.513 49.8002C236.513 49.7969 236.513 49.7936 236.513 49.7903C236.513 49.7871 236.513 49.7838 236.513 49.7805C236.513 49.7772 236.513 49.7739 236.513 49.7707C236.513 49.7674 236.513 49.7641 236.513 49.7608C236.513 49.7576 236.513 49.7543 236.513 49.751C236.513 49.7477 236.513 49.7445 236.513 49.7412C236.513 49.7379 236.513 49.7346 236.513 49.7314C236.513 49.7281 236.513 49.7248 236.513 49.7216C236.513 49.7183 236.513 49.715 236.513 49.7118C236.513 49.7085 236.513 49.7052 236.513 49.702C236.513 49.6987 236.513 49.6954 236.513 49.6921C236.513 49.6889 236.513 49.6856 236.513 49.6823C236.513 49.6791 236.513 49.6758 236.513 49.6725C236.513 49.6693 236.513 49.666 236.513 49.6628C236.513 49.6595 236.513 49.6562 236.513 49.653C236.513 49.6497 236.513 49.6464 236.513 49.6432C236.513 49.6399 236.513 49.6367 236.513 49.6334C236.513 49.6301 236.513 49.6269 236.513 49.6236C236.513 49.6204 236.513 49.6171 236.513 49.6138C236.513 49.6106 236.513 49.6073 236.513 49.6041C236.513 49.6008 236.513 49.5975 236.513 49.5943C236.513 49.591 236.513 49.5878 236.513 49.5845C236.513 49.5813 236.513 49.578 236.513 49.5748C236.513 49.5715 236.513 49.5683 236.513 49.565C236.513 49.5618 236.513 49.5585 236.513 49.5553C236.513 49.552 236.513 49.5488 236.513 49.5455C236.513 49.5423 236.513 49.539 236.513 49.5358C236.513 49.5325 236.513 49.5293 236.513 49.526C236.513 49.5228 236.513 49.5195 236.513 49.5163C236.513 49.513 236.513 49.5098 236.513 49.5065C236.513 49.5033 236.513 49.5 236.513 49.4968C236.513 49.4935 236.513 49.4903 236.513 49.4871C236.513 49.4838 236.513 49.4806 236.513 49.4773C236.513 49.4741 236.513 49.4709 236.513 49.4676C236.513 49.4644 236.513 49.4611 236.513 49.4579C236.513 49.4547 236.513 49.4514 236.513 49.4482C236.513 49.4449 236.513 49.4417 236.513 49.4385C236.513 49.4352 236.513 49.432 236.513 49.4287C236.513 49.4255 236.513 49.4223 236.513 49.419C236.513 49.4158 236.513 49.4126 236.513 49.4093C236.513 49.4061 236.513 49.4029 236.513 49.3996C236.513 49.3964 236.513 49.3932 236.513 49.3899C236.513 49.3867 236.513 49.3835 236.513 49.3802C236.513 49.377 236.513 49.3738 236.513 49.3706C236.513 49.3673 236.513 49.3641 236.513 49.3609C236.513 49.3576 236.513 49.3544 236.513 49.3512C236.513 49.348 236.513 49.3447 236.513 49.3415C236.513 49.3383 236.513 49.3351 236.513 49.3318C236.513 49.3286 236.513 49.3254 236.513 49.3222C236.513 49.3189 236.513 49.3157 236.513 49.3125C236.513 49.3093 236.513 49.306 236.513 49.3028C236.513 49.2996 236.513 49.2964 236.513 49.2932C236.513 49.2899 236.513 49.2867 236.513 49.2835C236.513 49.2803 236.513 49.2771 236.513 49.2738C236.513 49.2706 236.513 49.2674 236.513 49.2642C236.513 49.261 236.513 49.2578 236.513 49.2545C236.513 49.2513 236.513 49.2481 236.513 49.2449C236.513 49.2417 236.513 49.2385 236.513 49.2352C236.513 49.232 236.513 49.2288 236.513 49.2256C236.513 49.2224 236.513 49.2192 236.513 49.216C236.513 49.2128 236.513 49.2095 236.513 49.2063C236.513 49.2031 236.513 49.1999 236.513 49.1967C236.513 49.1935 236.513 49.1903 236.513 49.1871C236.513 49.1839 236.513 49.1807 236.513 49.1775C236.513 49.1743 236.513 49.1711 236.513 49.1678C236.513 49.1646 236.513 49.1614 236.513 49.1582C236.513 49.155 236.513 49.1518 236.513 49.1486C236.513 49.1454 236.513 49.1422 236.513 49.139C236.513 49.1358 236.513 49.1326 236.513 49.1294C236.513 49.1262 236.513 49.123 236.513 49.1198C236.513 49.1166 236.513 49.1134 236.513 49.1102C236.513 49.107 236.513 49.1038 236.513 49.1006C236.513 49.0974 236.513 49.0942 236.513 49.091C236.513 49.0878 236.513 49.0846 236.513 49.0814C236.513 49.0782 236.513 49.0751 236.513 49.0719C236.513 49.0687 236.513 49.0655 236.513 49.0623C236.513 49.0591 236.513 49.0559 236.513 49.0527C236.513 49.0495 236.513 49.0463 236.513 49.0431C236.513 49.0399 236.513 49.0367 236.513 49.0336C236.513 49.0304 236.513 49.0272 236.513 49.024C236.513 49.0208 236.513 49.0176 236.513 49.0144C236.513 49.0112 236.513 49.0081 236.513 49.0049C236.513 49.0017 236.513 48.9985 236.513 48.9953C236.513 48.9921 236.513 48.9889 236.513 48.9858C236.513 48.9826 236.513 48.9794 236.513 48.9762C236.513 48.973 236.513 48.9698 236.513 48.9667C236.513 48.9635 236.513 48.9603 236.513 48.9571C236.513 48.9539 236.513 48.9508 236.513 48.9476C236.513 48.9444 236.513 48.9412 236.513 48.938C236.513 48.9349 236.513 48.9317 236.513 48.9285C236.513 48.9253 236.513 48.9222 236.513 48.919C236.513 48.9158 236.513 48.9126 236.513 48.9095C236.513 48.9063 236.513 48.9031 236.513 48.8999C236.513 48.8968 236.513 48.8936 236.513 48.8904C236.513 48.8873 236.513 48.8841 236.513 48.8809C236.513 48.8777 236.513 48.8746 236.513 48.8714C236.513 48.8682 236.513 48.8651 236.513 48.8619C236.513 48.8587 236.513 48.8555 236.513 48.8524C236.513 48.8492 236.513 48.846 236.513 48.8429C236.513 48.8397 236.513 48.8365 236.513 48.8334C236.513 48.8302 236.513 48.827 236.513 48.8239C236.513 48.8207 236.513 48.8176 236.513 48.8144C236.513 48.8112 236.513 48.8081 236.513 48.8049C236.513 48.8017 236.513 48.7986 236.513 48.7954C236.513 48.7923 236.513 48.7891 236.513 48.7859C236.513 48.7828 236.513 48.7796 236.513 48.7765C236.513 48.7733 236.513 48.7701 236.513 48.767C236.513 48.7638 236.513 48.7607 236.513 48.7575C236.513 48.7544 236.513 48.7512 236.513 48.748C236.513 48.7449 236.513 48.7417 236.513 48.7386C236.513 48.7354 236.513 48.7323 236.513 48.7291C236.513 48.726 236.513 48.7228 236.513 48.7197C236.513 48.7165 236.513 48.7134 236.513 48.7102C236.513 48.7071 236.513 48.7039 236.513 48.7008C236.513 48.6976 236.513 48.6945 236.513 48.6913C236.513 48.6882 236.513 48.685 236.513 48.6819C236.513 48.6787 236.513 48.6756 236.513 48.6724C236.513 48.6693 236.513 48.6662 236.513 48.663C236.513 48.6599 236.513 48.6567 236.513 48.6536C236.513 48.6504 236.513 48.6473 236.513 48.6441C236.513 48.641 236.513 48.6378 236.513 48.6347C236.513 48.6316 236.513 48.6284 236.513 48.6253C236.513 48.6221 236.513 48.619 236.513 48.6159C236.513 48.6127 236.513 48.6096 236.513 48.6065C236.513 48.6033 236.513 48.6002 236.513 48.597C236.513 48.5939 236.513 48.5908 236.513 48.5876C236.513 48.5845 236.513 48.5814 236.513 48.5782C236.513 48.5751 236.513 48.572 236.513 48.5688C236.513 48.5657 236.513 48.5626 236.513 48.5594C236.513 48.5563 236.513 48.5532 236.513 48.55C236.513 48.5469 236.513 48.5438 236.513 48.5406C236.513 48.5375 236.513 48.5344 236.513 48.5312C236.513 48.5281 236.513 48.525 236.513 48.5219C236.513 48.5187 236.513 48.5156 236.513 48.5125C236.513 48.5094 236.513 48.5062 236.513 48.5031C236.513 48.5 236.513 48.4969 236.513 48.4937C236.513 48.4906 236.513 48.4875 236.513 48.4844C236.513 48.4812 236.513 48.4781 236.513 48.475C236.513 48.4719 236.513 48.4688 236.513 48.4656C236.513 48.4625 236.513 48.4594 236.513 48.4563C236.513 48.4532 236.513 48.45 236.513 48.4469C236.513 48.4438 236.513 48.4407 236.513 48.4376C236.513 48.4344 236.513 48.4313 236.513 48.4282C236.513 48.4251 236.513 48.422 236.513 48.4189C236.513 48.4158 236.513 48.4126 236.513 48.4095C236.513 48.4064 236.513 48.4033 236.513 48.4002C236.513 48.3971 236.513 48.394 236.513 48.3908C236.513 48.3877 236.513 48.3846 236.513 48.3815C236.513 48.3784 236.513 48.3753 236.513 48.3722C236.513 48.3691 236.513 48.366 236.513 48.3629C236.513 48.3597 236.513 48.3566 236.513 48.3535C236.513 48.3504 236.513 48.3473 236.513 48.3442C236.513 48.3411 236.513 48.338 236.513 48.3349C236.513 48.3318 236.513 48.3287 236.513 48.3256C236.513 48.3225 236.513 48.3194 236.513 48.3163C236.513 48.3132 236.513 48.3101 236.513 48.307C236.513 48.3039 236.513 48.3008 236.513 48.2977C236.513 48.2946 236.513 48.2915 236.513 48.2884C236.513 48.2853 236.513 48.2822 236.513 48.2791C236.513 48.276 236.513 48.2729 236.513 48.2698C236.513 48.2667 236.513 48.2636 236.513 48.2605C236.513 48.2574 236.513 48.2543 236.513 48.2512C236.513 48.2481 236.513 48.245 236.513 48.2419C236.513 48.2388 236.513 48.2357 236.513 48.2327C236.513 48.2296 236.513 48.2265 236.513 48.2234C236.513 48.2203 236.513 48.2172 236.513 48.2141C236.513 48.211 236.513 48.2079 236.513 48.2048C236.513 48.2017 236.513 48.1987 236.513 48.1956C236.513 48.1925 236.513 48.1894 236.513 48.1863C236.513 48.1832 236.513 48.1801 236.513 48.177C236.513 48.174 236.513 48.1709 236.513 48.1678C236.513 48.1647 236.513 48.1616 236.513 48.1585C236.513 48.1555 236.513 48.1524 236.513 48.1493C236.513 48.1462 236.513 48.1431 236.513 48.1401C236.513 48.137 236.513 48.1339 236.513 48.1308C236.513 48.1277 236.513 48.1246 236.513 48.1216C236.513 48.1185 236.513 48.1154 236.513 48.1123C236.513 48.1093 236.513 48.1062 236.513 48.1031C236.513 48.1 236.513 48.097 236.513 48.0939C236.513 48.0908 236.513 48.0877 236.513 48.0847C236.513 48.0816 236.513 48.0785 236.513 48.0754C236.513 48.0724 236.513 48.0693 236.513 48.0662C236.513 48.0632 236.513 48.0601 236.513 48.057C236.513 48.0539 236.513 48.0509 236.513 48.0478C236.513 48.0447 236.513 48.0417 236.513 48.0386C236.513 48.0355 236.513 48.0325 236.513 48.0294C236.513 48.0263 236.513 48.0233 236.513 48.0202C236.513 48.0171 236.513 48.0141 236.513 48.011C236.513 48.0079 236.513 48.0049 236.513 48.0018C236.513 47.9987 236.513 47.9957 236.513 47.9926C236.513 47.9895 236.513 47.9865 236.513 47.9834C236.513 47.9804 236.513 47.9773 236.513 47.9742C236.513 47.9712 236.513 47.9681 236.513 47.9651C236.513 47.962 236.513 47.959 236.513 47.9559C236.513 47.9528 236.513 47.9498 236.513 47.9467C236.513 47.9437 236.513 47.9406 236.513 47.9376C236.513 47.9345 236.513 47.9314 236.513 47.9284C236.513 47.9253 236.513 47.9223 236.513 47.9192C236.513 47.9162 236.513 47.9131 236.513 47.9101C236.513 47.907 236.513 47.904 236.513 47.9009C236.513 47.8979 236.513 47.8948 236.513 47.8918C236.513 47.8887 236.513 47.8857 236.513 47.8826C236.513 47.8796 236.513 47.8765 236.513 47.8735C236.513 47.8704 236.513 47.8674 236.513 47.8643C236.513 47.8613 236.513 47.8582 236.513 47.8552C236.513 47.8521 236.513 47.8491 236.513 47.8461C236.513 47.843 236.513 47.84 236.513 47.8369C236.513 47.8339 236.513 47.8308 236.513 47.8278C236.513 47.8248 236.513 47.8217 236.513 47.8187C236.513 47.8156 236.513 47.8126 236.513 47.8096C236.513 47.8065 236.513 47.8035 236.513 47.8004C236.513 47.7974 236.513 47.7944 236.513 47.7913C236.513 47.7883 236.513 47.7852 236.513 47.7822C236.513 47.7792 236.513 47.7761 236.513 47.7731C236.513 47.7701 236.513 47.767 236.513 47.764C236.513 47.761 236.513 47.7579 236.513 47.7549C236.513 47.7519 236.513 47.7488 236.513 47.7458C236.513 47.7428 236.513 47.7397 236.513 47.7367C236.513 47.7337 236.513 47.7307 236.513 47.7276C236.513 47.7246 236.513 47.7216 236.513 47.7185C236.513 47.7155 236.513 47.7125 236.513 47.7095C236.513 47.7064 236.513 47.7034 236.513 47.7004C236.513 47.6974 236.513 47.6943 236.513 47.6913C236.513 47.6883 236.513 47.6853 236.513 47.6822C236.513 47.6792 236.513 47.6762 236.513 47.6732C236.513 47.6701 236.513 47.6671 236.513 47.6641C236.513 47.6611 236.513 47.6581 236.513 47.655C236.513 47.652 236.513 47.649 236.513 47.646C236.513 47.643 236.513 47.6399 236.513 47.6369C236.513 47.6339 236.513 47.6309 236.513 47.6279C236.513 47.6248 236.513 47.6218 236.513 47.6188C236.513 47.6158 236.513 47.6128 236.513 47.6098C236.513 47.6068 236.513 47.6037 236.513 47.6007C236.513 47.5977 236.513 47.5947 236.513 47.5917C236.513 47.5887 236.513 47.5857 236.513 47.5827C236.513 47.5797 236.513 47.5766 236.513 47.5736C236.513 47.5706 236.513 47.5676 236.513 47.5646C236.513 47.5616 236.513 47.5586 236.513 47.5556C236.513 47.5526 236.513 47.5496 236.513 47.5466C236.513 47.5435 236.513 47.5405 236.513 47.5375C236.513 47.5345 236.513 47.5315 236.513 47.5285C236.513 47.5255 236.513 47.5225 236.513 47.5195C236.513 47.5165 236.513 47.5135 236.513 47.5105C236.513 47.5075 236.513 47.5045 236.513 47.5015C236.513 47.4985 236.513 47.4955 236.513 47.4925C236.513 47.4895 236.513 47.4865 236.513 47.4835C236.513 47.4805 236.513 47.4775 236.513 47.4745C236.513 47.4715 236.513 47.4685 236.513 47.4655C236.513 47.4625 236.513 47.4595 236.513 47.4565C236.513 47.4536 236.513 47.4505 236.513 47.4476C236.513 47.4446 236.513 47.4416 236.513 47.4386C236.513 47.4356 236.513 47.4326 236.513 47.4296C236.513 47.4266 236.513 47.4236 236.513 47.4206C236.513 47.4176 236.513 47.4146 236.513 47.4117C236.513 47.4087 236.513 47.4057 236.513 47.4027C236.513 47.3997 236.513 47.3967 236.513 47.3937C236.513 47.3907 236.513 47.3878 236.513 47.3848C236.513 47.3818 236.513 47.3788 236.513 47.3758C236.513 47.3728 236.513 47.3698 236.513 47.3669C236.513 47.3639 236.513 47.3609 236.513 47.3579C236.513 47.3549 236.513 47.352 236.513 47.349C236.513 47.346 236.513 47.343 236.513 47.34C236.513 47.3371 236.513 47.3341 236.513 47.3311C236.513 47.3281 236.513 47.3251 236.513 47.3222C236.513 47.3192 236.513 47.3162 236.513 47.3132C236.513 47.3102 236.513 47.3073 236.513 47.3043C236.513 47.3013 236.513 47.2983 236.513 47.2954C236.513 47.2924 236.513 47.2894 236.513 47.2865C236.513 47.2835 236.513 47.2805 236.513 47.2775C236.513 47.2746 236.513 47.2716 236.513 47.2686C236.513 47.2656 236.513 47.2627 236.513 47.2597C236.513 47.2567 236.513 47.2538 236.513 47.2508C236.513 47.2478 236.513 47.2449 236.513 47.2419C236.513 47.2389 236.513 47.236 236.513 47.233C236.513 47.23 236.513 47.2271 236.513 47.2241C236.513 47.2211 236.513 47.2182 236.513 47.2152C236.513 47.2122 236.513 47.2093 236.513 47.2063C236.513 47.2034 236.513 47.2004 236.513 47.1974C236.513 47.1945 236.513 47.1915 236.513 47.1885C236.513 47.1856 236.513 47.1826 236.513 47.1797C236.513 47.1767 236.513 47.1738 236.513 47.1708C236.513 47.1678 236.513 47.1649 236.513 47.1619C236.513 47.159 236.513 47.156 236.513 47.153C236.513 47.1501 236.513 47.1471 236.513 47.1442C236.513 47.1412 236.513 47.1383 236.513 47.1353C236.513 47.1324 236.513 47.1294 236.513 47.1264C236.513 47.1235 236.513 47.1205 236.513 47.1176C236.513 47.1147 236.513 47.1117 236.513 47.1087C236.513 47.1058 236.513 47.1028 236.513 47.0999C236.513 47.097 236.513 47.094 236.513 47.091C236.513 47.0881 236.513 47.0852 236.513 47.0822C236.513 47.0793 236.513 47.0763 236.513 47.0734C236.513 47.0704 236.513 47.0675 236.513 47.0645C236.513 47.0616 236.513 47.0586 236.513 47.0557C236.513 47.0528 236.513 47.0498 236.513 47.0469C236.513 47.0439 236.513 47.041 236.513 47.0381C236.513 47.0351 236.513 47.0322 236.513 47.0292C236.513 47.0263 236.513 47.0233 236.513 47.0204C236.513 47.0175 236.513 47.0145 236.513 47.0116C236.513 47.0087 236.513 47.0057 236.513 47.0028C236.513 46.9998 236.513 46.9969 236.513 46.994C236.513 46.991 236.513 46.9881 236.513 46.9852C236.513 46.9822 236.513 46.9793 236.513 46.9764C236.513 46.9734 236.513 46.9705 236.513 46.9676C236.513 46.9646 236.513 46.9617 236.513 46.9588C236.513 46.9558 236.513 46.9529 236.513 46.95H234.513ZM234.533 52.0961C234.83 53.5838 235.128 55.223 235.427 57.0144L237.399 56.6856C237.098 54.8769 236.796 53.2162 236.494 51.7039L234.533 52.0961ZM235.421 56.979L262.871 268.029L264.855 267.771L237.405 56.721L235.421 56.979ZM264.735 268.39L389.835 45.6397L388.091 44.6603L262.991 267.41L264.735 268.39ZM389.85 45.6125C393.471 38.672 395.363 32.9464 395.363 28.5H393.363C393.363 32.4535 391.655 37.828 388.077 44.6874L389.85 45.6125ZM395.363 28.5C395.363 23.2399 392.483 19.1911 387.063 16.3634C381.7 13.5654 373.769 11.9044 363.371 11.3017L363.255 13.2983C373.557 13.8955 381.151 15.5345 386.138 18.1366C391.068 20.7088 393.363 24.16 393.363 28.5H395.363ZM363.367 11.3014L346.717 10.4014L346.609 12.3985L363.259 13.2985L363.367 11.3014ZM347.616 11.7048L351.216 0.454742L349.311 -0.1548L345.711 11.0952L347.616 11.7048ZM350.241 1.14973L411.891 2.49974L411.935 0.500229L350.285 -0.849792L350.241 1.14973ZM411.938 2.49968L466.838 1.14967L466.789 -0.849731L411.889 0.50029L411.938 2.49968ZM465.861 -0.1548L462.261 11.0952L464.166 11.7048L467.766 0.454742L465.861 -0.1548ZM463.118 10.4045L453.668 11.3045L453.858 13.2955L463.308 12.3955L463.118 10.4045ZM453.678 11.3036C443.103 12.21 434.559 14.3303 428.099 17.7141L429.027 19.4858C435.167 16.2697 443.423 14.19 453.849 13.2963L453.678 11.3036ZM428.116 17.7056C421.973 20.7772 416.898 25.0827 412.902 30.6145L414.524 31.7855C418.329 26.5172 423.154 22.4228 429.01 19.4944L428.116 17.7056ZM412.902 30.6145C408.975 36.0529 404.605 42.9855 399.795 51.4038L401.531 52.3961C406.321 44.0145 410.651 37.1471 414.524 31.7855L412.902 30.6145ZM399.791 51.4107L246.791 324.111L248.535 325.089L401.535 52.3893L399.791 51.4107ZM247.663 323.6H235.963V325.6H247.663V323.6ZM236.955 324.474L208.605 100.374L206.621 100.625L234.971 324.725L236.955 324.474ZM206.744 100.006L79.3937 324.106L81.1325 325.094L208.483 100.994L206.744 100.006ZM80.2631 323.6H68.5631V325.6H80.2631V323.6ZM425.645 317.4L425.107 318.243L425.115 318.248L425.124 318.253L425.645 317.4ZM401.345 290.4L400.432 290.808L400.439 290.823L400.446 290.837L401.345 290.4ZM403.595 202.65L402.672 202.264L402.669 202.273L403.595 202.65ZM431.495 158.55L430.763 157.869L430.754 157.878L431.495 158.55ZM472.445 127.95L472.005 127.052L472.445 127.95ZM561.095 127.05L560.557 127.893L560.565 127.898L560.574 127.903L561.095 127.05ZM584.945 153.15L584.041 153.577L584.046 153.587L584.051 153.597L584.945 153.15ZM582.695 240.9L581.77 240.52L581.767 240.529L582.695 240.9ZM554.795 285.45L554.055 284.777L554.054 284.778L554.795 285.45ZM514.295 316.05L513.855 315.152L514.295 316.05ZM496.295 307.95L496.844 308.786L496.853 308.78L496.862 308.774L496.295 307.95ZM522.395 282.3L521.603 281.689L521.598 281.696L521.592 281.704L522.395 282.3ZM543.095 247.65L544.006 248.062L543.095 247.65ZM556.145 210.3L555.178 210.047L555.176 210.055L555.174 210.063L556.145 210.3ZM463.895 161.25L463.103 160.639L463.098 160.646L463.092 160.654L463.895 161.25ZM443.645 195.9L444.552 196.32L444.556 196.312L443.645 195.9ZM430.145 232.8L429.179 232.541L429.176 232.552L429.174 232.563L430.145 232.8ZM465.695 326.3C449.932 326.3 436.774 323.029 426.167 316.547L425.124 318.253C436.116 324.971 449.658 328.3 465.695 328.3V326.3ZM426.184 316.557C415.533 309.753 407.561 300.89 402.244 289.963L400.446 290.837C405.93 302.11 414.158 311.247 425.107 318.243L426.184 316.557ZM402.258 289.992C397.217 278.724 394.695 266.714 394.695 253.95H392.695C392.695 266.986 395.273 279.276 400.432 290.808L402.258 289.992ZM394.695 253.95C394.695 236.076 397.971 219.104 404.521 203.027L402.669 202.273C396.019 218.596 392.695 235.824 392.695 253.95H394.695ZM404.518 203.036C411.375 186.638 420.614 172.035 432.236 159.222L430.754 157.878C418.976 170.865 409.615 185.662 402.673 202.264L404.518 203.036ZM432.227 159.231C444.147 146.418 457.699 136.292 472.885 128.848L472.005 127.052C456.591 134.608 442.843 144.882 430.763 157.869L432.227 159.231ZM472.885 128.848C488.05 121.414 503.95 117.7 520.595 117.7V115.7C503.64 115.7 487.44 119.486 472.005 127.052L472.885 128.848ZM520.595 117.7C536.654 117.7 549.955 121.119 560.557 127.893L561.634 126.207C550.635 119.181 536.936 115.7 520.595 115.7V117.7ZM560.574 127.903C571.218 134.408 579.029 142.964 584.041 153.577L585.849 152.723C580.661 141.736 572.573 132.892 561.617 126.197L560.574 127.903ZM584.051 153.597C589.377 164.249 592.045 175.944 592.045 188.7H594.045C594.045 175.656 591.314 163.651 585.84 152.703L584.051 153.597ZM592.045 188.7C592.045 206.568 588.621 223.84 581.77 240.52L583.62 241.28C590.569 224.36 594.045 206.832 594.045 188.7H592.045ZM581.767 240.529C575.211 256.917 565.975 271.665 554.055 284.777L555.535 286.123C567.615 272.835 576.979 257.883 583.624 241.271L581.767 240.529ZM554.054 284.778C542.438 297.587 529.039 307.709 513.855 315.152L514.735 316.948C530.151 309.391 543.753 299.113 555.536 286.122L554.054 284.778ZM513.855 315.152C498.693 322.585 482.643 326.3 465.695 326.3V328.3C482.947 328.3 499.298 324.515 514.735 316.948L513.855 315.152ZM465.245 318.4C476.547 318.4 487.087 315.189 496.844 308.786L495.746 307.114C486.304 313.311 476.143 316.4 465.245 316.4V318.4ZM496.862 308.774C506.563 302.104 515.34 293.474 523.198 282.896L521.592 281.704C513.85 292.126 505.227 300.595 495.729 307.126L496.862 308.774ZM523.187 282.911C531.336 272.347 538.276 260.73 544.006 248.062L542.184 247.238C536.515 259.77 529.654 271.253 521.603 281.689L523.187 282.911ZM544.006 248.062C549.729 235.411 554.101 222.902 557.117 210.537L555.174 210.063C552.19 222.298 547.861 234.689 542.184 247.238L544.006 248.062ZM557.112 210.553C560.429 197.892 562.095 186.405 562.095 176.1H560.095C560.095 186.195 558.462 197.508 555.178 210.047L557.112 210.553ZM562.095 176.1C562.095 159.493 558.778 146.853 551.976 138.35C545.14 129.805 534.916 125.6 521.495 125.6V127.6C534.474 127.6 544.05 131.645 550.414 139.6C556.812 147.597 560.095 159.707 560.095 176.1H562.095ZM521.495 125.6C510.193 125.6 499.654 128.811 489.896 135.214L490.994 136.886C500.437 130.689 510.597 127.6 521.495 127.6V125.6ZM489.896 135.214C480.19 141.584 471.261 150.065 463.103 160.639L464.687 161.861C472.729 151.435 481.5 143.116 490.994 136.886L489.896 135.214ZM463.092 160.654C455.247 171.214 448.462 182.826 442.734 195.488L444.556 196.312C450.228 183.774 456.943 172.286 464.698 161.846L463.092 160.654ZM442.738 195.48C437.015 207.828 432.495 220.182 429.179 232.541L431.111 233.059C434.395 220.818 438.875 208.572 444.552 196.32L442.738 195.48ZM429.174 232.563C426.159 244.923 424.645 256.254 424.645 266.55H426.645C426.645 256.446 428.131 245.277 431.117 233.037L429.174 232.563ZM424.645 266.55C424.645 283.602 427.96 296.575 434.756 305.302C441.589 314.076 451.815 318.4 465.245 318.4V316.4C452.275 316.4 442.701 312.249 436.334 304.073C429.93 295.85 426.645 283.398 426.645 266.55H424.645ZM612.697 321L611.757 320.661L611.274 322H612.697V321ZM668.497 166.2L667.558 165.858L667.557 165.861L668.497 166.2ZM672.547 144.6L671.555 144.724L671.56 144.76L671.567 144.796L672.547 144.6ZM663.997 135.6L663.755 136.57L663.768 136.573L663.997 135.6ZM642.397 133.8L641.449 133.484L641.01 134.8H642.397V133.8ZM645.997 123L645.976 122L645.271 122.016L645.049 122.684L645.997 123ZM707.647 121.65L708.605 121.937L709 120.62L707.626 120.65L707.647 121.65ZM687.847 187.8L686.889 187.513L688.733 188.264L687.847 187.8ZM708.997 152.7L708.187 152.115L708.181 152.122L708.176 152.13L708.997 152.7ZM734.647 126.6L734.081 125.776L734.075 125.78L734.069 125.784L734.647 126.6ZM788.647 123.9L788.108 124.742L788.647 123.9ZM795.397 160.35L794.565 159.795L794.552 159.815L794.54 159.835L795.397 160.35ZM767.947 162.6L767.208 163.273L767.224 163.29L767.24 163.307L767.947 162.6ZM761.197 147.75L760.217 147.946L760.219 147.959L760.222 147.972L761.197 147.75ZM729.247 142.35L728.614 141.576L728.605 141.583L728.597 141.591L729.247 142.35ZM708.097 168.9L707.253 168.364L707.248 168.373L707.243 168.381L708.097 168.9ZM691.897 199.05L692.792 199.497L692.796 199.488L691.897 199.05ZM674.797 239.1L673.86 238.751L673.857 238.759L674.797 239.1ZM645.097 321V322H645.799L646.038 321.341L645.097 321ZM613.638 321.339L669.438 166.539L667.557 165.861L611.757 320.661L613.638 321.339ZM669.437 166.542C671.249 161.561 672.505 157.23 673.193 153.559C673.879 149.9 674.014 146.832 673.528 144.404L671.567 144.796C671.981 146.868 671.891 149.65 671.227 153.191C670.565 156.72 669.346 160.939 667.558 165.858L669.437 166.542ZM673.54 144.476C673.218 141.901 672.281 139.741 670.685 138.061C669.094 136.387 666.916 135.259 664.227 134.627L663.768 136.573C666.179 137.141 667.976 138.113 669.235 139.439C670.489 140.759 671.277 142.499 671.555 144.724L673.54 144.476ZM664.24 134.63C659.318 133.399 652.018 132.8 642.397 132.8V134.8C651.977 134.8 659.077 135.401 663.755 136.57L664.24 134.63ZM643.346 134.116L646.946 123.316L645.049 122.684L641.449 133.484L643.346 134.116ZM646.019 124L707.669 122.65L707.626 120.65L645.976 122L646.019 124ZM706.689 121.363L686.889 187.513L688.805 188.087L708.605 121.937L706.689 121.363ZM688.733 188.264C695.316 175.698 702.344 164.034 709.819 153.27L708.176 152.13C700.651 162.966 693.579 174.702 686.962 187.336L688.733 188.264ZM709.808 153.285C717.555 142.56 726.029 133.942 735.226 127.415L734.069 125.784C724.666 132.458 716.04 141.24 708.187 152.115L709.808 153.285ZM735.214 127.424C744.656 120.933 754.81 117.7 765.697 117.7V115.7C754.385 115.7 743.839 119.067 734.081 125.776L735.214 127.424ZM765.697 117.7C773.28 117.7 780.746 120.03 788.108 124.742L789.187 123.058C781.549 118.17 773.715 115.7 765.697 115.7V117.7ZM788.108 124.742C795.266 129.323 798.897 136.62 798.897 146.85H800.897C800.897 136.08 797.029 128.077 789.187 123.058L788.108 124.742ZM798.897 146.85C798.897 151.116 797.478 155.426 794.565 159.795L796.229 160.905C799.317 156.274 800.897 151.584 800.897 146.85H798.897ZM794.54 159.835C792.077 163.94 787.672 166.1 780.997 166.1V168.1C788.123 168.1 793.318 165.76 796.255 160.864L794.54 159.835ZM780.997 166.1C775.469 166.1 771.41 164.648 768.655 161.893L767.24 163.307C770.485 166.552 775.126 168.1 780.997 168.1V166.1ZM768.687 161.927C765.848 158.804 763.653 154.04 762.173 147.528L760.222 147.972C761.742 154.66 764.047 159.796 767.208 163.273L768.687 161.927ZM762.178 147.554C761.256 142.942 759.618 139.357 757.18 136.918C754.717 134.455 751.525 133.25 747.697 133.25V135.25C751.07 135.25 753.728 136.295 755.765 138.332C757.827 140.393 759.339 143.558 760.217 147.946L762.178 147.554ZM747.697 133.25C741.676 133.25 735.308 136.1 728.614 141.576L729.881 143.124C736.387 137.8 742.319 135.25 747.697 135.25V133.25ZM728.597 141.591C722.185 147.086 715.072 156.034 707.253 168.364L708.942 169.436C716.722 157.166 723.71 148.414 729.898 143.109L728.597 141.591ZM707.243 168.381C702.123 176.814 696.708 186.893 690.998 198.612L692.796 199.488C698.487 187.807 703.872 177.786 708.952 169.419L707.243 168.381ZM691.003 198.603C685.283 210.042 679.57 223.426 673.86 238.751L675.735 239.449C681.425 224.174 687.112 210.858 692.792 199.497L691.003 198.603ZM673.857 238.759L644.157 320.659L646.038 321.341L675.738 239.441L673.857 238.759ZM645.097 320H612.697V322H645.097V320ZM818.639 321V322H819.367L819.591 321.308L818.639 321ZM786.239 321L785.289 320.69L784.861 322H786.239V321ZM876.689 43.8L875.741 43.4837L875.739 43.4898L876.689 43.8ZM874.889 15.9L874.316 16.7192L874.334 16.7318L874.352 16.7437L874.889 15.9ZM862.739 12.75L862.677 13.748L862.708 13.75H862.739V12.75ZM846.989 12.3L846.029 12.02L845.656 13.3H846.989V12.3ZM850.139 1.49998L850.121 0.500153L849.385 0.513855L849.179 1.21999L850.139 1.49998ZM922.589 0.149979L923.54 0.458862L923.974 -0.876007L922.571 -0.849854L922.589 0.149979ZM860.039 192.75L859.088 192.441L858.602 193.937L860.163 193.742L860.039 192.75ZM888.839 182.4L888.255 181.588L888.247 181.594L888.239 181.6L888.839 182.4ZM912.689 161.25L913.409 161.945L913.415 161.938L912.689 161.25ZM929.339 143.7L928.62 143.005L928.614 143.012L929.339 143.7ZM951.389 123.9L951.971 124.714L951.983 124.705L951.995 124.695L951.389 123.9ZM989.639 122.1L988.932 122.807L988.962 122.837L988.993 122.863L989.639 122.1ZM997.289 133.8L996.323 134.058L996.325 134.066L996.328 134.075L997.289 133.8ZM993.689 162.15L992.872 161.573L992.865 161.583L993.689 162.15ZM968.489 165.75L967.889 166.55L967.911 166.567L967.935 166.582L968.489 165.75ZM962.639 142.35L961.647 142.474L961.648 142.483L961.649 142.491L962.639 142.35ZM960.839 136.95L959.982 137.464L960.008 137.509L960.039 137.55L960.839 136.95ZM947.339 138.3L947.964 139.081L947.339 138.3ZM936.539 148.65L937.263 149.34L937.27 149.332L936.539 148.65ZM918.089 168L917.366 167.31L917.365 167.31L918.089 168ZM901.439 184.2L900.778 183.45L900.766 183.46L900.755 183.47L901.439 184.2ZM883.889 194.55L883.561 193.605L883.767 195.543L883.889 194.55ZM923.039 213L922.207 213.555L922.213 213.563L922.219 213.572L923.039 213ZM933.839 259.8L932.839 259.814L932.839 259.82L933.839 259.8ZM934.739 293.55L933.74 293.588L933.741 293.609L933.742 293.63L934.739 293.55ZM938.339 308.85L937.507 309.405L937.523 309.428L937.539 309.45L938.339 308.85ZM961.739 305.7L962.339 306.5L962.345 306.495L961.739 305.7ZM980.189 283.2L980.766 282.383L979.878 281.756L979.327 282.693L980.189 283.2ZM987.839 288.6L988.714 289.084L989.148 288.3L988.416 287.783L987.839 288.6ZM961.289 318.75L961.788 319.617L961.798 319.611L961.808 319.605L961.289 318.75ZM908.639 312.9L909.576 312.549L908.639 312.9ZM899.189 224.7L898.223 224.958L898.227 224.973L898.231 224.987L899.189 224.7ZM885.689 205.8L885.163 206.65L885.186 206.665L885.21 206.678L885.689 205.8ZM857.789 199.95V198.95H857.062L856.838 199.642L857.789 199.95ZM818.639 320H786.239V322H818.639V320ZM787.19 321.31L877.64 44.1102L875.739 43.4898L785.289 320.69L787.19 321.31ZM877.638 44.1162C879.757 37.758 880.839 32.2455 880.839 27.6H878.839C878.839 31.9545 877.821 37.2419 875.741 43.4837L877.638 44.1162ZM880.839 27.6C880.839 21.727 879.133 17.4152 875.426 15.0563L874.352 16.7437C877.246 18.5848 878.839 22.073 878.839 27.6H880.839ZM875.463 15.0807C872.24 12.8251 867.966 11.75 862.739 11.75V13.75C867.712 13.75 871.538 14.7749 874.316 16.7192L875.463 15.0807ZM862.802 11.7519C857.977 11.4504 852.706 11.3 846.989 11.3V13.3C852.672 13.3 857.901 13.4495 862.677 13.748L862.802 11.7519ZM847.949 12.58L851.099 1.77998L849.179 1.21999L846.029 12.02L847.949 12.58ZM850.158 2.49982L922.608 1.1498L922.571 -0.849854L850.121 0.500153L850.158 2.49982ZM921.638 -0.158905L859.088 192.441L860.99 193.059L923.54 0.458862L921.638 -0.158905ZM860.163 193.742C872.279 192.228 882.06 188.734 889.439 183.2L888.239 181.6C881.218 186.866 871.8 190.272 859.915 191.758L860.163 193.742ZM889.424 183.212C896.984 177.768 904.979 170.675 913.409 161.945L911.97 160.555C903.599 169.225 895.694 176.232 888.255 181.588L889.424 183.212ZM913.415 161.938L930.065 144.388L928.614 143.012L911.964 160.562L913.415 161.938ZM930.059 144.395C938.437 135.717 945.74 129.164 951.971 124.714L950.808 123.086C944.439 127.636 937.041 134.283 928.62 143.005L930.059 144.395ZM951.995 124.695C958.132 120.02 964.821 117.7 972.089 117.7V115.7C964.358 115.7 957.247 118.18 950.783 123.105L951.995 124.695ZM972.089 117.7C980.075 117.7 985.605 119.48 988.932 122.807L990.346 121.393C986.474 117.52 980.303 115.7 972.089 115.7V117.7ZM988.993 122.863C992.753 126.045 995.181 129.774 996.323 134.058L998.255 133.542C996.998 128.826 994.325 124.755 990.285 121.337L988.993 122.863ZM996.328 134.075C997.513 138.222 998.089 141.725 998.089 144.6H1000.09C1000.09 141.475 999.466 137.778 998.251 133.525L996.328 134.075ZM998.089 144.6C998.089 151.006 996.346 156.652 992.872 161.573L994.506 162.727C998.232 157.448 1000.09 151.394 1000.09 144.6H998.089ZM992.865 161.583C989.758 166.103 985.422 168.35 979.739 168.35V170.35C986.057 170.35 991.02 167.797 994.513 162.717L992.865 161.583ZM979.739 168.35C976.058 168.35 972.498 167.221 969.044 164.918L967.935 166.582C971.68 169.079 975.62 170.35 979.739 170.35V168.35ZM969.089 164.95C965.807 162.488 964.089 158.628 964.089 153.15H962.089C962.089 159.072 963.972 163.612 967.889 166.55L969.089 164.95ZM964.089 153.15C964.089 148.05 963.94 144.386 963.629 142.209L961.649 142.491C961.938 144.514 962.089 148.05 962.089 153.15H964.089ZM963.632 142.226C963.322 139.748 962.689 137.75 961.639 136.35L960.039 137.55C960.789 138.55 961.357 140.152 961.647 142.474L963.632 142.226ZM961.697 136.436C960.577 134.57 958.708 133.7 956.339 133.7V135.7C958.171 135.7 959.301 136.33 959.982 137.464L961.697 136.436ZM956.339 133.7C953.055 133.7 949.841 135.018 946.715 137.519L947.964 139.081C950.837 136.782 953.624 135.7 956.339 135.7V133.7ZM946.715 137.519C943.661 139.962 940.024 143.451 935.808 147.968L937.27 149.332C941.454 144.849 945.017 141.438 947.964 139.081L946.715 137.519ZM935.816 147.96L917.366 167.31L918.813 168.69L937.263 149.34L935.816 147.96ZM917.365 167.31C911.38 173.595 905.851 178.974 900.778 183.45L902.101 184.95C907.228 180.426 912.799 175.005 918.813 168.69L917.365 167.31ZM900.755 183.47C896.068 187.865 890.343 191.246 883.561 193.605L884.218 195.494C891.235 193.054 897.21 189.535 902.123 184.93L900.755 183.47ZM883.767 195.543C903.161 197.929 915.849 204.017 922.207 213.555L923.871 212.445C917.03 202.183 903.617 195.971 884.011 193.557L883.767 195.543ZM922.219 213.572C928.947 223.225 932.54 238.58 932.839 259.814L934.839 259.786C934.538 238.42 930.932 222.575 923.86 212.428L922.219 213.572ZM932.839 259.82C933.14 274.522 933.44 285.779 933.74 293.588L935.739 293.512C935.439 285.721 935.139 274.478 934.839 259.78L932.839 259.82ZM933.742 293.63C934.045 297.41 934.5 300.614 935.116 303.229C935.728 305.833 936.513 307.913 937.507 309.405L939.171 308.295C938.366 307.087 937.65 305.267 937.063 302.771C936.478 300.286 936.034 297.19 935.736 293.47L933.742 293.63ZM937.539 309.45C939.583 312.174 942.778 313.45 946.889 313.45V311.45C943.201 311.45 940.696 310.326 939.139 308.25L937.539 309.45ZM946.889 313.45C951.13 313.45 956.302 311.028 962.339 306.5L961.139 304.9C955.176 309.372 950.449 311.45 946.889 311.45V313.45ZM962.345 306.495C968.786 301.588 975.015 293.969 981.051 283.707L979.327 282.693C973.364 292.831 967.292 300.212 961.133 304.905L962.345 306.495ZM979.613 284.017L987.263 289.417L988.416 287.783L980.766 282.383L979.613 284.017ZM986.964 288.116C979.217 302.12 970.474 312.014 960.771 317.895L961.808 319.605C971.904 313.486 980.861 303.28 988.714 289.084L986.964 288.116ZM960.79 317.883C950.996 323.523 941.868 326.3 933.389 326.3V328.3C942.311 328.3 951.783 325.377 961.788 319.617L960.79 317.883ZM933.389 326.3C927.056 326.3 921.957 325.121 918.03 322.836C914.119 320.561 911.301 317.15 909.576 312.549L907.703 313.251C909.577 318.25 912.684 322.039 917.024 324.564C921.346 327.079 926.822 328.3 933.389 328.3V326.3ZM909.576 312.549C906.046 303.136 904.239 286.202 904.239 261.6H902.239C902.239 286.198 904.033 303.464 907.703 313.251L909.576 312.549ZM904.239 261.6C904.239 245.958 902.887 233.547 900.147 224.413L898.231 224.987C900.891 233.853 902.239 246.042 902.239 261.6H904.239ZM900.156 224.442C897.703 215.245 893.064 208.683 886.168 204.922L885.21 206.678C891.515 210.117 895.876 216.155 898.223 224.958L900.156 224.442ZM886.216 204.95C879.685 200.907 870.166 198.95 857.789 198.95V200.95C870.013 200.95 879.094 202.893 885.163 206.65L886.216 204.95ZM856.838 199.642L817.688 320.692L819.591 321.308L858.741 200.258L856.838 199.642Z" fill="#103939" fill-opacity="0.07"/>
</svg>
