<svg width="1703" height="328" viewBox="0 0 1703 328" fill="none" xmlns="http://www.w3.org/2000/svg">
<path d="M26.3389 318.75L25.7842 319.582L25.7939 319.589L25.8038 319.595L26.3389 318.75ZM6.53887 295.35L5.61823 295.741L5.62271 295.751L6.53887 295.35ZM12.3889 208.95L13.2982 209.366L12.3889 208.95ZM43.8889 161.7L43.1662 161.009L43.1583 161.017L43.8889 161.7ZM162.689 130.2L161.895 130.808L161.902 130.817L161.908 130.825L162.689 130.2ZM175.289 164.85L174.292 164.935L176.228 165.193L175.289 164.85ZM190.589 123V122H189.89L189.65 122.657L190.589 123ZM220.289 123L221.232 123.332L221.701 122H220.289V123ZM164.039 282.75L163.096 282.418L163.083 282.455L163.073 282.492L164.039 282.75ZM160.889 294.9L161.854 295.163L161.856 295.153L161.859 295.143L160.889 294.9ZM201.389 281.85L201.944 281.018L201.065 280.432L200.528 281.341L201.389 281.85ZM209.489 287.25L210.341 287.773L210.844 286.952L210.044 286.418L209.489 287.25ZM187.439 314.25L188.134 314.969L187.439 314.25ZM134.789 320.55L134.008 321.175L134.02 321.19L134.033 321.205L134.789 320.55ZM132.089 283.2L133.059 283.443L131.276 282.617L132.089 283.2ZM99.2389 315.6L99.7839 316.438L99.2389 315.6ZM113.639 291.3L114.373 291.979L114.379 291.973L113.639 291.3ZM152.339 226.5L153.266 226.875L153.274 226.854L153.282 226.833L152.339 226.5ZM157.739 211.2L158.682 211.533L158.686 211.522L157.739 211.2ZM157.739 140.1L156.902 140.647L156.907 140.655L156.912 140.662L157.739 140.1ZM98.3389 142.35L98.9486 143.143L98.9514 143.14L98.3389 142.35ZM65.9389 177.9L65.1094 177.341L65.1055 177.347L65.1016 177.353L65.9389 177.9ZM42.5389 225.15L41.5971 224.814L41.5937 224.823L42.5389 225.15ZM42.5389 304.8L43.3229 304.179L42.5389 304.8ZM60.9889 326.3C47.0184 326.3 35.6698 323.476 26.8739 317.905L25.8038 319.595C35.0079 325.424 46.7593 328.3 60.9889 328.3V326.3ZM26.8936 317.918C18.0474 312.021 11.5757 304.368 7.45502 294.949L5.62271 295.751C9.90201 305.532 16.6303 313.479 25.7842 319.582L26.8936 317.918ZM7.45945 294.959C3.31356 285.187 1.23887 274.82 1.23887 263.85H-0.761132C-0.761132 275.08 1.36418 285.713 5.61829 295.741L7.45945 294.959ZM1.23887 263.85C1.23887 245.098 5.2561 226.94 13.2982 209.366L11.4796 208.534C3.32164 226.36 -0.761132 244.802 -0.761132 263.85H1.23887ZM13.2982 209.366C21.3547 191.761 31.7952 176.102 44.6194 162.383L43.1583 161.017C30.1825 174.898 19.623 190.739 11.4796 208.534L13.2982 209.366ZM44.6115 162.391C57.745 148.661 71.9107 137.779 87.1068 129.734L86.171 127.966C70.7671 136.121 56.4327 147.139 43.1662 161.009L44.6115 162.391ZM87.1068 129.734C102.288 121.697 117.129 117.7 131.639 117.7V115.7C116.749 115.7 101.59 119.803 86.171 127.966L87.1068 129.734ZM131.639 117.7C145.203 117.7 155.226 122.109 161.895 130.808L163.482 129.592C156.352 120.291 145.675 115.7 131.639 115.7V117.7ZM161.908 130.825C168.959 139.638 173.105 150.987 174.292 164.935L176.285 164.765C175.072 150.513 170.819 138.762 163.47 129.575L161.908 130.825ZM176.228 165.193L191.528 123.343L189.65 122.657L174.35 164.507L176.228 165.193ZM190.589 124H220.289V122H190.589V124ZM219.346 122.668L163.096 282.418L164.982 283.082L221.232 123.332L219.346 122.668ZM163.073 282.492C161.872 286.996 160.82 291.051 159.919 294.657L161.859 295.143C162.757 291.549 163.806 287.504 165.005 283.008L163.073 282.492ZM159.924 294.637C159.01 297.99 158.539 300.932 158.539 303.45H160.539C160.539 301.168 160.968 298.41 161.854 295.163L159.924 294.637ZM158.539 303.45C158.539 306.557 159.156 309.072 160.558 310.825C161.994 312.62 164.118 313.45 166.739 313.45V311.45C164.56 311.45 163.084 310.78 162.12 309.575C161.122 308.328 160.539 306.343 160.539 303.45H158.539ZM166.739 313.45C173.721 313.45 180.419 309.793 186.827 302.774L185.35 301.426C179.159 308.207 172.957 311.45 166.739 311.45V313.45ZM186.827 302.774C193.164 295.834 198.308 289.029 202.25 282.359L200.528 281.341C196.67 287.871 191.614 294.566 185.35 301.426L186.827 302.774ZM200.834 282.682L208.934 288.082L210.044 286.418L201.944 281.018L200.834 282.682ZM208.636 286.727C202.986 295.946 195.692 304.881 186.744 313.531L188.134 314.969C197.186 306.219 204.592 297.154 210.341 287.773L208.636 286.727ZM186.744 313.531C177.937 322.045 167.238 326.3 154.589 326.3V328.3C167.739 328.3 178.941 323.855 188.134 314.969L186.744 313.531ZM154.589 326.3C145.417 326.3 139.169 324.078 135.545 319.895L134.033 321.205C138.208 326.022 145.161 328.3 154.589 328.3V326.3ZM135.57 319.925C132.149 315.65 130.389 309.892 130.389 302.55H128.389C128.389 310.208 130.228 316.45 134.008 321.175L135.57 319.925ZM130.389 302.55C130.389 296.952 131.273 290.586 133.059 283.443L131.119 282.957C129.305 290.214 128.389 296.748 128.389 302.55H130.389ZM131.276 282.617C121.436 296.334 110.572 307.041 98.6939 314.762L99.7839 316.438C111.906 308.559 122.942 297.666 132.901 283.783L131.276 282.617ZM98.6939 314.762C86.8459 322.463 74.2835 326.3 60.9889 326.3V328.3C74.6942 328.3 87.6319 324.337 99.7839 316.438L98.6939 314.762ZM65.4889 316.6C82.943 316.6 99.2417 308.321 114.373 291.979L112.905 290.621C98.0361 306.679 82.2348 314.6 65.4889 314.6V316.6ZM114.379 291.973C129.478 275.364 142.434 253.654 153.266 226.875L151.412 226.125C140.644 252.746 127.8 274.236 112.899 290.627L114.379 291.973ZM153.282 226.833L158.682 211.533L156.796 210.867L151.396 226.167L153.282 226.833ZM158.686 211.522C163.812 196.444 166.389 182.534 166.389 169.8H164.389C164.389 182.266 161.866 195.956 156.792 210.878L158.686 211.522ZM166.389 169.8C166.389 157.369 163.812 147.253 158.566 139.538L156.912 140.662C161.865 147.947 164.389 157.631 164.389 169.8H166.389ZM158.576 139.553C153.265 131.431 145.126 127.4 134.339 127.4V129.4C144.552 129.4 152.013 133.169 156.902 140.647L158.576 139.553ZM134.339 127.4C122.064 127.4 109.854 132.16 97.7263 141.56L98.9514 143.14C110.823 133.94 122.614 129.4 134.339 129.4V127.4ZM97.7292 141.557C85.9286 150.635 75.0579 162.569 65.1094 177.341L66.7683 178.459C76.6198 163.831 87.3491 152.065 98.9486 143.143L97.7292 141.557ZM65.1016 177.353C55.4579 192.12 47.6231 207.941 41.5971 224.814L43.4806 225.486C49.4546 208.759 57.2198 193.08 66.7761 178.447L65.1016 177.353ZM41.5937 224.823C35.8624 241.414 32.9889 257.424 32.9889 272.85H34.9889C34.9889 257.676 37.8153 241.886 43.4841 225.477L41.5937 224.823ZM32.9889 272.85C32.9889 287.061 35.8575 297.971 41.7548 305.421L43.3229 304.179C37.8202 297.229 34.9889 286.839 34.9889 272.85H32.9889ZM41.7548 305.421C47.6543 312.873 55.5994 316.6 65.4889 316.6V314.6C56.1784 314.6 48.8235 311.127 43.3229 304.179L41.7548 305.421ZM264.03 313.8L263.357 314.539L263.368 314.549L263.379 314.559L264.03 313.8ZM251.43 246.75L250.455 246.53L250.451 246.545L250.448 246.56L251.43 246.75ZM259.98 216.15L260.931 216.458L260.932 216.456L259.98 216.15ZM315.78 42.45L314.836 42.1196L314.832 42.1318L314.828 42.1441L315.78 42.45ZM313.98 15.9L314.517 15.0563L313.98 15.9ZM301.38 12.75L301.322 13.7482L301.351 13.75H301.38V12.75ZM285.18 12.3L284.22 12.02L283.847 13.3H285.18V12.3ZM288.33 1.49998L288.312 0.500153L287.576 0.513779L287.37 1.21999L288.33 1.49998ZM361.23 0.149979L362.184 0.452026L362.604 -0.875641L361.212 -0.849854L361.23 0.149979ZM312.18 154.95L311.227 154.648L312.994 155.531L312.18 154.95ZM331.98 134.7L332.558 135.516L332.578 135.502L332.597 135.487L331.98 134.7ZM354.03 121.65L353.641 120.729L354.03 121.65ZM419.28 135.15L418.52 135.799L418.528 135.809L419.28 135.15ZM424.23 240.45L423.309 240.062L423.306 240.069L423.303 240.076L424.23 240.45ZM395.43 285.9L394.699 285.218L394.698 285.219L395.43 285.9ZM354.93 316.5L355.363 317.402L355.37 317.398L355.378 317.394L354.93 316.5ZM342.33 304.35L341.713 303.563L341.703 303.571L342.33 304.35ZM372.03 270.6L371.187 270.062L371.184 270.067L372.03 270.6ZM391.83 141L391.038 141.61L391.043 141.617L391.049 141.625L391.83 141ZM342.33 139.2L342.904 140.019L342.909 140.016L342.33 139.2ZM316.68 164.4L315.888 163.789L315.886 163.793L316.68 164.4ZM298.23 197.7L297.294 197.349L297.291 197.356L297.289 197.363L298.23 197.7ZM289.68 221.55L288.739 221.213L288.735 221.223L288.732 221.234L289.68 221.55ZM281.13 253.95L280.146 253.771L280.144 253.783L280.142 253.796L281.13 253.95ZM286.98 307.95L286.206 308.583L286.222 308.602L286.239 308.621L286.98 307.95ZM308.58 326.3C289.527 326.3 274.94 321.834 264.681 313.041L263.379 314.559C274.12 323.766 289.234 328.3 308.58 328.3V326.3ZM264.704 313.061C254.774 304.007 249.73 290.515 249.73 272.4H247.73C247.73 290.885 252.887 304.993 263.357 314.539L264.704 313.061ZM249.73 272.4C249.73 264.676 250.622 256.19 252.412 246.94L250.448 246.56C248.639 255.91 247.73 264.524 247.73 272.4H249.73ZM252.406 246.97C254.498 237.706 257.339 227.536 260.931 216.458L259.029 215.841C255.422 226.964 252.563 237.194 250.455 246.53L252.406 246.97ZM260.932 216.456L316.732 42.7558L314.828 42.1441L259.028 215.844L260.932 216.456ZM316.724 42.7803C318.844 36.723 319.93 31.5046 319.93 27.15H317.93C317.93 31.1953 316.916 36.177 314.836 42.1196L316.724 42.7803ZM319.93 27.15C319.93 21.5517 318.209 17.4056 314.517 15.0563L313.443 16.7437C316.352 18.5944 317.93 21.9483 317.93 27.15H319.93ZM314.517 15.0563C311.015 12.8275 306.614 11.75 301.38 11.75V13.75C306.347 13.75 310.346 14.7725 313.443 16.7437L314.517 15.0563ZM301.439 11.7517C296.317 11.4504 290.898 11.3 285.18 11.3V13.3C290.863 13.3 296.243 13.4495 301.322 13.7482L301.439 11.7517ZM286.14 12.58L289.29 1.77998L287.37 1.21999L284.22 12.02L286.14 12.58ZM288.349 2.49982L361.249 1.1498L361.212 -0.849854L288.312 0.500153L288.349 2.49982ZM360.277 -0.152084L311.227 154.648L313.134 155.252L362.184 0.452026L360.277 -0.152084ZM312.994 155.531C318.94 147.207 325.463 140.542 332.558 135.516L331.402 133.884C324.097 139.058 317.421 145.893 311.367 154.369L312.994 155.531ZM332.597 135.487C339.43 130.14 346.704 125.835 354.42 122.571L353.641 120.729C345.757 124.065 338.331 128.46 331.364 133.912L332.597 135.487ZM354.42 122.571C362.102 119.321 369.92 117.7 377.88 117.7V115.7C369.64 115.7 361.558 117.379 353.641 120.729L354.42 122.571ZM377.88 117.7C394.707 117.7 408.222 123.736 418.52 135.799L420.041 134.501C409.339 121.964 395.254 115.7 377.88 115.7V117.7ZM418.528 135.809C428.817 147.568 434.03 164.252 434.03 186H436.03C436.03 163.948 430.743 146.732 420.033 134.491L418.528 135.809ZM434.03 186C434.03 205.071 430.455 223.089 423.309 240.062L425.152 240.838C432.405 223.611 436.03 205.329 436.03 186H434.03ZM423.303 240.076C416.448 257.065 406.913 272.11 394.699 285.218L396.162 286.582C408.547 273.29 418.213 258.035 425.158 240.824L423.303 240.076ZM394.698 285.219C382.775 298.036 369.371 308.162 354.483 315.606L355.378 317.394C370.49 309.838 384.085 299.564 396.162 286.581L394.698 285.219ZM354.498 315.598C339.626 322.737 324.323 326.3 308.58 326.3V328.3C324.637 328.3 340.234 324.663 355.363 317.402L354.498 315.598ZM308.58 318.4C320.549 318.4 332.014 313.944 342.958 305.129L341.703 303.571C331.046 312.156 320.012 316.4 308.58 316.4V318.4ZM342.947 305.137C354.15 296.356 364.124 285.015 372.876 271.133L371.184 270.067C362.536 283.785 352.71 294.944 341.713 303.563L342.947 305.137ZM372.873 271.138C381.921 256.963 389.008 241.733 394.134 225.45L392.226 224.85C387.152 240.967 380.139 256.037 371.187 270.062L372.873 271.138ZM394.134 225.45C399.261 209.166 401.83 193.464 401.83 178.35H399.83C399.83 193.236 397.3 208.734 392.226 224.85L394.134 225.45ZM401.83 178.35C401.83 160.886 398.829 148.148 392.611 140.375L391.049 141.625C396.831 148.852 399.83 161.014 399.83 178.35H401.83ZM392.623 140.39C386.439 132.351 378.35 128.3 368.43 128.3V130.3C377.711 130.3 385.221 134.049 391.038 141.61L392.623 140.39ZM368.43 128.3C360.054 128.3 351.154 131.712 341.752 138.384L342.909 140.016C352.107 133.488 360.607 130.3 368.43 130.3V128.3ZM341.757 138.381C332.659 144.749 324.038 153.225 315.888 163.789L317.472 165.011C325.523 154.575 334.002 146.251 342.904 140.019L341.757 138.381ZM315.886 163.793C308.026 174.07 301.828 185.257 297.294 197.349L299.167 198.051C303.632 186.143 309.734 175.13 317.475 165.007L315.886 163.793ZM297.289 197.363L288.739 221.213L290.622 221.887L299.172 198.037L297.289 197.363ZM288.732 221.234C284.82 232.969 281.957 243.816 280.146 253.771L282.114 254.129C283.904 244.284 286.741 233.531 290.629 221.866L288.732 221.234ZM280.142 253.796C278.636 263.435 277.88 272.188 277.88 280.05H279.88C279.88 272.312 280.624 263.665 282.118 254.104L280.142 253.796ZM277.88 280.05C277.88 292.188 280.611 301.744 286.206 308.583L287.754 307.317C282.55 300.956 279.88 291.912 279.88 280.05H277.88ZM286.239 308.621C292.133 315.136 299.605 318.4 308.58 318.4V316.4C300.155 316.4 293.227 313.364 287.722 307.279L286.239 308.621ZM498.104 317.4L497.566 318.243L497.574 318.248L497.583 318.253L498.104 317.4ZM473.804 290.4L472.891 290.808L472.898 290.823L472.905 290.837L473.804 290.4ZM476.054 202.65L475.131 202.264L475.128 202.273L476.054 202.65ZM503.954 158.55L503.222 157.869L503.213 157.878L503.954 158.55ZM544.904 127.95L544.464 127.052L544.904 127.95ZM633.554 127.05L633.016 127.893L633.024 127.898L633.033 127.903L633.554 127.05ZM657.404 153.15L656.5 153.577L656.505 153.587L656.51 153.597L657.404 153.15ZM655.154 240.9L654.229 240.52L654.226 240.529L655.154 240.9ZM627.254 285.45L626.514 284.777L626.513 284.778L627.254 285.45ZM586.754 316.05L586.314 315.152L586.754 316.05ZM568.754 307.95L569.303 308.786L569.312 308.78L569.321 308.774L568.754 307.95ZM594.854 282.3L594.062 281.689L594.057 281.696L594.051 281.704L594.854 282.3ZM615.554 247.65L616.465 248.062L615.554 247.65ZM628.604 210.3L627.637 210.047L627.635 210.055L627.633 210.063L628.604 210.3ZM536.354 161.25L535.562 160.639L535.557 160.646L535.551 160.654L536.354 161.25ZM516.104 195.9L517.011 196.32L517.015 196.312L516.104 195.9ZM502.604 232.8L501.638 232.541L501.635 232.552L501.633 232.563L502.604 232.8ZM538.154 326.3C522.391 326.3 509.233 323.029 498.626 316.547L497.583 318.253C508.575 324.971 522.117 328.3 538.154 328.3V326.3ZM498.642 316.557C487.992 309.753 480.02 300.89 474.703 289.963L472.905 290.837C478.389 302.11 486.617 311.247 497.566 318.243L498.642 316.557ZM474.717 289.992C469.676 278.724 467.154 266.714 467.154 253.95H465.154C465.154 266.986 467.732 279.276 472.891 290.808L474.717 289.992ZM467.154 253.95C467.154 236.076 470.43 219.104 476.98 203.027L475.128 202.273C468.478 218.596 465.154 235.824 465.154 253.95H467.154ZM476.977 203.036C483.834 186.638 493.073 172.035 504.695 159.222L503.213 157.878C491.435 170.865 482.074 185.662 475.132 202.264L476.977 203.036ZM504.686 159.231C516.606 146.418 530.158 136.292 545.344 128.848L544.464 127.052C529.05 134.608 515.302 144.882 503.222 157.869L504.686 159.231ZM545.344 128.848C560.509 121.414 576.409 117.7 593.054 117.7V115.7C576.099 115.7 559.899 119.486 544.464 127.052L545.344 128.848ZM593.054 117.7C609.113 117.7 622.414 121.119 633.016 127.893L634.093 126.207C623.094 119.181 609.395 115.7 593.054 115.7V117.7ZM633.033 127.903C643.677 134.408 651.488 142.964 656.5 153.577L658.308 152.723C653.12 141.736 645.032 132.892 634.076 126.197L633.033 127.903ZM656.51 153.597C661.836 164.249 664.504 175.944 664.504 188.7H666.504C666.504 175.656 663.773 163.651 658.299 152.703L656.51 153.597ZM664.504 188.7C664.504 206.568 661.08 223.84 654.229 240.52L656.079 241.28C663.028 224.36 666.504 206.832 666.504 188.7H664.504ZM654.226 240.529C647.67 256.917 638.434 271.665 626.514 284.777L627.994 286.123C640.074 272.835 649.438 257.883 656.083 241.271L654.226 240.529ZM626.513 284.778C614.896 297.587 601.498 307.709 586.314 315.152L587.194 316.948C602.61 309.391 616.212 299.113 627.995 286.122L626.513 284.778ZM586.314 315.152C571.151 322.585 555.102 326.3 538.154 326.3V328.3C555.406 328.3 571.757 324.515 587.194 316.948L586.314 315.152ZM537.704 318.4C549.006 318.4 559.546 315.189 569.303 308.786L568.205 307.114C558.763 313.311 548.602 316.4 537.704 316.4V318.4ZM569.321 308.774C579.022 302.104 587.799 293.474 595.657 282.896L594.051 281.704C586.309 292.126 577.686 300.595 568.188 307.126L569.321 308.774ZM595.646 282.911C603.795 272.347 610.735 260.73 616.465 248.062L614.643 247.238C608.974 259.77 602.113 271.253 594.062 281.689L595.646 282.911ZM616.465 248.062C622.188 235.411 626.56 222.902 629.576 210.537L627.633 210.063C624.649 222.298 620.32 234.689 614.643 247.238L616.465 248.062ZM629.571 210.553C632.888 197.892 634.554 186.405 634.554 176.1H632.554C632.554 186.195 630.921 197.508 627.637 210.047L629.571 210.553ZM634.554 176.1C634.554 159.493 631.237 146.853 624.435 138.35C617.599 129.805 607.375 125.6 593.954 125.6V127.6C606.933 127.6 616.509 131.645 622.873 139.6C629.271 147.597 632.554 159.707 632.554 176.1H634.554ZM593.954 125.6C582.652 125.6 572.112 128.811 562.355 135.214L563.453 136.886C572.896 130.689 583.056 127.6 593.954 127.6V125.6ZM562.355 135.214C552.649 141.584 543.72 150.065 535.562 160.639L537.146 161.861C545.188 151.435 553.959 143.116 563.453 136.886L562.355 135.214ZM535.551 160.654C527.706 171.214 520.921 182.826 515.193 195.488L517.015 196.312C522.687 183.774 529.402 172.286 537.157 161.846L535.551 160.654ZM515.197 195.48C509.474 207.828 504.954 220.182 501.638 232.541L503.57 233.059C506.854 220.818 511.334 208.572 517.011 196.32L515.197 195.48ZM501.633 232.563C498.618 244.923 497.104 256.254 497.104 266.55H499.104C499.104 256.446 500.59 245.277 503.576 233.037L501.633 232.563ZM497.104 266.55C497.104 283.602 500.419 296.575 507.215 305.302C514.048 314.076 524.274 318.4 537.704 318.4V316.4C524.734 316.4 515.16 312.249 508.793 304.073C502.389 295.85 499.104 283.398 499.104 266.55H497.104ZM706.412 259.35L707.345 259.709L707.347 259.704L706.412 259.35ZM741.962 165.3L741.052 164.886L741.038 164.916L741.026 164.946L741.962 165.3ZM744.662 156.3L743.681 156.104L743.673 156.146L743.668 156.19L744.662 156.3ZM740.612 137.4L740.075 138.244L740.612 137.4ZM728.012 134.25L727.953 135.248L727.983 135.25H728.012V134.25ZM711.812 133.8L710.852 133.52L710.479 134.8H711.812V133.8ZM714.962 123L714.944 122L714.208 122.014L714.002 122.72L714.962 123ZM788.762 121.65L789.703 121.987L790.192 120.624L788.744 120.65L788.762 121.65ZM734.762 272.4L735.699 272.749L735.703 272.737L734.762 272.4ZM730.262 303.9L729.286 304.117L729.29 304.134L729.294 304.151L730.262 303.9ZM771.662 308.85L771.179 307.974L771.172 307.978L771.166 307.982L771.662 308.85ZM796.862 289.95L797.556 290.67L796.862 289.95ZM818.462 264.75L817.646 264.171L817.643 264.177L818.462 264.75ZM833.312 237.3L832.375 236.95L832.373 236.956L833.312 237.3ZM876.062 123V122H875.368L875.125 122.65L876.062 123ZM905.762 123L906.705 123.332L907.174 122H905.762V123ZM849.512 282.75L848.569 282.418L848.556 282.455L848.546 282.492L849.512 282.75ZM846.362 294.9L847.327 295.163L847.329 295.153L847.332 295.143L846.362 294.9ZM886.862 281.85L887.417 281.018L886.538 280.432L886.001 281.341L886.862 281.85ZM894.962 287.25L895.815 287.773L896.318 286.952L895.517 286.418L894.962 287.25ZM872.912 314.25L873.607 314.969L872.912 314.25ZM820.262 320.55L819.481 321.175L819.493 321.19L819.506 321.205L820.262 320.55ZM818.462 280.05L819.428 280.308L817.667 279.444L818.462 280.05ZM783.812 313.35L784.379 314.173L784.385 314.169L784.391 314.165L783.812 313.35ZM739.262 326.3C719.757 326.3 707.7 320.685 702.475 309.877C697.192 298.951 698.662 282.314 707.345 259.709L705.478 258.991C696.761 281.686 695.006 299.024 700.674 310.748C706.399 322.59 719.466 328.3 739.262 328.3V326.3ZM707.347 259.704L742.897 165.654L741.026 164.946L705.477 258.996L707.347 259.704ZM742.872 165.714C744.402 162.348 745.341 159.244 745.656 156.41L743.668 156.19C743.383 158.756 742.522 161.652 741.052 164.886L742.872 165.714ZM745.643 156.496C746.25 153.458 746.562 150.838 746.562 148.65H744.562C744.562 150.662 744.274 153.142 743.681 156.104L745.643 156.496ZM746.562 148.65C746.562 143.052 744.84 138.906 741.149 136.556L740.075 138.244C742.983 140.094 744.562 143.448 744.562 148.65H746.562ZM741.149 136.556C737.646 134.327 733.245 133.25 728.012 133.25V135.25C732.979 135.25 736.977 136.272 740.075 138.244L741.149 136.556ZM728.071 133.252C722.949 132.95 717.529 132.8 711.812 132.8V134.8C717.495 134.8 722.875 134.95 727.953 135.248L728.071 133.252ZM712.772 134.08L715.922 123.28L714.002 122.72L710.852 133.52L712.772 134.08ZM714.98 124L788.78 122.65L788.744 120.65L714.944 122L714.98 124ZM787.82 121.313L733.82 272.063L735.703 272.737L789.703 121.987L787.82 121.313ZM733.825 272.051C728.997 285.025 727.425 295.742 729.286 304.117L731.238 303.683C729.499 295.858 730.927 285.575 735.699 272.749L733.825 272.051ZM729.294 304.151C730.393 308.39 732.499 311.65 735.655 313.835C738.797 316.01 742.878 317.05 747.812 317.05V315.05C743.146 315.05 739.502 314.065 736.794 312.19C734.099 310.325 732.231 307.51 731.23 303.649L729.294 304.151ZM747.812 317.05C755.529 317.05 763.65 314.58 772.158 309.718L771.166 307.982C762.874 312.72 755.094 315.05 747.812 315.05V317.05ZM772.145 309.726C780.931 304.878 789.401 298.523 797.556 290.67L796.168 289.23C788.123 296.977 779.793 303.222 771.179 307.974L772.145 309.726ZM797.556 290.67C805.701 282.827 812.943 274.378 819.281 265.323L817.643 264.177C811.381 273.122 804.223 281.473 796.168 289.23L797.556 290.67ZM819.277 265.329C825.919 255.97 830.915 246.742 834.251 237.644L832.373 236.956C829.109 245.858 824.204 254.93 817.646 264.171L819.277 265.329ZM834.249 237.65L876.999 123.35L875.125 122.65L832.375 236.95L834.249 237.65ZM876.062 124H905.762V122H876.062V124ZM904.819 122.668L848.569 282.418L850.455 283.082L906.705 123.332L904.819 122.668ZM848.546 282.492C847.345 286.996 846.293 291.051 845.392 294.657L847.332 295.143C848.231 291.549 849.279 287.504 850.478 283.008L848.546 282.492ZM845.397 294.637C844.483 297.99 844.012 300.932 844.012 303.45H846.012C846.012 301.168 846.441 298.41 847.327 295.163L845.397 294.637ZM844.012 303.45C844.012 306.557 844.629 309.072 846.031 310.825C847.467 312.62 849.591 313.45 852.212 313.45V311.45C850.033 311.45 848.557 310.78 847.593 309.575C846.595 308.328 846.012 306.343 846.012 303.45H844.012ZM852.212 313.45C859.194 313.45 865.892 309.793 872.3 302.774L870.823 301.426C864.632 308.207 858.43 311.45 852.212 311.45V313.45ZM872.3 302.774C878.637 295.834 883.781 289.029 887.723 282.359L886.001 281.341C882.143 287.871 877.087 294.566 870.823 301.426L872.3 302.774ZM886.307 282.682L894.407 288.082L895.517 286.418L887.417 281.018L886.307 282.682ZM894.109 286.727C888.459 295.946 881.165 304.881 872.217 313.531L873.607 314.969C882.659 306.219 890.065 297.154 895.815 287.773L894.109 286.727ZM872.217 313.531C863.41 322.045 852.711 326.3 840.062 326.3V328.3C853.212 328.3 864.414 323.855 873.607 314.969L872.217 313.531ZM840.062 326.3C830.89 326.3 824.642 324.078 821.018 319.895L819.506 321.205C823.681 326.022 830.634 328.3 840.062 328.3V326.3ZM821.043 319.925C817.622 315.65 815.862 309.892 815.862 302.55H813.862C813.862 310.208 815.701 316.45 819.481 321.175L821.043 319.925ZM815.862 302.55C815.862 296.671 817.04 289.264 819.428 280.308L817.496 279.792C815.084 288.836 813.862 296.429 813.862 302.55H815.862ZM817.667 279.444C808.13 291.96 796.654 302.991 783.232 312.535L784.391 314.165C797.97 304.509 809.594 293.34 819.257 280.656L817.667 279.444ZM783.245 312.526C769.909 321.713 755.257 326.3 739.262 326.3V328.3C755.667 328.3 770.714 323.587 784.379 314.173L783.245 312.526ZM943.653 320.55L942.877 321.181L942.887 321.193L942.898 321.205L943.653 320.55ZM939.603 288.15L940.577 288.379L940.58 288.367L939.603 288.15ZM944.553 271.5L945.492 271.846L945.494 271.838L944.553 271.5ZM994.053 133.8L994.994 134.138L995.475 132.8H994.053V133.8ZM964.803 133.8L963.855 133.484L963.416 134.8H964.803V133.8ZM968.403 123V122H967.683L967.455 122.684L968.403 123ZM998.103 123V124H998.806L999.044 123.339L998.103 123ZM1012.05 84.3V83.3H1011.35L1011.11 83.9609L1012.05 84.3ZM1042.2 84.3L1043.15 84.6294L1043.61 83.3H1042.2V84.3ZM1028.7 123L1027.76 122.671L1027.3 124H1028.7V123ZM1070.1 123L1071.05 123.316L1071.49 122H1070.1V123ZM1066.5 133.8V134.8H1067.22L1067.45 134.116L1066.5 133.8ZM1024.65 133.8V132.8H1023.94L1023.71 133.469L1024.65 133.8ZM972.003 284.1L971.06 283.769L971.057 283.777L971.055 283.784L972.003 284.1ZM999.003 303L999.71 303.707L999.719 303.699L999.727 303.69L999.003 303ZM1014.3 283.2L1014.86 282.368L1013.98 281.782L1013.44 282.691L1014.3 283.2ZM1022.4 288.6L1023.26 289.123L1023.76 288.302L1022.96 287.768L1022.4 288.6ZM999.003 315.15L999.648 315.914L999.65 315.913L999.003 315.15ZM962.553 326.3C954.007 326.3 948.045 324.09 944.409 319.895L942.898 321.205C947.062 326.01 953.7 328.3 962.553 328.3V326.3ZM944.429 319.919C940.703 315.333 938.803 309.421 938.803 302.1H936.803C936.803 309.779 938.803 316.167 942.877 321.181L944.429 319.919ZM938.803 302.1C938.803 297.993 939.39 293.422 940.577 288.379L938.63 287.921C937.416 293.078 936.803 297.807 936.803 302.1H938.803ZM940.58 288.367C941.769 283.015 943.406 277.508 945.492 271.846L943.615 271.154C941.501 276.892 939.838 282.485 938.627 287.933L940.58 288.367ZM945.494 271.838L994.994 134.138L993.112 133.462L943.612 271.162L945.494 271.838ZM994.053 132.8H964.803V134.8H994.053V132.8ZM965.752 134.116L969.352 123.316L967.455 122.684L963.855 133.484L965.752 134.116ZM968.403 124H998.103V122H968.403V124ZM999.044 123.339L1012.99 84.6391L1011.11 83.9609L997.163 122.661L999.044 123.339ZM1012.05 85.3H1042.2V83.3H1012.05V85.3ZM1041.26 83.9706L1027.76 122.671L1029.65 123.329L1043.15 84.6294L1041.26 83.9706ZM1028.7 124H1070.1V122H1028.7V124ZM1069.15 122.684L1065.55 133.484L1067.45 134.116L1071.05 123.316L1069.15 122.684ZM1066.5 132.8H1024.65V134.8H1066.5V132.8ZM1023.71 133.469L971.06 283.769L972.947 284.431L1025.6 134.131L1023.71 133.469ZM971.055 283.784C968.65 290.999 967.403 296.528 967.403 300.3H969.403C969.403 296.872 970.557 291.601 972.952 284.416L971.055 283.784ZM967.403 300.3C967.403 304.477 968.329 307.797 970.356 310.077C972.403 312.38 975.417 313.45 979.203 313.45V311.45C975.79 311.45 973.404 310.495 971.851 308.748C970.278 306.978 969.403 304.223 969.403 300.3H967.403ZM979.203 313.45C986.44 313.45 993.28 310.138 999.71 303.707L998.296 302.293C992.127 308.462 985.767 311.45 979.203 311.45V313.45ZM999.727 303.69C1006.07 297.045 1011.22 290.385 1015.16 283.709L1013.44 282.691C1009.59 289.215 1004.54 295.755 998.28 302.31L999.727 303.69ZM1013.75 284.032L1021.85 289.432L1022.96 287.768L1014.86 282.368L1013.75 284.032ZM1021.55 288.077C1015.92 297.272 1008.19 306.043 998.356 314.387L999.65 315.913C1009.62 307.457 1017.49 298.528 1023.26 289.123L1021.55 288.077ZM998.358 314.386C988.969 322.308 977.06 326.3 962.553 326.3V328.3C977.447 328.3 989.838 324.192 999.648 315.914L998.358 314.386ZM1420.93 320.1L1420.18 320.759L1420.19 320.771L1420.2 320.784L1420.93 320.1ZM1416.88 282.3L1415.91 282.048L1415.91 282.063L1415.91 282.078L1416.88 282.3ZM1423.63 260.25L1422.69 259.906L1422.69 259.914L1422.69 259.923L1423.63 260.25ZM1460.08 160.8L1461.02 161.144L1461.02 161.137L1461.02 161.13L1460.08 160.8ZM1458.28 132L1457.65 132.774L1457.67 132.792L1457.69 132.809L1458.28 132ZM1422.28 134.7L1421.81 133.819L1422.28 134.7ZM1397.98 152.25L1397.3 151.515L1397.3 151.522L1397.29 151.529L1397.98 152.25ZM1377.73 176.1L1378.54 176.681L1378.55 176.674L1378.55 176.668L1377.73 176.1ZM1364.23 200.85L1363.29 200.503L1363.29 200.509L1364.23 200.85ZM1320.58 321V322H1321.28L1321.52 321.341L1320.58 321ZM1287.28 321L1286.34 320.657L1285.85 322H1287.28V321ZM1345.78 160.8L1346.72 161.143L1346.72 161.13L1345.78 160.8ZM1306.63 135.6L1307.13 136.468L1307.14 136.463L1306.63 135.6ZM1282.33 154.95L1283.04 155.657L1283.04 155.65L1283.05 155.644L1282.33 154.95ZM1261.63 180.15L1262.45 180.718L1262.46 180.711L1262.46 180.705L1261.63 180.15ZM1248.13 205.35L1247.19 205.003L1247.19 205.01L1248.13 205.35ZM1206.28 321V322H1206.98L1207.22 321.34L1206.28 321ZM1173.88 321L1172.94 320.661L1172.46 322H1173.88V321ZM1229.68 166.2L1228.75 165.841L1228.74 165.851L1228.74 165.861L1229.68 166.2ZM1225.18 135.15L1225.03 136.139L1225.06 136.143L1225.08 136.145L1225.18 135.15ZM1203.58 133.8L1202.63 133.484L1202.19 134.8H1203.58V133.8ZM1207.18 123L1207.16 122L1206.46 122.015L1206.23 122.684L1207.18 123ZM1273.33 121.65L1274.29 121.936L1274.68 120.622L1273.31 120.65L1273.33 121.65ZM1260.28 165.3L1259.32 165.014L1261.08 165.906L1260.28 165.3ZM1294.93 131.55L1294.34 130.744L1294.93 131.55ZM1369.63 126.15L1368.85 126.779L1368.87 126.799L1368.89 126.819L1369.63 126.15ZM1376.38 163.05L1375.4 162.876L1377.18 163.653L1376.38 163.05ZM1410.13 130.65L1409.56 129.826L1409.56 129.833L1410.13 130.65ZM1484.38 126.15L1483.64 126.821L1483.66 126.839L1483.67 126.857L1484.38 126.15ZM1488.88 172.05L1487.95 171.691L1487.94 171.699L1487.94 171.708L1488.88 172.05ZM1451.53 274.65L1450.59 274.308L1450.58 274.33L1450.58 274.352L1451.53 274.65ZM1447.48 288.6L1446.51 288.342L1446.51 288.373L1446.5 288.404L1447.48 288.6ZM1447.93 309.3L1447.04 309.747L1447.05 309.772L1447.06 309.796L1447.93 309.3ZM1470.88 303L1470.16 302.31L1470.16 302.31L1470.88 303ZM1486.18 283.2L1486.74 282.368L1485.86 281.782L1485.32 282.691L1486.18 283.2ZM1494.28 288.6L1495.13 289.123L1495.64 288.302L1494.84 287.768L1494.28 288.6ZM1472.68 315.15L1473.38 315.87L1473.38 315.869L1472.68 315.15ZM1443.43 326.3C1433.05 326.3 1425.88 323.922 1421.66 319.416L1420.2 320.784C1424.98 325.878 1432.81 328.3 1443.43 328.3V326.3ZM1421.68 319.441C1417.68 314.869 1415.63 308.675 1415.63 300.75H1413.63C1413.63 309.025 1415.78 315.731 1420.18 320.759L1421.68 319.441ZM1415.63 300.75C1415.63 295.137 1416.37 289.062 1417.86 282.522L1415.91 282.078C1414.39 288.738 1413.63 294.963 1413.63 300.75H1415.63ZM1417.85 282.552C1419.64 275.681 1421.88 268.356 1424.58 260.577L1422.69 259.923C1419.98 267.744 1417.72 275.119 1415.91 282.048L1417.85 282.552ZM1424.57 260.594L1461.02 161.144L1459.14 160.456L1422.69 259.906L1424.57 260.594ZM1461.02 161.13C1463.15 155.057 1464.23 149.542 1464.23 144.6H1462.23C1462.23 149.258 1461.21 154.543 1459.14 160.47L1461.02 161.13ZM1464.23 144.6C1464.23 138.438 1462.53 133.856 1458.87 131.191L1457.69 132.809C1460.63 134.944 1462.23 138.762 1462.23 144.6H1464.23ZM1458.91 131.226C1455.41 128.361 1451.13 126.95 1446.13 126.95V128.95C1450.73 128.95 1454.55 130.238 1457.65 132.774L1458.91 131.226ZM1446.13 126.95C1438.43 126.95 1430.32 129.261 1421.81 133.819L1422.75 135.581C1431.05 131.139 1438.83 128.95 1446.13 128.95V126.95ZM1421.81 133.819C1413.33 138.363 1405.16 144.264 1397.3 151.515L1398.66 152.985C1406.4 145.836 1414.44 140.037 1422.75 135.581L1421.81 133.819ZM1397.29 151.529C1389.74 158.776 1382.95 166.778 1376.91 175.532L1378.55 176.668C1384.52 168.022 1391.22 160.124 1398.67 152.971L1397.29 151.529ZM1376.92 175.519C1370.88 183.977 1366.33 192.305 1363.29 200.503L1365.17 201.197C1368.13 193.195 1372.59 185.023 1378.54 176.681L1376.92 175.519ZM1363.29 200.509L1319.64 320.659L1321.52 321.341L1365.17 201.191L1363.29 200.509ZM1320.58 320H1287.28V322H1320.58V320ZM1288.22 321.343L1346.72 161.143L1344.84 160.457L1286.34 320.657L1288.22 321.343ZM1346.72 161.13C1348.85 155.064 1349.93 149.698 1349.93 145.05H1347.93C1347.93 149.402 1346.91 154.536 1344.84 160.47L1346.72 161.13ZM1349.93 145.05C1349.93 138.878 1348.23 134.184 1344.61 131.226L1343.35 132.774C1346.33 135.216 1347.93 139.222 1347.93 145.05H1349.93ZM1344.61 131.226C1341.11 128.361 1336.83 126.95 1331.83 126.95V128.95C1336.43 128.95 1340.25 130.238 1343.35 132.774L1344.61 131.226ZM1331.83 126.95C1323.51 126.95 1314.94 129.569 1306.13 134.737L1307.14 136.463C1315.72 131.431 1323.95 128.95 1331.83 128.95V126.95ZM1306.13 134.732C1297.64 139.586 1289.47 146.099 1281.61 154.256L1283.05 155.644C1290.8 147.601 1298.82 141.214 1307.13 136.468L1306.13 134.732ZM1281.62 154.243C1273.78 162.089 1266.84 170.539 1260.8 179.595L1262.46 180.705C1268.43 171.761 1275.28 163.411 1283.04 155.657L1281.62 154.243ZM1260.81 179.582C1254.77 188.336 1250.23 196.81 1247.19 205.003L1249.07 205.697C1252.03 197.69 1256.49 189.364 1262.45 180.718L1260.81 179.582ZM1247.19 205.01L1205.34 320.66L1207.22 321.34L1249.07 205.69L1247.19 205.01ZM1206.28 320H1173.88V322H1206.28V320ZM1174.82 321.339L1230.62 166.539L1228.74 165.861L1172.94 320.661L1174.82 321.339ZM1230.61 166.559C1233.63 158.716 1235.18 152.282 1235.18 147.3H1233.18C1233.18 151.918 1231.73 158.084 1228.75 165.841L1230.61 166.559ZM1235.18 147.3C1235.18 143.435 1234.41 140.305 1232.73 138.042C1231.03 135.746 1228.5 134.477 1225.28 134.155L1225.08 136.145C1227.86 136.423 1229.83 137.479 1231.13 139.233C1232.45 141.02 1233.18 143.665 1233.18 147.3H1235.18ZM1225.33 134.161C1219.27 133.251 1212.01 132.8 1203.58 132.8V134.8C1211.95 134.8 1219.1 135.249 1225.03 136.139L1225.33 134.161ZM1204.53 134.116L1208.13 123.316L1206.23 122.684L1202.63 133.484L1204.53 134.116ZM1207.2 124L1273.35 122.65L1273.31 120.65L1207.16 122L1207.2 124ZM1272.37 121.364L1259.32 165.014L1261.24 165.586L1274.29 121.936L1272.37 121.364ZM1261.08 165.906C1270.62 153.386 1282.1 142.203 1295.52 132.356L1294.34 130.744C1280.77 140.697 1269.15 152.014 1259.49 164.694L1261.08 165.906ZM1295.52 132.356C1308.85 122.583 1323.79 117.7 1340.38 117.7V115.7C1323.37 115.7 1308.01 120.717 1294.34 130.744L1295.52 132.356ZM1340.38 117.7C1354.7 117.7 1364.05 120.844 1368.85 126.779L1370.41 125.521C1365.01 118.856 1354.86 115.7 1340.38 115.7V117.7ZM1368.89 126.819C1374.1 132.608 1376.73 140.007 1376.73 149.1H1378.73C1378.73 139.593 1375.96 131.692 1370.37 125.481L1368.89 126.819ZM1376.73 149.1C1376.73 153.23 1376.29 157.821 1375.4 162.876L1377.37 163.224C1378.27 158.079 1378.73 153.37 1378.73 149.1H1376.73ZM1377.18 163.653C1386.41 151.439 1397.59 140.711 1410.71 131.467L1409.56 129.833C1396.27 139.189 1384.95 150.061 1375.58 162.447L1377.18 163.653ZM1410.7 131.474C1424.03 122.287 1438.69 117.7 1454.68 117.7V115.7C1438.28 115.7 1423.23 120.413 1409.56 129.826L1410.7 131.474ZM1454.68 117.7C1468.68 117.7 1478.22 120.834 1483.64 126.821L1485.12 125.479C1479.14 118.866 1468.88 115.7 1454.68 115.7V117.7ZM1483.67 126.857C1489.47 132.657 1492.38 139.897 1492.38 148.65H1494.38C1494.38 139.403 1491.29 131.643 1485.09 125.443L1483.67 126.857ZM1492.38 148.65C1492.38 156.319 1490.91 163.997 1487.95 171.691L1489.81 172.409C1492.86 164.503 1494.38 156.581 1494.38 148.65H1492.38ZM1487.94 171.708L1450.59 274.308L1452.47 274.992L1489.82 172.392L1487.94 171.708ZM1450.58 274.352C1449.07 279.164 1447.72 283.828 1446.51 288.342L1448.45 288.858C1449.64 284.372 1450.99 279.736 1452.49 274.948L1450.58 274.352ZM1446.5 288.404C1445.59 292.952 1445.13 297.069 1445.13 300.75H1447.13C1447.13 297.231 1447.57 293.248 1448.46 288.796L1446.5 288.404ZM1445.13 300.75C1445.13 304.17 1445.75 307.18 1447.04 309.747L1448.83 308.853C1447.71 306.62 1447.13 303.93 1447.13 300.75H1445.13ZM1447.06 309.796C1448.49 312.286 1450.97 313.45 1454.23 313.45V311.45C1451.49 311.45 1449.78 310.514 1448.8 308.804L1447.06 309.796ZM1454.23 313.45C1459.74 313.45 1465.54 310.056 1471.61 303.69L1470.16 302.31C1464.22 308.544 1458.92 311.45 1454.23 311.45V313.45ZM1471.6 303.69C1477.95 297.045 1483.1 290.385 1487.04 283.709L1485.32 282.691C1481.47 289.215 1476.41 295.755 1470.16 302.31L1471.6 303.69ZM1485.63 284.032L1493.73 289.432L1494.84 287.768L1486.74 282.368L1485.63 284.032ZM1493.43 288.077C1487.78 297.298 1480.63 306.083 1471.99 314.431L1473.38 315.869C1482.13 307.417 1489.39 298.502 1495.13 289.123L1493.43 288.077ZM1471.99 314.43C1463.76 322.361 1454.26 326.3 1443.43 326.3V328.3C1454.8 328.3 1464.8 324.139 1473.38 315.87L1471.99 314.43ZM1563.28 316.95L1562.69 317.759L1562.7 317.769L1562.71 317.778L1563.28 316.95ZM1541.23 289.05L1540.29 289.409L1540.3 289.424L1540.3 289.438L1541.23 289.05ZM1545.28 199.95L1546.19 200.363L1546.19 200.356L1545.28 199.95ZM1574.08 157.2L1574.79 157.898L1574.8 157.89L1574.08 157.2ZM1613.23 127.95L1612.79 127.048L1612.79 127.052L1613.23 127.95ZM1689.73 128.4L1689.06 129.147L1689.08 129.16L1689.09 129.173L1689.73 128.4ZM1702.33 156.3L1703.33 156.317L1703.33 156.308V156.3H1702.33ZM1677.13 198.15L1677.65 199.003L1677.65 199.001L1677.13 198.15ZM1611.43 217.5L1611.52 218.496L1611.53 218.494L1611.43 217.5ZM1573.63 221.1L1573.53 220.104L1572.83 220.171L1572.66 220.848L1573.63 221.1ZM1571.83 286.35L1570.86 286.625L1570.87 286.64L1570.87 286.656L1571.83 286.35ZM1584.88 307.5L1584.19 308.225L1584.2 308.234L1584.21 308.243L1584.88 307.5ZM1640.23 304.35L1640.84 305.138L1640.84 305.135L1640.23 304.35ZM1663.63 280.5L1664.26 279.728L1663.43 279.042L1662.81 279.924L1663.63 280.5ZM1671.28 286.8L1672.09 287.384L1672.63 286.623L1671.91 286.028L1671.28 286.8ZM1644.28 314.25L1644.89 315.037L1644.28 314.25ZM1625.83 138.3L1625.22 137.506L1625.83 138.3ZM1597.48 169.35L1596.65 168.791L1597.48 169.35ZM1576.78 211.65L1575.83 211.334L1575.31 212.869L1576.92 212.64L1576.78 211.65ZM1601.98 208.05L1602.12 209.04L1602.12 209.039L1601.98 208.05ZM1640.23 197.25L1639.79 196.35L1639.78 196.356L1640.23 197.25ZM1662.73 181.05L1663.49 181.698L1662.73 181.05ZM1673.08 163.95L1674.02 164.266L1674.03 164.259L1674.03 164.251L1673.08 163.95ZM1602.43 326.3C1586.67 326.3 1573.83 322.881 1563.84 316.122L1562.71 317.778C1573.12 324.819 1586.38 328.3 1602.43 328.3V326.3ZM1563.86 316.141C1554.11 309.05 1546.88 299.896 1542.15 288.662L1540.3 289.438C1545.17 301.004 1552.64 310.45 1562.69 317.759L1563.86 316.141ZM1542.16 288.691C1537.7 277.112 1535.48 264.784 1535.48 251.7H1533.48C1533.48 265.016 1535.75 277.588 1540.29 289.409L1542.16 288.691ZM1535.48 251.7C1535.48 233.233 1539.05 216.125 1546.19 200.362L1544.36 199.537C1537.1 215.575 1533.48 232.967 1533.48 251.7H1535.48ZM1546.19 200.356C1553.34 184.261 1562.88 170.111 1574.79 157.898L1573.36 156.502C1561.27 168.889 1551.61 183.239 1544.36 199.544L1546.19 200.356ZM1574.8 157.89C1586.73 145.366 1599.68 135.691 1613.66 128.848L1612.79 127.052C1598.57 134.009 1585.42 143.834 1573.35 156.51L1574.8 157.89ZM1613.66 128.852C1627.94 122.009 1642.19 118.6 1656.43 118.6V116.6C1641.86 116.6 1627.31 120.091 1612.79 127.048L1613.66 128.852ZM1656.43 118.6C1670.36 118.6 1681.19 122.154 1689.06 129.147L1690.39 127.653C1682.06 120.246 1670.69 116.6 1656.43 116.6V118.6ZM1689.09 129.173C1697.24 135.867 1701.33 144.873 1701.33 156.3H1703.33C1703.33 144.327 1699.01 134.733 1690.36 127.627L1689.09 129.173ZM1701.33 156.283C1701.03 173.606 1692.84 187.258 1676.6 197.299L1677.65 199.001C1694.41 188.642 1703.02 174.394 1703.33 156.317L1701.33 156.283ZM1676.6 197.297C1660.57 207.093 1638.83 213.515 1611.32 216.506L1611.53 218.494C1639.22 215.485 1661.28 209.007 1677.65 199.003L1676.6 197.297ZM1611.33 216.505L1573.53 220.104L1573.72 222.095L1611.52 218.495L1611.33 216.505ZM1572.66 220.848C1569.04 234.719 1567.23 248.004 1567.23 260.7H1569.23C1569.23 248.195 1571.01 235.081 1574.59 221.352L1572.66 220.848ZM1567.23 260.7C1567.23 269.493 1568.44 278.136 1570.86 286.625L1572.79 286.075C1570.41 277.764 1569.23 269.307 1569.23 260.7H1567.23ZM1570.87 286.656C1573.62 295.205 1578.06 302.402 1584.19 308.225L1585.56 306.775C1579.69 301.198 1575.43 294.295 1572.78 286.044L1570.87 286.656ZM1584.21 308.243C1590.42 313.839 1598.48 316.6 1608.28 316.6V314.6C1598.87 314.6 1591.33 311.961 1585.54 306.757L1584.21 308.243ZM1608.28 316.6C1620.21 316.6 1631.07 312.769 1640.84 305.138L1639.61 303.562C1630.18 310.931 1619.74 314.6 1608.28 314.6V316.6ZM1640.84 305.135C1650.8 297.291 1658.67 289.273 1664.44 281.076L1662.81 279.924C1657.18 287.927 1649.45 295.809 1639.61 303.565L1640.84 305.135ZM1662.99 281.272L1670.64 287.572L1671.91 286.028L1664.26 279.728L1662.99 281.272ZM1670.46 286.216C1663.63 295.727 1654.7 304.81 1643.66 313.463L1644.89 315.037C1656.05 306.29 1665.12 297.073 1672.09 287.384L1670.46 286.216ZM1643.66 313.463C1632.77 322 1619.05 326.3 1602.43 326.3V328.3C1619.4 328.3 1633.58 323.9 1644.89 315.037L1643.66 313.463ZM1655.98 125.6C1645.8 125.6 1635.54 129.612 1625.22 137.506L1626.43 139.094C1636.51 131.388 1646.35 127.6 1655.98 127.6V125.6ZM1625.22 137.506C1614.92 145.384 1605.39 155.819 1596.65 168.791L1598.3 169.909C1606.96 157.081 1616.33 146.816 1626.43 139.094L1625.22 137.506ZM1596.65 168.791C1587.89 181.769 1580.95 195.951 1575.83 211.334L1577.72 211.966C1582.8 196.749 1589.66 182.731 1598.3 169.909L1596.65 168.791ZM1576.92 212.64L1602.12 209.04L1601.83 207.06L1576.63 210.66L1576.92 212.64ZM1602.12 209.039C1618.08 206.63 1630.94 203.008 1640.67 198.144L1639.78 196.356C1630.31 201.092 1617.67 204.67 1601.83 207.061L1602.12 209.039ZM1640.66 198.15C1650.64 193.312 1658.27 187.837 1663.49 181.698L1661.96 180.402C1656.98 186.263 1649.61 191.588 1639.79 196.35L1640.66 198.15ZM1663.49 181.698C1668.64 175.635 1672.17 169.825 1674.02 164.266L1672.13 163.634C1670.38 168.875 1667.01 174.465 1661.96 180.402L1663.49 181.698ZM1674.03 164.251C1675.84 158.5 1676.78 153.591 1676.78 149.55H1674.78C1674.78 153.309 1673.91 158 1672.12 163.649L1674.03 164.251ZM1676.78 149.55C1676.78 142.511 1675.24 136.737 1672.09 132.319L1670.46 133.481C1673.31 137.463 1674.78 142.789 1674.78 149.55H1676.78ZM1672.09 132.319C1668.83 127.761 1663.36 125.6 1655.98 125.6V127.6C1662.99 127.6 1667.72 129.639 1670.46 133.481L1672.09 132.319Z" fill="#103939" fill-opacity="0.07"/>
</svg>
