<svg width="11" height="20" viewBox="0 0 11 20" fill="none" xmlns="http://www.w3.org/2000/svg">
<g clip-path="url(#clip0_31_309)">
<path d="M9.49231 0H1.37282C1.00876 0.000407427 0.659739 0.145245 0.402359 0.402721C0.144978 0.660197 0.000271458 1.00927 0 1.37333L0 18.6272C0.000407201 18.9912 0.145174 19.3401 0.40254 19.5975C0.659905 19.8548 1.00885 19.9996 1.37282 20H9.49231C9.85628 19.9996 10.2052 19.8548 10.4626 19.5975C10.72 19.3401 10.8647 18.9912 10.8651 18.6272V1.37333C10.8649 1.00927 10.7202 0.660197 10.4628 0.402721C10.2054 0.145245 9.85637 0.000407427 9.49231 0ZM0.717949 4.77538H10.1538V15.2241H0.717949V4.77538ZM1.37282 0.717949H9.49231C9.66649 0.718085 9.83351 0.78734 9.95667 0.910507C10.0798 1.03367 10.1491 1.20069 10.1492 1.37487V4.05949H0.717949V1.37333C0.718489 1.19977 0.787641 1.03346 0.910322 0.910684C1.033 0.787907 1.19926 0.718625 1.37282 0.717949ZM9.49231 19.2821H1.37282C1.19935 19.2814 1.03317 19.2122 0.910502 19.0895C0.787836 18.9668 0.718624 18.8007 0.717949 18.6272V15.94H10.1492V18.6267C10.1488 18.8006 10.0794 18.9673 9.95628 19.0902C9.83313 19.2131 9.66627 19.2821 9.49231 19.2821Z" fill="#103939"/>
<path d="M4.92462 2.74563H5.93949C6.0347 2.74563 6.126 2.70781 6.19332 2.64049C6.26064 2.57317 6.29846 2.48186 6.29846 2.38665C6.29846 2.29145 6.26064 2.20014 6.19332 2.13282C6.126 2.0655 6.0347 2.02768 5.93949 2.02768H4.92462C4.82941 2.02768 4.7381 2.0655 4.67078 2.13282C4.60346 2.20014 4.56564 2.29145 4.56564 2.38665C4.56564 2.48186 4.60346 2.57317 4.67078 2.64049C4.7381 2.70781 4.82941 2.74563 4.92462 2.74563Z" fill="#103939"/>
<path d="M5.76308 17.4764C5.75583 17.4533 5.74492 17.4315 5.73077 17.4118L5.68769 17.3605C5.61835 17.2969 5.52768 17.2616 5.43359 17.2616C5.3395 17.2616 5.24883 17.2969 5.17949 17.3605C5.14612 17.3942 5.11986 17.4343 5.10224 17.4783C5.08462 17.5224 5.07602 17.5695 5.07692 17.6169C5.07624 17.6643 5.08496 17.7114 5.10256 17.7554C5.12017 17.7994 5.14631 17.8395 5.17949 17.8733C5.22987 17.9235 5.29403 17.9576 5.36382 17.9713C5.43361 17.985 5.50589 17.9776 5.57148 17.9501C5.63708 17.9227 5.69304 17.8763 5.73227 17.817C5.77149 17.7577 5.79221 17.688 5.79179 17.6169C5.7912 17.5929 5.7888 17.5689 5.78462 17.5451C5.78069 17.5226 5.77343 17.5009 5.76308 17.4805" fill="#103939"/>
</g>
<defs>
<clipPath id="clip0_31_309">
<rect width="10.8651" height="20" fill="white"/>
</clipPath>
</defs>
</svg>
