<svg width="20" height="20" viewBox="0 0 20 20" fill="none" xmlns="http://www.w3.org/2000/svg">
<path d="M19.9986 10C20.0003 7.86707 19.3162 5.79009 18.0474 4.07561L18.0586 4.06878L17.7879 3.73317C17.7644 3.70439 17.7391 3.67707 17.7152 3.64829L17.6883 3.61756C16.5643 2.25815 15.0999 1.22111 13.4444 0.612195L13.4298 0.606829C13.301 0.558049 13.1713 0.516585 13.0396 0.474634L12.922 0.439024C12.8098 0.406504 12.6968 0.373984 12.583 0.341463C12.5225 0.324878 12.461 0.309268 12.4001 0.292683C12.2996 0.26878 12.1986 0.243902 12.0961 0.223415C12.0181 0.206829 11.9396 0.191707 11.861 0.174634C11.7708 0.157561 11.681 0.140488 11.5903 0.125854C11.4996 0.11122 11.402 0.0985366 11.3079 0.0863415C11.2303 0.0780488 11.1513 0.0668293 11.0718 0.0585366C10.9581 0.0463415 10.8435 0.0380488 10.7303 0.0297561C10.6669 0.0253659 10.6044 0.0185366 10.5405 0.015122C10.3607 0.00504065 10.1801 0 9.99859 0C9.81713 0 9.63664 0.00504065 9.45713 0.015122C9.39371 0.0180488 9.33078 0.0248781 9.26737 0.0297561C9.15273 0.037561 9.0381 0.0463415 8.92591 0.0585366C8.84639 0.0668293 8.76737 0.0785366 8.68786 0.0892683C8.59371 0.101463 8.49957 0.113659 8.40591 0.12878C8.31225 0.143902 8.22493 0.16 8.13517 0.177561C8.05615 0.192683 7.97761 0.207317 7.89957 0.226341C7.79859 0.248293 7.6981 0.27122 7.59761 0.296098C7.53615 0.311382 7.47501 0.327642 7.4142 0.344878C7.30038 0.375122 7.18737 0.407642 7.07517 0.442439L6.95713 0.48C6.82639 0.521463 6.69664 0.564878 6.56688 0.612195L6.55274 0.617561C4.89728 1.22654 3.4329 2.26357 2.30883 3.62293L2.28249 3.65366C2.25859 3.68244 2.23371 3.70976 2.20981 3.73854L1.93908 4.07415L1.94981 4.07561C0.683352 5.79115 0 7.86739 0 9.99976C0 12.1321 0.683352 14.2084 1.94981 15.9239L1.93908 15.9307L2.20981 16.2663C2.23322 16.2951 2.25859 16.3224 2.28249 16.3512L2.30883 16.382C3.4329 17.7413 4.89728 18.7783 6.55274 19.3873L6.56688 19.3927C6.69566 19.4415 6.82542 19.4829 6.95713 19.5249L7.07517 19.5624C7.18737 19.595 7.30038 19.6275 7.4142 19.66C7.47534 19.6763 7.53648 19.6925 7.59761 19.7088C7.6981 19.7337 7.7981 19.7576 7.89957 19.7785C7.97761 19.7951 8.05615 19.8102 8.13517 19.8273C8.22493 19.8444 8.31469 19.8615 8.40591 19.8761C8.49713 19.8907 8.59371 19.9034 8.68786 19.9156C8.76737 19.9263 8.84639 19.9376 8.92591 19.9463C9.03908 19.9585 9.1542 19.9668 9.26737 19.9751C9.33078 19.9795 9.39371 19.9863 9.45713 19.9893C9.63664 19.9964 9.81713 20 9.99859 20C10.1801 20 10.3604 19.995 10.5396 19.9849C10.6035 19.982 10.6659 19.9751 10.7293 19.9707C10.844 19.9624 10.9586 19.9541 11.0708 19.942C11.1503 19.9337 11.2293 19.922 11.3083 19.9112C11.4025 19.899 11.4971 19.8868 11.5908 19.8717C11.6844 19.8566 11.7713 19.8405 11.8615 19.8229C11.9401 19.8078 12.0186 19.7932 12.0966 19.7741C12.1976 19.7527 12.2986 19.7293 12.3986 19.7044C12.4596 19.6893 12.521 19.6737 12.5815 19.6556C12.6953 19.6254 12.8083 19.5928 12.9205 19.5581L13.0391 19.5205C13.1698 19.479 13.2991 19.4356 13.4293 19.3883L13.444 19.3829C15.0994 18.774 16.5638 17.737 17.6879 16.3776L17.7147 16.3468C17.7381 16.3181 17.7635 16.2907 17.7874 16.262L18.0581 15.9263L18.0474 15.9239C19.3161 14.2096 20.0002 12.1328 19.9986 10ZM13.1815 18.6712L13.1508 18.6824C13.0227 18.7289 12.8926 18.7728 12.7605 18.8141L12.6864 18.8361C12.624 18.8551 12.5605 18.8722 12.4971 18.8898C13.4903 17.8555 14.2163 16.5947 14.6122 15.2166C15.4065 15.4338 16.174 15.7389 16.9005 16.1263C15.8884 17.268 14.6101 18.1422 13.1791 18.6712M7.23176 18.8141C7.10168 18.7728 6.9716 18.7289 6.84152 18.6824L6.81078 18.6712C5.37974 18.1422 4.10144 17.268 3.08932 16.1263C3.81603 15.7389 4.58371 15.4338 5.3781 15.2166C5.77387 16.5948 6.4999 17.8556 7.49322 18.8898C7.4303 18.8717 7.36639 18.8551 7.30396 18.8361L7.2303 18.8141M6.81078 1.32878L6.84152 1.31756C6.96965 1.27106 7.09973 1.22715 7.23176 1.18585L7.30542 1.1639C7.36786 1.14488 7.43176 1.1278 7.49469 1.11024C6.50136 2.14436 5.77533 3.40521 5.37956 4.78341C4.58618 4.56604 3.81949 4.26091 3.09371 3.87366C4.10583 2.73199 5.38413 1.85784 6.81517 1.32878M12.763 1.18585C12.8931 1.22715 13.0231 1.27106 13.1532 1.31756L13.184 1.32878C14.615 1.85784 15.8933 2.73199 16.9054 3.87366C16.1789 4.2611 15.4114 4.56624 14.6171 4.78341C14.2212 3.40527 13.4952 2.14447 12.502 1.11024C12.5654 1.12829 12.6288 1.14488 12.6913 1.1639L12.7654 1.18585M15.3791 9.61805C15.3592 8.23078 15.1742 6.85082 14.8279 5.50732C15.7199 5.26292 16.5796 4.91314 17.3888 4.46537C18.5102 5.95653 19.1508 7.75382 19.2254 9.61805H15.3791ZM10.3801 0.798537C11.8118 1.04585 13.081 2.6639 13.8493 4.97561C12.7091 5.22399 11.5469 5.35815 10.3801 5.3761V0.798537ZM9.61713 5.3761C8.45043 5.35814 7.28843 5.22398 6.14835 4.97561C6.91664 2.6639 8.18542 1.04585 9.61713 0.798537V5.3761ZM9.61713 6.13854V9.61854H5.38347C5.40734 8.29649 5.59045 6.98214 5.92883 5.7039C7.14029 5.97389 8.3761 6.1192 9.61713 6.13854ZM9.61713 10.3829V13.8629C8.3761 13.8823 7.14029 14.0281 5.92883 14.298C5.59045 13.0198 5.40734 11.7055 5.38347 10.3834L9.61713 10.3829ZM9.61713 14.6268V19.2044C8.18542 18.9571 6.91664 17.339 6.14835 15.0273C7.28843 14.7789 8.45043 14.6448 9.61713 14.6268ZM10.3801 14.6268C11.5469 14.6448 12.7091 14.7789 13.8493 15.0273C13.081 17.339 11.8118 18.9571 10.3801 19.2044V14.6268ZM10.3801 13.8644V10.3815H14.6132C14.5895 11.7035 14.4064 13.0179 14.0679 14.2961C12.8564 14.0261 11.6206 13.8803 10.3796 13.861M10.3796 9.61707V6.13854C11.6206 6.11922 12.8564 5.97343 14.0679 5.70341C14.4064 6.98161 14.5895 8.29599 14.6132 9.61805L10.3796 9.61707ZM5.16932 5.50732C4.82319 6.85084 4.63831 8.2308 4.61859 9.61805H0.771272C0.84608 7.75385 1.48668 5.9566 2.60786 4.46537C3.41727 4.91317 4.27715 5.26296 5.16932 5.50732ZM4.62054 10.3815C4.63962 11.7686 4.82385 13.1486 5.16932 14.4922C4.27667 14.7365 3.4163 15.0863 2.60639 15.5341C1.48574 14.0427 0.845655 12.2455 0.771272 10.3815H4.62054ZM14.8279 14.4922C15.174 13.1487 15.3589 11.7687 15.3786 10.3815H19.2279C19.1525 12.246 18.511 14.0433 17.3888 15.5341C16.5796 15.0864 15.7199 14.7366 14.8279 14.4922Z" fill="#103939"/>
</svg>
