<svg width="143" height="36" viewBox="0 0 143 36" fill="none" xmlns="http://www.w3.org/2000/svg">
<path d="M54.1393 31.6469L54.0904 25.0048L54.2045 4.36918C54.2045 2.59581 55.4108 1.77361 58.4104 1.70912C58.5897 1.70912 58.7365 1.5479 58.7365 1.37057V0.838554C58.7365 0.645094 58.5897 0.5 58.3941 0.5H47.8793C47.6836 0.5 47.5369 0.645094 47.5369 0.838554V1.37057C47.5369 1.5479 47.6836 1.70912 47.8793 1.70912C51.4005 1.75748 52.0689 2.53132 52.0689 4.36918V28.5838C52.0689 28.9063 51.645 29.0514 51.4494 28.7773L31.8054 2.48296C31.6587 2.2895 31.7565 2.01543 32.001 1.95094C32.6042 1.80585 33.3378 1.72524 34.2507 1.70912C34.43 1.70912 34.5931 1.5479 34.5931 1.37057C34.5931 1.20935 34.5931 0.99977 34.5931 0.838554C34.5931 0.645094 34.4463 0.5 34.2507 0.5H30.3382H23.7359H22.4969C22.3013 0.5 22.1546 0.645094 22.1546 0.838554V1.37057C22.1546 1.5479 22.3013 1.70912 22.4969 1.70912C25.6269 1.77361 26.8496 2.64417 26.8496 4.46591V15.9606C26.8496 16.1541 26.7028 16.2992 26.5072 16.2992H8.06954C7.87391 16.2992 7.72719 16.1541 7.72719 15.9606V4.46591C7.72719 2.64417 8.78683 1.77361 12.0799 1.70912C12.2592 1.70912 12.4222 1.5479 12.4222 1.37057V0.838554C12.4222 0.645094 12.2755 0.5 12.0799 0.5H0.342344C0.146719 0.5 0 0.645094 0 0.838554V1.37057C0 1.5479 0.146719 1.70912 0.342344 1.70912C3.8636 1.75748 4.6461 2.62805 4.6461 4.46591V30.9215C4.6461 33.0818 3.73318 34.0007 0.342344 34.0652C0.163021 34.0652 0 34.2264 0 34.4037C0 34.5649 0 34.7745 0 34.9357C0 35.1292 0.146719 35.2743 0.342344 35.2743H12.0799C12.2755 35.2743 12.4222 35.1292 12.4222 34.9357V34.4037C12.4222 34.2264 12.2755 34.0652 12.0799 34.0652C8.72162 34.0007 7.72719 33.0818 7.72719 30.9215V18.8947C7.72719 18.7013 7.87391 18.5562 8.06954 18.5562H26.5072C26.7028 18.5562 26.8496 18.7013 26.8496 18.8947V30.9215C26.8496 33.0656 25.6106 34.0007 22.4969 34.0652C22.3176 34.0652 22.1546 34.2264 22.1546 34.4037V34.9357C22.1546 35.1292 22.3013 35.2743 22.4969 35.2743H23.7196H34.5768C34.7724 35.2743 34.9191 35.1292 34.9191 34.9357V34.4037C34.9191 34.2264 34.7724 34.0652 34.5768 34.0652C32.7835 34.0329 31.6261 33.8072 30.8925 33.3236C30.1589 32.8077 29.8654 32.0339 29.8654 30.9215V5.73952C29.8654 5.41709 30.2893 5.27199 30.4849 5.52994L51.482 33.1785C51.6124 33.3397 51.5635 33.5815 51.3679 33.6783C50.6506 34.0652 49.6073 34.2748 48.189 34.2909C48.0097 34.2909 47.863 34.4521 47.863 34.6294V35.1614C47.863 35.3549 48.0097 35.5 48.2053 35.5H53.259H54.0415H58.7202C58.9158 35.5 59.0625 35.3549 59.0625 35.1614V34.6294C59.0625 34.4521 58.9158 34.2909 58.7202 34.2909C55.1826 34.2586 54.1393 33.4687 54.1393 31.6469Z" fill="#103939"/>
<path d="M68.552 22.22L68.344 21.884C68.728 21.628 69.064 21.3293 69.352 20.988C69.6507 20.6467 69.8 20.2253 69.8 19.724C69.8 19.532 69.7733 19.3507 69.72 19.18C69.6667 18.9987 69.592 18.9347 69.496 18.988C69.4747 18.9987 69.464 19.0147 69.464 19.036C69.464 19.068 69.4747 19.1107 69.496 19.164C69.5173 19.2067 69.528 19.2653 69.528 19.34C69.528 19.4893 69.448 19.628 69.288 19.756C69.1387 19.8733 68.968 19.932 68.776 19.932C68.4987 19.932 68.2693 19.8467 68.088 19.676C67.9173 19.4947 67.832 19.2653 67.832 18.988C67.832 18.6787 67.928 18.428 68.12 18.236C68.312 18.044 68.5627 17.948 68.872 17.948C69.256 17.948 69.5653 18.108 69.8 18.428C70.0347 18.7373 70.152 19.1587 70.152 19.692C70.152 20.3427 69.9973 20.8547 69.688 21.228C69.3893 21.5907 69.0107 21.9213 68.552 22.22ZM74.5014 29.676C74.096 29.676 73.7494 29.628 73.4614 29.532C73.184 29.4467 72.9654 29.3667 72.8054 29.292C72.6347 29.2067 72.528 29.164 72.4854 29.164C72.4427 29.164 72.4054 29.1853 72.3734 29.228C72.352 29.26 72.3254 29.3507 72.2934 29.5H71.9254L71.9894 28.444L72.0374 27.084H72.3894L72.4054 27.356C72.4267 27.6547 72.5227 27.9533 72.6934 28.252C72.8747 28.5507 73.12 28.8013 73.4294 29.004C73.7387 29.2067 74.096 29.308 74.5014 29.308C74.9387 29.308 75.2907 29.196 75.5574 28.972C75.824 28.748 75.9574 28.4387 75.9574 28.044C75.9574 27.7027 75.8187 27.4147 75.5414 27.18C75.2747 26.9453 74.9014 26.7373 74.4214 26.556L73.8454 26.332C73.2907 26.1187 72.8694 25.852 72.5814 25.532C72.304 25.212 72.1654 24.8013 72.1654 24.3C72.1654 23.8733 72.2614 23.5107 72.4534 23.212C72.656 22.9027 72.9174 22.6627 73.2374 22.492C73.568 22.3213 73.92 22.236 74.2934 22.236C74.56 22.236 74.784 22.268 74.9654 22.332C75.1574 22.396 75.3174 22.46 75.4454 22.524C75.552 22.5773 75.6427 22.604 75.7174 22.604C75.824 22.604 75.9094 22.492 75.9734 22.268L76.3254 22.284L76.2614 23.324V24.444H75.8934C75.8187 23.9427 75.648 23.5107 75.3814 23.148C75.1147 22.7747 74.7307 22.588 74.2294 22.588C73.8774 22.588 73.5787 22.7 73.3334 22.924C73.0987 23.148 72.9814 23.4307 72.9814 23.772C72.9814 24.1027 73.104 24.38 73.3494 24.604C73.6054 24.8173 73.952 25.0093 74.3894 25.18L75.0134 25.42C75.664 25.6653 76.112 25.964 76.3574 26.316C76.6134 26.6573 76.7414 27.068 76.7414 27.548C76.7414 28.1133 76.5494 28.6093 76.1654 29.036C75.7814 29.4627 75.2267 29.676 74.5014 29.676ZM81.8974 34.028V33.66L82.1534 33.628C82.4627 33.5853 82.6974 33.532 82.8574 33.468C83.028 33.4147 83.1454 33.2813 83.2094 33.068C83.2734 32.8653 83.3054 32.524 83.3054 32.044V24.14C83.3054 23.756 83.2467 23.4787 83.1294 23.308C83.0227 23.1267 82.8627 23.0147 82.6494 22.972C82.436 22.9187 82.1854 22.892 81.8974 22.892V22.524C82.3347 22.524 82.756 22.5027 83.1614 22.46C83.5667 22.4173 83.988 22.3587 84.4254 22.284L84.3134 23.372C84.612 23.0307 84.9534 22.7587 85.3374 22.556C85.732 22.3427 86.1694 22.236 86.6494 22.236C87.268 22.236 87.8174 22.4013 88.2974 22.732C88.788 23.0627 89.1774 23.5107 89.4654 24.076C89.7534 24.6413 89.8974 25.276 89.8974 25.98C89.8974 26.6627 89.7534 27.2867 89.4654 27.852C89.1774 28.4067 88.7827 28.8493 88.2814 29.18C87.7907 29.5107 87.2254 29.676 86.5854 29.676C86.1374 29.676 85.7267 29.5853 85.3534 29.404C84.98 29.212 84.6707 28.9987 84.4254 28.764V32.044C84.4254 32.524 84.4574 32.8653 84.5214 33.068C84.5854 33.2813 84.6974 33.4147 84.8574 33.468C85.028 33.532 85.268 33.5853 85.5774 33.628L85.8334 33.66V34.028L83.8654 33.98L81.8974 34.028ZM86.4574 22.716C86.02 22.716 85.6307 22.8227 85.2894 23.036C84.9587 23.2387 84.6707 23.4893 84.4254 23.788V28.108C84.6067 28.3853 84.8787 28.636 85.2414 28.86C85.604 29.084 86.004 29.196 86.4414 29.196C86.932 29.196 87.3374 29.0573 87.6574 28.78C87.9774 28.492 88.2174 28.108 88.3774 27.628C88.5374 27.1373 88.6174 26.588 88.6174 25.98C88.6174 25.3613 88.5374 24.8067 88.3774 24.316C88.2174 23.8253 87.9774 23.436 87.6574 23.148C87.348 22.86 86.948 22.716 86.4574 22.716ZM95.025 29.676C94.3423 29.676 93.7183 29.5107 93.153 29.18C92.5983 28.8493 92.1557 28.4067 91.825 27.852C91.505 27.2867 91.345 26.6627 91.345 25.98C91.345 25.276 91.505 24.6413 91.825 24.076C92.1557 23.5107 92.5983 23.0627 93.153 22.732C93.7183 22.4013 94.3423 22.236 95.025 22.236C95.7183 22.236 96.3423 22.4013 96.897 22.732C97.4517 23.0627 97.889 23.5107 98.209 24.076C98.5397 24.6413 98.705 25.276 98.705 25.98C98.705 26.6627 98.5397 27.2867 98.209 27.852C97.889 28.4067 97.4517 28.8493 96.897 29.18C96.3423 29.5107 95.7183 29.676 95.025 29.676ZM95.025 29.276C95.601 29.276 96.065 29.132 96.417 28.844C96.769 28.5453 97.025 28.1507 97.185 27.66C97.345 27.1587 97.425 26.5987 97.425 25.98C97.425 25.34 97.345 24.7693 97.185 24.268C97.025 23.7667 96.769 23.372 96.417 23.084C96.065 22.7853 95.601 22.636 95.025 22.636C94.449 22.636 93.985 22.7853 93.633 23.084C93.281 23.372 93.025 23.7667 92.865 24.268C92.705 24.7693 92.625 25.34 92.625 25.98C92.625 26.5987 92.705 27.1587 92.865 27.66C93.025 28.1507 93.281 28.5453 93.633 28.844C93.985 29.132 94.449 29.276 95.025 29.276ZM99.8699 29.548V29.18L100.126 29.148C100.435 29.1053 100.67 29.0573 100.83 29.004C101.001 28.94 101.118 28.8067 101.182 28.604C101.246 28.3907 101.278 28.044 101.278 27.564V24.236C101.278 23.82 101.219 23.516 101.102 23.324C100.995 23.132 100.835 23.0147 100.622 22.972C100.409 22.9187 100.158 22.892 99.8699 22.892V22.524C100.307 22.524 100.729 22.508 101.134 22.476C101.539 22.444 101.961 22.396 102.398 22.332L102.222 24.172H102.286C102.521 23.4573 102.809 22.956 103.15 22.668C103.491 22.38 103.859 22.236 104.254 22.236C104.702 22.236 105.001 22.348 105.15 22.572C105.299 22.7853 105.374 22.9933 105.374 23.196C105.374 23.4307 105.305 23.6227 105.166 23.772C105.027 23.9213 104.841 23.996 104.606 23.996C104.382 23.996 104.211 23.9427 104.094 23.836C103.977 23.7293 103.918 23.6067 103.918 23.468C103.918 23.3613 103.929 23.26 103.95 23.164C103.982 23.068 103.998 22.9933 103.998 22.94C103.998 22.8333 103.923 22.78 103.774 22.78C103.625 22.78 103.465 22.8493 103.294 22.988C103.134 23.1267 102.995 23.3187 102.878 23.564C102.782 23.7667 102.691 23.9907 102.606 24.236C102.521 24.4813 102.451 24.748 102.398 25.036V27.564C102.398 28.044 102.43 28.3907 102.494 28.604C102.558 28.8067 102.67 28.94 102.83 29.004C103.001 29.0573 103.241 29.1053 103.55 29.148L103.806 29.18V29.548L101.838 29.5L99.8699 29.548ZM109.112 29.676C108.589 29.676 108.162 29.5213 107.832 29.212C107.512 28.892 107.352 28.3747 107.352 27.66V22.924H106.168V22.524L106.6 22.492C107.037 22.46 107.368 22.284 107.592 21.964C107.826 21.6333 107.981 21.1747 108.056 20.588H108.472V22.524H110.52V22.924H108.472V27.724C108.472 28.6627 108.802 29.132 109.464 29.132C109.741 29.132 109.965 29.0413 110.136 28.86C110.306 28.668 110.461 28.4333 110.6 28.156L110.952 28.332C110.888 28.492 110.808 28.6413 110.712 28.78C110.626 28.908 110.541 29.02 110.456 29.116C110.274 29.3187 110.066 29.4627 109.832 29.548C109.608 29.6333 109.368 29.676 109.112 29.676ZM111.509 29.548V29.18L111.765 29.148C112.075 29.1053 112.309 29.0573 112.469 29.004C112.64 28.94 112.757 28.8067 112.821 28.604C112.885 28.3907 112.917 28.044 112.917 27.564V22.924H111.541V22.524H112.917V20.7C112.917 19.7187 113.131 19.0093 113.557 18.572C113.995 18.1347 114.635 17.916 115.477 17.916C116.021 17.916 116.475 18.028 116.837 18.252C117.2 18.4653 117.381 18.7853 117.381 19.212C117.381 19.4893 117.301 19.7027 117.141 19.852C116.992 19.9907 116.811 20.06 116.597 20.06C116.395 20.06 116.224 19.9907 116.085 19.852C115.957 19.7133 115.893 19.5587 115.893 19.388C115.893 19.2813 115.904 19.1907 115.925 19.116C115.947 19.0413 115.968 18.972 115.989 18.908C116.021 18.8227 116.037 18.7533 116.037 18.7C116.037 18.5613 115.979 18.4653 115.861 18.412C115.744 18.348 115.616 18.316 115.477 18.316C115.072 18.316 114.763 18.4227 114.549 18.636C114.347 18.8493 114.208 19.1373 114.133 19.5C114.069 19.8627 114.037 20.2627 114.037 20.7V22.524H115.685V22.924H114.037V27.564C114.037 28.044 114.069 28.3907 114.133 28.604C114.197 28.8067 114.309 28.94 114.469 29.004C114.64 29.0573 114.88 29.1053 115.189 29.148L115.445 29.18V29.548L113.477 29.5L111.509 29.548ZM120.619 29.676C119.936 29.676 119.312 29.5107 118.747 29.18C118.192 28.8493 117.749 28.4067 117.419 27.852C117.099 27.2867 116.939 26.6627 116.939 25.98C116.939 25.276 117.099 24.6413 117.419 24.076C117.749 23.5107 118.192 23.0627 118.747 22.732C119.312 22.4013 119.936 22.236 120.619 22.236C121.312 22.236 121.936 22.4013 122.491 22.732C123.045 23.0627 123.483 23.5107 123.803 24.076C124.133 24.6413 124.299 25.276 124.299 25.98C124.299 26.6627 124.133 27.2867 123.803 27.852C123.483 28.4067 123.045 28.8493 122.491 29.18C121.936 29.5107 121.312 29.676 120.619 29.676ZM120.619 29.276C121.195 29.276 121.659 29.132 122.011 28.844C122.363 28.5453 122.619 28.1507 122.779 27.66C122.939 27.1587 123.019 26.5987 123.019 25.98C123.019 25.34 122.939 24.7693 122.779 24.268C122.619 23.7667 122.363 23.372 122.011 23.084C121.659 22.7853 121.195 22.636 120.619 22.636C120.043 22.636 119.579 22.7853 119.227 23.084C118.875 23.372 118.619 23.7667 118.459 24.268C118.299 24.7693 118.219 25.34 118.219 25.98C118.219 26.5987 118.299 27.1587 118.459 27.66C118.619 28.1507 118.875 28.5453 119.227 28.844C119.579 29.132 120.043 29.276 120.619 29.276ZM125.256 29.548V29.18L125.512 29.148C125.821 29.1053 126.056 29.0573 126.216 29.004C126.386 28.94 126.504 28.8067 126.568 28.604C126.632 28.3907 126.664 28.044 126.664 27.564V19.756C126.664 19.2013 126.546 18.8493 126.312 18.7C126.088 18.54 125.773 18.46 125.368 18.46H125.256V18.092C125.693 18.092 126.114 18.0813 126.52 18.06C126.925 18.028 127.346 17.9747 127.784 17.9V27.564C127.784 28.044 127.816 28.3907 127.88 28.604C127.944 28.8067 128.056 28.94 128.216 29.004C128.386 29.0573 128.626 29.1053 128.936 29.148L129.192 29.18V29.548L127.224 29.5L125.256 29.548ZM129.886 29.548V29.18L130.142 29.148C130.451 29.1053 130.686 29.0573 130.846 29.004C131.016 28.94 131.134 28.8067 131.198 28.604C131.262 28.3907 131.294 28.044 131.294 27.564V24.188C131.294 23.6333 131.176 23.2813 130.942 23.132C130.718 22.972 130.403 22.892 129.998 22.892H129.886V22.524C130.323 22.524 130.744 22.5133 131.15 22.492C131.555 22.46 131.976 22.4067 132.414 22.332V27.564C132.414 28.044 132.446 28.3907 132.51 28.604C132.574 28.8067 132.686 28.94 132.846 29.004C133.016 29.0573 133.256 29.1053 133.566 29.148L133.822 29.18V29.548L131.854 29.5L129.886 29.548ZM131.662 20.46C131.384 20.46 131.166 20.364 131.006 20.172C130.846 19.98 130.766 19.7507 130.766 19.484C130.766 19.2067 130.846 18.9773 131.006 18.796C131.166 18.604 131.384 18.508 131.662 18.508C131.971 18.508 132.195 18.604 132.334 18.796C132.483 18.9773 132.558 19.2067 132.558 19.484C132.558 19.7507 132.483 19.98 132.334 20.172C132.195 20.364 131.971 20.46 131.662 20.46ZM138.384 29.676C137.702 29.676 137.078 29.5107 136.512 29.18C135.958 28.8493 135.515 28.4067 135.184 27.852C134.864 27.2867 134.704 26.6627 134.704 25.98C134.704 25.276 134.864 24.6413 135.184 24.076C135.515 23.5107 135.958 23.0627 136.512 22.732C137.078 22.4013 137.702 22.236 138.384 22.236C139.078 22.236 139.702 22.4013 140.256 22.732C140.811 23.0627 141.248 23.5107 141.568 24.076C141.899 24.6413 142.064 25.276 142.064 25.98C142.064 26.6627 141.899 27.2867 141.568 27.852C141.248 28.4067 140.811 28.8493 140.256 29.18C139.702 29.5107 139.078 29.676 138.384 29.676ZM138.384 29.276C138.96 29.276 139.424 29.132 139.776 28.844C140.128 28.5453 140.384 28.1507 140.544 27.66C140.704 27.1587 140.784 26.5987 140.784 25.98C140.784 25.34 140.704 24.7693 140.544 24.268C140.384 23.7667 140.128 23.372 139.776 23.084C139.424 22.7853 138.96 22.636 138.384 22.636C137.808 22.636 137.344 22.7853 136.992 23.084C136.64 23.372 136.384 23.7667 136.224 24.268C136.064 24.7693 135.984 25.34 135.984 25.98C135.984 26.5987 136.064 27.1587 136.224 27.66C136.384 28.1507 136.64 28.5453 136.992 28.844C137.344 29.132 137.808 29.276 138.384 29.276Z" fill="#103939"/>
</svg>
