<svg width="100" height="100" viewBox="0 0 100 100" fill="none" xmlns="http://www.w3.org/2000/svg">
<path d="M41.9508 27.5902L62.6574 48.2762C62.9031 48.5225 63.0768 48.7893 63.1784 49.0766C63.2816 49.3639 63.3333 49.6717 63.3333 50C63.3333 50.3284 63.2816 50.6362 63.1784 50.9235C63.0768 51.2108 62.9031 51.4776 62.6574 51.7239L41.9508 72.4715C41.3773 73.0461 40.6604 73.3334 39.8002 73.3334C38.94 73.3334 38.2027 73.0255 37.5882 72.4099C36.9738 71.7942 36.6666 71.076 36.6666 70.2551C36.6666 69.4342 36.9738 68.716 37.5882 68.1003L55.6528 50L37.5882 31.8998C37.0148 31.3252 36.728 30.6176 36.728 29.777C36.728 28.9348 37.0353 28.2058 37.6497 27.5902C38.2641 26.9745 38.981 26.6667 39.8002 26.6667C40.6195 26.6667 41.3363 26.9745 41.9508 27.5902Z" fill="#D9D9D9"/>
</svg>
