<svg width="100" height="100" viewBox="0 0 100 100" fill="none" xmlns="http://www.w3.org/2000/svg">
<path d="M58.0491 72.4098L37.3425 51.7238C37.0967 51.4775 36.9231 51.2107 36.8215 50.9234C36.7182 50.6361 36.6666 50.3283 36.6666 50C36.6666 49.6716 36.7182 49.3638 36.8215 49.0765C36.9231 48.7892 37.0967 48.5224 37.3425 48.2761L58.0491 27.5285C58.6226 26.9539 59.3394 26.6666 60.1997 26.6666C61.0599 26.6666 61.7972 26.9745 62.4116 27.5901C63.0261 28.2058 63.3333 28.924 63.3333 29.7449C63.3333 30.5658 63.0261 31.284 62.4116 31.8997L44.3471 50L62.4116 68.1002C62.9851 68.6748 63.2719 69.3824 63.2719 70.223C63.2719 71.0652 62.9646 71.7942 62.3502 72.4098C61.7358 73.0255 61.0189 73.3333 60.1997 73.3333C59.3804 73.3333 58.6636 73.0255 58.0491 72.4098Z" fill="#D9D9D9"/>
</svg>
