<svg width="41" height="41" viewBox="0 0 41 41" fill="none" xmlns="http://www.w3.org/2000/svg">
<path d="M23.7196 29.9088L15.437 21.6343C15.3387 21.5358 15.2692 21.4291 15.2286 21.3142C15.1873 21.1993 15.1666 21.0762 15.1666 20.9448C15.1666 20.8135 15.1873 20.6903 15.2286 20.5754C15.2692 20.4605 15.3387 20.3538 15.437 20.2553L23.7196 11.9562C23.949 11.7264 24.2358 11.6115 24.5798 11.6115C24.9239 11.6115 25.2189 11.7346 25.4646 11.9809C25.7104 12.2271 25.8333 12.5144 25.8333 12.8428C25.8333 13.1711 25.7104 13.4584 25.4646 13.7047L18.2388 20.9448L25.4646 28.1849C25.694 28.4148 25.8087 28.6978 25.8087 29.034C25.8087 29.3709 25.6858 29.6625 25.4401 29.9088C25.1943 30.155 24.9075 30.2781 24.5798 30.2781C24.2521 30.2781 23.9654 30.155 23.7196 29.9088Z" fill="#222222"/>
</svg>
