<svg width="41" height="41" viewBox="0 0 41 41" fill="none" xmlns="http://www.w3.org/2000/svg">
<path d="M15.5363 29.9092C15.2899 29.6633 15.1667 29.3721 15.1667 29.0357C15.1667 28.6999 15.2899 28.409 15.5363 28.1631L22.7541 20.9571L15.5116 13.7265C15.2817 13.497 15.1667 13.2101 15.1667 12.8658C15.1667 12.5215 15.2899 12.2263 15.5363 11.9804C15.7826 11.7344 16.0743 11.6115 16.4113 11.6115C16.7476 11.6115 17.039 11.7344 17.2853 11.9804L25.5624 20.2685C25.661 20.3669 25.7309 20.4734 25.7723 20.5882C25.8131 20.703 25.8334 20.8259 25.8334 20.9571C25.8334 21.0883 25.8131 21.2112 25.7723 21.326C25.7309 21.4408 25.661 21.5474 25.5624 21.6457L17.2607 29.9338C17.0307 30.1634 16.7476 30.2781 16.4113 30.2781C16.0743 30.2781 15.7826 30.1552 15.5363 29.9092Z" fill="#222222"/>
</svg>
