<svg width="6" height="11" viewBox="0 0 6 11" fill="none" xmlns="http://www.w3.org/2000/svg">
<path d="M0.207852 10.5425C0.0692841 10.4041 0 10.2404 0 10.0511C0 9.86223 0.0692841 9.69862 0.207852 9.56028L4.2679 5.50692L0.193995 1.43972C0.0646651 1.31061 0 1.14921 0 0.955534C0 0.761858 0.0692841 0.59585 0.207852 0.45751C0.34642 0.31917 0.510485 0.25 0.700046 0.25C0.889238 0.25 1.05312 0.31917 1.19169 0.45751L5.84758 5.11957C5.903 5.1749 5.94236 5.23485 5.96564 5.29941C5.98855 5.36397 6 5.43314 6 5.50692C6 5.5807 5.98855 5.64987 5.96564 5.71443C5.94236 5.77899 5.903 5.83893 5.84758 5.89427L1.17783 10.5563C1.0485 10.6854 0.889238 10.75 0.700046 10.75C0.510485 10.75 0.34642 10.6808 0.207852 10.5425Z" fill="white"/>
</svg>
