<svg width="29" height="28" viewBox="0 0 29 28" fill="none" xmlns="http://www.w3.org/2000/svg">
<path d="M13.5923 27.4917C13.2509 27.1529 13.0722 26.7217 13.056 26.198C13.0399 25.6744 13.2031 25.2431 13.5457 24.9043L22.6693 15.8482H1.86196C1.33441 15.8482 0.891884 15.6708 0.534388 15.3159C0.176893 14.9611 -0.00123486 14.5224 6.44274e-06 14C6.44274e-06 13.4763 0.178754 13.0371 0.53625 12.6822C0.893745 12.3274 1.33565 12.1506 1.86196 12.1518H22.6693L13.5457 3.09571C13.2044 2.75688 13.0411 2.32563 13.056 1.80198C13.0709 1.27833 13.2497 0.847084 13.5923 0.50825C13.9336 0.169416 14.3681 0 14.8957 0C15.4232 0 15.8577 0.169416 16.199 0.50825L28.4879 12.7063C28.6741 12.8603 28.8063 13.0531 28.8845 13.2848C28.9627 13.5164 29.0012 13.7548 29 14C29 14.2464 28.9615 14.4774 28.8845 14.6931C28.8076 14.9087 28.6754 15.1089 28.4879 15.2937L16.199 27.4917C15.8577 27.8306 15.4232 28 14.8957 28C14.3681 28 13.9336 27.8306 13.5923 27.4917Z" fill="white"/>
</svg>
