<svg width="30" height="30" viewBox="0 0 30 30" fill="none" xmlns="http://www.w3.org/2000/svg">
<path d="M22.5387 20.771L27.8921 26.1244L26.1244 27.8921L20.771 22.5387C18.8461 24.0788 16.405 25 13.75 25C7.54 25 2.5 19.96 2.5 13.75C2.5 7.54 7.54 2.5 13.75 2.5C19.96 2.5 25 7.54 25 13.75C25 16.405 24.0788 18.8461 22.5387 20.771ZM20.0309 19.8435C21.5594 18.2682 22.5 16.1195 22.5 13.75C22.5 8.91563 18.5844 5 13.75 5C8.91563 5 5 8.91563 5 13.75C5 18.5844 8.91563 22.5 13.75 22.5C16.1195 22.5 18.2682 21.5594 19.8435 20.0309L20.0309 19.8435Z" fill="white"/>
</svg>
