<svg width="25" height="25" viewBox="0 0 25 25" fill="none" xmlns="http://www.w3.org/2000/svg">
<path d="M12.7298 1.31128C15.601 1.31128 18.301 2.4294 20.331 4.46003C22.3617 6.49065 23.4798 9.19003 23.4798 12.0613C23.4798 14.9325 22.3617 17.6325 20.331 19.6625C18.3004 21.6932 15.601 22.8113 12.7298 22.8113C9.85854 22.8113 7.15854 21.6932 5.12854 19.6625C3.09792 17.6319 1.9798 14.9325 1.9798 12.0613C1.9798 9.19003 3.09792 6.49003 5.12854 4.46003C7.15854 2.43003 9.85792 1.31128 12.7298 1.31128ZM12.7298 0.0612793C6.10229 0.0612793 0.729797 5.43378 0.729797 12.0613C0.729797 18.6888 6.10229 24.0613 12.7298 24.0613C19.3573 24.0613 24.7298 18.6888 24.7298 12.0613C24.7298 5.43378 19.3567 0.0612793 12.7298 0.0612793Z" fill="white"/>
<path d="M12.1954 3.00136C11.9966 2.34761 11.5991 1.91761 10.9804 1.68386C9.95663 1.29636 8.92288 1.29387 7.89663 1.67449C7.26976 1.90699 6.85913 2.33011 6.65851 2.99761C5.51788 6.79074 4.35601 10.5776 3.19976 14.3657C2.86101 15.4745 2.51601 16.5814 2.17413 17.6889C2.28788 17.9882 2.47288 18.247 2.64788 18.5107C3.22663 19.3807 3.88351 20.1839 4.68913 20.857C4.72601 20.8451 4.76163 20.8282 4.79913 20.8226C5.32913 20.7432 5.66726 20.4745 5.80351 19.9282C6.04476 18.962 6.32601 18.0057 6.57851 17.0426C6.62726 16.8557 6.69663 16.7857 6.90288 16.787C8.59476 16.797 10.286 16.7926 11.9779 16.7926C12.0548 16.7926 12.1323 16.7926 12.2166 16.7926C12.2429 16.8789 12.266 16.9514 12.286 17.0251C12.5535 18.0089 12.8279 18.9907 13.0848 19.977C13.216 20.4795 13.5429 20.7464 14.0341 20.8139C14.9766 20.9439 15.8285 20.6995 16.5741 20.1164C17.0916 19.7114 17.1923 19.3214 16.9998 18.6932C15.3966 13.4639 13.7879 8.23512 12.1954 3.00136ZM7.50226 13.607C8.13788 11.2739 8.76851 8.95699 9.39913 6.64074C9.41476 6.63699 9.43038 6.63387 9.44601 6.63012C10.0785 8.95137 10.711 11.2726 11.3473 13.607C10.0591 13.607 8.79226 13.607 7.50226 13.607Z" fill="white"/>
<path d="M22.4942 9.69571C22.4967 9.17634 22.2679 8.84134 21.8367 8.60634C21.4736 8.40821 21.0786 8.32321 20.6723 8.29821C20.0892 8.26196 19.5179 8.32446 18.9992 8.62071C18.6242 8.83446 18.4004 9.14134 18.4017 9.60259C18.4073 12.907 18.4061 16.2113 18.4023 19.5157C18.4017 19.8188 18.5179 20.0582 18.7273 20.2626C18.8967 20.4276 19.0973 20.5445 19.3136 20.6382C19.7298 20.8195 20.1698 20.8582 20.6161 20.8645C21.3573 20.257 21.9704 19.5357 22.5042 18.7432C22.4992 18.6426 22.4892 18.5413 22.4892 18.4407C22.4879 15.5251 22.4817 12.6107 22.4942 9.69571Z" fill="white"/>
<path d="M19.3925 5.61577C20.2912 6.07577 21.5944 5.92515 22.3237 4.85265C22.4937 4.5064 22.6237 4.15015 22.555 3.75515C22.4156 2.95265 21.91 2.46952 21.17 2.2064C20.6612 2.02515 20.145 2.07702 19.6319 2.2014C19.5631 2.23577 19.4937 2.26952 19.425 2.3039C18.7556 2.6414 18.2919 3.14077 18.2775 3.92452C18.2631 4.72702 18.7081 5.26577 19.3925 5.61577Z" fill="white"/>
</svg>
