<svg width="17" height="25" viewBox="0 0 17 25" fill="none" xmlns="http://www.w3.org/2000/svg">
<path d="M7.63057 1.03425H7.62721H7.61824H7.60927H7.60031H7.59134H7.58237H7.5734H7.56444H7.55547H7.5465H7.53754H7.52857H7.5196H7.51063H7.50167H7.4927H7.48373H7.47476H7.4658H7.45683H7.44786H7.43889H7.42992H7.42096H7.41199H7.40302H7.39405H7.38509H7.37612H7.36715H7.35818H7.34922H7.34025H7.33128H7.32231H7.31335H7.30438H7.29541H7.28644H7.27747H7.26851H7.25954H7.25057H7.2416H7.23264H7.22367H7.2147H7.20573H7.19677H7.1878H7.17883H7.16986H7.16089H7.15193H7.14296H7.13399H7.12502H7.11606H7.10709H7.09812H7.08915H7.08018H7.07122H7.06225H7.05328H7.04431H7.03535H7.02638H7.01741H7.00844H6.99947H6.99051H6.98154H6.97257H6.9636H6.95463H6.94567H6.9367H6.92773H6.91876H6.90979H6.90083H6.89186H6.88289H6.87392H6.86495H6.85599H6.84702H6.83805H6.82908H6.82012H6.81115H6.80218H6.79321H6.78424H6.77528H6.76631H6.75734H6.74837H6.7394H6.73044H6.72147H6.7125H6.70353H6.69456H6.6856H6.67663H6.66766H6.65869H6.64972H6.64076H6.63179H6.62282H6.61385H6.60488H6.59592H6.58695H6.57798H6.56901H6.56004H6.55108H6.54211H6.53314H6.52417H6.5152H6.50624H6.49727H6.4883H6.47933H6.47036H6.4614H6.45243H6.44346H6.43449H6.42552H6.41656H6.40759H6.39862H6.38965H6.38068H6.37172H6.36275H6.35378H6.34481H6.33584H6.32687H6.31791H6.30894H6.29997H6.291H6.28203H6.27307H6.2641H6.25513H6.24616H6.23719H6.22823H6.21926H6.21029H6.20132H6.19235H6.18339H6.17442H6.16545H6.15648H6.14751H6.13855H6.12958H6.12061H6.11164H6.10267H6.09371H6.08474H6.07577H6.0668H6.05783H6.04887H6.0399H6.03093H6.02196H6.01299H6.00402H5.99506H5.98609H5.97712H5.96815H5.95919H5.95022H5.94125H5.93228H5.92331H5.91434H5.90538H5.89641H5.88744H5.87847H5.8695H5.86054H5.85157H5.8426H5.83363H5.82466H5.8157H5.80673H5.79776H5.78879H5.77982H5.77086H5.76189H5.75292H5.74395H5.73498H5.72602H5.71705H5.70808H5.69911H5.69015H5.68118H5.67221H5.66324H5.65427H5.64531H5.63634H5.62737H5.6184H5.60943H5.60047H5.5915H5.58253H5.57356H5.56459H5.55563H5.54666H5.53769H5.52872H5.51976H5.51079H5.50182H5.49285H5.48388H5.47492H5.46595H5.45698H5.44801H5.43904H5.43008H5.42111H5.41214H5.40317H5.39421H5.38524H5.37627H5.3673H5.35833H5.34937H5.3404H5.33143H5.32246H5.3135H5.30453H5.29556H5.28659H5.27763H5.26866H5.25969H5.25072H5.24175H5.23279H5.22382H5.21485H5.20588H5.19692H5.18795H5.17898H5.17001H5.16105H5.15208H5.14311H5.13414H5.12517H5.11621H5.10724H5.09827H5.0893H5.08034H5.07137H5.0624H5.05343H5.04447H5.0355H5.02653H5.01756H5.0086H4.99963H4.99066H4.98169H4.97273H4.96376H4.95479H4.94582H4.93686H4.92789H4.91892H4.90995H4.90099H4.89202H4.88305H4.87408H4.86512H4.85615H4.84718H4.83822H4.82925H4.82028H4.81131H4.80235H4.79338H4.78441H4.77544H4.76648H4.75751H4.74854H4.73958H4.73061H4.72164H4.71267H4.70371H4.69474H4.68577H4.67681H4.66784H4.65887H4.6499H4.64094H4.63197H4.623H4.61404H4.60507H4.5961H4.58713H4.57817H4.5692H4.56023H4.55127H4.5423H4.53333H4.52436H4.5154H4.50643H4.49746H4.4885H4.47953H4.47056H4.4616H4.45263H4.44366H4.4347H4.42573H4.41676H4.40779H4.39883H4.38986H4.38089H4.37193H4.36296H4.35399H4.34503H4.33606H4.32709H4.31813H4.30916H4.30019H4.29123H4.28226H4.27329H4.26433H4.25536H4.24639H4.23743H4.22846H4.21949H4.21543C4.13631 1.05912 4.06678 1.07072 4.01508 1.0766C3.98256 1.08031 3.95347 1.08213 3.92986 1.08303C2.49267 1.37151 1.47382 2.57115 1.43409 3.89224L7.63057 1.03425ZM7.63057 1.03425C7.63098 3.05185 7.63104 5.06914 7.63105 7.0868C7.22995 7.08978 6.83087 7.09227 6.43008 7.09227C5.99247 7.09227 5.55744 7.08852 5.11768 7.08474C4.95611 7.08334 4.7939 7.08195 4.6307 7.08073C4.4995 7.05127 4.32222 7.03071 4.12593 7.06536C4.07134 7.05285 4.02373 7.04475 3.98591 7.03887C3.9441 7.03238 3.88853 7.02529 3.86044 7.0217C3.85339 7.0208 3.84806 7.02012 3.84513 7.01973C3.82718 7.01733 3.81876 7.01592 3.81636 7.01551C2.3365 6.6622 1.38848 5.42537 1.43408 3.89243L7.63057 1.03425Z" stroke="white" stroke-width="1.94595" stroke-miterlimit="10" stroke-linecap="round" stroke-linejoin="round"/>
<path d="M9.57798 7.10477H9.57699C9.57698 5.08123 9.57692 3.05792 9.5765 1.03425H9.58506H9.59375H9.60244H9.61113H9.61982H9.62851H9.6372H9.64589H9.65458H9.66327H9.67196H9.68065H9.68934H9.69803H9.70672H9.71541H9.7241H9.73279H9.74148H9.75017H9.75886H9.76754H9.77623H9.78492H9.79361H9.8023H9.81099H9.81968H9.82837H9.83706H9.84575H9.85444H9.86313H9.87182H9.88051H9.8892H9.89789H9.90658H9.91527H9.92396H9.93265H9.94134H9.95003H9.95872H9.96741H9.9761H9.98479H9.99348H10.0022H10.0109H10.0196H10.0282H10.0369H10.0456H10.0543H10.063H10.0717H10.0804H10.0891H10.0978H10.1065H10.1151H10.1238H10.1325H10.1412H10.1499H10.1586H10.1673H10.176H10.1847H10.1934H10.202H10.2107H10.2194H10.2281H10.2368H10.2455H10.2542H10.2629H10.2716H10.2803H10.2889H10.2976H10.3063H10.315H10.3237H10.3324H10.3411H10.3498H10.3585H10.3672H10.3758H10.3845H10.3932H10.4019H10.4106H10.4193H10.428H10.4367H10.4454H10.4541H10.4627H10.4714H10.4801H10.4888H10.4975H10.5062H10.5149H10.5236H10.5323H10.541H10.5496H10.5583H10.567H10.5757H10.5844H10.5931H10.6018H10.6105H10.6192H10.6279H10.6365H10.6452H10.6539H10.6626H10.6713H10.68H10.6887H10.6974H10.7061H10.7148H10.7234H10.7321H10.7408H10.7495H10.7582H10.7669H10.7756H10.7843H10.793H10.8017H10.8104H10.819H10.8277H10.8364H10.8451H10.8538H10.8625H10.8712H10.8799H10.8886H10.8973H10.9059H10.9146H10.9233H10.932H10.9407H10.9494H10.9581H10.9668H10.9755H10.9842H10.9928H11.0015H11.0102H11.0189H11.0276H11.0363H11.045H11.0537H11.0624H11.0711H11.0797H11.0884H11.0971H11.1058H11.1145H11.1232H11.1319H11.1406H11.1493H11.158H11.1666H11.1753H11.184H11.1927H11.2014H11.2101H11.2188H11.2275H11.2362H11.2449H11.2535H11.2622H11.2709H11.2796H11.2883H11.297H11.3057H11.3144H11.3231H11.3318H11.3404H11.3491H11.3578H11.3665H11.3752H11.3839H11.3926H11.4013H11.41H11.4187H11.4273H11.436H11.4447H11.4534H11.4621H11.4708H11.4795H11.4882H11.4969H11.5056H11.5142H11.5229H11.5316H11.5403H11.549H11.5577H11.5664H11.5751H11.5838H11.5925H11.6011H11.6098H11.6185H11.6272H11.6359H11.6446H11.6533H11.662H11.6707H11.6794H11.688H11.6967H11.7054H11.7141H11.7228H11.7315H11.7402H11.7489H11.7576H11.7663H11.7749H11.7836H11.7923H11.801H11.8097H11.8184H11.8271H11.8358H11.8445H11.8532H11.8618H11.8705H11.8792H11.8879H11.8966H11.9053H11.914H11.9227H11.9314H11.9401H11.9487H11.9574H11.9661H11.9748H11.9835H11.9922H12.0009H12.0096H12.0183H12.0269H12.0356H12.0443H12.053H12.0617H12.0704H12.0791H12.0878H12.0965H12.1052H12.1138H12.1225H12.1312H12.1399H12.1486H12.1573H12.166H12.1747H12.1834H12.192H12.2007H12.2094H12.2181H12.2268H12.2355H12.2442H12.2529H12.2616H12.2703H12.2789H12.2876H12.2963H12.305H12.3137H12.3224H12.3311H12.3398H12.3485H12.3571H12.3658H12.3745H12.3832H12.3919H12.4006H12.4093H12.418H12.4267H12.4353H12.444H12.4527H12.4614H12.4701H12.4788H12.4875H12.4962H12.5049H12.5136H12.5222H12.5309H12.5396H12.5483H12.557H12.5657H12.5744H12.5831H12.5918H12.6004H12.6091H12.6178H12.6265H12.6352H12.6439H12.6526H12.6613H12.67H12.6786H12.6873H12.696H12.7047H12.7134H12.7221H12.7308H12.7395H12.7482H12.7568H12.7655H12.7742H12.7829H12.7916H12.8003H12.809H12.8177H12.8263H12.835H12.8437H12.8524H12.8611H12.8698H12.8785H12.8872H12.8959H12.9026C12.9436 1.04321 12.9825 1.05159 13.0198 1.05963C13.1563 1.08902 13.2721 1.11396 13.3977 1.14686L13.3979 1.14691C14.7563 1.50254 15.6911 2.76573 15.6314 4.26133C15.5793 5.56485 14.514 6.78738 13.1647 7.02855C13.0619 7.04674 12.9667 7.06084 12.8581 7.07695C12.8216 7.08236 12.7835 7.08799 12.7432 7.09409C12.6573 7.0955 12.5521 7.09729 12.4477 7.09907C12.322 7.10122 12.1973 7.10335 12.1082 7.10477H12.1022H12.0954H12.0885H12.0817H12.0748H12.068H12.0611H12.0542H12.0474H12.0405H12.0337H12.0268H12.0199H12.0131H12.0062H11.9994H11.9925H11.9857H11.9788H11.9719H11.9651H11.9582H11.9514H11.9445H11.9376H11.9308H11.9239H11.9171H11.9102H11.9034H11.8965H11.8896H11.8828H11.8759H11.8691H11.8622H11.8553H11.8485H11.8416H11.8348H11.8279H11.8211H11.8142H11.8073H11.8005H11.7936H11.7868H11.7799H11.773H11.7662H11.7593H11.7525H11.7456H11.7387H11.7319H11.725H11.7182H11.7113H11.7045H11.6976H11.6907H11.6839H11.677H11.6702H11.6633H11.6564H11.6496H11.6427H11.6359H11.629H11.6221H11.6153H11.6084H11.6016H11.5947H11.5879H11.581H11.5741H11.5673H11.5604H11.5536H11.5467H11.5398H11.533H11.5261H11.5193H11.5124H11.5055H11.4987H11.4918H11.485H11.4781H11.4712H11.4644H11.4575H11.4507H11.4438H11.437H11.4301H11.4232H11.4164H11.4095H11.4027H11.3958H11.3889H11.3821H11.3752H11.3684H11.3615H11.3546H11.3478H11.3409H11.3341H11.3272H11.3203H11.3135H11.3066H11.2998H11.2929H11.286H11.2792H11.2723H11.2655H11.2586H11.2518H11.2449H11.238H11.2312H11.2243H11.2175H11.2106H11.2037H11.1969H11.19H11.1832H11.1763H11.1694H11.1626H11.1557H11.1489H11.142H11.1351H11.1283H11.1214H11.1146H11.1077H11.1008H11.094H11.0871H11.0803H11.0734H11.0665H11.0597H11.0528H11.046H11.0391H11.0322H11.0254H11.0185H11.0117H11.0048H10.9979H10.9911H10.9842H10.9774H10.9705H10.9637H10.9568H10.9499H10.9431H10.9362H10.9294H10.9225H10.9156H10.9088H10.9019H10.8951H10.8882H10.8813H10.8745H10.8676H10.8608H10.8539H10.847H10.8402H10.8333H10.8265H10.8196H10.8127H10.8059H10.799H10.7922H10.7853H10.7784H10.7716H10.7647H10.7579H10.751H10.7441H10.7373H10.7304H10.7236H10.7167H10.7098H10.703H10.6961H10.6893H10.6824H10.6755H10.6687H10.6618H10.655H10.6481H10.6412H10.6344H10.6275H10.6207H10.6138H10.6069H10.6001H10.5932H10.5864H10.5795H10.5726H10.5658H10.5589H10.5521H10.5452H10.5383H10.5315H10.5246H10.5178H10.5109H10.504H10.4972H10.4903H10.4835H10.4766H10.4697H10.4629H10.456H10.4492H10.4423H10.4354H10.4286H10.4217H10.4149H10.408H10.4011H10.3943H10.3874H10.3806H10.3737H10.3668H10.36H10.3531H10.3463H10.3394H10.3325H10.3257H10.3188H10.312H10.3051H10.2982H10.2914H10.2845H10.2777H10.2708H10.2639H10.2571H10.2502H10.2434H10.2365H10.2297H10.2228H10.2159H10.2091H10.2022H10.1954H10.1885H10.1816H10.1748H10.1679H10.1611H10.1542H10.1473H10.1405H10.1336H10.1268H10.1199H10.113H10.1062H10.0993H10.0925H10.0856H10.0787H10.0719H10.065H10.0582H10.0513H10.0444H10.0376H10.0307H10.0239H10.017H10.0101H10.0033H9.99642H9.98956H9.9827H9.97584H9.96898H9.96212H9.95526H9.9484H9.94154H9.93468H9.92782H9.92096H9.9141H9.90724H9.90038H9.89352H9.88666H9.8798H9.87294H9.86608H9.85922H9.85236H9.8455H9.83864H9.83178H9.82492H9.81806H9.8112H9.80434H9.79748H9.79062H9.78376H9.7769H9.77004H9.76318H9.75633H9.74947H9.74261H9.73575H9.72889H9.72203H9.71517H9.70831H9.70145H9.69459H9.68773H9.68087H9.67401H9.66715H9.66029H9.65343H9.64657H9.63971H9.63285H9.62599H9.61913H9.61227H9.60541H9.59855H9.59169H9.58484H9.57798Z" stroke="white" stroke-width="1.94595" stroke-miterlimit="10" stroke-linecap="round" stroke-linejoin="round"/>
<path d="M4.70124 17.0321L4.7006 17.0321C4.67941 17.0322 4.66653 17.0336 4.62553 17.0381C4.5993 17.041 4.56155 17.0452 4.50275 17.0511C4.41715 17.0597 4.28406 17.0715 4.12771 17.062C2.65809 17.2777 1.55437 18.4855 1.48838 19.8486L4.70124 17.0321ZM4.70124 17.0321C5.62267 17.0285 6.54284 17.0297 7.46594 17.031M4.70124 17.0321L7.46594 17.031M4.82087 23.0879C4.62331 23.0882 4.4258 23.0882 4.22811 23.0882C4.15225 23.0607 4.08515 23.0454 4.03429 23.0362C3.97853 23.0261 3.92503 23.0208 3.89516 23.0183C2.40547 22.6884 1.41399 21.3942 1.48837 19.8487L4.82087 23.0879ZM4.82087 23.0879C4.86781 23.0739 4.91015 23.0648 4.94559 23.0587C4.99351 23.0505 5.03877 23.0464 5.07179 23.0444C6.46351 22.8015 7.48506 21.6903 7.59622 20.3093C7.63994 19.7663 7.63236 19.2556 7.62407 18.6965C7.6197 18.4014 7.61512 18.0929 7.61778 17.7591L4.82087 23.0879ZM7.46594 17.031C7.51602 17.031 7.5661 17.0311 7.6162 17.0311M7.46594 17.031L7.6162 17.0311M7.6162 17.0311C7.6185 17.2742 7.61967 17.5153 7.61778 17.7589L7.6162 17.0311ZM3.86146 23.0156C3.86161 23.0156 3.86363 23.0158 3.86716 23.0162C3.86308 23.0158 3.86131 23.0157 3.86146 23.0156ZM5.12448 23.0425C5.12429 23.0425 5.12361 23.0425 5.12247 23.0425L5.12454 23.0425H5.12448Z" stroke="white" stroke-width="1.94595" stroke-miterlimit="10" stroke-linecap="round" stroke-linejoin="round"/>
<path d="M4.69306 15.0862C5.67087 15.0825 6.64925 15.0837 7.62492 15.085C7.6276 14.5249 7.62989 13.9648 7.63218 13.4043C7.63325 13.1442 7.63431 12.8841 7.63541 12.6238C7.63479 12.4408 7.63431 12.258 7.63384 12.0757C7.63337 11.892 7.6329 11.7088 7.63227 11.5256L7.63226 11.5227C7.63194 10.9495 7.63147 10.3761 7.631 9.8025L7.63099 9.80039C7.63078 9.54436 7.63057 9.28829 7.63037 9.03218L1.48821 11.7968C1.34161 13.3322 2.45193 14.7776 4.02702 15.0417M4.69306 15.0862C4.69327 15.0862 4.69348 15.0862 4.69369 15.0862L4.69438 15.3004M4.69306 15.0862L4.69388 15.3M4.69306 15.0862C4.60157 15.0866 4.51955 15.0931 4.45732 15.0991C4.42602 15.1021 4.396 15.1054 4.37188 15.1081L4.36709 15.1086C4.36016 15.1094 4.35372 15.1101 4.34763 15.1107M4.69438 15.3004C4.69421 15.3002 4.69405 15.3001 4.69388 15.3M4.69438 15.3004C4.7403 15.3368 4.7858 15.3787 4.82975 15.4269L4.69518 15.5497L4.69682 16.0592M4.69438 15.3004L8.57804 16.0592C8.29058 16.0589 8.00312 16.0585 7.71566 16.0581C6.70938 16.0567 5.7031 16.0553 4.69682 16.0592M4.69388 15.3C4.57466 15.2054 4.45264 15.1472 4.34763 15.1107M4.69388 15.3L4.11128 16.083M4.34763 15.1107C4.30077 15.0945 4.2573 15.0825 4.21897 15.0736C4.14712 15.0569 4.08465 15.0489 4.05748 15.0455C4.03562 15.0427 4.02837 15.0419 4.02702 15.0417M4.34763 15.1107C4.33299 15.1123 4.32037 15.1137 4.30791 15.1149C4.26051 15.1197 4.24309 15.1196 4.24308 15.1197C4.24308 15.1198 4.25123 15.12 4.26351 15.122L4.11128 16.083M4.02702 15.0417C4.02855 15.042 4.03007 15.0422 4.0316 15.0425L4.02912 15.0421C4.02754 15.0419 4.02621 15.0417 4.02702 15.0417ZM4.11128 16.083C4.05923 16.026 3.98948 16.0174 3.92095 16.009C3.90457 16.007 3.88825 16.005 3.87226 16.0023L4.11128 16.083ZM4.11128 16.083L4.69485 15.55L4.69682 16.0592M4.11128 16.083C4.23259 16.1022 4.35247 16.089 4.47208 16.0759C4.547 16.0677 4.62181 16.0595 4.69682 16.0592M4.07108 9.07408L4.07086 9.07411C2.63825 9.32076 1.62031 10.4179 1.48823 11.7966L4.07108 9.07408ZM4.07108 9.07408C4.134 9.06323 4.18859 9.04964 4.22585 9.03971M4.07108 9.07408L4.22585 9.03971M4.22585 9.03971L4.25366 9.03802C4.29913 9.03568 4.34505 9.03346 4.39281 9.03115L4.39362 9.03111C4.43242 9.02924 4.47246 9.0273 4.5128 9.02527C4.70439 9.0266 4.8979 9.02833 5.09254 9.03007C5.53547 9.03402 5.9842 9.03802 6.42921 9.03759C6.42906 9.03759 6.42891 9.03759 6.42876 9.03759L4.22585 9.03971Z" stroke="white" stroke-width="1.94595" stroke-miterlimit="10" stroke-linecap="round" stroke-linejoin="round"/>
<path d="M9.60024 11.5877L9.60022 11.5877C9.59388 11.6182 9.58685 11.6465 9.57997 11.6718C9.58037 11.8051 9.58071 11.9383 9.58106 12.0712V12.0712C9.58139 12.2019 9.58173 12.3323 9.58212 12.4627C9.58963 12.4906 9.59695 12.5216 9.6032 12.5549M9.60024 11.5877L8.64761 11.3896C8.96314 9.82023 9.88823 8.7752 11.4109 8.25144C11.5679 8.19768 11.7313 8.16227 11.8946 8.12688C11.9686 8.11084 12.0425 8.0948 12.1159 8.07706C12.2352 8.07517 12.3545 8.07312 12.4737 8.07107C12.5908 8.06906 12.7079 8.06704 12.8248 8.06519C14.8488 8.21394 16.3405 9.5846 16.6371 11.5684C16.9406 13.5947 15.4192 15.6541 13.3673 15.9948C11.1004 16.3717 9.06874 14.9679 8.64698 12.7347M9.60024 11.5877L9.60149 11.5814C9.8478 10.3563 10.5259 9.585 11.7266 9.17176M9.60024 11.5877L11.7266 9.17176M9.6032 12.5549C9.60334 12.5557 9.60349 12.5565 9.60363 12.5572L9.58243 12.5612C9.5825 12.5812 9.58257 12.6013 9.58264 12.6213L9.25197 12.6225L8.64698 12.7347M9.6032 12.5549C9.92536 14.2585 11.4536 15.3266 13.2077 15.035L13.208 15.0349C14.7491 14.7791 15.8976 13.2 15.6748 11.7125L15.6748 11.7123C15.4486 10.1993 14.351 9.16955 12.7945 9.03877C12.7097 9.04016 12.6017 9.042 12.493 9.04386C12.404 9.04537 12.3145 9.0469 12.2369 9.04819C12.1567 9.06661 12.0916 9.08048 12.0351 9.09251C11.9133 9.11845 11.8318 9.13581 11.7266 9.17176M9.6032 12.5549C9.60315 12.5547 9.6031 12.5544 9.60305 12.5541L9.58242 12.558L11.7266 9.17176M8.64698 12.7347L9.24093 12.6225L8.60967 12.6247C8.61317 12.6342 8.61693 12.6438 8.6207 12.6533C8.63124 12.6801 8.64185 12.7071 8.64698 12.7347Z" stroke="white" stroke-width="1.94595" stroke-miterlimit="10" stroke-linecap="round" stroke-linejoin="round"/>
<mask id="path-6-inside-1_86_1082" fill="white">
<path d="M4.49198 8.05271C4.39524 8.05771 4.29786 8.06209 4.20111 8.06709C4.2947 7.99709 4.39334 8.01709 4.49198 8.05271Z"/>
</mask>
<path d="M4.49198 8.05271L4.59242 9.99606C5.51753 9.94825 6.28069 9.25493 6.4168 8.33865C6.55292 7.42236 6.02425 6.53714 5.15299 6.22248L4.49198 8.05271ZM4.20111 8.06709L3.03553 6.50885C2.34961 7.02192 2.07985 7.92319 2.3711 8.72874C2.66235 9.53429 3.44611 10.0547 4.30155 10.0104L4.20111 8.06709ZM4.39154 6.10936C4.34699 6.11166 4.30173 6.11385 4.25265 6.11622C4.20467 6.11854 4.15286 6.12104 4.10067 6.12374L4.30155 10.0104C4.3461 10.0081 4.39136 10.006 4.44044 10.0036C4.48842 10.0013 4.54023 9.99876 4.59242 9.99606L4.39154 6.10936ZM5.36669 9.62534C5.03976 9.86988 4.65923 9.97098 4.31658 9.96603C4.03591 9.96198 3.83989 9.88617 3.83097 9.88295L5.15299 6.22248C4.95387 6.15056 3.97721 5.80446 3.03553 6.50885L5.36669 9.62534Z" fill="white" mask="url(#path-6-inside-1_86_1082)"/>
</svg>
