<svg width="90" height="90" viewBox="0 0 90 90" fill="none" xmlns="http://www.w3.org/2000/svg">
<circle cx="45" cy="45" r="45" fill="#4E598C"/>
<path d="M24.7778 33.3333V68H65.2222V33.3333H24.7778ZM24.7778 27.5556H65.2222V21.7778H24.7778V27.5556ZM68.1111 73.7778H21.8889C20.2934 73.7778 19 72.4844 19 70.8889V18.8889C19 17.2934 20.2934 16 21.8889 16H68.1111C69.7066 16 71 17.2934 71 18.8889V70.8889C71 72.4844 69.7066 73.7778 68.1111 73.7778ZM30.5556 39.1111H42.1111V50.6667H30.5556V39.1111ZM30.5556 56.4444H59.4444V62.2222H30.5556V56.4444ZM47.8889 42H59.4444V47.7778H47.8889V42Z" fill="white"/>
</svg>
