<svg width="28" height="25" viewBox="0 0 28 25" fill="none" xmlns="http://www.w3.org/2000/svg">
<path d="M17.4723 0.551914C17.3102 0.384101 17.0844 0.178546 16.7753 0.0727364C16.753 0.065323 16.7306 0.0612793 16.7077 0.0612793H2.66271C2.59445 0.0612793 2.53144 0.0949767 2.49271 0.148219C2.48024 0.150915 2.46842 0.15361 2.45726 0.15698C1.44777 0.454192 0.788779 1.13218 0.498664 2.17141C0.495382 2.18287 0.492756 2.19568 0.490131 2.20848C0.438278 2.24892 0.405457 2.31294 0.405457 2.38303V21.2583C0.405457 21.4922 0.436308 21.7247 0.498007 21.9511C0.787465 22.9904 1.44646 23.6684 2.45924 23.9663C2.67781 24.0289 2.9036 24.0613 3.1307 24.0613H8.16373C8.74462 24.0613 9.2172 23.576 9.2172 22.9782C9.2172 22.6898 9.10759 22.4182 8.90936 22.2147C8.43153 21.724 7.6918 21.8986 7.08794 21.8986C5.82312 21.8986 4.5583 21.8986 3.29348 21.8986C2.72966 21.8986 2.50977 21.6748 2.50977 21.102C2.50912 13.7269 2.50912 10.3956 2.50977 3.01992C2.50977 2.46391 2.73688 2.22668 3.27051 2.226C7.33933 2.22533 11.4088 2.22533 15.4776 2.22735C15.4849 2.22735 15.4921 2.22735 15.4993 2.22668V3.06642C15.4993 3.799 15.4993 4.53428 15.4993 5.26888C15.5 6.60263 16.2705 7.39991 17.5596 7.40126C17.9239 7.40193 18.2889 7.40126 18.6532 7.40126H20.5297V8.89945C20.5297 9.49454 21.001 9.97844 21.5806 9.97844C21.8615 9.97844 22.126 9.86589 22.3242 9.66168C22.5224 9.45748 22.6314 9.18588 22.6307 8.8981C22.6294 8.13721 22.6294 7.10337 22.638 6.49952C22.6439 6.07156 22.5034 5.72515 22.1949 5.41041C20.4615 3.63793 18.7601 1.88296 17.4723 0.551914Z" fill="white"/>
<path d="M21.9928 10.8909C21.7033 10.7689 21.2537 10.7184 20.7562 11.1692C20.3282 11.5568 19.8307 12.0083 19.3476 12.4551C19.2531 12.5427 19.1645 12.6364 19.0798 12.7274C18.9407 12.6007 18.8035 12.4753 18.6683 12.352C18.2259 11.949 17.8078 11.5675 17.3916 11.18C17.0077 10.8228 16.6079 10.7231 16.1682 10.8754C15.7369 11.025 15.4993 11.393 15.4993 11.9119C15.4993 12.4423 15.4974 13.1102 15.4954 13.8185C15.4915 15.2392 15.4875 16.8493 15.4954 17.8029C15.5006 18.3919 15.9713 18.8705 16.5456 18.8705H16.5607C17.1396 18.8705 17.6109 18.3866 17.6109 17.7921V14.1164C17.7251 14.2189 17.8334 14.3186 17.9338 14.421C18.7635 15.2682 19.3509 15.2716 20.1792 14.4332C20.2908 14.3206 20.4057 14.2128 20.5337 14.0948V17.7948C20.5337 18.3893 21.005 18.8731 21.5839 18.8731C21.8641 18.8731 22.128 18.7613 22.3262 18.5577C22.5244 18.3542 22.6334 18.0833 22.6334 17.7955C22.6334 16.2798 22.6327 13.4991 22.6354 11.9106C22.636 11.4132 22.4194 11.0708 21.9928 10.8909Z" fill="white"/>
<path d="M8.16242 18.8711C8.73608 18.8711 9.20211 18.392 9.20211 17.8036V11.8843C9.20211 11.2953 8.73543 10.8168 8.16242 10.8168H8.14404C7.57038 10.8168 7.10435 11.296 7.10435 11.8843V13.8549H5.85397V11.8843C5.85397 11.2953 5.3873 10.8168 4.81429 10.8168C4.24128 10.8168 3.7746 11.296 3.7746 11.8843V17.8036C3.7746 18.3926 4.24128 18.8711 4.81429 18.8711H4.83266C5.40633 18.8711 5.87235 18.392 5.87235 17.8036V15.8411H7.12273V17.8036C7.12273 18.392 7.58875 18.8711 8.16242 18.8711Z" fill="white"/>
<path d="M14.1334 10.8162H10.591C10.0685 10.8162 9.64386 11.2522 9.64386 11.7887V11.8055C9.64386 12.342 10.0685 12.778 10.591 12.778H11.315V17.7909C11.315 18.386 11.7869 18.8705 12.3665 18.8705C12.9461 18.8705 13.418 18.386 13.418 17.7909V12.7612H14.1328C14.6552 12.7612 15.0799 12.3251 15.0799 11.7887C15.0799 11.2522 14.6559 10.8162 14.1334 10.8162Z" fill="white"/>
<path d="M26.6897 16.9161H25.1401V11.8912C25.1401 11.2981 24.6701 10.8156 24.0925 10.8156C23.5149 10.8156 23.0449 11.2981 23.0449 11.8905C23.0443 14.8714 23.0449 16.8744 23.0462 17.8442C23.0476 18.4736 23.4827 18.882 24.1562 18.8841C24.5218 18.8854 25.1381 18.8874 25.736 18.8874C26.0793 18.8874 26.4167 18.8868 26.697 18.8847C27.2214 18.8814 27.6487 18.4393 27.6487 17.9008C27.648 17.3576 27.2181 16.9161 26.6897 16.9161Z" fill="white"/>
</svg>
