<svg width="91" height="90" viewBox="0 0 91 90" fill="none" xmlns="http://www.w3.org/2000/svg">
<circle cx="45.5" cy="45" r="45" fill="#4E598C"/>
<path d="M48.2522 18.2144C51.2668 18.2193 52.7944 18.2353 54.1145 18.2746L54.6344 18.2916C55.235 18.3129 55.8275 18.3397 56.5419 18.3732C59.3923 18.5049 61.3367 18.9558 63.0443 19.6188C64.8098 20.2996 66.3011 21.2193 67.7899 22.7082C69.2765 24.197 70.1964 25.6926 70.8794 27.4539C71.54 29.1593 71.9911 31.1058 72.125 33.9563C72.1569 34.6706 72.1826 35.2631 72.2038 35.8638L72.2206 36.3837C72.2597 37.7036 72.2777 39.2315 72.2833 42.246L72.2855 44.2435C72.2857 44.4875 72.2857 44.7393 72.2857 44.9992L72.2855 45.7548L72.2839 47.7523C72.2788 50.7669 72.263 52.2945 72.2236 53.6145L72.2064 54.1345C72.1853 54.735 72.1585 55.3276 72.125 56.042C71.9932 58.8923 71.54 60.8368 70.8794 62.5444C70.1985 64.3099 69.2765 65.8011 67.7899 67.2899C66.3011 68.7766 64.8032 69.6964 63.0443 70.3795C61.3367 71.04 59.3923 71.4911 56.5419 71.6251C55.8275 71.6569 55.235 71.6827 54.6344 71.7038L54.1145 71.7207C52.7944 71.7598 51.2668 71.7778 48.2522 71.7834L46.2548 71.7855C46.0107 71.7858 45.7589 71.7858 45.4991 71.7858L44.7435 71.7855L42.746 71.7839C39.7314 71.7788 38.2035 71.763 36.8836 71.7236L36.3638 71.7065C35.7631 71.6853 35.1706 71.6586 34.4563 71.6251C31.6057 71.4933 29.6637 71.04 27.9538 70.3795C26.1903 69.6986 24.697 68.7766 23.2081 67.2899C21.7192 65.8011 20.8018 64.3032 20.1187 62.5444C19.4557 60.8368 19.0071 58.8923 18.8731 56.042C18.8413 55.3276 18.8154 54.735 18.7943 54.1345L18.7775 53.6145C18.7383 52.2945 18.7204 50.7669 18.7146 47.7523L18.7143 42.246C18.7193 39.2315 18.7352 37.7036 18.7745 36.3837L18.7915 35.8638C18.8129 35.2631 18.8397 34.6706 18.8731 33.9563C19.0048 31.1035 19.4557 29.1615 20.1187 27.4539C20.7995 25.6904 21.7192 24.197 23.2081 22.7082C24.697 21.2193 26.1926 20.3018 27.9538 19.6188C29.6615 18.9558 31.6035 18.5071 34.4563 18.3732C35.1706 18.3414 35.7631 18.3154 36.3638 18.2944L36.8836 18.2775C38.2035 18.2384 39.7314 18.2205 42.746 18.2147L48.2522 18.2144ZM45.4991 31.6058C38.0982 31.6058 32.1057 37.6047 32.1057 44.9992C32.1057 52.4 38.1047 58.3925 45.4991 58.3925C52.9 58.3925 58.8924 52.3933 58.8924 44.9992C58.8924 37.5982 52.8933 31.6058 45.4991 31.6058ZM45.4991 36.9631C49.9374 36.9631 53.5351 40.5595 53.5351 44.9992C53.5351 49.4374 49.9385 53.0352 45.4991 53.0352C41.0608 53.0352 37.4631 49.4385 37.4631 44.9992C37.4631 40.5609 41.0595 36.9631 45.4991 36.9631ZM59.5621 27.5878C57.7157 27.5878 56.2137 29.0876 56.2137 30.9339C56.2137 32.7801 57.7135 34.2822 59.5621 34.2822C61.4082 34.2822 62.9104 32.7824 62.9104 30.9339C62.9104 29.0876 61.4058 27.5855 59.5621 27.5878Z" fill="white"/>
</svg>
