<svg width="22" height="25" viewBox="0 0 22 25" fill="none" xmlns="http://www.w3.org/2000/svg">
<path d="M9.12485 2.2494C9.12485 4.01431 9.05657 5.74989 9.05657 7.48546C9.05657 8.37031 8.64281 8.78578 7.76341 8.78578C6.1077 8.78578 4.52026 8.78578 2.86455 8.78578C2.77238 8.78578 2.6802 8.78578 2.57028 8.78578C2.57028 8.89016 2.57028 8.97339 2.57028 9.05594C2.57028 12.8941 2.58325 16.7323 2.56004 20.5705C2.55457 21.428 3.12195 21.9233 3.8689 21.8626C4.18229 21.8374 4.50046 21.849 4.8159 21.8619C5.35392 21.8838 5.7786 22.3027 5.84005 22.8566C5.89536 23.3512 5.54373 23.927 5.04258 23.9843C3.94469 24.1112 2.83724 24.1583 1.85679 23.4945C0.909787 22.8532 0.3902 21.952 0.386786 20.8113C0.372448 16.454 0.381324 12.0966 0.379958 7.73925C0.379958 7.41588 0.487153 7.13958 0.715198 6.9124C2.89323 4.73952 5.07125 2.56664 7.24997 0.395124C7.47938 0.166579 7.76273 0.0662926 8.08294 0.0662926C10.9847 0.0662926 13.8865 0.051966 16.7875 0.0717504C18.6297 0.0847126 20.0396 1.5358 20.0437 3.37371C20.0478 5.15226 20.0457 6.93082 20.0444 8.71005C20.0437 9.38818 19.5876 9.86983 18.9533 9.87051C18.3197 9.8712 17.8588 9.39227 17.8568 8.7121C17.8527 6.97584 17.8561 5.23959 17.8554 3.50333C17.8554 2.66624 17.4375 2.25009 16.6005 2.25009C14.1855 2.25009 11.7699 2.25009 9.35494 2.25009C9.28803 2.2494 9.22112 2.2494 9.12485 2.2494Z" fill="white"/>
<path d="M18.6509 12.0544C19.1664 12.0544 19.5842 12.0524 20.0021 12.0551C20.6459 12.0592 21.1225 12.5122 21.1307 13.1248C21.1389 13.7415 20.6876 14.2143 20.0396 14.2334C19.4599 14.2505 18.8796 14.2375 18.2999 14.2382C18.0528 14.2382 17.8049 14.2321 17.5578 14.2409C17.1297 14.2566 16.7958 14.58 16.7685 14.9948C16.7412 15.4143 17.0204 15.7814 17.4478 15.8462C17.682 15.8817 17.9237 15.8673 18.162 15.8735C19.6457 15.9117 20.8146 16.8995 21.0856 18.3452C21.4154 20.1046 20.0608 21.7986 18.2617 21.8525C17.4096 21.8777 16.5561 21.8641 15.7027 21.8593C15.067 21.8559 14.5836 21.3838 14.5782 20.7766C14.5734 20.1776 15.0581 19.6878 15.6897 19.6796C16.5083 19.6687 17.3277 19.6857 18.1463 19.6714C18.7137 19.6619 19.0803 19.1325 18.9096 18.6044C18.7977 18.2585 18.4774 18.0429 18.0548 18.0443C17.525 18.0464 17.0034 18.0348 16.4954 17.839C15.2391 17.3546 14.4594 16.0816 14.6055 14.7185C14.7482 13.3827 15.7867 12.3007 17.1133 12.0974C17.6581 12.0128 18.2043 12.0803 18.6509 12.0544Z" fill="white"/>
<path d="M13.4897 15.9621C13.4897 16.8299 13.4931 17.697 13.4897 18.5648C13.4829 20.2881 12.2293 21.6661 10.5067 21.8483C8.90219 22.0175 7.39669 20.9171 7.01434 19.2981C6.92148 18.9045 6.91261 18.504 6.9447 18.1063C6.9884 17.5694 7.44995 17.1601 7.99343 17.143C8.53213 17.126 8.99232 17.4875 9.09269 18.0142C9.11658 18.1384 9.12273 18.2673 9.12341 18.3942C9.12751 19.1958 9.53785 19.6761 10.2199 19.6734C10.8979 19.67 11.3008 19.1883 11.3008 18.3806C11.3008 16.6962 11.3001 15.0124 11.3014 13.328C11.3014 13.2093 11.3049 13.0892 11.3247 12.9726C11.4223 12.3968 11.9159 12.012 12.4901 12.057C13.0432 12.1 13.4822 12.5612 13.487 13.1302C13.4952 14.0737 13.4897 15.0179 13.4897 15.9621Z" fill="white"/>
</svg>
