<svg width="31" height="31" viewBox="0 0 31 31" fill="none" xmlns="http://www.w3.org/2000/svg">
<path fill-rule="evenodd" clip-rule="evenodd" d="M0 10C0 4.47717 4.47717 0 10 0H20.9438C26.4667 0 30.9438 4.47717 30.9438 10V20.9438C30.9438 26.4667 26.4667 30.9438 20.9438 30.9438H10C4.47717 30.9438 0 26.4667 0 20.9438V10ZM10.5508 3.64038H13.492V4.83649H11.7807V6.03259H13.492V7.2287H10.5508V3.64038ZM14.0796 3.64038H17.022V4.68115H15.3106V4.88861H17.022V7.28082H14.0796V6.18903H15.791V5.98041H14.0796V3.64038ZM17.6107 3.64038H20.5508V4.68115H18.8394V4.88861H20.5508V7.28082H17.6107V6.18903H19.322V5.98041H17.6107V3.64038ZM7.8252 25.5743L15.5408 27.3033L23.2775 25.5726L25.5508 10.0112H5.55078L7.8252 25.5743ZM10.2596 18.9644L10.0474 17.0561H18.6619L18.8774 15.1011H9.83746L9.62189 13.192H21.4686L21.0419 17.0561L20.9841 17.5681L20.393 22.9164L15.5408 24.0015L10.6964 22.9164L10.3652 19.9194H12.7397L12.9086 21.4412L15.5419 22.0151H15.5441L18.1819 21.4395L18.4564 18.9644H10.2596Z" fill="#2299F8"/>
</svg>
