<svg width="22" height="22" viewBox="0 0 22 22" fill="none" xmlns="http://www.w3.org/2000/svg">
<path d="M14.9968 12.833C15.0702 12.228 15.1252 11.623 15.1252 10.9997C15.1252 10.3763 15.0702 9.77134 14.9968 9.16634H18.0952C18.2418 9.75301 18.3335 10.3672 18.3335 10.9997C18.3335 11.6322 18.2418 12.2463 18.0952 12.833M13.3743 17.9297C13.9243 16.9122 14.346 15.8122 14.6393 14.6663H17.3435C16.4554 16.1956 15.0464 17.354 13.3743 17.9297ZM13.1452 12.833H8.85516C8.7635 12.228 8.7085 11.623 8.7085 10.9997C8.7085 10.3763 8.7635 9.76217 8.85516 9.16634H13.1452C13.2277 9.76217 13.2918 10.3763 13.2918 10.9997C13.2918 11.623 13.2277 12.228 13.1452 12.833ZM11.0002 18.2963C10.2393 17.1963 9.62516 15.9772 9.24933 14.6663H12.751C12.3752 15.9772 11.761 17.1963 11.0002 18.2963ZM7.3335 7.33301H4.65683C5.53578 5.79962 6.94373 4.63937 8.61683 4.06967C8.06683 5.08717 7.65433 6.18717 7.3335 7.33301ZM4.65683 14.6663H7.3335C7.65433 15.8122 8.06683 16.9122 8.61683 17.9297C6.94723 17.3537 5.54127 16.1951 4.65683 14.6663ZM3.90516 12.833C3.7585 12.2463 3.66683 11.6322 3.66683 10.9997C3.66683 10.3672 3.7585 9.75301 3.90516 9.16634H7.0035C6.93016 9.77134 6.87516 10.3763 6.87516 10.9997C6.87516 11.623 6.93016 12.228 7.0035 12.833M11.0002 3.69384C11.761 4.79384 12.3752 6.02217 12.751 7.33301H9.24933C9.62516 6.02217 10.2393 4.79384 11.0002 3.69384ZM17.3435 7.33301H14.6393C14.3524 6.19768 13.9276 5.10175 13.3743 4.06967C15.061 4.64717 16.4635 5.81134 17.3435 7.33301ZM11.0002 1.83301C5.931 1.83301 1.8335 5.95801 1.8335 10.9997C1.8335 13.4308 2.79927 15.7624 4.51835 17.4815C5.36955 18.3327 6.38008 19.0079 7.49223 19.4686C8.60438 19.9292 9.79638 20.1663 11.0002 20.1663C13.4313 20.1663 15.7629 19.2006 17.482 17.4815C19.2011 15.7624 20.1668 13.4308 20.1668 10.9997C20.1668 9.79589 19.9297 8.60389 19.4691 7.49174C19.0084 6.37959 18.3332 5.36907 17.482 4.51786C16.6308 3.66666 15.6202 2.99145 14.5081 2.53078C13.3959 2.07011 12.2039 1.83301 11.0002 1.83301Z" fill="white"/>
</svg>
