<svg width="32" height="31" viewBox="0 0 32 31" fill="none" xmlns="http://www.w3.org/2000/svg">
<path fill-rule="evenodd" clip-rule="evenodd" d="M10.3722 6.10352e-05C4.84934 6.10352e-05 0.372192 4.47721 0.372192 10.0001V20.9439C0.372192 26.4667 4.84934 30.9439 10.3722 30.9439H21.316C26.8389 30.9439 31.316 26.4667 31.316 20.9439V10.0001C31.316 4.47721 26.8389 6.10352e-05 21.316 6.10352e-05H10.3722ZM12.5322 4.83527C10.4006 4.83527 8.6726 6.61729 8.6726 8.81548C8.6726 10.2074 9.36545 11.4325 10.4149 12.1439C9.36545 12.8553 8.6726 14.0803 8.6726 15.4723C8.6726 16.8642 9.36537 18.0892 10.4148 18.8006C9.36541 19.512 8.6726 20.737 8.6726 22.1289C8.6726 24.3326 10.4267 26.1091 12.553 26.1091C14.7025 26.1091 16.4757 24.3132 16.4757 22.0857V18.4183C17.1611 19.0609 18.0717 19.4525 19.0711 19.4525H19.1549C21.2865 19.4525 23.0145 17.6705 23.0145 15.4723C23.0145 14.0803 22.3217 12.8553 21.2722 12.1439C22.3217 11.4325 23.0145 10.2074 23.0145 8.81548C23.0145 6.61729 21.2865 4.83527 19.1549 4.83527H12.5322ZM12.5322 12.7958H15.2114V18.1487H12.5322L12.5156 18.1487C11.0899 18.1395 9.93687 16.9448 9.93687 15.4723C9.93687 13.9941 11.0988 12.7958 12.5322 12.7958ZM19.0711 18.1488C17.6376 18.1488 16.4757 16.9505 16.4757 15.4723C16.4757 13.9941 17.6376 12.7958 19.0711 12.7958H19.1549C20.5883 12.7958 21.7502 13.9941 21.7502 15.4723C21.7502 16.9505 20.5883 18.1488 19.1549 18.1488H19.0711ZM12.5156 19.4525L12.5322 19.4525H15.2114V22.0857C15.2114 23.5823 14.0149 24.8054 12.553 24.8054C11.1144 24.8054 9.93687 23.6017 9.93687 22.1289C9.93687 20.6564 11.0899 19.4617 12.5156 19.4525ZM9.93687 8.81548C9.93687 7.33736 11.0988 6.13904 12.5322 6.13904L15.2114 6.139V11.492H12.5322C11.0989 11.492 9.93687 10.2937 9.93687 8.81548ZM19.1549 11.492H16.4757V6.13904H19.1549C20.5883 6.13904 21.7502 7.33732 21.7502 8.81548C21.7502 10.2937 20.5883 11.492 19.1549 11.492Z" fill="#861FD5"/>
</svg>
