<svg width="32" height="31" viewBox="0 0 32 31" fill="none" xmlns="http://www.w3.org/2000/svg">
<path fill-rule="evenodd" clip-rule="evenodd" d="M10.3721 0C4.84922 0 0.37207 4.47715 0.37207 10V20.9438C0.37207 26.4667 4.84922 30.9438 10.3721 30.9438H21.3159C26.8388 30.9438 31.3159 26.4667 31.3159 20.9438V10C31.3159 4.47715 26.8388 0 21.3159 0H10.3721ZM12.9148 18.2659L12.8791 18.2486L12.7238 18.1678L12.604 18.1057C12.531 18.0661 12.4591 18.0256 12.3874 17.9844L12.3075 17.9393C12.2101 17.882 12.1136 17.8226 12.0187 17.7625L11.9389 17.7093L11.927 17.7016C11.869 17.6641 11.8111 17.6266 11.7544 17.5875L11.7353 17.574L11.666 17.5248C11.6022 17.4802 11.539 17.4348 11.4762 17.3886L11.3858 17.3198C11.3288 17.2763 11.2723 17.2322 11.2164 17.1874L11.1323 17.1205C11.0639 17.0641 10.9959 17.0066 10.9291 16.9489L10.8903 16.9157L10.8866 16.9129C10.8108 16.8463 10.7367 16.7785 10.6633 16.7094L10.5966 16.6459C10.5415 16.5931 10.4871 16.54 10.4335 16.486L10.3681 16.42C10.2989 16.3487 10.2305 16.2777 10.164 16.2049L10.1562 16.1964L10.1521 16.1921C10.0837 16.1169 10.0168 16.04 9.95119 15.9625L9.8961 15.8969C9.8473 15.8381 9.79905 15.7789 9.75191 15.7196L9.69312 15.6449C9.64025 15.5765 9.58793 15.5074 9.53709 15.4373L9.50825 15.3983L9.50326 15.3918C9.44466 15.3105 9.38772 15.2276 9.33208 15.1448L9.28179 15.0668C9.24131 15.0054 9.20193 14.9441 9.16348 14.8819L9.10524 14.786C9.07049 14.728 9.03666 14.6699 9.00357 14.6115L8.94792 14.5118L8.91686 14.4566L8.86677 14.3604L8.78857 14.2087C7.72133 12.0746 7.54719 9.46166 8.94459 7.45345L10.0351 6.07028C8.80484 8.44859 9.35796 11.3445 10.8972 13.4442C10.9529 13.5208 11.0098 13.5965 11.0678 13.6714L11.122 13.7387C11.1702 13.8003 11.2197 13.8613 11.2697 13.9214L11.3235 13.9853C11.3904 14.0645 11.4589 14.1424 11.5288 14.219L11.5388 14.2297C11.6052 14.3022 11.6726 14.3735 11.7413 14.4438L11.806 14.5085C11.8601 14.5634 11.915 14.617 11.971 14.6701L12.0357 14.7324C12.1112 14.8031 12.1879 14.8726 12.2657 14.9407L12.2896 14.9609C12.3616 15.0231 12.4345 15.0844 12.5081 15.1448L12.5863 15.2077C12.6441 15.254 12.7025 15.2996 12.7615 15.3445L12.8477 15.4097C12.9118 15.4573 12.9765 15.504 13.042 15.5502L13.1082 15.5968C13.1759 15.6435 13.2445 15.689 13.3137 15.7334L13.3916 15.7852C13.487 15.8457 13.5833 15.9048 13.6805 15.9623L13.7554 16.0041C13.8285 16.0469 13.9024 16.0884 13.977 16.1285L14.1005 16.1932C14.1139 16.2001 14.1272 16.207 14.1406 16.2139C14.1887 16.2388 14.237 16.2638 14.2856 16.2875L14.3549 16.3208C14.4342 16.3588 14.5139 16.3959 14.5941 16.4321L14.6509 16.4572C14.7446 16.4983 14.8392 16.5377 14.9345 16.5751L15.008 16.604C15.0951 16.6378 15.1827 16.6702 15.2707 16.7014L15.3116 16.7162C15.4104 16.7501 15.5097 16.7824 15.6096 16.8131L15.6867 16.8364C15.7082 16.8427 15.7297 16.8492 15.7513 16.8557C15.8321 16.8801 15.9132 16.9046 15.9961 16.9232C18.7688 17.554 21.695 16.9874 23.3437 14.8396C23.3437 14.8396 21.3809 20.1327 14.6233 18.9006C14.5436 18.8858 14.4665 18.8612 14.3894 18.8367C14.3636 18.8285 14.3378 18.8202 14.3118 18.8124L14.2388 18.7908C14.1373 18.7592 14.0367 18.7268 13.9371 18.6921L13.9031 18.6804C13.8123 18.6484 13.7217 18.6148 13.6326 18.58L13.5627 18.5527C13.4662 18.5146 13.3709 18.475 13.276 18.4334L13.2241 18.4103C13.1414 18.3735 13.0595 18.3353 12.9784 18.2966L12.9148 18.2659ZM13.6158 11.5242C13.5976 11.4979 13.5796 11.4718 13.5618 11.4464C13.3963 11.2081 13.247 10.9589 13.1152 10.7004C12.3269 9.16254 12.272 7.21571 13.2825 5.76173L14.1081 4.59597C13.4361 5.73123 13.3526 7.1303 13.7404 8.3763C14.1107 9.57812 14.8892 10.6381 15.8714 11.4133L15.9348 11.4634C16.027 11.5344 16.121 11.6032 16.2167 11.6695L16.352 11.759L16.4151 11.8013C16.484 11.8451 16.5538 11.8875 16.6243 11.9287L16.6656 11.9522C16.7225 11.9853 16.7802 12.0182 16.8382 12.0496L16.917 12.0901L17.0536 12.1596C17.1432 12.2041 17.234 12.2463 17.3257 12.2862L17.3856 12.3117C17.4593 12.3428 17.5335 12.3727 17.6082 12.4014L17.7014 12.4362C17.7698 12.4611 17.8387 12.485 17.908 12.5073L17.997 12.536C18.0947 12.5669 18.1932 12.5954 18.2924 12.6214C20.5363 13.2037 22.639 12.4578 23.7249 10.894C23.7249 10.894 22.5203 14.9113 17.303 14.0467C17.2287 14.0344 17.1573 14.0106 17.0861 13.9869C17.0602 13.9783 17.0344 13.9697 17.0085 13.9617L16.9162 13.9321C16.8478 13.9094 16.7802 13.8864 16.7125 13.8613L16.6175 13.8265C16.5432 13.7981 16.469 13.7676 16.3958 13.7365L16.3361 13.7119C16.2444 13.6718 16.1546 13.6297 16.0655 13.5858L16.0459 13.577L15.9161 13.5099L15.8503 13.4753C15.7882 13.4417 15.7261 13.4069 15.6649 13.3716L15.6353 13.3544C15.5641 13.3134 15.4944 13.2701 15.4255 13.2261L15.3641 13.1854L15.2351 13.1004L15.2267 13.0943C15.1302 13.0279 15.0361 12.9584 14.9437 12.8876L14.8821 12.8395C14.7901 12.7667 14.6995 12.6928 14.6117 12.6159L14.6095 12.6134L14.5999 12.6053C14.5207 12.5352 14.444 12.4633 14.3684 12.3901L14.3085 12.3313C14.2309 12.2543 14.1547 12.1762 14.0819 12.096C13.9045 11.942 13.753 11.7228 13.6158 11.5242ZM19.1906 9.69237L19.0611 9.64745C18.0186 9.26496 17.1253 8.45894 16.6894 7.43108C16.276 6.46312 16.3346 5.37425 16.9303 4.49743L17.3762 3.88293C16.552 5.37185 17.3366 7.19963 18.5996 8.15816C18.8216 8.32603 19.0598 8.47138 19.3106 8.59204C19.4428 8.65509 19.5781 8.71124 19.716 8.76027C19.8281 8.80107 19.9421 8.83624 20.0577 8.86565C21.4691 9.2082 22.6194 8.97176 23.3039 7.98624C23.2829 8.01646 23.2561 8.06435 23.2219 8.12547C22.9168 8.67003 22.0236 10.2646 19.4336 9.7641C19.3851 9.75506 19.3381 9.73975 19.2912 9.72446C19.2768 9.71974 19.2623 9.71502 19.2478 9.71049L19.1906 9.69237ZM15.499 21.4421H16.2803C16.3237 21.4423 16.3518 21.4769 16.3428 21.5194L15.9775 23.2368L15.6122 24.954C15.6067 24.9755 15.5945 24.9945 15.5773 25.0084C15.5601 25.0223 15.5389 25.0303 15.5168 25.0311H13.8229L13.7914 25.0306C12.7122 25.0034 12.6597 24.1388 12.8582 23.2324L12.8741 23.1562L12.8745 23.1551L13.0468 22.3371L13.2193 21.5192C13.2246 21.4978 13.2367 21.4786 13.2538 21.4647C13.271 21.4507 13.2922 21.4427 13.3143 21.4419H14.1161C14.1258 21.4415 14.1354 21.4433 14.1443 21.4473C14.1532 21.4513 14.161 21.4573 14.1671 21.4648C14.1732 21.4723 14.1775 21.4812 14.1796 21.4907C14.1817 21.5002 14.1815 21.51 14.1791 21.5194L14.0528 22.1354L13.9268 22.7514L13.8983 22.8965L13.8715 23.039L13.8465 23.1721L13.8443 23.1843L13.8321 23.2498L13.8288 23.2655C13.7167 23.7838 13.6535 24.1623 14.2005 24.1623H14.7535C14.7756 24.1614 14.7968 24.1535 14.814 24.1396C14.8312 24.1257 14.8434 24.1066 14.8489 24.0852L15.1262 22.8022L15.4035 21.5192C15.409 21.4978 15.4213 21.4787 15.4385 21.4648C15.4557 21.4509 15.4769 21.443 15.499 21.4421ZM7.05618 21.4331H7.91396C7.95741 21.4331 7.98514 21.4678 7.97608 21.5102L7.89751 21.869L7.81894 22.2278C7.81342 22.2493 7.80111 22.2684 7.78386 22.2822C7.7666 22.2961 7.74532 22.3041 7.72318 22.3049H6.85874C6.8153 22.3049 6.78776 22.2703 6.79718 22.228L6.87852 21.869L6.95987 21.51C6.96561 21.4886 6.97806 21.4695 6.99539 21.4557C7.01272 21.4419 7.03402 21.4339 7.05618 21.4331ZM6.80051 22.5504H7.66513C7.70839 22.5504 7.73649 22.5852 7.72743 22.6271L7.47583 23.7912L7.20759 25.0324C6.97854 26.1139 6.62082 26.4897 5.94255 26.4897C5.73383 26.4897 5.38887 26.4858 5.23488 26.484C5.1918 26.4833 5.16444 26.4485 5.17461 26.4064L5.26408 26.0296L5.35374 25.6527C5.35971 25.6314 5.37234 25.6126 5.38978 25.5991C5.40722 25.5855 5.42873 25.5779 5.4508 25.5774L5.68577 25.5817L5.71978 25.5824C5.99135 25.5879 6.15292 25.1073 6.15292 25.1073C6.16679 25.0663 6.18546 24.9979 6.19452 24.9555L6.31098 24.4063L6.42764 23.8572L6.46147 23.703L6.58274 23.1653L6.7042 22.6273C6.70997 22.6059 6.72242 22.5869 6.73975 22.5731C6.75707 22.5592 6.77836 22.5513 6.80051 22.5504ZM23.5494 22.1113L23.5853 22.2594C23.5951 22.3018 23.5677 22.3363 23.5243 22.336L21.4743 22.3369C21.4523 22.3378 21.4311 22.3458 21.4139 22.3597C21.3968 22.3735 21.3846 22.3926 21.3791 22.414L21.255 22.9952L21.1146 23.6533L21.0988 23.7306L20.9829 24.3037L20.8672 24.8766C20.8585 24.9189 20.8236 25.0041 20.7999 25.0138C20.7762 25.0234 20.7213 25.0311 20.6779 25.0311H20.0264C19.9832 25.0311 19.8998 25.0138 19.8946 24.9925C19.8894 24.9714 19.8924 24.9193 19.9016 24.8768L20.2104 23.4307L20.5355 21.9074L20.5461 21.8573L20.5838 21.6791L20.6158 21.5283C20.6212 21.5069 20.6334 21.4878 20.6505 21.4739C20.6677 21.46 20.6889 21.452 20.711 21.4512H21.4333L22.0751 21.4521L22.7721 21.4528C23.2198 21.4528 23.4259 21.6102 23.4962 21.8832L23.5141 21.9598L23.5494 22.1113ZM26.0664 20.9215L26.2243 20.921L26.4718 20.9195C26.5151 20.9191 26.5293 20.9474 26.503 20.9822L24.1475 24.1085C24.1175 24.1509 24.0948 24.1981 24.0804 24.248L23.8981 24.9566C23.8917 24.978 23.8788 24.9969 23.8611 25.0105C23.8435 25.0242 23.822 25.0321 23.7997 25.033H22.8778C22.8344 25.033 22.8077 24.9988 22.8186 24.9566L23.0007 24.248C23.0115 24.2059 23.0105 24.1375 22.9987 24.0957L22.5807 22.6314C22.5689 22.5898 22.5946 22.5558 22.638 22.5558H23.5707C23.5929 22.5566 23.6142 22.5645 23.6316 22.5783C23.649 22.5922 23.6614 22.6112 23.6672 22.6327L23.774 23.1009C23.7837 23.1431 23.8116 23.1483 23.836 23.1124L25.287 20.9868C25.3016 20.9677 25.3202 20.952 25.3415 20.9407C25.3628 20.9294 25.3863 20.9229 25.4103 20.9215H26.0664ZM18.7826 22.8117C18.7995 22.7967 18.8105 22.777 18.8137 22.7547C18.8468 22.4872 18.7518 22.2494 18.2648 22.2496C17.8324 22.2496 17.6025 22.4467 17.4895 22.7469L17.4841 22.7671L17.4843 22.7706L17.4832 22.7734C17.4771 22.8077 17.4978 22.8355 17.5389 22.8355H18.7215C18.744 22.835 18.7657 22.8266 18.7826 22.8117ZM16.3871 23.2411C16.589 22.311 16.9488 21.3896 18.4667 21.3896C19.9026 21.3898 19.9989 22.2411 19.6637 23.5054L19.6584 23.525C19.6517 23.5416 19.6404 23.5559 19.6258 23.5662C19.6112 23.5766 19.5939 23.5825 19.5761 23.5833H19.5748H17.3174C17.2558 24.0221 17.4226 24.1713 17.9844 24.1713H19.3966C19.4063 24.1708 19.4159 24.1726 19.4248 24.1766C19.4337 24.1805 19.4415 24.1865 19.4476 24.194C19.4538 24.2015 19.458 24.2104 19.4601 24.2199C19.4622 24.2294 19.462 24.2392 19.4596 24.2486L19.3838 24.6194L19.3714 24.6799L19.3078 24.9906C19.3026 25.012 19.2906 25.0311 19.2737 25.045C19.2567 25.059 19.2357 25.0672 19.2138 25.0683C19.0453 25.0696 18.6292 25.0727 18.2144 25.0744H18.211L18.0225 25.0749H18.0114L17.9641 25.0751H17.7736C16.2026 25.0751 16.1855 24.1891 16.3871 23.2411ZM11.2706 22.8255L11.292 22.7499C11.5144 22.0026 11.3303 21.3552 10.4097 21.4247C9.73601 21.4756 9.40935 21.9775 9.24278 22.785C9.07603 23.5744 9.24278 24.1098 9.92716 24.1098H10.8293C10.8518 24.1089 10.8735 24.1011 10.8914 24.0875C10.9094 24.0739 10.9227 24.0552 10.9297 24.0338L11.1001 23.4298L11.2706 22.8255ZM12.4328 22.4339C12.3363 23.0303 11.911 24.0634 11.911 24.0634L11.906 24.0809C11.9015 24.1125 11.9226 24.1366 11.9594 24.1367L12.1474 24.1379L12.3354 24.139C12.3789 24.1393 12.4053 24.1737 12.3944 24.2159L12.1982 24.9638C12.1916 24.9852 12.1786 25.0039 12.1609 25.0176C12.1433 25.0313 12.1218 25.0393 12.0995 25.0404L10.9739 25.0444L9.76929 25.0489C8.24247 25.0576 7.90916 23.9959 8.16353 22.785C8.41791 21.5828 9.08491 20.4771 10.6204 20.4771C12.1648 20.4771 12.5647 21.6355 12.4328 22.4339ZM19.5088 23.3916C19.5114 23.3853 19.5127 23.3786 19.5127 23.3718C19.5127 23.358 19.5072 23.3449 19.4975 23.3352C19.4877 23.3255 19.4746 23.3201 19.4608 23.3201C19.4471 23.3201 19.4339 23.3256 19.4242 23.3353C19.4146 23.345 19.4091 23.3582 19.4092 23.372C19.4092 23.3787 19.4105 23.3855 19.4131 23.3918C19.4157 23.398 19.4196 23.4037 19.4244 23.4085C19.4292 23.4133 19.4349 23.4171 19.4412 23.4197C19.4475 23.4223 19.4542 23.4236 19.461 23.4236C19.4678 23.4236 19.4745 23.4223 19.4808 23.4196C19.4871 23.417 19.4928 23.4132 19.4976 23.4084C19.5024 23.4036 19.5062 23.3979 19.5088 23.3916Z" fill="#3558A8"/>
</svg>
