<svg width="18" height="18" viewBox="0 0 18 18" fill="none" xmlns="http://www.w3.org/2000/svg">
<path d="M16.2826 15.2175L15.2176 16.2825C15.0771 16.4222 14.887 16.5006 14.6889 16.5006C14.4907 16.5006 14.3006 16.4222 14.1601 16.2825L5.25011 7.3875C5.00621 7.45816 4.75399 7.49599 4.50011 7.5C4.02258 7.49966 3.55204 7.38533 3.1276 7.16652C2.70316 6.94771 2.33708 6.63075 2.0598 6.24197C1.78253 5.8532 1.60206 5.40385 1.53341 4.93129C1.46476 4.45872 1.50991 3.9766 1.66511 3.525L3.57011 5.43L3.96761 5.0325L5.03261 3.9675L5.43011 3.57L3.52511 1.665C3.97671 1.5098 4.45883 1.46466 4.93139 1.5333C5.40395 1.60195 5.8533 1.78242 6.24208 2.0597C6.63085 2.33697 6.94782 2.70305 7.16663 3.12749C7.38544 3.55193 7.49977 4.02248 7.50011 4.5C7.4961 4.75389 7.45826 5.00611 7.38761 5.25L16.2826 14.16C16.4223 14.3005 16.5007 14.4906 16.5007 14.6887C16.5007 14.8869 16.4223 15.077 16.2826 15.2175ZM1.71761 14.16C1.57792 14.3005 1.49951 14.4906 1.49951 14.6887C1.49951 14.8869 1.57792 15.077 1.71761 15.2175L2.78261 16.2825C2.92313 16.4222 3.11322 16.5006 3.31136 16.5006C3.5095 16.5006 3.69958 16.4222 3.84011 16.2825L7.94261 12.1875L5.82011 10.065M15.0001 1.5L12.0001 3V4.5L10.3726 6.1275L11.8726 7.6275L13.5001 6H15.0001L16.5001 3L15.0001 1.5Z" fill="white"/>
</svg>
