<?xml version="1.0" standalone="no"?>
<!DOCTYPE svg PUBLIC "-//W3C//DTD SVG 1.1//EN" "http://www.w3.org/Graphics/SVG/1.1/DTD/svg11.dtd" >
<svg xmlns="http://www.w3.org/2000/svg" xmlns:xlink="http://www.w3.org/1999/xlink" version="1.1">
<metadata>
Created by FontForge 20170731 at Sat May 15 16:48:34 2021
 By Aleksey,,,
Copyright 2021, Kris Sowersby, Klim Type Foundry.
</metadata>
<defs>
<font id="Maelstrom-Bold" horiz-adv-x="1568" >
  <font-face 
    font-family="Test Maelstrom Bold"
    font-weight="700"
    font-stretch="normal"
    units-per-em="2048"
    panose-1="2 6 8 3 9 9 3 4 4 1"
    ascent="1589"
    descent="-459"
    x-height="1434"
    cap-height="1434"
    bbox="6 -313 2591 1454"
    underline-thickness="102"
    underline-position="-307"
    unicode-range="U+0020-007A"
  />
<missing-glyph horiz-adv-x="440" 
 />
    <glyph glyph-name=".notdef" horiz-adv-x="440" 
 />
    <glyph glyph-name=".null" horiz-adv-x="0" 
 />
    <glyph glyph-name="nonmarkingreturn" horiz-adv-x="682" 
 />
    <glyph glyph-name="space" unicode=" " horiz-adv-x="512" 
 />
    <glyph glyph-name="comma" unicode="," horiz-adv-x="473" 
d="M459 0h-453v438h461v-438q0 -108 -66.5 -198.5t-183.5 -114.5v8q110 22 176 110.5t66 194.5z" />
    <glyph glyph-name="hyphen" unicode="-" horiz-adv-x="423" 
d="M41 707v16h342v-16h-342z" />
    <glyph glyph-name="period" unicode="." horiz-adv-x="473" 
d="M467 438v-438h-461v438h461z" />
    <glyph glyph-name="zero" unicode="0" horiz-adv-x="1495" 
d="M6 719q0 157 59 295t159 234t236.5 151t287.5 55q203 0 372 -93.5t269 -263t100 -378.5t-100 -378.5t-269 -263t-372 -93.5q-151 0 -287.5 55t-236.5 151t-159 234t-59 295zM1481 719q0 137 -81 208.5t-214 71.5h-877q-133 0 -214 -71.5t-81 -208.5q0 -138 81 -209.5
t214 -71.5h877q133 0 214 71.5t81 209.5z" />
    <glyph glyph-name="one" unicode="1" horiz-adv-x="1110" 
d="M686 438h418v-438h-1098v438h500q44 0 65 17.5t21 60.5v383q0 42 -22.5 53t-63.5 0l-397 -88v439l491 131v-918q0 -43 21 -60.5t65 -17.5z" />
    <glyph glyph-name="two" unicode="2" horiz-adv-x="1339" 
d="M1333 0h-1327q0 94 23 171.5t62 135.5t100.5 107t128.5 84t157.5 67.5t176 57.5t193.5 55q6 1 9 2l119 33q64 18 100.5 29.5t76.5 28t59.5 33t32.5 39.5t13 52q0 51 -35.5 75.5t-111.5 24.5h-930q-31 0 -52.5 -4.5t-44.5 -19t-34.5 -47.5t-11.5 -84h-10q0 278 187 446
t505 168q286 0 450 -129t164 -326q0 -47 -9.5 -83.5t-32 -65t-48.5 -48.5t-71.5 -39t-87.5 -32t-109 -31l-115 -30q-100 -27 -167.5 -81.5t-106 -140t-54.5 -191t-16 -249.5h809l-414 430h422v-438z" />
    <glyph glyph-name="three" unicode="3" horiz-adv-x="1398" 
d="M1118 713h-842v8h842q98 0 148.5 42t50.5 103t-42.5 95t-127.5 34h-987q-62 0 -103 -35.5t-41 -119.5h-10q0 282 190.5 448t546.5 166q187 0 333.5 -56.5t231.5 -165t85 -251.5q0 -100 -59.5 -174.5t-159.5 -89.5q100 -15 159.5 -89.5t59.5 -174.5q0 -143 -85.5 -251.5
t-232 -165t-332.5 -56.5q-356 0 -546.5 166t-190.5 448h10q0 -84 41.5 -120t102.5 -36h987q84 0 127 34.5t43 96.5q0 61 -50.5 102.5t-148.5 41.5z" />
    <glyph glyph-name="four" unicode="4" horiz-adv-x="1335" 
d="M887 920l-627 -365h619v197h8v-197h442v-8h-442v-31q0 -43 21 -60.5t65 -17.5h356v-438h-893v438h357q44 0 65 17.5t21 60.5v31h-873v356l873 531h8v-514z" />
    <glyph glyph-name="five" unicode="5" horiz-adv-x="1388" 
d="M479 721h637q131 0 195.5 -71t64.5 -177q0 -223 -177 -358t-484 -135q-329 0 -519 168t-190 446h10q0 -52 12 -84.5t38 -47.5t52.5 -19.5t69.5 -4.5h942q84 0 127 36.5t43 98.5t-43.5 101t-140.5 39h-1110l144 721h481q1 -76 12.5 -133.5t28.5 -90.5t40.5 -54t44 -27.5
t42.5 -6.5q86 0 116.5 74.5t30.5 237.5h436q0 -100 -24 -179t-62 -128t-88.5 -81.5t-99.5 -45.5t-100 -13q-185 0 -284 113.5t-99 304.5z" />
    <glyph glyph-name="six" unicode="6" horiz-adv-x="1398" 
d="M41 524q6 94 67 145.5t168 51.5h857q132 0 196 -68.5t64 -177.5q0 -97 -47.5 -187t-130.5 -158t-204.5 -109t-260.5 -41q-227 0 -397.5 97t-258.5 263t-88 377q0 112 29.5 219t90.5 201t146.5 164.5t205 111.5t257.5 41q297 0 477.5 -169t180.5 -445h-11q0 51 -11.5 84
t-34.5 47.5t-44.5 19t-52.5 4.5h-950q-131 0 -203 -69.5t-72 -208.5q0 -117 27 -193zM92 573q0 -135 184 -135h871q84 0 127 35.5t43 97.5t-43.5 102t-140.5 40h-857q-97 0 -140.5 -39t-43.5 -101z" />
    <glyph glyph-name="seven" unicode="7" horiz-adv-x="1269" 
d="M649 0h-524l1130 1425h-1241l414 -430h-422v439h1258v-639z" />
    <glyph glyph-name="eight" unicode="8" horiz-adv-x="1368" 
d="M684 -20q-150 0 -279.5 38t-215.5 99.5t-134.5 139.5t-48.5 159q0 53 15 91.5t39.5 64t70 44t92.5 29.5t121 23l313 49l-313 49q-75 12 -124 24t-93 30.5t-68.5 44.5t-38.5 63.5t-14 89.5q0 81 48.5 159t134.5 139.5t215.5 99.5t279.5 38t279.5 -38t215.5 -99.5
t134.5 -139.5t48.5 -159q0 -53 -15 -91.5t-39.5 -64t-70 -44t-92.5 -29.5t-121 -23l-313 -49l313 -49q74 -12 121 -23t92.5 -29.5t70 -44t39.5 -64t15 -91.5q0 -81 -48.5 -159t-134.5 -139.5t-215.5 -99.5t-279.5 -38zM205 995q-137 0 -137 -75q0 -60 70.5 -92t219.5 -56
l326 -51l326 51q149 24 219.5 56t70.5 92q0 75 -137 75h-958zM205 438h958q137 0 137 76q0 60 -70.5 92t-219.5 56l-326 51l-326 -51q-149 -24 -219.5 -56t-70.5 -92q0 -76 137 -76z" />
    <glyph glyph-name="nine" unicode="9" horiz-adv-x="1398" 
d="M1307 860q0 61 -43.5 98t-141.5 37h-870q-84 0 -127 -35.5t-43 -97.5t43.5 -101.5t140.5 -39.5h856q97 0 141 38.5t44 100.5zM1358 909q-6 -94 -67.5 -145t-168.5 -51h-856q-132 0 -196 68t-64 177q0 97 47.5 187t130.5 158.5t204.5 109.5t260.5 41q227 0 397.5 -97
t258.5 -263t88 -377q0 -112 -29.5 -219t-90.5 -201t-146.5 -164.5t-205 -111.5t-257.5 -41q-297 0 -477.5 169t-180.5 445h10q0 -51 12 -84t35 -48t44.5 -19.5t52.5 -4.5h950q131 0 202.5 70t71.5 209q0 119 -26 192z" />
    <glyph glyph-name="A" unicode="A" horiz-adv-x="1777" 
d="M1094 997l-164 -317h327zM1057 438v-438h-1051v438h197q43 0 64 15.5t48 64.5l506 916h619v-439h-336l248 -477q25 -48 47 -64t65 -16h308v-438h-703v438h236q36 0 46.5 20t-8.5 58l-79 156h-340l-80 -156q-19 -38 -8 -58t47 -20h174z" />
    <glyph glyph-name="B" unicode="B" horiz-adv-x="1509" 
d="M1468 1057q0 -52 -9.5 -99t-32.5 -92t-58.5 -77.5t-91.5 -52t-127 -19.5q179 0 266.5 -88.5t87.5 -227.5q0 -193 -119 -297t-362 -104h-1016v438h356q45 0 66 17.5t21 60.5v402q0 43 -21 60t-66 17h-356v439h1006q225 0 340.5 -98.5t115.5 -278.5zM535 721h593
q115 0 174.5 38.5t59.5 110.5q0 125 -174 125h-645q-45 0 -65.5 -17t-20.5 -60v-111q0 -44 17.5 -65t60.5 -21zM1128 713h-593q-43 0 -60.5 -21t-17.5 -65v-111q0 -43 21 -60.5t65 -17.5h671q175 0 175 125q0 71 -70.5 110.5t-190.5 39.5z" />
    <glyph glyph-name="C" unicode="C" horiz-adv-x="1527" 
d="M1522 840h-11q0 91 -63 123t-193 32h-940q-143 0 -221 -70t-78 -208t78.5 -208.5t220.5 -70.5h940q130 0 193 32.5t63 123.5h11q0 -138 -57.5 -255t-155 -194.5t-226 -121t-270.5 -43.5q-151 0 -282.5 41t-226 112t-163 165t-102 201t-33.5 218t33.5 218t102 201t163 165
t226 112t282.5 41q246 0 438.5 -123t251.5 -330h8q-33 142 -163.5 267t-319.5 166h494v-594z" />
    <glyph glyph-name="D" unicode="D" 
d="M805 0h-799v438h356q45 0 66 17.5t21 60.5v402q0 43 -21 60t-66 17h-356v439h799q171 0 315.5 -60t240 -160t149 -229t53.5 -268t-53.5 -268t-149 -229t-240 -160t-315.5 -60zM543 438h731q278 0 278 279q0 278 -278 278h-731q-45 0 -65.5 -17t-20.5 -60v-402
q0 -43 21 -60.5t65 -17.5z" />
    <glyph glyph-name="E" unicode="E" horiz-adv-x="1411" 
d="M1405 0h-1399v438h356q45 0 66 17.5t21 60.5v402q0 43 -21 60t-66 17h-356v439h1399v-711h-395l393 272h-860q-45 0 -65.5 -17t-20.5 -60v-113q0 -44 17.5 -65t60.5 -21h376l-393 264h395v-532h-395l393 260h-376q-43 0 -60.5 -21t-17.5 -65v-109q0 -43 21 -60.5
t65 -17.5h860l-393 273h395v-711z" />
    <glyph glyph-name="F" unicode="F" horiz-adv-x="1370" 
d="M1065 438v-438h-1059v438h356q45 0 66 17.5t21 60.5v402q0 43 -21 60t-66 17h-356v439h1358v-713h-395l393 274h-819q-45 0 -65.5 -17t-20.5 -60v-113q0 -44 17.5 -65t60.5 -21h376l-393 264h395v-532h-395l393 260h-376q-43 0 -60.5 -21t-17.5 -65v-109q0 -43 21 -60.5
t65 -17.5h522z" />
    <glyph glyph-name="G" unicode="G" horiz-adv-x="1527" 
d="M1522 987v-987h-494q189 41 319.5 165.5t163.5 266.5h-8q-59 -207 -251.5 -329.5t-438.5 -122.5q-151 0 -282.5 41t-226 112t-163 165t-102 201t-33.5 218t33.5 218t102 201t163 165t226 112t282.5 41q246 0 438.5 -123t251.5 -330h8q-33 142 -163.5 267t-319.5 166h494
v-439h-1207q-143 0 -221 -70t-78 -208t78.5 -208.5t220.5 -70.5h1198q0 107 -131 107h-313v442h453z" />
    <glyph glyph-name="H" unicode="H" horiz-adv-x="1814" 
d="M1280 711h-745q-43 0 -60.5 -21t-17.5 -65v-109q0 -43 21 -60.5t65 -17.5h358v-438h-895v438h356q45 0 66 17.5t21 60.5v402q0 43 -21 60t-66 17h-356v439h895v-439h-358q-45 0 -65.5 -17t-20.5 -60v-113q0 -44 17.5 -65t60.5 -21h745q43 0 60.5 21t17.5 65v113
q0 43 -20.5 60t-65.5 17h-359v439h895v-439h-356q-45 0 -65.5 -17t-20.5 -60v-402q0 -43 21 -60.5t65 -17.5h356v-438h-895v438h359q44 0 65 17.5t21 60.5v109q0 44 -17.5 65t-60.5 21z" />
    <glyph glyph-name="I" unicode="I" horiz-adv-x="905" 
d="M457 918v-402q0 -43 21 -60.5t65 -17.5h356v-438h-893v438h356q45 0 66 17.5t21 60.5v402q0 43 -21 60t-66 17h-356v439h893v-439h-356q-45 0 -65.5 -17t-20.5 -60z" />
    <glyph glyph-name="J" unicode="J" horiz-adv-x="1658" 
d="M649 -20q-142 0 -259 39t-203 114.5t-133.5 193t-47.5 267.5h10q0 -42 10.5 -71t27.5 -45.5t48.5 -25.5t63 -11.5t82.5 -2.5h796q131 0 184.5 66.5t53.5 212.5v201q0 43 -20.5 60t-65.5 17h-438v439h895v-439h-275q-45 0 -65.5 -17t-20.5 -60v-324q0 -150 -47.5 -267.5
t-133.5 -193t-203 -114.5t-259 -39z" />
    <glyph glyph-name="K" unicode="K" horiz-adv-x="1810" 
d="M899 438v-438h-893v438h356q45 0 66 17.5t21 60.5v402q0 43 -21 60t-66 17h-356v439h553v-439h-16q-45 0 -65.5 -17t-20.5 -60l118 77l676 439h553v-439h-393q-47 0 -74 -7.5t-63 -29.5l-264 -161l319 -303q33 -30 65.5 -43t80.5 -13h329v-438h-893v438h369q37 0 40 22.5
t-34 57.5l-287 273l-573 -353h473z" />
    <glyph glyph-name="L" unicode="L" horiz-adv-x="1370" 
d="M1364 0h-1358v438h354q44 0 65 17.5t21 60.5v402q0 43 -20.5 60t-65.5 17h-354v439h893v-439h-358q-45 0 -65.5 -17t-20.5 -60v-402q0 -43 21 -60.5t65 -17.5h821l-393 273h395v-711z" />
    <glyph glyph-name="M" unicode="M" horiz-adv-x="2174" 
d="M1094 569l340 865h735v-439h-361q-45 0 -65.5 -17t-20.5 -60v-402q0 -43 21 -60.5t65 -17.5h361v-438h-649v438h108q44 0 65 17.5t21 60.5v412l-395 -953l-406 1020v-479q0 -43 21 -60.5t65 -17.5h127v-438h-1120v438h352q44 0 65 17.5t21 60.5v402q0 43 -20.5 60
t-65.5 17h-352v439h746z" />
    <glyph glyph-name="N" unicode="N" horiz-adv-x="2230" 
d="M1358 532v386q0 43 -20.5 60t-65.5 17h-295v439h1247v-439h-311q-45 0 -65.5 -17t-20.5 -60v-943l-912 1055v-514q0 -43 21 -60.5t65 -17.5h353v-438h-1348v438h352q44 0 65 17.5t21 60.5v402q0 43 -20.5 60t-65.5 17h-352v439h574z" />
    <glyph glyph-name="O" unicode="O" 
d="M1563 717q0 -111 -33.5 -218t-100.5 -201t-159 -165t-217.5 -112t-268.5 -41q-177 0 -326.5 63t-246.5 167t-151 235.5t-54 271.5t54 271.5t151 235.5t246.5 167t326.5 63q143 0 268.5 -41t217.5 -112t159 -165t100.5 -201t33.5 -218zM1552 717q0 138 -78 208t-221 70
h-938q-143 0 -221 -70t-78 -208t78.5 -208.5t220.5 -70.5h938q142 0 220.5 70.5t78.5 208.5z" />
    <glyph glyph-name="P" unicode="P" horiz-adv-x="1552" 
d="M1161 713h-626q-43 0 -60.5 -21t-17.5 -65v-111q0 -43 21 -60.5t65 -17.5h522v-438h-1059v438h356q45 0 66 17.5t21 60.5v402q0 43 -21 60t-66 17h-356v439h1073q231 0 349 -87t118 -278q0 -161 -106.5 -258.5t-278.5 -97.5zM1149 721q106 0 169.5 36t63.5 109
q0 129 -178 129h-661q-45 0 -65.5 -17t-20.5 -60v-111q0 -44 17.5 -65t60.5 -21h614z" />
    <glyph glyph-name="Q" unicode="Q" 
d="M1522 -20h-15l-178 202q-101 -95 -240 -148.5t-305 -53.5q-177 0 -326.5 63t-246.5 167t-151 235.5t-54 271.5t54 271.5t151 235.5t246.5 167t326.5 63q143 0 268.5 -41t217.5 -112t159 -165t100.5 -201t33.5 -218q0 -146 -59 -285t-167 -242zM315 438h791l-213 242h14
l213 -242h133q142 0 220.5 70.5t78.5 208.5t-78 208t-221 70h-938q-143 0 -221 -70t-78 -208t78.5 -208.5t220.5 -70.5z" />
    <glyph glyph-name="R" unicode="R" horiz-adv-x="1609" 
d="M1604 713v-359q0 -101 -40 -184.5t-126 -136.5t-205 -53q-155 0 -254.5 105t-99.5 269v221q0 146 -150 146h-194q-43 0 -60.5 -21t-17.5 -65v-119q0 -43 21 -60.5t65 -17.5h323v-438h-860v438h356q45 0 66 17.5t21 60.5v402q0 43 -21 60t-66 17h-356v439h1090
q231 0 349 -87t118 -278q0 -160 -106 -254t-279 -94h-390q99 -19 99 -146v-36q0 -25 3 -39.5t17 -27.5t33.5 -18.5t63 -9.5t93.5 -5t136 -1q87 0 138.5 1t96.5 5t66 10t37 18t20 27t4 40v174h9zM535 729h630q234 0 234 137q0 129 -178 129h-678q-45 0 -65.5 -17t-20.5 -60
v-103q0 -44 17.5 -65t60.5 -21z" />
    <glyph glyph-name="S" unicode="S" horiz-adv-x="1527" 
d="M1237 713h-946q-144 0 -214.5 66.5t-70.5 181.5q0 144 92 257t251.5 174.5t355.5 61.5q295 0 497 -123.5t285 -329.5h8q-40 141 -183.5 266.5t-334.5 166.5h545v-594h-11q0 51 -13 84t-38 47.5t-48.5 19t-57.5 4.5h-1067q-93 0 -140 -35.5t-47 -97.5q0 -141 191 -141h946
q144 0 214.5 -66.5t70.5 -181.5q0 -144 -92 -257t-251.5 -174.5t-355.5 -61.5q-295 0 -497 123t-285 329h-8q40 -141 183.5 -266t334.5 -166h-545v594h10q0 -51 13 -84t38.5 -48t49 -19.5t57.5 -4.5h1067q93 0 139.5 35.5t46.5 97.5q0 142 -190 142z" />
    <glyph glyph-name="T" unicode="T" horiz-adv-x="1593" 
d="M6 1434h1581v-713h-395l393 274h-698q-45 0 -65.5 -17t-20.5 -60v-402q0 -43 21 -60.5t65 -17.5h440v-438h-1061v438h441q44 0 65 17.5t21 60.5v402q0 43 -20.5 60t-65.5 17h-699l393 -274h-395v713z" />
    <glyph glyph-name="U" unicode="U" horiz-adv-x="2000" 
d="M1679 918v-340q0 -141 -36 -246.5t-98.5 -172t-159 -107t-205.5 -56.5t-250 -16q-268 0 -415.5 134t-147.5 371v433q0 43 -20.5 60t-65.5 17h-275v439h811v-439h-356q-45 0 -65.5 -17t-20.5 -60v-431q0 -117 39 -211t105 -153t151 -90t180 -31q176 0 268 134t92 374v408
q0 43 -20.5 60t-65.5 17h-295v439h1166v-439h-230q-45 0 -65.5 -17t-20.5 -60z" />
    <glyph glyph-name="V" unicode="V" horiz-adv-x="1777" 
d="M1772 995h-197q-42 0 -61.5 -15.5t-51.5 -64.5l-563 -935l-473 935q-25 48 -47 64t-66 16h-307v439h703v-439h-236q-36 0 -47 -19.5t8 -57.5l246 -486l283 486q19 38 8 57.5t-47 19.5h-203v439h1051v-439z" />
    <glyph glyph-name="W" unicode="W" horiz-adv-x="2596" 
d="M1718 -20l-375 739l-444 -739l-473 935q-25 48 -47 64t-66 16h-307v439h703v-439h-236q-36 0 -47 -19.5t8 -57.5l246 -486l283 486q19 38 8 57.5t-47 19.5h-203v439h907v-439h-53q-42 0 -61.5 -15.5t-51.5 -64.5l-112 -188l149 -295l283 486q19 38 8 57.5t-47 19.5h-103
v439h951v-439h-197q-42 0 -61.5 -15.5t-51.5 -64.5z" />
    <glyph glyph-name="X" unicode="X" horiz-adv-x="1810" 
d="M899 438v-438h-893v438h109q61 0 112 39l475 361l-153 94q-43 27 -59.5 35.5t-57.5 18t-98 9.5h-328v439h893v-439h-338q-33 0 -33 -22q0 -18 35 -39l148 -90l200 151v439h893v-439h-108q-62 0 -113 -39l-475 -360l154 -94q64 -40 92 -49q47 -15 123 -15h327v-438h-893
v438h338q33 0 33 23q0 18 -35 39l-147 90z" />
    <glyph glyph-name="Y" unicode="Y" horiz-adv-x="1828" 
d="M885 995h-131v439h1069v-439h-185q-14 0 -28 -3.5t-22.5 -6t-23.5 -13.5t-20 -14.5t-24.5 -21t-24.5 -21.5l-573 -477h485v-438h-985v438h485l-573 477q-6 5 -22 19t-21 18l-17.5 14t-19.5 13t-18.5 8t-22.5 6.5t-23 1.5h-184v439h735v-439h-409q-39 0 -39 -20
q0 -16 22 -33l293 -244l293 244q23 18 23 33q0 20 -39 20z" />
    <glyph glyph-name="Z" unicode="Z" horiz-adv-x="1472" 
d="M1444 995h-1436l393 -274h-395v713h1460v-439l-1437 -557h1435l-393 275h395v-713h-1460v438z" />
    <glyph glyph-name="a" unicode="a" horiz-adv-x="1777" 
d="M1094 997l-164 -317h327zM1057 438v-438h-1051v438h197q43 0 64 15.5t48 64.5l506 916h619v-439h-336l248 -477q25 -48 47 -64t65 -16h308v-438h-703v438h236q36 0 46.5 20t-8.5 58l-79 156h-340l-80 -156q-19 -38 -8 -58t47 -20h174z" />
    <glyph glyph-name="b" unicode="b" horiz-adv-x="1509" 
d="M1468 1057q0 -52 -9.5 -99t-32.5 -92t-58.5 -77.5t-91.5 -52t-127 -19.5q179 0 266.5 -88.5t87.5 -227.5q0 -193 -119 -297t-362 -104h-1016v438h356q45 0 66 17.5t21 60.5v402q0 43 -21 60t-66 17h-356v439h1006q225 0 340.5 -98.5t115.5 -278.5zM535 721h593
q115 0 174.5 38.5t59.5 110.5q0 125 -174 125h-645q-45 0 -65.5 -17t-20.5 -60v-111q0 -44 17.5 -65t60.5 -21zM1128 713h-593q-43 0 -60.5 -21t-17.5 -65v-111q0 -43 21 -60.5t65 -17.5h671q175 0 175 125q0 71 -70.5 110.5t-190.5 39.5z" />
    <glyph glyph-name="c" unicode="c" horiz-adv-x="1527" 
d="M1522 840h-11q0 91 -63 123t-193 32h-940q-143 0 -221 -70t-78 -208t78.5 -208.5t220.5 -70.5h940q130 0 193 32.5t63 123.5h11q0 -138 -57.5 -255t-155 -194.5t-226 -121t-270.5 -43.5q-151 0 -282.5 41t-226 112t-163 165t-102 201t-33.5 218t33.5 218t102 201t163 165
t226 112t282.5 41q246 0 438.5 -123t251.5 -330h8q-33 142 -163.5 267t-319.5 166h494v-594z" />
    <glyph glyph-name="d" unicode="d" 
d="M805 0h-799v438h356q45 0 66 17.5t21 60.5v402q0 43 -21 60t-66 17h-356v439h799q171 0 315.5 -60t240 -160t149 -229t53.5 -268t-53.5 -268t-149 -229t-240 -160t-315.5 -60zM543 438h731q278 0 278 279q0 278 -278 278h-731q-45 0 -65.5 -17t-20.5 -60v-402
q0 -43 21 -60.5t65 -17.5z" />
    <glyph glyph-name="e" unicode="e" horiz-adv-x="1411" 
d="M1405 0h-1399v438h356q45 0 66 17.5t21 60.5v402q0 43 -21 60t-66 17h-356v439h1399v-711h-395l393 272h-860q-45 0 -65.5 -17t-20.5 -60v-113q0 -44 17.5 -65t60.5 -21h376l-393 264h395v-532h-395l393 260h-376q-43 0 -60.5 -21t-17.5 -65v-109q0 -43 21 -60.5
t65 -17.5h860l-393 273h395v-711z" />
    <glyph glyph-name="f" unicode="f" horiz-adv-x="1370" 
d="M1065 438v-438h-1059v438h356q45 0 66 17.5t21 60.5v402q0 43 -21 60t-66 17h-356v439h1358v-713h-395l393 274h-819q-45 0 -65.5 -17t-20.5 -60v-113q0 -44 17.5 -65t60.5 -21h376l-393 264h395v-532h-395l393 260h-376q-43 0 -60.5 -21t-17.5 -65v-109q0 -43 21 -60.5
t65 -17.5h522z" />
    <glyph glyph-name="g" unicode="g" horiz-adv-x="1527" 
d="M1522 987v-987h-494q189 41 319.5 165.5t163.5 266.5h-8q-59 -207 -251.5 -329.5t-438.5 -122.5q-151 0 -282.5 41t-226 112t-163 165t-102 201t-33.5 218t33.5 218t102 201t163 165t226 112t282.5 41q246 0 438.5 -123t251.5 -330h8q-33 142 -163.5 267t-319.5 166h494
v-439h-1207q-143 0 -221 -70t-78 -208t78.5 -208.5t220.5 -70.5h1198q0 107 -131 107h-313v442h453z" />
    <glyph glyph-name="h" unicode="h" horiz-adv-x="1814" 
d="M1280 711h-745q-43 0 -60.5 -21t-17.5 -65v-109q0 -43 21 -60.5t65 -17.5h358v-438h-895v438h356q45 0 66 17.5t21 60.5v402q0 43 -21 60t-66 17h-356v439h895v-439h-358q-45 0 -65.5 -17t-20.5 -60v-113q0 -44 17.5 -65t60.5 -21h745q43 0 60.5 21t17.5 65v113
q0 43 -20.5 60t-65.5 17h-359v439h895v-439h-356q-45 0 -65.5 -17t-20.5 -60v-402q0 -43 21 -60.5t65 -17.5h356v-438h-895v438h359q44 0 65 17.5t21 60.5v109q0 44 -17.5 65t-60.5 21z" />
    <glyph glyph-name="i" unicode="i" horiz-adv-x="905" 
d="M457 918v-402q0 -43 21 -60.5t65 -17.5h356v-438h-893v438h356q45 0 66 17.5t21 60.5v402q0 43 -21 60t-66 17h-356v439h893v-439h-356q-45 0 -65.5 -17t-20.5 -60z" />
    <glyph glyph-name="j" unicode="j" horiz-adv-x="1658" 
d="M649 -20q-142 0 -259 39t-203 114.5t-133.5 193t-47.5 267.5h10q0 -42 10.5 -71t27.5 -45.5t48.5 -25.5t63 -11.5t82.5 -2.5h796q131 0 184.5 66.5t53.5 212.5v201q0 43 -20.5 60t-65.5 17h-438v439h895v-439h-275q-45 0 -65.5 -17t-20.5 -60v-324q0 -150 -47.5 -267.5
t-133.5 -193t-203 -114.5t-259 -39z" />
    <glyph glyph-name="k" unicode="k" horiz-adv-x="1810" 
d="M899 438v-438h-893v438h356q45 0 66 17.5t21 60.5v402q0 43 -21 60t-66 17h-356v439h553v-439h-16q-45 0 -65.5 -17t-20.5 -60l118 77l676 439h553v-439h-393q-47 0 -74 -7.5t-63 -29.5l-264 -161l319 -303q33 -30 65.5 -43t80.5 -13h329v-438h-893v438h369q37 0 40 22.5
t-34 57.5l-287 273l-573 -353h473z" />
    <glyph glyph-name="l" unicode="l" horiz-adv-x="1370" 
d="M1364 0h-1358v438h354q44 0 65 17.5t21 60.5v402q0 43 -20.5 60t-65.5 17h-354v439h893v-439h-358q-45 0 -65.5 -17t-20.5 -60v-402q0 -43 21 -60.5t65 -17.5h821l-393 273h395v-711z" />
    <glyph glyph-name="m" unicode="m" horiz-adv-x="2174" 
d="M1094 569l340 865h735v-439h-361q-45 0 -65.5 -17t-20.5 -60v-402q0 -43 21 -60.5t65 -17.5h361v-438h-649v438h108q44 0 65 17.5t21 60.5v412l-395 -953l-406 1020v-479q0 -43 21 -60.5t65 -17.5h127v-438h-1120v438h352q44 0 65 17.5t21 60.5v402q0 43 -20.5 60
t-65.5 17h-352v439h746z" />
    <glyph glyph-name="n" unicode="n" horiz-adv-x="2230" 
d="M1358 532v386q0 43 -20.5 60t-65.5 17h-295v439h1247v-439h-311q-45 0 -65.5 -17t-20.5 -60v-943l-912 1055v-514q0 -43 21 -60.5t65 -17.5h353v-438h-1348v438h352q44 0 65 17.5t21 60.5v402q0 43 -20.5 60t-65.5 17h-352v439h574z" />
    <glyph glyph-name="o" unicode="o" 
d="M1563 717q0 -111 -33.5 -218t-100.5 -201t-159 -165t-217.5 -112t-268.5 -41q-177 0 -326.5 63t-246.5 167t-151 235.5t-54 271.5t54 271.5t151 235.5t246.5 167t326.5 63q143 0 268.5 -41t217.5 -112t159 -165t100.5 -201t33.5 -218zM1552 717q0 138 -78 208t-221 70
h-938q-143 0 -221 -70t-78 -208t78.5 -208.5t220.5 -70.5h938q142 0 220.5 70.5t78.5 208.5z" />
    <glyph glyph-name="p" unicode="p" horiz-adv-x="1552" 
d="M1161 713h-626q-43 0 -60.5 -21t-17.5 -65v-111q0 -43 21 -60.5t65 -17.5h522v-438h-1059v438h356q45 0 66 17.5t21 60.5v402q0 43 -21 60t-66 17h-356v439h1073q231 0 349 -87t118 -278q0 -161 -106.5 -258.5t-278.5 -97.5zM1149 721q106 0 169.5 36t63.5 109
q0 129 -178 129h-661q-45 0 -65.5 -17t-20.5 -60v-111q0 -44 17.5 -65t60.5 -21h614z" />
    <glyph glyph-name="q" unicode="q" 
d="M1522 -20h-15l-178 202q-101 -95 -240 -148.5t-305 -53.5q-177 0 -326.5 63t-246.5 167t-151 235.5t-54 271.5t54 271.5t151 235.5t246.5 167t326.5 63q143 0 268.5 -41t217.5 -112t159 -165t100.5 -201t33.5 -218q0 -146 -59 -285t-167 -242zM315 438h791l-213 242h14
l213 -242h133q142 0 220.5 70.5t78.5 208.5t-78 208t-221 70h-938q-143 0 -221 -70t-78 -208t78.5 -208.5t220.5 -70.5z" />
    <glyph glyph-name="r" unicode="r" horiz-adv-x="1609" 
d="M1604 713v-359q0 -101 -40 -184.5t-126 -136.5t-205 -53q-155 0 -254.5 105t-99.5 269v221q0 146 -150 146h-194q-43 0 -60.5 -21t-17.5 -65v-119q0 -43 21 -60.5t65 -17.5h323v-438h-860v438h356q45 0 66 17.5t21 60.5v402q0 43 -21 60t-66 17h-356v439h1090
q231 0 349 -87t118 -278q0 -160 -106 -254t-279 -94h-390q99 -19 99 -146v-36q0 -25 3 -39.5t17 -27.5t33.5 -18.5t63 -9.5t93.5 -5t136 -1q87 0 138.5 1t96.5 5t66 10t37 18t20 27t4 40v174h9zM535 729h630q234 0 234 137q0 129 -178 129h-678q-45 0 -65.5 -17t-20.5 -60
v-103q0 -44 17.5 -65t60.5 -21z" />
    <glyph glyph-name="s" unicode="s" horiz-adv-x="1527" 
d="M1237 713h-946q-144 0 -214.5 66.5t-70.5 181.5q0 144 92 257t251.5 174.5t355.5 61.5q295 0 497 -123.5t285 -329.5h8q-40 141 -183.5 266.5t-334.5 166.5h545v-594h-11q0 51 -13 84t-38 47.5t-48.5 19t-57.5 4.5h-1067q-93 0 -140 -35.5t-47 -97.5q0 -141 191 -141h946
q144 0 214.5 -66.5t70.5 -181.5q0 -144 -92 -257t-251.5 -174.5t-355.5 -61.5q-295 0 -497 123t-285 329h-8q40 -141 183.5 -266t334.5 -166h-545v594h10q0 -51 13 -84t38.5 -48t49 -19.5t57.5 -4.5h1067q93 0 139.5 35.5t46.5 97.5q0 142 -190 142z" />
    <glyph glyph-name="t" unicode="t" horiz-adv-x="1593" 
d="M6 1434h1581v-713h-395l393 274h-698q-45 0 -65.5 -17t-20.5 -60v-402q0 -43 21 -60.5t65 -17.5h440v-438h-1061v438h441q44 0 65 17.5t21 60.5v402q0 43 -20.5 60t-65.5 17h-699l393 -274h-395v713z" />
    <glyph glyph-name="u" unicode="u" horiz-adv-x="2000" 
d="M1679 918v-340q0 -141 -36 -246.5t-98.5 -172t-159 -107t-205.5 -56.5t-250 -16q-268 0 -415.5 134t-147.5 371v433q0 43 -20.5 60t-65.5 17h-275v439h811v-439h-356q-45 0 -65.5 -17t-20.5 -60v-431q0 -117 39 -211t105 -153t151 -90t180 -31q176 0 268 134t92 374v408
q0 43 -20.5 60t-65.5 17h-295v439h1166v-439h-230q-45 0 -65.5 -17t-20.5 -60z" />
    <glyph glyph-name="v" unicode="v" horiz-adv-x="1777" 
d="M1772 995h-197q-42 0 -61.5 -15.5t-51.5 -64.5l-563 -935l-473 935q-25 48 -47 64t-66 16h-307v439h703v-439h-236q-36 0 -47 -19.5t8 -57.5l246 -486l283 486q19 38 8 57.5t-47 19.5h-203v439h1051v-439z" />
    <glyph glyph-name="w" unicode="w" horiz-adv-x="2596" 
d="M1718 -20l-375 739l-444 -739l-473 935q-25 48 -47 64t-66 16h-307v439h703v-439h-236q-36 0 -47 -19.5t8 -57.5l246 -486l283 486q19 38 8 57.5t-47 19.5h-203v439h907v-439h-53q-42 0 -61.5 -15.5t-51.5 -64.5l-112 -188l149 -295l283 486q19 38 8 57.5t-47 19.5h-103
v439h951v-439h-197q-42 0 -61.5 -15.5t-51.5 -64.5z" />
    <glyph glyph-name="x" unicode="x" horiz-adv-x="1810" 
d="M899 438v-438h-893v438h109q61 0 112 39l475 361l-153 94q-43 27 -59.5 35.5t-57.5 18t-98 9.5h-328v439h893v-439h-338q-33 0 -33 -22q0 -18 35 -39l148 -90l200 151v439h893v-439h-108q-62 0 -113 -39l-475 -360l154 -94q64 -40 92 -49q47 -15 123 -15h327v-438h-893
v438h338q33 0 33 23q0 18 -35 39l-147 90z" />
    <glyph glyph-name="y" unicode="y" horiz-adv-x="1828" 
d="M885 995h-131v439h1069v-439h-185q-14 0 -28 -3.5t-22.5 -6t-23.5 -13.5t-20 -14.5t-24.5 -21t-24.5 -21.5l-573 -477h485v-438h-985v438h485l-573 477q-6 5 -22 19t-21 18l-17.5 14t-19.5 13t-18.5 8t-22.5 6.5t-23 1.5h-184v439h735v-439h-409q-39 0 -39 -20
q0 -16 22 -33l293 -244l293 244q23 18 23 33q0 20 -39 20z" />
    <glyph glyph-name="z" unicode="z" horiz-adv-x="1472" 
d="M1444 995h-1436l393 -274h-395v713h1460v-439l-1437 -557h1435l-393 275h395v-713h-1460v438z" />
    </font>
</defs>
</svg>
