<svg width="94" height="84" viewBox="0 0 94 84" fill="none" xmlns="http://www.w3.org/2000/svg">
<circle cx="36.1915" cy="47.8086" r="36.1915" fill="#97E5FF"/>
<circle cx="52.4796" cy="45.8181" r="38.1818" fill="#004DFF"/>
<circle cx="32.4342" cy="44.8636" r="2.86363" fill="white"/>
<circle cx="70.6158" cy="44.8636" r="2.86363" fill="white"/>
<path d="M45.7979 48.6816C47.7069 53.4544 58.2069 52.4998 59.1615 48.6816" stroke="white" stroke-width="1.90909" stroke-linecap="round"/>
<path d="M50.864 8.86344C51.0846 5.057 73.2013 10.2915 83.9988 8.49777C85.6688 8.22035 87.4843 8.94892 88.1611 10.5006V10.5006C88.2812 10.7759 88.3605 11.0671 88.3966 11.3651L88.4306 11.6457C88.7816 14.541 86.602 17.1258 83.689 17.2689L66.2706 18.1242C62.2661 18.3208 58.1918 17.4931 55.0864 14.9572C52.8527 13.1332 50.7479 10.8659 50.864 8.86344Z" fill="#004DFF"/>
<path d="M72.4929 17.9976C73.0023 16.4927 74.6353 15.6857 76.1402 16.1951L91.0851 21.2539C92.0456 21.5791 92.6569 22.5216 92.562 23.5312V23.5312C92.537 23.7976 92.4633 24.0572 92.3446 24.2971L92.237 24.5145C91.4595 26.0855 89.6395 26.8388 87.9791 26.2768L74.2954 21.6449C72.7905 21.1354 71.9835 19.5025 72.4929 17.9976V17.9976Z" fill="#004DFF"/>
<circle cx="36.1915" cy="47.8086" r="36.1915" fill="#97E5FF" fill-opacity="0.43" style="mix-blend-mode:hard-light"/>
</svg>
