<svg width="32" height="31" viewBox="0 0 32 31" fill="none" xmlns="http://www.w3.org/2000/svg">
<g clip-path="url(#clip0_503_1686)">
<path fill-rule="evenodd" clip-rule="evenodd" d="M11.0837 6.52776H14.3071L18.9422 22.0565H16.1424L14.9895 17.6332H10.472L9.29555 22.0566H6.82506L11.0838 7.25718L11.0837 6.52776ZM14.3541 15.351L12.7542 8.78642L11.1072 15.3509L14.3541 15.351ZM23.742 10.516H21.2009V22.0566H23.742V10.516ZM22.4387 6.03236C21.6155 6.03236 20.9481 6.69203 20.9481 7.50581C20.9481 8.3196 21.6155 8.97933 22.4387 8.97933C23.2619 8.97933 23.9293 8.31966 23.9293 7.50588C23.9293 6.69209 23.262 6.03236 22.4387 6.03236ZM31.6294 30.9439H0.685547V6.10352e-05H31.6294V30.9439Z" fill="#FF9A00"/>
</g>
<defs>
<clipPath id="clip0_503_1686">
<rect x="0.685547" y="6.10352e-05" width="30.9438" height="30.9438" rx="10" fill="white"/>
</clipPath>
</defs>
</svg>
