<svg width="105" height="105" viewBox="0 0 105 105" fill="none" xmlns="http://www.w3.org/2000/svg">
<circle cx="64.3363" cy="53.626" r="34.9385" fill="#97E5FF"/>
<path fill-rule="evenodd" clip-rule="evenodd" d="M80.971 75.5394C92.427 61.252 91.7317 40.3356 78.6593 26.8364C64.4871 12.2013 41.1342 11.8261 26.4991 25.9984C11.8641 40.1706 11.4889 63.5236 25.6611 78.1586C25.8146 78.3171 25.9691 78.4739 26.1247 78.629L26.117 78.6294L51.2594 104.458C54.5674 101.353 57.4356 98.7791 60.1275 96.3637C66.2198 90.8969 71.4088 86.2407 78.7493 78.066C79.458 77.33 80.1302 76.5715 80.766 75.7928C80.84 75.7083 80.9143 75.6235 80.9888 75.5384L80.971 75.5394Z" fill="#004DFF"/>
<circle cx="64.3363" cy="53.626" r="34.9385" fill="#97E5FF" fill-opacity="0.43" style="mix-blend-mode:hard-light"/>
<path d="M32.3937 40.9698H64.9746C68.9043 40.9698 72.09 44.1555 72.09 48.0852V48.0852H39.5091C35.5793 48.0852 32.3937 44.8995 32.3937 40.9698V40.9698Z" fill="white"/>
<path d="M32.3937 59.32H64.9746C68.9043 59.32 72.09 62.5057 72.09 66.4354V66.4354H39.5091C35.5793 66.4354 32.3937 63.2497 32.3937 59.32V59.32Z" fill="white"/>
<path d="M64.9746 33.8544L64.9746 66.4353C64.9746 70.365 61.789 73.5507 57.8593 73.5507V73.5507L57.8593 40.9698C57.8593 37.0401 61.0449 33.8544 64.9746 33.8544V33.8544Z" fill="white"/>
<path d="M46.6245 33.8544L46.6245 66.4353C46.6245 70.365 43.4388 73.5507 39.5091 73.5507V73.5507L39.5091 40.9698C39.5091 37.0401 42.6948 33.8544 46.6245 33.8544V33.8544Z" fill="white"/>
<path d="M64.9746 33.8544L64.9746 66.4353C64.9746 70.365 61.789 73.5507 57.8593 73.5507V73.5507L57.8593 40.9698C57.8593 37.0401 61.0449 33.8544 64.9746 33.8544V33.8544Z" fill="white"/>
<path d="M46.6245 33.8544L46.6245 66.4353C46.6245 70.365 43.4388 73.5507 39.5091 73.5507V73.5507L39.5091 40.9698C39.5091 37.0401 42.6948 33.8544 46.6245 33.8544V33.8544Z" fill="white"/>
</svg>
