<svg width="31" height="31" viewBox="0 0 31 31" fill="none" xmlns="http://www.w3.org/2000/svg">
<g clip-path="url(#clip0_621_572)">
<path d="M15.5276 0C6.97935 0 0.0556641 6.92368 0.0556641 15.4719C0.0556641 22.3182 4.4845 28.1009 10.6346 30.1509C11.4082 30.2863 11.6983 29.8221 11.6983 29.416C11.6983 29.0485 11.6789 27.8301 11.6789 26.5343C7.79162 27.2499 6.78595 25.5867 6.47651 24.7164C6.30245 24.2716 5.54819 22.8984 4.89064 22.531C4.34912 22.2409 3.57553 21.5253 4.8713 21.506C6.08971 21.4866 6.96001 22.6277 7.25011 23.0918C8.64258 25.432 10.8667 24.7744 11.7563 24.3683C11.8917 23.3626 12.2978 22.6857 12.7426 22.2989C9.30013 21.9121 5.70291 20.5777 5.70291 14.6596C5.70291 12.9771 6.30245 11.5846 7.28879 10.5016C7.13407 10.1148 6.59255 8.5289 7.4435 6.40151C7.4435 6.40151 8.73928 5.99537 11.6983 7.98738C12.936 7.63926 14.2511 7.4652 15.5663 7.4652C16.8814 7.4652 18.1965 7.63926 19.4342 7.98738C22.3932 5.97603 23.689 6.40151 23.689 6.40151C24.54 8.5289 23.9985 10.1148 23.8437 10.5016C24.8301 11.5846 25.4296 12.9577 25.4296 14.6596C25.4296 20.597 21.813 21.9121 18.3705 22.2989C18.9314 22.7824 19.4149 23.7107 19.4149 25.1612C19.4149 27.2306 19.3956 28.8938 19.3956 29.416C19.3956 29.8221 19.6857 30.3056 20.4593 30.1509C23.5309 29.1143 26.2 27.1403 28.0908 24.507C29.9817 21.8738 30.999 18.7137 30.9995 15.4719C30.9995 6.92368 24.0758 0 15.5276 0Z" fill="black"/>
</g>
<defs>
<clipPath id="clip0_621_572">
<rect width="30.9438" height="30.9438" fill="white" transform="translate(0.0556641)"/>
</clipPath>
</defs>
</svg>
