<svg width="19" height="16" viewBox="0 0 19 16" fill="none" xmlns="http://www.w3.org/2000/svg">
<path fill-rule="evenodd" clip-rule="evenodd" d="M8.53583 0.0850641C9.35258 -0.168789 10.2378 0.159418 10.6917 0.884345L18.34 13.1004C18.8616 13.9335 18.5522 15.0347 17.6731 15.4743C16.9027 15.8595 15.9657 15.5939 15.512 14.8617L9.11927 4.54353L3.10031 14.8112C2.65723 15.567 1.70399 15.8499 0.920342 15.4581C0.0532665 15.0245 -0.261212 13.9446 0.237551 13.1133L7.5519 0.922728C7.58178 0.872925 7.61441 0.825926 7.64947 0.781787C7.76625 0.568935 7.93859 0.382776 8.1608 0.247175C8.26183 0.185524 8.37009 0.13658 8.48311 0.101452L8.53583 0.0850641Z" fill="white"/>
</svg>
