<svg width="31" height="31" viewBox="0 0 31 31" fill="none" xmlns="http://www.w3.org/2000/svg">
<path fill-rule="evenodd" clip-rule="evenodd" d="M0 9.99999C0 4.47715 4.47716 0 10 0H20.9438C26.4667 0 30.9438 4.47715 30.9438 10V20.9438C30.9438 26.4667 26.4667 30.9438 20.9438 30.9438H10C4.47714 30.9438 0 26.4667 0 20.9438V9.99999ZM8.19043 3.64014H9.33929V4.7752H10.3905V3.64014H11.5393V7.07612H10.3905V5.92619H9.33929V7.07612H8.1915L8.19043 3.64014ZM13.0492 4.77945H12.0384V3.64014H15.21V4.77945H14.1981V7.07612H13.0492V4.77945ZM15.7133 3.64014H16.911L17.6479 4.8474L18.3837 3.64014H19.5814V7.07612H18.4379V5.37299L17.6479 6.59512H17.6277L16.8367 5.37405V7.07612H15.7133V3.64014ZM20.1526 3.64014H21.3026V5.94106H22.9165V7.07718H20.1526V3.64014ZM6.37012 10.011L8.4391 25.5742L15.4611 27.3031L22.5024 25.5724L24.5724 10.011H6.37012ZM12.4264 15.1001L12.6226 17.055L20.4678 17.0559L20.4152 17.5679L19.8772 22.9162L15.4611 24.0013L11.0521 22.9162L10.7508 19.9192H12.9128L13.0665 21.441L15.4632 22.015H15.4652L17.8659 21.4392L18.1156 18.9642H10.6557L10.0753 13.1918H20.8551L20.6629 15.1001H12.4264Z" fill="#FF5722"/>
</svg>
