<svg width="32" height="31" viewBox="0 0 32 31" fill="none" xmlns="http://www.w3.org/2000/svg">
<g clip-path="url(#clip0_621_570)">
<path d="M0.685547 0V30.9438H31.6294V0H0.685547ZM17.5256 24.1329C17.5256 27.1444 15.7574 28.5192 13.1813 28.5192C10.8539 28.5192 9.50675 27.3179 8.81604 25.8602L11.1855 24.4302C11.6419 25.238 12.0563 25.9221 13.0576 25.9221C14.0102 25.9221 14.618 25.5486 14.618 24.092V14.2076H17.5256V24.1329ZM24.404 28.5192C21.703 28.5192 19.9558 27.235 19.106 25.5486L21.4754 24.1815C22.0976 25.1971 22.9121 25.9497 24.3421 25.9497C25.5434 25.9497 26.3181 25.3485 26.3181 24.513C26.3181 23.5184 25.5301 23.1659 24.1973 22.5791L23.4724 22.2685C21.3726 21.3778 19.9846 20.2516 19.9846 17.8822C19.9846 15.6996 21.6489 14.0419 24.2393 14.0419C26.0904 14.0419 27.4166 14.684 28.3703 16.3693L26.1048 17.8203C25.6075 16.9296 25.0682 16.5771 24.2327 16.5771C23.384 16.5771 22.8446 17.1164 22.8446 17.8203C22.8446 18.6912 23.384 19.0426 24.6339 19.5886L25.3588 19.8991C27.8321 20.9556 29.2202 22.0409 29.2202 24.471C29.2202 27.0825 27.1613 28.5181 24.4051 28.5181L24.404 28.5192Z" fill="#FFCA28"/>
</g>
<defs>
<clipPath id="clip0_621_570">
<rect x="0.685547" width="30.9438" height="30.9438" rx="10" fill="white"/>
</clipPath>
</defs>
</svg>
