<svg width="107" height="67" viewBox="0 0 107 67" fill="none" xmlns="http://www.w3.org/2000/svg">
<path d="M12.4652 19.2838C12.0776 11.2948 18.4504 4.60547 26.4487 4.60547H86.7532C94.4852 4.60547 100.753 10.8735 100.753 18.6055V52.8878C100.753 60.6529 94.4335 66.9345 86.6686 66.8876L28.0099 66.5332C20.5744 66.4883 14.4711 60.6386 14.1109 53.2118L12.4652 19.2838Z" fill="#004DFF"/>
<path d="M65.7532 0H95.7532C98.5146 0 100.753 2.23858 100.753 5V18.5H59.7532L60.1725 6.75957C60.2238 5.32321 60.8907 3.97838 62.0031 3.06824L65.7532 0Z" fill="#004DFF"/>
<path d="M9.39243 20.9457C7.79917 14.6292 12.5743 8.5 19.0887 8.5H79.3899C84.117 8.5 88.1985 11.8101 89.1744 16.4354L96.4543 50.9354C97.766 57.1521 93.0233 63 86.6697 63H27.7909C23.21 63 19.2149 59.8875 18.0946 55.4457L9.39243 20.9457Z" fill="#9FEEFF"/>
<path d="M6.25298 32.1675C3.19401 23.0353 10.0554 13.6132 19.6857 13.7217L78.7825 14.3872C84.7502 14.4544 90.0192 18.2973 91.9064 23.9591L100.074 48.4627C103.106 57.5597 96.3024 66.9438 86.7135 66.8896L27.7682 66.5566C21.7789 66.5227 16.4746 62.6827 14.5722 57.0035L6.25298 32.1675Z" fill="#9FEEFF" style="mix-blend-mode:multiply"/>
</svg>
