<svg width="90" height="90" viewBox="0 0 90 90" fill="none" xmlns="http://www.w3.org/2000/svg">
<path d="M81.4125 76.0875L76.0875 81.4125C75.3849 82.1109 74.4345 82.503 73.4438 82.503C72.4531 82.503 71.5026 82.1109 70.8 81.4125L26.25 36.9375C25.0306 37.2908 23.7695 37.4799 22.5 37.5C20.1124 37.4983 17.7597 36.9267 15.6375 35.8326C13.5153 34.7386 11.6849 33.1537 10.2985 31.2099C8.91214 29.266 8.00981 27.0192 7.66657 24.6564C7.32332 22.2936 7.54907 19.883 8.32504 17.625L17.85 27.15L19.8375 25.1625L25.1625 19.8375L27.15 17.85L17.625 8.325C19.883 7.54902 22.2937 7.32328 24.6565 7.66652C27.0193 8.00977 29.266 8.9121 31.2099 10.2985C33.1538 11.6849 34.7386 13.5153 35.8327 15.6375C36.9267 17.7597 37.4983 20.1124 37.5 22.5C37.48 23.7694 37.2908 25.0305 36.9375 26.25L81.4125 70.8C82.111 71.5026 82.503 72.4531 82.503 73.4437C82.503 74.4344 82.111 75.3849 81.4125 76.0875ZM8.58754 70.8C7.8891 71.5026 7.49707 72.4531 7.49707 73.4437C7.49707 74.4344 7.8891 75.3849 8.58754 76.0875L13.9125 81.4125C14.6152 82.1109 15.5656 82.503 16.5563 82.503C17.547 82.503 18.4974 82.1109 19.2 81.4125L39.7125 60.9375L29.1 50.325M75 7.5L60 15V22.5L51.8625 30.6375L59.3625 38.1375L67.5 30H75L82.5 15L75 7.5Z" fill="#004DFF"/>
<mask id="mask0_551_326" style="mask-type:alpha" maskUnits="userSpaceOnUse" x="7" y="7" width="76" height="76">
<path d="M81.4125 76.0875L76.0875 81.4125C75.3849 82.1109 74.4345 82.503 73.4438 82.503C72.4531 82.503 71.5026 82.1109 70.8 81.4125L26.25 36.9375C25.0306 37.2908 23.7695 37.4799 22.5 37.5C20.1124 37.4983 17.7597 36.9267 15.6375 35.8326C13.5153 34.7386 11.6849 33.1537 10.2985 31.2099C8.91214 29.266 8.00981 27.0192 7.66657 24.6564C7.32332 22.2936 7.54907 19.883 8.32504 17.625L17.85 27.15L19.8375 25.1625L25.1625 19.8375L27.15 17.85L17.625 8.325C19.883 7.54902 22.2937 7.32328 24.6565 7.66652C27.0193 8.00977 29.266 8.9121 31.2099 10.2985C33.1538 11.6849 34.7386 13.5153 35.8327 15.6375C36.9267 17.7597 37.4983 20.1124 37.5 22.5C37.48 23.7694 37.2908 25.0305 36.9375 26.25L81.4125 70.8C82.111 71.5026 82.503 72.4531 82.503 73.4437C82.503 74.4344 82.111 75.3849 81.4125 76.0875ZM8.58754 70.8C7.8891 71.5026 7.49707 72.4531 7.49707 73.4437C7.49707 74.4344 7.8891 75.3849 8.58754 76.0875L13.9125 81.4125C14.6152 82.1109 15.5656 82.503 16.5563 82.503C17.547 82.503 18.4974 82.1109 19.2 81.4125L39.7125 60.9375L29.1 50.325M75 7.5L60 15V22.5L51.8625 30.6375L59.3625 38.1375L67.5 30H75L82.5 15L75 7.5Z" fill="#004DFF"/>
</mask>
<g mask="url(#mask0_551_326)">
<rect x="50.3999" width="43.2" height="40.5" rx="10" fill="#97E5FF" style="mix-blend-mode:hard-light"/>
</g>
</svg>
