<svg width="31" height="31" viewBox="0 0 31 31" fill="none" xmlns="http://www.w3.org/2000/svg">
<g clip-path="url(#clip0_503_1692)">
<path fill-rule="evenodd" clip-rule="evenodd" d="M30.9438 30.9439H0V6.10352e-05H30.9438V30.9439ZM24.5623 13.1158V10.7158C24.167 10.5398 21.9036 9.89236 20.1154 10.5747C17.5396 11.5575 17.6321 14.5183 18.6096 15.6804C19.876 17.186 23.0264 17.7473 22.5109 19.2251C22.244 19.9904 20.9977 20.1236 19.8989 19.8667C18.8757 19.6275 17.9861 19.0214 17.9861 19.0214V21.5625C17.9861 21.5625 18.8655 22.0527 19.9448 22.1694C21.3283 22.3188 23.0626 22.0366 23.9315 21.2643C25.4781 19.8896 25.7156 16.8441 22.7847 15.43C20.3458 14.2533 20.3859 13.9174 20.403 13.3138C20.426 12.5054 22.1233 12.0078 24.5623 13.1158ZM11.4099 6.38072C13.4392 6.45131 16.4215 7.38657 16.4215 11.3746C16.4215 15.3627 12.7727 16.6714 9.44325 16.3862V22.033H6.96297V6.4336C6.96297 6.4336 9.38057 6.31013 11.4099 6.38072ZM12.054 13.9157C13.1234 13.5255 13.8186 12.6866 13.8186 11.3834C13.8186 10.0017 13.1112 9.06612 12.0292 8.80183C10.8576 8.51554 9.44319 8.68428 9.44319 8.68428V14.1263C9.44319 14.1263 11.4011 14.154 12.054 13.9157Z" fill="#31A8FF"/>
</g>
<defs>
<clipPath id="clip0_503_1692">
<rect y="6.10352e-05" width="30.9438" height="30.9438" rx="10" fill="white"/>
</clipPath>
</defs>
</svg>
