<svg width="82" height="48" viewBox="0 0 82 48" fill="none" xmlns="http://www.w3.org/2000/svg">
<g clip-path="url(#clip0_298_469)">
<path d="M78.5356 20.8035C76.3513 20.0869 75.7948 18.0383 77.2591 16.2817C78.1043 15.2696 78.5983 14.247 78.0209 12.96C77.3983 11.5687 76.1982 11.3322 74.8382 11.3635C72.9832 11.4052 71.1281 11.4203 69.273 11.4087C66.5843 11.3843 65.2139 10.1322 64.9287 7.49216C64.5809 4.26085 62.4417 2.84174 59.3322 3.7913C57.0643 4.48696 54.7826 5.13739 52.5356 5.87826C50.6052 6.5287 48.9391 6.24695 47.4783 4.89739C47.4122 4.83826 47.3496 4.77912 47.2835 4.71303C46.9183 4.34434 46.4974 4.01738 46.1252 3.66955C44.6087 2.19129 43.0991 0.706083 41.0365 -0.017395H39.993C37.6243 1.13391 35.8991 3.08868 34 4.82086C33.3427 5.45823 32.5255 5.90646 31.6348 6.11826C30.7727 6.2907 29.8801 6.22822 29.0504 5.93739C26.6887 5.16869 24.3096 4.45913 21.9304 3.74609C19.0122 2.86956 16.8209 4.27826 16.4556 7.22435C16.08 10.2713 14.8765 11.367 11.8365 11.3983C9.92696 11.3983 8.01043 11.3982 6.1113 11.36C4.8313 11.3391 3.86087 11.8087 3.32869 13.0226C2.84174 14.1669 3.16521 15.1096 3.93739 16.0487C5.64521 18.1183 5.13738 20.0174 2.61564 20.8348C1.41912 21.2209 0.726952 22.0765 -0.020874 22.9217V25.0087C0.702667 26.0543 1.75205 26.831 2.96347 27.2174C5.02956 27.8956 5.54086 29.9687 4.12869 31.6556C3.28347 32.6678 2.76869 33.6869 3.33913 34.9774C3.9513 36.3687 5.14782 36.6261 6.5113 36.5948C8.36637 36.553 10.2214 36.538 12.0765 36.5496C14.7756 36.5704 16.1461 37.8226 16.4313 40.4591C16.7791 43.6939 18.9217 45.113 22.0348 44.1669C24.3582 43.4713 26.6991 42.7756 28.9913 42.0243C30.8939 41.3948 32.4696 41.7843 33.9513 43.1165C35.8609 44.8557 37.5965 46.8035 39.9652 47.9652H41.0087C43.3844 47.1617 45.033 45.3635 46.72 43.6661C47.3166 43.0439 48.0244 42.5389 48.807 42.1774C51.1497 42.8991 53.5906 43.2512 56.0417 43.2209C57.193 43.5687 58.3513 43.8887 59.4991 44.2295C62.1774 45.0226 64.2122 43.8539 64.7861 41.2974C64.8381 41.068 64.8765 40.8357 64.9009 40.6017C65.2487 37.7078 66.5078 36.5565 69.4609 36.5426H70.7443C72.2284 36.5426 73.7136 36.5554 75.2 36.5809C76.4696 36.6017 77.4539 36.1809 77.9826 34.9461C78.4835 33.7948 78.1809 32.8591 77.4122 31.9096C75.6974 29.8226 76.1878 27.92 78.7061 27.1096C79.9061 26.72 80.6052 25.8713 81.353 25.0017V23.2626C80.8591 21.9896 79.9026 21.2522 78.5356 20.8035Z" fill="#4E598C"/>
<path d="M10.2018 31.7948C10.8522 30.2331 11.687 28.5635 12.247 26.9252C12.8939 25.0644 13.4783 23.1583 14.1044 21.1861C14.8591 18.8278 15.9061 14.7061 16.5948 11.8922C16.6846 11.5349 16.8635 11.2063 17.1147 10.9368C17.3659 10.6674 17.6812 10.4659 18.0313 10.3513C19.0748 10.0035 20.0418 10.6992 20.8731 11.2835C24.0313 13.5672 26.4326 16.7451 27.767 20.407C28.8653 23.4255 29.3329 26.6371 29.1409 29.8435C29.0122 32.8835 28.3652 36.7583 26.8939 39.5826C26.0418 41.2557 24.7305 42.2435 23.8087 41.76L23.3635 41.5305C22.6122 41.1409 22.3826 39.9687 22.6678 38.6296C22.9408 37.4599 23.1533 36.2768 23.3044 35.0852C23.4644 33.7426 22.9565 32.7096 22.1287 32.5044L17.5235 31.3044C16.7061 31.0957 15.8157 31.5861 15.2557 32.4626C14.7548 33.2487 14.2203 34.0012 13.6522 34.72C13.0087 35.5374 12.0313 35.7844 11.2835 35.3983L10.8139 35.1583C9.61742 34.5253 9.64523 33.207 10.1009 32.0279C10.1357 31.9653 10.167 31.8818 10.2018 31.7948ZM20.6922 27.1305C22.0105 27.3079 23.1652 25.3913 22.727 23.4539C22.2631 21.3743 21.6003 19.3441 20.7479 17.3913C20.7014 17.2895 20.6219 17.2063 20.5222 17.1552C20.4226 17.1041 20.3087 17.0881 20.1988 17.1098C20.089 17.1316 19.9897 17.1897 19.917 17.2749C19.8443 17.3601 19.8025 17.4673 19.7983 17.5792C19.7318 19.5708 19.4709 21.5513 19.0191 23.4922C18.6331 25.1722 19.367 26.9705 20.6922 27.1409V27.1305Z" fill="#E56B6F"/>
<path d="M71.8435 30.4313C70.1044 28.2609 65.9304 28.5461 61.9722 27.5409C57.9235 26.6678 54.0696 24.5044 50.9148 20.4835C47.9304 16.3339 46.9217 12.0313 47.2104 7.89565C47.2452 6.88696 47.3565 5.88522 47.4852 4.91826C47.4191 4.85913 47.3565 4.79999 47.2905 4.73391C46.9252 4.36521 46.5044 4.03825 46.1322 3.69043C44.6157 2.21217 43.1061 0.726957 41.0435 0.003479H40C37.6313 1.15478 35.9061 3.10956 34.007 4.84173C33.3496 5.4791 32.5325 5.92733 31.6417 6.13914C28.5774 12.6991 27.8713 22.5043 35.2661 32.2435C39.3357 37.7217 44.1391 40.7791 48.8313 42.2156C50.0939 41.6591 51.4713 41.6522 53.0574 42.2539C54.0452 42.6261 55.0539 42.9496 56.0661 43.2522C58.9377 43.2433 61.7777 42.6517 64.4139 41.513C64.5496 41.4574 64.6748 41.3982 64.807 41.3391C64.859 41.1097 64.8974 40.8774 64.9218 40.6435C65.2696 37.7496 66.5287 36.5983 69.4818 36.5843H70.7652C72.6261 33.9409 72.7757 31.3252 71.8435 30.4313ZM54.1044 38.2748C50.0974 38.2261 43.7983 36.2226 38.8 29.5791C33.8017 22.9356 33.6383 16.3061 34.7061 12.4487C35.8365 8.43825 38.1844 7.17912 39.6244 7.62086C42.873 8.79303 41.7774 15.4644 47.3739 23.1374C53.1618 30.6296 59.8957 31.4574 60.1217 34.8974C60.153 36.4 58.2748 38.313 54.1009 38.2609L54.1044 38.2748Z" fill="#FFD954"/>
<path d="M60.9983 21.9583C61.4296 21.2904 62.4452 21.1513 63.3983 21.4087C64.3513 21.6661 65.3009 22.3444 65.3704 23.1478C65.44 23.9513 64.1043 24.727 62.6157 24.2887C61.127 23.8505 60.5217 22.64 60.9983 21.9583ZM59.7774 21.0609C59.3809 21.5478 58.3861 21.4087 57.767 20.5461C56.6223 19.056 55.9475 17.2587 55.8285 15.3835C55.7096 13.5083 56.1519 11.6402 57.0991 10.0174C57.7182 8.97392 58.8696 8.59132 59.3078 9.08523L59.5478 9.33219C59.9896 9.82263 59.8122 10.7235 59.3774 11.4192C58.651 12.5858 58.2865 13.9415 58.3298 15.3152C58.3732 16.6888 58.8224 18.0188 59.6209 19.1374C60.0487 19.7739 60.1739 20.5704 59.7774 21.0609Z" fill="#FFD954"/>
<path d="M76.491 15.6414L76.4915 15.6408C76.8797 15.1759 77.1124 14.7934 77.2128 14.4462C77.3025 14.1358 77.3025 13.8017 77.1085 13.3693L77.1081 13.3685C76.8987 12.9006 76.6291 12.68 76.3202 12.5508C75.9676 12.4033 75.4964 12.3486 74.8613 12.3632L74.8607 12.3632C72.9961 12.4052 71.1314 12.4203 69.2668 12.4087L69.264 12.4086C67.7755 12.3952 66.4875 12.0401 65.5288 11.1729C64.5697 10.3055 64.0926 9.06362 63.9345 7.59957L63.9344 7.59918C63.7811 6.17492 63.2567 5.33305 62.6142 4.9078C61.9722 4.48293 60.9942 4.32949 59.6248 4.74752C58.8659 4.98032 58.1122 5.2061 57.3624 5.43071C55.8464 5.88486 54.3465 6.33421 52.8517 6.827C51.7634 7.19323 50.6893 7.31652 49.6463 7.12065C48.5992 6.92401 47.6531 6.41868 46.8055 5.63728C46.7278 5.56755 46.6535 5.4973 46.5764 5.42014L46.573 5.41679C46.4189 5.26117 46.2468 5.10823 46.0515 4.93872C46.0197 4.91109 45.9869 4.88276 45.9534 4.85382C45.7906 4.71304 45.6113 4.55797 45.4424 4.40015L45.4272 4.38564C43.9253 2.92167 42.6023 1.63958 40.8604 0.982605H40.2291C38.6207 1.81055 37.3516 3.02224 35.9663 4.34491C35.5535 4.73908 35.1303 5.1431 34.6848 5.54976C33.9002 6.30654 32.9268 6.83893 31.8661 7.09114C31.8544 7.09392 31.8427 7.09648 31.8309 7.09884C30.7969 7.30567 29.7265 7.23178 28.7308 6.88498C26.5053 6.16081 24.2631 5.48896 22.0069 4.81293C21.8857 4.77663 21.7646 4.74032 21.6433 4.70399L21.6428 4.70382C20.3884 4.32707 19.4278 4.47765 18.7732 4.89497C18.1218 5.31024 17.6029 6.09809 17.448 7.34737C17.25 8.95305 16.8113 10.2831 15.8162 11.1836C14.818 12.0871 13.4557 12.3816 11.8468 12.3982L11.8365 12.3983V12.3983H11.8338C9.9276 12.3983 8.00261 12.3983 6.09333 12.3598M76.491 15.6414L6.1113 11.36M76.491 15.6414C75.597 16.7139 75.2298 17.9966 75.5659 19.2013C75.9031 20.4098 76.885 21.3144 78.2238 21.7536L76.491 15.6414ZM6.09333 12.3598C6.0926 12.3598 6.09188 12.3598 6.09116 12.3598L6.1113 11.36M6.09333 12.3598C6.09388 12.3598 6.09444 12.3598 6.095 12.3598L6.1113 11.36M6.09333 12.3598C5.57614 12.3516 5.20413 12.444 4.93353 12.5977C4.67596 12.7441 4.4373 12.9868 4.24674 13.4191M6.1113 11.36C4.8313 11.3391 3.86087 11.8087 3.32869 13.0226M4.24674 13.4191C4.24744 13.4175 4.24814 13.4158 4.24885 13.4142L3.32869 13.0226M4.24674 13.4191C4.08148 13.8098 4.07077 14.1132 4.13437 14.3839C4.20333 14.6775 4.37878 15.0109 4.7093 15.413M4.24674 13.4191C4.24601 13.4208 4.24528 13.4224 4.24455 13.4241L3.32869 13.0226M3.32869 13.0226L4.7093 15.413M12.0765 36.5496C10.2214 36.538 8.36637 36.553 6.5113 36.5948C5.14782 36.6261 3.9513 36.3687 3.33913 34.9774C2.76869 33.6869 3.28347 32.6678 4.12869 31.6556M12.0765 36.5496L33.9513 43.1165C34.3567 43.4857 34.7542 43.8643 35.1516 44.2428C36.6263 45.6472 38.0994 47.0501 39.9652 47.9652M12.0765 36.5496C14.7756 36.5704 16.1461 37.8226 16.4313 40.4591L12.0765 36.5496ZM4.12869 31.6556L4.89548 32.2975M4.12869 31.6556L4.89626 32.2966C4.896 32.2969 4.89574 32.2972 4.89548 32.2975M4.12869 31.6556C5.54086 29.9687 5.02956 27.8956 2.96347 27.2174C1.75205 26.831 0.702667 26.0543 -0.020874 25.0087M4.89548 32.2975C4.50422 32.7662 4.26587 33.1501 4.16074 33.4999C4.06707 33.8117 4.06395 34.1437 4.25375 34.5731L4.25444 34.5746C4.46081 35.0437 4.72968 35.2684 5.03784 35.4006C5.38768 35.5507 5.85735 35.6095 6.48835 35.595L6.48881 35.595C8.35345 35.5531 10.2181 35.5379 12.0828 35.5496L12.0842 35.5496C13.5772 35.5611 14.8681 35.9147 15.8287 36.7808C16.7901 37.6475 17.2673 38.8891 17.4255 40.3516L17.4256 40.3522C17.5789 41.7779 18.104 42.6207 18.748 43.047C19.3918 43.4731 20.3723 43.627 21.744 43.2102L21.7479 43.209C21.9079 43.1611 22.0679 43.1132 22.2278 43.0653C24.3952 42.4167 26.5591 41.7692 28.6798 41.0741L28.9913 42.0243L28.6771 41.075C29.7701 40.7133 30.8264 40.6274 31.8502 40.8595C32.8703 41.0908 33.7832 41.6207 34.6199 42.3729L34.6247 42.3772C35.0689 42.7818 35.4913 43.1836 35.9037 43.5757C37.3029 44.9064 38.5851 46.1258 40.2031 46.9652M4.89548 32.2975L0.979126 23.3004M40.2031 46.9652H39.9652V47.9652M40.2031 46.9652C40.27 46.9999 40.3375 47.034 40.4056 47.0674L39.9652 47.9652M40.2031 46.9652H40.8386M39.9652 47.9652H41.0087M41.0087 47.9652L40.6883 47.0179C40.7388 47.0009 40.7889 46.9833 40.8386 46.9652M41.0087 47.9652C43.207 47.2217 44.7828 45.6264 46.3425 44.0474C46.4683 43.9201 46.5941 43.7928 46.72 43.6661M41.0087 47.9652V46.9652H40.8386M40.8386 46.9652C42.7253 46.2801 44.1077 44.8833 45.6645 43.3105C45.7769 43.1969 45.8903 43.0824 46.0048 42.9671M46.72 43.6661L45.9982 42.974C46.0004 42.9717 46.0026 42.9694 46.0048 42.9671M46.72 43.6661C47.3166 43.0439 48.0244 42.5389 48.807 42.1774M46.72 43.6661L46.0107 42.9611C46.0087 42.9631 46.0068 42.9651 46.0048 42.9671M46.0048 42.9671C46.6864 42.2579 47.4945 41.6822 48.3875 41.2696C48.6114 41.1661 48.8657 41.1491 49.1014 41.2217C51.3447 41.9128 53.6821 42.25 56.0294 42.2209C56.1315 42.2197 56.2332 42.2341 56.3309 42.2636C56.9752 42.4582 57.5971 42.6371 58.2254 42.8178C58.7356 42.9645 59.2499 43.1124 59.7838 43.2709L59.4991 44.2295L48.807 42.1774M48.807 42.1774C51.1497 42.8991 53.5906 43.2512 56.0417 43.2209L48.807 42.1774ZM-0.020874 25.0087H0.979126V24.68C0.917545 24.6019 0.858281 24.5218 0.80145 24.4397L-0.020874 25.0087ZM-0.020874 25.0087V22.9217M-0.020874 22.9217L0.728064 23.5844C0.762512 23.5454 0.796428 23.507 0.829865 23.4692C0.880661 23.4117 0.930352 23.3554 0.979126 23.3004M-0.020874 22.9217H0.979126V23.3004M-0.020874 22.9217C0.0284888 22.8659 0.077609 22.8101 0.126648 22.7544C0.820527 21.9656 1.4981 21.1954 2.61564 20.8348L0.979126 23.3004M4.7093 15.413C4.70947 15.4132 4.70964 15.4134 4.70981 15.4136L3.93739 16.0487L4.70868 15.4122C4.70889 15.4125 4.70909 15.4127 4.7093 15.413Z" stroke="#4E598C" stroke-width="2" stroke-linejoin="round"/>
</g>
<defs>
<clipPath id="clip0_298_469">
<rect width="82" height="48" fill="white"/>
</clipPath>
</defs>
</svg>
