<svg width="56" height="62" viewBox="0 0 56 62" fill="none" xmlns="http://www.w3.org/2000/svg">
<path d="M30.352 60.7793C23.1207 60.7793 17.2995 58.922 12.5574 55.1007C10.9559 53.8115 10.1697 51.854 10.4183 49.8197C15.2913 55.7098 21.5276 58.5901 29.3349 58.5901C44.009 58.5901 51.1427 49.6486 51.1427 31.2539V14.1927C51.1427 11.4094 52.5972 8.95991 54.7844 7.56401L54.7857 32.4182C54.7857 55.8588 41.4984 60.7793 30.352 60.7793Z" fill="white" stroke="white" stroke-width="2"/>
<path d="M13.7024 8.39341L19.0999 1.53561L27.6256 4.33717L20.1073 9.98779L13.7024 8.39341Z" fill="white" stroke="white" stroke-width="2"/>
<path d="M33.03 20.8091L18.2569 15.6472L18.4964 14.9639L33.2695 20.1258L33.03 20.8091Z" fill="white" stroke="white" stroke-width="2"/>
<path d="M12.6154 20.4808L24.6923 25.0862L23.5021 26.5986L10.1574 23.6038L12.6154 20.4808Z" fill="white" stroke="white" stroke-width="2"/>
<path d="M23.3921 36.263L26.9134 34.1349L28.6028 37.9146L26.0707 41.1313L23.3921 36.263Z" fill="white" stroke="white" stroke-width="2"/>
<path d="M27.5382 16.1895L27.1302 15.5907L33.3242 11.3699L33.7322 11.9686L27.5382 16.1895Z" fill="white" stroke="white" stroke-width="2"/>
<path d="M37.9464 31.3877H49.7384V30.6634H37.9464V31.3877Z" fill="white" stroke="white" stroke-width="2"/>
<path d="M1.9412 31.3873H11.4802V30.663H1.21429V31.0248C1.21429 38.5041 4.23646 45.2851 9.11657 50.229C9.16733 49.9336 9.22135 49.6388 9.29749 49.3485C4.82931 44.6506 2.03491 38.3453 1.9412 31.3873Z" fill="white" stroke="white" stroke-width="2"/>
<path d="M7.2999 11.6694L8.18299 13.4584L10.1574 13.7447L8.72833 15.1374L9.06543 17.104L7.2999 16.1754L5.53436 17.104L5.87146 15.1374L4.44302 13.7447L6.41745 13.4584L7.2999 11.6694Z" fill="white" stroke="white" stroke-width="2"/>
<path d="M31.1152 24.4961L31.8141 28.7026L35.1083 25.9941L31.1152 24.4961Z" fill="white" stroke="white" stroke-width="2"/>
</svg>
