<svg width="76" height="48" viewBox="0 0 76 48" fill="none" xmlns="http://www.w3.org/2000/svg">
<path d="M19.4712 1.80298C21.3367 4.69488 22.9433 7.70281 24.0947 10.8803C24.4785 11.938 24.8132 13.018 25.0899 14.1159C25.8843 24.9917 29.4545 38.3802 37.4876 46.4132C38.8264 48.1983 30.3471 48.1983 26.7769 47.7521C21.4215 47.7521 14.7273 45.0744 13.8347 41.5041C12.0496 35.2562 13.8347 27.6694 14.1248 20.5646C13.8258 19.3775 13.4821 18.177 13.1207 16.9765C12.3977 14.58 11.6033 12.1969 10.7107 9.81818C10.2645 8.47934 12.4959 7.58678 12.4959 6.24793C11.157 9.92975 9.69322 13.5491 8.24727 17.1506C7.76529 18.3511 7.28777 19.5516 6.81471 20.7521C4.90909 27.2231 3.57025 35.7025 8.47934 41.5041C5.35537 41.9504 2.67769 42.3967 0 43.7355C4.90909 37.9339 3.12397 30.7934 3.56132 23.1531C3.80231 21.9481 4.16826 20.6271 4.58331 19.2927C6.65405 12.6208 9.3719 6.13636 13.8347 0C13.8347 0 15.6198 0.446281 16.5972 1.00413C17.7307 1.3076 18.6724 1.57983 19.4712 1.80298ZM11.157 20.9752C9.78248 21.7517 15.6377 26.7233 14.7139 27.8479C13.7901 28.9726 12.8574 30.057 11.4337 30.664C8.92562 31.2397 6.69422 30.3471 4.46281 28.562C5.80165 28.562 6.69422 29.0083 7.57785 29.758C8.55521 30.0749 9.50579 30.3025 10.6081 30.1552C12.9421 29.9008 14.281 28.1157 15.785 26.5582C17.0479 25.4826 11.157 20.9752 11.157 20.9752Z" fill="white"/>
<path d="M50.4967 12.0452C52.1256 11.6033 53.7188 11.6346 55.2094 12.0184C56.6955 12.4022 57.9273 13.143 59.5339 14.1338C61.1405 15.1245 62.4793 16.5124 63.3719 18.2976C66.9421 26.3306 66.9421 37.4876 59.3554 43.2893C53.5537 47.3058 46.4132 44.1819 40.9463 40.924C40.0671 40.3662 39.2995 39.6878 38.5096 38.9336C33.4711 34.3637 32.5785 26.3306 35.2562 20.529C37.4876 16.0662 41.9504 12.9422 46.7792 12.5807C48.1537 12.3843 49.3096 12.13 50.4967 12.0452ZM50.4253 13.0136C46.4132 18.2976 42.843 24.5455 42.2717 31.1549C42.0843 33.4443 42.3967 35.2562 43.2892 37.9339C43.7355 39.719 46.4132 44.1819 46.8595 42.3967C47.3058 39.42 47.5111 36.4076 47.9395 33.7835C49.5372 27.6695 50.876 21.4215 52.0364 15.0799C51.84 13.5714 51.2777 12.8708 50.4253 13.0136Z" fill="white"/>
<path d="M68.1293 7.17177C71.8512 10.2645 72.7438 14.281 73.8417 18.6278C73.9309 19.2526 74.1451 19.7033 73.8595 20.7655C73.5739 21.8276 73.2927 22.9166 73.0294 24.0278C72.5028 26.2592 72.1681 28.6022 72.0298 31.0567H71.0836C70.9453 28.5977 70.6106 26.2548 70.084 24.0278C69.5574 21.8009 68.9772 19.6766 68.3479 17.6549C68.0311 16.6463 67.7365 15.6645 67.4598 14.7139C67.1831 13.7633 66.9288 12.8395 66.6878 11.9425C66.2147 10.1529 65.8889 8.65343 65.4917 7.78764C64.9874 6.69872 64.8893 6.14533 65.5007 6.06946C66.1076 6.00252 66.9912 6.42202 68.1293 7.17177ZM71.5522 33.0605C73.2035 33.0605 74.4843 33.4399 75.1894 34.0424C74.9752 37.4876 71.405 40.6116 67.683 40.9865C66.786 40.2323 66.3397 39.0987 66.3397 37.5903C66.3397 36.0819 66.786 34.9483 67.683 34.1941C68.58 33.4399 69.8698 33.0605 71.5522 33.0605Z" fill="white"/>
</svg>
