<svg width="55" height="54" viewBox="0 0 55 54" fill="none" xmlns="http://www.w3.org/2000/svg">
<path d="M30.2522 0.214355C33.2668 0.219338 34.7944 0.235276 36.1145 0.274572L36.6344 0.291581C37.235 0.31293 37.8275 0.339717 38.5419 0.373201C41.3923 0.504884 43.3367 0.95581 45.0443 1.61878C46.8098 2.29959 48.3011 3.21928 49.7899 4.70816C51.2765 6.19704 52.1964 7.69265 52.8794 9.45387C53.54 11.1593 53.9911 13.1058 54.125 15.9563C54.1569 16.6706 54.1826 17.2631 54.2038 17.8638L54.2206 18.3837C54.2597 19.7036 54.2777 21.2315 54.2833 24.246L54.2855 26.2435C54.2857 26.4875 54.2857 26.7393 54.2857 26.9992L54.2855 27.7548L54.2839 29.7523C54.2788 32.7669 54.263 34.2945 54.2236 35.6145L54.2064 36.1345C54.1853 36.735 54.1585 37.3276 54.125 38.042C53.9932 40.8923 53.54 42.8368 52.8794 44.5444C52.1985 46.3099 51.2765 47.8011 49.7899 49.2899C48.3011 50.7766 46.8032 51.6964 45.0443 52.3795C43.3367 53.04 41.3923 53.4911 38.5419 53.6251C37.8275 53.6569 37.235 53.6827 36.6344 53.7038L36.1145 53.7207C34.7944 53.7598 33.2668 53.7778 30.2522 53.7834L28.2548 53.7855C28.0107 53.7858 27.7589 53.7858 27.4991 53.7858L26.7435 53.7855L24.746 53.7839C21.7314 53.7788 20.2035 53.763 18.8836 53.7236L18.3638 53.7065C17.7631 53.6853 17.1706 53.6586 16.4563 53.6251C13.6057 53.4933 11.6637 53.04 9.95381 52.3795C8.19034 51.6986 6.69698 50.7766 5.2081 49.2899C3.71922 47.8011 2.80178 46.3032 2.11872 44.5444C1.45575 42.8368 1.00707 40.8923 0.87314 38.042C0.841317 37.3276 0.815361 36.735 0.794333 36.1345L0.777484 35.6145C0.738295 34.2945 0.720429 32.7669 0.714643 29.7523L0.714294 24.246C0.719277 21.2315 0.735215 19.7036 0.774511 18.3837L0.79152 17.8638C0.812869 17.2631 0.839656 16.6706 0.87314 15.9563C1.00482 13.1035 1.45575 11.1615 2.11872 9.45387C2.79953 7.6904 3.71922 6.19704 5.2081 4.70816C6.69698 3.21928 8.19259 2.30184 9.95381 1.61878C11.6615 0.95581 13.6035 0.507134 16.4563 0.373201C17.1706 0.341378 17.7631 0.315422 18.3638 0.294394L18.8836 0.277545C20.2035 0.238357 21.7314 0.22049 24.746 0.214704L30.2522 0.214355ZM27.4991 13.6058C20.0982 13.6058 14.1057 19.6047 14.1057 26.9992C14.1057 34.4 20.1047 40.3925 27.4991 40.3925C34.9 40.3925 40.8924 34.3933 40.8924 26.9992C40.8924 19.5982 34.8933 13.6058 27.4991 13.6058ZM27.4991 18.9631C31.9374 18.9631 35.5351 22.5595 35.5351 26.9992C35.5351 31.4374 31.9385 35.0352 27.4991 35.0352C23.0608 35.0352 19.4631 31.4385 19.4631 26.9992C19.4631 22.5609 23.0595 18.9631 27.4991 18.9631ZM41.5621 9.5878C39.7157 9.5878 38.2137 11.0876 38.2137 12.9339C38.2137 14.7801 39.7135 16.2822 41.5621 16.2822C43.4082 16.2822 44.9104 14.7824 44.9104 12.9339C44.9104 11.0876 43.4058 9.58547 41.5621 9.5878Z" fill="white"/>
</svg>
