<svg width="24" height="25" viewBox="0 0 24 25" fill="none" xmlns="http://www.w3.org/2000/svg">
<path d="M12 1.31128C14.8712 1.31128 17.5712 2.4294 19.6012 4.46003C21.6319 6.49065 22.75 9.19003 22.75 12.0613C22.75 14.9325 21.6319 17.6325 19.6012 19.6625C17.5706 21.6932 14.8712 22.8113 12 22.8113C9.12875 22.8113 6.42875 21.6932 4.39875 19.6625C2.36812 17.6319 1.25 14.9325 1.25 12.0613C1.25 9.19003 2.36812 6.49003 4.39875 4.46003C6.42875 2.43003 9.12812 1.31128 12 1.31128ZM12 0.0612793C5.3725 0.0612793 0 5.43378 0 12.0613C0 18.6888 5.3725 24.0613 12 24.0613C18.6275 24.0613 24 18.6888 24 12.0613C24 5.43378 18.6269 0.0612793 12 0.0612793Z" fill="white"/>
<path d="M13.6113 5.5788C13.3051 4.3313 12.6457 3.30818 11.5538 2.59505C10.6588 2.01068 9.65822 1.7488 8.60759 1.63943C7.86134 1.5613 7.11259 1.61443 6.36509 1.5863C4.96322 1.5888 3.56135 1.58818 2.15947 1.59505C1.14947 1.60005 0.625098 2.13318 0.623848 3.13818C0.621973 4.94505 0.618223 6.75193 0.615723 8.55943C0.618848 9.67255 0.623848 10.7863 0.623848 11.8994C0.623848 13.1607 0.618848 14.4219 0.615723 15.6832C0.633848 15.7657 0.645095 15.8513 0.671345 15.9307C1.13322 17.3144 1.82947 18.5701 2.75384 19.6969C3.05822 20.0682 3.35822 20.4469 3.74447 20.7426C4.34635 20.5138 4.77572 20.2369 4.75509 19.2969C4.71697 17.5988 4.74384 15.8994 4.74572 14.2007C4.74572 14.1176 4.72134 14.0301 4.78259 13.9351C4.85884 13.9351 4.94322 13.9351 5.02822 13.9351C5.79947 13.9351 6.57135 13.9394 7.34259 13.9338C8.12322 13.9282 8.89822 13.8607 9.65697 13.6663C11.6351 13.1594 13.012 11.9951 13.5738 9.9938C13.9838 8.53193 13.972 7.0488 13.6113 5.5788ZM9.66572 8.89568C9.44697 10.0426 8.83509 10.6513 7.66697 10.7344C6.70697 10.8032 5.7376 10.7482 4.76072 10.7482C4.76072 8.89693 4.76072 7.04818 4.76072 5.20068C5.75197 5.20068 6.72759 5.1663 7.70009 5.21005C8.72947 5.2563 9.43759 5.90755 9.64572 6.92068C9.78009 7.57568 9.79134 8.23818 9.66572 8.89568Z" fill="white"/>
<path d="M23.1991 15.6481C22.8203 14.6968 22.0847 14.1156 21.1822 13.7081C20.3466 13.3312 19.4509 13.1518 18.5722 12.9168C18.1897 12.8143 17.7978 12.7274 17.4691 12.4881C17.1703 12.2706 17.1372 11.9362 17.3791 11.6568C17.5603 11.4474 17.8016 11.3374 18.0647 11.2824C18.7878 11.1318 19.4884 11.2324 20.1741 11.4881C20.5603 11.6318 20.9272 11.8243 21.3234 11.9424C21.7522 12.0699 22.1241 11.9743 22.4403 11.6631C22.8072 11.3012 23.0066 10.8512 23.1272 10.3581C23.2259 9.95369 23.0991 9.62369 22.8134 9.33932C22.5491 9.07619 22.2291 8.90057 21.8909 8.75557C21.1534 8.43994 20.3766 8.28057 19.5816 8.21557C18.4872 8.12557 17.4009 8.15744 16.3478 8.51994C13.9847 9.33432 13.4041 11.4993 13.8316 13.2418C14.1116 14.3824 14.9559 15.0131 15.9841 15.4412C16.7922 15.7774 17.6484 15.9524 18.4859 16.1918C18.8753 16.3031 19.2653 16.4206 19.5884 16.6799C20.0303 17.0349 19.9778 17.6256 19.4828 17.8999C19.3322 17.9837 19.1691 18.0368 18.9984 18.0637C17.8966 18.2362 16.8591 18.0656 15.8972 17.4837C15.6509 17.3349 15.4028 17.1862 15.146 17.0581C14.8172 16.8943 14.4878 16.8974 14.1697 17.1049C13.1753 17.7531 13.0778 19.1424 13.9772 19.9056C14.5672 20.4062 15.2684 20.6799 16.0041 20.8724C17.3366 21.2212 18.6822 21.2487 20.0366 21.0168C20.1353 20.9799 20.1991 20.8981 20.2722 20.8299C20.7228 20.4093 21.1334 19.9518 21.5091 19.4637C22.3047 18.4287 22.9422 17.3074 23.3491 16.0618C23.2997 15.9237 23.2534 15.7843 23.1991 15.6481Z" fill="white"/>
</svg>
