<svg width="90" height="90" viewBox="0 0 90 90" fill="none" xmlns="http://www.w3.org/2000/svg">
<circle cx="45" cy="45" r="45" fill="#FFD954"/>
<path d="M47.352 74.7793C40.1207 74.7793 34.2995 72.922 29.5574 69.1007C27.9559 67.8115 27.1697 65.854 27.4183 63.8197C32.2913 69.7098 38.5276 72.5901 46.3349 72.5901C61.009 72.5901 68.1427 63.6486 68.1427 45.2539V28.1927C68.1427 25.4094 69.5972 22.9599 71.7844 21.564L71.7857 46.4182C71.7857 69.8588 58.4984 74.7793 47.352 74.7793Z" fill="white" stroke="white" stroke-width="2"/>
<path d="M30.7024 22.3934L36.0999 15.5356L44.6256 18.3372L37.1073 23.9878L30.7024 22.3934Z" fill="white" stroke="white" stroke-width="2"/>
<path d="M50.03 34.8091L35.2569 29.6472L35.4964 28.9639L50.2695 34.1258L50.03 34.8091Z" fill="white" stroke="white" stroke-width="2"/>
<path d="M29.6154 34.4808L41.6923 39.0862L40.5021 40.5986L27.1574 37.6038L29.6154 34.4808Z" fill="white" stroke="white" stroke-width="2"/>
<path d="M40.3921 50.263L43.9134 48.1349L45.6028 51.9146L43.0707 55.1313L40.3921 50.263Z" fill="white" stroke="white" stroke-width="2"/>
<path d="M44.5382 30.1895L44.1302 29.5907L50.3242 25.3699L50.7322 25.9686L44.5382 30.1895Z" fill="white" stroke="white" stroke-width="2"/>
<path d="M54.9465 45.3877H66.7384V44.6634H54.9465V45.3877Z" fill="white" stroke="white" stroke-width="2"/>
<path d="M18.9412 45.3873H28.4802V44.663H18.2143V45.0248C18.2143 52.5041 21.2365 59.2851 26.1166 64.229C26.1673 63.9336 26.2213 63.6388 26.2975 63.3485C21.8293 58.6506 19.0349 52.3453 18.9412 45.3873Z" fill="white" stroke="white" stroke-width="2"/>
<path d="M24.2999 25.6694L25.183 27.4584L27.1574 27.7447L25.7283 29.1374L26.0654 31.104L24.2999 30.1754L22.5344 31.104L22.8715 29.1374L21.443 27.7447L23.4175 27.4584L24.2999 25.6694Z" fill="white" stroke="white" stroke-width="2"/>
<path d="M48.1152 38.4961L48.8141 42.7026L52.1083 39.9941L48.1152 38.4961Z" fill="white" stroke="white" stroke-width="2"/>
</svg>
