<svg xmlns="http://www.w3.org/2000/svg" viewBox="0 0 40.13 67.85"><defs><style>.cls-1{fill:#fff;}.cls-2{fill:#333;}.cls-3{opacity:0.38;}.cls-4{fill:#bbb;}</style></defs><title>cattail</title><g id="Layer_2" data-name="Layer 2"><g id="Layer_1-2" data-name="Layer 1"><g id="cattail"><g id="catTail-2" data-name="catTail"><path class="cls-1" d="M.47,62.5C5.33,59,7.17,52.71,8.23,46.82c1.5-8.35,2.08-16.9,4.56-25S20,5.82,27.55,1.94A10.72,10.72,0,0,1,33.13.52a7.15,7.15,0,0,1,5.85,4,7.17,7.17,0,0,1-.61,7.06c-1.56,2.21-4.22,3.31-6.45,4.85-8,5.49-10.24,16.1-12,25.65S15.7,62.25,7.46,67.36" transform="translate(0 -0.02)"/><path class="cls-2" d="M.72,62.93c3.93-2.86,6-7.41,7.14-12,1.44-5.61,2-11.44,2.86-17.16C12.33,23.42,15.16,12.3,23.51,5.24A18.91,18.91,0,0,1,30.4,1.33a6.87,6.87,0,0,1,7.22,2,6.59,6.59,0,0,1,.82,7.16c-1.18,2.35-3.66,3.54-5.8,4.87-8.28,5.15-10.95,15-12.68,24C18.27,48.18,16.9,58.43,9.9,64.87a17.51,17.51,0,0,1-2.7,2.06c-.54.34,0,1.2.51.86C16,62.58,18.6,52.22,20.27,43.19s3.39-20.13,11.46-26c2-1.48,4.42-2.47,6.2-4.29A7.74,7.74,0,0,0,40,6.05,7.53,7.53,0,0,0,35.54.6c-2.6-1.11-5.38-.48-7.84.71C18.08,6,13.26,16.59,11.05,26.5,9.66,32.7,9,39,8,45.28,7.16,50.2,6.08,55.48,2.9,59.49A14.23,14.23,0,0,1,.22,62.07c-.52.37,0,1.24.5.86Z" transform="translate(0 -0.02)"/><g class="cls-3"><path class="cls-4" d="M24.29,10.67a19.24,19.24,0,0,1,2.37,2.23c.16.17.3.35.45.53s-.15-.24.18.24.63,1,.92,1.45a3.5,3.5,0,1,0,6-3.53,20.8,20.8,0,0,0-5-5.87c-1.44-1.13-3.57-1.5-4.95,0-1.16,1.27-1.54,3.74,0,5Z" transform="translate(0 -0.02)"/></g><g class="cls-3"><path class="cls-4" d="M15.57,23.56l4.18,2.36a3.5,3.5,0,1,0,3.53-6L19.1,17.52a3.5,3.5,0,1,0-3.53,6Z" transform="translate(0 -0.02)"/></g><g class="cls-3"><path class="cls-4" d="M13.58,41.36a5.5,5.5,0,0,1,.91,0l-.93-.13a4.9,4.9,0,0,1,1.06.29l-.84-.36a5.25,5.25,0,0,1,.81.43,3.54,3.54,0,0,0,4.79-1.26,3.58,3.58,0,0,0-1.26-4.79,8.06,8.06,0,0,0-4.54-1.22,3.5,3.5,0,1,0,0,7Z" transform="translate(0 -0.02)"/></g></g></g></g></g></svg>