<svg xmlns="http://www.w3.org/2000/svg" viewBox="0 0 1491.65 761.49"><defs><style>.cls-1{opacity:0.25;}.cls-2{fill:#34b44a;}.cls-3{opacity:0.38;}.cls-4{fill:#ffe094;}.cls-5{opacity:0.4;}.cls-6{opacity:0.5;}.cls-7{fill:#9f9f9f;}.cls-8{fill:#969696;}.cls-9{opacity:0.46;}.cls-10{fill:#fff;}.cls-11{opacity:0.29;}.cls-12{fill:#fbcfd4;}.cls-13{fill:#bbb;}.cls-14{fill:#fbd9df;}.cls-15{fill:#333;}</style></defs><title>main_1</title><g id="Layer_2" data-name="Layer 2"><g id="Layer_1-2" data-name="Layer 1"><g class="cls-1"><path class="cls-2" d="M1491.47,264.4c-1.57-24.09-9.71-46.14-27.53-63.34-34.24-33-85.87-30.8-130.2-28.74a749,749,0,0,0-114.23,14.39,616.92,616.92,0,0,0-106.72,32.12l-17.85,7.46a57.92,57.92,0,0,0-11.44,8,8.24,8.24,0,0,1,1.33,1c3.64,3.21,7.65,5,10,9.55a18.75,18.75,0,0,1,1.45,3.65c2.12,4.25,2.14,9.5.71,14.33a7.36,7.36,0,0,1-1,4.28c-.9,1.65-1.8,3.29-2.73,4.9a5,5,0,0,1-.35,1.53,20.88,20.88,0,0,1-4.92,7.47c-.58.57-1.19,1.1-1.79,1.64a41,41,0,0,1-6.69,6.61,35.59,35.59,0,0,1-8.54,7.26,6.3,6.3,0,0,1-1.5.63c-.47.41-1,.81-1.45,1.2l-.1.1a6.08,6.08,0,0,1-2.39,1.67c-.42.27-.86.51-1.29.76a7.4,7.4,0,0,1-2.78,3,41.72,41.72,0,0,1-9,3.87c-.37.27-.76.5-1.15.74a6.73,6.73,0,0,1-3,1.64c-.34.07-.67.17-1,.26-.65.24-1.29.45-1.94.65l-.14,0c-2.45.91-4.83,2-7.36,2.72a8.33,8.33,0,0,1-1,.16l-.37.38a22.52,22.52,0,0,1-15.2,10.76c-3.15.57-6.69.88-9.79-.18-.33,0-.66,0-1,0-5.78.14-12.79-.27-16.14-5.75a9.91,9.91,0,0,1-1-2.3c-.2-.28-.39-.58-.58-.87a11.38,11.38,0,0,1-3.3-.7l-.23.1c-3.92,1.39-8-1.21-10.41-4.08a1.91,1.91,0,0,1-.29-.76c-3-2.64-3.51-6.57-3.18-10.44-.74,1.52-1.43,3-2.12,4.55a8.84,8.84,0,0,1-.18,1.45c0,.18-.07.36-.1.55,0,.62-.1,1.24-.12,1.87-.06,1.33-.06,2.66-.06,4a7.33,7.33,0,0,1-.8,3.32,8.34,8.34,0,0,1,.53,1.08,58.62,58.62,0,0,1,3.74,12.65,7.4,7.4,0,0,1,.74,3.44c-.14,11.7-.58,20.18-8.22,29.69-5.47,6.79-14.07,13.52-22.92,14.89a8.74,8.74,0,0,1-1.6.09A21.45,21.45,0,0,1,938,380c-2.31.41-4.67,1.62-6.83,1-5.69,3.71-11.54,4.46-17.6,7.55l-.95.29c-1.44,0-2.88-.07-4.32-.13-8.77-.35-18.09,2.94-26.86,6.41-11.18.45-22.37.55-33.56.93-12.7.43-25.17,1.7-37.77,3.38-12.38,1.64-24.65,3.24-36.51,7.28q-2.79,1-5.54,2a58.81,58.81,0,0,0-11.28-.6l-19.86,2.64a74.72,74.72,0,0,0-33,19L618.4,501.34c-12.65,10.6-25.91,20.79-37.66,32.38-18.35,18.11-33.69,40.8-40.06,65.92a75.91,75.91,0,0,0-1.5,7.64,76.24,76.24,0,0,0-19.09,17.51c-13.94,17.85-20.67,42.2-13.37,64.47,9.43,28.76,29.46,48.5,58.29,58.08,12,4,25.34,4.39,38,5.19q26.49,1.66,53,3,53.71,2.76,107.5,4.24,106.86,2.93,213.78.78t213.58-9.36c40.25-2.73,80.85-4.92,120.74-11.08,3-.46,6-1,9-1.7a76.35,76.35,0,0,0,22.87-2.57,74.9,74.9,0,0,0,33-19,72,72,0,0,0,8.41-10c13.2-10.85,23.85-22.88,34.85-37.47,12.13-16.1,20.13-35.07,27.07-53.8,7.5-20.2,10.09-41.31,12.72-62.59,4.32-34.91,2.18-70.22,5.67-105.18,5.16-30.59,13.45-60.6,17.88-91.35,3.22-22.24,6.16-44.5,7.6-66.92C1491.21,281.21,1492,272.71,1491.47,264.4Z"/></g><g class="cls-3"><path class="cls-4" d="M979.23,236c0-6.15-1.18-11.89-4.75-16.3-6.55,4.75-14.45,6.44-22.92,6.37-5.62,0-11.22-.75-16.85-.4-6.48.41-12.43,2.3-18.68,3.82a37,37,0,0,1-5,.86,59.43,59.43,0,0,1-17.75,2.56,41.4,41.4,0,0,1-7.79-.84c-.94.17-1.88.31-2.87.4a23,23,0,0,1-13.35-2.71,12.54,12.54,0,0,1-1.9-.31c-4.53,0-9.34-2.5-12.8-6a5.92,5.92,0,0,1-1.65-.77,12,12,0,0,1-5.49-12c.07-.51.18-1,.29-1.49,0,0,0,0,0-.07-3.51-10.48-.31-22.85,3.05-32.92,1.7-5.08,4.23-9.85,5.78-15,1.3-4.28,2.18-8.57,4.38-12.43a16.5,16.5,0,0,0-9,7.7C832,190.62,823.76,229.22,815,267.26c-8.07,35.17-17.43,70.39-39.5,99.64-7.16,9.5.76,22.92,10.54,25.92,16.12,4.93,38.47,5.19,51.41-7.41,7.27-7.07,8.12-15.86,9.33-25.33a205.73,205.73,0,0,1,4.58-23.32q1.51-6,3.28-12c7.6,4.12,17.2,5.93,24.8,7.15a133.69,133.69,0,0,0,43.09-.06c12.69-2.05,26.74-6.19,37.37-13.6,13.58-9.48,18.58-23.44,19-39.57C979.31,264.48,979.3,250.2,979.23,236Z"/></g><g class="cls-5"><path class="cls-4" d="M860.66,260.21a51.65,51.65,0,0,0-4.92,13.06,3,3,0,0,0,3.69,3.69l2-.63-3.69-3.69L853,289.06c-.8,2.76,3,5.26,5,2.92l.29-.27L854.56,288a153.84,153.84,0,0,1-3.69,16.14c-.8,2.77,2.14,4.35,4.4,3.39l2.44-1-4.4-3.38-2.63,12.51c-.53,2.5-2,6.17-1.08,8.79,1.9,5.22,12.06,5.32,16.4,5.17,3.85-.13,3.87-6.13,0-6a50.45,50.45,0,0,1-8-.73,2.72,2.72,0,0,0-2.7-.27l.75-3.57,3-14.31c.58-2.76-2-4.4-4.4-3.39l-2.45,1,4.41,3.38a150.29,150.29,0,0,0,3.7-16.14c.37-2.16-1.32-4.37-3.69-3.69a5,5,0,0,0-2.94,1.82l5,2.92,4.8-16.43a3,3,0,0,0-3.69-3.69l-2,.63,3.69,3.69a45.57,45.57,0,0,1,4.32-11.62c1.82-3.41-3.35-6.44-5.18-3Z"/></g><g class="cls-6"><path class="cls-7" d="M975.92,164.72c-3.53-7-5.51-8.33-9.16-11.13-1.93-1.48-2.9-3-4.83-4.51.1-1.29-1.79-2.38-2-3.66-.45-.35,0-.87-.4-1.28a32.76,32.76,0,0,1-3.09-4.21,29.8,29.8,0,0,1-2.77-4.56,46,46,0,0,1-3.29-10.4l-.15-.79,0-.09-.3-1.06Q947,112.67,944,102.3a132.16,132.16,0,0,1-3.84-15.61c1.18-15.49.89-31.12-1.85-46.2C933.6,14.42,910-5.82,885.77,5.48c-.15.07-.3.17-.45.25-7-5.83-17.31-7.06-25.78-4.37C849,4.7,841.7,14.07,837.45,23.92c-5.39,12.47.16,24.49,13.71,27.68a24.57,24.57,0,0,0,6.22.62,18.42,18.42,0,0,1-4.22-6.47c-1.25-3.25-1.3-6.94-1.26-10.39s.46-5.35,2.49-8.34c0,0,.05-.05.07-.08a5.26,5.26,0,0,1,.53-1.15,5.71,5.71,0,0,1,.94-1.21c.09-.13.18-.25.28-.37.65-.75,1.4-1.4,2.1-2.11a.73.73,0,0,1,1,0,.13.13,0,0,1,0,0l0,0a.77.77,0,0,1,0,1l-.2.27a.54.54,0,0,1-.09.12,22.56,22.56,0,0,0-1.92,3c.68.5,1-.61.4.31-1.76,2.59-2,5.85-2,8.91,0,1.38,0,2.79.11,4.18h.15a1.9,1.9,0,0,1,1.85,1.87c0,.15,0,.3,0,.45v0s0,0,0,.1c.06.28.11.55.18.83a14.16,14.16,0,0,0,.5,1.56l.07.19c0-.11,0-.11,0,0s.1.25.16.37c.13.28.26.55.4.82.26.52.55,1,.85,1.54.43.72.86,1.38,1.3,2l.36.41a1.28,1.28,0,0,1,.55,0,1.31,1.31,0,0,1,.69.22,1.42,1.42,0,0,1,.52.48,1.31,1.31,0,0,1,.29.53c.33-.07.66-.13,1-.22a23.9,23.9,0,0,0,4.44,3.54l.14,0h0a3,3,0,0,1,2.13.17c-.54-.25,0,0,.15,0s.4.11.6.15a1.87,1.87,0,0,0,.4.07h.17c.75.06,1.51,0,2.27,0a32.49,32.49,0,0,1,3.42.16l1.1.12c.31,0,.62-.07.93-.08a8.75,8.75,0,0,1,1.91.16,5.88,5.88,0,0,1,2.82,1.48,5.35,5.35,0,0,1,1.1,1.44l.43,0c.06.09.1.17.16.27.35.61.66,1.25,1,1.89l.41,1.09c.76,2.32,1.56,4.61,2.15,7,.48,1.93,1.15,2.54.39,3.33-.11.11-.07.28,0,.46q-2.21,1.64-4.35,3.36c-9.48,8.66-9.95,22.07-12.62,33.9-5.36,23.81-12.88,46.83-21.53,69.6-4.56,12-7.11,26-.17,37.77s19.65,18,32.81,14.51a15.61,15.61,0,0,0,3.19-1.22c6.65,2.51,14.49,2.1,21.66,0,18.09-5.28,39.29-.77,57.59-10.66,10.73-5.8,19.19-16.82,20-29.35C987.94,180.09,986.53,177.13,975.92,164.72Z"/><path class="cls-7" d="M957.71,188.66c.15-1.2,2.46-1.87,0,0Z"/><path class="cls-7" d="M965.47,193.46l.75-.39A1.55,1.55,0,0,1,965.47,193.46Z"/></g><g class="cls-5"><path class="cls-8" d="M888.4,221.88a23.2,23.2,0,0,1-5.35-7.58,13.21,13.21,0,0,1-1.31-2.78c-1.84-5.47-1-11.69-.38-17.3a227,227,0,0,0,.78-40.32c-.3-5.21-4.37-5.24-4.07,0,1,17.19-6.07,33.83-5.52,50.89.48,14.87,9.48,22.07,23.14,25.56a3.82,3.82,0,0,0,4.6-2.21A24.26,24.26,0,0,1,888.4,221.88Z"/></g><g class="cls-5"><path class="cls-8" d="M939,217.58c-10.2-1.71-22-5.16-26.83-15.26-5.5-11.38-1.6-25.37-2.65-37.45a4,4,0,0,0-2.22-3.34c-2.77,4.94-5,10.23-5.21,15.95a7.9,7.9,0,0,1-.72,3.11c-.33,9.61-.34,19.25,4.78,27.67a28.81,28.81,0,0,0,6,7,.27.27,0,0,1,.08.07c6.78,5.75,15.91,8.63,24.62,10.09C941.94,226.3,944.14,218.45,939,217.58Z"/></g><g class="cls-5"><path class="cls-8" d="M942.36,232.4a37.83,37.83,0,0,0,14.76-21.51c3.18-12.91-1.44-25.84-8.68-36.49a4.13,4.13,0,0,0-5.49-1.3,28.82,28.82,0,0,1,5.72,14.35A33.66,33.66,0,0,1,950,201.1a27.24,27.24,0,0,1-.74,7.63c-2.34,9.54-9.16,16.79-18,20.63a3.19,3.19,0,0,0-1.93,4.12C933.91,234.37,938.17,234.26,942.36,232.4Z"/></g><g class="cls-5"><path class="cls-8" d="M982.63,195.76c-.5-3-4.12-5.5-7-7.25a27,27,0,0,0-5.72-2.78c-.6-.19-1.23-.36-1.87-.51a3.67,3.67,0,0,0,1,3.85c7.07,7,13,25,.13,30.14-4.8,1.93-2.71,9.81,2.16,7.85,12.22-4.89,15.11-17,12.27-28.08C983.44,197.52,982.87,197.15,982.63,195.76Z"/></g><g class="cls-5"><path class="cls-8" d="M875.28,227.54c-15.82-3.71-8-22.64-4.53-32.43a3.38,3.38,0,0,0-1.1-4c-2.2,4.22-5.41,7.78-7.86,11.87a77.71,77.71,0,0,0-3.76,7.17c-.14,1.45-.32,2.9-.53,4.35a24.07,24.07,0,0,0,.83,6.21,20.23,20.23,0,0,0,14.79,14.7C878.21,236.59,880.39,228.74,875.28,227.54Z"/></g><g class="cls-9"><path class="cls-10" d="M873.72,43c2.89-2.7,5.41-5.77,8.43-8.34.79-.67,2.19-2.35,3.2-2.61l-4.47,1.16c2.34.61,5.91,8.4,8.57,10.38,3.18,2.37,7.07,2.13,10.37.07.82-.51,4.2-4.65,4.76-4.63.82,0,1.39,1.92,2.34,3,2.7,2.93,6.35,3.38,10.09,2.8,5.82-.89,3.35-9.58-2.44-8.7-.61.1-3.23-4.68-4.11-5.33a7.71,7.71,0,0,0-5.29-1.53,10.29,10.29,0,0,0-5.57,2.12c-3.39,2.48-3.49,6-7.08,2.15-2.8-3-5.35-7.43-10.42-7.14-3.74.21-6.14,2.5-7.76,5.31-1.1,1.89-2.11,3.83-3.33,5.64a17.72,17.72,0,0,0-2.45,4.42c-.58,1.81.35,4.05,2.72,3.13a5.64,5.64,0,0,0,1.65-1.13C873.2,43.46,873.46,43.21,873.72,43Z"/></g><g class="cls-11"><path class="cls-12" d="M868.65,74.44v-.52a7.13,7.13,0,0,0-.82-3.66,7.16,7.16,0,0,0-2-3.05,7.06,7.06,0,0,0-3.06-2,7.19,7.19,0,0,0-3.66-.82l-2.53.34a9.48,9.48,0,0,0-4.19,2.45L851,69.13a9.39,9.39,0,0,0-1.3,4.79v.52a7.15,7.15,0,0,0,.82,3.67,7.07,7.07,0,0,0,2,3,10.48,10.48,0,0,0,6.72,2.78l2.52-.33a9.61,9.61,0,0,0,4.2-2.45l1.48-1.92a9.5,9.5,0,0,0,1.3-4.8Z"/></g><g class="cls-3"><path class="cls-13" d="M1011.76,245.58l1.69-1.89-6-2.48c-.38,3.06-.27,5.31,2.46,7.31,1.64,1.2,4.25.82,3.44,3.5-.51,1.7-3.27,3.89-4.55,5.08-1.52,1.4-10.16,8.55-11,4.22-.24-1.2,3-5.32,3.66-6.42.89-1.53,2.41-5.65,4.49-6l-2.69-.36.72.4-1.73-3c.57,5.57-15,19.53-1.49,21,4.26.46,6.93-2.14,8.17-5.9.75-2.25,1.17-4.65,1.76-6.94-.54,2.1,1.22-1.92,1.23-1.26-.09-5.18-2.59.43-2.27.27l2.7-.35c-1.09-.2-3.07-2.8-3.41-3.81-.57-1.73.8-4.13,1.46-5.78,1.67-4.18-5.09-6-6.75-1.86-2.7,6.74-2.09,11.77,3.76,16.57,5.48,4.5,11-2.42,9.76-8.19-1.1-5-7.1-4.54-10.25-1.89-2.33,2-3.09,4.69-3.76,7.53-.38,1.61-.94,3.18-1.34,4.77l.6-.37-1,.23c.3-.63.41.94-.45-.15l.9,3.4c1.27-4.36,12.4-17.28,4.92-20.66-4.55-2.06-8,3-9.91,6.34-2.52,4.33-7.52,10.21-6.4,15.63,2.45,11.84,18.57,2,23.3-2.41,3.29-3.06,7.41-7.09,7-12a7.15,7.15,0,0,0-2.67-5.08c-2.21-1.8-4-.78-3.63-3.77s-4.07-4.59-6-2.47l-1.69,1.89c-3,3.34,1.94,8.31,5,5Z"/></g><g class="cls-3"><path class="cls-13" d="M1089.14,242.78c-15.14,2.12-25.9,20.89-29,34.39-1.45,6.35-3.37,15.82,2.33,20.59,8.12,6.82,15.7-2.86,20.77-8.37,5.7-6.22,11.09-12.13,13.61-20.37,1.77-5.79,5.24-16.84-1.43-20.79-7.71-4.57-13.6,5.69-17.42,10.84a114.61,114.61,0,0,0-13,22.62c-1.52,3.49-1,7.48,2.51,9.58,3,1.77,8.07,1,9.58-2.51a116.64,116.64,0,0,1,8.54-16.17c2.88-4.52,6.22-10.2,10.5-13.55l-6.81,1.8.69.18-4.18-3.22c-1.6-3.53-.71-.76-1,1.2-.29,1.59-.6,3.19-1,4.75a24,24,0,0,1-4,8.46c-2.12,2.83-4.73,5.38-7.12,8-1.1,1.19-3.17,2.69-3.89,4.19q-4.15,3.09,3.92,4.1c0-.8,0-1.59.11-2.38.75-10.55,8-28.14,20-29.82,3.77-.53,5.76-5.29,4.89-8.61-1.07-4-4.89-5.41-8.61-4.89Z"/></g><g class="cls-3"><path class="cls-14" d="M1005.05,317.84c4.5,0,4.51-7,0-7s-4.51,7,0,7Z"/></g><g class="cls-3"><path class="cls-14" d="M1005.23,317.47c4.51,0,4.51-7,0-7s-4.51,7,0,7Z"/></g><g class="cls-3"><path class="cls-14" d="M993.7,313.81c4.51,0,4.52-7,0-7s-4.51,7,0,7Z"/></g><g class="cls-3"><path class="cls-14" d="M993.16,314c4.5,0,4.51-7,0-7s-4.52,7,0,7Z"/></g><path class="cls-15" d="M843.87,51.23a14.8,14.8,0,0,1-2.58,6.18,48.45,48.45,0,0,1-4.18,5.49c-1.42,1.66-2.91,3.61-2.45,5.93a3.91,3.91,0,0,0,1.8,2.46,6.84,6.84,0,0,1,2.43,2c1.08,1.83.79,4.19.68,6.21a28.45,28.45,0,0,0,.48,7.71,17.92,17.92,0,0,0,7.85,10.91c4.88,3.28,10.75,4.57,16.43,5.67.63.12.9-.85.27-1-5-1-10.2-2.06-14.7-4.63-4-2.27-7.32-5.69-8.61-10.17a24.43,24.43,0,0,1-.76-7.62c.07-2.07.38-4.22-.2-6.25a5.27,5.27,0,0,0-1.4-2.4c-.78-.74-1.84-1.1-2.59-1.85-1.89-1.9,0-4.61,1.34-6.16a51.09,51.09,0,0,0,4.52-5.94,15.5,15.5,0,0,0,2.67-6.6c.07-.63-.93-.63-1,0Z"/><path class="cls-15" d="M860.85,19.49c-3.16,5.38-5.48,11.32-4.67,17.66A21.76,21.76,0,0,0,864,51.38,18.91,18.91,0,0,0,871,55c3.07.79,6.1.37,9.21.32,2.9-.06,5.76.54,7.63,2.92a10.23,10.23,0,0,1,2,6.76c-.3,6.68-6.44,11.14-11.71,14.17a.5.5,0,0,0,.51.87c4.83-2.79,10.11-6.56,11.74-12.21,1.28-4.44-.06-10.17-4.41-12.43-2.92-1.52-6.29-1-9.44-.9a17.14,17.14,0,0,1-8.38-1.62,20.13,20.13,0,0,1-10.25-12.34,21.35,21.35,0,0,1-.4-10.56,34.59,34.59,0,0,1,4.22-10,.5.5,0,0,0-.86-.5Z"/><path class="cls-15" d="M886.4,6.32c-3.91-4.09-9.55-6-15.11-6A28,28,0,0,0,854.83,6a48.91,48.91,0,0,0-12.27,13.68,68.22,68.22,0,0,0-4.69,8.17A20.08,20.08,0,0,0,836,36.74c.19,6.11,3.43,12.46,9.25,14.93.59.24,1.1-.62.51-.87-5-2.13-8.08-7.34-8.66-12.65a18.48,18.48,0,0,1,1.11-8.58,46.84,46.84,0,0,1,4.13-7.67A54,54,0,0,1,853.72,8.07a28.15,28.15,0,0,1,15.39-6.63c6-.5,12.33,1.14,16.58,5.58.45.47,1.15-.24.71-.7Z"/><path class="cls-15" d="M877.32,80.1c3.32,11,1.29,22.6-2.43,33.19-1.91,5.45-4.26,10.74-6.62,16s-4.65,10.48-6.87,15.77a249.05,249.05,0,0,0-11.51,32.8,141.9,141.9,0,0,0-3.42,16.84c-.39,2.78-.68,5.58-.87,8.38a54.26,54.26,0,0,0-.1,7.86,22.5,22.5,0,0,0,1.53,6.77,17.55,17.55,0,0,0,4.07,5.77c3.61,3.52,8.12,6.06,12.6,8.31,1.26.63,2.54,1.22,3.84,1.76.59.25.85-.72.26-1a74.08,74.08,0,0,1-7.41-3.69,47.39,47.39,0,0,1-6.38-4.19,21.11,21.11,0,0,1-5.12-5.5,18.32,18.32,0,0,1-2.22-6.72,39.55,39.55,0,0,1-.18-7.38c.13-2.86.38-5.71.73-8.55a140,140,0,0,1,3.23-16.88,237.06,237.06,0,0,1,11.13-32.45c2.19-5.31,4.51-10.58,6.85-15.84,2.27-5.1,4.57-10.19,6.54-15.42,3.84-10.2,6.37-21.31,4.29-32.2a38.56,38.56,0,0,0-1-4c-.19-.62-1.16-.36-1,.26Z"/><ellipse class="cls-15" cx="848.15" cy="62.06" rx="3.85" ry="1.79" transform="translate(620.13 881.34) rotate(-78.63)"/><path class="cls-15" d="M845.88,51.78A14.9,14.9,0,0,1,854,53.15c.58.28,1.09-.58.51-.86a15.93,15.93,0,0,0-8.59-1.51c-.63.07-.64,1.07,0,1Z"/><path class="cls-15" d="M864.33,103.82c1.63.33,2.53,2,3.26,3.31a21,21,0,0,1,2,5.29c.89,4,.77,8.06.85,12.09a.5.5,0,0,0,1,0c-.08-4.33,0-8.75-1-13a21.62,21.62,0,0,0-2.29-5.51c-.79-1.38-1.86-2.82-3.51-3.17-.63-.13-.9.83-.27,1Z"/><path class="cls-15" d="M884.24,7.25c6.54-6.66,18.32-4.83,25.82-1,8,4.13,14.49,11.28,18.81,19.1,4.73,8.57,6.83,18.15,8.42,27.72a200.18,200.18,0,0,1,2.55,33.61,123.89,123.89,0,0,0,.67,16.79,71.62,71.62,0,0,0,3.29,13.76,98.67,98.67,0,0,0,13.39,25.27,130.8,130.8,0,0,0,8.95,11.1c3.14,3.49,6.58,6.68,9.79,10.11a44.44,44.44,0,0,1,8,11.35,41.7,41.7,0,0,1,3.36,10.62,37.56,37.56,0,0,1-2.1,20.76,31.19,31.19,0,0,1-14,15.52,35.44,35.44,0,0,1-5.38,2.31c-.61.2-.35,1.17.26,1a32.93,32.93,0,0,0,17.23-13,36.07,36.07,0,0,0,5.62-20.08,41.69,41.69,0,0,0-6.41-21.81,66.3,66.3,0,0,0-9.25-10.83c-3.47-3.48-6.86-7-10-10.8a108.36,108.36,0,0,1-16.06-25.59,76.6,76.6,0,0,1-4.72-14.38A81,81,0,0,1,940.84,92c0-5.82.06-11.62-.24-17.43s-.83-11.34-1.62-17c-1.41-10-3.24-20.17-7.55-29.36A51.14,51.14,0,0,0,914.18,7.59C907.06,2.76,897,0,888.66,3.22a14.52,14.52,0,0,0-5.13,3.33.5.5,0,0,0,.71.7Z"/><path class="cls-15" d="M965.38,186.12c5.55,1.83,8.9,7.59,10.39,12.92,1.57,5.64,1.15,11.77-2.07,16.75a32.43,32.43,0,0,1-6.84,7.24c-.5.41.21,1.11.71.71,4.7-3.89,8.87-8.6,9.84-14.83a25.09,25.09,0,0,0-4.14-17.67,15.31,15.31,0,0,0-7.62-6.08c-.61-.2-.88.76-.27,1Z"/><path class="cls-15" d="M857.47,150.63c-6.05,3.86-10.3,9.76-13.68,16a192.67,192.67,0,0,0-10,22.19c-6.13,15.77-10.84,32-15.38,48.34-4.71,16.91-9.51,33.78-14.69,50.55-4.94,16-9.74,32-15.34,47.79-5.17,14.53-11.48,28.89-20.95,41.18q-1.76,2.28-3.65,4.44c-.42.49.29,1.2.71.71,10-11.42,16.83-25,22.26-39.09,5.9-15.22,10.49-31,15.37-46.53q7.86-25.12,15-50.48c4.52-16.31,9-32.65,14.69-48.6,2.87-8.05,6.06-16,9.7-23.71,3.14-6.66,6.68-13.41,12.1-18.51a29.5,29.5,0,0,1,4.38-3.4c.54-.35,0-1.21-.51-.86Z"/><path class="cls-15" d="M764,382.15c6.71,1.55,11.74,6.34,17.45,9.85a51.85,51.85,0,0,0,70.1-15.18c.36-.53-.5-1-.86-.5a50.7,50.7,0,0,1-67.48,15.57c-6.3-3.63-11.66-9-18.94-10.71-.63-.14-.89.82-.27,1Z"/><path class="cls-15" d="M859,263.43q-4.16,22.77-7.24,45.73-1.55,11.49-2.82,23c-.79,7.19-1.66,14.41-1.76,21.65-.11,7.74.79,15.56,4,22.67.27.59,1.13.08.87-.5-5.81-12.93-3.82-27.74-2.35-41.36q2.46-22.89,6-45.64,2-12.69,4.29-25.32c.11-.62-.85-.89-1-.26Z"/><path class="cls-15" d="M849.58,326a127.74,127.74,0,0,0,24.25,6.88A134.2,134.2,0,0,0,898.89,335a137.72,137.72,0,0,0,25.05-2.52,135.06,135.06,0,0,0,24.11-7,129.62,129.62,0,0,0,22.35-11.49l2.59-1.72c.53-.36,0-1.23-.5-.87a127,127,0,0,1-22,12,133.41,133.41,0,0,1-23.81,7.55,136.49,136.49,0,0,1-24.82,3.06,134.52,134.52,0,0,1-25-1.57,127.91,127.91,0,0,1-24.11-6.24c-1-.36-1.94-.73-2.9-1.11-.6-.23-.86.73-.27,1Z"/><path class="cls-15" d="M976.63,224.71c.75,11.34,1.25,22.7,1.19,34.07a271.38,271.38,0,0,1-2.16,34c-.83,6.35-2,12.67-3.4,18.92-.15.63.81.89,1,.27a216.65,216.65,0,0,0,4.89-33.72,336.34,336.34,0,0,0,.5-34.2c-.21-6.44-.55-12.87-1-19.29,0-.64-1-.65-1,0Z"/><path class="cls-15" d="M867.05,194.72c-4.35,4.27-6,10.39-6.29,16.32a58.17,58.17,0,0,0,.4,10.05,19.06,19.06,0,0,0,2.73,8.28,10.74,10.74,0,0,0,7,4.88c.63.11.9-.85.26-1a9.61,9.61,0,0,1-6.08-4,17.61,17.61,0,0,1-2.82-7.86,58.28,58.28,0,0,1-.48-9.15,31.93,31.93,0,0,1,1.36-9,19.16,19.16,0,0,1,4.68-7.82c.46-.45-.25-1.15-.71-.7Z"/><path class="cls-15" d="M971.81,312.86c4.2,11.52,7.26,24.54,4,36.69a34.08,34.08,0,0,1-8.59,15,48.12,48.12,0,0,1-14,9.64c-12.06,5.69-25.52,7.05-38.5,9.43a190.79,190.79,0,0,0-20.51,5.1c-6.76,2-13.49,4.21-20.38,5.79a68.5,68.5,0,0,1-17.6,1.62,65.81,65.81,0,0,1-17.74-2.89c-1.33-.42-2.63-.9-3.91-1.44-.59-.25-1.1.62-.51.86a58.91,58.91,0,0,0,17.1,4.13,72.23,72.23,0,0,0,18.23-.4c6.79-1,13.42-3.15,20-5.15,6.92-2.11,13.84-4.25,20.93-5.74,13.43-2.81,27.42-3.81,40.23-9.05,10.61-4.34,20.41-11.61,24.83-22.52,4.76-11.78,2.64-25.14-1.12-36.88-.48-1.5-1-3-1.53-4.46-.22-.6-1.19-.34-1,.26Z"/><path class="cls-15" d="M745.48,394,697,428.07c-15.69,11-31.56,21.89-46.68,33.72a484.26,484.26,0,0,0-39.76,34.89c-12.7,12.37-24.81,25.34-36.47,38.69s-22.85,27-33.79,40.92c-1.36,1.71-2.7,3.43-4,5.16-.39.5.31,1.21.71.7,10.88-13.94,22-27.71,33.53-41.12s23.47-26.44,36-38.92a505.32,505.32,0,0,1,39.13-35.31c14.83-12,30.52-22.82,46.1-33.79L740,399l6-4.2c.52-.37,0-1.24-.5-.87Z"/><path class="cls-15" d="M764.27,381.48A118.14,118.14,0,0,0,752,380.29a9.24,9.24,0,0,0-5,1.61,25.91,25.91,0,0,0-4.12,3.09,69.92,69.92,0,0,0-7.05,7.84c-1.17,1.44-2.33,2.89-3.37,4.44a18.15,18.15,0,0,0-1.44,2.4,1.24,1.24,0,0,0,.32,1.66c1.15.73,2.9-.27,3.93-.77a32.61,32.61,0,0,0,4.26-2.61c1.41-1,2.81-2,4.3-2.87.36-.21.73-.42,1.1-.6a1.55,1.55,0,0,1,.71-.22,1.11,1.11,0,0,1,.74.39c.49.44,1,.87,1.5,1.28a20.13,20.13,0,0,0,8,4.31,69.08,69.08,0,0,0,11.84,1.1,77.85,77.85,0,0,0,11.53-.09,21.7,21.7,0,0,0,9.36-2.85,14,14,0,0,0,1.91-1.43c.49-.42-.22-1.13-.7-.7-5.1,4.45-12.67,4.35-19,4.18-3.84-.1-7.73-.26-11.56-.68a20,20,0,0,1-5.25-1.13,17.76,17.76,0,0,1-3.51-2,31.66,31.66,0,0,1-3.29-2.58,2.27,2.27,0,0,0-1.64-.8,5.73,5.73,0,0,0-2.31,1c-2.73,1.59-5.13,3.69-7.93,5.15a13.72,13.72,0,0,1-2.33,1,2.35,2.35,0,0,1-.74.13c-.68,0-.26-.59-.05-1a36.52,36.52,0,0,1,3.14-4.56c2.06-2.61,4.16-5.22,6.47-7.61a30.46,30.46,0,0,1,4.24-3.71c1.48-1,3.25-2.26,5.09-2.41a20.45,20.45,0,0,1,3.41.15l3.18.27q3.28.31,6.57.75c.64.08.63-.92,0-1Z"/><path class="cls-15" d="M793.29,319.23c-17.38,6.25-33.4,15.63-48.18,26.64-15,11.13-28.68,23.78-42.11,36.68-13.66,13.1-27,26.51-41.18,39.09a453.9,453.9,0,0,1-103.58,69.12q-3.48,1.69-7,3.31a.51.51,0,0,0,0,.87c12.83,7.27,25,15.78,36.78,24.56.52.38,1-.48.51-.86a361.53,361.53,0,0,0-36.78-24.57v.87A455.19,455.19,0,0,0,656.05,428c14.49-12.39,28.06-25.78,41.74-39,13.43-13,27-25.92,41.69-37.52s30.37-21.69,47.61-28.75c2.14-.88,4.29-1.7,6.46-2.48.61-.22.35-1.18-.26-1Z"/><path class="cls-15" d="M879.83,155,875,175c-1.55,6.4-3.25,12.81-4.05,19.36-1.35,11,.4,23.95,9.78,31.2,4.58,3.53,10.58,5.34,16.3,4,.62-.15.36-1.12-.27-1a18.4,18.4,0,0,1-14.5-3.13,24.35,24.35,0,0,1-9-12.76c-3.81-11.86-.44-24.31,2.4-36l5.21-21.41c.15-.62-.81-.89-1-.26Z"/><path class="cls-15" d="M904.4,163.28a105,105,0,0,0-1.69,34.28,29.26,29.26,0,0,0,1.85,7.66,23.63,23.63,0,0,0,4.13,6.34,65.19,65.19,0,0,0,5.47,5.43,44.61,44.61,0,0,0,6.24,4.8,27.29,27.29,0,0,0,16.92,4c.64-.06.64-1.06,0-1a26.14,26.14,0,0,1-14.88-3,49.48,49.48,0,0,1-11.81-9.62,26.57,26.57,0,0,1-4.52-6,23.59,23.59,0,0,1-2.23-7.39,90.92,90.92,0,0,1-.78-16.49,106.6,106.6,0,0,1,2.27-18.75c.13-.63-.83-.89-1-.26Z"/><path class="cls-15" d="M932.59,137.42a63.14,63.14,0,0,0,14.5,39.92c2.38,2.89,4.95,5.68,6.75,9a27.06,27.06,0,0,1,3,11.36,41.27,41.27,0,0,1-4.35,20.91,37.69,37.69,0,0,1-6,8.77,18,18,0,0,1-8.4,5.44,11.44,11.44,0,0,1-2.54.36c-.64,0-.64,1,0,1,7.07-.22,12.43-6.15,15.94-11.72a42.27,42.27,0,0,0,6.41-20.59,35,35,0,0,0-1.22-11.34,28.75,28.75,0,0,0-5.5-9.87c-2.38-3-4.9-5.79-7-9a62.28,62.28,0,0,1-10.45-31.53c0-.92-.06-1.84-.07-2.75a.5.5,0,0,0-1,0Z"/><path class="cls-15" d="M990.79,279.91a22.64,22.64,0,0,1-1.68-12.49,42.62,42.62,0,0,1,3.27-11.88,32.85,32.85,0,0,1,5.16-8.31,39.7,39.7,0,0,1,7-6.31,118.74,118.74,0,0,1,10.06-6.32l-.76-.43-.44,4.65-.21,2.2a2.55,2.55,0,0,0,.23,1.74c.6.92,1.91.87,2.87.94a39.24,39.24,0,0,1,15.83,4.79c.61.34,1.21.69,1.8,1.06a5.17,5.17,0,0,0,1.73.85,2.42,2.42,0,0,0,1.83-.5c.68-.45,1.33-.93,2-1.4l4.48-3.15-.73-.3c1.42,8,2.86,16.56.12,24.49-.21.61.75.87,1,.27,2.81-8.11,1.34-16.81-.12-25a.5.5,0,0,0-.73-.3L1039.9,247l-1.73,1.22a10.42,10.42,0,0,1-1.67,1.13c-.65.27-1.24-.14-1.78-.47s-1.12-.7-1.69-1c-1.12-.63-2.26-1.21-3.43-1.73a40.23,40.23,0,0,0-7.08-2.42q-1.87-.45-3.78-.72c-1.2-.17-2.43-.16-3.62-.37-.75-.13-1-.48-.94-1.24s.14-1.53.22-2.3l.46-4.89a.5.5,0,0,0-.75-.43c-6,3.46-12.14,7-16.81,12.25a39,39,0,0,0-9,20.12c-.74,4.84-.51,9.84,1.63,14.31.28.58,1.15.07.87-.51Z"/><path class="cls-15" d="M989.77,279.58A103.54,103.54,0,0,0,982.7,291c-2.06,4.06-3.64,8.73-3.05,13.35.57,4.46,3.86,8.28,7.44,10.79a8.92,8.92,0,0,0,6,1.83,5.48,5.48,0,0,0,4.54-3.15,7.27,7.27,0,0,0-.67-6.44c-1.32-2.21-3.44-3.77-5.48-5.26-.52-.38-1,.48-.51.86,3,2.23,7,5.37,6,9.7a4.41,4.41,0,0,1-4.06,3.3,8.32,8.32,0,0,1-5.58-1.88c-3.36-2.47-6.44-6.15-6.76-10.45s1.07-8.35,2.94-12.05a102.73,102.73,0,0,1,7.11-11.47c.36-.53-.5-1-.86-.5Z"/><path class="cls-15" d="M1015.7,309.76c-3.23-.83-6.58-1.68-9.93-1.2a9.81,9.81,0,0,0-6.43,3.62,6.52,6.52,0,0,0-.83,6.83c1.2,2.62,3.75,4.21,6.37,5.12a35.06,35.06,0,0,0,8.73,1.7,33.2,33.2,0,0,0,8.62-.43,22.8,22.8,0,0,0,13.94-8c3.49-4.44,5.25-10.35,3.66-15.9a.5.5,0,0,0-1,.27,16.53,16.53,0,0,1-2.31,13.38,20.88,20.88,0,0,1-11.78,8.66,32.78,32.78,0,0,1-16,.38c-2.64-.56-5.48-1.3-7.54-3.14a6.07,6.07,0,0,1-2-6.57,8.11,8.11,0,0,1,5.8-4.72c3.47-.8,7.06.15,10.42,1a.5.5,0,0,0,.27-1Z"/><path class="cls-15" d="M1027.33,245.37c9-7.6,19.69-13.64,31.42-15.41a40.9,40.9,0,0,1,7.66-.46.5.5,0,0,0,0-1c-10.8-.37-21.43,3.59-30.47,9.28a82.32,82.32,0,0,0-9.32,6.88c-.49.42.22,1.12.71.71Z"/><path class="cls-15" d="M1076.27,232.05c7.28,2.4,14.58,6.41,18.66,13.15a23,23,0,0,1,2.5,17,46.77,46.77,0,0,1-4.17,11,51.16,51.16,0,0,1-6.76,10c-5.48,6.34-12.33,11.46-19.25,16.12a139.15,139.15,0,0,1-27.43,14.36c-1.19.46-2.39.91-3.59,1.34-.61.22-.35,1.18.26,1A141.55,141.55,0,0,0,1064.93,302c4-2.58,7.94-5.36,11.71-8.3a80.14,80.14,0,0,0,9.09-8.18A53.16,53.16,0,0,0,1098,264.07a24.73,24.73,0,0,0-1.23-17.61c-3.34-6.84-9.91-11.33-16.8-14.12-1.12-.46-2.27-.87-3.43-1.26-.61-.2-.87.77-.26,1Z"/><ellipse class="cls-15" cx="1007.85" cy="256.9" rx="2.75" ry="1.53" transform="translate(286.99 1006.64) rotate(-60.43)"/><ellipse class="cls-15" cx="1021.12" cy="262.22" rx="3.06" ry="1.7" transform="translate(289.08 1020.88) rotate(-60.43)"/><path class="cls-15" d="M1011.64,262.66a1.72,1.72,0,0,0-1.56,0,1.39,1.39,0,0,0-.77,1.33,2.15,2.15,0,0,0,1,1.57,1.9,1.9,0,0,0,1.75.27,1.56,1.56,0,0,0,.93-1.41,1.6,1.6,0,0,0-.92-1.43c-.62-.28-1.53-.22-1.76.54a1.08,1.08,0,0,0,1.06,1.35,1.19,1.19,0,0,0,1-.5,1.23,1.23,0,0,0-.61-1.83,1.4,1.4,0,0,0-1.08.08.51.51,0,0,0-.18.68.51.51,0,0,0,.69.18s.07,0,0,0h.08s-.1,0,0,0h.09l.09,0c.09,0,0,0,0,0l.07,0s-.07-.06,0,0,0,0,0,0,0,0,0,0l0,.05,0,0s0,0,0,0,0,.11,0,.11,0-.1,0,0v.13s0-.1,0,0a.64.64,0,0,0,0,.07c0,.05,0-.07,0,0l0,.05,0-.05,0,0s0,.06,0,0,0,0,0,0l-.06,0s.1,0,0,0l0,0h-.11s.1,0,0,0h0s0,0,0,0,0,0,0,0,0,0,0,0l-.05-.05c0,.09.06,0,0,0s0-.07,0,0,0,0,0,0,0,0,0,0a.17.17,0,0,1,0-.1s0,.11,0,0,0,.09,0,0,.05-.08,0,0,.06,0,0,0,0,0,0,0-.1,0,0,0h.18s-.09,0,0,0h0l.13,0s0,0,0,0l.07,0,.13.08c.08.05,0-.05,0,0l.09.1s0,0,0,0l.05.06.06.12c0,.05,0,0,0,0a.19.19,0,0,0,0,.07s0,.09,0,.11,0-.09,0,0v.11c0,.12,0-.07,0,0l0,.13a.43.43,0,0,0,0,.05c0,.05,0,0,0,0a.61.61,0,0,1,0,.12l0,0c0,.08,0,0,0,0l-.08.08s-.07.06,0,0,0,0,0,0l-.09.06c-.09,0,0,0,0,0l-.07,0-.08,0s.1,0,0,0h-.14c-.05,0-.12,0,0,0a.47.47,0,0,1-.16,0l-.13,0-.06,0h0l-.27-.16,0,0-.11-.09c-.08-.07-.14-.15-.21-.22s0,.06,0,0l0-.05-.08-.13,0-.06s0-.07,0,0,0,0,0,0a.24.24,0,0,0,0-.08s0,0,0-.06,0,0,0,0v-.06c0-.09,0,0,0,0s0-.11,0-.13,0,0,0,0,0,0,0-.06l0,0c0-.08,0,0,0,0l.09-.09,0,0s0-.05,0,0,0,0,0,0l0,0,0,0h0s0,0,0,0l.06,0,.13,0h.06s-.11,0,0,0h.18c.09,0,0,0,0,0l.11,0,.06,0c.06,0-.11,0,0,0a.5.5,0,1,0,.5-.86Z"/><path class="cls-15" d="M1010.46,265.13l-1.32,2.36a9.19,9.19,0,0,1-1.3,2.06,3.93,3.93,0,0,1-.94.62,11.68,11.68,0,0,0-1.06.66,24.64,24.64,0,0,0-2,1.57c-.5.41.21,1.12.7.7a24.82,24.82,0,0,1,2-1.56,10.77,10.77,0,0,0,2.07-1.37,10.09,10.09,0,0,0,1.3-2l1.4-2.49c.31-.56-.55-1.07-.87-.51Z"/><path class="cls-15" d="M1007.92,270.39a13.41,13.41,0,0,1,.44,4,.5.5,0,0,0,1,0,14.24,14.24,0,0,0-.48-4.31.5.5,0,0,0-1,.27Z"/><path class="cls-15" d="M977.58,289.24a53,53,0,0,1,11.5-7.95c.58-.3.07-1.16-.5-.87a53.73,53.73,0,0,0-6.12,3.73,55,55,0,0,0-5.59,4.38c-.48.44.23,1.14.71.71Z"/><path class="cls-15" d="M1079.41,233a358.33,358.33,0,0,1,66.45-30.93,498.4,498.4,0,0,1,70.55-18.72c24.75-4.77,49.78-8,74.85-10.46A723.76,723.76,0,0,1,1370,169a453.62,453.62,0,0,1,78.8,7.23c3.2.6,6.4,1.25,9.59,1.93.63.13.9-.83.27-1a434.87,434.87,0,0,0-78.14-9,673.85,673.85,0,0,0-79.86,2.83c-25.18,2.25-50.35,5.26-75.24,9.67a521.68,521.68,0,0,0-71.54,17.63,370.39,370.39,0,0,0-67.12,29.25c-2.63,1.49-5.25,3-7.84,4.59-.55.33-.05,1.2.5.86Z"/><g id="cat"><path class="cls-10" d="M1060.17,240.32c4.86-3.49,6.7-9.79,7.76-15.68,1.5-8.35,2.08-16.9,4.56-25s7.22-16,14.76-19.87a10.72,10.72,0,0,1,5.58-1.42,7,7,0,0,1,5.24,11c-1.56,2.22-4.22,3.32-6.45,4.86-8,5.49-10.25,16.1-12,25.65s-4.26,20.17-12.51,25.28"/><path class="cls-15" d="M1060.42,240.75c3.93-2.86,5.95-7.41,7.14-12,1.44-5.61,2-11.44,2.85-17.16,1.62-10.35,4.45-21.47,12.8-28.53a18.91,18.91,0,0,1,6.89-3.91,6.85,6.85,0,0,1,7.21,2,6.57,6.57,0,0,1,.83,7.16c-1.18,2.35-3.66,3.54-5.8,4.87-8.28,5.15-11,15-12.68,24-1.69,8.85-3.06,19.1-10.06,25.54a18.7,18.7,0,0,1-2.7,2.06c-.54.34,0,1.2.51.86,8.32-5.21,10.89-15.57,12.56-24.6s3.38-20.13,11.45-26c2-1.48,4.43-2.47,6.21-4.29a7.75,7.75,0,0,0,2.07-6.83,7.53,7.53,0,0,0-4.46-5.45c-2.6-1.11-5.39-.48-7.84.71-9.62,4.67-14.44,15.28-16.65,25.19-1.39,6.2-2,12.52-3.06,18.78-.83,4.92-1.91,10.2-5.1,14.21a13.66,13.66,0,0,1-2.68,2.58c-.51.37,0,1.24.51.86Z"/><g class="cls-3"><path class="cls-13" d="M1084,188.49a18,18,0,0,1,2.38,2.23l.45.53c.22.26-.15-.24.18.24s.63,1,.92,1.45a3.5,3.5,0,1,0,6-3.53,20.64,20.64,0,0,0-5-5.87c-1.43-1.13-3.56-1.5-5,0-1.15,1.27-1.53,3.74,0,5Z"/></g><g class="cls-3"><path class="cls-13" d="M1075.27,201.38l4.18,2.36a3.5,3.5,0,1,0,3.53-6l-4.18-2.36a3.5,3.5,0,1,0-3.53,6Z"/></g><g class="cls-3"><path class="cls-13" d="M1073.28,219.18a4.59,4.59,0,0,1,.91,0l-.93-.13a5.06,5.06,0,0,1,1.06.29l-.84-.36a5.25,5.25,0,0,1,.81.43,3.53,3.53,0,0,0,4.78-1.26,3.57,3.57,0,0,0-1.25-4.79,8.08,8.08,0,0,0-4.54-1.22,3.5,3.5,0,0,0,0,7Z"/></g></g></g><g id="Layer_2-2" data-name="Layer 2"><path class="cls-15" d="M1,609.48a419.15,419.15,0,0,1,65.38-73.36,441.62,441.62,0,0,1,72.51-51.93,512,512,0,0,1,74.47-35,620.69,620.69,0,0,1,69.43-21.53c19.68-4.9,39.56-8.92,59.55-12.33l6.22-1c.63-.1.36-1.07-.27-1-19.54,3.22-39,7-58.26,11.54a633.2,633.2,0,0,0-69.34,20.55,524.13,524.13,0,0,0-73.71,33.09,448.43,448.43,0,0,0-73.2,49.92A418.34,418.34,0,0,0,7.36,598.89C4.89,602.21,2.47,605.58.09,609c-.37.53.5,1,.86.51Z"/><path class="cls-15" d="M493.76,408.12a369.82,369.82,0,0,1,46.13-.6c15.42.63,30.8,1.86,46.2,2.91,8.64.59,17.29,1.13,25.94,1.48.64,0,.64-1,0-1-15.42-.63-30.81-1.84-46.2-2.9s-30.77-1.95-46.18-1.93c-8.64,0-17.28.32-25.89,1-.63.05-.64,1.06,0,1Z"/></g><g id="Layer_7" data-name="Layer 7"><path class="cls-15" d="M197.67,455.54A80.71,80.71,0,0,0,196.18,421c-1.55-5.84-4-11.33-6.1-17a56.92,56.92,0,0,1-3.93-17.59C185.94,381,187.44,374.7,184,370c-.38-.52-1.25,0-.86.5,3.05,4.16,2,9.72,2,14.52a53,53,0,0,0,3.19,17c1.95,5.68,4.52,11.12,6.25,16.88a79.28,79.28,0,0,1,2.14,36.36c-.11.63.86.9,1,.26Z"/><path class="cls-15" d="M189.72,403.31a71.65,71.65,0,0,1,11.74-23.38c.39-.51-.47-1-.86-.51a72.43,72.43,0,0,0-11.84,23.63.5.5,0,0,0,1,.26Z"/><path class="cls-15" d="M186.11,385.74c-.75-3.06-3.21-5.38-5.52-7.37-2.52-2.18-5.37-4.14-7.43-6.79a7.8,7.8,0,0,1-1.82-4.41c0-.64-1-.64-1,0,.13,3.14,2.3,5.62,4.51,7.64,2.53,2.32,5.4,4.28,7.72,6.81a10.32,10.32,0,0,1,2.58,4.39c.15.62,1.11.36,1-.27Z"/><path class="cls-15" d="M193.86,414c-1.64-6.86-9.62-8.42-15.24-10.5a19.59,19.59,0,0,1-4.76-2.42,16.06,16.06,0,0,1-3.85-4.24,25.82,25.82,0,0,1-2.73-5.07c-.66-1.76-1.08-3.59-1.56-5.4-1-3.66-3-6.92-4.6-10.31a21.52,21.52,0,0,1-2-5.56,13.61,13.61,0,0,1,.17-5.28,35.89,35.89,0,0,1,1.79-5.33,30.68,30.68,0,0,0,1.65-5.72,47.54,47.54,0,0,0,.69-5.83c.09-1.42-.11-3,.54-4.31,1.05-2.09,3.48-3.23,5.46-4.25,2.21-1.15,4.56-2.25,6.3-4.09,1.46-1.55,3.82-4.16,6.26-3.24,1.59.61,2.72,2.15,4.07,3.13,2.39,1.71,3.4,4.37,4.32,7.06s1.85,5.59,3.92,7.7a47.4,47.4,0,0,0,4,3.3,11,11,0,0,1,3.26,4.24,38.76,38.76,0,0,1,1.69,5.36c.5,1.84,1,3.68,1.4,5.54,1.66,7.31,2.67,15.06,1,22.46a31.48,31.48,0,0,1-4.34,10c-1.93,3-4.13,5.84-5.9,8.94a28.45,28.45,0,0,0-2.14,4.66c-.21.61.76.87,1,.27,2.41-7,8.13-12.17,10.91-19,2.91-7.11,2.75-15,1.51-22.47a112.43,112.43,0,0,0-2.62-11.46,31.06,31.06,0,0,0-1.77-5.24,11.7,11.7,0,0,0-3.32-4.13,38.48,38.48,0,0,1-4.18-3.45,12.67,12.67,0,0,1-2.31-3.87c-1.1-2.71-1.72-5.68-3.33-8.17a10.93,10.93,0,0,0-2.76-2.79c-.73-.55-1.38-1.2-2.07-1.79-1.45-1.23-3.09-1.95-5-1.21a11,11,0,0,0-3.53,2.54,17.9,17.9,0,0,1-3.24,2.78c-2.2,1.38-4.66,2.32-6.8,3.8a8.62,8.62,0,0,0-2.45,2.4,6.71,6.71,0,0,0-.84,3.51,39.16,39.16,0,0,1-2,12.15c-1.27,3.47-2.78,6.84-2.47,10.64s2.34,7.38,4.07,10.8a37.94,37.94,0,0,1,2.36,5.39c.6,1.85,1,3.78,1.58,5.63a25.36,25.36,0,0,0,2.47,5.11,22.39,22.39,0,0,0,3.46,4.46c5.25,5,13.51,4.32,18.63,9.45a8.42,8.42,0,0,1,2.31,4c.15.63,1.11.36,1-.26Z"/><path class="cls-15" d="M254.6,436.43a80.67,80.67,0,0,0,.79-34.51c-1.15-5.87-3.19-11.45-4.92-17.16A57.85,57.85,0,0,1,247.63,367c.12-5.5,2.11-11.81-1.08-16.81-.34-.54-1.21,0-.86.5,2.81,4.42,1.27,10,1,14.87a53.58,53.58,0,0,0,2.15,17.16c1.57,5.73,3.75,11.28,5.07,17.08a79.28,79.28,0,0,1-.27,36.38c-.15.63.81.89,1,.27Z"/><path class="cls-15" d="M250.11,383.79a71.24,71.24,0,0,1,13.18-22.46c.42-.49-.28-1.2-.71-.71a72.52,72.52,0,0,0-13.43,22.9c-.22.61.74.87,1,.27Z"/><path class="cls-15" d="M247.64,366c-.55-3.11-2.88-5.6-5-7.73-2.37-2.32-5.07-4.46-6.94-7.24a7.86,7.86,0,0,1-1.52-4.54.5.5,0,0,0-1,0c-.07,3.15,2,5.77,4,7.93,2.36,2.47,5.07,4.6,7.22,7.27a10.36,10.36,0,0,1,2.29,4.57c.11.63,1.07.37,1-.26Z"/><path class="cls-15" d="M253.52,394.76c-.55-3.18-2.86-5.6-5.48-7.31-2.89-1.87-6.22-2.83-9.32-4.26a18.38,18.38,0,0,1-4.55-2.81,17.1,17.1,0,0,1-3.44-4.49,25.17,25.17,0,0,1-2.33-5.26c-.55-1.85-.82-3.74-1.22-5.61-.81-3.79-2.69-7.23-4.07-10.83a19.06,19.06,0,0,1-1.41-5.65,14.22,14.22,0,0,1,.65-4.93,37.57,37.57,0,0,1,2.12-5.08,30.71,30.71,0,0,0,1.94-5.42,45.41,45.41,0,0,0,1.08-5.79c.18-1.42.1-3,.82-4.28,1.18-2,3.72-3,5.77-3.93,2.29-1,4.69-1.94,6.55-3.67,1.56-1.45,4.11-3.91,6.47-2.78a7.32,7.32,0,0,1,1.94,1.56c.67.68,1.33,1.34,2.06,1.95,2.3,1.9,3.05,4.9,3.8,7.65.79,2.94,1.66,5.86,3.83,8.1,1.22,1.25,2.65,2.27,3.87,3.53a11.27,11.27,0,0,1,2.7,4.87c.51,1.76.84,3.57,1.2,5.37s.68,3.64,1,5.47c1.11,7.26,1.48,14.91-.71,22a31.67,31.67,0,0,1-4.95,9.5c-2.12,2.87-4.5,5.55-6.47,8.53a27.84,27.84,0,0,0-2.4,4.47c-.25.59.72.85,1,.27,2.87-6.82,9-11.61,12.16-18.25s3.69-14.42,3-21.78a106.13,106.13,0,0,0-1.74-11.21c-.72-3.62-1.39-7.31-4.07-10-1.28-1.29-2.77-2.35-4-3.68a11.8,11.8,0,0,1-2.39-4.13c-1-2.84-1.41-5.9-2.81-8.58a10.56,10.56,0,0,0-2.64-3.16c-.7-.59-1.31-1.29-2-1.93-1.36-1.33-2.95-2.2-4.89-1.59a10.77,10.77,0,0,0-3.65,2.27,20.13,20.13,0,0,1-3.44,2.59c-2.31,1.25-4.85,2-7.11,3.38a8.41,8.41,0,0,0-2.58,2.24,6.74,6.74,0,0,0-1.06,3.56,38.87,38.87,0,0,1-2.85,11.88c-1.47,3.27-3.13,6.46-3.16,10.15,0,3.87,1.7,7.45,3.2,10.93a41.73,41.73,0,0,1,2.11,5.72c.49,1.86.71,3.78,1.19,5.65a24.58,24.58,0,0,0,2.11,5.37,22.75,22.75,0,0,0,3.2,4.79c4.86,5.31,13.1,5.25,17.93,10.61a8.4,8.4,0,0,1,2.13,4.28c.11.64,1.08.37,1-.26Z"/><path class="cls-15" d="M230.33,442.4a56,56,0,0,1-2.88-25.77,55.1,55.1,0,0,1,1.45-7.43.5.5,0,0,0-1-.26,57,57,0,0,0-.66,26.43,57.69,57.69,0,0,0,2.08,7.29c.22.6,1.19.35,1-.26Z"/><path class="cls-15" d="M226.73,421.79a26.32,26.32,0,0,1,6-5.67c.53-.36,0-1.23-.51-.87a27.12,27.12,0,0,0-6.21,5.84.5.5,0,0,0,0,.7.5.5,0,0,0,.71,0Z"/><path class="cls-15" d="M226.64,421.89a5.87,5.87,0,0,1-3.27-6.33c.13-.63-.83-.9-1-.27a6.85,6.85,0,0,0,3.72,7.46c.59.27,1.09-.6.51-.86Z"/><path class="cls-15" d="M226.75,428.71a14,14,0,0,0-3.08-2.34,21,21,0,0,0-3.56-1.42,2.89,2.89,0,0,1-1.55-1.05,4.25,4.25,0,0,1-.56-1.84c-.16-1.34-.18-2.71-.23-4.05-.19-5.33.2-11.13,3.91-15.31a10.47,10.47,0,0,1,5.66-3.45c1.18-.25,2.73-.35,3.71.5a4.28,4.28,0,0,1,1.1,2.85,12.19,12.19,0,0,0,.63,3.11,6.55,6.55,0,0,0,1.85,2.36,8.74,8.74,0,0,1,2.19,2.35c.66,1.31.19,2.81-.39,4.06-.71,1.52-1.58,3-2.38,4.46a37.77,37.77,0,0,1-2.39,4.26c-1.42,2-4.4,2.41-5.4,4.76-.25.58.61,1.09.86.5a5.28,5.28,0,0,1,2.49-2.29,9.17,9.17,0,0,0,2.67-2.13,29,29,0,0,0,2.4-4.16c.77-1.43,1.58-2.85,2.32-4.29a7.77,7.77,0,0,0,1.12-4.22,4.84,4.84,0,0,0-1.58-2.92,15.26,15.26,0,0,1-2.54-2.54,8,8,0,0,1-.85-3.31,6.28,6.28,0,0,0-.94-3.05,4,4,0,0,0-3.16-1.46,10.24,10.24,0,0,0-6.64,2.51c-4.43,3.67-5.65,9.49-5.68,15,0,1.77.08,3.54.18,5.3a6.34,6.34,0,0,0,1.08,3.9c1,1.13,2.62,1.27,3.92,1.83a13,13,0,0,1,4.13,2.79c.46.46,1.17-.25.71-.7Z"/></g><g id="Layer_6" data-name="Layer 6"><path class="cls-15" d="M428.07,410.44q.39,12.72-.33,25.44c0,.64,1,.64,1,0q.72-12.7.33-25.44c0-.64-1-.64-1,0Z"/><path class="cls-15" d="M428.29,436.43a182.07,182.07,0,0,0,41.1,2.81q5.83-.27,11.65-.91c.63-.07.64-1.07,0-1a181.39,181.39,0,0,1-40.94-.13q-5.81-.68-11.55-1.73c-.63-.12-.9.85-.26,1Z"/><path class="cls-15" d="M479.39,410.44q1,13.67,1.42,27.37c0,.64,1,.64,1,0q-.39-13.71-1.42-27.37c-.05-.64-1.05-.64-1,0Z"/><path class="cls-15" d="M429.09,410.31l18.59-18.94L450,389c.15-.15.36-.47.57-.54s.52.14.72.29l1.4,1,5.38,4,10.63,7.83a87.2,87.2,0,0,1,10.83,9c.45.46,1.16-.25.71-.71a82.65,82.65,0,0,0-9.83-8.26c-3.67-2.72-7.36-5.42-11-8.14l-5.59-4.12-1.3-.95a5.52,5.52,0,0,0-1.37-.93c-.89-.31-1.54.53-2.09,1.09l-9.73,9.91L428.38,409.6c-.45.46.26,1.17.71.71Z"/><path class="cls-15" d="M480.14,410.56a4.34,4.34,0,0,0,3.82-1c1.29-.91,2.53-1.91,3.77-2.88q3.91-3.07,7.71-6.3c.49-.42-.22-1.12-.71-.71q-3.42,2.93-7,5.71c-1.19.94-2.39,1.86-3.6,2.78-1.05.8-2.37,1.91-3.78,1.45-.61-.21-.87.76-.26,1Z"/><path class="cls-15" d="M451.47,388q4.41-3.4,9-6.6l2.18-1.52c.61-.42,1.55-1.35,2.33-1.29a6.89,6.89,0,0,1,2.27,1c.75.4,1.49.81,2.24,1.23a125.63,125.63,0,0,1,16.84,11.25q4.48,3.54,8.63,7.48c.47.45,1.18-.26.71-.7a128.84,128.84,0,0,0-16.33-13.14q-4.41-3-9.06-5.6c-.71-.39-1.42-.79-2.14-1.17a18.64,18.64,0,0,0-2.44-1.24c-1.56-.57-3,.85-4.15,1.68q-5.37,3.71-10.54,7.71c-.5.38,0,1.25.5.86Z"/><path class="cls-15" d="M492.68,402q.94,11.84,1.22,23.71c0,.64,1,.64,1,0q-.27-11.87-1.22-23.71c-.05-.63-1.05-.64-1,0Z"/><path class="cls-15" d="M494,425.62c-3.66,4.62-7.49,9.4-12.87,12.08-.57.28-.07,1.15.51.86,5.45-2.72,9.36-7.55,13.07-12.23.39-.5-.31-1.21-.71-.71Z"/><path class="cls-15" d="M440.85,420.08q.06,8.67-.25,17.34c0,.64,1,.64,1,0q.31-8.67.25-17.34a.5.5,0,0,0-1,0Z"/><path class="cls-15" d="M441.15,420.87l22.35.8c.64,0,.64-1,0-1l-22.35-.8c-.64,0-.64,1,0,1Z"/><path class="cls-15" d="M464,421q.1,8.86-.05,17.73a.5.5,0,0,0,1,0q.15-8.86.05-17.73a.5.5,0,0,0-1,0Z"/><path class="cls-15" d="M451.8,421q.54,8.37.4,16.76a.5.5,0,0,0,1,0q.14-8.39-.4-16.76c0-.64-1-.64-1,0Z"/><path class="cls-15" d="M428.32,376.72q.39,13,.06,26.08-.11,3.72-.25,7.44c0,.65,1,.64,1,0q.54-13,.35-26.07c0-2.48-.09-5-.16-7.45,0-.64-1-.64-1,0Z"/><path class="cls-15" d="M429.31,376.43l18.75-17.26c.48-.44-.23-1.14-.7-.71L428.6,375.73c-.48.43.23,1.14.71.7Z"/><path class="cls-15" d="M447.78,359.06c1.66,10,.9,20.15.14,30.19-.05.64.95.64,1,0,.77-10.13,1.5-20.37-.17-30.46-.11-.63-1.07-.36-1,.27Z"/><path class="cls-15" d="M388.14,437.58a165.31,165.31,0,0,0,31.38.2c2.9-.26,5.79-.6,8.67-1,.63-.09.36-1.06-.27-1a164.5,164.5,0,0,1-31,1.43q-4.41-.21-8.81-.66c-.64-.06-.63.94,0,1Z"/><path class="cls-15" d="M388.74,378.53c.53,15.05.88,30.12,0,45.16q-.37,6.31-1.08,12.6c-.07.64.93.64,1,0,1.69-15,1.82-30.06,1.48-45.1q-.15-6.33-.38-12.66c0-.64-1-.64-1,0Z"/><path class="cls-15" d="M389.67,378.78a131.92,131.92,0,0,1,13.7-15.51c1.25-1.18,2.52-2.34,3.86-3.43a1.91,1.91,0,0,1,2.23-.47,10.62,10.62,0,0,1,2.11,1.61c2.7,2.33,5.39,4.68,8,7.08,3,2.71,5.88,5.48,8.67,8.37.45.47,1.16-.24.71-.7-5.27-5.46-11-10.51-16.7-15.45-1.1-.95-2.43-2.35-4-2.1a4.25,4.25,0,0,0-1.9,1.1c-.69.58-1.37,1.16-2,1.76a97.84,97.84,0,0,0-7.72,7.79c-2.72,3-5.29,6.22-7.78,9.45-.39.51.47,1,.86.5Z"/><path class="cls-15" d="M427,345.62a38.93,38.93,0,0,1,11.72,4.79,37.49,37.49,0,0,1,5.14,3.8,32,32,0,0,0,4.91,4,.5.5,0,0,0,.5-.87c-2-1.12-3.47-2.81-5.18-4.26a38.58,38.58,0,0,0-5.05-3.65,39.46,39.46,0,0,0-11.77-4.78c-.63-.15-.9.82-.27,1Z"/><path class="cls-15" d="M448.31,359.08l1.43-.65a.5.5,0,0,0,.23-.3.5.5,0,0,0-.35-.61.51.51,0,0,0-.38.05l-1.43.64a.5.5,0,0,0-.23.3.49.49,0,0,0,.05.39.48.48,0,0,0,.29.23.59.59,0,0,0,.39-.05Z"/><path class="cls-15" d="M349.09,437.11a109.17,109.17,0,0,0,31,1.45c2.88-.28,5.76-.68,8.61-1.19.63-.11.37-1.07-.26-1a108.61,108.61,0,0,1-30.39,1q-4.37-.48-8.69-1.3c-.63-.12-.9.84-.26,1Z"/><path class="cls-15" d="M347.74,406q.21,15.42,1.18,30.82c0,.64,1,.65,1,0q-1-15.39-1.18-30.82a.5.5,0,0,0-1,0Z"/><path class="cls-15" d="M348.71,406a131.62,131.62,0,0,0,16.34-10.71c1.26-1,2.48-2,3.71-2.95a2.06,2.06,0,0,1,1-.56c.4,0,.72.39,1,.63l1.92,1.66c2.52,2.16,5.07,4.29,7.61,6.43,2.88,2.42,5.76,4.84,8.59,7.32.48.42,1.19-.29.7-.71-5.27-4.61-10.7-9-16-13.6L371.83,392c-.54-.46-1.11-1.15-1.86-1.21a2.54,2.54,0,0,0-1.67.64c-.69.54-1.35,1.11-2,1.66q-4,3.18-8.24,6c-3.18,2.15-6.46,4.15-9.81,6a.5.5,0,0,0,.5.86Z"/><path class="cls-15" d="M370.15,391.32c3-2.47,6-5,9.1-7.44,1.52-1.22,3.06-2.42,4.63-3.58.42-.31.73-.63,1.28-.37a13.18,13.18,0,0,1,1.17.63,22.15,22.15,0,0,1,2.49,1.68c.5.39,1.21-.31.7-.7a22.56,22.56,0,0,0-2.49-1.73c-.69-.41-1.7-1.18-2.56-1a2.63,2.63,0,0,0-1,.57c-.42.31-.83.61-1.24.93-.86.65-1.71,1.31-2.56,2-3.45,2.72-6.81,5.56-10.23,8.33-.5.41.21,1.11.71.71Z"/><path class="cls-15" d="M399,404.67q-.83,12.7-1.11,25.44-.09,3.67-.12,7.33a.5.5,0,0,0,1,0q.12-12.74.8-25.45.19-3.66.43-7.32c0-.64-1-.64-1,0Z"/><path class="cls-15" d="M399.47,404.74l14.48-.32c.64,0,.64-1,0-1l-14.48.32a.5.5,0,0,0,0,1Z"/><path class="cls-15" d="M413.45,403.92c-.2,8.8-.4,17.6-.21,26.4.06,2.53.15,5.05.27,7.58,0,.64,1,.64,1,0-.44-8.8-.39-17.6-.23-26.4q.08-3.79.17-7.58a.5.5,0,0,0-1,0Z"/><path class="cls-15" d="M358.48,419.11a101,101,0,0,0,1.38,19.26c.11.63,1.07.36,1-.27a99.8,99.8,0,0,1-1.35-19,.5.5,0,0,0-1,0Z"/><path class="cls-15" d="M359.38,419.35a111.7,111.7,0,0,1,19.78-.3c.65.05.64-.95,0-1a111.7,111.7,0,0,0-19.78.3c-.63.06-.64,1.06,0,1Z"/><path class="cls-15" d="M378.58,418.77a176.48,176.48,0,0,1-2.65,19.14c-.12.63.84.9,1,.26a178.47,178.47,0,0,0,2.69-19.4c.06-.64-.94-.64-1,0Z"/><path class="cls-15" d="M368.22,418.55c-.62,3.19-.45,6.44-.6,9.66s-.53,6.71-.92,10.05c-.07.64.93.64,1,0,.38-3.26.75-6.52.91-9.8s-.05-6.47.58-9.64c.12-.63-.84-.9-1-.27Z"/><path class="cls-15" d="M408.86,421.57a1.92,1.92,0,0,0,2.47.75,2,2,0,0,0,1-1.36,2.07,2.07,0,0,0-.15-1.34c-.57-1.18-2.3-1.06-3.1-.2a1.72,1.72,0,0,0-.45.89,2.06,2.06,0,0,0,.23,1.26.51.51,0,0,0,.69.18.54.54,0,0,0,.18-.69.31.31,0,0,1-.05-.1c0-.07,0,.11,0,0l-.06-.2,0-.08c0-.11,0,.11,0,0s0-.12,0-.18a.22.22,0,0,0,0-.08c0,.17,0,.09,0,0s0-.11,0-.16,0,.08,0,0l0-.06a.6.6,0,0,1,.09-.15c.05-.08-.05.06,0,0l0-.06.11-.12.06,0s-.11.08,0,0l.13-.09.14-.07c.09,0-.11,0,0,0l.09,0a1.67,1.67,0,0,1,.3-.08c.06,0-.15,0,0,0h.31c.1,0-.14,0,0,0l.15,0,.07,0h0l-.07,0,.14.07.06,0c.06,0-.11-.09,0,0l.11.11c.06.07,0,0,0,0l0,.07,0,.06,0,0c0-.09,0,0,0,0l0,.09a.29.29,0,0,1,0,.09v0c0,.08,0,0,0-.05a2.26,2.26,0,0,1,0,.26s0,.11,0,.05,0,0,0,0a1.05,1.05,0,0,1-.05.19l0,.07c0,.07,0-.06,0,0a.91.91,0,0,0-.07.14l-.09.14s.06-.07,0,0a.27.27,0,0,1-.07.08l0,0-.05,0,0,0-.11.07-.05,0c-.08.05.07,0,0,0l-.14,0h-.09c.07,0,0,0,0,0h-.29s.11,0,0,0l-.26-.08s.09.05,0,0l-.07,0-.12-.08c-.07,0,0,0,0,0a.15.15,0,0,0-.06-.05l-.1-.1,0,0s.05.09,0,0l-.06-.11a.5.5,0,1,0-.87.51Z"/><path class="cls-15" d="M408.8,359.12c2.73-2.79,6-4.74,9.32-6.79a108.82,108.82,0,0,0,9.48-6.43c.5-.4-.21-1.1-.71-.71a112.16,112.16,0,0,1-9.67,6.53,47.31,47.31,0,0,0-9.13,6.69.5.5,0,0,0,.71.71Z"/><path class="cls-15" d="M609.57,442.07a103.07,103.07,0,0,0,24.38-.7q3.45-.51,6.86-1.25c.63-.14.36-1.1-.26-1a102.45,102.45,0,0,1-24.13,2.31q-3.43-.07-6.85-.39c-.64-.06-.63.95,0,1Z"/><path class="cls-15" d="M609.69,441.35l-.11-19.89a18.41,18.41,0,0,1,.27-4.63,9.36,9.36,0,0,1,2.32-3.72,71.11,71.11,0,0,1,6-6.07,72.31,72.31,0,0,1,6.79-5.42c1.17-.83,2.37-1.61,3.6-2.37.58-.35,1.16-.7,1.75-1a5.23,5.23,0,0,1,2.17-.93,3,3,0,0,1,1.91.86c.63.54,1.24,1.11,1.86,1.66l3.7,3.3,7.31,6.52,4.16,3.71A9.6,9.6,0,0,1,653,415a4,4,0,0,1,.64,2.37c0,1.76-.31,3.55-.49,5.3l-.56,5.7c-.06.64.94.64,1,0,.34-3.47.79-7,1-10.44a5.31,5.31,0,0,0-1.13-3.94,31.21,31.21,0,0,0-3.52-3.28l-7.86-7-3.89-3.46c-1.2-1.07-2.36-2.26-3.66-3.21a3.38,3.38,0,0,0-3.75-.27,42.19,42.19,0,0,0-3.88,2.31,72.42,72.42,0,0,0-13.8,11.48,42.32,42.32,0,0,0-2.92,3.36,7.9,7.9,0,0,0-1.55,4.09,51.44,51.44,0,0,0-.06,5.69l0,5.72.07,11.93a.5.5,0,0,0,1,0Z"/><path class="cls-15" d="M632.57,397l12.59-8,3.15-2a11.67,11.67,0,0,1,3-1.58c2.37-.68,4.22,1.46,5.9,2.81l11.54,9.3,2.91,2.34c.62.5,2.15,1.36,1.81,2.34s-1.63,1.42-2.41,1.86l-3.23,1.82q-7.29,4.1-14.63,8.1c-.56.31-.06,1.17.51.86q7-3.82,14-7.73l3.57-2a9.86,9.86,0,0,0,2.68-1.78,2,2,0,0,0,.36-2.32,8.57,8.57,0,0,0-2.41-2.23L659.3,388.6l-3.1-2.51a8.76,8.76,0,0,0-2.6-1.65c-2.26-.76-4.41.8-6.22,1.94l-15.32,9.75c-.54.34,0,1.21.51.86Z"/><path class="cls-15" d="M670.54,405v8.5a.5.5,0,0,0,1,0V405a.5.5,0,0,0-1,0Z"/><path class="cls-15" d="M620.14,422.88q-.5,9.4-.4,18.83a.5.5,0,0,0,1,0q-.09-9.42.4-18.83c0-.65-1-.65-1,0Z"/><path class="cls-15" d="M620.9,423.25a36.7,36.7,0,0,1,8.31-.41,81.83,81.83,0,0,0,8.58-.34c.63-.05.64-1.05,0-1a83.6,83.6,0,0,1-8.81.34,35.8,35.8,0,0,0-8.34.45c-.63.13-.37,1.1.26,1Z"/><path class="cls-15" d="M637.39,422.26c.84,5.84-.25,11.72-.2,17.57a.5.5,0,0,0,1,0c-.05-5.95,1-11.9.16-17.83-.09-.64-1.06-.37-1,.26Z"/><path class="cls-15" d="M608,418.24a6,6,0,0,1-3.87.75l.3.73c3.29-4.6,8.48-7.3,12.25-11.44.43-.48-.27-1.19-.71-.71-3.83,4.21-9.06,7-12.41,11.65a.5.5,0,0,0,.3.73,7.15,7.15,0,0,0,4.64-.84.5.5,0,0,0-.5-.87Z"/><path class="cls-15" d="M24.68,627.81c19.12-28.48,45-52,73.2-71.29a387,387,0,0,1,98.68-48.06c34.11-11,70-17.7,105.88-17.62a234.64,234.64,0,0,1,50.68,5.29c11.72,2.64,23,6.84,34.36,10.66A309.82,309.82,0,0,0,420.66,516c43.61,9.48,89.91,9.59,132.7-4q8.05-2.55,15.88-5.74c.59-.24.33-1.21-.26-1-43.16,17.49-91,20-136.61,11.95a307.78,307.78,0,0,1-33.52-7.9c-11.52-3.4-22.71-7.76-34.21-11.21-17.09-5.12-35-7.46-52.76-8.12-35.61-1.33-71.38,4.3-105.48,14.35a391.46,391.46,0,0,0-99.78,45.18c-28.7,18.31-55.32,40.76-75.9,68q-3.59,4.75-6.9,9.71c-.36.53.51,1,.86.5Z"/><path class="cls-15" d="M56.43,649.49c26.12-31.41,55.85-60.22,90.15-82.62,26.67-17.41,56.13-30.82,87.36-37.51a206.36,206.36,0,0,1,79.85-1.57c16.62,3,32.38,8.71,48.31,14.17a268.85,268.85,0,0,0,65.06,13.51c22.43,1.89,45,1.71,67.46,1.55,20.23-.15,41-.57,60.35-7.09A92.3,92.3,0,0,0,568,544.36c.57-.3.06-1.16-.51-.86-19,9.89-40.65,11.88-61.74,12.37-22.13.51-44.39.61-66.5-.57-22.74-1.22-45.4-4.28-67.19-11.1-17.61-5.51-34.69-12.56-52.8-16.35a205.55,205.55,0,0,0-77.23-1.08c-30.51,5.3-59.6,17.13-86.08,33C122.27,580,92.67,606.66,66.66,636q-5.58,6.3-10.94,12.76c-.41.49.29,1.2.71.71Z"/></g></g></svg>