<svg xmlns="http://www.w3.org/2000/svg" viewBox="0 0 1420.95 966.73"><defs><style>.cls-1{fill:#333;}.cls-2{fill:none;stroke:#333;stroke-miterlimit:10;}</style></defs><title>이젤_1</title><g id="Layer_2" data-name="Layer 2"><g id="Layer_2-2" data-name="Layer 2"><path class="cls-1" d="M726.1,86.53c.35-2,.53-4.54-1.32-5.9a6.64,6.64,0,0,0-3.39-1c-1.92-.17-3.86-.24-5.79-.26-7.73-.08-15.48.23-23.21.47l-47.47,1.53c-3.83.12-7.67.12-11.5.26a51.12,51.12,0,0,0-5.53.47,5.47,5.47,0,0,0-3.47,1.53c-1.59,1.77-1.58,4.63-1.43,6.87a3,3,0,0,0,2.2,3,9.41,9.41,0,0,0,2.25.16h3c15.83,0,31.66-.06,47.48-.47,7.87-.21,15.73-.5,23.59-.93q6-.32,11.9-.76,3-.21,5.94-.46c1.58-.13,3.45-.07,4.8-1a5.31,5.31,0,0,0,2-3.53c.12-.63-.84-.9-1-.27-.3,1.58-1,3-2.66,3.44a13.83,13.83,0,0,1-2.4.31l-3,.24q-5.57.45-11.15.78c-7.52.46-15.05.79-22.58,1-15,.48-30,.58-45,.61-3.81,0-7.62,0-11.43,0a4.36,4.36,0,0,1-2-.31A2.08,2.08,0,0,1,624,90.5a16.45,16.45,0,0,1,.14-3.84,4.26,4.26,0,0,1,1.52-2.8c1.17-.83,2.85-.87,4.23-1,3.61-.36,7.25-.28,10.88-.36,15-.35,30-1,45-1.44,7.45-.24,14.91-.57,22.37-.64,3.63,0,7.26-.13,10.88,0,2.12.1,5.54-.1,6.21,2.52a8,8,0,0,1-.06,3.27C725,86.89,726,87.16,726.1,86.53Z" transform="translate(0 0)"/><path class="cls-1" d="M643.76,47.55,636.88,74.4,634.94,82a.5.5,0,0,0,1,.26l6.88-26.85,1.94-7.58a.5.5,0,0,0-1-.27Z" transform="translate(0 0)"/><path class="cls-1" d="M644.52,48.23l11-.3L655,47.3c-1.62,8.78-3.34,17.53-5.39,26.22q-1,4-2,8.09a.5.5,0,0,0,1,.26c2.28-8.9,4.25-17.88,6-26.91q.72-3.69,1.39-7.4a.5.5,0,0,0-.48-.63l-11,.3c-.64,0-.65,1,0,1Z" transform="translate(0 0)"/><path class="cls-1" d="M701,47.64c3.83-.29,7.68-.42,11.53-.36a.5.5,0,0,0,0-1c-3.85-.06-7.7.07-11.53.36-.64,0-.65,1,0,1Z" transform="translate(0 0)"/><path class="cls-1" d="M700.38,47.22c.91,8.49,1.66,17,3,25.46.36,2.38.79,4.76,1.29,7.11.13.63,1.09.37,1-.26-1.75-8.25-2.53-16.67-3.43-25.05l-.78-7.26c-.07-.63-1.07-.64-1,0Z" transform="translate(0 0)"/><path class="cls-1" d="M712.07,47.16q1.83,12.8,4.78,25.38c.55,2.38,1.14,4.74,1.75,7.1a.5.5,0,0,0,1-.26q-3.26-12.51-5.41-25.26c-.4-2.4-.78-4.81-1.12-7.23-.09-.63-1.06-.36-1,.27Z" transform="translate(0 0)"/><path class="cls-1" d="M673.94,1.08C677.83,1,681.71,1,685.6,1a.5.5,0,0,0,0-1c-3.89,0-7.77,0-11.66.05-.64,0-.64,1,0,1Z" transform="translate(0 0)"/><path class="cls-1" d="M673.33.68c-1.13,10.35-1.71,20.75-2.17,31.15-.23,5.19-.43,10.39-.66,15.59s-.59,10.39-.71,15.59c-.13,5.85-.07,11.72-.62,17.56-.06.64.94.64,1,0,.49-5.18.5-10.39.58-15.59s.42-10.39.66-15.58c.48-10.39.81-20.79,1.46-31.18.36-5.85.82-11.7,1.46-17.54.07-.64-.93-.63-1,0Z" transform="translate(0 0)"/><path class="cls-1" d="M673.33.68c-1.62,14.78-2.09,29.64-2.73,44.48q-.27,6.33-.62,12.66c0,.64,1,.64,1,0,.85-14.85,1.14-29.73,2.22-44.57Q673.65,7,674.33.68c.07-.64-.93-.63-1,0Z" transform="translate(0 0)"/><path class="cls-1" d="M685.27.68c.43,10.36.4,20.72.44,31.09s.38,20.64.68,31c.16,5.78.27,11.56.19,17.34,0,.55.89.71,1,.14l.13-.88c.1-.63-.86-.9-1-.26l-.13.87,1,.13c.14-10.28-.32-20.55-.62-30.83s-.23-20.72-.31-31.08c0-5.83-.14-11.66-.38-17.48,0-.64-1-.64-1,0Z" transform="translate(0 0)"/><path class="cls-1" d="M685.64,1.18a.5.5,0,0,0,0-1,.5.5,0,0,0,0,1Z" transform="translate(0 0)"/><path class="cls-1" d="M685.64,1.18a.5.5,0,0,0,0-1,.5.5,0,0,0,0,1Z" transform="translate(0 0)"/><path class="cls-1" d="M575.68,91.76l36.44-1.07,10.32-.3a.5.5,0,0,0,0-1L586,90.45l-10.32.31a.5.5,0,0,0,0,1Z" transform="translate(0 0)"/><path class="cls-1" d="M725.52,87.36c11.46-.23,22.93-.4,34.39-.61l9.15-.17a.5.5,0,0,0,0-1c-11.46.23-22.93.4-34.39.61l-9.15.17a.5.5,0,0,0,0,1Z" transform="translate(0 0)"/><path class="cls-1" d="M575.19,91.12c-6.83,39.53-12.66,79.22-18.43,118.92C551,249.51,545,288.91,538.3,328.23c-3.72,22-7.52,44-11.24,65.95-.11.63.86.9,1,.27,6.67-39.36,13.59-78.69,19.84-118.12s11.62-78.95,17.59-118.41c3.37-22.21,6.88-44.4,10.71-66.53.11-.63-.86-.9-1-.27Z" transform="translate(0 0)"/><path class="cls-1" d="M766.52,397.22a7.84,7.84,0,0,0,0-5,5.54,5.54,0,0,0-3.67-2.94c-2.77-.88-5.86-.81-8.73-.91-3.62-.14-7.24-.17-10.86-.16-14.42,0-28.84.35-43.25.66l-43.79.94-44,.95c-7.11.15-14.21.17-21.31.31-3.46.07-6.92.21-10.38.51-2.53.22-5.32.37-7.45,1.91a6.62,6.62,0,0,0-2.57,4.2,12.19,12.19,0,0,0,.06,5.79c.88,2.57,4.13,2.7,6.4,2.72,3.59,0,7.17,0,10.76,0q21.87,0,43.73-.12t43.91-.48q21.83-.39,43.66-1.14,11-.4,21.91-.92c3.61-.17,7.23-.36,10.84-.55l5.55-.31a19.51,19.51,0,0,0,4.44-.65,6.84,6.84,0,0,0,4.71-4.85.5.5,0,0,0-1-.27,5.86,5.86,0,0,1-2.09,3.23,9.13,9.13,0,0,1-4.55,1.42c-3.38.34-6.8.42-10.18.59q-10.47.56-20.93,1-20.94.85-41.91,1.27t-42,.6q-21,.18-42,.19-10.59,0-21.19,0c-1.61,0-3.24.05-4.85,0-1.35-.06-3.21-.2-4.06-1.42a6,6,0,0,1-.55-3.42,13.08,13.08,0,0,1,.26-2.65c1.23-5.38,7.95-5.09,12.31-5.34,6.69-.4,13.41-.31,20.11-.41,14-.22,28-.6,41.94-.9l42.05-.9c13.93-.3,27.86-.69,41.79-.83,6.86-.07,13.72-.18,20.58,0a89.53,89.53,0,0,1,10,.49c1.79.24,4,.72,5.08,2.37.88,1.43.56,3.26.16,4.78A.5.5,0,0,0,766.52,397.22Z" transform="translate(0 0)"/><path class="cls-1" d="M527.75,394.88q17.38.87,34.81.63,5-.08,10-.23c.64,0,.65-1,0-1q-17.4.56-34.82,0c-3.31-.11-6.63-.25-9.94-.41-.64,0-.64,1,0,1Z" transform="translate(0 0)"/><path class="cls-1" d="M767.08,394.64l33.07-1.5,9.37-.42c.64,0,.64-1,0-1l-33.08,1.49-9.36.43c-.64,0-.65,1,0,1Z" transform="translate(0 0)"/><path class="cls-1" d="M768.58,86.21c3.11,20.48,5.76,41,8.13,61.6,2.24,19.38,4.22,38.8,6.21,58.21,2,19.07,3.93,38.15,6.17,57.19,2.31,19.53,5.16,39,7.81,58.45,1.41,10.38,2.79,20.76,4.45,31.1s3.73,20.59,5.7,30.86l1.46,7.64c.12.63,1.08.36,1-.27-2-10.27-4-20.53-5.86-30.83s-3.29-20.68-4.7-31.05c-2.72-20-5.68-39.89-8.1-59.89-2.3-19-4.3-38.11-6.27-57.19-2-19.35-3.94-38.7-6.12-58-2.27-20.13-4.78-40.23-7.72-60.27q-.57-3.9-1.16-7.79c-.1-.64-1.06-.37-1,.26Z" transform="translate(0 0)"/><path class="cls-1" d="M573.93,405.72a89.11,89.11,0,0,1-1.21,17.18c-.82,5.57-1.71,11.13-2.58,16.7l-5.26,33.87-10.46,67.4-5.89,38c-.1.63.86.9,1,.26L560.06,511l10.52-67.74c1-6.26,2-12.52,2.91-18.78a95.51,95.51,0,0,0,1.44-18.79c0-.64-1-.64-1,0Z" transform="translate(0 0)"/><path class="cls-1" d="M549.46,579.58a21.69,21.69,0,0,0,19.1,1.12c.59-.25.09-1.11-.5-.86a20.66,20.66,0,0,1-18.1-1.12.5.5,0,0,0-.5.86Z" transform="translate(0 0)"/><path class="cls-1" d="M599.06,406.11q-3.57,16.9-6.91,33.83t-6.47,33.92q-3.12,17-6,34t-5.58,34.07c-.89,5.64-1.69,11.29-2.64,16.91s-2.08,11.15-3,16.74c-.23,1.39-.44,2.78-.64,4.18-.09.63.88.9,1,.26.78-5.56,1.87-11.07,2.88-16.6s1.85-11.31,2.73-17q2.65-17.06,5.53-34.08t6-34q3.09-17,6.41-33.93t6.86-33.84c.29-1.4.59-2.8.88-4.2.14-.63-.83-.9-1-.27Z" transform="translate(0 0)"/><path class="cls-1" d="M757.27,402.19c-.5,10.66,1.72,21.37,3.35,31.86L766,468.67l5.37,34.62,5.38,34.62,5.37,34.62.67,4.3c.1.64,1.06.37,1-.26l-5.34-34.45-5.35-34.44-5.37-34.62-5.35-34.45c-.87-5.59-1.77-11.18-2.6-16.77A124.4,124.4,0,0,1,758.21,406c0-1.26,0-2.52.06-3.77,0-.64-1-.64-1,0Z" transform="translate(0 0)"/><path class="cls-1" d="M782.31,576.43a20.66,20.66,0,0,1-18.1,1.13c-.58-.25-1.09.61-.5.86a21.69,21.69,0,0,0,19.1-1.12.5.5,0,0,0-.5-.87Z" transform="translate(0 0)"/><path class="cls-1" d="M732.25,404.1q3.56,16.89,6.91,33.83t6.47,33.91q3.12,17,6,34t5.59,34.07c.88,5.64,1.68,11.29,2.63,16.92s2.09,11.14,3,16.74c.22,1.39.44,2.78.63,4.17.09.63,1.06.36,1-.27-.79-5.56-1.87-11.07-2.88-16.6s-1.85-11.31-2.73-17q-2.65-17.05-5.53-34.08t-6-34q-3.11-17-6.42-33.93T734.09,408c-.29-1.4-.58-2.8-.88-4.2-.13-.63-1.1-.36-1,.27Z" transform="translate(0 0)"/><path class="cls-1" d="M529.21,473.74q13.9-.66,27.82-.85c2.62,0,5.24-.06,7.87-.07a.5.5,0,0,0,0-1q-13.92.06-27.84.58c-2.62.1-5.23.21-7.85.34-.64,0-.65,1,0,1Z" transform="translate(0 0)"/><path class="cls-1" d="M527.69,473.58l-2.05,10.78-.48,2.55a7.92,7.92,0,0,0-.26,2.27c.16,1.39,1.3,1.86,2.56,1.9,7.28.23,14.59.19,21.88.28l12.48.17a.5.5,0,0,0,0-1l-20.71-.27-10.48-.14-2.5,0c-.59,0-1.5.11-2-.36s-.28-1.27-.18-1.83c.16-.89.33-1.78.5-2.67l2.16-11.39c.12-.63-.84-.9-1-.26Z" transform="translate(0 0)"/><path class="cls-1" d="M587.34,473.76l40.06-.48q15.57-.19,31.14-.4,13.28-.19,26.55-.44t26.26-.56q15.14-.37,30.28-.8l4.25-.13a.5.5,0,0,0,0-1q-15.54.45-31.08.84-13.26.33-26.52.59t-26.28.45q-15.16.23-30.34.4l-38.71.46-5.61.07a.5.5,0,0,0,0,1Z" transform="translate(0 0)"/><path class="cls-1" d="M583.36,491.4l64.49-1q32.1-.48,64.22-.83,18.1-.19,36.22-.29a.5.5,0,0,0,0-1q-32.26.18-64.55.62-32.1.4-64.21.92l-36.17.55a.5.5,0,0,0,0,1Z" transform="translate(0 0)"/><path class="cls-1" d="M766.76,470.43l21.38-1.35,10.68-.67,2.74-.17a3.38,3.38,0,0,1,1.94.25c.67.43.56,1.35.58,2.05l.08,2.73.35,12.15a.5.5,0,0,0,1,0L805.18,474l-.08-2.73a10.34,10.34,0,0,0-.15-2.36c-.38-1.4-1.76-1.73-3-1.7-3.68.11-7.37.46-11,.69l-11.43.72-12.68.8c-.63,0-.64,1,0,1Z" transform="translate(0 0)"/><path class="cls-1" d="M770.16,488.2q13.29-.69,26.57-1.42l7.58-.46c.63,0,.64-1,0-1-8.89.56-17.77,1-26.66,1.49l-7.49.39c-.64,0-.64,1,0,1Z" transform="translate(0 0)"/><path class="cls-1" d="M648.54,405.73l1.29,25.94,1.3,26.29.72,14.5c0,.64,1,.65,1,0l-1.29-25.93-1.3-26.3-.72-14.5c0-.64-1-.64-1,0Z" transform="translate(0 0)"/><path class="cls-1" d="M676.72,406.16q-1.8,12.63-3.33,25.31t-2.76,25.36q-.71,7.21-1.32,14.43c-.06.65.94.64,1,0q1.07-12.64,2.43-25.27t3-25.21q.93-7.18,2-14.35c.09-.63-.88-.91-1-.27Z" transform="translate(0 0)"/><path class="cls-1" d="M652.69,490.56c.85,10.23.7,20.5,1.42,30.74q.39,5.49,1,11c.07.64,1.07.64,1,0q-1.05-9.11-1.43-18.27c-.2-4.94-.28-9.87-.48-14.81-.12-2.87-.29-5.74-.53-8.61-.05-.63-1.05-.64-1,0Z" transform="translate(0 0)"/><path class="cls-1" d="M668.16,490.35l-2.91,32.86-.8,9c-.05.64.95.64,1,0l2.91-32.86.8-9c.06-.64-.94-.64-1,0Z" transform="translate(0 0)"/><path class="cls-1" d="M655.16,532.44c0,1,1.05,1.44,1.87,1.76a8.59,8.59,0,0,0,2.84.56,8.68,8.68,0,0,0,5.45-1.72c.51-.38,0-1.25-.5-.86a7.82,7.82,0,0,1-4.38,1.58,7.9,7.9,0,0,1-2.27-.24,6.81,6.81,0,0,1-1.15-.4c-.27-.12-.84-.33-.86-.68,0-.64-1-.65-1,0Z" transform="translate(0 0)"/><line class="cls-2" x1="526.08" y1="484.74" x2="0.34" y2="966.36"/><line class="cls-2" x1="569.87" y1="444.63" x2="539.09" y2="472.83"/><line class="cls-2" x1="740.6" y1="442.68" x2="672.51" y2="443.57"/><line class="cls-2" x1="1420.95" y1="433.78" x2="762.41" y2="442.39"/><line class="cls-2" x1="650.94" y1="443.86" x2="591.74" y2="444.63"/></g></g></svg>