<svg width="182" height="182" viewBox="0 0 182 182" fill="none" xmlns="http://www.w3.org/2000/svg">
<path d="M68.7779 104.916L64.1984 122.382C64.1984 122.843 63.9144 122.95 63.3109 122.95H54.7909C54.1874 122.95 54.0809 122.772 54.1874 122.062L70.6949 64.3039C71.0912 62.725 71.2939 61.1038 71.2984 59.4759C71.2984 59.0854 71.2984 58.9079 71.7599 58.9079H83.9009C84.3269 58.9079 84.5044 58.9079 84.6109 59.4759L103.106 122.204C103.106 122.666 103.106 122.95 102.645 122.95H93.0244C92.5629 122.95 92.2789 122.95 92.1369 122.417L87.4509 104.916H68.7779ZM84.9304 95.5084C83.2974 89.0829 79.4634 74.9894 78.0079 68.2089C76.8009 74.9894 73.7124 86.4914 71.2629 95.5084H84.9304ZM111.094 63.2034C111.094 61.6311 111.719 60.1231 112.83 59.0113C113.942 57.8995 115.45 57.2749 117.022 57.2749C118.595 57.2749 120.103 57.8995 121.214 59.0113C122.326 60.1231 122.951 61.6311 122.951 63.2034C123.011 64.0066 122.896 64.8132 122.612 65.5671C122.328 66.3209 121.884 67.0039 121.309 67.5683C120.735 68.1328 120.044 68.5651 119.285 68.8351C118.526 69.1052 117.718 69.2064 116.916 69.1319C116.128 69.1862 115.338 69.0691 114.6 68.7889C113.862 68.5086 113.193 68.0718 112.64 67.5084C112.086 66.945 111.662 66.2685 111.395 65.5253C111.128 64.7822 111.025 63.99 111.094 63.2034ZM111.804 76.4094C111.804 75.9479 111.981 75.6994 112.478 75.6994H121.602C122.063 75.6994 122.312 75.8769 122.312 76.4094V122.24C122.312 122.701 122.312 122.95 121.602 122.95H112.62C112.017 122.95 111.839 122.666 111.839 122.204V76.4094H111.804Z" fill="white"/>
</svg>
