<svg xmlns="http://www.w3.org/2000/svg" viewBox="0 0 557.11 661.79"><defs><style>.cls-1{fill:#fbbe83;}</style></defs><g id="Layer_2" data-name="Layer 2"><g id="Layer_1-2" data-name="Layer 1"><circle class="cls-1" cx="216" cy="151.66" r="151.66"/><path class="cls-1" d="M216,313.5h0a216,216,0,0,1,216,216V661.79a0,0,0,0,1,0,0H0a0,0,0,0,1,0,0V529.5a216,216,0,0,1,216-216Z"/><rect class="cls-1" x="360" y="253.75" width="121.02" height="352.89" rx="60.51"/><path class="cls-1" d="M519.83,62.81s-19.14,75-87.83,63.83c0,0,57.7,28.59,34.72,84.76,0,0,43.92-58.21,90.39-51.06C557.11,160.34,497.87,137.36,519.83,62.81Z"/></g></g></svg>