<svg width="240" height="240" viewBox="0 0 240 240" fill="none" xmlns="http://www.w3.org/2000/svg">
<g clip-path="url(#clip0)">
<path d="M120 240C96.2663 240 73.0655 232.962 53.3316 219.776C33.5977 206.591 18.217 187.849 9.13451 165.922C0.0519943 143.995 -2.32441 119.867 2.30582 96.5892C6.93605 73.3114 18.3649 51.9295 35.1472 35.1472C51.9295 18.3649 73.3115 6.93599 96.5892 2.30576C119.867 -2.32447 143.995 0.0519333 165.922 9.13445C187.849 18.217 206.591 33.5977 219.776 53.3316C232.962 73.0655 240 96.2662 240 120C239.966 151.815 227.312 182.318 204.815 204.815C182.318 227.312 151.815 239.966 120 240ZM120 9.99999C98.2441 9.99999 76.9767 16.4514 58.8873 28.5383C40.7979 40.6253 26.6989 57.8049 18.3733 77.9048C10.0477 98.0047 7.8693 120.122 12.1137 141.46C16.358 162.798 26.8345 182.398 42.2183 197.782C57.6021 213.166 77.2022 223.642 98.5401 227.886C119.878 232.131 141.995 229.952 162.095 221.627C182.195 213.301 199.375 199.202 211.462 181.113C223.549 163.023 230 141.756 230 120C229.966 90.8367 218.365 62.8778 197.744 42.2562C177.122 21.6347 149.163 10.0344 120 9.99999Z" fill="#231F20"/>
</g>
<defs>
<clipPath id="clip0">
<rect width="240" height="240" fill="white"/>
</clipPath>
</defs>
</svg>
