<svg xmlns="http://www.w3.org/2000/svg" viewBox="0 0 128.43 116.02"><defs><style>.cls-1{fill:#f15e60;}</style></defs><title>Asset 6</title><g id="Layer_2" data-name="Layer 2"><g id="Layer_1-2" data-name="Layer 1"><path class="cls-1" d="M117.88,116H3a3,3,0,0,1-3-3v-12.4a3,3,0,0,1,.92-2.16L47.3,53.7a3,3,0,0,1,4.2,0L72.14,74.37l43.58-44.88a3,3,0,0,1,5.16,2.09V113A3,3,0,0,1,117.88,116ZM6,110H114.88V39L74.32,80.73a3,3,0,0,1-2.13.91h0a3,3,0,0,1-2.12-.88L49.34,60.06,6,101.89Z"/><path class="cls-1" d="M3,82A3,3,0,0,1,.88,76.92l45.3-45.3a3,3,0,0,1,4.22,0L71.48,52.19,118.13,6h-11a3,3,0,0,1,0-6h18.34a3,3,0,0,1,2.11,5.13L73.6,58.52a3,3,0,0,1-4.2,0L48.33,38,5.12,81.17A3,3,0,0,1,3,82Z"/><path class="cls-1" d="M125.43,21.64a3,3,0,0,1-3-3V3a3,3,0,0,1,6,0V18.64A3,3,0,0,1,125.43,21.64Z"/><path class="cls-1" d="M94.47,116a3,3,0,0,1-3-3V55.68a3,3,0,0,1,6,0V113A3,3,0,0,1,94.47,116Z"/><path class="cls-1" d="M72.17,116a3,3,0,0,1-3-3V78.64a3,3,0,0,1,6,0V113A3,3,0,0,1,72.17,116Z"/><path class="cls-1" d="M49.38,116a3,3,0,0,1-3-3V55.85a3,3,0,0,1,6,0V113A3,3,0,0,1,49.38,116Z"/><path class="cls-1" d="M26.33,116a3,3,0,0,1-3-3V78.1a3,3,0,0,1,6,0V113A3,3,0,0,1,26.33,116Z"/></g></g></svg>