<svg xmlns="http://www.w3.org/2000/svg" viewBox="0 0 127.5 117.17"><defs><style>.cls-1{fill:#fbbe83;}.cls-2{fill:none;stroke:#fbbe83;stroke-linecap:round;stroke-linejoin:round;stroke-width:5px;}</style></defs><title>effort1</title><g id="Layer_2" data-name="Layer 2"><g id="Layer_1-2" data-name="Layer 1"><path class="cls-1" d="M91.56,4.12h0M89.43,6.25l20.65,20.64H105.8a7,7,0,0,0-7,7v77.78H80.06V34.38a7,7,0,0,0-7-7H68.29L89.43,6.25m0-6.25A2,2,0,0,0,88,.58L59.62,29A2,2,0,0,0,61,32.39h12a2,2,0,0,1,2,2v80.29a2,2,0,0,0,2,2h24.77a2,2,0,0,0,2-2V33.89a2,2,0,0,1,2-2h11.54a2,2,0,0,0,1.41-3.4L90.84.58A2,2,0,0,0,89.43,0Z"/><path class="cls-1" d="M73,62.92v48.75H54.28V62.92H73m5-5H49.28v58.75H78V57.92Z"/><path class="cls-1" d="M47,86.72v25H28.26v-25H47m5-5H23.26v35H52V81.72Z"/><line class="cls-2" x1="2.5" y1="114.67" x2="125" y2="114.67"/></g></g></svg>