<svg xmlns="http://www.w3.org/2000/svg" viewBox="0 0 128.5 123.66"><defs><style>.cls-1{fill:#fbbe83;}</style></defs><title>Asset 4</title><g id="Layer_2" data-name="Layer 2"><g id="Layer_1-2" data-name="Layer 1"><path class="cls-1" d="M102.32,122.66H77.55a5,5,0,0,1-5-5V38.39h-11A5,5,0,0,1,58,29.86L86.4,1.46a5,5,0,0,1,7.06,0l27.91,27.91a5,5,0,0,1-3.53,8.52H107.31v79.78A5,5,0,0,1,102.32,122.66Zm-23.76-6h22.75V36.89a5,5,0,0,1,5-5h9.11L89.93,6.41l-26,26h9.6a5,5,0,0,1,5,5Z"/><path class="cls-1" d="M75.53,122.66H46.78a3,3,0,0,1-3-3V60.92a3,3,0,0,1,3-3H75.53a3,3,0,0,1,3,3v58.74A3,3,0,0,1,75.53,122.66Zm-25.75-6H72.53V63.92H49.78Z"/><path class="cls-1" d="M46.52,122.66H17.76a3,3,0,0,1-3-3V84.71a3,3,0,0,1,3-3H46.52a3,3,0,0,1,3,3v35A3,3,0,0,1,46.52,122.66Zm-25.76-6H43.52V87.71H20.76Z"/><path class="cls-1" d="M125.5,123.66H3a3,3,0,0,1,0-6H125.5a3,3,0,0,1,0,6Z"/></g></g></svg>