<svg width="182" height="182" viewBox="0 0 182 182" fill="none" xmlns="http://www.w3.org/2000/svg">
<path d="M116.797 76.0366C119.962 73.7481 122.321 70.5152 123.534 66.8023C124.747 63.0893 124.753 59.0874 123.549 55.3714C122.345 51.6554 119.995 48.4164 116.835 46.1197C113.676 43.8231 109.87 42.5869 105.964 42.5889H76.0365C72.1304 42.5869 68.3242 43.8231 65.1646 46.1197C62.005 48.4164 59.6546 51.6554 58.4511 55.3714C57.2475 59.0874 57.2526 63.0893 58.4658 66.8023C59.679 70.5152 62.0377 73.7481 65.2032 76.0366C62.8346 77.7471 60.9059 79.9956 59.5758 82.597C58.2457 85.1983 57.5521 88.0783 57.5521 91C57.5521 93.9217 58.2458 96.8017 59.5759 99.4031C60.9061 102.004 62.8348 104.253 65.2034 105.963C62.6413 107.819 60.5982 110.3 59.2699 113.171C57.9415 116.042 57.3724 119.206 57.6169 122.36C57.8615 125.514 58.9115 128.552 60.6666 131.184C62.4216 133.816 64.8228 135.953 67.6404 137.391C70.4579 138.829 73.5974 139.52 76.7584 139.397C79.9193 139.274 82.9958 138.342 85.6933 136.69C88.3909 135.038 90.6191 132.721 92.1648 129.961C93.7104 127.201 94.5216 124.09 94.5209 120.927V105.5C96.4503 107.025 98.6647 108.15 101.034 108.807C103.404 109.465 105.881 109.643 108.321 109.331C110.76 109.019 113.112 108.223 115.24 106.989C117.368 105.756 119.227 104.11 120.711 102.148C122.194 100.187 123.27 97.9484 123.877 95.5652C124.484 93.182 124.608 90.7016 124.244 88.2695C123.879 85.8374 123.033 83.5026 121.754 81.402C120.475 79.3014 118.79 77.4772 116.797 76.0366V76.0366ZM117.406 61.0732C117.403 64.1055 116.197 67.0126 114.054 69.1575C111.911 71.3024 109.004 72.5101 105.972 72.5157L105.964 72.5155L105.947 72.516L94.5209 72.5155V49.6305H105.964C108.997 49.634 111.906 50.8406 114.051 52.9858C116.196 55.131 117.403 58.0395 117.406 61.0732V61.0732ZM64.5938 61.0732C64.5972 58.0395 65.8039 55.131 67.9491 52.9858C70.0943 50.8406 73.0028 49.634 76.0365 49.6305H87.4792V72.5155H76.0365L76.0281 72.5157C72.9959 72.5101 70.0895 71.3025 67.9462 69.1576C65.8028 67.0127 64.5973 64.1055 64.5938 61.0732V61.0732ZM64.5938 90.9999C64.5973 87.9676 65.8028 85.0604 67.9462 82.9155C70.0895 80.7706 72.9959 79.563 76.0281 79.5574L76.0365 79.5576L87.4792 79.5573V102.442L76.0365 102.443C73.0028 102.439 70.0943 101.232 67.9491 99.0873C65.8039 96.9421 64.5972 94.0336 64.5938 90.9999V90.9999ZM76.0365 132.369C74.533 132.371 73.044 132.076 71.6546 131.501C70.2651 130.927 69.0025 130.084 67.9389 129.021C66.8753 127.959 66.0316 126.697 65.4559 125.308C64.8803 123.919 64.584 122.43 64.584 120.927C64.584 119.423 64.8803 117.934 65.4559 116.546C66.0316 115.157 66.8753 113.895 67.9389 112.832C69.0025 111.769 70.2651 110.927 71.6546 110.352C73.044 109.778 74.533 109.483 76.0365 109.484L87.4792 109.484V120.927C87.4757 123.96 86.269 126.869 84.1239 129.014C81.9787 131.159 79.0702 132.366 76.0365 132.369V132.369ZM105.964 102.443C102.931 102.442 100.022 101.237 97.8774 99.0931C95.7324 96.9492 94.5262 94.0414 94.524 91.0086C94.5217 87.9758 95.7236 85.0662 97.8654 82.9191C100.007 80.7719 102.914 79.5629 105.947 79.5576H105.964L105.972 79.5574C109.005 79.5616 111.912 80.7695 114.054 82.9159C116.197 85.0623 117.4 87.9714 117.399 91.0042C117.398 94.0369 116.193 96.9452 114.048 99.09C111.904 101.235 108.996 102.441 105.964 102.443V102.443Z" fill="white"/>
</svg>
