<?xml version="1.0" encoding="utf-8"?>
<!-- Generator: Adobe Illustrator 24.0.2, SVG Export Plug-In . SVG Version: 6.00 Build 0)  -->
<svg version="1.1" id="Layer_1" xmlns="http://www.w3.org/2000/svg" xmlns:xlink="http://www.w3.org/1999/xlink" x="0px" y="0px"
	 viewBox="0 0 50.7 50.7" style="enable-background:new 0 0 50.7 50.7;" xml:space="preserve">
<style type="text/css">
	.st0{fill:#F15E60;}
	.st1{fill:#FFFFFF;}
</style>
<g>
	<path class="st0" d="M25.9,18.5l-0.8,2c0,0.1-0.2,0.1-0.3,0l-0.7-2c-0.2-0.6,0.2-1.1,0.8-1.1l0.2,0C25.7,17.4,26.1,18,25.9,18.5z"
		/>
	<path class="st0" d="M20.8,25.8L5.7,22.8c-1-0.2-1.9,0.5-1.9,1.5c0,0.3,0,0.7,0,1.1c0,4.4,1.3,8.4,3.5,11.8c0.5,0.8,1.6,1,2.4,0.3
		l11.6-9.9C22,27.1,21.7,25.9,20.8,25.8z M22.3,22.2L15.1,8.4c-0.5-0.9-1.6-1.1-2.3-0.6c-3.7,2.7-6.5,6.5-8,11
		c-0.3,0.9,0.3,1.9,1.2,2l15.1,2.9C22,24,22.8,23,22.3,22.2z M24.4,30c0-0.9-1.1-1.4-1.8-0.8L11,39c-0.7,0.6-0.8,1.8,0,2.4
		c3.3,3,7.5,4.9,12.1,5.4c1,0.1,1.8-0.7,1.8-1.7L24.4,30z M40.4,38.2L28.1,29c-0.7-0.5-1.8,0-1.7,0.9l0.5,15.2c0,1,0.9,1.7,1.8,1.5
		c4.6-0.7,8.7-2.9,11.9-6.1C41.3,39.9,41.2,38.8,40.4,38.2z M46.8,22.9c-0.1-1-1.1-1.6-2-1.3l-15.1,4c-0.9,0.2-1.1,1.4-0.4,1.9
		l12.4,9.2c0.8,0.6,1.9,0.4,2.3-0.5c1.9-3.2,2.9-6.9,2.9-10.8C46.9,24.5,46.9,23.7,46.8,22.9z M45.4,17.4c-1.7-4.4-4.9-8.1-8.8-10.5
		c-0.8-0.5-1.9-0.2-2.3,0.7L27.9,22c-0.4,0.8,0.4,1.7,1.3,1.5l15.2-4C45.3,19.3,45.8,18.3,45.4,17.4z M40.4,38.2L28.1,29
		c-0.7-0.5-1.8,0-1.7,0.9l0.5,15.2c0,1,0.9,1.7,1.8,1.5c4.6-0.7,8.7-2.9,11.9-6.1C41.3,39.9,41.2,38.8,40.4,38.2z M24.4,30
		c0-0.9-1.1-1.4-1.8-0.8L11,39c-0.7,0.6-0.8,1.8,0,2.4c3.3,3,7.5,4.9,12.1,5.4c1,0.1,1.8-0.7,1.8-1.7L24.4,30z M22.3,22.2L15.1,8.4
		c-0.5-0.9-1.6-1.1-2.3-0.6c-3.7,2.7-6.5,6.5-8,11c-0.3,0.9,0.3,1.9,1.2,2l15.1,2.9C22,24,22.8,23,22.3,22.2z M20.8,25.8L5.7,22.8
		c-1-0.2-1.9,0.5-1.9,1.5c0,0.3,0,0.7,0,1.1c0,4.4,1.3,8.4,3.5,11.8c0.5,0.8,1.6,1,2.4,0.3l11.6-9.9C22,27.1,21.7,25.9,20.8,25.8z
		 M46.8,22.9c-0.1-1-1.1-1.6-2-1.3l-15.1,4c-0.9,0.2-1.1,1.4-0.4,1.9l12.4,9.2c0.8,0.6,1.9,0.4,2.3-0.5c1.9-3.2,2.9-6.9,2.9-10.8
		C46.9,24.5,46.9,23.7,46.8,22.9z M45.4,17.4c-1.7-4.4-4.9-8.1-8.8-10.5c-0.8-0.5-1.9-0.2-2.3,0.7L27.9,22c-0.4,0.8,0.4,1.7,1.3,1.5
		l15.2-4C45.3,19.3,45.8,18.3,45.4,17.4z M20.8,25.8L5.7,22.8c-1-0.2-1.9,0.5-1.9,1.5c0,0.3,0,0.7,0,1.1c0,4.4,1.3,8.4,3.5,11.8
		c0.5,0.8,1.6,1,2.4,0.3l11.6-9.9C22,27.1,21.7,25.9,20.8,25.8z M22.3,22.2L15.1,8.4c-0.5-0.9-1.6-1.1-2.3-0.6
		c-3.7,2.7-6.5,6.5-8,11c-0.3,0.9,0.3,1.9,1.2,2l15.1,2.9C22,24,22.8,23,22.3,22.2z M24.4,30c0-0.9-1.1-1.4-1.8-0.8L11,39
		c-0.7,0.6-0.8,1.8,0,2.4c3.3,3,7.5,4.9,12.1,5.4c1,0.1,1.8-0.7,1.8-1.7L24.4,30z M40.4,38.2L28.1,29c-0.7-0.5-1.8,0-1.7,0.9
		l0.5,15.2c0,1,0.9,1.7,1.8,1.5c4.6-0.7,8.7-2.9,11.9-6.1C41.3,39.9,41.2,38.8,40.4,38.2z M46.8,22.9c-0.1-1-1.1-1.6-2-1.3l-15.1,4
		c-0.9,0.2-1.1,1.4-0.4,1.9l12.4,9.2c0.8,0.6,1.9,0.4,2.3-0.5c1.9-3.2,2.9-6.9,2.9-10.8C46.9,24.5,46.9,23.7,46.8,22.9z M45.4,17.4
		c-1.7-4.4-4.9-8.1-8.8-10.5c-0.8-0.5-1.9-0.2-2.3,0.7L27.9,22c-0.4,0.8,0.4,1.7,1.3,1.5l15.2-4C45.3,19.3,45.8,18.3,45.4,17.4z
		 M40.4,38.2L28.1,29c-0.7-0.5-1.8,0-1.7,0.9l0.5,15.2c0,1,0.9,1.7,1.8,1.5c4.6-0.7,8.7-2.9,11.9-6.1C41.3,39.9,41.2,38.8,40.4,38.2
		z M24.4,30c0-0.9-1.1-1.4-1.8-0.8L11,39c-0.7,0.6-0.8,1.8,0,2.4c3.3,3,7.5,4.9,12.1,5.4c1,0.1,1.8-0.7,1.8-1.7L24.4,30z M22.3,22.2
		L15.1,8.4c-0.5-0.9-1.6-1.1-2.3-0.6c-3.7,2.7-6.5,6.5-8,11c-0.3,0.9,0.3,1.9,1.2,2l15.1,2.9C22,24,22.8,23,22.3,22.2z M20.8,25.8
		L5.7,22.8c-1-0.2-1.9,0.5-1.9,1.5c0,0.3,0,0.7,0,1.1c0,4.4,1.3,8.4,3.5,11.8c0.5,0.8,1.6,1,2.4,0.3l11.6-9.9
		C22,27.1,21.7,25.9,20.8,25.8z M46.8,22.9c-0.1-1-1.1-1.6-2-1.3l-15.1,4c-0.9,0.2-1.1,1.4-0.4,1.9l12.4,9.2
		c0.8,0.6,1.9,0.4,2.3-0.5c1.9-3.2,2.9-6.9,2.9-10.8C46.9,24.5,46.9,23.7,46.8,22.9z M45.4,17.4c-1.7-4.4-4.9-8.1-8.8-10.5
		c-0.8-0.5-1.9-0.2-2.3,0.7L27.9,22c-0.4,0.8,0.4,1.7,1.3,1.5l15.2-4C45.3,19.3,45.8,18.3,45.4,17.4z M20.8,25.8L5.7,22.8
		c-1-0.2-1.9,0.5-1.9,1.5c0,0.3,0,0.7,0,1.1c0,4.4,1.3,8.4,3.5,11.8c0.5,0.8,1.6,1,2.4,0.3l11.6-9.9C22,27.1,21.7,25.9,20.8,25.8z
		 M22.3,22.2L15.1,8.4c-0.5-0.9-1.6-1.1-2.3-0.6c-3.7,2.7-6.5,6.5-8,11c-0.3,0.9,0.3,1.9,1.2,2l15.1,2.9C22,24,22.8,23,22.3,22.2z
		 M24.4,30c0-0.9-1.1-1.4-1.8-0.8L11,39c-0.7,0.6-0.8,1.8,0,2.4c3.3,3,7.5,4.9,12.1,5.4c1,0.1,1.8-0.7,1.8-1.7L24.4,30z M40.4,38.2
		L28.1,29c-0.7-0.5-1.8,0-1.7,0.9l0.5,15.2c0,1,0.9,1.7,1.8,1.5c4.6-0.7,8.7-2.9,11.9-6.1C41.3,39.9,41.2,38.8,40.4,38.2z
		 M46.8,22.9c-0.1-1-1.1-1.6-2-1.3l-15.1,4c-0.9,0.2-1.1,1.4-0.4,1.9l12.4,9.2c0.8,0.6,1.9,0.4,2.3-0.5c1.9-3.2,2.9-6.9,2.9-10.8
		C46.9,24.5,46.9,23.7,46.8,22.9z M45.4,17.4c-1.7-4.4-4.9-8.1-8.8-10.5c-0.8-0.5-1.9-0.2-2.3,0.7L27.9,22c-0.4,0.8,0.4,1.7,1.3,1.5
		l15.2-4C45.3,19.3,45.8,18.3,45.4,17.4z M40.4,38.2L28.1,29c-0.7-0.5-1.8,0-1.7,0.9l0.5,15.2c0,1,0.9,1.7,1.8,1.5
		c4.6-0.7,8.7-2.9,11.9-6.1C41.3,39.9,41.2,38.8,40.4,38.2z M24.4,30c0-0.9-1.1-1.4-1.8-0.8L11,39c-0.7,0.6-0.8,1.8,0,2.4
		c3.3,3,7.5,4.9,12.1,5.4c1,0.1,1.8-0.7,1.8-1.7L24.4,30z M22.3,22.2L15.1,8.4c-0.5-0.9-1.6-1.1-2.3-0.6c-3.7,2.7-6.5,6.5-8,11
		c-0.3,0.9,0.3,1.9,1.2,2l15.1,2.9C22,24,22.8,23,22.3,22.2z M20.8,25.8L5.7,22.8c-1-0.2-1.9,0.5-1.9,1.5c0,0.3,0,0.7,0,1.1
		c0,4.4,1.3,8.4,3.5,11.8c0.5,0.8,1.6,1,2.4,0.3l11.6-9.9C22,27.1,21.7,25.9,20.8,25.8z M46.8,22.9c-0.1-1-1.1-1.6-2-1.3l-15.1,4
		c-0.9,0.2-1.1,1.4-0.4,1.9l12.4,9.2c0.8,0.6,1.9,0.4,2.3-0.5c1.9-3.2,2.9-6.9,2.9-10.8C46.9,24.5,46.9,23.7,46.8,22.9z M45.4,17.4
		c-1.7-4.4-4.9-8.1-8.8-10.5c-0.8-0.5-1.9-0.2-2.3,0.7L27.9,22c-0.4,0.8,0.4,1.7,1.3,1.5l15.2-4C45.3,19.3,45.8,18.3,45.4,17.4z
		 M20.8,25.8L5.7,22.8c-1-0.2-1.9,0.5-1.9,1.5c0,0.3,0,0.7,0,1.1c0,4.4,1.3,8.4,3.5,11.8c0.5,0.8,1.6,1,2.4,0.3l11.6-9.9
		C22,27.1,21.7,25.9,20.8,25.8z M22.3,22.2L15.1,8.4c-0.5-0.9-1.6-1.1-2.3-0.6c-3.7,2.7-6.5,6.5-8,11c-0.3,0.9,0.3,1.9,1.2,2
		l15.1,2.9C22,24,22.8,23,22.3,22.2z M24.4,30c0-0.9-1.1-1.4-1.8-0.8L11,39c-0.7,0.6-0.8,1.8,0,2.4c3.3,3,7.5,4.9,12.1,5.4
		c1,0.1,1.8-0.7,1.8-1.7L24.4,30z M40.4,38.2L28.1,29c-0.7-0.5-1.8,0-1.7,0.9l0.5,15.2c0,1,0.9,1.7,1.8,1.5
		c4.6-0.7,8.7-2.9,11.9-6.1C41.3,39.9,41.2,38.8,40.4,38.2z M46.8,22.9c-0.1-1-1.1-1.6-2-1.3l-15.1,4c-0.9,0.2-1.1,1.4-0.4,1.9
		l12.4,9.2c0.8,0.6,1.9,0.4,2.3-0.5c1.9-3.2,2.9-6.9,2.9-10.8C46.9,24.5,46.9,23.7,46.8,22.9z M45.4,17.4c-1.7-4.4-4.9-8.1-8.8-10.5
		c-0.8-0.5-1.9-0.2-2.3,0.7L27.9,22c-0.4,0.8,0.4,1.7,1.3,1.5l15.2-4C45.3,19.3,45.8,18.3,45.4,17.4z M40.4,38.2L28.1,29
		c-0.7-0.5-1.8,0-1.7,0.9l0.5,15.2c0,1,0.9,1.7,1.8,1.5c4.6-0.7,8.7-2.9,11.9-6.1C41.3,39.9,41.2,38.8,40.4,38.2z M24.4,30
		c0-0.9-1.1-1.4-1.8-0.8L11,39c-0.7,0.6-0.8,1.8,0,2.4c3.3,3,7.5,4.9,12.1,5.4c1,0.1,1.8-0.7,1.8-1.7L24.4,30z M22.3,22.2L15.1,8.4
		c-0.5-0.9-1.6-1.1-2.3-0.6c-3.7,2.7-6.5,6.5-8,11c-0.3,0.9,0.3,1.9,1.2,2l15.1,2.9C22,24,22.8,23,22.3,22.2z M20.8,25.8L5.7,22.8
		c-1-0.2-1.9,0.5-1.9,1.5c0,0.3,0,0.7,0,1.1c0,4.4,1.3,8.4,3.5,11.8c0.5,0.8,1.6,1,2.4,0.3l11.6-9.9C22,27.1,21.7,25.9,20.8,25.8z
		 M46.8,22.9c-0.1-1-1.1-1.6-2-1.3l-15.1,4c-0.9,0.2-1.1,1.4-0.4,1.9l12.4,9.2c0.8,0.6,1.9,0.4,2.3-0.5c1.9-3.2,2.9-6.9,2.9-10.8
		C46.9,24.5,46.9,23.7,46.8,22.9z M45.4,17.4c-1.7-4.4-4.9-8.1-8.8-10.5c-0.8-0.5-1.9-0.2-2.3,0.7L27.9,22c-0.4,0.8,0.4,1.7,1.3,1.5
		l15.2-4C45.3,19.3,45.8,18.3,45.4,17.4z M20.8,25.8L5.7,22.8c-1-0.2-1.9,0.5-1.9,1.5c0,0.3,0,0.7,0,1.1c0,4.4,1.3,8.4,3.5,11.8
		c0.5,0.8,1.6,1,2.4,0.3l11.6-9.9C22,27.1,21.7,25.9,20.8,25.8z M22.3,22.2L15.1,8.4c-0.5-0.9-1.6-1.1-2.3-0.6
		c-3.7,2.7-6.5,6.5-8,11c-0.3,0.9,0.3,1.9,1.2,2l15.1,2.9C22,24,22.8,23,22.3,22.2z M24.4,30c0-0.9-1.1-1.4-1.8-0.8L11,39
		c-0.7,0.6-0.8,1.8,0,2.4c3.3,3,7.5,4.9,12.1,5.4c1,0.1,1.8-0.7,1.8-1.7L24.4,30z M40.4,38.2L28.1,29c-0.7-0.5-1.8,0-1.7,0.9
		l0.5,15.2c0,1,0.9,1.7,1.8,1.5c4.6-0.7,8.7-2.9,11.9-6.1C41.3,39.9,41.2,38.8,40.4,38.2z M46.8,22.9c-0.1-1-1.1-1.6-2-1.3l-15.1,4
		c-0.9,0.2-1.1,1.4-0.4,1.9l12.4,9.2c0.8,0.6,1.9,0.4,2.3-0.5c1.9-3.2,2.9-6.9,2.9-10.8C46.9,24.5,46.9,23.7,46.8,22.9z M45.4,17.4
		c-1.7-4.4-4.9-8.1-8.8-10.5c-0.8-0.5-1.9-0.2-2.3,0.7L27.9,22c-0.4,0.8,0.4,1.7,1.3,1.5l15.2-4C45.3,19.3,45.8,18.3,45.4,17.4z
		 M40.4,38.2L28.1,29c-0.7-0.5-1.8,0-1.7,0.9l0.5,15.2c0,1,0.9,1.7,1.8,1.5c4.6-0.7,8.7-2.9,11.9-6.1C41.3,39.9,41.2,38.8,40.4,38.2
		z M24.4,30c0-0.9-1.1-1.4-1.8-0.8L11,39c-0.7,0.6-0.8,1.8,0,2.4c3.3,3,7.5,4.9,12.1,5.4c1,0.1,1.8-0.7,1.8-1.7L24.4,30z M22.3,22.2
		L15.1,8.4c-0.5-0.9-1.6-1.1-2.3-0.6c-3.7,2.7-6.5,6.5-8,11c-0.3,0.9,0.3,1.9,1.2,2l15.1,2.9C22,24,22.8,23,22.3,22.2z M20.8,25.8
		L5.7,22.8c-1-0.2-1.9,0.5-1.9,1.5c0,0.3,0,0.7,0,1.1c0,4.4,1.3,8.4,3.5,11.8c0.5,0.8,1.6,1,2.4,0.3l11.6-9.9
		C22,27.1,21.7,25.9,20.8,25.8z M46.8,22.9c-0.1-1-1.1-1.6-2-1.3l-15.1,4c-0.9,0.2-1.1,1.4-0.4,1.9l12.4,9.2
		c0.8,0.6,1.9,0.4,2.3-0.5c1.9-3.2,2.9-6.9,2.9-10.8C46.9,24.5,46.9,23.7,46.8,22.9z M45.4,17.4c-1.7-4.4-4.9-8.1-8.8-10.5
		c-0.8-0.5-1.9-0.2-2.3,0.7L27.9,22c-0.4,0.8,0.4,1.7,1.3,1.5l15.2-4C45.3,19.3,45.8,18.3,45.4,17.4z M20.8,25.8L5.7,22.8
		c-1-0.2-1.9,0.5-1.9,1.5c0,0.3,0,0.7,0,1.1c0,4.4,1.3,8.4,3.5,11.8c0.5,0.8,1.6,1,2.4,0.3l11.6-9.9C22,27.1,21.7,25.9,20.8,25.8z
		 M22.3,22.2L15.1,8.4c-0.5-0.9-1.6-1.1-2.3-0.6c-3.7,2.7-6.5,6.5-8,11c-0.3,0.9,0.3,1.9,1.2,2l15.1,2.9C22,24,22.8,23,22.3,22.2z
		 M24.4,30c0-0.9-1.1-1.4-1.8-0.8L11,39c-0.7,0.6-0.8,1.8,0,2.4c3.3,3,7.5,4.9,12.1,5.4c1,0.1,1.8-0.7,1.8-1.7L24.4,30z M40.4,38.2
		L28.1,29c-0.7-0.5-1.8,0-1.7,0.9l0.5,15.2c0,1,0.9,1.7,1.8,1.5c4.6-0.7,8.7-2.9,11.9-6.1C41.3,39.9,41.2,38.8,40.4,38.2z
		 M46.8,22.9c-0.1-1-1.1-1.6-2-1.3l-15.1,4c-0.9,0.2-1.1,1.4-0.4,1.9l12.4,9.2c0.8,0.6,1.9,0.4,2.3-0.5c1.9-3.2,2.9-6.9,2.9-10.8
		C46.9,24.5,46.9,23.7,46.8,22.9z M45.4,17.4c-1.7-4.4-4.9-8.1-8.8-10.5c-0.8-0.5-1.9-0.2-2.3,0.7L27.9,22c-0.4,0.8,0.4,1.7,1.3,1.5
		l15.2-4C45.3,19.3,45.8,18.3,45.4,17.4z M40.4,38.2L28.1,29c-0.7-0.5-1.8,0-1.7,0.9l0.5,15.2c0,1,0.9,1.7,1.8,1.5
		c4.6-0.7,8.7-2.9,11.9-6.1C41.3,39.9,41.2,38.8,40.4,38.2z M24.4,30c0-0.9-1.1-1.4-1.8-0.8L11,39c-0.7,0.6-0.8,1.8,0,2.4
		c3.3,3,7.5,4.9,12.1,5.4c1,0.1,1.8-0.7,1.8-1.7L24.4,30z M22.3,22.2L15.1,8.4c-0.5-0.9-1.6-1.1-2.3-0.6c-3.7,2.7-6.5,6.5-8,11
		c-0.3,0.9,0.3,1.9,1.2,2l15.1,2.9C22,24,22.8,23,22.3,22.2z M20.8,25.8L5.7,22.8c-1-0.2-1.9,0.5-1.9,1.5c0,0.3,0,0.7,0,1.1
		c0,4.4,1.3,8.4,3.5,11.8c0.5,0.8,1.6,1,2.4,0.3l11.6-9.9C22,27.1,21.7,25.9,20.8,25.8z M46.8,22.9c-0.1-1-1.1-1.6-2-1.3l-15.1,4
		c-0.9,0.2-1.1,1.4-0.4,1.9l12.4,9.2c0.8,0.6,1.9,0.4,2.3-0.5c1.9-3.2,2.9-6.9,2.9-10.8C46.9,24.5,46.9,23.7,46.8,22.9z M45.4,17.4
		c-1.7-4.4-4.9-8.1-8.8-10.5c-0.8-0.5-1.9-0.2-2.3,0.7L27.9,22c-0.4,0.8,0.4,1.7,1.3,1.5l15.2-4C45.3,19.3,45.8,18.3,45.4,17.4z
		 M20.8,25.8L5.7,22.8c-1-0.2-1.9,0.5-1.9,1.5c0,0.3,0,0.7,0,1.1c0,4.4,1.3,8.4,3.5,11.8c0.5,0.8,1.6,1,2.4,0.3l11.6-9.9
		C22,27.1,21.7,25.9,20.8,25.8z M22.3,22.2L15.1,8.4c-0.5-0.9-1.6-1.1-2.3-0.6c-3.7,2.7-6.5,6.5-8,11c-0.3,0.9,0.3,1.9,1.2,2
		l15.1,2.9C22,24,22.8,23,22.3,22.2z M24.4,30c0-0.9-1.1-1.4-1.8-0.8L11,39c-0.7,0.6-0.8,1.8,0,2.4c3.3,3,7.5,4.9,12.1,5.4
		c1,0.1,1.8-0.7,1.8-1.7L24.4,30z M40.4,38.2L28.1,29c-0.7-0.5-1.8,0-1.7,0.9l0.5,15.2c0,1,0.9,1.7,1.8,1.5
		c4.6-0.7,8.7-2.9,11.9-6.1C41.3,39.9,41.2,38.8,40.4,38.2z M46.8,22.9c-0.1-1-1.1-1.6-2-1.3l-15.1,4c-0.9,0.2-1.1,1.4-0.4,1.9
		l12.4,9.2c0.8,0.6,1.9,0.4,2.3-0.5c1.9-3.2,2.9-6.9,2.9-10.8C46.9,24.5,46.9,23.7,46.8,22.9z M45.4,17.4c-1.7-4.4-4.9-8.1-8.8-10.5
		c-0.8-0.5-1.9-0.2-2.3,0.7L27.9,22c-0.4,0.8,0.4,1.7,1.3,1.5l15.2-4C45.3,19.3,45.8,18.3,45.4,17.4z M40.4,38.2L28.1,29
		c-0.7-0.5-1.8,0-1.7,0.9l0.5,15.2c0,1,0.9,1.7,1.8,1.5c4.6-0.7,8.7-2.9,11.9-6.1C41.3,39.9,41.2,38.8,40.4,38.2z M24.4,30
		c0-0.9-1.1-1.4-1.8-0.8L11,39c-0.7,0.6-0.8,1.8,0,2.4c3.3,3,7.5,4.9,12.1,5.4c1,0.1,1.8-0.7,1.8-1.7L24.4,30z M22.3,22.2L15.1,8.4
		c-0.5-0.9-1.6-1.1-2.3-0.6c-3.7,2.7-6.5,6.5-8,11c-0.3,0.9,0.3,1.9,1.2,2l15.1,2.9C22,24,22.8,23,22.3,22.2z M20.8,25.8L5.7,22.8
		c-1-0.2-1.9,0.5-1.9,1.5c0,0.3,0,0.7,0,1.1c0,4.4,1.3,8.4,3.5,11.8c0.5,0.8,1.6,1,2.4,0.3l11.6-9.9C22,27.1,21.7,25.9,20.8,25.8z
		 M46.8,22.9c-0.1-1-1.1-1.6-2-1.3l-15.1,4c-0.9,0.2-1.1,1.4-0.4,1.9l12.4,9.2c0.8,0.6,1.9,0.4,2.3-0.5c1.9-3.2,2.9-6.9,2.9-10.8
		C46.9,24.5,46.9,23.7,46.8,22.9z M45.4,17.4c-1.7-4.4-4.9-8.1-8.8-10.5c-0.8-0.5-1.9-0.2-2.3,0.7L27.9,22c-0.4,0.8,0.4,1.7,1.3,1.5
		l15.2-4C45.3,19.3,45.8,18.3,45.4,17.4z M20.8,25.8L5.7,22.8c-1-0.2-1.9,0.5-1.9,1.5c0,0.3,0,0.7,0,1.1c0,4.4,1.3,8.4,3.5,11.8
		c0.5,0.8,1.6,1,2.4,0.3l11.6-9.9C22,27.1,21.7,25.9,20.8,25.8z M22.3,22.2L15.1,8.4c-0.5-0.9-1.6-1.1-2.3-0.6
		c-3.7,2.7-6.5,6.5-8,11c-0.3,0.9,0.3,1.9,1.2,2l15.1,2.9C22,24,22.8,23,22.3,22.2z M24.4,30c0-0.9-1.1-1.4-1.8-0.8L11,39
		c-0.7,0.6-0.8,1.8,0,2.4c3.3,3,7.5,4.9,12.1,5.4c1,0.1,1.8-0.7,1.8-1.7L24.4,30z M40.4,38.2L28.1,29c-0.7-0.5-1.8,0-1.7,0.9
		l0.5,15.2c0,1,0.9,1.7,1.8,1.5c4.6-0.7,8.7-2.9,11.9-6.1C41.3,39.9,41.2,38.8,40.4,38.2z M46.8,22.9c-0.1-1-1.1-1.6-2-1.3l-15.1,4
		c-0.9,0.2-1.1,1.4-0.4,1.9l12.4,9.2c0.8,0.6,1.9,0.4,2.3-0.5c1.9-3.2,2.9-6.9,2.9-10.8C46.9,24.5,46.9,23.7,46.8,22.9z M45.4,17.4
		c-1.7-4.4-4.9-8.1-8.8-10.5c-0.8-0.5-1.9-0.2-2.3,0.7L27.9,22c-0.4,0.8,0.4,1.7,1.3,1.5l15.2-4C45.3,19.3,45.8,18.3,45.4,17.4z
		 M40.4,38.2L28.1,29c-0.7-0.5-1.8,0-1.7,0.9l0.5,15.2c0,1,0.9,1.7,1.8,1.5c4.6-0.7,8.7-2.9,11.9-6.1C41.3,39.9,41.2,38.8,40.4,38.2
		z M24.4,30c0-0.9-1.1-1.4-1.8-0.8L11,39c-0.7,0.6-0.8,1.8,0,2.4c3.3,3,7.5,4.9,12.1,5.4c1,0.1,1.8-0.7,1.8-1.7L24.4,30z M22.3,22.2
		L15.1,8.4c-0.5-0.9-1.6-1.1-2.3-0.6c-3.7,2.7-6.5,6.5-8,11c-0.3,0.9,0.3,1.9,1.2,2l15.1,2.9C22,24,22.8,23,22.3,22.2z M20.8,25.8
		L5.7,22.8c-1-0.2-1.9,0.5-1.9,1.5c0,0.3,0,0.7,0,1.1c0,4.4,1.3,8.4,3.5,11.8c0.5,0.8,1.6,1,2.4,0.3l11.6-9.9
		C22,27.1,21.7,25.9,20.8,25.8z M46.8,22.9c-0.1-1-1.1-1.6-2-1.3l-15.1,4c-0.9,0.2-1.1,1.4-0.4,1.9l12.4,9.2
		c0.8,0.6,1.9,0.4,2.3-0.5c1.9-3.2,2.9-6.9,2.9-10.8C46.9,24.5,46.9,23.7,46.8,22.9z M45.4,17.4c-1.7-4.4-4.9-8.1-8.8-10.5
		c-0.8-0.5-1.9-0.2-2.3,0.7L27.9,22c-0.4,0.8,0.4,1.7,1.3,1.5l15.2-4C45.3,19.3,45.8,18.3,45.4,17.4z M20.8,25.8L5.7,22.8
		c-1-0.2-1.9,0.5-1.9,1.5c0,0.3,0,0.7,0,1.1c0,4.4,1.3,8.4,3.5,11.8c0.5,0.8,1.6,1,2.4,0.3l11.6-9.9C22,27.1,21.7,25.9,20.8,25.8z
		 M22.3,22.2L15.1,8.4c-0.5-0.9-1.6-1.1-2.3-0.6c-3.7,2.7-6.5,6.5-8,11c-0.3,0.9,0.3,1.9,1.2,2l15.1,2.9C22,24,22.8,23,22.3,22.2z
		 M24.4,30c0-0.9-1.1-1.4-1.8-0.8L11,39c-0.7,0.6-0.8,1.8,0,2.4c3.3,3,7.5,4.9,12.1,5.4c1,0.1,1.8-0.7,1.8-1.7L24.4,30z M40.4,38.2
		L28.1,29c-0.7-0.5-1.8,0-1.7,0.9l0.5,15.2c0,1,0.9,1.7,1.8,1.5c4.6-0.7,8.7-2.9,11.9-6.1C41.3,39.9,41.2,38.8,40.4,38.2z
		 M46.8,22.9c-0.1-1-1.1-1.6-2-1.3l-15.1,4c-0.9,0.2-1.1,1.4-0.4,1.9l12.4,9.2c0.8,0.6,1.9,0.4,2.3-0.5c1.9-3.2,2.9-6.9,2.9-10.8
		C46.9,24.5,46.9,23.7,46.8,22.9z M45.4,17.4c-1.7-4.4-4.9-8.1-8.8-10.5c-0.8-0.5-1.9-0.2-2.3,0.7L27.9,22c-0.4,0.8,0.4,1.7,1.3,1.5
		l15.2-4C45.3,19.3,45.8,18.3,45.4,17.4z M40.4,38.2L28.1,29c-0.7-0.5-1.8,0-1.7,0.9l0.5,15.2c0,1,0.9,1.7,1.8,1.5
		c4.6-0.7,8.7-2.9,11.9-6.1C41.3,39.9,41.2,38.8,40.4,38.2z M24.4,30c0-0.9-1.1-1.4-1.8-0.8L11,39c-0.7,0.6-0.8,1.8,0,2.4
		c3.3,3,7.5,4.9,12.1,5.4c1,0.1,1.8-0.7,1.8-1.7L24.4,30z M22.3,22.2L15.1,8.4c-0.5-0.9-1.6-1.1-2.3-0.6c-3.7,2.7-6.5,6.5-8,11
		c-0.3,0.9,0.3,1.9,1.2,2l15.1,2.9C22,24,22.8,23,22.3,22.2z M20.8,25.8L5.7,22.8c-1-0.2-1.9,0.5-1.9,1.5c0,0.3,0,0.7,0,1.1
		c0,4.4,1.3,8.4,3.5,11.8c0.5,0.8,1.6,1,2.4,0.3l11.6-9.9C22,27.1,21.7,25.9,20.8,25.8z M46.8,22.9c-0.1-1-1.1-1.6-2-1.3l-15.1,4
		c-0.9,0.2-1.1,1.4-0.4,1.9l12.4,9.2c0.8,0.6,1.9,0.4,2.3-0.5c1.9-3.2,2.9-6.9,2.9-10.8C46.9,24.5,46.9,23.7,46.8,22.9z M45.4,17.4
		c-1.7-4.4-4.9-8.1-8.8-10.5c-0.8-0.5-1.9-0.2-2.3,0.7L27.9,22c-0.4,0.8,0.4,1.7,1.3,1.5l15.2-4C45.3,19.3,45.8,18.3,45.4,17.4z
		 M20.8,25.8L5.7,22.8c-1-0.2-1.9,0.5-1.9,1.5c0,0.3,0,0.7,0,1.1c0,4.4,1.3,8.4,3.5,11.8c0.5,0.8,1.6,1,2.4,0.3l11.6-9.9
		C22,27.1,21.7,25.9,20.8,25.8z M22.3,22.2L15.1,8.4c-0.5-0.9-1.6-1.1-2.3-0.6c-3.7,2.7-6.5,6.5-8,11c-0.3,0.9,0.3,1.9,1.2,2
		l15.1,2.9C22,24,22.8,23,22.3,22.2z M24.4,30c0-0.9-1.1-1.4-1.8-0.8L11,39c-0.7,0.6-0.8,1.8,0,2.4c3.3,3,7.5,4.9,12.1,5.4
		c1,0.1,1.8-0.7,1.8-1.7L24.4,30z M40.4,38.2L28.1,29c-0.7-0.5-1.8,0-1.7,0.9l0.5,15.2c0,1,0.9,1.7,1.8,1.5
		c4.6-0.7,8.7-2.9,11.9-6.1C41.3,39.9,41.2,38.8,40.4,38.2z M46.8,22.9c-0.1-1-1.1-1.6-2-1.3l-15.1,4c-0.9,0.2-1.1,1.4-0.4,1.9
		l12.4,9.2c0.8,0.6,1.9,0.4,2.3-0.5c1.9-3.2,2.9-6.9,2.9-10.8C46.9,24.5,46.9,23.7,46.8,22.9z M29.2,23.5l15.2-4
		c0.9-0.2,1.5-1.2,1.1-2.1c-1.7-4.4-4.9-8.1-8.8-10.5c-0.8-0.5-1.9-0.2-2.3,0.7L27.9,22C27.5,22.9,28.3,23.8,29.2,23.5z M40.4,38.2
		L28.1,29c-0.7-0.5-1.8,0-1.7,0.9l0.5,15.2c0,1,0.9,1.7,1.8,1.5c4.6-0.7,8.7-2.9,11.9-6.1C41.3,39.9,41.2,38.8,40.4,38.2z
		 M22.6,29.2L11,39c-0.7,0.6-0.8,1.8,0,2.4c3.3,3,7.5,4.9,12.1,5.4c1,0.1,1.8-0.7,1.8-1.7L24.4,30C24.3,29.1,23.3,28.6,22.6,29.2z
		 M6,20.9l15.1,2.9c0.9,0.2,1.6-0.8,1.2-1.6L15.1,8.4c-0.5-0.9-1.6-1.1-2.3-0.6c-3.7,2.7-6.5,6.5-8,11C4.5,19.7,5.1,20.7,6,20.9z
		 M20.8,25.8L5.7,22.8c-1-0.2-1.9,0.5-1.9,1.5c0,0.3,0,0.7,0,1.1c0,4.4,1.3,8.4,3.5,11.8c0.5,0.8,1.6,1,2.4,0.3l11.6-9.9
		C22,27.1,21.7,25.9,20.8,25.8z M46.8,22.9c-0.1-1-1.1-1.6-2-1.3l-15.1,4c-0.9,0.2-1.1,1.4-0.4,1.9l12.4,9.2
		c0.8,0.6,1.9,0.4,2.3-0.5c1.9-3.2,2.9-6.9,2.9-10.8C46.9,24.5,46.9,23.7,46.8,22.9z M29.2,23.5l15.2-4c0.9-0.2,1.5-1.2,1.1-2.1
		c-1.7-4.4-4.9-8.1-8.8-10.5c-0.8-0.5-1.9-0.2-2.3,0.7L27.9,22C27.5,22.9,28.3,23.8,29.2,23.5z M25.3,0C11.3,0,0,11.3,0,25.3
		s11.3,25.3,25.3,25.3s25.4-11.3,25.4-25.3S39.3,0,25.3,0z M25.3,49.3c-13.2,0-23.9-10.7-23.9-23.9c0-13.2,10.7-23.9,23.9-23.9
		c13.2,0,23.9,10.7,23.9,23.9C49.3,38.5,38.5,49.3,25.3,49.3z M40.4,38.2L28.1,29c-0.7-0.5-1.8,0-1.7,0.9l0.5,15.2
		c0,1,0.9,1.7,1.8,1.5c4.6-0.7,8.7-2.9,11.9-6.1C41.3,39.9,41.2,38.8,40.4,38.2z M22.6,29.2L11,39c-0.7,0.6-0.8,1.8,0,2.4
		c3.3,3,7.5,4.9,12.1,5.4c1,0.1,1.8-0.7,1.8-1.7L24.4,30C24.3,29.1,23.3,28.6,22.6,29.2z M6,20.9l15.1,2.9c0.9,0.2,1.6-0.8,1.2-1.6
		L15.1,8.4c-0.5-0.9-1.6-1.1-2.3-0.6c-3.7,2.7-6.5,6.5-8,11C4.5,19.7,5.1,20.7,6,20.9z M20.8,25.8L5.7,22.8c-1-0.2-1.9,0.5-1.9,1.5
		c0,0.3,0,0.7,0,1.1c0,4.4,1.3,8.4,3.5,11.8c0.5,0.8,1.6,1,2.4,0.3l11.6-9.9C22,27.1,21.7,25.9,20.8,25.8z M45.4,17.4
		c-1.7-4.4-4.9-8.1-8.8-10.5c-0.8-0.5-1.9-0.2-2.3,0.7L27.9,22c-0.4,0.8,0.4,1.7,1.3,1.5l15.2-4C45.3,19.3,45.8,18.3,45.4,17.4z
		 M46.8,22.9c-0.1-1-1.1-1.6-2-1.3l-15.1,4c-0.9,0.2-1.1,1.4-0.4,1.9l12.4,9.2c0.8,0.6,1.9,0.4,2.3-0.5c1.9-3.2,2.9-6.9,2.9-10.8
		C46.9,24.5,46.9,23.7,46.8,22.9z M20.8,25.8L5.7,22.8c-1-0.2-1.9,0.5-1.9,1.5c0,0.3,0,0.7,0,1.1c0,4.4,1.3,8.4,3.5,11.8
		c0.5,0.8,1.6,1,2.4,0.3l11.6-9.9C22,27.1,21.7,25.9,20.8,25.8z M22.3,22.2L15.1,8.4c-0.5-0.9-1.6-1.1-2.3-0.6
		c-3.7,2.7-6.5,6.5-8,11c-0.3,0.9,0.3,1.9,1.2,2l15.1,2.9C22,24,22.8,23,22.3,22.2z M24.4,30c0-0.9-1.1-1.4-1.8-0.8L11,39
		c-0.7,0.6-0.8,1.8,0,2.4c3.3,3,7.5,4.9,12.1,5.4c1,0.1,1.8-0.7,1.8-1.7L24.4,30z M40.4,38.2L28.1,29c-0.7-0.5-1.8,0-1.7,0.9
		l0.5,15.2c0,1,0.9,1.7,1.8,1.5c4.6-0.7,8.7-2.9,11.9-6.1C41.3,39.9,41.2,38.8,40.4,38.2z M45.4,17.4c-1.7-4.4-4.9-8.1-8.8-10.5
		c-0.8-0.5-1.9-0.2-2.3,0.7L27.9,22c-0.4,0.8,0.4,1.7,1.3,1.5l15.2-4C45.3,19.3,45.8,18.3,45.4,17.4z M46.8,22.9
		c-0.1-1-1.1-1.6-2-1.3l-15.1,4c-0.9,0.2-1.1,1.4-0.4,1.9l12.4,9.2c0.8,0.6,1.9,0.4,2.3-0.5c1.9-3.2,2.9-6.9,2.9-10.8
		C46.9,24.5,46.9,23.7,46.8,22.9z M40.4,38.2L28.1,29c-0.7-0.5-1.8,0-1.7,0.9l0.5,15.2c0,1,0.9,1.7,1.8,1.5
		c4.6-0.7,8.7-2.9,11.9-6.1C41.3,39.9,41.2,38.8,40.4,38.2z M24.4,30c0-0.9-1.1-1.4-1.8-0.8L11,39c-0.7,0.6-0.8,1.8,0,2.4
		c3.3,3,7.5,4.9,12.1,5.4c1,0.1,1.8-0.7,1.8-1.7L24.4,30z M22.3,22.2L15.1,8.4c-0.5-0.9-1.6-1.1-2.3-0.6c-3.7,2.7-6.5,6.5-8,11
		c-0.3,0.9,0.3,1.9,1.2,2l15.1,2.9C22,24,22.8,23,22.3,22.2z M20.8,25.8L5.7,22.8c-1-0.2-1.9,0.5-1.9,1.5c0,0.3,0,0.7,0,1.1
		c0,4.4,1.3,8.4,3.5,11.8c0.5,0.8,1.6,1,2.4,0.3l11.6-9.9C22,27.1,21.7,25.9,20.8,25.8z M45.4,17.4c-1.7-4.4-4.9-8.1-8.8-10.5
		c-0.8-0.5-1.9-0.2-2.3,0.7L27.9,22c-0.4,0.8,0.4,1.7,1.3,1.5l15.2-4C45.3,19.3,45.8,18.3,45.4,17.4z M46.8,22.9
		c-0.1-1-1.1-1.6-2-1.3l-15.1,4c-0.9,0.2-1.1,1.4-0.4,1.9l12.4,9.2c0.8,0.6,1.9,0.4,2.3-0.5c1.9-3.2,2.9-6.9,2.9-10.8
		C46.9,24.5,46.9,23.7,46.8,22.9z M20.8,25.8L5.7,22.8c-1-0.2-1.9,0.5-1.9,1.5c0,0.3,0,0.7,0,1.1c0,4.4,1.3,8.4,3.5,11.8
		c0.5,0.8,1.6,1,2.4,0.3l11.6-9.9C22,27.1,21.7,25.9,20.8,25.8z M22.3,22.2L15.1,8.4c-0.5-0.9-1.6-1.1-2.3-0.6
		c-3.7,2.7-6.5,6.5-8,11c-0.3,0.9,0.3,1.9,1.2,2l15.1,2.9C22,24,22.8,23,22.3,22.2z M24.4,30c0-0.9-1.1-1.4-1.8-0.8L11,39
		c-0.7,0.6-0.8,1.8,0,2.4c3.3,3,7.5,4.9,12.1,5.4c1,0.1,1.8-0.7,1.8-1.7L24.4,30z M40.4,38.2L28.1,29c-0.7-0.5-1.8,0-1.7,0.9
		l0.5,15.2c0,1,0.9,1.7,1.8,1.5c4.6-0.7,8.7-2.9,11.9-6.1C41.3,39.9,41.2,38.8,40.4,38.2z M45.4,17.4c-1.7-4.4-4.9-8.1-8.8-10.5
		c-0.8-0.5-1.9-0.2-2.3,0.7L27.9,22c-0.4,0.8,0.4,1.7,1.3,1.5l15.2-4C45.3,19.3,45.8,18.3,45.4,17.4z M46.8,22.9
		c-0.1-1-1.1-1.6-2-1.3l-15.1,4c-0.9,0.2-1.1,1.4-0.4,1.9l12.4,9.2c0.8,0.6,1.9,0.4,2.3-0.5c1.9-3.2,2.9-6.9,2.9-10.8
		C46.9,24.5,46.9,23.7,46.8,22.9z M40.4,38.2L28.1,29c-0.7-0.5-1.8,0-1.7,0.9l0.5,15.2c0,1,0.9,1.7,1.8,1.5
		c4.6-0.7,8.7-2.9,11.9-6.1C41.3,39.9,41.2,38.8,40.4,38.2z M24.4,30c0-0.9-1.1-1.4-1.8-0.8L11,39c-0.7,0.6-0.8,1.8,0,2.4
		c3.3,3,7.5,4.9,12.1,5.4c1,0.1,1.8-0.7,1.8-1.7L24.4,30z M22.3,22.2L15.1,8.4c-0.5-0.9-1.6-1.1-2.3-0.6c-3.7,2.7-6.5,6.5-8,11
		c-0.3,0.9,0.3,1.9,1.2,2l15.1,2.9C22,24,22.8,23,22.3,22.2z M20.8,25.8L5.7,22.8c-1-0.2-1.9,0.5-1.9,1.5c0,0.3,0,0.7,0,1.1
		c0,4.4,1.3,8.4,3.5,11.8c0.5,0.8,1.6,1,2.4,0.3l11.6-9.9C22,27.1,21.7,25.9,20.8,25.8z M45.4,17.4c-1.7-4.4-4.9-8.1-8.8-10.5
		c-0.8-0.5-1.9-0.2-2.3,0.7L27.9,22c-0.4,0.8,0.4,1.7,1.3,1.5l15.2-4C45.3,19.3,45.8,18.3,45.4,17.4z M46.8,22.9
		c-0.1-1-1.1-1.6-2-1.3l-15.1,4c-0.9,0.2-1.1,1.4-0.4,1.9l12.4,9.2c0.8,0.6,1.9,0.4,2.3-0.5c1.9-3.2,2.9-6.9,2.9-10.8
		C46.9,24.5,46.9,23.7,46.8,22.9z M20.8,25.8L5.7,22.8c-1-0.2-1.9,0.5-1.9,1.5c0,0.3,0,0.7,0,1.1c0,4.4,1.3,8.4,3.5,11.8
		c0.5,0.8,1.6,1,2.4,0.3l11.6-9.9C22,27.1,21.7,25.9,20.8,25.8z M22.3,22.2L15.1,8.4c-0.5-0.9-1.6-1.1-2.3-0.6
		c-3.7,2.7-6.5,6.5-8,11c-0.3,0.9,0.3,1.9,1.2,2l15.1,2.9C22,24,22.8,23,22.3,22.2z M24.4,30c0-0.9-1.1-1.4-1.8-0.8L11,39
		c-0.7,0.6-0.8,1.8,0,2.4c3.3,3,7.5,4.9,12.1,5.4c1,0.1,1.8-0.7,1.8-1.7L24.4,30z M40.4,38.2L28.1,29c-0.7-0.5-1.8,0-1.7,0.9
		l0.5,15.2c0,1,0.9,1.7,1.8,1.5c4.6-0.7,8.7-2.9,11.9-6.1C41.3,39.9,41.2,38.8,40.4,38.2z M45.4,17.4c-1.7-4.4-4.9-8.1-8.8-10.5
		c-0.8-0.5-1.9-0.2-2.3,0.7L27.9,22c-0.4,0.8,0.4,1.7,1.3,1.5l15.2-4C45.3,19.3,45.8,18.3,45.4,17.4z M46.8,22.9
		c-0.1-1-1.1-1.6-2-1.3l-15.1,4c-0.9,0.2-1.1,1.4-0.4,1.9l12.4,9.2c0.8,0.6,1.9,0.4,2.3-0.5c1.9-3.2,2.9-6.9,2.9-10.8
		C46.9,24.5,46.9,23.7,46.8,22.9z M40.4,38.2L28.1,29c-0.7-0.5-1.8,0-1.7,0.9l0.5,15.2c0,1,0.9,1.7,1.8,1.5
		c4.6-0.7,8.7-2.9,11.9-6.1C41.3,39.9,41.2,38.8,40.4,38.2z M24.4,30c0-0.9-1.1-1.4-1.8-0.8L11,39c-0.7,0.6-0.8,1.8,0,2.4
		c3.3,3,7.5,4.9,12.1,5.4c1,0.1,1.8-0.7,1.8-1.7L24.4,30z M22.3,22.2L15.1,8.4c-0.5-0.9-1.6-1.1-2.3-0.6c-3.7,2.7-6.5,6.5-8,11
		c-0.3,0.9,0.3,1.9,1.2,2l15.1,2.9C22,24,22.8,23,22.3,22.2z M20.8,25.8L5.7,22.8c-1-0.2-1.9,0.5-1.9,1.5c0,0.3,0,0.7,0,1.1
		c0,4.4,1.3,8.4,3.5,11.8c0.5,0.8,1.6,1,2.4,0.3l11.6-9.9C22,27.1,21.7,25.9,20.8,25.8z M45.4,17.4c-1.7-4.4-4.9-8.1-8.8-10.5
		c-0.8-0.5-1.9-0.2-2.3,0.7L27.9,22c-0.4,0.8,0.4,1.7,1.3,1.5l15.2-4C45.3,19.3,45.8,18.3,45.4,17.4z M46.8,22.9
		c-0.1-1-1.1-1.6-2-1.3l-15.1,4c-0.9,0.2-1.1,1.4-0.4,1.9l12.4,9.2c0.8,0.6,1.9,0.4,2.3-0.5c1.9-3.2,2.9-6.9,2.9-10.8
		C46.9,24.5,46.9,23.7,46.8,22.9z M20.8,25.8L5.7,22.8c-1-0.2-1.9,0.5-1.9,1.5c0,0.3,0,0.7,0,1.1c0,4.4,1.3,8.4,3.5,11.8
		c0.5,0.8,1.6,1,2.4,0.3l11.6-9.9C22,27.1,21.7,25.9,20.8,25.8z M22.3,22.2L15.1,8.4c-0.5-0.9-1.6-1.1-2.3-0.6
		c-3.7,2.7-6.5,6.5-8,11c-0.3,0.9,0.3,1.9,1.2,2l15.1,2.9C22,24,22.8,23,22.3,22.2z M24.4,30c0-0.9-1.1-1.4-1.8-0.8L11,39
		c-0.7,0.6-0.8,1.8,0,2.4c3.3,3,7.5,4.9,12.1,5.4c1,0.1,1.8-0.7,1.8-1.7L24.4,30z M40.4,38.2L28.1,29c-0.7-0.5-1.8,0-1.7,0.9
		l0.5,15.2c0,1,0.9,1.7,1.8,1.5c4.6-0.7,8.7-2.9,11.9-6.1C41.3,39.9,41.2,38.8,40.4,38.2z M45.4,17.4c-1.7-4.4-4.9-8.1-8.8-10.5
		c-0.8-0.5-1.9-0.2-2.3,0.7L27.9,22c-0.4,0.8,0.4,1.7,1.3,1.5l15.2-4C45.3,19.3,45.8,18.3,45.4,17.4z M46.8,22.9
		c-0.1-1-1.1-1.6-2-1.3l-15.1,4c-0.9,0.2-1.1,1.4-0.4,1.9l12.4,9.2c0.8,0.6,1.9,0.4,2.3-0.5c1.9-3.2,2.9-6.9,2.9-10.8
		C46.9,24.5,46.9,23.7,46.8,22.9z M40.4,38.2L28.1,29c-0.7-0.5-1.8,0-1.7,0.9l0.5,15.2c0,1,0.9,1.7,1.8,1.5
		c4.6-0.7,8.7-2.9,11.9-6.1C41.3,39.9,41.2,38.8,40.4,38.2z M24.4,30c0-0.9-1.1-1.4-1.8-0.8L11,39c-0.7,0.6-0.8,1.8,0,2.4
		c3.3,3,7.5,4.9,12.1,5.4c1,0.1,1.8-0.7,1.8-1.7L24.4,30z M22.3,22.2L15.1,8.4c-0.5-0.9-1.6-1.1-2.3-0.6c-3.7,2.7-6.5,6.5-8,11
		c-0.3,0.9,0.3,1.9,1.2,2l15.1,2.9C22,24,22.8,23,22.3,22.2z M20.8,25.8L5.7,22.8c-1-0.2-1.9,0.5-1.9,1.5c0,0.3,0,0.7,0,1.1
		c0,4.4,1.3,8.4,3.5,11.8c0.5,0.8,1.6,1,2.4,0.3l11.6-9.9C22,27.1,21.7,25.9,20.8,25.8z M45.4,17.4c-1.7-4.4-4.9-8.1-8.8-10.5
		c-0.8-0.5-1.9-0.2-2.3,0.7L27.9,22c-0.4,0.8,0.4,1.7,1.3,1.5l15.2-4C45.3,19.3,45.8,18.3,45.4,17.4z M46.8,22.9
		c-0.1-1-1.1-1.6-2-1.3l-15.1,4c-0.9,0.2-1.1,1.4-0.4,1.9l12.4,9.2c0.8,0.6,1.9,0.4,2.3-0.5c1.9-3.2,2.9-6.9,2.9-10.8
		C46.9,24.5,46.9,23.7,46.8,22.9z M20.8,25.8L5.7,22.8c-1-0.2-1.9,0.5-1.9,1.5c0,0.3,0,0.7,0,1.1c0,4.4,1.3,8.4,3.5,11.8
		c0.5,0.8,1.6,1,2.4,0.3l11.6-9.9C22,27.1,21.7,25.9,20.8,25.8z M22.3,22.2L15.1,8.4c-0.5-0.9-1.6-1.1-2.3-0.6
		c-3.7,2.7-6.5,6.5-8,11c-0.3,0.9,0.3,1.9,1.2,2l15.1,2.9C22,24,22.8,23,22.3,22.2z M24.4,30c0-0.9-1.1-1.4-1.8-0.8L11,39
		c-0.7,0.6-0.8,1.8,0,2.4c3.3,3,7.5,4.9,12.1,5.4c1,0.1,1.8-0.7,1.8-1.7L24.4,30z M40.4,38.2L28.1,29c-0.7-0.5-1.8,0-1.7,0.9
		l0.5,15.2c0,1,0.9,1.7,1.8,1.5c4.6-0.7,8.7-2.9,11.9-6.1C41.3,39.9,41.2,38.8,40.4,38.2z M45.4,17.4c-1.7-4.4-4.9-8.1-8.8-10.5
		c-0.8-0.5-1.9-0.2-2.3,0.7L27.9,22c-0.4,0.8,0.4,1.7,1.3,1.5l15.2-4C45.3,19.3,45.8,18.3,45.4,17.4z M46.8,22.9
		c-0.1-1-1.1-1.6-2-1.3l-15.1,4c-0.9,0.2-1.1,1.4-0.4,1.9l12.4,9.2c0.8,0.6,1.9,0.4,2.3-0.5c1.9-3.2,2.9-6.9,2.9-10.8
		C46.9,24.5,46.9,23.7,46.8,22.9z M40.4,38.2L28.1,29c-0.7-0.5-1.8,0-1.7,0.9l0.5,15.2c0,1,0.9,1.7,1.8,1.5
		c4.6-0.7,8.7-2.9,11.9-6.1C41.3,39.9,41.2,38.8,40.4,38.2z M24.4,30c0-0.9-1.1-1.4-1.8-0.8L11,39c-0.7,0.6-0.8,1.8,0,2.4
		c3.3,3,7.5,4.9,12.1,5.4c1,0.1,1.8-0.7,1.8-1.7L24.4,30z M22.3,22.2L15.1,8.4c-0.5-0.9-1.6-1.1-2.3-0.6c-3.7,2.7-6.5,6.5-8,11
		c-0.3,0.9,0.3,1.9,1.2,2l15.1,2.9C22,24,22.8,23,22.3,22.2z M20.8,25.8L5.7,22.8c-1-0.2-1.9,0.5-1.9,1.5c0,0.3,0,0.7,0,1.1
		c0,4.4,1.3,8.4,3.5,11.8c0.5,0.8,1.6,1,2.4,0.3l11.6-9.9C22,27.1,21.7,25.9,20.8,25.8z M45.4,17.4c-1.7-4.4-4.9-8.1-8.8-10.5
		c-0.8-0.5-1.9-0.2-2.3,0.7L27.9,22c-0.4,0.8,0.4,1.7,1.3,1.5l15.2-4C45.3,19.3,45.8,18.3,45.4,17.4z M46.8,22.9
		c-0.1-1-1.1-1.6-2-1.3l-15.1,4c-0.9,0.2-1.1,1.4-0.4,1.9l12.4,9.2c0.8,0.6,1.9,0.4,2.3-0.5c1.9-3.2,2.9-6.9,2.9-10.8
		C46.9,24.5,46.9,23.7,46.8,22.9z M20.8,25.8L5.7,22.8c-1-0.2-1.9,0.5-1.9,1.5c0,0.3,0,0.7,0,1.1c0,4.4,1.3,8.4,3.5,11.8
		c0.5,0.8,1.6,1,2.4,0.3l11.6-9.9C22,27.1,21.7,25.9,20.8,25.8z M22.3,22.2L15.1,8.4c-0.5-0.9-1.6-1.1-2.3-0.6
		c-3.7,2.7-6.5,6.5-8,11c-0.3,0.9,0.3,1.9,1.2,2l15.1,2.9C22,24,22.8,23,22.3,22.2z M24.4,30c0-0.9-1.1-1.4-1.8-0.8L11,39
		c-0.7,0.6-0.8,1.8,0,2.4c3.3,3,7.5,4.9,12.1,5.4c1,0.1,1.8-0.7,1.8-1.7L24.4,30z M40.4,38.2L28.1,29c-0.7-0.5-1.8,0-1.7,0.9
		l0.5,15.2c0,1,0.9,1.7,1.8,1.5c4.6-0.7,8.7-2.9,11.9-6.1C41.3,39.9,41.2,38.8,40.4,38.2z M45.4,17.4c-1.7-4.4-4.9-8.1-8.8-10.5
		c-0.8-0.5-1.9-0.2-2.3,0.7L27.9,22c-0.4,0.8,0.4,1.7,1.3,1.5l15.2-4C45.3,19.3,45.8,18.3,45.4,17.4z M46.8,22.9
		c-0.1-1-1.1-1.6-2-1.3l-15.1,4c-0.9,0.2-1.1,1.4-0.4,1.9l12.4,9.2c0.8,0.6,1.9,0.4,2.3-0.5c1.9-3.2,2.9-6.9,2.9-10.8
		C46.9,24.5,46.9,23.7,46.8,22.9z M40.4,38.2L28.1,29c-0.7-0.5-1.8,0-1.7,0.9l0.5,15.2c0,1,0.9,1.7,1.8,1.5
		c4.6-0.7,8.7-2.9,11.9-6.1C41.3,39.9,41.2,38.8,40.4,38.2z M24.4,30c0-0.9-1.1-1.4-1.8-0.8L11,39c-0.7,0.6-0.8,1.8,0,2.4
		c3.3,3,7.5,4.9,12.1,5.4c1,0.1,1.8-0.7,1.8-1.7L24.4,30z M22.3,22.2L15.1,8.4c-0.5-0.9-1.6-1.1-2.3-0.6c-3.7,2.7-6.5,6.5-8,11
		c-0.3,0.9,0.3,1.9,1.2,2l15.1,2.9C22,24,22.8,23,22.3,22.2z M20.8,25.8L5.7,22.8c-1-0.2-1.9,0.5-1.9,1.5c0,0.3,0,0.7,0,1.1
		c0,4.4,1.3,8.4,3.5,11.8c0.5,0.8,1.6,1,2.4,0.3l11.6-9.9C22,27.1,21.7,25.9,20.8,25.8z M45.4,17.4c-1.7-4.4-4.9-8.1-8.8-10.5
		c-0.8-0.5-1.9-0.2-2.3,0.7L27.9,22c-0.4,0.8,0.4,1.7,1.3,1.5l15.2-4C45.3,19.3,45.8,18.3,45.4,17.4z M46.8,22.9
		c-0.1-1-1.1-1.6-2-1.3l-15.1,4c-0.9,0.2-1.1,1.4-0.4,1.9l12.4,9.2c0.8,0.6,1.9,0.4,2.3-0.5c1.9-3.2,2.9-6.9,2.9-10.8
		C46.9,24.5,46.9,23.7,46.8,22.9z M20.8,25.8L5.7,22.8c-1-0.2-1.9,0.5-1.9,1.5c0,0.3,0,0.7,0,1.1c0,4.4,1.3,8.4,3.5,11.8
		c0.5,0.8,1.6,1,2.4,0.3l11.6-9.9C22,27.1,21.7,25.9,20.8,25.8z M22.3,22.2L15.1,8.4c-0.5-0.9-1.6-1.1-2.3-0.6
		c-3.7,2.7-6.5,6.5-8,11c-0.3,0.9,0.3,1.9,1.2,2l15.1,2.9C22,24,22.8,23,22.3,22.2z M24.4,30c0-0.9-1.1-1.4-1.8-0.8L11,39
		c-0.7,0.6-0.8,1.8,0,2.4c3.3,3,7.5,4.9,12.1,5.4c1,0.1,1.8-0.7,1.8-1.7L24.4,30z M40.4,38.2L28.1,29c-0.7-0.5-1.8,0-1.7,0.9
		l0.5,15.2c0,1,0.9,1.7,1.8,1.5c4.6-0.7,8.7-2.9,11.9-6.1C41.3,39.9,41.2,38.8,40.4,38.2z M45.4,17.4c-1.7-4.4-4.9-8.1-8.8-10.5
		c-0.8-0.5-1.9-0.2-2.3,0.7L27.9,22c-0.4,0.8,0.4,1.7,1.3,1.5l15.2-4C45.3,19.3,45.8,18.3,45.4,17.4z M46.8,22.9
		c-0.1-1-1.1-1.6-2-1.3l-15.1,4c-0.9,0.2-1.1,1.4-0.4,1.9l12.4,9.2c0.8,0.6,1.9,0.4,2.3-0.5c1.9-3.2,2.9-6.9,2.9-10.8
		C46.9,24.5,46.9,23.7,46.8,22.9z M40.4,38.2L28.1,29c-0.7-0.5-1.8,0-1.7,0.9l0.5,15.2c0,1,0.9,1.7,1.8,1.5
		c4.6-0.7,8.7-2.9,11.9-6.1C41.3,39.9,41.2,38.8,40.4,38.2z M24.4,30c0-0.9-1.1-1.4-1.8-0.8L11,39c-0.7,0.6-0.8,1.8,0,2.4
		c3.3,3,7.5,4.9,12.1,5.4c1,0.1,1.8-0.7,1.8-1.7L24.4,30z M22.3,22.2L15.1,8.4c-0.5-0.9-1.6-1.1-2.3-0.6c-3.7,2.7-6.5,6.5-8,11
		c-0.3,0.9,0.3,1.9,1.2,2l15.1,2.9C22,24,22.8,23,22.3,22.2z M20.8,25.8L5.7,22.8c-1-0.2-1.9,0.5-1.9,1.5c0,0.3,0,0.7,0,1.1
		c0,4.4,1.3,8.4,3.5,11.8c0.5,0.8,1.6,1,2.4,0.3l11.6-9.9C22,27.1,21.7,25.9,20.8,25.8z M45.4,17.4c-1.7-4.4-4.9-8.1-8.8-10.5
		c-0.8-0.5-1.9-0.2-2.3,0.7L27.9,22c-0.4,0.8,0.4,1.7,1.3,1.5l15.2-4C45.3,19.3,45.8,18.3,45.4,17.4z M46.8,22.9
		c-0.1-1-1.1-1.6-2-1.3l-15.1,4c-0.9,0.2-1.1,1.4-0.4,1.9l12.4,9.2c0.8,0.6,1.9,0.4,2.3-0.5c1.9-3.2,2.9-6.9,2.9-10.8
		C46.9,24.5,46.9,23.7,46.8,22.9z M20.8,25.8L5.7,22.8c-1-0.2-1.9,0.5-1.9,1.5c0,0.3,0,0.7,0,1.1c0,4.4,1.3,8.4,3.5,11.8
		c0.5,0.8,1.6,1,2.4,0.3l11.6-9.9C22,27.1,21.7,25.9,20.8,25.8z M22.3,22.2L15.1,8.4c-0.5-0.9-1.6-1.1-2.3-0.6
		c-3.7,2.7-6.5,6.5-8,11c-0.3,0.9,0.3,1.9,1.2,2l15.1,2.9C22,24,22.8,23,22.3,22.2z M24.4,30c0-0.9-1.1-1.4-1.8-0.8L11,39
		c-0.7,0.6-0.8,1.8,0,2.4c3.3,3,7.5,4.9,12.1,5.4c1,0.1,1.8-0.7,1.8-1.7L24.4,30z M40.4,38.2L28.1,29c-0.7-0.5-1.8,0-1.7,0.9
		l0.5,15.2c0,1,0.9,1.7,1.8,1.5c4.6-0.7,8.7-2.9,11.9-6.1C41.3,39.9,41.2,38.8,40.4,38.2z M45.4,17.4c-1.7-4.4-4.9-8.1-8.8-10.5
		c-0.8-0.5-1.9-0.2-2.3,0.7L27.9,22c-0.4,0.8,0.4,1.7,1.3,1.5l15.2-4C45.3,19.3,45.8,18.3,45.4,17.4z M46.8,22.9
		c-0.1-1-1.1-1.6-2-1.3l-15.1,4c-0.9,0.2-1.1,1.4-0.4,1.9l12.4,9.2c0.8,0.6,1.9,0.4,2.3-0.5c1.9-3.2,2.9-6.9,2.9-10.8
		C46.9,24.5,46.9,23.7,46.8,22.9z M40.4,38.2L28.1,29c-0.7-0.5-1.8,0-1.7,0.9l0.5,15.2c0,1,0.9,1.7,1.8,1.5
		c4.6-0.7,8.7-2.9,11.9-6.1C41.3,39.9,41.2,38.8,40.4,38.2z M24.4,30c0-0.9-1.1-1.4-1.8-0.8L11,39c-0.7,0.6-0.8,1.8,0,2.4
		c3.3,3,7.5,4.9,12.1,5.4c1,0.1,1.8-0.7,1.8-1.7L24.4,30z M22.3,22.2L15.1,8.4c-0.5-0.9-1.6-1.1-2.3-0.6c-3.7,2.7-6.5,6.5-8,11
		c-0.3,0.9,0.3,1.9,1.2,2l15.1,2.9C22,24,22.8,23,22.3,22.2z M20.8,25.8L5.7,22.8c-1-0.2-1.9,0.5-1.9,1.5c0,0.3,0,0.7,0,1.1
		c0,4.4,1.3,8.4,3.5,11.8c0.5,0.8,1.6,1,2.4,0.3l11.6-9.9C22,27.1,21.7,25.9,20.8,25.8z M45.4,17.4c-1.7-4.4-4.9-8.1-8.8-10.5
		c-0.8-0.5-1.9-0.2-2.3,0.7L27.9,22c-0.4,0.8,0.4,1.7,1.3,1.5l15.2-4C45.3,19.3,45.8,18.3,45.4,17.4z M46.8,22.9
		c-0.1-1-1.1-1.6-2-1.3l-15.1,4c-0.9,0.2-1.1,1.4-0.4,1.9l12.4,9.2c0.8,0.6,1.9,0.4,2.3-0.5c1.9-3.2,2.9-6.9,2.9-10.8
		C46.9,24.5,46.9,23.7,46.8,22.9z M20.8,25.8L5.7,22.8c-1-0.2-1.9,0.5-1.9,1.5c0,0.3,0,0.7,0,1.1c0,4.4,1.3,8.4,3.5,11.8
		c0.5,0.8,1.6,1,2.4,0.3l11.6-9.9C22,27.1,21.7,25.9,20.8,25.8z M22.3,22.2L15.1,8.4c-0.5-0.9-1.6-1.1-2.3-0.6
		c-3.7,2.7-6.5,6.5-8,11c-0.3,0.9,0.3,1.9,1.2,2l15.1,2.9C22,24,22.8,23,22.3,22.2z M24.4,30c0-0.9-1.1-1.4-1.8-0.8L11,39
		c-0.7,0.6-0.8,1.8,0,2.4c3.3,3,7.5,4.9,12.1,5.4c1,0.1,1.8-0.7,1.8-1.7L24.4,30z M40.4,38.2L28.1,29c-0.7-0.5-1.8,0-1.7,0.9
		l0.5,15.2c0,1,0.9,1.7,1.8,1.5c4.6-0.7,8.7-2.9,11.9-6.1C41.3,39.9,41.2,38.8,40.4,38.2z M45.4,17.4c-1.7-4.4-4.9-8.1-8.8-10.5
		c-0.8-0.5-1.9-0.2-2.3,0.7L27.9,22c-0.4,0.8,0.4,1.7,1.3,1.5l15.2-4C45.3,19.3,45.8,18.3,45.4,17.4z M46.8,22.9
		c-0.1-1-1.1-1.6-2-1.3l-15.1,4c-0.9,0.2-1.1,1.4-0.4,1.9l12.4,9.2c0.8,0.6,1.9,0.4,2.3-0.5c1.9-3.2,2.9-6.9,2.9-10.8
		C46.9,24.5,46.9,23.7,46.8,22.9z M40.4,38.2L28.1,29c-0.7-0.5-1.8,0-1.7,0.9l0.5,15.2c0,1,0.9,1.7,1.8,1.5
		c4.6-0.7,8.7-2.9,11.9-6.1C41.3,39.9,41.2,38.8,40.4,38.2z M24.4,30c0-0.9-1.1-1.4-1.8-0.8L11,39c-0.7,0.6-0.8,1.8,0,2.4
		c3.3,3,7.5,4.9,12.1,5.4c1,0.1,1.8-0.7,1.8-1.7L24.4,30z M22.3,22.2L15.1,8.4c-0.5-0.9-1.6-1.1-2.3-0.6c-3.7,2.7-6.5,6.5-8,11
		c-0.3,0.9,0.3,1.9,1.2,2l15.1,2.9C22,24,22.8,23,22.3,22.2z M20.8,25.8L5.7,22.8c-1-0.2-1.9,0.5-1.9,1.5c0,0.3,0,0.7,0,1.1
		c0,4.4,1.3,8.4,3.5,11.8c0.5,0.8,1.6,1,2.4,0.3l11.6-9.9C22,27.1,21.7,25.9,20.8,25.8z M45.4,17.4c-1.7-4.4-4.9-8.1-8.8-10.5
		c-0.8-0.5-1.9-0.2-2.3,0.7L27.9,22c-0.4,0.8,0.4,1.7,1.3,1.5l15.2-4C45.3,19.3,45.8,18.3,45.4,17.4z M46.8,22.9
		c-0.1-1-1.1-1.6-2-1.3l-15.1,4c-0.9,0.2-1.1,1.4-0.4,1.9l12.4,9.2c0.8,0.6,1.9,0.4,2.3-0.5c1.9-3.2,2.9-6.9,2.9-10.8
		C46.9,24.5,46.9,23.7,46.8,22.9z"/>
	<path class="st0" d="M20.8,25.8L5.7,22.8c-1-0.2-1.9,0.5-1.9,1.5c0,0.3,0,0.7,0,1.1c0,4.4,1.3,8.4,3.5,11.8c0.5,0.8,1.6,1,2.4,0.3
		l11.6-9.9C22,27.1,21.7,25.9,20.8,25.8z M22.3,22.2L15.1,8.4c-0.5-0.9-1.6-1.1-2.3-0.6c-3.7,2.7-6.5,6.5-8,11
		c-0.3,0.9,0.3,1.9,1.2,2l15.1,2.9C22,24,22.8,23,22.3,22.2z M24.4,30c0-0.9-1.1-1.4-1.8-0.8L11,39c-0.7,0.6-0.8,1.8,0,2.4
		c3.3,3,7.5,4.9,12.1,5.4c1,0.1,1.8-0.7,1.8-1.7L24.4,30z M40.4,38.2L28.1,29c-0.7-0.5-1.8,0-1.7,0.9l0.5,15.2c0,1,0.9,1.7,1.8,1.5
		c4.6-0.7,8.7-2.9,11.9-6.1C41.3,39.9,41.2,38.8,40.4,38.2z M45.4,17.4c-1.7-4.4-4.9-8.1-8.8-10.5c-0.8-0.5-1.9-0.2-2.3,0.7L27.9,22
		c-0.4,0.8,0.4,1.7,1.3,1.5l15.2-4C45.3,19.3,45.8,18.3,45.4,17.4z M46.8,22.9c-0.1-1-1.1-1.6-2-1.3l-15.1,4
		c-0.9,0.2-1.1,1.4-0.4,1.9l12.4,9.2c0.8,0.6,1.9,0.4,2.3-0.5c1.9-3.2,2.9-6.9,2.9-10.8C46.9,24.5,46.9,23.7,46.8,22.9z"/>
	<path class="st1" d="M25.3,1.4C12.2,1.4,1.4,12.1,1.4,25.3c0,13.2,10.7,23.9,23.9,23.9c13.2,0,23.9-10.7,23.9-23.9
		C49.3,12.1,38.5,1.4,25.3,1.4z M36.6,6.9c4,2.4,7.1,6.1,8.8,10.5c0.4,0.9-0.2,1.9-1.1,2.1l-15.2,4c-0.9,0.2-1.6-0.7-1.3-1.5
		l6.4-14.4C34.7,6.8,35.7,6.4,36.6,6.9z M4.8,18.8c1.4-4.5,4.3-8.3,8-11c0.8-0.6,1.9-0.3,2.3,0.6l7.2,13.8c0.4,0.8-0.3,1.7-1.2,1.6
		L6,20.9C5.1,20.7,4.5,19.7,4.8,18.8z M7.3,37.2c-2.2-3.4-3.5-7.5-3.5-11.8c0-0.4,0-0.7,0-1.1c0-1,1-1.7,1.9-1.5l15.1,2.9
		c0.9,0.2,1.2,1.3,0.5,1.9L9.7,37.5C9,38.1,7.8,38,7.3,37.2z M23.1,46.8c-4.6-0.5-8.8-2.4-12.1-5.4c-0.7-0.6-0.7-1.8,0-2.4l11.5-9.8
		c0.7-0.6,1.8-0.1,1.8,0.8l0.5,15.2C24.9,46.1,24,46.9,23.1,46.8z M24.1,21.3L16.8,7.4c-0.4-0.9,0-1.9,0.8-2.3
		c2.4-0.9,5-1.4,7.7-1.4c2.1,0,4.2,0.3,6.1,0.9c0.9,0.3,1.4,1.3,1,2.2l-6.4,14.4C25.7,22.1,24.5,22.1,24.1,21.3z M40.6,40.6
		c-3.2,3.2-7.3,5.3-11.9,6.1c-1,0.2-1.8-0.6-1.8-1.5l-0.5-15.2c0-0.9,1-1.5,1.7-0.9l12.3,9.2C41.2,38.8,41.3,39.9,40.6,40.6z
		 M41.7,36.6l-12.4-9.2c-0.7-0.5-0.5-1.7,0.4-1.9l15.1-4c0.9-0.3,1.9,0.4,2,1.3c0.1,0.8,0.2,1.6,0.2,2.5c0,3.9-1.1,7.7-2.9,10.8
		C43.5,37,42.4,37.2,41.7,36.6z"/>
	<path class="st0" d="M21.2,23.8L6,20.9c-0.9-0.2-1.5-1.1-1.2-2c1.4-4.5,4.3-8.3,8-11c0.8-0.6,1.9-0.3,2.3,0.6l7.2,13.8
		C22.8,23,22,24,21.2,23.8z"/>
	<path class="st0" d="M21.3,27.6L9.7,37.5C9,38.1,7.8,38,7.3,37.2c-2.2-3.4-3.5-7.5-3.5-11.8c0-0.4,0-0.7,0-1.1c0-1,1-1.7,1.9-1.5
		l15.1,2.9C21.7,25.9,22,27.1,21.3,27.6z"/>
	<path class="st0" d="M24.8,45.1c0,1-0.8,1.8-1.8,1.7c-4.6-0.5-8.8-2.4-12.1-5.4c-0.7-0.6-0.7-1.8,0-2.4l11.5-9.8
		c0.7-0.6,1.8-0.1,1.8,0.8L24.8,45.1z"/>
	<path class="st0" d="M40.6,40.6c-3.2,3.2-7.3,5.3-11.9,6.1c-1,0.2-1.8-0.6-1.8-1.5l-0.5-15.2c0-0.9,1-1.5,1.7-0.9l12.3,9.2
		C41.2,38.8,41.3,39.9,40.6,40.6z"/>
	<path class="st0" d="M31.5,4.6c-1.9-0.6-4-0.9-6.1-0.9c-2.7,0-5.3,0.5-7.7,1.4c-0.9,0.3-1.3,1.4-0.8,2.3l7.3,13.9
		c0.4,0.8,1.6,0.8,2-0.1l6.4-14.4C32.8,6,32.4,4.9,31.5,4.6z"/>
	<path class="st0" d="M44.3,19.6l-15.2,4c-0.9,0.2-1.6-0.7-1.3-1.5l6.4-14.4c0.4-0.9,1.5-1.2,2.3-0.7c4,2.4,7.1,6.1,8.8,10.5
		C45.8,18.3,45.3,19.3,44.3,19.6z"/>
	<path class="st0" d="M46.9,25.3c0,3.9-1.1,7.7-2.9,10.8c-0.5,0.8-1.6,1-2.3,0.5l-12.4-9.2c-0.7-0.5-0.5-1.7,0.4-1.9l15.1-4
		c0.9-0.3,1.9,0.4,2,1.3C46.9,23.7,46.9,24.5,46.9,25.3z"/>
</g>
</svg>
