<svg xmlns="http://www.w3.org/2000/svg" viewBox="0 0 121.02 166.46"><defs><style>.cls-1{fill:#f15e60;}</style></defs><g id="Layer_2" data-name="Layer 2"><g id="Layer_1-2" data-name="Layer 1"><path class="cls-1" d="M95.75,0H25.28A25.27,25.27,0,0,0,0,25.27V141.19a25.27,25.27,0,0,0,25.28,25.27H95.75A25.27,25.27,0,0,0,121,141.19V25.27A25.27,25.27,0,0,0,95.75,0ZM47.54,10.85a5.09,5.09,0,0,1,3.61-1.49H69.87a5.11,5.11,0,1,1,0,10.21H51.15a5.11,5.11,0,0,1-3.61-8.72Zm13,17.33A21.33,21.33,0,1,1,39.18,49.51,21.33,21.33,0,0,1,60.51,28.18ZM56,82.61V73.67H65v8.94H62.82l4.59,11.51-6.64,11.5L53.62,95.27l5.09-12.66ZM98.53,153.7h-76v-4.43h76Zm0-7.49h-76v-4.43h76Zm0-7.49h-76v-4.43h76Zm.79-12H21.7V106.33A38.82,38.82,0,0,1,39.52,73.67L46,85,60.51,110,75,85l6.51-11.29A39.16,39.16,0,0,1,88,78.89a38.7,38.7,0,0,1,11.37,27.44Z"/></g></g></svg>