<svg width="182" height="182" viewBox="0 0 182 182" fill="none" xmlns="http://www.w3.org/2000/svg">
<path d="M51.7147 68.3567C43.7472 79.8099 44.7402 94.7069 50.8237 106.877C50.9677 107.165 51.1207 107.45 51.2707 107.738C51.3637 107.921 51.4537 108.107 51.5527 108.29C51.6127 108.395 51.6727 108.5 51.7327 108.605C51.8347 108.797 51.9427 108.98 52.0507 109.172C52.2397 109.505 52.4316 109.835 52.6296 110.168C52.7406 110.351 52.8456 110.531 52.9596 110.714C53.1786 111.065 53.4006 111.416 53.6376 111.77C53.7306 111.917 53.8265 112.07 53.9225 112.214C54.2405 112.682 54.5645 113.156 54.8975 113.621C54.9095 113.633 54.9155 113.651 54.9275 113.657C54.9815 113.732 55.0385 113.81 55.0925 113.879C55.3834 114.284 55.6804 114.677 55.9834 115.064C56.0944 115.211 56.2054 115.352 56.3164 115.493C56.5864 115.831 56.8623 116.167 57.1413 116.506C57.2433 116.629 57.3453 116.758 57.4533 116.881C57.8283 117.319 58.2122 117.76 58.6022 118.189C58.6082 118.195 58.6202 118.207 58.6262 118.213C58.6442 118.237 58.6562 118.243 58.6712 118.267C59.0492 118.684 59.4422 119.086 59.8351 119.491C59.9581 119.62 60.0811 119.743 60.2101 119.866C60.5161 120.178 60.8251 120.481 61.1401 120.781C61.269 120.904 61.395 121.027 61.521 121.144C61.941 121.537 62.361 121.924 62.7959 122.305C62.8019 122.311 62.8079 122.317 62.8169 122.317C62.8889 122.386 62.9669 122.446 63.0359 122.509C63.4169 122.836 63.8039 123.166 64.1968 123.487C64.3558 123.616 64.5148 123.739 64.6768 123.868C64.9918 124.12 65.3158 124.372 65.6397 124.624C65.8137 124.753 65.9817 124.882 66.1557 125.017C66.5127 125.281 66.8727 125.539 67.2356 125.791C67.3706 125.89 67.4996 125.983 67.6316 126.073C67.6706 126.097 67.7036 126.127 67.7396 126.148C68.0846 126.388 68.4386 126.616 68.7955 126.844C68.9455 126.943 69.0955 127.048 69.2455 127.15C69.7915 127.489 70.3374 127.831 70.8924 128.158C71.0454 128.245 71.1984 128.329 71.3484 128.416C71.7593 128.65 72.1673 128.878 72.5843 129.106C72.8063 129.229 73.0403 129.34 73.2682 129.457C73.5652 129.61 73.8532 129.769 74.1532 129.913C74.2192 129.949 74.2912 129.982 74.3572 130.012C74.4772 130.072 74.5972 130.129 74.7171 130.189C75.1791 130.411 75.6501 130.627 76.121 130.839C76.22 130.887 76.316 130.926 76.418 130.968C76.958 131.208 77.501 131.436 78.0529 131.649C78.1849 131.709 78.3169 131.754 78.4519 131.808C78.9619 132.006 79.4778 132.201 79.9938 132.381C80.0568 132.405 80.1228 132.423 80.1858 132.444C80.7527 132.642 81.3287 132.831 81.9077 133.008C82.0456 133.05 82.1836 133.095 82.3246 133.131C82.9096 133.314 83.4916 133.524 84.1005 133.635C122.636 140.661 133.822 110.48 133.822 110.48C124.427 122.725 107.739 125.959 91.927 122.362C91.33 122.227 90.7481 122.041 90.1631 121.864C90.0161 121.822 89.8691 121.777 89.7251 121.729C89.1552 121.558 88.5882 121.372 88.0272 121.177C87.9523 121.147 87.8713 121.123 87.7933 121.096C87.2893 120.913 86.7913 120.733 86.2934 120.538C86.1554 120.478 86.0144 120.427 85.8764 120.373C85.3304 120.157 84.7935 119.935 84.2565 119.698C84.1485 119.65 84.0435 119.605 83.9355 119.557C83.4766 119.347 83.0236 119.134 82.5706 118.918C82.4386 118.858 82.3096 118.795 82.1746 118.729C81.8237 118.552 81.4727 118.372 81.1187 118.189C80.8847 118.066 80.6477 117.949 80.4168 117.82C79.9878 117.592 79.5678 117.358 79.1508 117.112C79.0099 117.037 78.8659 116.959 78.7219 116.878C78.1639 116.551 77.6209 116.209 77.075 115.864C76.925 115.771 76.778 115.673 76.631 115.571C76.238 115.319 75.8451 115.055 75.4581 114.791C75.3291 114.704 75.2061 114.608 75.0801 114.527C74.7081 114.263 74.3392 113.993 73.9732 113.723C73.8052 113.6 73.6432 113.477 73.4842 113.348C73.1482 113.096 72.8123 112.838 72.4823 112.568C72.3323 112.451 72.1823 112.328 72.0383 112.211C71.6153 111.866 71.2044 111.521 70.7934 111.161C70.7484 111.125 70.7034 111.086 70.6554 111.044C70.2114 110.657 69.7765 110.258 69.3475 109.856C69.2125 109.742 69.0925 109.625 68.9725 109.508C68.6545 109.202 68.3396 108.899 68.0306 108.581C67.9076 108.458 67.7846 108.341 67.6616 108.218C67.2716 107.813 66.8847 107.408 66.5067 106.994C66.4887 106.976 66.4707 106.952 66.4497 106.934C66.0507 106.496 65.6607 106.049 65.2798 105.599C65.1748 105.476 65.0758 105.359 64.9708 105.236C64.6858 104.897 64.4038 104.546 64.1279 104.192C64.0259 104.069 63.9209 103.94 63.8189 103.811C63.4859 103.376 63.1619 102.95 62.8469 102.515C54.0695 90.5432 50.9137 74.0323 57.9333 60.4702" fill="white"/>
<path d="M76.4491 58.7061C70.6865 67.0035 71.0015 78.0998 75.4952 86.8712C76.2482 88.3411 77.0941 89.766 78.045 91.1249C78.906 92.3608 79.8659 93.8367 81.0088 94.8237C81.4258 95.2796 81.8578 95.7326 82.3047 96.1646C82.4157 96.2816 82.5297 96.3925 82.6437 96.5035C83.0757 96.9205 83.5107 97.3285 83.9636 97.7275C83.9846 97.7455 83.9996 97.7635 84.0206 97.7755C84.0236 97.7815 84.0266 97.7815 84.0326 97.7875C84.5306 98.2254 85.0496 98.6484 85.5745 99.0654C85.6915 99.1524 85.8085 99.2484 85.9255 99.3414C86.4535 99.7463 86.9874 100.139 87.5364 100.52C87.5544 100.532 87.5694 100.544 87.5844 100.556C87.8304 100.727 88.0764 100.877 88.3223 101.042C88.4393 101.117 88.5503 101.201 88.6703 101.27C89.0633 101.522 89.4623 101.768 89.8642 102.002C89.9242 102.038 89.9782 102.065 90.0352 102.101C90.3832 102.299 90.7372 102.5 91.0942 102.692C91.2171 102.761 91.3461 102.821 91.4691 102.884C91.7151 103.013 91.9611 103.142 92.2101 103.271C92.2491 103.289 92.2821 103.307 92.3211 103.319C92.828 103.571 93.341 103.811 93.866 104.039C93.977 104.087 94.091 104.132 94.2049 104.18C94.6219 104.357 95.0449 104.531 95.4709 104.69C95.6509 104.759 95.8308 104.825 96.0108 104.888C96.3978 105.035 96.7848 105.164 97.1747 105.293C97.3517 105.353 97.5227 105.41 97.6997 105.464C98.2547 105.635 98.8006 105.857 99.3796 105.95C129.132 110.879 135.998 87.9781 135.998 87.9781C129.807 96.8875 117.816 101.147 105.025 97.8235C104.458 97.6705 103.894 97.5115 103.336 97.3375C103.165 97.2835 103.003 97.2265 102.832 97.1725C102.433 97.0435 102.04 96.9085 101.65 96.7615C101.47 96.6985 101.296 96.6325 101.119 96.5695C100.691 96.4045 100.271 96.2366 99.8476 96.0536C99.7366 96.0056 99.6196 95.9606 99.5086 95.9126C98.9806 95.6846 98.4647 95.4386 97.9547 95.1866C97.6907 95.0636 97.4327 94.9286 97.1747 94.7937C97.0278 94.7187 96.8748 94.6347 96.7278 94.5597C96.3978 94.3827 96.0678 94.1967 95.7438 94.0107C95.6658 93.9627 95.5849 93.9237 95.5069 93.8787C95.1049 93.6447 94.7089 93.3987 94.3189 93.1528C94.1959 93.0718 94.079 92.9878 93.956 92.9128C93.698 92.7418 93.44 92.5738 93.185 92.3968C92.636 92.0218 92.1051 91.6229 91.5771 91.2239C91.4541 91.1249 91.3341 91.0319 91.2141 90.9359C85.6135 86.5112 81.1738 80.4726 79.062 73.6181C76.8541 66.5116 77.3281 58.5381 81.1588 52.0615" fill="white"/>
<path d="M97.2444 51.5008C93.8486 56.4984 93.5157 62.708 95.8735 68.2276C98.3573 74.0922 103.451 78.6849 109.397 80.8658C109.643 80.9588 109.889 81.0428 110.135 81.1238C110.246 81.1598 110.351 81.1928 110.462 81.2288C110.809 81.3338 111.157 81.4627 111.523 81.5347C127.95 84.7115 132.402 73.1023 133.59 71.3924C129.681 77.017 123.13 78.364 115.078 76.4081C114.442 76.2551 113.743 76.0271 113.134 75.8111C112.345 75.5291 111.571 75.2082 110.821 74.8512C109.391 74.1642 108.029 73.3333 106.766 72.3794C99.5662 66.9137 95.0875 56.4894 99.7882 48" fill="white"/>
</svg>
