<svg width="128" height="128" viewBox="0 0 128 128" fill="none" xmlns="http://www.w3.org/2000/svg">
<path d="M47.9609 79.02L48.1539 79.114L48.4979 79.28C48.9369 79.489 49.3799 79.696 49.8269 79.895L50.1079 80.02C50.6209 80.245 51.1369 80.459 51.6589 80.665L52.0369 80.813C52.5189 81.001 53.0089 81.183 53.4999 81.356L53.6839 81.419C54.2229 81.607 54.7669 81.782 55.3159 81.953L55.7109 82.07C56.2689 82.239 56.8199 82.44 57.3959 82.547C93.9499 89.212 104.567 60.58 104.567 60.58C95.6489 72.198 79.8199 75.263 64.8219 71.851C64.2539 71.723 63.7019 71.545 63.1479 71.381L62.7309 71.255C62.1899 71.089 61.6519 70.914 61.1189 70.731L60.8979 70.651C60.4199 70.483 59.9469 70.305 59.4769 70.124L59.0789 69.968C58.5629 69.765 58.0509 69.552 57.5449 69.33L57.2379 69.194C56.8029 68.997 56.3719 68.798 55.9439 68.592L55.5689 68.412C55.2329 68.248 54.8999 68.073 54.5679 67.902L53.8999 67.552C53.4949 67.335 53.0969 67.11 52.7009 66.879L52.2959 66.653C51.7689 66.342 51.2479 66.021 50.7329 65.695L50.3119 65.415C49.9379 65.174 49.5659 64.929 49.1999 64.676L48.8419 64.424C48.4879 64.174 48.1379 63.921 47.7909 63.664L47.3249 63.311C47.0069 63.068 46.6899 62.823 46.3769 62.571L45.9539 62.231C45.5559 61.903 45.1619 61.574 44.7719 61.236L44.6429 61.127C44.2199 60.759 43.8069 60.38 43.3989 60L43.0489 59.663C42.7459 59.376 42.4489 59.086 42.1559 58.789L41.8059 58.439C41.4339 58.058 41.0689 57.672 40.7109 57.281L40.6569 57.223C40.2779 56.809 39.9079 56.386 39.5459 55.959L39.2549 55.613C38.9849 55.288 38.7169 54.958 38.4559 54.625L38.1629 54.261C37.8479 53.853 37.5409 53.446 37.2399 53.032C28.9139 41.674 25.9219 26.009 32.5769 13.144L26.6779 20.626C19.1189 31.489 20.0609 45.623 25.8339 57.167L26.2569 57.988L26.5279 58.508L26.6959 58.807L26.9969 59.346C27.1759 59.662 27.3589 59.976 27.5469 60.29L27.8619 60.809C28.0699 61.145 28.2829 61.477 28.5019 61.809L28.7739 62.231C29.0749 62.679 29.3829 63.127 29.6999 63.567L29.7269 63.602L29.8829 63.813C30.1579 64.192 30.4409 64.566 30.7269 64.936L31.0449 65.34C31.2999 65.661 31.5609 65.981 31.8249 66.299L32.1229 66.654C32.4779 67.073 32.8399 67.489 33.2099 67.896L33.2319 67.919L33.2739 67.965C33.6339 68.359 34.0039 68.743 34.3779 69.129L34.7319 69.486C35.0219 69.778 35.3159 70.065 35.6139 70.351L35.9749 70.694C36.3719 71.068 36.7729 71.435 37.1829 71.795L37.2029 71.81L37.4129 71.99C37.7739 72.302 38.1419 72.613 38.5119 72.918L38.9669 73.28C39.2689 73.522 39.5749 73.761 39.8829 73.996L40.3719 74.368C40.7119 74.618 41.0539 74.864 41.3989 75.105L41.7739 75.371L41.8769 75.444C42.2049 75.67 42.5399 75.886 42.8749 76.103L43.3069 76.391C43.8199 76.716 44.3419 77.037 44.8689 77.347L45.3009 77.591C45.6889 77.814 46.0779 78.033 46.4729 78.247L47.1209 78.583L47.9609 79.02ZM51.6539 42.225C52.4729 43.399 53.3799 44.795 54.4669 45.739C54.8609 46.173 55.2729 46.595 55.6929 47.012L56.0169 47.33C56.4259 47.726 56.8409 48.115 57.2689 48.494L57.3209 48.538L57.3329 48.551C57.8079 48.967 58.2979 49.367 58.7959 49.761L59.1289 50.021C59.6289 50.404 60.1379 50.78 60.6599 51.139L60.7049 51.172L61.4029 51.632L61.7349 51.852C62.1079 52.09 62.4849 52.324 62.8699 52.546L63.0299 52.639C63.3609 52.83 63.6969 53.018 64.0329 53.2L64.3889 53.387L65.0909 53.75L65.1969 53.798C65.6789 54.035 66.1649 54.263 66.6609 54.48L66.9839 54.613C67.3799 54.781 67.7809 54.946 68.1829 55.1L68.6969 55.288C69.0629 55.424 69.4289 55.548 69.7989 55.671L70.2979 55.831C70.8239 55.994 71.3429 56.2 71.8909 56.291C100.113 60.968 106.629 39.237 106.629 39.237C100.755 47.696 89.3809 51.731 77.2429 48.581C76.7039 48.439 76.1719 48.286 75.6449 48.119L75.1639 47.964C74.7889 47.843 74.4159 47.714 74.0459 47.579L73.5419 47.391C73.1369 47.235 72.7349 47.074 72.3379 46.906L72.0139 46.768C71.5159 46.551 71.0249 46.323 70.5419 46.083L69.8029 45.707L69.3769 45.488C69.0629 45.318 68.7509 45.14 68.4429 44.961L68.2199 44.834C67.8369 44.611 67.4609 44.381 67.0879 44.145L66.7469 43.916L66.0149 43.432C65.4939 43.073 64.9879 42.698 64.4899 42.317L64.1469 42.046C58.8339 37.853 54.6229 32.119 52.6199 25.618C50.5219 18.878 50.9739 11.31 54.6089 5.16901L50.1429 11.475C44.6769 19.34 44.9739 29.871 49.2379 38.19C49.9519 39.583 50.7549 40.937 51.6539 42.225ZM81.4009 32.494L82.1019 32.737L82.4109 32.835C82.7439 32.939 83.0729 33.061 83.4159 33.125C98.9989 36.136 103.227 25.128 104.352 23.508C100.649 28.839 94.4269 30.118 86.7919 28.265C86.1889 28.119 85.5259 27.902 84.9439 27.695C84.1989 27.429 83.4649 27.127 82.7509 26.785C81.3949 26.133 80.1029 25.344 78.9049 24.438C72.0729 19.253 67.8289 9.36601 72.2869 1.31201L69.8749 4.63601C66.6529 9.37901 66.3359 15.269 68.5719 20.505C70.9299 26.065 75.7619 30.425 81.4009 32.494ZM66.3589 96.295H62.1329C61.8989 96.295 61.6659 96.483 61.6159 96.712L60.1159 103.652L58.6159 110.592C58.5669 110.821 58.3339 111.009 58.0999 111.009H55.1089C52.1499 111.009 52.4919 108.962 53.0979 106.158L53.1159 106.073L53.1819 105.719L53.1939 105.653L53.3289 104.933L53.4739 104.162L53.6279 103.377L54.3099 100.045L54.9929 96.713C55.0399 96.483 54.8859 96.294 54.6519 96.294H50.3149C50.0809 96.294 49.8489 96.482 49.8009 96.712L48.8679 101.136L47.9359 105.561L47.9339 105.567L47.8479 105.979C46.7739 110.882 47.0579 115.559 52.8959 115.706L53.0659 115.709H62.2289C62.4629 115.709 62.6959 115.521 62.7449 115.292L64.7209 106.003L66.6969 96.713C66.7459 96.483 66.5939 96.296 66.3589 96.295ZM21.1029 96.246H16.4629C16.2279 96.246 15.9939 96.434 15.9419 96.662L15.5019 98.604L15.0619 100.546C15.0109 100.775 15.1599 100.962 15.3949 100.962H20.0709C20.3059 100.962 20.5389 100.774 20.5889 100.545L21.0139 98.604L21.4389 96.663C21.4879 96.434 21.3379 96.246 21.1029 96.246ZM19.7569 102.29H15.0799C14.8459 102.29 14.6109 102.478 14.5589 102.706L13.9019 105.616L13.2459 108.525L13.0629 109.359L12.4319 112.329L11.8019 115.3C11.7529 115.529 11.6519 115.899 11.5769 116.121C11.5769 116.121 10.7029 118.721 9.23393 118.691L9.04993 118.687L7.77893 118.664C7.54493 118.661 7.30893 118.844 7.25393 119.071L6.76893 121.11L6.28493 123.148C6.22993 123.376 6.37793 123.564 6.61093 123.568C7.44393 123.578 9.30993 123.599 10.4389 123.599C14.1079 123.599 16.0429 121.566 17.2819 115.716L18.7329 109.002L20.0939 102.705C20.1429 102.478 19.9909 102.29 19.7569 102.29ZM105.874 100.716L105.68 99.915L105.489 99.095L105.392 98.681C105.012 97.204 103.897 96.353 101.475 96.353L97.7049 96.349L94.2329 96.344H90.3259C90.0919 96.344 89.8599 96.532 89.8109 96.761L89.6379 97.577L89.4339 98.541L89.3769 98.812L87.6179 107.052L85.9479 114.874C85.8979 115.104 85.8819 115.386 85.9099 115.5C85.9379 115.615 86.3889 115.709 86.6229 115.709H90.1469C90.3819 115.709 90.6789 115.667 90.8069 115.615C90.9349 115.563 91.1239 115.102 91.1709 114.873L91.7969 111.774L92.4239 108.674L92.4249 108.669L92.5089 108.256L93.2689 104.696L93.9399 101.552C93.9899 101.323 94.2209 101.136 94.4549 101.135L105.544 101.13C105.779 101.132 105.927 100.945 105.874 100.716ZM120.149 93.476L119.295 93.479H115.746C115.511 93.479 115.21 93.638 115.079 93.832L107.23 105.33C107.098 105.524 106.947 105.496 106.895 105.268L106.317 102.735C106.265 102.506 106.03 102.319 105.795 102.319H100.75C100.515 102.319 100.376 102.503 100.44 102.728L102.701 110.649C102.765 110.875 102.77 111.245 102.712 111.473L101.727 115.306C101.668 115.534 101.812 115.719 102.047 115.719H107.034C107.268 115.719 107.508 115.533 107.566 115.306L108.552 111.473C108.61 111.244 108.773 110.906 108.915 110.718L121.657 93.807C121.799 93.619 121.722 93.466 121.488 93.468L120.149 93.476ZM80.0629 103.395V103.391C80.0339 103.645 79.7989 103.832 79.5639 103.832H73.1669C72.9449 103.832 72.8329 103.682 72.8659 103.496L72.8719 103.481L72.8679 103.483L72.8709 103.462L72.8999 103.353C73.5109 101.729 74.7549 100.663 77.0939 100.663C79.7279 100.662 80.2419 101.948 80.0629 103.395ZM78.1859 96.011C69.9749 96.011 68.0289 100.995 66.9369 106.026C65.8459 111.154 65.9389 115.947 74.4369 115.947H75.4669L75.7229 115.946H75.7829L76.8029 115.943H76.8209C79.0649 115.934 81.3159 115.917 82.2269 115.91C82.4599 115.906 82.6879 115.719 82.7359 115.49L83.0799 113.809L83.1469 113.482L83.5569 111.476C83.6039 111.247 83.4509 111.058 83.2159 111.058H75.5769C72.5379 111.058 71.6359 110.251 71.9689 107.877H84.1799L84.1789 107.878L84.1869 107.877C84.3809 107.874 84.5609 107.74 84.6319 107.562L84.6609 107.456L84.6599 107.457C86.4729 100.618 85.9529 96.012 78.1859 96.011ZM39.3759 103.369L39.2599 103.778L38.3379 107.047L37.4159 110.314C37.3529 110.541 37.1079 110.725 36.8729 110.725H31.9929C28.2909 110.725 27.3889 107.829 28.2909 103.559C29.1919 99.191 30.9589 96.476 34.6029 96.201C39.5829 95.825 40.5789 99.327 39.3759 103.369ZM42.7239 110.474C42.7239 110.474 45.0249 104.886 45.5469 101.66C46.2599 97.341 44.0969 91.075 35.7429 91.075C27.4369 91.075 23.8289 97.056 22.4529 103.559C21.0769 110.109 22.8799 115.852 31.1389 115.805L37.6549 115.781L43.7439 115.759C43.9779 115.757 44.2179 115.571 44.2779 115.345L45.3389 111.299C45.3979 111.071 45.2549 110.885 45.0199 110.883L44.0029 110.877L42.9859 110.871C42.7869 110.87 42.6729 110.74 42.6969 110.569L42.7239 110.474ZM83.8439 106.733C83.8439 106.888 83.7189 107.014 83.5639 107.014C83.4099 107.014 83.2839 106.888 83.2839 106.733C83.2839 106.579 83.4089 106.454 83.5639 106.454C83.7189 106.454 83.8439 106.579 83.8439 106.733Z" fill="white"/>
</svg>
