<svg xmlns="http://www.w3.org/2000/svg" viewBox="0 0 127.35 134.22"><defs><style>.cls-1{fill:#fbbe83;}</style></defs><title>Asset 5</title><g id="Layer_2" data-name="Layer 2"><g id="Layer_1-2" data-name="Layer 1"><path class="cls-1" d="M124.35,134.22H3a3,3,0,0,1-2.43-4.75L59.62,47.76A3,3,0,0,1,62,46.52a2.86,2.86,0,0,1,2.42,1.18l62.29,81.71a3,3,0,0,1-2.38,4.81Zm-115.48-6H118.29L62.12,54.55Z"/><path class="cls-1" d="M96,33.51h-34a3,3,0,0,1-3-3V3a3,3,0,0,1,3-3H96a3,3,0,0,1,3,3V30.51A3,3,0,0,1,96,33.51Zm-31-6H93V6h-28Z"/><path class="cls-1" d="M62.06,54.32a3,3,0,0,1-3-3V30.51a3,3,0,0,1,6,0V51.32A3,3,0,0,1,62.06,54.32Z"/><path class="cls-1" d="M73.38,93.37a3,3,0,0,1-2.26-1L62.14,82,53.87,92.25a3,3,0,0,1-4.75-.1l-9.59-13a3,3,0,0,1,4.84-3.55l7.28,9.9,8.07-10A3,3,0,0,1,62,74.33a3,3,0,0,1,2.32,1l8.9,10.24,7.65-10.09a3,3,0,1,1,4.78,3.63l-9.88,13a3,3,0,0,1-2.29,1.19Z"/></g></g></svg>