<svg xmlns="http://www.w3.org/2000/svg" viewBox="0 0 324.77 302.62"><defs><style>.cls-1{fill:#fbbe83;}</style></defs><g id="Layer_2" data-name="Layer 2"><g id="Layer_1-2" data-name="Layer 1"><path class="cls-1" d="M225.7,148.94a2.5,2.5,0,0,1-2.5-2.5V27a2.5,2.5,0,1,1,5,0V146.44A2.5,2.5,0,0,1,225.7,148.94Z"/><polyline class="cls-1" points="225.7 29.2 292.6 54.22 225.7 80.78"/><path class="cls-1" d="M122.55,149.53h176.7A25.51,25.51,0,0,1,324.77,175v0a25.51,25.51,0,0,1-25.51,25.51H122.55a0,0,0,0,1,0,0v-51a0,0,0,0,1,0,0Z"/><path class="cls-1" d="M66.89,200.56h176.7a25.51,25.51,0,0,1,25.51,25.51v0a25.51,25.51,0,0,1-25.51,25.51H66.89a0,0,0,0,1,0,0v-51A0,0,0,0,1,66.89,200.56Z"/><path class="cls-1" d="M0,251.59H176.7a25.51,25.51,0,0,1,25.51,25.51v0a25.51,25.51,0,0,1-25.51,25.51H0a0,0,0,0,1,0,0v-51A0,0,0,0,1,0,251.59Z"/><circle class="cls-1" cx="52.09" cy="20.94" r="20.94"/><path class="cls-1" d="M68.78,42.43c-3.75-.88-7.79-.57-12.51,2.1C44.41,51.27,38.2,65.39,30.68,76.11c-7.9,11.26-16.06,25-14.39,39.37.42,3.69,2.16,7.39,5.29,9.38a11.33,11.33,0,0,0,9.23,1C43,122.22,41,108.65,47,100L54.55,89a1.69,1.69,0,0,1,2.9.2l15.48,31a1.55,1.55,0,0,1,.13.38c.52,2.27,5.49,24.09,6.44,28.26a1.65,1.65,0,0,1-.23,1.28L70.33,164c-3.14,4.87-7.22,9.17-9.91,14.33-1.71,3.28-2.57,7.3-1.07,10.69a11.08,11.08,0,0,0,4.09,4.58,15.59,15.59,0,0,0,12.92,1.92c9.33-2.79,12.91-14.32,17.49-21.81,2.41-4,11.34-13.86,11.34-18.56v-8.68c0-6.26-1.62-12.61-3.22-18.72a1.68,1.68,0,0,1,1.94-2.08c3.8.66,10.25.7,11.46.82,8,.75,13.76,3.81,19.64,9.44,4.61,4.42,11.28,13.78,16.53,17.4a14.19,14.19,0,0,0,20.83-5.2c3.72-6.88-1.5-13.17-6.23-17.88-10.22-10.14-18.06-22.85-33.55-24.88-4-.51-8-.32-11.89-1-6.76-1.18-10.2-5.32-13.17-11.12-.76-1.48-2.13-5.36-3.6-8.41a1.69,1.69,0,0,1,1.9-2.38c5.54,1.27,11.56.5,14.57-4,1.95-2.94,2.07-6.69,2.12-10.21q.2-15.85.1-31.7a24.12,24.12,0,0,0-1-8.13c-2-5.36-8.91-7.82-14.23-7.33a13.38,13.38,0,0,0-10.76,7.36c-3.32,7,.15,15.37-1.39,22.83a1.84,1.84,0,0,1-2.56,1.66C83.47,51.55,76.76,44.3,68.78,42.43Z"/></g></g></svg>