<svg width="50" height="50" viewBox="0 0 50 50" fill="none" xmlns="http://www.w3.org/2000/svg">
<path d="M25 0C20.0555 0 15.222 1.46622 11.1108 4.21325C6.99953 6.96027 3.79521 10.8647 1.90302 15.4329C0.010832 20.001 -0.484251 25.0277 0.480379 29.8772C1.44501 34.7267 3.82603 39.1812 7.32234 42.6775C10.8187 46.1738 15.2732 48.5548 20.1228 49.5195C24.9723 50.4841 29.9989 49.989 34.5671 48.0968C39.1353 46.2047 43.0397 43.0004 45.7868 38.8891C48.5338 34.7779 50 29.9444 50 24.9999C49.9922 18.3719 47.3558 12.0176 42.669 7.33094C37.9823 2.64424 31.628 0.00781669 25 0V0ZM25 1.47679C29.2722 1.47533 33.464 2.63788 37.1252 4.83954C40.7864 7.04119 43.7785 10.1988 45.7802 13.973C47.7818 17.7472 48.7174 21.9955 48.4862 26.2614C48.2551 30.5273 46.8661 34.6497 44.4684 38.1855L25.6076 10.8649L24.9747 10.0211L5.42617 38.0294C3.0649 34.4879 1.7094 30.3717 1.5043 26.1201C1.29919 21.8685 2.25218 17.641 4.26157 13.8886C6.27097 10.1362 9.26139 6.99975 12.9138 4.81382C16.5662 2.62789 20.7435 1.47453 25 1.47679ZM15.4705 26.2235L24.9958 12.5843L34.4135 26.2235H15.4705ZM6.32912 39.3037L14.4325 27.7003H23.0823L12.0971 44.6581C9.88986 43.2067 7.94042 41.397 6.32912 39.3037ZM13.346 45.4218L24.4726 28.3016L36.1688 45.7003C32.6565 47.5978 28.7187 48.5689 24.7269 48.522C20.7351 48.4752 16.8212 47.4118 13.3544 45.4324L13.346 45.4218ZM37.4346 44.9429L25.8312 27.6898H35.4431L43.5464 39.4514C41.8474 41.6264 39.782 43.4883 37.4431 44.9534L37.4346 44.9429Z" fill="white"/>
</svg>
