<svg width="182" height="182" viewBox="0 0 182 182" fill="none" xmlns="http://www.w3.org/2000/svg">
<path d="M70.6939 57.0498C64.9429 57.0498 59.4759 57.0498 55.7484 57.3338C55.2869 57.3338 54.4704 57.6178 54.4704 58.0438V120.24C54.4704 120.772 54.7189 120.95 55.1804 120.95H64.0199C64.5524 120.95 64.7299 120.701 64.7299 120.24V98.0168C66.2919 98.0168 67.0374 98.0168 69.2384 98.0168C82.3379 98.0168 92.9879 91.6978 92.9879 77.0008C92.9879 65.8538 86.7399 57.0498 70.6939 57.0498ZM69.4869 88.9998C67.9262 89.0887 66.3616 89.0887 64.8009 88.9998V66.4218C65.8304 66.4218 68.0314 66.2443 70.3389 66.2443C78.0424 66.2443 82.6219 69.9718 82.6219 77.3203C82.6219 86.5148 76.2319 88.9998 69.4869 88.9998ZM127.636 107.744C127.636 117.009 120.536 121.944 110.951 121.944C106.844 122.095 102.762 121.242 99.0584 119.459C98.6679 119.281 98.5969 118.997 98.5969 118.536V109.945C98.5969 109.377 98.8809 109.199 99.3069 109.483C102.767 111.759 106.809 112.992 110.951 113.033C115.566 113.033 117.483 111.116 117.483 108.489C117.483 105.862 116.134 104.549 110.383 101.389C102.147 97.4488 98.7034 93.4373 98.7034 86.7633C98.7034 79.2728 104.561 73.0603 114.714 73.0603C118.256 72.8991 121.793 73.4545 125.115 74.6933C125.304 74.8141 125.456 74.9833 125.556 75.1832C125.655 75.3832 125.7 75.6064 125.683 75.8293V83.7813C125.683 84.2783 125.399 84.5623 124.831 84.3848C121.715 82.6365 118.179 81.777 114.607 81.8998C110.028 81.8998 108.466 84.2428 108.466 86.1598C108.466 88.0768 109.531 89.7098 115.566 92.8693C124.796 97.2003 127.636 101.425 127.636 107.637V107.744Z" fill="white"/>
</svg>
