<svg xmlns="http://www.w3.org/2000/svg" viewBox="0 0 455.65 306.79"><defs><style>.cls-1{fill:#f15e60;}</style></defs><g id="Layer_2" data-name="Layer 2"><g id="Layer_1-2" data-name="Layer 1"><path class="cls-1" d="M35.6,220.14S68,235.51,131.06,233.89l297.7-95.46s69.51-52.58-15-45.3L278.29,137.62l-161-62.29L101.93,91.51l68,80.9Z"/><polygon class="cls-1" points="30.74 212.05 72.81 195.06 8.9 162.7 0 173.22 30.74 212.05"/><rect class="cls-1" x="111.2" y="204.21" width="17.05" height="42"/><path class="cls-1" d="M402.49,219.92l-53.13,53.92V175.52c0-44,8.33-98.39-20.64-135.19a86.71,86.71,0,0,0-7.53-8.39C286.05-2.39,222.85-7,178.28,8.5c-32.45,11.32-55,36.22-63.1,69.54-4.83,19.79-5,40.39-4.52,60.74.31,13.51.91,27,1.5,40.49l11.5.81c1.19.08,2.52.13,3.42-.65a4.62,4.62,0,0,0,1.2-3.21c2-20.82-.7-41.78-.64-62.7s3.27-42.77,15.45-59.77c9.34-13,23.38-22.24,38.47-27.67s31.25-7.31,47.29-7.73,32.15.6,47.36,5.46a80,80,0,0,1,56.09,76.53v173.5l-53.13-53.92-12.15,12,73.81,74.9,73.8-74.9Z"/></g></g></svg>