<svg width="182" height="182" viewBox="0 0 182 182" fill="none" xmlns="http://www.w3.org/2000/svg">
<path d="M136.518 52.308L116.358 42.6093C114.012 41.4762 111.222 41.954 109.388 43.7884L70.7741 79.0215L53.9461 66.2604C52.3843 65.063 50.1824 65.161 48.7308 66.4839L43.341 71.396C41.5556 73.0069 41.5556 75.8151 43.3256 77.4259L57.9211 90.7444L43.3256 104.063C41.5556 105.674 41.5556 108.482 43.341 110.093L48.7308 115.005C50.1977 116.328 52.3843 116.426 53.9461 115.228L70.7741 102.452L109.406 137.7C111.226 139.535 114.015 140.013 116.361 138.879L136.539 129.165C138.662 128.146 140 126.008 140 123.647V57.8203C140 55.4745 138.643 53.3217 136.524 52.3019L136.518 52.308ZM115.51 112.999L86.1933 90.7474L115.51 68.4959V112.999Z" fill="white"/>
</svg>
