<svg width="525" height="460" viewBox="0 0 525 460" fill="none" xmlns="http://www.w3.org/2000/svg">
<path d="M68.8779 79.4552C82.3159 45.792 109.025 5.23289 150.02 0.363665C190.401 -4.43199 216.57 39.9596 258.64 30.2613C281.871 24.9038 300.496 3.96877 324.328 3.54739C354.162 3.019 374.382 33.9266 402.086 45.0428C436.893 59.0151 495.211 42.1735 498.442 94.9123C499.47 111.674 493.95 128.034 489.631 144.26C479.604 181.93 497.548 203.701 514.217 235.725C538.169 281.736 521.58 377.782 470.799 402.858C444.069 416.054 415.15 402.51 388.621 414.415C372.653 421.585 358.341 431.966 342.826 440.079C280.182 472.839 204.547 464.104 148.792 421.88C120.073 400.129 108.952 364.961 81.9822 341.939C60.2195 323.358 26.0669 314.302 9.62482 289.916C-14.6478 253.918 12.6889 224.208 29.1044 191.528C45.7935 158.299 53.357 122.215 65.8605 87.4346C66.8084 84.7859 67.8164 82.1239 68.8779 79.4552Z" fill="#86D3E7"/>
</svg>
