<?xml version="1.0" encoding="utf-8"?>
<!-- Generator: Adobe Illustrator 24.0.2, SVG Export Plug-In . SVG Version: 6.00 Build 0)  -->
<svg version="1.1" id="Layer_1" xmlns="http://www.w3.org/2000/svg" xmlns:xlink="http://www.w3.org/1999/xlink" x="0px" y="0px"
	 viewBox="0 0 400 100" style="enable-background:new 0 0 400 100;" xml:space="preserve">
<style type="text/css">
	.st0{opacity:0.2;}
	.st1{fill:#F1E9E9;}
</style>
<g>
	<g class="st0">
		<path d="M33.36,7.1c1.59,0.96,2.38,2.1,2.38,3.42c0,1.02-0.3,1.77-0.9,2.25c-0.6,0.48-1.41,0.72-2.43,0.72
			c-1.14,0-2-0.27-2.56-0.81c-0.57-0.54-1.22-1.38-1.94-2.52c-0.54-0.96-1.05-1.7-1.53-2.21c-0.48-0.51-1.17-0.77-2.07-0.77
			c-2.1,0-3.65,1.58-4.64,4.72c-0.99,3.15-1.48,7.91-1.48,14.27c0,2.28,0.03,4.05,0.09,5.31l0.18,5.58l5.4-0.36
			c0.6-0.06,1.27-0.12,2.02-0.18c0.75-0.06,1.51-0.09,2.3-0.09c0.6,0,0.9,0.3,0.9,0.9c-0.06,0.6-0.38,1.26-0.95,1.98
			c-0.57,0.72-1.16,1.05-1.75,0.99c-2.88-0.48-5.49-0.78-7.83-0.9l0.99,33.48l0.09,3.78c0,4.74-0.36,8.49-1.08,11.25
			c-0.72,2.76-1.86,4.75-3.42,5.98c-1.56,1.23-3.63,1.85-6.21,1.85c-2.46,0-4.36-0.42-5.71-1.26c-1.35-0.84-2.02-1.86-2.02-3.06
			c0-0.9,0.3-1.62,0.9-2.16c0.6-0.54,1.38-0.81,2.34-0.81c1.2,0,2.1,0.27,2.7,0.81c0.6,0.54,1.17,1.35,1.71,2.43
			c0.42,0.84,0.81,1.44,1.17,1.8c0.36,0.36,0.87,0.54,1.53,0.54c0.78,0,1.33-0.54,1.67-1.62c0.33-1.08,0.5-3.24,0.5-6.48
			c0-2.52-0.09-6.09-0.27-10.71l-0.99-31.77c-0.12-1.56-0.33-2.67-0.63-3.33c-0.3-0.66-0.84-1.08-1.62-1.26
			c-0.78-0.18-2.16-0.27-4.14-0.27c-0.24,0-0.36-0.21-0.36-0.63c0-0.42,0.09-0.63,0.27-0.63c2.34,0,3.94-0.28,4.81-0.86
			c0.87-0.57,1.3-1.6,1.3-3.11v-2.79c0-6.6,0.46-11.67,1.4-15.21c0.93-3.54,2.48-6.04,4.64-7.51c2.16-1.47,5.19-2.21,9.09-2.21
			C29.72,5.66,31.77,6.14,33.36,7.1z"/>
		<path d="M39.12,69.92c-2.37-1.56-4.19-3.69-5.44-6.39c-1.26-2.7-1.89-5.7-1.89-9c0-3.72,0.77-7.05,2.29-9.99
			c1.53-2.94,3.65-5.25,6.35-6.93c2.7-1.68,5.76-2.52,9.18-2.52c4.8,0,8.64,1.57,11.52,4.72c2.88,3.15,4.32,7.4,4.32,12.73
			c0,4.08-0.83,7.61-2.48,10.58c-1.65,2.97-3.84,5.23-6.57,6.79c-2.73,1.56-5.69,2.34-8.87,2.34C44.3,72.26,41.49,71.48,39.12,69.92
			z M56.85,66.36c1.65-2.43,2.48-5.75,2.48-9.95c0-3.3-0.54-6.42-1.62-9.36c-1.08-2.94-2.55-5.31-4.41-7.11
			c-1.86-1.8-3.96-2.7-6.3-2.7c-2.64,0-4.81,1.16-6.52,3.46c-1.71,2.31-2.56,5.57-2.56,9.76c0,3.3,0.54,6.45,1.62,9.45
			c1.08,3,2.56,5.43,4.46,7.29c1.89,1.86,4,2.79,6.34,2.79C53.03,70.01,55.2,68.79,56.85,66.36z"/>
		<path d="M77.51,69.42c-2.46-1.83-4.26-4.17-5.4-7.02c-1.14-2.85-1.65-5.77-1.53-8.78c0-3.6,0.87-6.81,2.61-9.63
			c1.74-2.82,3.99-5.01,6.75-6.57c2.76-1.56,5.61-2.34,8.55-2.34c2.52,0,4.75,0.49,6.71,1.48c1.95,0.99,3.04,2.36,3.29,4.1
			c0.06,0.96-0.2,1.74-0.77,2.34c-0.57,0.6-1.43,0.9-2.56,0.9c-1.14,0-2.04-0.29-2.7-0.86c-0.66-0.57-1.29-1.36-1.89-2.38
			c-0.54-1.02-1.22-1.85-2.03-2.48c-0.81-0.63-1.93-0.94-3.38-0.94c-2.76,0-4.83,1.25-6.21,3.73c-1.38,2.49-2.04,5.66-1.98,9.5
			c-0.06,5.1,1.09,9.41,3.47,12.92c2.37,3.51,5.77,5.27,10.21,5.27c2.94,0,5.61-0.81,8.01-2.43h0.09c0.18,0,0.37,0.11,0.58,0.32
			c0.21,0.21,0.25,0.4,0.13,0.58c-3.66,3.36-7.95,5.04-12.87,5.04C83,72.17,79.97,71.25,77.51,69.42z"/>
		<path d="M145.46,63.89c0.24,0,0.46,0.11,0.67,0.32c0.21,0.21,0.25,0.38,0.14,0.49c-1.92,2.46-3.63,4.26-5.13,5.4
			c-1.5,1.14-3.09,1.71-4.77,1.71c-3.54,0-5.31-2.37-5.31-7.11V53.81c-1.2,5.82-3.08,10.34-5.63,13.54
			c-2.55,3.21-5.63,4.82-9.23,4.82c-5.58,0-8.25-3.96-8.01-11.88l0.36-16.02c0.06-3.3-0.75-4.95-2.43-4.95
			c-0.72,0-1.47,0.33-2.25,0.99c-0.78,0.66-1.8,1.65-3.06,2.97c-0.12,0.12-0.24,0.18-0.36,0.18c-0.24,0-0.43-0.1-0.58-0.31
			c-0.15-0.21-0.19-0.4-0.14-0.58c1.86-2.4,3.54-4.18,5.04-5.35c1.5-1.17,3.09-1.76,4.77-1.76c3.6,0,5.31,2.58,5.13,7.74
			l-0.45,15.39c-0.06,6.36,1.62,9.54,5.04,9.54c2.22,0,4.21-1.24,5.98-3.73c1.77-2.49,3.18-6.08,4.23-10.76
			c1.05-4.68,1.58-10.2,1.58-16.56c0-0.48,0.33-0.85,0.99-1.13c0.66-0.27,1.56-0.41,2.7-0.41c1.26,0,2.02,0.08,2.29,0.23
			c0.27,0.15,0.41,0.41,0.41,0.76c0,0.42-0.03,1.17-0.09,2.25c-0.06,1.08-0.09,2.46-0.09,4.14l-0.09,20.07
			c0,3.36,0.81,5.04,2.43,5.04c1.38,0,3.24-1.35,5.58-4.05C145.25,63.92,145.34,63.89,145.46,63.89z"/>
		<path d="M151.85,70.28c-2.16-1.14-3.27-2.52-3.33-4.14c0-0.96,0.28-1.68,0.85-2.16c0.57-0.48,1.3-0.72,2.2-0.72
			c0.78,0,1.47,0.22,2.07,0.67c0.6,0.45,1.26,1.13,1.98,2.02c1.08,1.26,2.07,2.19,2.97,2.79c0.9,0.6,2.1,0.9,3.6,0.9
			c3.06,0,4.59-1.56,4.59-4.68c-0.06-2.16-0.81-3.97-2.25-5.45c-1.44-1.47-3.57-3.1-6.39-4.91c-2.88-1.86-5.01-3.51-6.39-4.95
			c-1.38-1.44-2.07-3.24-2.07-5.4c0-2.52,1.17-4.63,3.51-6.35c2.34-1.71,5.13-2.56,8.37-2.56c2.64,0,4.87,0.45,6.71,1.35
			c1.83,0.9,2.75,2.07,2.75,3.51c0.06,0.84-0.2,1.52-0.77,2.02c-0.57,0.51-1.28,0.77-2.12,0.77c-0.96,0-1.75-0.21-2.38-0.63
			c-0.63-0.42-1.31-1.05-2.02-1.89c-0.96-1.02-1.8-1.77-2.52-2.25c-0.72-0.48-1.74-0.72-3.06-0.72c-2.58,0-3.87,1.14-3.87,3.42
			c0,1.86,0.69,3.46,2.07,4.81c1.38,1.35,3.45,2.96,6.21,4.82c3,1.98,5.25,3.75,6.75,5.31c1.5,1.56,2.25,3.45,2.25,5.67
			c0,1.68-0.51,3.33-1.53,4.95c-1.02,1.62-2.48,2.94-4.36,3.96c-1.89,1.02-4.1,1.53-6.62,1.53
			C156.41,71.99,154.01,71.42,151.85,70.28z"/>
		<path d="M206.16,69.92c-2.37-1.56-4.19-3.69-5.44-6.39c-1.26-2.7-1.89-5.7-1.89-9c0-3.72,0.77-7.05,2.29-9.99
			c1.53-2.94,3.65-5.25,6.35-6.93c2.7-1.68,5.76-2.52,9.18-2.52c4.8,0,8.64,1.57,11.52,4.72c2.88,3.15,4.32,7.4,4.32,12.73
			c0,4.08-0.83,7.61-2.48,10.58c-1.65,2.97-3.84,5.23-6.57,6.79c-2.73,1.56-5.69,2.34-8.87,2.34
			C211.34,72.26,208.53,71.48,206.16,69.92z M223.89,66.36c1.65-2.43,2.47-5.75,2.47-9.95c0-3.3-0.54-6.42-1.62-9.36
			c-1.08-2.94-2.55-5.31-4.41-7.11c-1.86-1.8-3.96-2.7-6.3-2.7c-2.64,0-4.81,1.16-6.52,3.46c-1.71,2.31-2.56,5.57-2.56,9.76
			c0,3.3,0.54,6.45,1.62,9.45c1.08,3,2.56,5.43,4.46,7.29c1.89,1.86,4,2.79,6.34,2.79C220.07,70.01,222.24,68.79,223.89,66.36z"/>
		<path d="M280.46,63.98c0.24,0,0.46,0.11,0.67,0.32c0.21,0.21,0.25,0.38,0.14,0.49c-1.86,2.4-3.51,4.17-4.95,5.31
			c-1.44,1.14-3,1.71-4.68,1.71c-1.8,0-3.14-0.63-4-1.89c-0.87-1.26-1.3-3.18-1.3-5.76l0.18-15.48c0-6.36-1.68-9.54-5.04-9.54
			c-2.16,0-4.14,1.2-5.94,3.6c-1.8,2.4-3.24,5.94-4.32,10.62s-1.62,10.29-1.62,16.83c0,0.48-0.32,0.86-0.94,1.13
			c-0.63,0.27-1.55,0.41-2.75,0.41s-1.95-0.08-2.25-0.23c-0.3-0.15-0.45-0.4-0.45-0.76c0-0.42,0.03-1.17,0.09-2.25
			c0.06-1.08,0.09-2.46,0.09-4.14l0.18-20.07c0-3.36-0.84-5.04-2.52-5.04c-1.44,0-3.33,1.38-5.67,4.14
			c-0.06,0.06-0.18,0.09-0.36,0.09c-0.24,0-0.43-0.1-0.58-0.31c-0.15-0.21-0.16-0.4-0.04-0.58c1.8-2.46,3.49-4.26,5.08-5.4
			c1.59-1.14,3.25-1.71,5-1.71c1.8,0,3.11,0.6,3.92,1.8c0.81,1.2,1.21,3,1.21,5.4v11.34c1.2-6,3.07-10.65,5.63-13.95
			c2.55-3.3,5.62-4.95,9.23-4.95c2.76,0,4.81,0.96,6.16,2.88c1.35,1.92,1.99,4.92,1.94,9l-0.09,16.02c0,1.74,0.19,3,0.58,3.78
			c0.39,0.78,1,1.17,1.84,1.17c1.26,0,3.03-1.29,5.31-3.87C280.24,64.01,280.33,63.98,280.46,63.98z"/>
		<path d="M367.75,63.98c0.24,0,0.46,0.11,0.68,0.32c0.21,0.21,0.25,0.38,0.13,0.49c-1.92,2.46-3.59,4.25-4.99,5.36
			c-1.41,1.11-2.96,1.67-4.64,1.67c-3.66,0-5.43-2.55-5.31-7.65l0.09-15.48c0-6.36-1.56-9.54-4.68-9.54c-1.98,0-3.81,1.19-5.49,3.55
			c-1.68,2.37-3.05,5.84-4.1,10.4c-1.05,4.56-1.61,9.96-1.66,16.2v0.9c0,0.48-0.3,0.86-0.9,1.13c-0.6,0.27-1.5,0.41-2.7,0.41
			c-0.96,0-1.62-0.05-1.98-0.14c-0.36-0.09-0.6-0.26-0.72-0.49c0-0.18,0.04-0.99,0.13-2.43c0.09-1.44,0.13-2.88,0.13-4.32
			l0.09-15.75c-0.06-6.3-1.65-9.45-4.77-9.45c-1.98,0-3.81,1.19-5.49,3.55c-1.68,2.37-3.03,5.78-4.05,10.22
			c-1.02,4.44-1.56,9.63-1.62,15.57v1.71c0,0.48-0.31,0.86-0.95,1.13c-0.63,0.27-1.52,0.41-2.65,0.41c-1.2,0-1.95-0.08-2.25-0.23
			c-0.3-0.15-0.45-0.4-0.45-0.76c0-0.48,0.03-1.23,0.09-2.25c0.06-1.02,0.09-2.31,0.09-3.87l0.18-20.34c0-3.36-0.84-5.04-2.52-5.04
			c-1.44,0-3.33,1.38-5.67,4.14c-0.12,0.12-0.24,0.18-0.36,0.18c-0.24,0-0.43-0.1-0.58-0.31c-0.15-0.21-0.17-0.43-0.04-0.67
			c1.8-2.46,3.49-4.26,5.08-5.4s3.25-1.71,5-1.71c1.8,0,3.1,0.6,3.91,1.8c0.81,1.2,1.21,3,1.21,5.4v10.53
			c1.14-5.7,2.94-10.14,5.4-13.32c2.46-3.18,5.4-4.77,8.82-4.77c5.16,0,7.71,3.93,7.65,11.79v6.3c1.14-5.76,2.92-10.21,5.35-13.37
			c2.43-3.15,5.36-4.72,8.78-4.72c2.64,0,4.59,0.96,5.85,2.88c1.26,1.92,1.89,4.92,1.89,9l-0.09,16.02c0,3.3,0.81,4.95,2.43,4.95
			c0.72,0,1.52-0.33,2.38-0.99c0.87-0.66,1.88-1.62,3.02-2.88C367.54,64.01,367.63,63.98,367.75,63.98z"/>
		<path d="M399.7,65.78c0.18,0,0.36,0.09,0.54,0.27c0.18,0.18,0.21,0.36,0.09,0.54c-3.84,3.66-8.34,5.49-13.5,5.49
			c-3.48,0-6.43-0.8-8.86-2.39c-2.43-1.59-4.25-3.69-5.45-6.3c-1.2-2.61-1.8-5.41-1.8-8.42c0-3.36,0.81-6.57,2.43-9.63
			s3.9-5.54,6.84-7.43c2.94-1.89,6.27-2.83,9.99-2.83c2.52,0,4.47,0.44,5.85,1.3c1.38,0.87,2.13,2.06,2.25,3.55
			c0.06,2.64-1.92,5.06-5.94,7.25c-4.02,2.19-8.94,3.77-14.76,4.73c0.12,4.98,1.32,9.03,3.6,12.15c2.28,3.12,5.46,4.68,9.54,4.68
			c1.56,0,3.13-0.24,4.72-0.72c1.59-0.48,3.02-1.23,4.28-2.25H399.7z M379.63,41.12c-1.44,2.4-2.19,5.55-2.25,9.45
			c8.82-1.56,13.23-4.59,13.23-9.09c0-1.26-0.42-2.23-1.26-2.92c-0.84-0.69-2.01-1.04-3.51-1.04
			C383.14,37.52,381.07,38.72,379.63,41.12z"/>
	</g>
	<g>
		<path class="st1" d="M32.36,6.1c1.59,0.96,2.38,2.1,2.38,3.42c0,1.02-0.3,1.77-0.9,2.25c-0.6,0.48-1.41,0.72-2.43,0.72
			c-1.14,0-2-0.27-2.56-0.81c-0.57-0.54-1.22-1.38-1.94-2.52c-0.54-0.96-1.05-1.7-1.53-2.21c-0.48-0.51-1.17-0.77-2.07-0.77
			c-2.1,0-3.65,1.58-4.64,4.72c-0.99,3.15-1.48,7.91-1.48,14.27c0,2.28,0.03,4.05,0.09,5.31l0.18,5.58l5.4-0.36
			c0.6-0.06,1.27-0.12,2.02-0.18c0.75-0.06,1.51-0.09,2.3-0.09c0.6,0,0.9,0.3,0.9,0.9c-0.06,0.6-0.38,1.26-0.95,1.98
			c-0.57,0.72-1.16,1.05-1.75,0.99c-2.88-0.48-5.49-0.78-7.83-0.9l0.99,33.48l0.09,3.78c0,4.74-0.36,8.49-1.08,11.25
			c-0.72,2.76-1.86,4.75-3.42,5.98c-1.56,1.23-3.63,1.85-6.21,1.85c-2.46,0-4.36-0.42-5.71-1.26c-1.35-0.84-2.02-1.86-2.02-3.06
			c0-0.9,0.3-1.62,0.9-2.16c0.6-0.54,1.38-0.81,2.34-0.81c1.2,0,2.1,0.27,2.7,0.81c0.6,0.54,1.17,1.35,1.71,2.43
			c0.42,0.84,0.81,1.44,1.17,1.8c0.36,0.36,0.87,0.54,1.53,0.54c0.78,0,1.33-0.54,1.67-1.62c0.33-1.08,0.5-3.24,0.5-6.48
			c0-2.52-0.09-6.09-0.27-10.71l-0.99-31.77c-0.12-1.56-0.33-2.67-0.63-3.33c-0.3-0.66-0.84-1.08-1.62-1.26
			c-0.78-0.18-2.16-0.27-4.14-0.27c-0.24,0-0.36-0.21-0.36-0.63c0-0.42,0.09-0.63,0.27-0.63c2.34,0,3.94-0.28,4.81-0.86
			c0.87-0.57,1.3-1.6,1.3-3.11v-2.79c0-6.6,0.46-11.67,1.4-15.21c0.93-3.54,2.48-6.04,4.64-7.51c2.16-1.47,5.19-2.21,9.09-2.21
			C28.72,4.66,30.77,5.14,32.36,6.1z"/>
		<path class="st1" d="M38.12,68.92c-2.37-1.56-4.19-3.69-5.44-6.39c-1.26-2.7-1.89-5.7-1.89-9c0-3.72,0.77-7.05,2.29-9.99
			c1.53-2.94,3.65-5.25,6.35-6.93c2.7-1.68,5.76-2.52,9.18-2.52c4.8,0,8.64,1.57,11.52,4.72c2.88,3.15,4.32,7.4,4.32,12.73
			c0,4.08-0.83,7.61-2.48,10.58c-1.65,2.97-3.84,5.23-6.57,6.79c-2.73,1.56-5.69,2.34-8.87,2.34C43.3,71.26,40.49,70.48,38.12,68.92
			z M55.85,65.36c1.65-2.43,2.48-5.75,2.48-9.95c0-3.3-0.54-6.42-1.62-9.36c-1.08-2.94-2.55-5.31-4.41-7.11
			c-1.86-1.8-3.96-2.7-6.3-2.7c-2.64,0-4.81,1.16-6.52,3.46c-1.71,2.31-2.56,5.57-2.56,9.76c0,3.3,0.54,6.45,1.62,9.45
			c1.08,3,2.56,5.43,4.46,7.29c1.89,1.86,4,2.79,6.34,2.79C52.03,69.01,54.2,67.79,55.85,65.36z"/>
		<path class="st1" d="M76.51,68.42c-2.46-1.83-4.26-4.17-5.4-7.02c-1.14-2.85-1.65-5.77-1.53-8.78c0-3.6,0.87-6.81,2.61-9.63
			c1.74-2.82,3.99-5.01,6.75-6.57c2.76-1.56,5.61-2.34,8.55-2.34c2.52,0,4.75,0.49,6.71,1.48c1.95,0.99,3.04,2.36,3.29,4.1
			c0.06,0.96-0.2,1.74-0.77,2.34c-0.57,0.6-1.43,0.9-2.56,0.9c-1.14,0-2.04-0.29-2.7-0.86c-0.66-0.57-1.29-1.36-1.89-2.38
			c-0.54-1.02-1.22-1.85-2.03-2.48c-0.81-0.63-1.93-0.94-3.38-0.94c-2.76,0-4.83,1.25-6.21,3.73c-1.38,2.49-2.04,5.66-1.98,9.5
			c-0.06,5.1,1.09,9.41,3.47,12.92c2.37,3.51,5.77,5.27,10.21,5.27c2.94,0,5.61-0.81,8.01-2.43h0.09c0.18,0,0.37,0.11,0.58,0.32
			c0.21,0.21,0.25,0.4,0.13,0.58c-3.66,3.36-7.95,5.04-12.87,5.04C82,71.17,78.97,70.25,76.51,68.42z"/>
		<path class="st1" d="M144.46,62.89c0.24,0,0.46,0.11,0.67,0.32c0.21,0.21,0.25,0.38,0.14,0.49c-1.92,2.46-3.63,4.26-5.13,5.4
			c-1.5,1.14-3.09,1.71-4.77,1.71c-3.54,0-5.31-2.37-5.31-7.11V52.81c-1.2,5.82-3.08,10.34-5.63,13.54
			c-2.55,3.21-5.63,4.82-9.23,4.82c-5.58,0-8.25-3.96-8.01-11.88l0.36-16.02c0.06-3.3-0.75-4.95-2.43-4.95
			c-0.72,0-1.47,0.33-2.25,0.99c-0.78,0.66-1.8,1.65-3.06,2.97c-0.12,0.12-0.24,0.18-0.36,0.18c-0.24,0-0.43-0.1-0.58-0.31
			c-0.15-0.21-0.19-0.4-0.14-0.58c1.86-2.4,3.54-4.18,5.04-5.35c1.5-1.17,3.09-1.76,4.77-1.76c3.6,0,5.31,2.58,5.13,7.74
			l-0.45,15.39c-0.06,6.36,1.62,9.54,5.04,9.54c2.22,0,4.21-1.24,5.98-3.73c1.77-2.49,3.18-6.08,4.23-10.76
			c1.05-4.68,1.58-10.2,1.58-16.56c0-0.48,0.33-0.85,0.99-1.13c0.66-0.27,1.56-0.41,2.7-0.41c1.26,0,2.02,0.08,2.29,0.23
			c0.27,0.15,0.41,0.41,0.41,0.76c0,0.42-0.03,1.17-0.09,2.25c-0.06,1.08-0.09,2.46-0.09,4.14l-0.09,20.07
			c0,3.36,0.81,5.04,2.43,5.04c1.38,0,3.24-1.35,5.58-4.05C144.25,62.92,144.34,62.89,144.46,62.89z"/>
		<path class="st1" d="M150.85,69.28c-2.16-1.14-3.27-2.52-3.33-4.14c0-0.96,0.28-1.68,0.85-2.16c0.57-0.48,1.3-0.72,2.2-0.72
			c0.78,0,1.47,0.22,2.07,0.67c0.6,0.45,1.26,1.13,1.98,2.02c1.08,1.26,2.07,2.19,2.97,2.79c0.9,0.6,2.1,0.9,3.6,0.9
			c3.06,0,4.59-1.56,4.59-4.68c-0.06-2.16-0.81-3.97-2.25-5.45c-1.44-1.47-3.57-3.1-6.39-4.91c-2.88-1.86-5.01-3.51-6.39-4.95
			c-1.38-1.44-2.07-3.24-2.07-5.4c0-2.52,1.17-4.63,3.51-6.35c2.34-1.71,5.13-2.56,8.37-2.56c2.64,0,4.87,0.45,6.71,1.35
			c1.83,0.9,2.75,2.07,2.75,3.51c0.06,0.84-0.2,1.52-0.77,2.02c-0.57,0.51-1.28,0.77-2.12,0.77c-0.96,0-1.75-0.21-2.38-0.63
			c-0.63-0.42-1.31-1.05-2.02-1.89c-0.96-1.02-1.8-1.77-2.52-2.25c-0.72-0.48-1.74-0.72-3.06-0.72c-2.58,0-3.87,1.14-3.87,3.42
			c0,1.86,0.69,3.46,2.07,4.81c1.38,1.35,3.45,2.96,6.21,4.82c3,1.98,5.25,3.75,6.75,5.31c1.5,1.56,2.25,3.45,2.25,5.67
			c0,1.68-0.51,3.33-1.53,4.95c-1.02,1.62-2.48,2.94-4.36,3.96c-1.89,1.02-4.1,1.53-6.62,1.53
			C155.41,70.99,153.01,70.42,150.85,69.28z"/>
		<path class="st1" d="M205.16,68.92c-2.37-1.56-4.19-3.69-5.44-6.39c-1.26-2.7-1.89-5.7-1.89-9c0-3.72,0.77-7.05,2.29-9.99
			c1.53-2.94,3.65-5.25,6.35-6.93c2.7-1.68,5.76-2.52,9.18-2.52c4.8,0,8.64,1.57,11.52,4.72c2.88,3.15,4.32,7.4,4.32,12.73
			c0,4.08-0.83,7.61-2.48,10.58c-1.65,2.97-3.84,5.23-6.57,6.79c-2.73,1.56-5.69,2.34-8.87,2.34
			C210.34,71.26,207.53,70.48,205.16,68.92z M222.89,65.36c1.65-2.43,2.47-5.75,2.47-9.95c0-3.3-0.54-6.42-1.62-9.36
			c-1.08-2.94-2.55-5.31-4.41-7.11c-1.86-1.8-3.96-2.7-6.3-2.7c-2.64,0-4.81,1.16-6.52,3.46c-1.71,2.31-2.56,5.57-2.56,9.76
			c0,3.3,0.54,6.45,1.62,9.45c1.08,3,2.56,5.43,4.46,7.29c1.89,1.86,4,2.79,6.34,2.79C219.07,69.01,221.24,67.79,222.89,65.36z"/>
		<path class="st1" d="M279.46,62.98c0.24,0,0.46,0.11,0.67,0.32c0.21,0.21,0.25,0.38,0.14,0.49c-1.86,2.4-3.51,4.17-4.95,5.31
			c-1.44,1.14-3,1.71-4.68,1.71c-1.8,0-3.14-0.63-4-1.89c-0.87-1.26-1.3-3.18-1.3-5.76l0.18-15.48c0-6.36-1.68-9.54-5.04-9.54
			c-2.16,0-4.14,1.2-5.94,3.6c-1.8,2.4-3.24,5.94-4.32,10.62s-1.62,10.29-1.62,16.83c0,0.48-0.32,0.86-0.94,1.13
			c-0.63,0.27-1.55,0.41-2.75,0.41s-1.95-0.08-2.25-0.23c-0.3-0.15-0.45-0.4-0.45-0.76c0-0.42,0.03-1.17,0.09-2.25
			c0.06-1.08,0.09-2.46,0.09-4.14l0.18-20.07c0-3.36-0.84-5.04-2.52-5.04c-1.44,0-3.33,1.38-5.67,4.14
			c-0.06,0.06-0.18,0.09-0.36,0.09c-0.24,0-0.43-0.1-0.58-0.31c-0.15-0.21-0.16-0.4-0.04-0.58c1.8-2.46,3.49-4.26,5.08-5.4
			c1.59-1.14,3.25-1.71,5-1.71c1.8,0,3.11,0.6,3.92,1.8c0.81,1.2,1.21,3,1.21,5.4v11.34c1.2-6,3.07-10.65,5.63-13.95
			c2.55-3.3,5.62-4.95,9.23-4.95c2.76,0,4.81,0.96,6.16,2.88c1.35,1.92,1.99,4.92,1.94,9l-0.09,16.02c0,1.74,0.19,3,0.58,3.78
			c0.39,0.78,1,1.17,1.84,1.17c1.26,0,3.03-1.29,5.31-3.87C279.24,63.01,279.33,62.98,279.46,62.98z"/>
		<path class="st1" d="M366.75,62.98c0.24,0,0.46,0.11,0.68,0.32c0.21,0.21,0.25,0.38,0.13,0.49c-1.92,2.46-3.59,4.25-4.99,5.36
			c-1.41,1.11-2.96,1.67-4.64,1.67c-3.66,0-5.43-2.55-5.31-7.65l0.09-15.48c0-6.36-1.56-9.54-4.68-9.54c-1.98,0-3.81,1.19-5.49,3.55
			c-1.68,2.37-3.05,5.84-4.1,10.4c-1.05,4.56-1.61,9.96-1.66,16.2v0.9c0,0.48-0.3,0.86-0.9,1.13c-0.6,0.27-1.5,0.41-2.7,0.41
			c-0.96,0-1.62-0.05-1.98-0.14c-0.36-0.09-0.6-0.26-0.72-0.49c0-0.18,0.04-0.99,0.13-2.43c0.09-1.44,0.13-2.88,0.13-4.32
			l0.09-15.75c-0.06-6.3-1.65-9.45-4.77-9.45c-1.98,0-3.81,1.19-5.49,3.55c-1.68,2.37-3.03,5.78-4.05,10.22
			c-1.02,4.44-1.56,9.63-1.62,15.57v1.71c0,0.48-0.31,0.86-0.95,1.13c-0.63,0.27-1.52,0.41-2.65,0.41c-1.2,0-1.95-0.08-2.25-0.23
			c-0.3-0.15-0.45-0.4-0.45-0.76c0-0.48,0.03-1.23,0.09-2.25c0.06-1.02,0.09-2.31,0.09-3.87l0.18-20.34c0-3.36-0.84-5.04-2.52-5.04
			c-1.44,0-3.33,1.38-5.67,4.14c-0.12,0.12-0.24,0.18-0.36,0.18c-0.24,0-0.43-0.1-0.58-0.31c-0.15-0.21-0.17-0.43-0.04-0.67
			c1.8-2.46,3.49-4.26,5.08-5.4s3.25-1.71,5-1.71c1.8,0,3.1,0.6,3.91,1.8c0.81,1.2,1.21,3,1.21,5.4v10.53
			c1.14-5.7,2.94-10.14,5.4-13.32c2.46-3.18,5.4-4.77,8.82-4.77c5.16,0,7.71,3.93,7.65,11.79v6.3c1.14-5.76,2.92-10.21,5.35-13.37
			c2.43-3.15,5.36-4.72,8.78-4.72c2.64,0,4.59,0.96,5.85,2.88c1.26,1.92,1.89,4.92,1.89,9l-0.09,16.02c0,3.3,0.81,4.95,2.43,4.95
			c0.72,0,1.52-0.33,2.38-0.99c0.87-0.66,1.88-1.62,3.02-2.88C366.54,63.01,366.63,62.98,366.75,62.98z"/>
		<path class="st1" d="M398.7,64.78c0.18,0,0.36,0.09,0.54,0.27c0.18,0.18,0.21,0.36,0.09,0.54c-3.84,3.66-8.34,5.49-13.5,5.49
			c-3.48,0-6.43-0.8-8.86-2.39c-2.43-1.59-4.25-3.69-5.45-6.3c-1.2-2.61-1.8-5.41-1.8-8.42c0-3.36,0.81-6.57,2.43-9.63
			s3.9-5.54,6.84-7.43c2.94-1.89,6.27-2.83,9.99-2.83c2.52,0,4.47,0.44,5.85,1.3c1.38,0.87,2.13,2.06,2.25,3.55
			c0.06,2.64-1.92,5.06-5.94,7.25c-4.02,2.19-8.94,3.77-14.76,4.73c0.12,4.98,1.32,9.03,3.6,12.15c2.28,3.12,5.46,4.68,9.54,4.68
			c1.56,0,3.13-0.24,4.72-0.72c1.59-0.48,3.02-1.23,4.28-2.25H398.7z M378.63,40.12c-1.44,2.4-2.19,5.55-2.25,9.45
			c8.82-1.56,13.23-4.59,13.23-9.09c0-1.26-0.42-2.23-1.26-2.92c-0.84-0.69-2.01-1.04-3.51-1.04
			C382.14,36.52,380.07,37.72,378.63,40.12z"/>
	</g>
</g>
</svg>
