<?xml version="1.0" encoding="utf-8"?>
<!-- Generator: Adobe Illustrator 24.0.2, SVG Export Plug-In . SVG Version: 6.00 Build 0)  -->
<svg version="1.1" id="Layer_1" xmlns="http://www.w3.org/2000/svg" xmlns:xlink="http://www.w3.org/1999/xlink" x="0px" y="0px"
	 viewBox="0 0 700 200" style="enable-background:new 0 0 700 200;" xml:space="preserve">
<style type="text/css">
	.st0{opacity:0.2;}
	.st1{fill:#F1E9E9;}
</style>
<g class="st0">
	<path d="M5.74,134.9c0-0.8,0.13-1.2,0.4-1.2c4.53,0,7.87-0.33,10-1c2.13-0.67,3.6-1.97,4.4-3.9c0.8-1.93,1.13-4.9,1-8.9V27.3
		c0-4-0.4-6.93-1.2-8.8c-0.8-1.87-2.27-3.17-4.4-3.9c-2.13-0.73-5.4-1.1-9.8-1.1c-0.27,0-0.43-0.4-0.5-1.2
		c-0.07-0.8,0.1-1.2,0.5-1.2l9.4,0.2c5.6,0.27,10.13,0.4,13.6,0.4c4,0,8.8-0.13,14.4-0.4l9-0.2c0.4,0,0.6,0.4,0.6,1.2
		c0,0.8-0.2,1.2-0.6,1.2c-4.4,0-7.63,0.4-9.7,1.2c-2.07,0.8-3.47,2.17-4.2,4.1c-0.73,1.93-1.17,4.9-1.3,8.9v92.2
		c0.13,4,0.57,6.97,1.3,8.9c0.73,1.93,2.13,3.23,4.2,3.9c2.07,0.67,5.3,1,9.7,1c0.4,0,0.6,0.4,0.6,1.2c0,0.8-0.13,1.2-0.4,1.2
		c-4,0-7.07-0.06-9.2-0.2l-14-0.2l-13.4,0.2c-2.4,0.13-5.67,0.2-9.8,0.2C5.94,136.1,5.74,135.7,5.74,134.9z"/>
	<path d="M88.53,14.9c2.4,3.2,3.6,7.73,3.6,13.6c0,5.6-1.23,10.77-3.7,15.5c-2.47,4.73-6.17,9.5-11.1,14.3
		c-0.13,0.13-0.33,0.2-0.6,0.2c-0.4,0-0.73-0.2-1-0.6c-0.27-0.4-0.27-0.73,0-1c6.53-6.67,9.8-14.53,9.8-23.6c0-3.73-0.67-6.47-2-8.2
		c-1.2,2-3.4,3-6.6,3c-2.67,0-4.77-0.83-6.3-2.5c-1.53-1.67-2.3-3.83-2.3-6.5c0-2.93,0.9-5.17,2.7-6.7c1.8-1.53,4.37-2.3,7.7-2.3
		C82.87,10.1,86.13,11.7,88.53,14.9z"/>
	<path d="M244.93,120.5c0.53,0,1.03,0.23,1.5,0.7c0.47,0.47,0.57,0.83,0.3,1.1c-4.27,5.47-7.97,9.43-11.1,11.9
		c-3.13,2.47-6.57,3.7-10.3,3.7c-8.13,0-12.07-5.67-11.8-17l0.2-34.4c0-14.13-3.47-21.2-10.4-21.2c-4.4,0-8.47,2.63-12.2,7.9
		c-3.73,5.27-6.77,12.97-9.1,23.1c-2.33,10.13-3.57,22.13-3.7,36v2c0,1.07-0.67,1.9-2,2.5c-1.33,0.6-3.33,0.9-6,0.9
		c-2.13,0-3.6-0.1-4.4-0.3c-0.8-0.2-1.33-0.57-1.6-1.1c0-0.4,0.1-2.2,0.3-5.4c0.2-3.2,0.3-6.4,0.3-9.6l0.2-35
		c-0.13-14-3.67-21-10.6-21c-4.4,0-8.47,2.63-12.2,7.9c-3.73,5.27-6.73,12.83-9,22.7c-2.27,9.87-3.47,21.4-3.6,34.6v3.8
		c0,1.07-0.7,1.9-2.1,2.5c-1.4,0.6-3.37,0.9-5.9,0.9c-2.67,0-4.33-0.17-5-0.5c-0.67-0.33-1-0.9-1-1.7c0-1.07,0.07-2.73,0.2-5
		c0.13-2.27,0.2-5.13,0.2-8.6l0.4-45.2c0-7.47-1.87-11.2-5.6-11.2c-3.2,0-7.4,3.07-12.6,9.2c-0.27,0.27-0.53,0.4-0.8,0.4
		c-0.53,0-0.97-0.23-1.3-0.7c-0.33-0.47-0.37-0.97-0.1-1.5c4-5.47,7.77-9.47,11.3-12c3.53-2.53,7.23-3.8,11.1-3.8
		c4,0,6.9,1.33,8.7,4c1.8,2.67,2.7,6.67,2.7,12v23.4c2.53-12.67,6.53-22.53,12-29.6c5.47-7.07,12-10.6,19.6-10.6
		c11.47,0,17.13,8.73,17,26.2v14c2.53-12.8,6.5-22.7,11.9-29.7s11.9-10.5,19.5-10.5c5.87,0,10.2,2.13,13,6.4
		c2.8,4.27,4.2,10.93,4.2,20l-0.2,35.6c0,7.33,1.8,11,5.4,11c1.6,0,3.37-0.73,5.3-2.2c1.93-1.46,4.17-3.6,6.7-6.4
		C244.46,120.57,244.66,120.5,244.93,120.5z"/>
	<path d="M438.93,120.5c0.53,0,1.03,0.23,1.5,0.7c0.46,0.47,0.57,0.83,0.3,1.1c-4.27,5.47-7.97,9.43-11.1,11.9s-6.57,3.7-10.3,3.7
		c-8.13,0-12.07-5.67-11.8-17l0.2-34.4c0-14.13-3.47-21.2-10.4-21.2c-4.4,0-8.47,2.63-12.2,7.9c-3.73,5.27-6.77,12.97-9.1,23.1
		c-2.33,10.13-3.57,22.13-3.7,36v2c0,1.07-0.67,1.9-2,2.5c-1.33,0.6-3.33,0.9-6,0.9c-2.13,0-3.6-0.1-4.4-0.3
		c-0.8-0.2-1.33-0.57-1.6-1.1c0-0.4,0.1-2.2,0.3-5.4c0.2-3.2,0.3-6.4,0.3-9.6l0.2-35c-0.13-14-3.67-21-10.6-21
		c-4.4,0-8.47,2.63-12.2,7.9c-3.73,5.27-6.73,12.83-9,22.7c-2.27,9.87-3.47,21.4-3.6,34.6v3.8c0,1.07-0.7,1.9-2.1,2.5
		c-1.4,0.6-3.37,0.9-5.9,0.9c-2.67,0-4.33-0.17-5-0.5c-0.67-0.33-1-0.9-1-1.7c0-1.07,0.07-2.73,0.2-5c0.13-2.27,0.2-5.13,0.2-8.6
		l0.4-45.2c0-7.47-1.87-11.2-5.6-11.2c-3.2,0-7.4,3.07-12.6,9.2c-0.27,0.27-0.53,0.4-0.8,0.4c-0.53,0-0.97-0.23-1.3-0.7
		c-0.33-0.47-0.37-0.97-0.1-1.5c4-5.47,7.77-9.47,11.3-12c3.53-2.53,7.23-3.8,11.1-3.8c4,0,6.9,1.33,8.7,4c1.8,2.67,2.7,6.67,2.7,12
		v23.4c2.53-12.67,6.53-22.53,12-29.6c5.46-7.07,12-10.6,19.6-10.6c11.47,0,17.13,8.73,17,26.2v14c2.53-12.8,6.5-22.7,11.9-29.7
		s11.9-10.5,19.5-10.5c5.87,0,10.2,2.13,13,6.4c2.8,4.27,4.2,10.93,4.2,20l-0.2,35.6c0,7.33,1.8,11,5.4,11c1.6,0,3.37-0.73,5.3-2.2
		c1.93-1.46,4.17-3.6,6.7-6.4C438.46,120.57,438.66,120.5,438.93,120.5z"/>
	<path d="M460.73,133.6c-2-2.87-2.93-7.1-2.8-12.7l0.6-44.2c0.13-7.47-1.73-11.2-5.6-11.2c-3.2,0-7.4,3.07-12.6,9.2
		c-0.13,0.13-0.33,0.2-0.6,0.2c-0.53,0-1-0.23-1.4-0.7c-0.4-0.47-0.47-0.9-0.2-1.3c4-5.33,7.8-9.3,11.4-11.9s7.27-3.9,11-3.9
		c4,0,6.97,1.33,8.9,4c1.93,2.67,2.9,6.67,2.9,12l-0.6,45.2c-0.13,7.33,1.6,11,5.2,11c1.6,0,3.3-0.7,5.1-2.1s4.1-3.57,6.9-6.5
		c0.13-0.13,0.33-0.2,0.6-0.2c0.4,0,0.8,0.23,1.2,0.7c0.4,0.47,0.53,0.83,0.4,1.1c-4,5.33-7.63,9.27-10.9,11.8
		c-3.27,2.53-6.77,3.8-10.5,3.8C465.73,137.9,462.73,136.47,460.73,133.6z M456.03,32.1c-1.8-1.73-2.7-4.13-2.7-7.2
		c0-2.8,0.9-5.03,2.7-6.7c1.8-1.67,4.23-2.5,7.3-2.5c2.93,0,5.23,0.83,6.9,2.5c1.67,1.67,2.5,3.9,2.5,6.7c0,3.07-0.83,5.47-2.5,7.2
		c-1.67,1.73-3.97,2.6-6.9,2.6C460.26,34.7,457.83,33.84,456.03,32.1z"/>
	<path d="M591.73,120.5c0.53,0,1.03,0.23,1.5,0.7c0.47,0.47,0.57,0.83,0.3,1.1c-4.13,5.33-7.8,9.27-11,11.8s-6.67,3.8-10.4,3.8
		c-4,0-6.97-1.4-8.9-4.2c-1.93-2.8-2.9-7.07-2.9-12.8l0.4-34.4c0-14.13-3.73-21.2-11.2-21.2c-4.8,0-9.2,2.67-13.2,8
		c-4,5.33-7.2,13.2-9.6,23.6c-2.4,10.4-3.6,22.87-3.6,37.4c0,1.07-0.7,1.9-2.1,2.5c-1.4,0.6-3.43,0.9-6.1,0.9
		c-2.67,0-4.33-0.17-5-0.5c-0.67-0.33-1-0.9-1-1.7c0-0.93,0.07-2.6,0.2-5c0.13-2.4,0.2-5.46,0.2-9.2l0.4-44.6
		c0-7.47-1.87-11.2-5.6-11.2c-3.2,0-7.4,3.07-12.6,9.2c-0.13,0.13-0.4,0.2-0.8,0.2c-0.53,0-0.97-0.23-1.3-0.7
		c-0.33-0.47-0.37-0.9-0.1-1.3c4-5.47,7.77-9.47,11.3-12c3.53-2.53,7.23-3.8,11.1-3.8c4,0,6.9,1.33,8.7,4c1.8,2.67,2.7,6.67,2.7,12
		v25.2c2.67-13.33,6.83-23.67,12.5-31c5.67-7.33,12.5-11,20.5-11c6.13,0,10.7,2.13,13.7,6.4c3,4.27,4.43,10.93,4.3,20l-0.2,35.6
		c0,3.87,0.43,6.67,1.3,8.4c0.87,1.73,2.23,2.6,4.1,2.6c2.8,0,6.73-2.87,11.8-8.6C591.26,120.57,591.46,120.5,591.73,120.5z"/>
	<path d="M591.03,188.3c-3.13-1.87-4.77-4.13-4.9-6.8c0-2.13,0.63-3.77,1.9-4.9c1.27-1.13,2.9-1.7,4.9-1.7c2.4,0,4.2,0.63,5.4,1.9
		c1.2,1.27,2.33,3.03,3.4,5.3c0.93,2,1.77,3.43,2.5,4.3c0.73,0.87,1.83,1.3,3.3,1.3c1.87,0,3.27-1.2,4.2-3.6
		c0.93-2.4,1.53-6.3,1.8-11.7c0.27-5.4,0.4-13.77,0.4-25.1l-0.4-70.6c0-7.47-1.87-11.2-5.6-11.2c-2.93,0-7.13,3.07-12.6,9.2
		c-0.13,0.13-0.33,0.2-0.6,0.2c-0.54,0-1-0.23-1.4-0.7c-0.4-0.47-0.47-0.9-0.2-1.3c4.13-5.47,7.97-9.47,11.5-12
		c3.53-2.53,7.17-3.8,10.9-3.8c4,0,6.9,1.33,8.7,4c1.8,2.67,2.77,6.67,2.9,12v69.4c0.13,12.67-0.5,22.47-1.9,29.4
		c-1.4,6.93-3.8,11.87-7.2,14.8c-3.4,2.93-8.23,4.4-14.5,4.4C598.33,191.1,594.16,190.17,591.03,188.3z M609.23,32.1
		c-1.8-1.73-2.7-4.13-2.7-7.2c0-2.8,0.9-5.03,2.7-6.7c1.8-1.67,4.23-2.5,7.3-2.5c2.93,0,5.23,0.83,6.9,2.5
		c1.67,1.67,2.5,3.9,2.5,6.7c0,3.07-0.83,5.47-2.5,7.2c-1.67,1.73-3.97,2.6-6.9,2.6C613.46,34.7,611.03,33.84,609.23,32.1z"/>
	<path d="M664.52,133.6c-2-2.87-2.93-7.1-2.8-12.7l0.6-44.2c0.13-7.47-1.73-11.2-5.6-11.2c-3.2,0-7.4,3.07-12.6,9.2
		c-0.13,0.13-0.33,0.2-0.6,0.2c-0.53,0-1-0.23-1.4-0.7c-0.4-0.47-0.47-0.9-0.2-1.3c4-5.33,7.8-9.3,11.4-11.9s7.27-3.9,11-3.9
		c4,0,6.97,1.33,8.9,4c1.93,2.67,2.9,6.67,2.9,12l-0.6,45.2c-0.13,7.33,1.6,11,5.2,11c1.6,0,3.3-0.7,5.1-2.1s4.1-3.57,6.9-6.5
		c0.13-0.13,0.33-0.2,0.6-0.2c0.4,0,0.8,0.23,1.2,0.7c0.4,0.47,0.53,0.83,0.4,1.1c-4,5.33-7.63,9.27-10.9,11.8
		c-3.27,2.53-6.77,3.8-10.5,3.8C669.52,137.9,666.52,136.47,664.52,133.6z M659.82,32.1c-1.8-1.73-2.7-4.13-2.7-7.2
		c0-2.8,0.9-5.03,2.7-6.7c1.8-1.67,4.23-2.5,7.3-2.5c2.93,0,5.23,0.83,6.9,2.5c1.67,1.67,2.5,3.9,2.5,6.7c0,3.07-0.83,5.47-2.5,7.2
		c-1.67,1.73-3.97,2.6-6.9,2.6C664.06,34.7,661.62,33.84,659.82,32.1z"/>
</g>
<g>
	<path class="st1" d="M4.74,133.9c0-0.8,0.13-1.2,0.4-1.2c4.53,0,7.87-0.33,10-1c2.13-0.67,3.6-1.97,4.4-3.9
		c0.8-1.93,1.13-4.9,1-8.9V26.3c0-4-0.4-6.93-1.2-8.8c-0.8-1.87-2.27-3.17-4.4-3.9c-2.13-0.73-5.4-1.1-9.8-1.1
		c-0.27,0-0.43-0.4-0.5-1.2c-0.07-0.8,0.1-1.2,0.5-1.2l9.4,0.2c5.6,0.27,10.13,0.4,13.6,0.4c4,0,8.8-0.13,14.4-0.4l9-0.2
		c0.4,0,0.6,0.4,0.6,1.2c0,0.8-0.2,1.2-0.6,1.2c-4.4,0-7.63,0.4-9.7,1.2c-2.07,0.8-3.47,2.17-4.2,4.1c-0.73,1.93-1.17,4.9-1.3,8.9
		v92.2c0.13,4,0.57,6.97,1.3,8.9c0.73,1.93,2.13,3.23,4.2,3.9c2.07,0.67,5.3,1,9.7,1c0.4,0,0.6,0.4,0.6,1.2c0,0.8-0.13,1.2-0.4,1.2
		c-4,0-7.07-0.06-9.2-0.2l-14-0.2l-13.4,0.2c-2.4,0.13-5.67,0.2-9.8,0.2C4.94,135.1,4.74,134.7,4.74,133.9z"/>
	<path class="st1" d="M87.53,13.9c2.4,3.2,3.6,7.73,3.6,13.6c0,5.6-1.23,10.77-3.7,15.5c-2.47,4.73-6.17,9.5-11.1,14.3
		c-0.13,0.13-0.33,0.2-0.6,0.2c-0.4,0-0.73-0.2-1-0.6c-0.27-0.4-0.27-0.73,0-1c6.53-6.67,9.8-14.53,9.8-23.6c0-3.73-0.67-6.47-2-8.2
		c-1.2,2-3.4,3-6.6,3c-2.67,0-4.77-0.83-6.3-2.5c-1.53-1.67-2.3-3.83-2.3-6.5c0-2.93,0.9-5.17,2.7-6.7c1.8-1.53,4.37-2.3,7.7-2.3
		C81.87,9.1,85.13,10.7,87.53,13.9z"/>
	<path class="st1" d="M243.93,119.5c0.53,0,1.03,0.23,1.5,0.7c0.47,0.47,0.57,0.83,0.3,1.1c-4.27,5.47-7.97,9.43-11.1,11.9
		c-3.13,2.47-6.57,3.7-10.3,3.7c-8.13,0-12.07-5.67-11.8-17l0.2-34.4c0-14.13-3.47-21.2-10.4-21.2c-4.4,0-8.47,2.63-12.2,7.9
		c-3.73,5.27-6.77,12.97-9.1,23.1c-2.33,10.13-3.57,22.13-3.7,36v2c0,1.07-0.67,1.9-2,2.5c-1.33,0.6-3.33,0.9-6,0.9
		c-2.13,0-3.6-0.1-4.4-0.3c-0.8-0.2-1.33-0.57-1.6-1.1c0-0.4,0.1-2.2,0.3-5.4c0.2-3.2,0.3-6.4,0.3-9.6l0.2-35
		c-0.13-14-3.67-21-10.6-21c-4.4,0-8.47,2.63-12.2,7.9c-3.73,5.27-6.73,12.83-9,22.7c-2.27,9.87-3.47,21.4-3.6,34.6v3.8
		c0,1.07-0.7,1.9-2.1,2.5c-1.4,0.6-3.37,0.9-5.9,0.9c-2.67,0-4.33-0.17-5-0.5c-0.67-0.33-1-0.9-1-1.7c0-1.07,0.07-2.73,0.2-5
		c0.13-2.27,0.2-5.13,0.2-8.6l0.4-45.2c0-7.47-1.87-11.2-5.6-11.2c-3.2,0-7.4,3.07-12.6,9.2c-0.27,0.27-0.53,0.4-0.8,0.4
		c-0.53,0-0.97-0.23-1.3-0.7c-0.33-0.47-0.37-0.97-0.1-1.5c4-5.47,7.77-9.47,11.3-12c3.53-2.53,7.23-3.8,11.1-3.8
		c4,0,6.9,1.33,8.7,4c1.8,2.67,2.7,6.67,2.7,12v23.4c2.53-12.67,6.53-22.53,12-29.6c5.47-7.07,12-10.6,19.6-10.6
		c11.47,0,17.13,8.73,17,26.2v14c2.53-12.8,6.5-22.7,11.9-29.7s11.9-10.5,19.5-10.5c5.87,0,10.2,2.13,13,6.4
		c2.8,4.27,4.2,10.93,4.2,20l-0.2,35.6c0,7.33,1.8,11,5.4,11c1.6,0,3.37-0.73,5.3-2.2c1.93-1.46,4.17-3.6,6.7-6.4
		C243.46,119.57,243.66,119.5,243.93,119.5z"/>
	<path class="st1" d="M437.93,119.5c0.53,0,1.03,0.23,1.5,0.7c0.46,0.47,0.57,0.83,0.3,1.1c-4.27,5.47-7.97,9.43-11.1,11.9
		s-6.57,3.7-10.3,3.7c-8.13,0-12.07-5.67-11.8-17l0.2-34.4c0-14.13-3.47-21.2-10.4-21.2c-4.4,0-8.47,2.63-12.2,7.9
		c-3.73,5.27-6.77,12.97-9.1,23.1c-2.33,10.13-3.57,22.13-3.7,36v2c0,1.07-0.67,1.9-2,2.5c-1.33,0.6-3.33,0.9-6,0.9
		c-2.13,0-3.6-0.1-4.4-0.3c-0.8-0.2-1.33-0.57-1.6-1.1c0-0.4,0.1-2.2,0.3-5.4c0.2-3.2,0.3-6.4,0.3-9.6l0.2-35
		c-0.13-14-3.67-21-10.6-21c-4.4,0-8.47,2.63-12.2,7.9c-3.73,5.27-6.73,12.83-9,22.7c-2.27,9.87-3.47,21.4-3.6,34.6v3.8
		c0,1.07-0.7,1.9-2.1,2.5c-1.4,0.6-3.37,0.9-5.9,0.9c-2.67,0-4.33-0.17-5-0.5c-0.67-0.33-1-0.9-1-1.7c0-1.07,0.07-2.73,0.2-5
		c0.13-2.27,0.2-5.13,0.2-8.6l0.4-45.2c0-7.47-1.87-11.2-5.6-11.2c-3.2,0-7.4,3.07-12.6,9.2c-0.27,0.27-0.53,0.4-0.8,0.4
		c-0.53,0-0.97-0.23-1.3-0.7c-0.33-0.47-0.37-0.97-0.1-1.5c4-5.47,7.77-9.47,11.3-12c3.53-2.53,7.23-3.8,11.1-3.8
		c4,0,6.9,1.33,8.7,4c1.8,2.67,2.7,6.67,2.7,12v23.4c2.53-12.67,6.53-22.53,12-29.6c5.46-7.07,12-10.6,19.6-10.6
		c11.47,0,17.13,8.73,17,26.2v14c2.53-12.8,6.5-22.7,11.9-29.7s11.9-10.5,19.5-10.5c5.87,0,10.2,2.13,13,6.4
		c2.8,4.27,4.2,10.93,4.2,20l-0.2,35.6c0,7.33,1.8,11,5.4,11c1.6,0,3.37-0.73,5.3-2.2c1.93-1.46,4.17-3.6,6.7-6.4
		C437.46,119.57,437.66,119.5,437.93,119.5z"/>
	<path class="st1" d="M459.73,132.6c-2-2.87-2.93-7.1-2.8-12.7l0.6-44.2c0.13-7.47-1.73-11.2-5.6-11.2c-3.2,0-7.4,3.07-12.6,9.2
		c-0.13,0.13-0.33,0.2-0.6,0.2c-0.53,0-1-0.23-1.4-0.7c-0.4-0.47-0.47-0.9-0.2-1.3c4-5.33,7.8-9.3,11.4-11.9s7.27-3.9,11-3.9
		c4,0,6.97,1.33,8.9,4c1.93,2.67,2.9,6.67,2.9,12l-0.6,45.2c-0.13,7.33,1.6,11,5.2,11c1.6,0,3.3-0.7,5.1-2.1s4.1-3.57,6.9-6.5
		c0.13-0.13,0.33-0.2,0.6-0.2c0.4,0,0.8,0.23,1.2,0.7c0.4,0.47,0.53,0.83,0.4,1.1c-4,5.33-7.63,9.27-10.9,11.8
		c-3.27,2.53-6.77,3.8-10.5,3.8C464.73,136.9,461.73,135.47,459.73,132.6z M455.03,31.1c-1.8-1.73-2.7-4.13-2.7-7.2
		c0-2.8,0.9-5.03,2.7-6.7c1.8-1.67,4.23-2.5,7.3-2.5c2.93,0,5.23,0.83,6.9,2.5c1.67,1.67,2.5,3.9,2.5,6.7c0,3.07-0.83,5.47-2.5,7.2
		c-1.67,1.73-3.97,2.6-6.9,2.6C459.26,33.7,456.83,32.84,455.03,31.1z"/>
	<path class="st1" d="M590.73,119.5c0.53,0,1.03,0.23,1.5,0.7c0.47,0.47,0.57,0.83,0.3,1.1c-4.13,5.33-7.8,9.27-11,11.8
		s-6.67,3.8-10.4,3.8c-4,0-6.97-1.4-8.9-4.2c-1.93-2.8-2.9-7.07-2.9-12.8l0.4-34.4c0-14.13-3.73-21.2-11.2-21.2
		c-4.8,0-9.2,2.67-13.2,8c-4,5.33-7.2,13.2-9.6,23.6c-2.4,10.4-3.6,22.87-3.6,37.4c0,1.07-0.7,1.9-2.1,2.5
		c-1.4,0.6-3.43,0.9-6.1,0.9c-2.67,0-4.33-0.17-5-0.5c-0.67-0.33-1-0.9-1-1.7c0-0.93,0.07-2.6,0.2-5c0.13-2.4,0.2-5.46,0.2-9.2
		l0.4-44.6c0-7.47-1.87-11.2-5.6-11.2c-3.2,0-7.4,3.07-12.6,9.2c-0.13,0.13-0.4,0.2-0.8,0.2c-0.53,0-0.97-0.23-1.3-0.7
		c-0.33-0.47-0.37-0.9-0.1-1.3c4-5.47,7.77-9.47,11.3-12c3.53-2.53,7.23-3.8,11.1-3.8c4,0,6.9,1.33,8.7,4c1.8,2.67,2.7,6.67,2.7,12
		v25.2c2.67-13.33,6.83-23.67,12.5-31c5.67-7.33,12.5-11,20.5-11c6.13,0,10.7,2.13,13.7,6.4c3,4.27,4.43,10.93,4.3,20l-0.2,35.6
		c0,3.87,0.43,6.67,1.3,8.4c0.87,1.73,2.23,2.6,4.1,2.6c2.8,0,6.73-2.87,11.8-8.6C590.26,119.57,590.46,119.5,590.73,119.5z"/>
	<path class="st1" d="M590.03,187.3c-3.13-1.87-4.77-4.13-4.9-6.8c0-2.13,0.63-3.77,1.9-4.9c1.27-1.13,2.9-1.7,4.9-1.7
		c2.4,0,4.2,0.63,5.4,1.9c1.2,1.27,2.33,3.03,3.4,5.3c0.93,2,1.77,3.43,2.5,4.3c0.73,0.87,1.83,1.3,3.3,1.3c1.87,0,3.27-1.2,4.2-3.6
		c0.93-2.4,1.53-6.3,1.8-11.7c0.27-5.4,0.4-13.77,0.4-25.1l-0.4-70.6c0-7.47-1.87-11.2-5.6-11.2c-2.93,0-7.13,3.07-12.6,9.2
		c-0.13,0.13-0.33,0.2-0.6,0.2c-0.54,0-1-0.23-1.4-0.7c-0.4-0.47-0.47-0.9-0.2-1.3c4.13-5.47,7.97-9.47,11.5-12
		c3.53-2.53,7.17-3.8,10.9-3.8c4,0,6.9,1.33,8.7,4c1.8,2.67,2.77,6.67,2.9,12v69.4c0.13,12.67-0.5,22.47-1.9,29.4
		c-1.4,6.93-3.8,11.87-7.2,14.8c-3.4,2.93-8.23,4.4-14.5,4.4C597.33,190.1,593.16,189.17,590.03,187.3z M608.23,31.1
		c-1.8-1.73-2.7-4.13-2.7-7.2c0-2.8,0.9-5.03,2.7-6.7c1.8-1.67,4.23-2.5,7.3-2.5c2.93,0,5.23,0.83,6.9,2.5
		c1.67,1.67,2.5,3.9,2.5,6.7c0,3.07-0.83,5.47-2.5,7.2c-1.67,1.73-3.97,2.6-6.9,2.6C612.46,33.7,610.03,32.84,608.23,31.1z"/>
	<path class="st1" d="M663.52,132.6c-2-2.87-2.93-7.1-2.8-12.7l0.6-44.2c0.13-7.47-1.73-11.2-5.6-11.2c-3.2,0-7.4,3.07-12.6,9.2
		c-0.13,0.13-0.33,0.2-0.6,0.2c-0.53,0-1-0.23-1.4-0.7c-0.4-0.47-0.47-0.9-0.2-1.3c4-5.33,7.8-9.3,11.4-11.9s7.27-3.9,11-3.9
		c4,0,6.97,1.33,8.9,4c1.93,2.67,2.9,6.67,2.9,12l-0.6,45.2c-0.13,7.33,1.6,11,5.2,11c1.6,0,3.3-0.7,5.1-2.1s4.1-3.57,6.9-6.5
		c0.13-0.13,0.33-0.2,0.6-0.2c0.4,0,0.8,0.23,1.2,0.7c0.4,0.47,0.53,0.83,0.4,1.1c-4,5.33-7.63,9.27-10.9,11.8
		c-3.27,2.53-6.77,3.8-10.5,3.8C668.52,136.9,665.52,135.47,663.52,132.6z M658.82,31.1c-1.8-1.73-2.7-4.13-2.7-7.2
		c0-2.8,0.9-5.03,2.7-6.7c1.8-1.67,4.23-2.5,7.3-2.5c2.93,0,5.23,0.83,6.9,2.5c1.67,1.67,2.5,3.9,2.5,6.7c0,3.07-0.83,5.47-2.5,7.2
		c-1.67,1.73-3.97,2.6-6.9,2.6C663.06,33.7,660.62,32.84,658.82,31.1z"/>
</g>
</svg>
