<?xml version="1.0" encoding="utf-8"?>
<!-- Generator: Adobe Illustrator 24.0.2, SVG Export Plug-In . SVG Version: 6.00 Build 0)  -->
<svg version="1.1" id="Layer_1" xmlns="http://www.w3.org/2000/svg" xmlns:xlink="http://www.w3.org/1999/xlink" x="0px" y="0px"
	 viewBox="0 0 700 275" style="enable-background:new 0 0 700 275;" xml:space="preserve">
<style type="text/css">
	.st0{opacity:0.2;}
	.st1{fill:#F1E9E9;}
</style>
<g class="st0">
	<path d="M8.09,150.79c0-0.8,0.13-1.2,0.4-1.2c4.53,0,7.87-0.33,10-1c2.13-0.67,3.6-1.97,4.4-3.9c0.8-1.93,1.13-4.9,1-8.9v-92.6
		c0-4-0.4-6.93-1.2-8.8c-0.8-1.87-2.27-3.17-4.4-3.9c-2.13-0.73-5.4-1.1-9.8-1.1c-0.27,0-0.43-0.4-0.5-1.2
		c-0.07-0.8,0.1-1.2,0.5-1.2l9.4,0.2c5.6,0.27,10.13,0.4,13.6,0.4c4,0,8.8-0.13,14.4-0.4l9-0.2c0.4,0,0.6,0.4,0.6,1.2
		c0,0.8-0.2,1.2-0.6,1.2c-4.4,0-7.63,0.4-9.7,1.2c-2.07,0.8-3.47,2.17-4.2,4.1c-0.73,1.93-1.17,4.9-1.3,8.9v92.2
		c0.13,4,0.57,6.97,1.3,8.9c0.73,1.93,2.13,3.23,4.2,3.9c2.07,0.67,5.3,1,9.7,1c0.4,0,0.6,0.4,0.6,1.2c0,0.8-0.13,1.2-0.4,1.2
		c-4,0-7.07-0.06-9.2-0.2l-14-0.2l-13.4,0.2c-2.4,0.13-5.67,0.2-9.8,0.2C8.29,151.99,8.09,151.59,8.09,150.79z"/>
	<path d="M90.89,30.79c2.4,3.2,3.6,7.73,3.6,13.6c0,5.6-1.23,10.77-3.7,15.5c-2.47,4.73-6.17,9.5-11.1,14.3
		c-0.13,0.13-0.33,0.2-0.6,0.2c-0.4,0-0.73-0.2-1-0.6c-0.27-0.4-0.27-0.73,0-1c6.53-6.67,9.8-14.53,9.8-23.6c0-3.73-0.67-6.47-2-8.2
		c-1.2,2-3.4,3-6.6,3c-2.67,0-4.77-0.83-6.3-2.5c-1.53-1.67-2.3-3.83-2.3-6.5c0-2.93,0.9-5.17,2.7-6.7c1.8-1.53,4.37-2.3,7.7-2.3
		C85.22,25.99,88.49,27.59,90.89,30.79z"/>
	<path d="M247.29,136.39c0.53,0,1.03,0.23,1.5,0.7c0.47,0.47,0.57,0.83,0.3,1.1c-4.27,5.47-7.97,9.43-11.1,11.9
		c-3.13,2.47-6.57,3.7-10.3,3.7c-8.13,0-12.07-5.67-11.8-17l0.2-34.4c0-14.13-3.47-21.2-10.4-21.2c-4.4,0-8.47,2.63-12.2,7.9
		c-3.73,5.27-6.77,12.97-9.1,23.1c-2.33,10.13-3.57,22.13-3.7,36v2c0,1.07-0.67,1.9-2,2.5c-1.33,0.6-3.33,0.9-6,0.9
		c-2.13,0-3.6-0.1-4.4-0.3c-0.8-0.2-1.33-0.57-1.6-1.1c0-0.4,0.1-2.2,0.3-5.4c0.2-3.2,0.3-6.4,0.3-9.6l0.2-35
		c-0.13-14-3.67-21-10.6-21c-4.4,0-8.47,2.63-12.2,7.9c-3.73,5.27-6.73,12.83-9,22.7c-2.27,9.87-3.47,21.4-3.6,34.6v3.8
		c0,1.07-0.7,1.9-2.1,2.5c-1.4,0.6-3.37,0.9-5.9,0.9c-2.67,0-4.33-0.17-5-0.5c-0.67-0.33-1-0.9-1-1.7c0-1.07,0.07-2.73,0.2-5
		c0.13-2.27,0.2-5.13,0.2-8.6l0.4-45.2c0-7.47-1.87-11.2-5.6-11.2c-3.2,0-7.4,3.07-12.6,9.2c-0.27,0.27-0.53,0.4-0.8,0.4
		c-0.53,0-0.97-0.23-1.3-0.7c-0.33-0.47-0.37-0.97-0.1-1.5c4-5.47,7.77-9.47,11.3-12c3.53-2.53,7.23-3.8,11.1-3.8
		c4,0,6.9,1.33,8.7,4c1.8,2.67,2.7,6.67,2.7,12v23.4c2.53-12.67,6.53-22.53,12-29.6c5.47-7.07,12-10.6,19.6-10.6
		c11.47,0,17.13,8.73,17,26.2v14c2.53-12.8,6.5-22.7,11.9-29.7s11.9-10.5,19.5-10.5c5.87,0,10.2,2.13,13,6.4
		c2.8,4.27,4.2,10.93,4.2,20l-0.2,35.6c0,7.33,1.8,11,5.4,11c1.6,0,3.37-0.73,5.3-2.2c1.93-1.46,4.17-3.6,6.7-6.4
		C246.82,136.46,247.02,136.39,247.29,136.39z"/>
	<path d="M441.28,136.39c0.53,0,1.03,0.23,1.5,0.7c0.46,0.47,0.57,0.83,0.3,1.1c-4.27,5.47-7.97,9.43-11.1,11.9s-6.57,3.7-10.3,3.7
		c-8.13,0-12.07-5.67-11.8-17l0.2-34.4c0-14.13-3.47-21.2-10.4-21.2c-4.4,0-8.47,2.63-12.2,7.9c-3.73,5.27-6.77,12.97-9.1,23.1
		c-2.33,10.13-3.57,22.13-3.7,36v2c0,1.07-0.67,1.9-2,2.5c-1.33,0.6-3.33,0.9-6,0.9c-2.13,0-3.6-0.1-4.4-0.3
		c-0.8-0.2-1.33-0.57-1.6-1.1c0-0.4,0.1-2.2,0.3-5.4c0.2-3.2,0.3-6.4,0.3-9.6l0.2-35c-0.13-14-3.67-21-10.6-21
		c-4.4,0-8.47,2.63-12.2,7.9c-3.73,5.27-6.73,12.83-9,22.7c-2.27,9.87-3.47,21.4-3.6,34.6v3.8c0,1.07-0.7,1.9-2.1,2.5
		c-1.4,0.6-3.37,0.9-5.9,0.9c-2.67,0-4.33-0.17-5-0.5c-0.67-0.33-1-0.9-1-1.7c0-1.07,0.07-2.73,0.2-5c0.13-2.27,0.2-5.13,0.2-8.6
		l0.4-45.2c0-7.47-1.87-11.2-5.6-11.2c-3.2,0-7.4,3.07-12.6,9.2c-0.27,0.27-0.53,0.4-0.8,0.4c-0.53,0-0.97-0.23-1.3-0.7
		c-0.33-0.47-0.37-0.97-0.1-1.5c4-5.47,7.77-9.47,11.3-12c3.53-2.53,7.23-3.8,11.1-3.8c4,0,6.9,1.33,8.7,4c1.8,2.67,2.7,6.67,2.7,12
		v23.4c2.53-12.67,6.53-22.53,12-29.6c5.46-7.07,12-10.6,19.6-10.6c11.47,0,17.13,8.73,17,26.2v14c2.53-12.8,6.5-22.7,11.9-29.7
		s11.9-10.5,19.5-10.5c5.87,0,10.2,2.13,13,6.4c2.8,4.27,4.2,10.93,4.2,20l-0.2,35.6c0,7.33,1.8,11,5.4,11c1.6,0,3.37-0.73,5.3-2.2
		c1.93-1.46,4.17-3.6,6.7-6.4C440.81,136.46,441.01,136.39,441.28,136.39z"/>
	<path d="M463.08,149.49c-2-2.87-2.93-7.1-2.8-12.7l0.6-44.2c0.13-7.47-1.73-11.2-5.6-11.2c-3.2,0-7.4,3.07-12.6,9.2
		c-0.13,0.13-0.33,0.2-0.6,0.2c-0.53,0-1-0.23-1.4-0.7c-0.4-0.47-0.47-0.9-0.2-1.3c4-5.33,7.8-9.3,11.4-11.9s7.27-3.9,11-3.9
		c4,0,6.97,1.33,8.9,4c1.93,2.67,2.9,6.67,2.9,12l-0.6,45.2c-0.13,7.33,1.6,11,5.2,11c1.6,0,3.3-0.7,5.1-2.1s4.1-3.57,6.9-6.5
		c0.13-0.13,0.33-0.2,0.6-0.2c0.4,0,0.8,0.23,1.2,0.7c0.4,0.47,0.53,0.83,0.4,1.1c-4,5.33-7.63,9.27-10.9,11.8
		c-3.27,2.53-6.77,3.8-10.5,3.8C468.08,153.79,465.08,152.35,463.08,149.49z M458.38,47.99c-1.8-1.73-2.7-4.13-2.7-7.2
		c0-2.8,0.9-5.03,2.7-6.7c1.8-1.67,4.23-2.5,7.3-2.5c2.93,0,5.23,0.83,6.9,2.5c1.67,1.67,2.5,3.9,2.5,6.7c0,3.07-0.83,5.47-2.5,7.2
		c-1.67,1.73-3.97,2.6-6.9,2.6C462.61,50.59,460.18,49.72,458.38,47.99z"/>
	<path d="M594.08,136.39c0.53,0,1.03,0.23,1.5,0.7c0.47,0.47,0.57,0.83,0.3,1.1c-4.13,5.33-7.8,9.27-11,11.8s-6.67,3.8-10.4,3.8
		c-4,0-6.97-1.4-8.9-4.2c-1.93-2.8-2.9-7.07-2.9-12.8l0.4-34.4c0-14.13-3.73-21.2-11.2-21.2c-4.8,0-9.2,2.67-13.2,8
		c-4,5.33-7.2,13.2-9.6,23.6c-2.4,10.4-3.6,22.87-3.6,37.4c0,1.07-0.7,1.9-2.1,2.5c-1.4,0.6-3.43,0.9-6.1,0.9
		c-2.67,0-4.33-0.17-5-0.5c-0.67-0.33-1-0.9-1-1.7c0-0.93,0.07-2.6,0.2-5c0.13-2.4,0.2-5.46,0.2-9.2l0.4-44.6
		c0-7.47-1.87-11.2-5.6-11.2c-3.2,0-7.4,3.07-12.6,9.2c-0.13,0.13-0.4,0.2-0.8,0.2c-0.53,0-0.97-0.23-1.3-0.7
		c-0.33-0.47-0.37-0.9-0.1-1.3c4-5.47,7.77-9.47,11.3-12c3.53-2.53,7.23-3.8,11.1-3.8c4,0,6.9,1.33,8.7,4c1.8,2.67,2.7,6.67,2.7,12
		v25.2c2.67-13.33,6.83-23.67,12.5-31c5.67-7.33,12.5-11,20.5-11c6.13,0,10.7,2.13,13.7,6.4c3,4.27,4.43,10.93,4.3,20l-0.2,35.6
		c0,3.87,0.43,6.67,1.3,8.4c0.87,1.73,2.23,2.6,4.1,2.6c2.8,0,6.73-2.87,11.8-8.6C593.61,136.46,593.81,136.39,594.08,136.39z"/>
	<path d="M593.38,204.19c-3.13-1.87-4.77-4.13-4.9-6.8c0-2.13,0.63-3.77,1.9-4.9c1.27-1.13,2.9-1.7,4.9-1.7c2.4,0,4.2,0.63,5.4,1.9
		c1.2,1.27,2.33,3.03,3.4,5.3c0.93,2,1.77,3.43,2.5,4.3c0.73,0.87,1.83,1.3,3.3,1.3c1.87,0,3.27-1.2,4.2-3.6
		c0.93-2.4,1.53-6.3,1.8-11.7c0.27-5.4,0.4-13.77,0.4-25.1l-0.4-70.6c0-7.47-1.87-11.2-5.6-11.2c-2.93,0-7.13,3.07-12.6,9.2
		c-0.13,0.13-0.33,0.2-0.6,0.2c-0.54,0-1-0.23-1.4-0.7c-0.4-0.47-0.47-0.9-0.2-1.3c4.13-5.47,7.97-9.47,11.5-12
		c3.53-2.53,7.17-3.8,10.9-3.8c4,0,6.9,1.33,8.7,4c1.8,2.67,2.77,6.67,2.9,12v69.4c0.13,12.67-0.5,22.47-1.9,29.4
		c-1.4,6.93-3.8,11.87-7.2,14.8c-3.4,2.93-8.23,4.4-14.5,4.4C600.68,206.99,596.51,206.05,593.38,204.19z M611.58,47.99
		c-1.8-1.73-2.7-4.13-2.7-7.2c0-2.8,0.9-5.03,2.7-6.7c1.8-1.67,4.23-2.5,7.3-2.5c2.93,0,5.23,0.83,6.9,2.5
		c1.67,1.67,2.5,3.9,2.5,6.7c0,3.07-0.83,5.47-2.5,7.2c-1.67,1.73-3.97,2.6-6.9,2.6C615.81,50.59,613.38,49.72,611.58,47.99z"/>
	<path d="M666.88,149.49c-2-2.87-2.93-7.1-2.8-12.7l0.6-44.2c0.13-7.47-1.73-11.2-5.6-11.2c-3.2,0-7.4,3.07-12.6,9.2
		c-0.13,0.13-0.33,0.2-0.6,0.2c-0.53,0-1-0.23-1.4-0.7c-0.4-0.47-0.47-0.9-0.2-1.3c4-5.33,7.8-9.3,11.4-11.9s7.27-3.9,11-3.9
		c4,0,6.97,1.33,8.9,4c1.93,2.67,2.9,6.67,2.9,12l-0.6,45.2c-0.13,7.33,1.6,11,5.2,11c1.6,0,3.3-0.7,5.1-2.1s4.1-3.57,6.9-6.5
		c0.13-0.13,0.33-0.2,0.6-0.2c0.4,0,0.8,0.23,1.2,0.7c0.4,0.47,0.53,0.83,0.4,1.1c-4,5.33-7.63,9.27-10.9,11.8
		c-3.27,2.53-6.77,3.8-10.5,3.8C671.88,153.79,668.88,152.35,666.88,149.49z M662.18,47.99c-1.8-1.73-2.7-4.13-2.7-7.2
		c0-2.8,0.9-5.03,2.7-6.7c1.8-1.67,4.23-2.5,7.3-2.5c2.93,0,5.23,0.83,6.9,2.5c1.67,1.67,2.5,3.9,2.5,6.7c0,3.07-0.83,5.47-2.5,7.2
		c-1.67,1.73-3.97,2.6-6.9,2.6C666.41,50.59,663.98,49.72,662.18,47.99z"/>
</g>
<g>
	<path class="st1" d="M7.09,149.79c0-0.8,0.13-1.2,0.4-1.2c4.53,0,7.87-0.33,10-1c2.13-0.67,3.6-1.97,4.4-3.9
		c0.8-1.93,1.13-4.9,1-8.9v-92.6c0-4-0.4-6.93-1.2-8.8c-0.8-1.87-2.27-3.17-4.4-3.9c-2.13-0.73-5.4-1.1-9.8-1.1
		c-0.27,0-0.43-0.4-0.5-1.2c-0.07-0.8,0.1-1.2,0.5-1.2l9.4,0.2c5.6,0.27,10.13,0.4,13.6,0.4c4,0,8.8-0.13,14.4-0.4l9-0.2
		c0.4,0,0.6,0.4,0.6,1.2c0,0.8-0.2,1.2-0.6,1.2c-4.4,0-7.63,0.4-9.7,1.2c-2.07,0.8-3.47,2.17-4.2,4.1c-0.73,1.93-1.17,4.9-1.3,8.9
		v92.2c0.13,4,0.57,6.97,1.3,8.9c0.73,1.93,2.13,3.23,4.2,3.9c2.07,0.67,5.3,1,9.7,1c0.4,0,0.6,0.4,0.6,1.2c0,0.8-0.13,1.2-0.4,1.2
		c-4,0-7.07-0.06-9.2-0.2l-14-0.2l-13.4,0.2c-2.4,0.13-5.67,0.2-9.8,0.2C7.29,150.99,7.09,150.59,7.09,149.79z"/>
	<path class="st1" d="M89.89,29.79c2.4,3.2,3.6,7.73,3.6,13.6c0,5.6-1.23,10.77-3.7,15.5c-2.47,4.73-6.17,9.5-11.1,14.3
		c-0.13,0.13-0.33,0.2-0.6,0.2c-0.4,0-0.73-0.2-1-0.6c-0.27-0.4-0.27-0.73,0-1c6.53-6.67,9.8-14.53,9.8-23.6c0-3.73-0.67-6.47-2-8.2
		c-1.2,2-3.4,3-6.6,3c-2.67,0-4.77-0.83-6.3-2.5c-1.53-1.67-2.3-3.83-2.3-6.5c0-2.93,0.9-5.17,2.7-6.7c1.8-1.53,4.37-2.3,7.7-2.3
		C84.22,24.99,87.49,26.59,89.89,29.79z"/>
	<path class="st1" d="M246.29,135.39c0.53,0,1.03,0.23,1.5,0.7c0.47,0.47,0.57,0.83,0.3,1.1c-4.27,5.47-7.97,9.43-11.1,11.9
		c-3.13,2.47-6.57,3.7-10.3,3.7c-8.13,0-12.07-5.67-11.8-17l0.2-34.4c0-14.13-3.47-21.2-10.4-21.2c-4.4,0-8.47,2.63-12.2,7.9
		c-3.73,5.27-6.77,12.97-9.1,23.1c-2.33,10.13-3.57,22.13-3.7,36v2c0,1.07-0.67,1.9-2,2.5c-1.33,0.6-3.33,0.9-6,0.9
		c-2.13,0-3.6-0.1-4.4-0.3c-0.8-0.2-1.33-0.57-1.6-1.1c0-0.4,0.1-2.2,0.3-5.4c0.2-3.2,0.3-6.4,0.3-9.6l0.2-35
		c-0.13-14-3.67-21-10.6-21c-4.4,0-8.47,2.63-12.2,7.9c-3.73,5.27-6.73,12.83-9,22.7c-2.27,9.87-3.47,21.4-3.6,34.6v3.8
		c0,1.07-0.7,1.9-2.1,2.5c-1.4,0.6-3.37,0.9-5.9,0.9c-2.67,0-4.33-0.17-5-0.5c-0.67-0.33-1-0.9-1-1.7c0-1.07,0.07-2.73,0.2-5
		c0.13-2.27,0.2-5.13,0.2-8.6l0.4-45.2c0-7.47-1.87-11.2-5.6-11.2c-3.2,0-7.4,3.07-12.6,9.2c-0.27,0.27-0.53,0.4-0.8,0.4
		c-0.53,0-0.97-0.23-1.3-0.7c-0.33-0.47-0.37-0.97-0.1-1.5c4-5.47,7.77-9.47,11.3-12c3.53-2.53,7.23-3.8,11.1-3.8
		c4,0,6.9,1.33,8.7,4c1.8,2.67,2.7,6.67,2.7,12v23.4c2.53-12.67,6.53-22.53,12-29.6c5.47-7.07,12-10.6,19.6-10.6
		c11.47,0,17.13,8.73,17,26.2v14c2.53-12.8,6.5-22.7,11.9-29.7s11.9-10.5,19.5-10.5c5.87,0,10.2,2.13,13,6.4
		c2.8,4.27,4.2,10.93,4.2,20l-0.2,35.6c0,7.33,1.8,11,5.4,11c1.6,0,3.37-0.73,5.3-2.2c1.93-1.46,4.17-3.6,6.7-6.4
		C245.82,135.46,246.02,135.39,246.29,135.39z"/>
	<path class="st1" d="M440.28,135.39c0.53,0,1.03,0.23,1.5,0.7c0.46,0.47,0.57,0.83,0.3,1.1c-4.27,5.47-7.97,9.43-11.1,11.9
		s-6.57,3.7-10.3,3.7c-8.13,0-12.07-5.67-11.8-17l0.2-34.4c0-14.13-3.47-21.2-10.4-21.2c-4.4,0-8.47,2.63-12.2,7.9
		c-3.73,5.27-6.77,12.97-9.1,23.1c-2.33,10.13-3.57,22.13-3.7,36v2c0,1.07-0.67,1.9-2,2.5c-1.33,0.6-3.33,0.9-6,0.9
		c-2.13,0-3.6-0.1-4.4-0.3c-0.8-0.2-1.33-0.57-1.6-1.1c0-0.4,0.1-2.2,0.3-5.4c0.2-3.2,0.3-6.4,0.3-9.6l0.2-35
		c-0.13-14-3.67-21-10.6-21c-4.4,0-8.47,2.63-12.2,7.9c-3.73,5.27-6.73,12.83-9,22.7c-2.27,9.87-3.47,21.4-3.6,34.6v3.8
		c0,1.07-0.7,1.9-2.1,2.5c-1.4,0.6-3.37,0.9-5.9,0.9c-2.67,0-4.33-0.17-5-0.5c-0.67-0.33-1-0.9-1-1.7c0-1.07,0.07-2.73,0.2-5
		c0.13-2.27,0.2-5.13,0.2-8.6l0.4-45.2c0-7.47-1.87-11.2-5.6-11.2c-3.2,0-7.4,3.07-12.6,9.2c-0.27,0.27-0.53,0.4-0.8,0.4
		c-0.53,0-0.97-0.23-1.3-0.7c-0.33-0.47-0.37-0.97-0.1-1.5c4-5.47,7.77-9.47,11.3-12c3.53-2.53,7.23-3.8,11.1-3.8
		c4,0,6.9,1.33,8.7,4c1.8,2.67,2.7,6.67,2.7,12v23.4c2.53-12.67,6.53-22.53,12-29.6c5.46-7.07,12-10.6,19.6-10.6
		c11.47,0,17.13,8.73,17,26.2v14c2.53-12.8,6.5-22.7,11.9-29.7s11.9-10.5,19.5-10.5c5.87,0,10.2,2.13,13,6.4
		c2.8,4.27,4.2,10.93,4.2,20l-0.2,35.6c0,7.33,1.8,11,5.4,11c1.6,0,3.37-0.73,5.3-2.2c1.93-1.46,4.17-3.6,6.7-6.4
		C439.81,135.46,440.01,135.39,440.28,135.39z"/>
	<path class="st1" d="M462.08,148.49c-2-2.87-2.93-7.1-2.8-12.7l0.6-44.2c0.13-7.47-1.73-11.2-5.6-11.2c-3.2,0-7.4,3.07-12.6,9.2
		c-0.13,0.13-0.33,0.2-0.6,0.2c-0.53,0-1-0.23-1.4-0.7c-0.4-0.47-0.47-0.9-0.2-1.3c4-5.33,7.8-9.3,11.4-11.9s7.27-3.9,11-3.9
		c4,0,6.97,1.33,8.9,4c1.93,2.67,2.9,6.67,2.9,12l-0.6,45.2c-0.13,7.33,1.6,11,5.2,11c1.6,0,3.3-0.7,5.1-2.1s4.1-3.57,6.9-6.5
		c0.13-0.13,0.33-0.2,0.6-0.2c0.4,0,0.8,0.23,1.2,0.7c0.4,0.47,0.53,0.83,0.4,1.1c-4,5.33-7.63,9.27-10.9,11.8
		c-3.27,2.53-6.77,3.8-10.5,3.8C467.08,152.79,464.08,151.35,462.08,148.49z M457.38,46.99c-1.8-1.73-2.7-4.13-2.7-7.2
		c0-2.8,0.9-5.03,2.7-6.7c1.8-1.67,4.23-2.5,7.3-2.5c2.93,0,5.23,0.83,6.9,2.5c1.67,1.67,2.5,3.9,2.5,6.7c0,3.07-0.83,5.47-2.5,7.2
		c-1.67,1.73-3.97,2.6-6.9,2.6C461.61,49.59,459.18,48.72,457.38,46.99z"/>
	<path class="st1" d="M593.08,135.39c0.53,0,1.03,0.23,1.5,0.7c0.47,0.47,0.57,0.83,0.3,1.1c-4.13,5.33-7.8,9.27-11,11.8
		s-6.67,3.8-10.4,3.8c-4,0-6.97-1.4-8.9-4.2c-1.93-2.8-2.9-7.07-2.9-12.8l0.4-34.4c0-14.13-3.73-21.2-11.2-21.2
		c-4.8,0-9.2,2.67-13.2,8c-4,5.33-7.2,13.2-9.6,23.6c-2.4,10.4-3.6,22.87-3.6,37.4c0,1.07-0.7,1.9-2.1,2.5
		c-1.4,0.6-3.43,0.9-6.1,0.9c-2.67,0-4.33-0.17-5-0.5c-0.67-0.33-1-0.9-1-1.7c0-0.93,0.07-2.6,0.2-5c0.13-2.4,0.2-5.46,0.2-9.2
		l0.4-44.6c0-7.47-1.87-11.2-5.6-11.2c-3.2,0-7.4,3.07-12.6,9.2c-0.13,0.13-0.4,0.2-0.8,0.2c-0.53,0-0.97-0.23-1.3-0.7
		c-0.33-0.47-0.37-0.9-0.1-1.3c4-5.47,7.77-9.47,11.3-12c3.53-2.53,7.23-3.8,11.1-3.8c4,0,6.9,1.33,8.7,4c1.8,2.67,2.7,6.67,2.7,12
		v25.2c2.67-13.33,6.83-23.67,12.5-31c5.67-7.33,12.5-11,20.5-11c6.13,0,10.7,2.13,13.7,6.4c3,4.27,4.43,10.93,4.3,20l-0.2,35.6
		c0,3.87,0.43,6.67,1.3,8.4c0.87,1.73,2.23,2.6,4.1,2.6c2.8,0,6.73-2.87,11.8-8.6C592.61,135.46,592.81,135.39,593.08,135.39z"/>
	<path class="st1" d="M592.38,203.19c-3.13-1.87-4.77-4.13-4.9-6.8c0-2.13,0.63-3.77,1.9-4.9c1.27-1.13,2.9-1.7,4.9-1.7
		c2.4,0,4.2,0.63,5.4,1.9c1.2,1.27,2.33,3.03,3.4,5.3c0.93,2,1.77,3.43,2.5,4.3c0.73,0.87,1.83,1.3,3.3,1.3c1.87,0,3.27-1.2,4.2-3.6
		c0.93-2.4,1.53-6.3,1.8-11.7c0.27-5.4,0.4-13.77,0.4-25.1l-0.4-70.6c0-7.47-1.87-11.2-5.6-11.2c-2.93,0-7.13,3.07-12.6,9.2
		c-0.13,0.13-0.33,0.2-0.6,0.2c-0.54,0-1-0.23-1.4-0.7c-0.4-0.47-0.47-0.9-0.2-1.3c4.13-5.47,7.97-9.47,11.5-12
		c3.53-2.53,7.17-3.8,10.9-3.8c4,0,6.9,1.33,8.7,4c1.8,2.67,2.77,6.67,2.9,12v69.4c0.13,12.67-0.5,22.47-1.9,29.4
		c-1.4,6.93-3.8,11.87-7.2,14.8c-3.4,2.93-8.23,4.4-14.5,4.4C599.68,205.99,595.51,205.05,592.38,203.19z M610.58,46.99
		c-1.8-1.73-2.7-4.13-2.7-7.2c0-2.8,0.9-5.03,2.7-6.7c1.8-1.67,4.23-2.5,7.3-2.5c2.93,0,5.23,0.83,6.9,2.5
		c1.67,1.67,2.5,3.9,2.5,6.7c0,3.07-0.83,5.47-2.5,7.2c-1.67,1.73-3.97,2.6-6.9,2.6C614.81,49.59,612.38,48.72,610.58,46.99z"/>
	<path class="st1" d="M665.88,148.49c-2-2.87-2.93-7.1-2.8-12.7l0.6-44.2c0.13-7.47-1.73-11.2-5.6-11.2c-3.2,0-7.4,3.07-12.6,9.2
		c-0.13,0.13-0.33,0.2-0.6,0.2c-0.53,0-1-0.23-1.4-0.7c-0.4-0.47-0.47-0.9-0.2-1.3c4-5.33,7.8-9.3,11.4-11.9s7.27-3.9,11-3.9
		c4,0,6.97,1.33,8.9,4c1.93,2.67,2.9,6.67,2.9,12l-0.6,45.2c-0.13,7.33,1.6,11,5.2,11c1.6,0,3.3-0.7,5.1-2.1s4.1-3.57,6.9-6.5
		c0.13-0.13,0.33-0.2,0.6-0.2c0.4,0,0.8,0.23,1.2,0.7c0.4,0.47,0.53,0.83,0.4,1.1c-4,5.33-7.63,9.27-10.9,11.8
		c-3.27,2.53-6.77,3.8-10.5,3.8C670.88,152.79,667.88,151.35,665.88,148.49z M661.18,46.99c-1.8-1.73-2.7-4.13-2.7-7.2
		c0-2.8,0.9-5.03,2.7-6.7c1.8-1.67,4.23-2.5,7.3-2.5c2.93,0,5.23,0.83,6.9,2.5c1.67,1.67,2.5,3.9,2.5,6.7c0,3.07-0.83,5.47-2.5,7.2
		c-1.67,1.73-3.97,2.6-6.9,2.6C665.41,49.59,662.98,48.72,661.18,46.99z"/>
</g>
<g>
	<g class="st0">
		<path d="M164.14,167.56c1.59,0.96,2.38,2.1,2.38,3.42c0,1.02-0.3,1.77-0.9,2.25c-0.6,0.48-1.41,0.72-2.43,0.72
			c-1.14,0-2-0.27-2.56-0.81c-0.57-0.54-1.22-1.38-1.94-2.52c-0.54-0.96-1.05-1.7-1.53-2.21c-0.48-0.51-1.17-0.77-2.07-0.77
			c-2.1,0-3.65,1.58-4.64,4.72c-0.99,3.15-1.48,7.91-1.48,14.27c0,2.28,0.03,4.05,0.09,5.31l0.18,5.58l5.4-0.36
			c0.6-0.06,1.27-0.12,2.02-0.18c0.75-0.06,1.51-0.09,2.3-0.09c0.6,0,0.9,0.3,0.9,0.9c-0.06,0.6-0.38,1.26-0.95,1.98
			c-0.57,0.72-1.16,1.05-1.75,0.99c-2.88-0.48-5.49-0.78-7.83-0.9l0.99,33.48l0.09,3.78c0,4.74-0.36,8.49-1.08,11.25
			c-0.72,2.76-1.86,4.75-3.42,5.98c-1.56,1.23-3.63,1.85-6.21,1.85c-2.46,0-4.36-0.42-5.71-1.26c-1.35-0.84-2.02-1.86-2.02-3.06
			c0-0.9,0.3-1.62,0.9-2.16c0.6-0.54,1.38-0.81,2.34-0.81c1.2,0,2.1,0.27,2.7,0.81c0.6,0.54,1.17,1.35,1.71,2.43
			c0.42,0.84,0.81,1.44,1.17,1.8c0.36,0.36,0.87,0.54,1.53,0.54c0.78,0,1.33-0.54,1.67-1.62c0.33-1.08,0.5-3.24,0.5-6.48
			c0-2.52-0.09-6.09-0.27-10.71l-0.99-31.77c-0.12-1.56-0.33-2.67-0.63-3.33c-0.3-0.66-0.84-1.08-1.62-1.26
			c-0.78-0.18-2.16-0.27-4.14-0.27c-0.24,0-0.36-0.21-0.36-0.63c0-0.42,0.09-0.63,0.27-0.63c2.34,0,3.94-0.28,4.81-0.86
			c0.87-0.57,1.3-1.6,1.3-3.11v-2.79c0-6.6,0.46-11.67,1.4-15.21c0.93-3.54,2.48-6.04,4.64-7.51c2.16-1.47,5.19-2.21,9.09-2.21
			C160.49,166.12,162.55,166.6,164.14,167.56z"/>
		<path d="M169.9,230.38c-2.37-1.56-4.19-3.69-5.44-6.39c-1.26-2.7-1.89-5.7-1.89-9c0-3.72,0.77-7.05,2.29-9.99
			c1.53-2.94,3.65-5.25,6.35-6.93c2.7-1.68,5.76-2.52,9.18-2.52c4.8,0,8.64,1.57,11.52,4.72c2.88,3.15,4.32,7.4,4.32,12.73
			c0,4.08-0.83,7.61-2.48,10.58c-1.65,2.97-3.84,5.23-6.57,6.79c-2.73,1.56-5.69,2.34-8.87,2.34
			C175.07,232.72,172.27,231.94,169.9,230.38z M187.63,226.83c1.65-2.43,2.48-5.75,2.48-9.95c0-3.3-0.54-6.42-1.62-9.36
			c-1.08-2.94-2.55-5.31-4.41-7.11c-1.86-1.8-3.96-2.7-6.3-2.7c-2.64,0-4.81,1.16-6.52,3.46c-1.71,2.31-2.56,5.57-2.56,9.76
			c0,3.3,0.54,6.45,1.62,9.45c1.08,3,2.56,5.43,4.46,7.29c1.89,1.86,4,2.79,6.34,2.79C183.8,230.47,185.98,229.26,187.63,226.83z"/>
		<path d="M208.28,229.88c-2.46-1.83-4.26-4.17-5.4-7.02c-1.14-2.85-1.65-5.77-1.53-8.78c0-3.6,0.87-6.81,2.61-9.63
			c1.74-2.82,3.99-5.01,6.75-6.57c2.76-1.56,5.61-2.34,8.55-2.34c2.52,0,4.75,0.49,6.71,1.48c1.95,0.99,3.04,2.36,3.29,4.1
			c0.06,0.96-0.2,1.74-0.77,2.34c-0.57,0.6-1.43,0.9-2.56,0.9c-1.14,0-2.04-0.29-2.7-0.86c-0.66-0.57-1.29-1.36-1.89-2.38
			c-0.54-1.02-1.22-1.85-2.03-2.48c-0.81-0.63-1.93-0.94-3.38-0.94c-2.76,0-4.83,1.25-6.21,3.73c-1.38,2.49-2.04,5.66-1.98,9.5
			c-0.06,5.1,1.09,9.41,3.47,12.92c2.37,3.51,5.77,5.27,10.21,5.27c2.94,0,5.61-0.81,8.01-2.43h0.09c0.18,0,0.37,0.11,0.58,0.32
			c0.21,0.21,0.25,0.4,0.13,0.58c-3.66,3.36-7.95,5.04-12.87,5.04C213.77,232.63,210.74,231.71,208.28,229.88z"/>
		<path d="M276.23,224.35c0.24,0,0.46,0.11,0.67,0.32c0.21,0.21,0.25,0.38,0.14,0.49c-1.92,2.46-3.63,4.26-5.13,5.4
			c-1.5,1.14-3.09,1.71-4.77,1.71c-3.54,0-5.31-2.37-5.31-7.11v-10.89c-1.2,5.82-3.08,10.34-5.63,13.54
			c-2.55,3.21-5.63,4.82-9.23,4.82c-5.58,0-8.25-3.96-8.01-11.88l0.36-16.02c0.06-3.3-0.75-4.95-2.43-4.95
			c-0.72,0-1.47,0.33-2.25,0.99c-0.78,0.66-1.8,1.65-3.06,2.97c-0.12,0.12-0.24,0.18-0.36,0.18c-0.24,0-0.43-0.1-0.58-0.31
			c-0.15-0.21-0.19-0.4-0.14-0.58c1.86-2.4,3.54-4.18,5.04-5.35c1.5-1.17,3.09-1.76,4.77-1.76c3.6,0,5.31,2.58,5.13,7.74L245,219.04
			c-0.06,6.36,1.62,9.54,5.04,9.54c2.22,0,4.21-1.24,5.98-3.73c1.77-2.49,3.18-6.08,4.23-10.76c1.05-4.68,1.58-10.2,1.58-16.56
			c0-0.48,0.33-0.85,0.99-1.13c0.66-0.27,1.56-0.41,2.7-0.41c1.26,0,2.02,0.08,2.29,0.23c0.27,0.15,0.41,0.41,0.41,0.76
			c0,0.42-0.03,1.17-0.09,2.25c-0.06,1.08-0.09,2.46-0.09,4.14l-0.09,20.07c0,3.36,0.81,5.04,2.43,5.04c1.38,0,3.24-1.35,5.58-4.05
			C276.02,224.38,276.11,224.35,276.23,224.35z"/>
		<path d="M282.62,230.74c-2.16-1.14-3.27-2.52-3.33-4.14c0-0.96,0.28-1.68,0.85-2.16c0.57-0.48,1.3-0.72,2.2-0.72
			c0.78,0,1.47,0.22,2.07,0.67c0.6,0.45,1.26,1.13,1.98,2.02c1.08,1.26,2.07,2.19,2.97,2.79c0.9,0.6,2.1,0.9,3.6,0.9
			c3.06,0,4.59-1.56,4.59-4.68c-0.06-2.16-0.81-3.97-2.25-5.45c-1.44-1.47-3.57-3.1-6.39-4.91c-2.88-1.86-5.01-3.51-6.39-4.95
			c-1.38-1.44-2.07-3.24-2.07-5.4c0-2.52,1.17-4.63,3.51-6.35c2.34-1.71,5.13-2.56,8.37-2.56c2.64,0,4.87,0.45,6.71,1.35
			c1.83,0.9,2.75,2.07,2.75,3.51c0.06,0.84-0.2,1.52-0.77,2.02c-0.57,0.51-1.28,0.77-2.12,0.77c-0.96,0-1.75-0.21-2.38-0.63
			c-0.63-0.42-1.31-1.05-2.02-1.89c-0.96-1.02-1.8-1.77-2.52-2.25c-0.72-0.48-1.74-0.72-3.06-0.72c-2.58,0-3.87,1.14-3.87,3.42
			c0,1.86,0.69,3.46,2.07,4.81c1.38,1.35,3.45,2.96,6.21,4.82c3,1.98,5.25,3.75,6.75,5.31c1.5,1.56,2.25,3.45,2.25,5.67
			c0,1.68-0.51,3.33-1.53,4.95c-1.02,1.62-2.48,2.94-4.36,3.96c-1.89,1.02-4.1,1.53-6.62,1.53
			C287.18,232.45,284.78,231.88,282.62,230.74z"/>
		<path d="M336.93,230.38c-2.37-1.56-4.19-3.69-5.44-6.39c-1.26-2.7-1.89-5.7-1.89-9c0-3.72,0.77-7.05,2.29-9.99
			c1.53-2.94,3.65-5.25,6.35-6.93c2.7-1.68,5.76-2.52,9.18-2.52c4.8,0,8.64,1.57,11.52,4.72c2.88,3.15,4.32,7.4,4.32,12.73
			c0,4.08-0.83,7.61-2.48,10.58c-1.65,2.97-3.84,5.23-6.57,6.79c-2.73,1.56-5.69,2.34-8.87,2.34
			C342.11,232.72,339.3,231.94,336.93,230.38z M354.66,226.83c1.65-2.43,2.47-5.75,2.47-9.95c0-3.3-0.54-6.42-1.62-9.36
			c-1.08-2.94-2.55-5.31-4.41-7.11c-1.86-1.8-3.96-2.7-6.3-2.7c-2.64,0-4.81,1.16-6.52,3.46c-1.71,2.31-2.56,5.57-2.56,9.76
			c0,3.3,0.54,6.45,1.62,9.45c1.08,3,2.56,5.43,4.46,7.29c1.89,1.86,4,2.79,6.34,2.79C350.84,230.47,353.01,229.26,354.66,226.83z"
			/>
		<path d="M411.23,224.44c0.24,0,0.46,0.11,0.67,0.32c0.21,0.21,0.25,0.38,0.14,0.49c-1.86,2.4-3.51,4.17-4.95,5.31
			c-1.44,1.14-3,1.71-4.68,1.71c-1.8,0-3.14-0.63-4-1.89c-0.87-1.26-1.3-3.18-1.3-5.76l0.18-15.48c0-6.36-1.68-9.54-5.04-9.54
			c-2.16,0-4.14,1.2-5.94,3.6c-1.8,2.4-3.24,5.94-4.32,10.62s-1.62,10.29-1.62,16.83c0,0.48-0.32,0.86-0.94,1.13
			c-0.63,0.27-1.55,0.41-2.75,0.41s-1.95-0.08-2.25-0.23c-0.3-0.15-0.45-0.4-0.45-0.76c0-0.42,0.03-1.17,0.09-2.25
			c0.06-1.08,0.09-2.46,0.09-4.14l0.18-20.07c0-3.36-0.84-5.04-2.52-5.04c-1.44,0-3.33,1.38-5.67,4.14
			c-0.06,0.06-0.18,0.09-0.36,0.09c-0.24,0-0.43-0.1-0.58-0.31c-0.15-0.21-0.16-0.4-0.04-0.58c1.8-2.46,3.49-4.26,5.08-5.4
			c1.59-1.14,3.25-1.71,5-1.71c1.8,0,3.11,0.6,3.92,1.8c0.81,1.2,1.21,3,1.21,5.4v11.34c1.2-6,3.07-10.65,5.63-13.95
			c2.55-3.3,5.63-4.95,9.23-4.95c2.76,0,4.81,0.96,6.16,2.88c1.35,1.92,1.99,4.92,1.94,9l-0.09,16.02c0,1.74,0.19,3,0.58,3.78
			c0.39,0.78,1,1.17,1.84,1.17c1.26,0,3.03-1.29,5.31-3.87C411.02,224.47,411.11,224.44,411.23,224.44z"/>
		<path d="M498.53,224.44c0.24,0,0.46,0.11,0.68,0.32c0.21,0.21,0.25,0.38,0.13,0.49c-1.92,2.46-3.59,4.25-4.99,5.36
			c-1.41,1.11-2.96,1.67-4.64,1.67c-3.66,0-5.43-2.55-5.31-7.65l0.09-15.48c0-6.36-1.56-9.54-4.68-9.54c-1.98,0-3.81,1.19-5.49,3.55
			c-1.68,2.37-3.05,5.84-4.1,10.4c-1.05,4.56-1.61,9.96-1.66,16.2v0.9c0,0.48-0.3,0.86-0.9,1.13c-0.6,0.27-1.5,0.41-2.7,0.41
			c-0.96,0-1.62-0.05-1.98-0.14c-0.36-0.09-0.6-0.26-0.72-0.49c0-0.18,0.04-0.99,0.13-2.43c0.09-1.44,0.13-2.88,0.13-4.32
			l0.09-15.75c-0.06-6.3-1.65-9.45-4.77-9.45c-1.98,0-3.81,1.19-5.49,3.55c-1.68,2.37-3.03,5.78-4.05,10.22
			c-1.02,4.44-1.56,9.63-1.62,15.57v1.71c0,0.48-0.31,0.86-0.95,1.13c-0.63,0.27-1.52,0.41-2.65,0.41c-1.2,0-1.95-0.08-2.25-0.23
			c-0.3-0.15-0.45-0.4-0.45-0.76c0-0.48,0.03-1.23,0.09-2.25c0.06-1.02,0.09-2.31,0.09-3.87l0.18-20.34c0-3.36-0.84-5.04-2.52-5.04
			c-1.44,0-3.33,1.38-5.67,4.14c-0.12,0.12-0.24,0.18-0.36,0.18c-0.24,0-0.43-0.1-0.58-0.31c-0.15-0.21-0.17-0.43-0.04-0.67
			c1.8-2.46,3.49-4.26,5.08-5.4s3.25-1.71,5-1.71c1.8,0,3.1,0.6,3.91,1.8c0.81,1.2,1.21,3,1.21,5.4v10.53
			c1.14-5.7,2.94-10.14,5.4-13.32c2.46-3.18,5.4-4.77,8.82-4.77c5.16,0,7.71,3.93,7.65,11.79v6.3c1.14-5.76,2.92-10.21,5.35-13.37
			c2.43-3.15,5.36-4.72,8.78-4.72c2.64,0,4.59,0.96,5.85,2.88c1.26,1.92,1.89,4.92,1.89,9l-0.09,16.02c0,3.3,0.81,4.95,2.43,4.95
			c0.72,0,1.52-0.33,2.38-0.99c0.87-0.66,1.88-1.62,3.02-2.88C498.32,224.47,498.41,224.44,498.53,224.44z"/>
		<path d="M530.48,226.24c0.18,0,0.36,0.09,0.54,0.27c0.18,0.18,0.21,0.36,0.09,0.54c-3.84,3.66-8.34,5.49-13.5,5.49
			c-3.48,0-6.43-0.8-8.86-2.39c-2.43-1.59-4.25-3.69-5.45-6.3c-1.2-2.61-1.8-5.41-1.8-8.42c0-3.36,0.81-6.57,2.43-9.63
			s3.9-5.54,6.84-7.43c2.94-1.89,6.27-2.83,9.99-2.83c2.52,0,4.47,0.44,5.85,1.3c1.38,0.87,2.13,2.06,2.25,3.55
			c0.06,2.64-1.92,5.06-5.94,7.25c-4.02,2.19-8.94,3.77-14.76,4.73c0.12,4.98,1.32,9.03,3.6,12.15c2.28,3.12,5.46,4.68,9.54,4.68
			c1.56,0,3.13-0.24,4.72-0.72c1.59-0.48,3.02-1.23,4.28-2.25H530.48z M510.41,201.58c-1.44,2.4-2.19,5.55-2.25,9.45
			c8.82-1.56,13.23-4.59,13.23-9.09c0-1.26-0.42-2.23-1.26-2.92c-0.84-0.69-2.01-1.04-3.51-1.04
			C513.92,197.98,511.85,199.18,510.41,201.58z"/>
	</g>
	<g>
		<path class="st1" d="M163.14,166.56c1.59,0.96,2.38,2.1,2.38,3.42c0,1.02-0.3,1.77-0.9,2.25c-0.6,0.48-1.41,0.72-2.43,0.72
			c-1.14,0-2-0.27-2.56-0.81c-0.57-0.54-1.22-1.38-1.94-2.52c-0.54-0.96-1.05-1.7-1.53-2.21c-0.48-0.51-1.17-0.77-2.07-0.77
			c-2.1,0-3.65,1.58-4.64,4.72c-0.99,3.15-1.48,7.91-1.48,14.27c0,2.28,0.03,4.05,0.09,5.31l0.18,5.58l5.4-0.36
			c0.6-0.06,1.27-0.12,2.02-0.18c0.75-0.06,1.51-0.09,2.3-0.09c0.6,0,0.9,0.3,0.9,0.9c-0.06,0.6-0.38,1.26-0.95,1.98
			c-0.57,0.72-1.16,1.05-1.75,0.99c-2.88-0.48-5.49-0.78-7.83-0.9l0.99,33.48l0.09,3.78c0,4.74-0.36,8.49-1.08,11.25
			c-0.72,2.76-1.86,4.75-3.42,5.98c-1.56,1.23-3.63,1.85-6.21,1.85c-2.46,0-4.36-0.42-5.71-1.26c-1.35-0.84-2.02-1.86-2.02-3.06
			c0-0.9,0.3-1.62,0.9-2.16c0.6-0.54,1.38-0.81,2.34-0.81c1.2,0,2.1,0.27,2.7,0.81c0.6,0.54,1.17,1.35,1.71,2.43
			c0.42,0.84,0.81,1.44,1.17,1.8c0.36,0.36,0.87,0.54,1.53,0.54c0.78,0,1.33-0.54,1.67-1.62c0.33-1.08,0.5-3.24,0.5-6.48
			c0-2.52-0.09-6.09-0.27-10.71l-0.99-31.77c-0.12-1.56-0.33-2.67-0.63-3.33c-0.3-0.66-0.84-1.08-1.62-1.26
			c-0.78-0.18-2.16-0.27-4.14-0.27c-0.24,0-0.36-0.21-0.36-0.63c0-0.42,0.09-0.63,0.27-0.63c2.34,0,3.94-0.28,4.81-0.86
			c0.87-0.57,1.3-1.6,1.3-3.11v-2.79c0-6.6,0.46-11.67,1.4-15.21c0.93-3.54,2.48-6.04,4.64-7.51c2.16-1.47,5.19-2.21,9.09-2.21
			C159.49,165.12,161.55,165.6,163.14,166.56z"/>
		<path class="st1" d="M168.9,229.38c-2.37-1.56-4.19-3.69-5.44-6.39c-1.26-2.7-1.89-5.7-1.89-9c0-3.72,0.77-7.05,2.29-9.99
			c1.53-2.94,3.65-5.25,6.35-6.93c2.7-1.68,5.76-2.52,9.18-2.52c4.8,0,8.64,1.57,11.52,4.72c2.88,3.15,4.32,7.4,4.32,12.73
			c0,4.08-0.83,7.61-2.48,10.58c-1.65,2.97-3.84,5.23-6.57,6.79c-2.73,1.56-5.69,2.34-8.87,2.34
			C174.07,231.72,171.27,230.94,168.9,229.38z M186.63,225.83c1.65-2.43,2.48-5.75,2.48-9.95c0-3.3-0.54-6.42-1.62-9.36
			c-1.08-2.94-2.55-5.31-4.41-7.11c-1.86-1.8-3.96-2.7-6.3-2.7c-2.64,0-4.81,1.16-6.52,3.46c-1.71,2.31-2.56,5.57-2.56,9.76
			c0,3.3,0.54,6.45,1.62,9.45c1.08,3,2.56,5.43,4.46,7.29c1.89,1.86,4,2.79,6.34,2.79C182.8,229.47,184.98,228.26,186.63,225.83z"/>
		<path class="st1" d="M207.28,228.88c-2.46-1.83-4.26-4.17-5.4-7.02c-1.14-2.85-1.65-5.77-1.53-8.78c0-3.6,0.87-6.81,2.61-9.63
			c1.74-2.82,3.99-5.01,6.75-6.57c2.76-1.56,5.61-2.34,8.55-2.34c2.52,0,4.75,0.49,6.71,1.48c1.95,0.99,3.04,2.36,3.29,4.1
			c0.06,0.96-0.2,1.74-0.77,2.34c-0.57,0.6-1.43,0.9-2.56,0.9c-1.14,0-2.04-0.29-2.7-0.86c-0.66-0.57-1.29-1.36-1.89-2.38
			c-0.54-1.02-1.22-1.85-2.03-2.48c-0.81-0.63-1.93-0.94-3.38-0.94c-2.76,0-4.83,1.25-6.21,3.73c-1.38,2.49-2.04,5.66-1.98,9.5
			c-0.06,5.1,1.09,9.41,3.47,12.92c2.37,3.51,5.77,5.27,10.21,5.27c2.94,0,5.61-0.81,8.01-2.43h0.09c0.18,0,0.37,0.11,0.58,0.32
			c0.21,0.21,0.25,0.4,0.13,0.58c-3.66,3.36-7.95,5.04-12.87,5.04C212.77,231.63,209.74,230.71,207.28,228.88z"/>
		<path class="st1" d="M275.23,223.35c0.24,0,0.46,0.11,0.67,0.32c0.21,0.21,0.25,0.38,0.14,0.49c-1.92,2.46-3.63,4.26-5.13,5.4
			c-1.5,1.14-3.09,1.71-4.77,1.71c-3.54,0-5.31-2.37-5.31-7.11v-10.89c-1.2,5.82-3.08,10.34-5.63,13.54
			c-2.55,3.21-5.63,4.82-9.23,4.82c-5.58,0-8.25-3.96-8.01-11.88l0.36-16.02c0.06-3.3-0.75-4.95-2.43-4.95
			c-0.72,0-1.47,0.33-2.25,0.99c-0.78,0.66-1.8,1.65-3.06,2.97c-0.12,0.12-0.24,0.18-0.36,0.18c-0.24,0-0.43-0.1-0.58-0.31
			c-0.15-0.21-0.19-0.4-0.14-0.58c1.86-2.4,3.54-4.18,5.04-5.35c1.5-1.17,3.09-1.76,4.77-1.76c3.6,0,5.31,2.58,5.13,7.74L244,218.04
			c-0.06,6.36,1.62,9.54,5.04,9.54c2.22,0,4.21-1.24,5.98-3.73c1.77-2.49,3.18-6.08,4.23-10.76c1.05-4.68,1.58-10.2,1.58-16.56
			c0-0.48,0.33-0.85,0.99-1.13c0.66-0.27,1.56-0.41,2.7-0.41c1.26,0,2.02,0.08,2.29,0.23c0.27,0.15,0.41,0.41,0.41,0.76
			c0,0.42-0.03,1.17-0.09,2.25c-0.06,1.08-0.09,2.46-0.09,4.14l-0.09,20.07c0,3.36,0.81,5.04,2.43,5.04c1.38,0,3.24-1.35,5.58-4.05
			C275.02,223.38,275.11,223.35,275.23,223.35z"/>
		<path class="st1" d="M281.62,229.74c-2.16-1.14-3.27-2.52-3.33-4.14c0-0.96,0.28-1.68,0.85-2.16c0.57-0.48,1.3-0.72,2.2-0.72
			c0.78,0,1.47,0.22,2.07,0.67c0.6,0.45,1.26,1.13,1.98,2.02c1.08,1.26,2.07,2.19,2.97,2.79c0.9,0.6,2.1,0.9,3.6,0.9
			c3.06,0,4.59-1.56,4.59-4.68c-0.06-2.16-0.81-3.97-2.25-5.45c-1.44-1.47-3.57-3.1-6.39-4.91c-2.88-1.86-5.01-3.51-6.39-4.95
			c-1.38-1.44-2.07-3.24-2.07-5.4c0-2.52,1.17-4.63,3.51-6.35c2.34-1.71,5.13-2.56,8.37-2.56c2.64,0,4.87,0.45,6.71,1.35
			c1.83,0.9,2.75,2.07,2.75,3.51c0.06,0.84-0.2,1.52-0.77,2.02c-0.57,0.51-1.28,0.77-2.12,0.77c-0.96,0-1.75-0.21-2.38-0.63
			c-0.63-0.42-1.31-1.05-2.02-1.89c-0.96-1.02-1.8-1.77-2.52-2.25c-0.72-0.48-1.74-0.72-3.06-0.72c-2.58,0-3.87,1.14-3.87,3.42
			c0,1.86,0.69,3.46,2.07,4.81c1.38,1.35,3.45,2.96,6.21,4.82c3,1.98,5.25,3.75,6.75,5.31c1.5,1.56,2.25,3.45,2.25,5.67
			c0,1.68-0.51,3.33-1.53,4.95c-1.02,1.62-2.48,2.94-4.36,3.96c-1.89,1.02-4.1,1.53-6.62,1.53
			C286.18,231.45,283.78,230.88,281.62,229.74z"/>
		<path class="st1" d="M335.93,229.38c-2.37-1.56-4.19-3.69-5.44-6.39c-1.26-2.7-1.89-5.7-1.89-9c0-3.72,0.77-7.05,2.29-9.99
			c1.53-2.94,3.65-5.25,6.35-6.93c2.7-1.68,5.76-2.52,9.18-2.52c4.8,0,8.64,1.57,11.52,4.72c2.88,3.15,4.32,7.4,4.32,12.73
			c0,4.08-0.83,7.61-2.48,10.58c-1.65,2.97-3.84,5.23-6.57,6.79c-2.73,1.56-5.69,2.34-8.87,2.34
			C341.11,231.72,338.3,230.94,335.93,229.38z M353.66,225.83c1.65-2.43,2.47-5.75,2.47-9.95c0-3.3-0.54-6.42-1.62-9.36
			c-1.08-2.94-2.55-5.31-4.41-7.11c-1.86-1.8-3.96-2.7-6.3-2.7c-2.64,0-4.81,1.16-6.52,3.46c-1.71,2.31-2.56,5.57-2.56,9.76
			c0,3.3,0.54,6.45,1.62,9.45c1.08,3,2.56,5.43,4.46,7.29c1.89,1.86,4,2.79,6.34,2.79C349.84,229.47,352.01,228.26,353.66,225.83z"
			/>
		<path class="st1" d="M410.23,223.44c0.24,0,0.46,0.11,0.67,0.32c0.21,0.21,0.25,0.38,0.14,0.49c-1.86,2.4-3.51,4.17-4.95,5.31
			c-1.44,1.14-3,1.71-4.68,1.71c-1.8,0-3.14-0.63-4-1.89c-0.87-1.26-1.3-3.18-1.3-5.76l0.18-15.48c0-6.36-1.68-9.54-5.04-9.54
			c-2.16,0-4.14,1.2-5.94,3.6c-1.8,2.4-3.24,5.94-4.32,10.62s-1.62,10.29-1.62,16.83c0,0.48-0.32,0.86-0.94,1.13
			c-0.63,0.27-1.55,0.41-2.75,0.41s-1.95-0.08-2.25-0.23c-0.3-0.15-0.45-0.4-0.45-0.76c0-0.42,0.03-1.17,0.09-2.25
			c0.06-1.08,0.09-2.46,0.09-4.14l0.18-20.07c0-3.36-0.84-5.04-2.52-5.04c-1.44,0-3.33,1.38-5.67,4.14
			c-0.06,0.06-0.18,0.09-0.36,0.09c-0.24,0-0.43-0.1-0.58-0.31c-0.15-0.21-0.16-0.4-0.04-0.58c1.8-2.46,3.49-4.26,5.08-5.4
			c1.59-1.14,3.25-1.71,5-1.71c1.8,0,3.11,0.6,3.92,1.8c0.81,1.2,1.21,3,1.21,5.4v11.34c1.2-6,3.07-10.65,5.63-13.95
			c2.55-3.3,5.63-4.95,9.23-4.95c2.76,0,4.81,0.96,6.16,2.88c1.35,1.92,1.99,4.92,1.94,9l-0.09,16.02c0,1.74,0.19,3,0.58,3.78
			c0.39,0.78,1,1.17,1.84,1.17c1.26,0,3.03-1.29,5.31-3.87C410.02,223.47,410.11,223.44,410.23,223.44z"/>
		<path class="st1" d="M497.53,223.44c0.24,0,0.46,0.11,0.68,0.32c0.21,0.21,0.25,0.38,0.13,0.49c-1.92,2.46-3.59,4.25-4.99,5.36
			c-1.41,1.11-2.96,1.67-4.64,1.67c-3.66,0-5.43-2.55-5.31-7.65l0.09-15.48c0-6.36-1.56-9.54-4.68-9.54c-1.98,0-3.81,1.19-5.49,3.55
			c-1.68,2.37-3.05,5.84-4.1,10.4c-1.05,4.56-1.61,9.96-1.66,16.2v0.9c0,0.48-0.3,0.86-0.9,1.13c-0.6,0.27-1.5,0.41-2.7,0.41
			c-0.96,0-1.62-0.05-1.98-0.14c-0.36-0.09-0.6-0.26-0.72-0.49c0-0.18,0.04-0.99,0.13-2.43c0.09-1.44,0.13-2.88,0.13-4.32
			l0.09-15.75c-0.06-6.3-1.65-9.45-4.77-9.45c-1.98,0-3.81,1.19-5.49,3.55c-1.68,2.37-3.03,5.78-4.05,10.22
			c-1.02,4.44-1.56,9.63-1.62,15.57v1.71c0,0.48-0.31,0.86-0.95,1.13c-0.63,0.27-1.52,0.41-2.65,0.41c-1.2,0-1.95-0.08-2.25-0.23
			c-0.3-0.15-0.45-0.4-0.45-0.76c0-0.48,0.03-1.23,0.09-2.25c0.06-1.02,0.09-2.31,0.09-3.87l0.18-20.34c0-3.36-0.84-5.04-2.52-5.04
			c-1.44,0-3.33,1.38-5.67,4.14c-0.12,0.12-0.24,0.18-0.36,0.18c-0.24,0-0.43-0.1-0.58-0.31c-0.15-0.21-0.17-0.43-0.04-0.67
			c1.8-2.46,3.49-4.26,5.08-5.4s3.25-1.71,5-1.71c1.8,0,3.1,0.6,3.91,1.8c0.81,1.2,1.21,3,1.21,5.4v10.53
			c1.14-5.7,2.94-10.14,5.4-13.32c2.46-3.18,5.4-4.77,8.82-4.77c5.16,0,7.71,3.93,7.65,11.79v6.3c1.14-5.76,2.92-10.21,5.35-13.37
			c2.43-3.15,5.36-4.72,8.78-4.72c2.64,0,4.59,0.96,5.85,2.88c1.26,1.92,1.89,4.92,1.89,9l-0.09,16.02c0,3.3,0.81,4.95,2.43,4.95
			c0.72,0,1.52-0.33,2.38-0.99c0.87-0.66,1.88-1.62,3.02-2.88C497.32,223.47,497.41,223.44,497.53,223.44z"/>
		<path class="st1" d="M529.48,225.24c0.18,0,0.36,0.09,0.54,0.27c0.18,0.18,0.21,0.36,0.09,0.54c-3.84,3.66-8.34,5.49-13.5,5.49
			c-3.48,0-6.43-0.8-8.86-2.39c-2.43-1.59-4.25-3.69-5.45-6.3c-1.2-2.61-1.8-5.41-1.8-8.42c0-3.36,0.81-6.57,2.43-9.63
			s3.9-5.54,6.84-7.43c2.94-1.89,6.27-2.83,9.99-2.83c2.52,0,4.47,0.44,5.85,1.3c1.38,0.87,2.13,2.06,2.25,3.55
			c0.06,2.64-1.92,5.06-5.94,7.25c-4.02,2.19-8.94,3.77-14.76,4.73c0.12,4.98,1.32,9.03,3.6,12.15c2.28,3.12,5.46,4.68,9.54,4.68
			c1.56,0,3.13-0.24,4.72-0.72c1.59-0.48,3.02-1.23,4.28-2.25H529.48z M509.41,200.58c-1.44,2.4-2.19,5.55-2.25,9.45
			c8.82-1.56,13.23-4.59,13.23-9.09c0-1.26-0.42-2.23-1.26-2.92c-0.84-0.69-2.01-1.04-3.51-1.04
			C512.92,196.98,510.85,198.18,509.41,200.58z"/>
	</g>
</g>
</svg>
