<svg width="1633" height="291" viewBox="0 0 1633 291" fill="none" xmlns="http://www.w3.org/2000/svg">
<path d="M1331 286.3H1291.5L1264.3 186.2C1259.9 170.2 1255.7 153.4 1251.9 136.1C1249.5 125.2 1247 113.3 1244.4 100.3C1244.7 106.8 1245 112.7 1245.3 118.2C1245.9 130.3 1246.4 142.5 1246.9 154.6C1247.5 170.7 1248 185.3 1248.2 198C1248.4 210.9 1248.6 222.4 1248.6 232.2V286.3H1210.1L1210.2 5.39999H1249.4L1276.6 107.7C1281.2 124.2 1285.4 141.3 1289.3 158.6C1291.7 169.3 1294.1 181 1296.6 193.5C1295.7 173.7 1294.9 155.7 1294.4 139.7C1293.3 108.9 1292.7 82.6 1292.7 61.7V5.39999H1331.2L1331 286.3ZM1294.6 282.3H1327L1327.1 9.39999H1296.6V61.7C1296.6 82.5 1297.2 108.7 1298.3 139.5C1299.1 162 1300.2 188.4 1301.7 218.1L1301.8 220.2H1297.5L1297.2 218.6C1293.1 196.6 1289.1 176.7 1285.3 159.4C1281.5 142.2 1277.2 125.2 1272.7 108.7L1246.3 9.39999H1214.2L1214.1 282.3H1244.6V232.2C1244.6 222.4 1244.5 210.9 1244.2 198.1C1244 185.4 1243.5 170.9 1242.9 154.8C1242.4 142.7 1241.9 130.5 1241.3 118.5C1240.7 106.6 1240 92.4 1239.2 75.9L1239.1 73.8H1243.4L1243.7 75.4C1247.9 97.9 1252 118 1255.8 135.3C1259.6 152.5 1263.8 169.3 1268.2 185.2L1294.6 282.3Z" fill="white"/>
<path d="M1632.4 286.3H1590.9L1590.5 284.8C1589 278.3 1588 270 1587.6 260.1C1587.2 250.2 1586.9 238.4 1586.8 225V212.1C1586.6 205.8 1586.5 200.7 1586.3 196.9C1586.1 193.2 1585.7 189.4 1585 185.6C1584.3 181.9 1583.2 178.7 1581.7 176.1C1580.3 173.6 1578.5 171.9 1576.2 170.8C1572.8 169.2 1569.1 168.2 1565.1 167.8C1560.9 167.4 1555.1 167.2 1547.8 167.2H1543.6L1543.5 286.4H1505.1L1505.2 5.69998H1572.4C1580.5 5.69998 1587.8 6.89998 1594.3 9.09998C1600.9 11.4 1606.7 15.3 1611.6 20.7C1616.4 26.1 1620.2 33.3 1622.8 42.1C1625.4 50.9 1626.7 61.6 1626.7 74C1626.7 82.4 1626.3 90.4 1625.4 97.7C1624.6 105.1 1623 112 1620.9 118.2C1618.7 124.6 1615.6 130 1611.7 134.2C1609 137.2 1605.7 139.5 1602 141.1C1609.5 143.9 1615.1 149.1 1618.6 156.6C1622.7 165.4 1624.8 177.3 1624.8 191.8C1624.8 203.1 1624.9 213.2 1625 221.8C1625.2 230.4 1625.5 238.9 1626 247.2C1626.5 255.3 1627.2 262.3 1628.2 268C1629.4 275 1630.8 277.1 1631.5 277.7L1632.2 278.3L1632.4 286.3ZM1594.1 282.3H1628.4V279.9C1626.7 277.9 1625.5 274.2 1624.5 268.6C1623.5 262.8 1622.8 255.6 1622.3 247.4C1621.8 239.1 1621.5 230.5 1621.3 221.9C1621.1 213.3 1621.1 203.1 1621.1 191.8C1621.1 177.9 1619.1 166.6 1615.3 158.3C1611.5 150.2 1605.3 145.4 1596.2 143.5L1594.6 143.2V139.2L1596.2 138.9C1601.3 137.8 1605.7 135.3 1609.1 131.6C1612.6 127.8 1615.4 122.8 1617.4 117C1619.5 111 1620.9 104.4 1621.7 97.3C1622.5 90.1 1622.9 82.3 1622.9 74.1C1622.9 62.1 1621.7 51.7 1619.2 43.3C1616.8 35 1613.3 28.3 1608.8 23.4C1604.4 18.5 1599.1 15 1593.1 12.9C1587 10.8 1580.1 9.69998 1572.5 9.69998H1509.3L1509.2 282.4H1539.6L1539.7 163.2H1547.9C1555.3 163.2 1561.2 163.4 1565.5 163.8C1570 164.2 1574.2 165.3 1578 167.1C1581 168.5 1583.4 170.8 1585.3 174C1587 177 1588.3 180.7 1589.1 184.8C1589.8 188.8 1590.3 192.8 1590.5 196.7C1590.7 200.6 1590.8 205.7 1591 212V225C1591.2 238.4 1591.4 250.1 1591.8 260C1592.1 268.7 1592.9 276.2 1594.1 282.3ZM1568.8 126.5H1539.7V46.1H1567.3C1575.4 46.4 1581.4 49.2 1585.3 54.5C1589.1 59.7 1591 69.6 1591 84.7C1591 98 1589 108.2 1585.2 115C1581.1 122 1575.6 125.9 1568.8 126.5ZM1543.7 122.5H1568.7C1574.1 122 1578.3 118.9 1581.7 113C1585.2 106.8 1587 97.3 1587 84.7C1587 70.7 1585.4 61.3 1582.1 56.9C1578.9 52.6 1574.1 50.4 1567.3 50.1H1543.8L1543.7 122.5Z" fill="white"/>
<path d="M1394.8 288.2C1376.7 288.2 1363.9 282.8 1356.5 272.2C1349.3 261.8 1345.6 246.5 1345.6 226.5C1345.6 212.1 1347.7 190.2 1351.9 161.6L1357.4 123.1C1360.8 102.3 1364 85.1 1367.2 71.8C1370.3 58.4 1374.6 46.3 1380 35.8C1385.4 25.1 1392.6 16.7 1401.5 10.8C1410.4 4.89999 1421.6 1.89999 1434.9 1.89999C1444.1 1.89999 1451.9 3.39999 1458.2 6.19999C1464.6 9.09999 1469.7 13.4 1473.4 19C1477 24.5 1479.7 31 1481.2 38.6C1482.7 46 1483.5 54.8 1483.5 64.7C1483.5 77.6 1481.9 97.5 1478.7 123.8L1473.2 162.3C1470 183.8 1466.8 201.7 1463.8 215.6C1460.7 229.6 1456.5 242.2 1451 253C1445.5 264 1438.2 272.7 1429.1 278.9C1420.1 285.1 1408.5 288.2 1394.8 288.2ZM1361.4 123.8L1355.9 162.2C1351.8 190.7 1349.7 212.3 1349.7 226.6C1349.7 245.7 1353.1 260.3 1359.9 270C1366.5 279.4 1378.3 284.2 1394.9 284.2C1394.9 284.2 1394.9 284.2 1395 284.2C1407.9 284.2 1418.7 281.3 1427.1 275.6C1435.5 269.9 1442.5 261.7 1447.6 251.2C1452.9 240.6 1457 228.3 1460 214.7C1463 200.9 1466.2 183.1 1469.3 161.7L1474.8 123.3C1478 97.2 1479.6 77.5 1479.6 64.7C1479.6 55.1 1478.9 46.6 1477.4 39.4C1475.9 32.4 1473.5 26.3 1470.2 21.2C1466.9 16.3 1462.4 12.5 1456.7 9.89999C1450.9 7.29999 1443.6 5.89999 1435 5.89999C1422.6 5.89999 1412.1 8.69999 1403.8 14.2C1395.5 19.7 1388.7 27.6 1383.6 37.7C1378.4 47.9 1374.2 59.7 1371.2 72.8C1368 86 1364.7 103.1 1361.4 123.8ZM1400.5 247.6C1393 247.6 1387.6 244.4 1384.6 238C1381.8 232.1 1380.3 224.3 1380.3 214.7C1380.3 210.6 1380.5 206.2 1380.9 201.6C1381.3 197 1381.9 192.1 1382.7 186.8L1393.3 112.1L1394 107.8C1395 99.4 1396.1 91.9 1397.4 85.6C1398.7 79.2 1400.6 72.6 1403 66.1C1405.5 59.4 1408.9 53.8 1413 49.4C1417.4 44.8 1422.8 42.5 1429 42.5C1436.4 42.5 1441.6 45.9 1444.7 52.7C1447.5 58.9 1448.9 67.2 1448.9 77.2C1448.9 82.7 1448.6 88.4 1447.9 94.1C1447.3 99.8 1446.4 105.9 1445.5 112.3L1445.3 114.1L1435.4 183.1C1434.3 191.9 1433 199.8 1431.7 206.4C1430.3 213 1428.4 219.6 1426.1 225.7C1423.7 232.1 1420.4 237.3 1416.3 241.3C1412.1 245.5 1406.8 247.6 1400.5 247.6ZM1429.1 46.5C1423.9 46.5 1419.6 48.3 1416 52.2C1412.2 56.2 1409.1 61.3 1406.8 67.5C1404.4 73.8 1402.6 80.2 1401.4 86.4C1400.1 92.6 1399 100 1398.1 108.3V108.4L1397.4 112.7L1386.8 187.4C1386 192.6 1385.4 197.5 1385 202C1384.6 206.5 1384.4 210.7 1384.4 214.8C1384.4 223.8 1385.7 231.1 1388.3 236.4C1390.7 241.3 1394.7 243.7 1400.6 243.7C1405.8 243.7 1410.1 242 1413.7 238.5C1417.4 234.9 1420.4 230.1 1422.6 224.3C1424.9 218.3 1426.7 212 1428 205.6C1429.3 199.1 1430.6 191.3 1431.7 182.6L1441.6 113.6L1441.8 111.8C1442.8 105.4 1443.6 99.3 1444.2 93.7C1444.8 88.2 1445.2 82.6 1445.2 77.2C1445.2 67.7 1443.9 60 1441.3 54.3C1438.8 49.1 1434.9 46.5 1429.1 46.5Z" fill="white"/>
<path d="M0 122.9C0.5 101.5 1.4 84 2.8 70.3C4.1 56.6 6.7 44.5 10.6 33.8C14.5 23.1 20.4 14.8 28.5 8.90001C36.5 3.00001 47.2 0.100006 60.5 0.100006C73.8 0.100006 84.5 3.10001 92.5 9.00001C100.5 14.9 106.5 23.2 110.3 33.9C114.1 44.6 116.7 56.8 118 70.5C119.3 84.2 120.2 101.7 120.7 123.1V162.6C120.7 184.5 120.1 202.7 118.9 217.1C117.7 231.5 115.2 244.2 111.3 255.3C107.4 266.4 101.3 275 93.1 281.1C84.9 287.2 74 290.3 60.4 290.3C46.8 290.3 35.9 287.2 27.7 281.1C19.5 274.9 13.4 266.3 9.5 255.2C5.6 244.1 3 231.4 1.9 217C0.6 202.5 0 184.3 0 162.4V122.9ZM35.4 188.3C35.4 195.9 35.6 202.9 36.1 209.3C36.6 215.7 37.7 221.9 39.3 227.9C40.9 233.9 43.4 238.9 46.8 242.7C50.2 246.5 54.6 248.4 60.2 248.4C65.9 248.4 70.6 246.4 74.1 242.5C77.6 238.6 80.1 233.5 81.6 227.2C83.1 220.9 84 214.5 84.4 207.8C84.8 201.2 85 193.2 85 183.8V112.9C85 103.3 84.8 94.8 84.4 87.4C84 80 83 72.8 81.5 65.8C79.9 58.8 77.4 53 74 48.4C70.6 43.8 66 41.6 60.2 41.6C54.6 41.6 50.1 43.5 46.8 47.3C43.4 51.1 40.9 56.3 39.3 62.8C37.7 69.3 36.6 76.5 36.1 84.2C35.6 92 35.4 101 35.3 111.3L35.4 188.3Z" fill="white"/>
<path d="M187.299 164.4L187.199 283.6H152.699L152.799 6.70001H217.999C225.899 6.70001 232.999 7.80001 239.299 10C245.599 12.2 251.099 15.9 255.799 21.1C260.499 26.3 264.099 33.2 266.599 41.8C269.099 50.4 270.399 60.9 270.399 73.2C270.399 81.6 269.999 89.4 269.199 96.6C268.399 103.9 266.899 110.6 264.799 116.7C262.699 122.9 259.699 128 256.099 132C252.399 136.1 247.799 138.7 242.199 139.9V140.6C251.899 142.6 258.699 147.9 262.699 156.5C266.699 165.1 268.699 176.6 268.699 190.8C268.699 202.1 268.799 212.2 268.899 220.9C269.099 229.6 269.399 238.1 269.899 246.4C270.399 254.6 271.099 261.7 272.099 267.4C273.099 273.2 274.399 276.8 275.999 278.3V283.5H238.099C236.599 277.1 235.699 269 235.299 259.1C234.899 249.3 234.599 237.6 234.499 224C234.499 217.4 234.499 213.8 234.499 213.3V211.1C234.299 204.7 234.199 199.6 233.999 195.8C233.799 192 233.399 188.1 232.699 184.2C231.999 180.3 230.799 176.9 229.099 174C227.499 171.2 225.299 169.1 222.699 167.9C219.099 166.2 215.199 165.1 210.899 164.8C206.599 164.4 200.799 164.2 193.399 164.2L187.299 164.4ZM187.299 123.7H214.399C220.499 123.2 225.399 119.7 229.099 113.2C232.799 106.7 234.599 96.9 234.699 83.9C234.699 69.4 232.899 59.7 229.399 54.9C225.899 50.1 220.399 47.6 212.999 47.3H187.399L187.299 123.7Z" fill="white"/>
<path d="M456.699 283.8L456.799 6.89999H491.299L491.199 283.8H456.699Z" fill="white"/>
<path d="M608.7 7H643.2L643 283.9H607.1L580.3 185.3C575.9 169.3 571.7 152.6 567.9 135.3C564.1 117.9 560 97.9 555.7 75.3H555.2C556 91.8 556.7 106 557.3 117.9C557.9 129.8 558.4 142 558.9 154.3C559.5 170.3 560 184.8 560.2 197.7C560.4 210.6 560.6 222 560.6 231.8V283.9H526.1L526.2 7H561.9L588.7 107.8C593.3 124.3 597.5 141.2 601.3 158.6C605.1 176 609.1 195.7 613.2 217.9H613.7C612.2 188.1 611.1 161.9 610.3 139.3C609.2 108.3 608.6 82.3 608.6 61.4L608.7 7Z" fill="white"/>
<path d="M849.801 164.7V284H815.301L815.401 7.10001H880.601C888.501 7.10001 895.601 8.20001 901.901 10.4C908.201 12.6 913.701 16.3 918.401 21.5C923.101 26.7 926.701 33.6 929.201 42.2C931.701 50.8 933.001 61.3 933.001 73.6C933.001 82 932.601 89.8 931.801 97C931.001 104.3 929.501 111 927.401 117.1C925.301 123.3 922.301 128.4 918.701 132.4C915.001 136.5 910.401 139.1 904.801 140.3V141C914.501 143 921.301 148.3 925.301 156.9C929.301 165.5 931.301 177 931.301 191.2C931.301 202.5 931.401 212.6 931.501 221.3C931.701 230 932.001 238.5 932.501 246.8C933.001 255 933.701 262.1 934.701 267.8C935.701 273.6 937.001 277.2 938.601 278.7V283.9H900.701C899.201 277.5 898.301 269.4 897.901 259.5C897.501 249.7 897.201 238 897.101 224.4C897.101 217.8 897.101 214.2 897.101 213.7V211.5C896.901 205.1 896.801 200 896.601 196.2C896.401 192.4 896.001 188.5 895.301 184.6C894.601 180.7 893.401 177.3 891.701 174.4C890.101 171.6 887.901 169.5 885.301 168.3C881.701 166.6 877.801 165.5 873.501 165.2C869.201 164.8 863.401 164.6 856.001 164.6L849.801 164.7ZM849.801 124.1H876.901C883.001 123.6 887.901 120.1 891.601 113.6C895.301 107.1 897.101 97.3 897.201 84.3C897.201 69.8 895.401 60.1 891.901 55.3C888.401 50.5 882.901 48 875.501 47.7H849.901L849.801 124.1Z" fill="white"/>
<path d="M654.1 283.4L737.4 6.5H783.9L786.5 283.4H749.6L750.4 213.3H710L691 283.4H654.1ZM721.3 172.7H750.8L752.6 94.1C752.6 87 753.1 76.6 754.1 63.1L754.6 55.7C755.1 51 755.6 44.9 756.1 37.2H755.6C753.8 44.8 752.5 51 751.7 55.7C751.4 57.2 750.9 59.5 750.2 62.7C747.2 76.5 744.8 86.9 742.8 94.1L721.3 172.7Z" fill="white"/>
<path d="M1002.7 84.1C1006.8 99.4 1009.5 113.5 1010.8 126.6H1011.3C1012.3 118 1013.5 110.4 1015 103.9C1016.5 97.4 1018.5 89.2 1021.2 79.4C1021.9 77.2 1022.3 75.5 1022.7 74.2L1039.2 11.4H1076.9L1028 170.5L1027.9 288.3H993.4L993.5 170.5L945.6 11.3H983.3L1002.7 84.1Z" fill="white"/>
<path d="M291 283.1L330.3 6.20001H402.2C404.7 6.20001 407.3 6.70001 410.1 7.70001C412.9 8.70001 415.8 10.4 418.8 12.7C421.8 15 424.7 18.2 427.3 22.3C429.9 26.4 432 31.5 433.4 37.6C435.4 44.7 436.3 53.8 436.3 64.9C436.3 80.7 434.1 103.4 429.9 133.2C427.3 151.9 424.9 167.4 422.7 179.7C420.6 192 417.7 204.5 414.2 217.2C410.7 229.9 406.2 241.3 400.8 251.5C395.4 261.7 388.9 269.8 381.3 275.7C377.5 278.7 373.5 280.6 369.2 281.6C364.9 282.6 360.1 283.1 354.7 283.1H291ZM346.1 242.5C354 242.5 360.3 240.8 365.2 237.3C370 233.9 374 228.3 377.1 220.7C380.2 213.1 383 203.1 385.4 190.8C387.8 178.5 390.6 160.9 393.9 138C397.7 111.2 399.6 91.5 399.6 78.9C399.6 67.6 398.2 59.4 395.4 54.3C392.6 49.3 388 46.7 381.6 46.7H359L331.1 242.4L346.1 242.5Z" fill="white"/>
</svg>
