<svg width="1479" height="279" viewBox="0 0 1479 279" fill="none" xmlns="http://www.w3.org/2000/svg">
<g clip-path="url(#clip0_459_140)">
<path d="M751.5 277.3L751.6 0.400024L848.6 0.500024V41.1H786.1V110.9H843.7V151.5H786.1V236.8H848.6V277.4L751.5 277.3Z" fill="white"/>
<path d="M877 277.3L877.1 0.400024H911.6L911.5 277.3H877Z" fill="white"/>
<path d="M934 0.5H1049V41.1H1008.9L1008.8 277.4H974.3L974.4 41.1H934V0.5Z" fill="white"/>
<path d="M1070.7 277.4L1070.8 0.5H1105.3L1105.2 110.1H1153.4L1153.5 0.5H1188L1187.9 277.4H1153.4L1153.5 150.8H1105.3L1105.2 277.4H1070.7Z" fill="white"/>
<path d="M1221.3 277.5L1221.4 0.599976L1318.4 0.699976V41.3H1255.9V111.1H1313.5V151.7H1255.9V237H1318.4V277.6L1221.3 277.5Z" fill="white"/>
<path d="M694.8 0.399988H729.3L690 277.3H654.1L641.4 178.7C639.1 162.7 637.3 145.8 635.9 128.1C634.5 110.4 633.3 90.6 632.4 68.7H631.9C630.2 86.9 628.9 101.5 627.9 112.4C626.9 123.4 625.8 135.1 624.4 147.7C622.7 163.2 621.2 177.2 619.7 189.6C618.2 202 616.6 213.9 615 225.2L607.6 277.3H573.1L612.3 0.299988H648L660.5 101.1C662.6 116.9 664.4 133.5 665.9 150.9C667.4 168.4 668.6 188.4 669.6 211.1H670.1C672.9 180.6 675.5 154.4 677.8 132.5C681.1 101.5 684.2 75.5 687.2 54.6L694.8 0.399988Z" fill="white"/>
<path d="M1381.4 157.6L1364.4 276.8H1329.9L1369.2 0H1434.4C1448.3 0 1459.3 3.7 1467.1 11.1C1475 18.5 1478.9 30.7 1478.9 47.7C1478.9 53.4 1478.4 59.6 1477.4 66.5C1476.2 74.6 1474.7 82.4 1472.8 89.8C1470.9 97.2 1468.5 104 1465.5 110.1C1462.5 116.3 1458.9 121.4 1454.5 125.4C1450.1 129.5 1445.2 132.1 1439.6 133.3L1439.4 134C1446.8 135.5 1452.1 139.1 1455.4 144.7C1458.7 150.4 1460.3 157.9 1460.3 167.2C1460.3 172.1 1459.8 177.8 1458.8 184.2L1458.6 187.2C1457.9 191.4 1457.2 196.1 1456.5 201.4C1455.8 206.7 1455 212.8 1454.2 219.7C1453.4 226.6 1452.7 233.2 1452.2 239.5C1451.7 245.8 1451.5 251.4 1451.5 256.3C1451.5 264.7 1452.3 269.8 1454 271.8L1453.3 277H1415.4C1415.4 276.3 1415.3 275.2 1415.2 273.7C1415.2 271.7 1415.2 270.4 1415.2 269.6C1415.2 263 1415.7 255.3 1416.6 246.7C1417.5 238.1 1418.7 228.4 1420.2 217.5L1421.7 206.8L1422.2 204.6C1423.5 194.3 1424.2 186.6 1424.2 181.7C1424.2 176.5 1423.6 172.2 1422.4 168.6C1421.2 165 1419.2 162.6 1416.6 161.4C1413.2 159.7 1409.3 158.6 1405.2 158.3C1401 157.9 1395.2 157.7 1387.8 157.7L1381.4 157.6ZM1387.1 117H1414.2C1420.4 116.5 1425.9 113 1430.4 106.5C1435 100 1438.2 90.2 1440 77.2C1440.8 71.5 1441.2 66.5 1441.2 62.1C1441.2 54 1439.7 48.4 1436.8 45.5C1433.8 42.5 1429.4 40.9 1423.5 40.7H1397.9L1387.1 117Z" fill="white"/>
<path d="M0 278.8L0.1 1.79999H34.6L34.5 278.8H0Z" fill="white"/>
<path d="M72.6992 84.9C77.9992 83.7 81.8992 80.4 84.4992 74.9C87.0992 69.5 88.3992 61.1 88.4992 49.8H72.6992V1.79999H102.499V45.7C102.499 62.7 100.299 75.6 95.9992 84.5C91.5992 93.4 83.8992 99.1 72.6992 101.8V84.9Z" fill="white"/>
<path d="M173.301 278.8H138.801L138.901 1.79999H193.801L212.201 130.3C214.801 149 216.901 170.3 218.601 194.2H219.101C220.101 178 221.001 165.3 221.701 156.2C222.401 147.1 223.401 138.5 224.501 130.4L243.101 1.89999H297.801L297.701 278.9H263.201V191.7C263.201 130.6 264.201 75.6 266.201 26.6H265.701L228.601 278.8H207.701L171.701 26.6H170.501C172.401 75.6 173.401 130.6 173.401 191.7L173.301 278.8Z" fill="white"/>
</g>
<defs>
<clipPath id="clip0_459_140">
<rect width="1478.9" height="278.9" fill="white"/>
</clipPath>
</defs>
</svg>
