<svg width="697" height="603" viewBox="0 0 697 603" fill="none" xmlns="http://www.w3.org/2000/svg">
<path d="M652.486 503.708C646.955 516.429 633.515 525.374 613.2 530.326C592.924 535.269 566.183 536.127 534.767 532.991C471.958 526.722 390.93 504.543 306.617 467.887C222.304 431.232 150.818 387.106 103.393 345.452C79.672 324.616 62.0594 304.476 51.844 286.277C41.6091 268.043 38.9837 252.114 44.5144 239.392C50.045 226.67 63.4847 217.725 83.7997 212.773C104.076 207.83 130.817 206.973 162.234 210.108C225.042 216.377 306.07 238.557 390.383 275.212C474.696 311.867 546.182 355.993 593.607 397.648C617.328 418.483 634.941 438.624 645.156 456.823C655.391 475.057 658.016 490.986 652.486 503.708Z" stroke="white" stroke-opacity="0.4" stroke-width="4"/>
<path d="M652.486 468.674C646.955 481.396 633.515 490.341 613.2 495.293C592.924 500.236 566.183 501.093 534.767 497.958C471.958 491.689 390.93 469.509 306.617 432.854C222.304 396.199 150.818 352.073 103.393 310.418C79.672 289.583 62.0594 269.442 51.844 251.243C41.6091 233.01 38.9837 217.08 44.5144 204.359C50.045 191.637 63.4847 182.692 83.7997 177.74C104.076 172.797 130.817 171.939 162.234 175.075C225.042 181.344 306.07 203.524 390.383 240.179C474.696 276.834 546.182 320.96 593.607 362.615C617.328 383.45 634.941 403.59 645.156 421.789C655.391 440.023 658.016 455.953 652.486 468.674Z" stroke="white" stroke-opacity="0.4" stroke-width="4"/>
<path d="M652.486 433.64C646.955 446.361 633.515 455.306 613.2 460.259C592.924 465.201 566.183 466.059 534.767 462.923C471.958 456.654 390.93 434.475 306.617 397.819C222.304 361.164 150.818 317.039 103.393 275.384C79.672 254.548 62.0594 234.408 51.844 216.209C41.6091 197.975 38.9837 182.046 44.5144 169.324C50.045 156.603 63.4847 147.657 83.7997 142.705C104.076 137.762 130.817 136.905 162.234 140.041C225.042 146.309 306.07 168.489 390.383 205.144C474.696 241.799 546.182 285.925 593.607 327.58C617.328 348.415 634.941 368.556 645.156 386.755C655.391 404.989 658.016 420.918 652.486 433.64Z" stroke="white" stroke-opacity="0.4" stroke-width="4"/>
<path d="M652.486 398.606C646.955 411.328 633.515 420.273 613.2 425.225C592.924 430.168 566.183 431.025 534.767 427.89C471.958 421.621 390.93 399.441 306.617 362.786C222.304 326.131 150.818 282.005 103.393 240.35C79.672 219.515 62.0594 199.375 51.844 181.175C41.6091 162.942 38.9837 147.012 44.5144 134.291C50.045 121.569 63.4847 112.624 83.7997 107.672C104.076 102.729 130.817 101.872 162.234 105.007C225.042 111.276 306.07 133.456 390.383 170.111C474.696 206.766 546.182 250.892 593.607 292.547C617.328 313.382 634.941 333.522 645.156 351.721C655.391 369.955 658.016 385.885 652.486 398.606Z" stroke="white" stroke-opacity="0.4" stroke-width="4"/>
<path d="M652.486 363.572C646.955 376.294 633.515 385.239 613.2 390.191C592.924 395.134 566.183 395.991 534.767 392.856C471.958 386.587 390.93 364.407 306.617 327.752C222.304 291.097 150.818 246.971 103.393 205.316C79.672 184.481 62.0594 164.34 51.844 146.141C41.6091 127.907 38.9837 111.978 44.5144 99.2565C50.045 86.535 63.4847 77.5898 83.7997 72.6376C104.076 67.6948 130.817 66.8374 162.234 69.973C225.042 76.2418 306.07 98.4215 390.383 135.077C474.696 171.732 546.182 215.858 593.607 257.513C617.328 278.348 634.941 298.488 645.156 316.687C655.391 334.921 658.016 350.85 652.486 363.572Z" stroke="white" stroke-opacity="0.4" stroke-width="4"/>
</svg>
