<svg width="1920" height="7012" viewBox="0 0 1920 7012" fill="none" xmlns="http://www.w3.org/2000/svg">
<g opacity="0.2">
<line x1="43.5" y1="1696" x2="43.4998" y2="7012" stroke="#FFAA00"/>
<line x1="143.5" y1="1696" x2="143.5" y2="7012" stroke="#FFAA00"/>
<line x1="243.5" y1="1696" x2="243.5" y2="7012" stroke="#FFAA00"/>
<line x1="343.5" y1="1696" x2="343.5" y2="7012" stroke="#FFAA00"/>
<line x1="443.5" y1="1696" x2="443.5" y2="7012" stroke="#FFAA00"/>
<line x1="543.5" y1="1696" x2="543.5" y2="7012" stroke="#FFAA00"/>
<line x1="643.5" y1="1696" x2="643.5" y2="7012" stroke="#FFAA00"/>
<line x1="743.5" y1="1696" x2="743.5" y2="7012" stroke="#FFAA00"/>
<line x1="843.502" y1="1696" x2="843.502" y2="7012" stroke="#FFAA00"/>
<line x1="943.502" y1="1696" x2="943.502" y2="7012" stroke="#FFAA00"/>
<line x1="1043.5" y1="1696" x2="1043.5" y2="7012" stroke="#FFAA00"/>
<line x1="1143.5" y1="1696" x2="1143.5" y2="7012" stroke="#FFAA00"/>
<line x1="1243.5" y1="1696" x2="1243.5" y2="7012" stroke="#FFAA00"/>
<line x1="1343.5" y1="1696" x2="1343.5" y2="7012" stroke="#FFAA00"/>
<line x1="1443.5" y1="1696" x2="1443.5" y2="7012" stroke="#FFAA00"/>
<line x1="1543.5" y1="1696" x2="1543.5" y2="7012" stroke="#FFAA00"/>
<line x1="1643.5" y1="1696" x2="1643.5" y2="7012" stroke="#FFAA00"/>
<line x1="1743.5" y1="1696" x2="1743.5" y2="7012" stroke="#FFAA00"/>
<line x1="1843.5" y1="1696" x2="1843.5" y2="7012" stroke="#FFAA00"/>
</g>
<g opacity="0.2">
<line x1="3618" y1="44.5007" x2="-1698" y2="44.5003" stroke="#FFAA00"/>
<line x1="3618" y1="144.501" x2="-1698" y2="144.501" stroke="#FFAA00"/>
<line x1="3618" y1="244.501" x2="-1698" y2="244.501" stroke="#FFAA00"/>
<line x1="3618" y1="344.501" x2="-1698" y2="344.501" stroke="#FFAA00"/>
<line x1="3618" y1="444.502" x2="-1698" y2="444.501" stroke="#FFAA00"/>
<line x1="3618" y1="544.502" x2="-1698" y2="544.501" stroke="#FFAA00"/>
<line x1="3618" y1="644.502" x2="-1698" y2="644.502" stroke="#FFAA00"/>
<line x1="3618" y1="744.502" x2="-1698" y2="744.502" stroke="#FFAA00"/>
<line x1="3618" y1="844.503" x2="-1698" y2="844.502" stroke="#FFAA00"/>
<line x1="3618" y1="944.503" x2="-1698" y2="944.502" stroke="#FFAA00"/>
<line x1="3618" y1="1044.5" x2="-1698" y2="1044.5" stroke="#FFAA00"/>
<line x1="3618" y1="1144.5" x2="-1698" y2="1144.5" stroke="#FFAA00"/>
<line x1="3618" y1="1244.5" x2="-1698" y2="1244.5" stroke="#FFAA00"/>
<line x1="3618" y1="1344.5" x2="-1698" y2="1344.5" stroke="#FFAA00"/>
<line x1="3618" y1="1444.5" x2="-1698" y2="1444.5" stroke="#FFAA00"/>
<line x1="3618" y1="1544.5" x2="-1698" y2="1544.5" stroke="#FFAA00"/>
<line x1="3618" y1="1644.5" x2="-1698" y2="1644.5" stroke="#FFAA00"/>
<line x1="3618" y1="1744.5" x2="-1698" y2="1744.5" stroke="#FFAA00"/>
<line x1="3618" y1="1844.51" x2="-1698" y2="1844.5" stroke="#FFAA00"/>
<line x1="3618" y1="1944.51" x2="-1698" y2="1944.5" stroke="#FFAA00"/>
<line x1="3618" y1="2044.51" x2="-1698" y2="2044.5" stroke="#FFAA00"/>
<line x1="3618" y1="2144.51" x2="-1698" y2="2144.51" stroke="#FFAA00"/>
<line x1="3618" y1="2244.51" x2="-1698" y2="2244.51" stroke="#FFAA00"/>
<line x1="3618" y1="2344.51" x2="-1698" y2="2344.51" stroke="#FFAA00"/>
<line x1="3618" y1="2444.51" x2="-1698" y2="2444.51" stroke="#FFAA00"/>
<line x1="3618" y1="2544.51" x2="-1698" y2="2544.51" stroke="#FFAA00"/>
<line x1="3618" y1="2644.51" x2="-1698" y2="2644.51" stroke="#FFAA00"/>
<line x1="3618" y1="2744.51" x2="-1698" y2="2744.51" stroke="#FFAA00"/>
<line x1="3618" y1="2844.51" x2="-1698" y2="2844.51" stroke="#FFAA00"/>
<line x1="3618" y1="2944.51" x2="-1698" y2="2944.51" stroke="#FFAA00"/>
<line x1="3618" y1="3044.51" x2="-1698" y2="3044.51" stroke="#FFAA00"/>
<line x1="3618" y1="3144.51" x2="-1698" y2="3144.51" stroke="#FFAA00"/>
<line x1="3618" y1="3244.51" x2="-1698" y2="3244.51" stroke="#FFAA00"/>
<line x1="3618" y1="3344.51" x2="-1698" y2="3344.51" stroke="#FFAA00"/>
<line x1="3618" y1="3444.51" x2="-1698" y2="3444.51" stroke="#FFAA00"/>
<line x1="3618" y1="3544.51" x2="-1698" y2="3544.51" stroke="#FFAA00"/>
<line x1="3618" y1="3644.51" x2="-1698" y2="3644.51" stroke="#FFAA00"/>
<line x1="3618" y1="3744.51" x2="-1698" y2="3744.51" stroke="#FFAA00"/>
<line x1="3618" y1="3844.51" x2="-1698" y2="3844.51" stroke="#FFAA00"/>
<line x1="3618" y1="3944.51" x2="-1698" y2="3944.51" stroke="#FFAA00"/>
<line x1="3618" y1="4044.51" x2="-1698" y2="4044.51" stroke="#FFAA00"/>
<line x1="3618" y1="4144.51" x2="-1698" y2="4144.51" stroke="#FFAA00"/>
<line x1="3618" y1="4244.51" x2="-1698" y2="4244.51" stroke="#FFAA00"/>
<line x1="3618" y1="4344.51" x2="-1698" y2="4344.51" stroke="#FFAA00"/>
<line x1="3618" y1="4444.51" x2="-1698" y2="4444.51" stroke="#FFAA00"/>
<line x1="3618" y1="4544.51" x2="-1698" y2="4544.51" stroke="#FFAA00"/>
<line x1="3618" y1="4644.51" x2="-1698" y2="4644.51" stroke="#FFAA00"/>
<line x1="3618" y1="4744.51" x2="-1698" y2="4744.51" stroke="#FFAA00"/>
<line x1="3618" y1="4844.51" x2="-1698" y2="4844.51" stroke="#FFAA00"/>
<line x1="3618" y1="4944.51" x2="-1698" y2="4944.51" stroke="#FFAA00"/>
<line x1="3618" y1="5044.51" x2="-1698" y2="5044.51" stroke="#FFAA00"/>
<line x1="3618" y1="5144.51" x2="-1698" y2="5144.51" stroke="#FFAA00"/>
<line x1="3618" y1="5244.51" x2="-1698" y2="5244.51" stroke="#FFAA00"/>
<line x1="3618" y1="5344.51" x2="-1698" y2="5344.51" stroke="#FFAA00"/>
<line x1="3618" y1="5444.51" x2="-1698" y2="5444.51" stroke="#FFAA00"/>
<line x1="3618" y1="5544.51" x2="-1698" y2="5544.51" stroke="#FFAA00"/>
<line x1="3618" y1="5644.51" x2="-1698" y2="5644.51" stroke="#FFAA00"/>
<line x1="3618" y1="5744.51" x2="-1698" y2="5744.51" stroke="#FFAA00"/>
<line x1="3618" y1="5844.51" x2="-1698" y2="5844.51" stroke="#FFAA00"/>
<line x1="3618" y1="5944.51" x2="-1698" y2="5944.51" stroke="#FFAA00"/>
<line x1="3618" y1="6044.51" x2="-1698" y2="6044.51" stroke="#FFAA00"/>
<line x1="3618" y1="6144.51" x2="-1698" y2="6144.51" stroke="#FFAA00"/>
<line x1="3618" y1="6244.51" x2="-1698" y2="6244.51" stroke="#FFAA00"/>
<line x1="3618" y1="6344.51" x2="-1698" y2="6344.51" stroke="#FFAA00"/>
<line x1="3618" y1="6444.51" x2="-1698" y2="6444.51" stroke="#FFAA00"/>
<line x1="3618" y1="6544.51" x2="-1698" y2="6544.51" stroke="#FFAA00"/>
<line x1="3618" y1="6644.51" x2="-1698" y2="6644.51" stroke="#FFAA00"/>
<line x1="3618" y1="6744.51" x2="-1698" y2="6744.51" stroke="#FFAA00"/>
</g>
</svg>
