<svg width="302" height="311" viewBox="0 0 302 311" fill="none" xmlns="http://www.w3.org/2000/svg">
<g clip-path="url(#clip0_194_120)">
<path d="M0.00942176 83.45C-0.510578 109.54 16.9394 132.34 23.3594 157.64C26.5494 170.2 26.9794 183.27 27.3994 196.22C28.3694 226.38 29.3394 256.53 30.2994 286.69C30.5494 294.49 31.4794 303.56 38.0694 307.75C42.0894 310.31 47.1794 310.27 51.9394 310.14C118.959 308.36 185.979 306.57 252.999 304.79C262.059 304.55 271.899 304.02 278.779 298.12C287.489 290.64 288.119 277.61 288.079 266.13C287.949 228.28 284.129 188.39 287.589 150.73C290.179 122.56 304.149 100.14 301.329 70.62C299.879 55.45 294.389 40.21 283.529 29.51C274.029 20.15 261.229 14.93 248.429 11.16C188.199 -6.64001 1.96942 -15.44 0.00942176 83.45Z" fill="#C18749"/>
<path d="M9.32089 105.07C8.84089 127.29 25.2009 146.71 31.2309 168.26C34.2209 178.96 34.6309 190.09 35.0209 201.12C35.9309 226.81 36.8409 252.49 37.7509 278.18C37.9809 284.82 38.8609 292.55 45.0409 296.12C48.8109 298.3 53.5809 298.26 58.0509 298.16C120.931 296.64 183.811 295.12 246.691 293.6C255.191 293.39 264.431 292.94 270.881 287.92C279.051 281.55 279.641 270.45 279.611 260.67C279.491 228.43 275.901 194.46 279.151 162.38C281.581 138.38 294.691 119.29 292.051 94.14C290.691 81.22 285.531 68.23 275.351 59.12C266.441 51.15 254.421 46.7 242.421 43.49C185.891 28.34 11.1609 20.84 9.32089 105.07Z" fill="#FFEBCF"/>
</g>
<defs>
<clipPath id="clip0_194_120">
<rect width="301.71" height="310.18" fill="white"/>
</clipPath>
</defs>
</svg>
