<svg width="312" height="327" viewBox="0 0 312 327" fill="none" xmlns="http://www.w3.org/2000/svg">
<g clip-path="url(#clip0_194_119)">
<path d="M288.369 166.671C288.609 164.081 288.939 161.551 289.349 159.051C290.009 155.041 287.349 151.281 283.359 150.561C282.539 150.411 281.719 150.261 280.909 150.101C267.409 147.401 253.549 141.741 245.909 130.301C244.229 127.791 242.799 124.951 240.249 123.331C237.679 121.681 234.449 121.591 231.419 121.211C215.669 119.241 201.549 107.541 196.699 92.431C195.609 89.041 194.929 85.461 193.119 82.391C190.959 78.731 187.399 76.151 184.299 73.241C171.679 61.391 167.249 42.271 171.569 25.651C172.809 20.881 169.349 16.171 164.419 16.071C89.8887 14.451 2.12872 31.671 0.788719 99.391C0.268719 125.481 17.7187 148.281 24.1387 173.581C27.3287 186.141 27.7587 199.211 28.1787 212.161C29.1487 242.321 30.1187 272.471 31.0787 302.631C31.3287 310.431 32.2587 319.501 38.8487 323.691C42.8687 326.251 47.9587 326.211 52.7187 326.081C119.739 324.301 186.759 322.511 253.779 320.731C262.839 320.491 272.679 319.961 279.559 314.061C288.269 306.581 288.899 293.551 288.859 282.071C288.729 244.211 284.909 204.321 288.369 166.671Z" fill="#C18749"/>
<path d="M197.653 3.66352C201.927 6.25881 202.748 10.6861 200.598 14.2265C197.224 19.7823 193.644 18.778 189.867 16.4846C186.091 14.1913 185.609 10.9739 188.983 5.4181C191.133 1.87765 193.876 1.37019 197.653 3.66352Z" fill="#C18749"/>
<path d="M297.671 89.2454C304.677 93.5 303.658 96.9964 300.616 99.8084C295.001 105 293.662 104.36 289.886 102.067C286.109 99.7732 286.512 99.0558 289.886 93.5C292.036 89.9596 293.895 86.9521 297.671 89.2454Z" fill="#C18749"/>
<path d="M262.785 105.926C265.994 107.875 267.039 110.494 265.954 112.282C264.25 115.087 261.689 114.123 258.853 112.401C256.018 110.679 255.337 108.789 257.041 105.983C258.127 104.195 259.95 104.204 262.785 105.926Z" fill="#C18749"/>
<path d="M276.638 178.281C276.858 176.061 277.168 173.871 277.538 171.731C278.138 168.281 275.708 165.051 272.038 164.431C271.288 164.301 270.538 164.171 269.788 164.031C257.398 161.711 244.668 156.841 237.648 147.011C236.108 144.851 234.788 142.411 232.458 141.011C230.098 139.591 227.138 139.511 224.348 139.191C209.888 137.501 196.928 127.441 192.478 114.451C191.478 111.531 190.858 108.451 189.188 105.821C187.198 102.671 183.938 100.461 181.088 97.961C169.498 87.771 165.438 71.331 169.408 57.051C170.548 52.951 167.368 48.901 162.838 48.811C94.4078 47.451 13.8378 62.251 12.6078 120.461C12.1378 142.891 28.1478 162.491 34.0478 184.231C36.9778 195.031 37.3778 206.261 37.7578 217.401C38.6478 243.321 39.5378 269.251 40.4278 295.171C40.6578 301.881 41.5178 309.671 47.5578 313.271C51.2478 315.471 55.9178 315.431 60.2878 315.321C121.818 313.791 183.348 312.251 244.878 310.721C253.198 310.511 262.238 310.061 268.548 304.981C276.548 298.551 277.128 287.351 277.088 277.481C276.968 244.941 273.458 210.651 276.638 178.281Z" fill="#FFEBCF"/>
</g>
<defs>
<clipPath id="clip0_194_119">
<rect width="315.53" height="326.71" fill="white" transform="translate(0 0.289673)"/>
</clipPath>
</defs>
</svg>
