<svg width="319" height="311" viewBox="0 0 319 311" fill="none" xmlns="http://www.w3.org/2000/svg">
<g clip-path="url(#clip0_194_121)">
<path d="M300.375 96.7623C301.575 90.2723 295.495 84.9323 289.165 86.8323C283.425 88.5523 277.345 89.0323 271.425 87.9923C256.075 85.3123 243.105 72.6923 239.405 57.6523C238.635 54.5123 236.045 52.1723 232.855 51.6623C212.155 48.3623 195.015 29.0523 193.255 8.2523C192.945 4.5923 189.945 1.7223 186.285 1.4623C108.265 -4.1377 1.92497 9.1823 0.444969 83.7823C-0.0750313 109.872 17.375 132.672 23.795 157.972C26.985 170.532 27.415 183.602 27.835 196.552C28.805 226.712 29.775 256.862 30.735 287.022C30.985 294.822 31.915 303.892 38.505 308.082C42.525 310.642 47.615 310.602 52.375 310.472C119.395 308.692 186.415 306.902 253.435 305.122C262.495 304.882 272.335 304.352 279.215 298.452C287.925 290.972 288.555 277.942 288.515 266.462C288.385 228.612 284.565 188.722 288.025 151.062C289.815 131.632 297.005 114.932 300.375 96.7623Z" fill="#C18749"/>
<path d="M316.904 51.8781C315.61 56.7077 311.59 58.7364 307.589 57.6644C301.311 55.982 301.272 52.2635 302.415 47.9958C303.559 43.7281 306.512 42.3643 312.791 44.0467C316.792 45.1187 318.048 47.6104 316.904 51.8781Z" fill="#C18749"/>
<path d="M287.954 122.362C289.394 116.002 283.634 110.382 277.304 111.972C272.264 113.242 266.964 113.562 261.804 112.732C247.964 110.522 236.214 100.282 232.554 87.9624C231.664 84.9624 229.234 82.6224 226.134 82.1624C207.524 79.3624 192.084 63.7224 189.994 46.6724C189.544 43.0324 186.634 40.1824 182.984 39.9524C111.264 35.3324 13.874 46.6224 12.514 109.192C12.044 131.132 28.084 150.302 33.994 171.562C36.924 182.122 37.324 193.112 37.704 204.002C38.594 229.352 39.484 254.712 40.374 280.062C40.604 286.622 41.464 294.242 47.524 297.762C51.224 299.912 55.904 299.882 60.284 299.772C121.944 298.272 183.594 296.772 245.254 295.272C253.584 295.072 262.644 294.622 268.974 289.662C276.984 283.372 277.564 272.422 277.534 262.772C277.414 230.952 273.894 197.412 277.084 165.752C278.644 150.222 284.694 136.772 287.954 122.362Z" fill="#FFEBCF"/>
</g>
<defs>
<clipPath id="clip0_194_121">
<rect width="318.587" height="311" fill="white"/>
</clipPath>
</defs>
</svg>
