<svg width="183" height="136" viewBox="0 0 183 136" fill="none" xmlns="http://www.w3.org/2000/svg">
<path d="M65.1871 16.5657C65.4271 17.5157 65.5871 18.4757 65.6371 19.4157C65.8871 23.7957 64.8671 28.2457 65.3271 32.5557C65.4371 33.5657 66.567 34.1057 67.417 33.5457C84.507 22.2057 102.287 11.9257 120.647 2.78568C124.107 1.06568 127.767 -0.664321 131.757 0.255679C133.527 0.665679 135.147 1.71568 136.047 3.30568C138.037 6.82568 135.717 10.3857 133.427 13.2057C129.827 17.6457 125.927 21.8557 121.777 25.7957C121.197 26.3457 121.707 27.2957 122.487 27.1057C125.587 26.3657 129.457 26.0157 131.437 25.5157C136.117 24.3457 140.797 23.1757 145.477 22.0057C151.087 20.6057 166.647 14.5057 168.497 24.3057C169.517 29.7257 164.817 33.1357 160.637 35.4257C155.557 38.2157 150.897 41.3657 145.967 44.4157C145.067 44.9757 145.487 46.3657 146.547 46.3157C155.467 45.9157 164.387 45.7957 173.317 45.8957C180.467 45.9957 183.337 50.2857 178.977 55.8457C173.867 62.3657 166.367 66.2657 158.737 69.2057C157.727 69.5957 157.937 71.0757 159.017 71.1857C163.987 71.6957 169.407 71.5957 174.347 72.3957C176.117 72.6857 177.937 73.0457 179.377 74.1157C191.367 83.0157 160.737 89.2657 156.917 89.8157C135.197 92.9257 114.227 101.146 96.1871 113.636C86.0371 120.666 76.5371 129.156 64.8171 133.036C52.4871 137.116 38.9471 135.616 26.4071 132.236C18.8971 130.206 11.2071 127.286 6.16707 121.366C1.46707 115.846 -0.322926 108.266 0.0470738 101.026C0.417074 93.7857 2.77707 86.7857 5.57707 80.0957C16.0271 55.1957 32.7871 33.5157 49.7171 12.5257C50.7571 11.2357 52.0371 10.1257 53.5371 9.40569C59.5671 6.51569 63.8271 11.2757 65.1871 16.5657Z" fill="white"/>
</svg>
