<svg width="50" height="50" viewBox="0 0 50 50" fill="none" xmlns="http://www.w3.org/2000/svg">
<rect y="0.00012207" width="50" height="50" rx="10" fill="#231F20"/>
<path d="M9.5 35.7021V13.9044C9.5 13.7455 9.56932 13.6657 9.70777 13.6657L9.92682 13.6651L10.3013 13.6611L10.8216 13.651L12.5647 13.6146L14.4339 13.5804C15.0912 13.5693 15.743 13.5634 16.389 13.5634C18.1423 13.5634 19.6188 13.7795 20.8189 14.2115C21.9014 14.5724 22.8886 15.1667 23.7087 15.9511C24.404 16.6311 24.9412 17.4517 25.2834 18.3562C25.6072 19.2364 25.7712 20.1658 25.7681 21.1021C25.7681 22.9218 25.341 24.4226 24.4874 25.6049C23.6525 26.7583 22.4878 27.6404 21.1421 28.1386L21.0267 28.1804C19.6215 28.6971 18.0653 28.8837 16.3586 28.8954L16.0934 28.8962L15.6998 28.8943L15.5013 28.8915L15.2801 28.8864L15.1466 28.8811L15.0656 28.8769L14.8663 28.8698L14.6227 28.8648L14.2559 28.8622L14.1743 28.8621V35.6679C14.1804 35.7096 14.1765 35.7521 14.163 35.7921C14.1495 35.8321 14.1267 35.8685 14.0965 35.8982C14.0662 35.928 14.0294 35.9504 13.9888 35.9637C13.9482 35.9771 13.9051 35.981 13.8628 35.975H9.74243C9.58061 35.975 9.5 35.8843 9.5 35.7021ZM14.1745 17.7591V24.8686C14.4507 24.8905 14.7277 24.9019 15.0048 24.9027H16.147C16.9345 24.9001 17.7174 24.7846 18.4712 24.5597L18.6215 24.5134C19.3072 24.3127 19.9199 23.9218 20.3866 23.3875C20.8203 22.8834 21.045 22.1888 21.0605 21.3035L21.0615 21.2044C21.0797 20.5445 20.9056 19.8934 20.5595 19.3283C20.1959 18.7818 19.6703 18.3589 19.0542 18.1172C18.2497 17.809 17.3904 17.664 16.5277 17.6909L16.0888 17.6921L15.8119 17.6945L15.5477 17.6979L15.1749 17.7051L14.9028 17.7126L14.7615 17.7178L14.5727 17.7265L14.4119 17.7362L14.3202 17.7434L14.241 17.7509L14.2062 17.7549L14.1745 17.7591ZM39.1491 23.5758C38.5454 23.2701 37.905 23.0404 37.2432 22.8922L37.09 22.8596C36.3618 22.6949 35.6183 22.6042 34.8714 22.5888L34.6848 22.5867C34.247 22.575 33.8096 22.6267 33.3871 22.7402C33.1179 22.7992 32.8788 22.9502 32.712 23.1665C32.5992 23.3395 32.5392 23.5408 32.5391 23.7465C32.5454 23.9459 32.6182 24.1378 32.7466 24.2921C32.9302 24.5039 33.151 24.6813 33.3985 24.8159L33.4734 24.8551C33.9669 25.1169 34.4753 25.3504 34.9962 25.5542C36.1577 25.9375 37.2675 26.4587 38.3011 27.1064C39.0054 27.5444 39.5882 28.1482 39.9972 28.8633C40.3409 29.5403 40.5131 30.2893 40.499 31.0462C40.5197 32.046 40.2299 33.0279 39.6684 33.8607C39.0671 34.7058 38.2322 35.3629 37.2629 35.7536C36.2478 36.1935 35.0012 36.4204 33.5233 36.4354L33.3697 36.4361C32.4535 36.4453 31.5385 36.3662 30.6379 36.2001L30.4451 36.1632C29.6869 36.0261 28.9487 35.7969 28.2477 35.481C28.1772 35.4451 28.1176 35.3914 28.0751 35.3254C28.0325 35.2596 28.0084 35.1836 28.0054 35.1055V31.3875C28.0012 31.3514 28.0071 31.3148 28.0224 31.2818C28.0376 31.2487 28.0617 31.2204 28.0921 31.1998C28.1217 31.1832 28.1559 31.176 28.1899 31.179C28.2239 31.1821 28.2561 31.1953 28.2823 31.2169C29.1103 31.698 30.0093 32.0492 30.9471 32.2573C31.7735 32.4615 32.6215 32.5704 33.4734 32.5815C34.2808 32.5815 34.8749 32.479 35.2558 32.2744C35.4277 32.1968 35.5733 32.0717 35.6746 31.9143C35.7759 31.7569 35.8289 31.5739 35.8269 31.3875C35.8269 31.0923 35.6537 30.8079 35.3078 30.5347C35.1626 30.4204 34.9545 30.2958 34.6837 30.1614L34.5541 30.0986L34.4158 30.0344L34.3433 30.0018L34.1914 29.9355C34.165 29.9242 34.1385 29.9129 34.1122 29.9017L33.9469 29.8335L33.8608 29.7986L33.6823 29.7282L33.5895 29.6923L33.3975 29.6194L33.1965 29.5454C32.1098 29.1726 31.0795 28.6562 30.1336 28.0104C29.4572 27.5467 28.9002 26.9333 28.5072 26.2195C28.1668 25.5473 27.9947 24.8045 28.0054 24.0534C28.0035 23.1508 28.255 22.2653 28.7321 21.495C29.2762 20.6468 30.0572 19.9715 30.9817 19.5508C31.9967 19.0508 33.2656 18.8005 34.7884 18.8001C35.6803 18.7931 36.5715 18.8558 37.4534 18.9878C38.0919 19.0677 38.7162 19.2341 39.3086 19.4824C39.4039 19.5094 39.4807 19.5788 39.5162 19.6701C39.5397 19.7534 39.5513 19.8394 39.5508 19.926V23.3713C39.5558 23.4527 39.5162 23.5308 39.447 23.5758C39.4008 23.5985 39.3498 23.6103 39.298 23.6103C39.2465 23.6103 39.1955 23.5985 39.1491 23.5758Z" fill="#31A8FF"/>
</svg>
