<svg width="50" height="50" viewBox="0 0 50 50" fill="none" xmlns="http://www.w3.org/2000/svg">
<rect y="0.00012207" width="50" height="50" rx="10" fill="#231F20"/>
<path d="M25.0685 32.366H16.3964L14.6318 37.8118C14.6078 37.9112 14.5496 37.9991 14.4674 38.0604C14.3851 38.1216 14.2839 38.1525 14.1813 38.1476H9.78881C9.53851 38.1476 9.45084 38.0107 9.52605 37.7371L17.0345 16.2526C17.1095 16.0289 17.1847 15.7741 17.2597 15.4881C17.358 14.9902 17.4083 14.4846 17.4098 13.9775C17.4047 13.942 17.408 13.9058 17.4194 13.8718C17.4308 13.8378 17.45 13.8069 17.4755 13.7816C17.501 13.7562 17.5321 13.7371 17.5663 13.7257C17.6005 13.7144 17.6369 13.7111 17.6726 13.7162H23.6418C23.8168 13.7162 23.9168 13.7785 23.9422 13.903L32.4641 37.7745C32.5393 38.0233 32.4641 38.1478 32.2389 38.1476H27.3584C27.2746 38.1569 27.1901 38.1354 27.1211 38.0874C27.0521 38.0394 27.003 37.968 26.983 37.8865L25.0685 32.366ZM17.7478 27.6664H23.6794L23.5949 27.389L23.4591 26.9499L23.3622 26.6414L23.2077 26.1558L22.8791 25.1335L22.5901 24.2271L21.8397 21.8662C21.6529 21.2793 21.4736 20.6901 21.3019 20.0987L21.1646 19.6187L21.0042 19.0511L20.7593 18.1715L20.7134 18.0058H20.676C20.4882 18.9011 20.2594 19.7874 19.9905 20.6621L19.4335 22.4422L19.127 23.4257L18.8177 24.4213C18.7617 24.6011 18.7062 24.779 18.6504 24.9547L18.4843 25.4755L18.319 25.9843L18.1546 26.4803L17.9911 26.964C17.9369 27.1232 17.8827 27.2803 17.8287 27.4354L17.7478 27.6664ZM37.5319 17.67C37.1489 17.6853 36.767 17.6201 36.4112 17.4787C36.0554 17.3373 35.7337 17.1228 35.4671 16.8494C35.2011 16.5641 34.9945 16.2294 34.8593 15.8646C34.724 15.4997 34.6626 15.1118 34.6786 14.7233C34.665 14.3387 34.7332 13.9555 34.8787 13.5989C35.0243 13.2422 35.2439 12.92 35.5232 12.6534C36.0622 12.1395 36.7799 11.8518 37.5268 11.8505L37.6069 11.8513C38.508 11.8513 39.215 12.1185 39.7281 12.6532C39.9871 12.9311 40.1883 13.2569 40.3203 13.6121C40.4525 13.9673 40.5127 14.3449 40.4976 14.7233C40.5134 15.1134 40.4501 15.5026 40.3115 15.8679C40.1728 16.2332 39.9616 16.567 39.6906 16.8497C39.4168 17.1177 39.092 17.3286 38.735 17.4699C38.378 17.6113 37.9963 17.6803 37.6121 17.6728L37.5319 17.67ZM34.9413 37.7745V19.9453C34.9413 19.7216 35.041 19.6095 35.2417 19.6095H39.8596C40.0595 19.6095 40.1597 19.7214 40.1598 19.9453V37.7745C40.1598 38.0233 40.0598 38.1478 39.8596 38.1476H35.2793C35.066 38.1476 34.9535 38.0359 34.9424 37.8127L34.9413 37.7745Z" fill="#FF9A00"/>
</svg>
