<svg width="50" height="50" viewBox="0 0 50 50" fill="none" xmlns="http://www.w3.org/2000/svg">
<rect y="0.00012207" width="50" height="50" rx="10" fill="#231F20"/>
<path d="M14.6875 14.6876C14.6875 11.8414 16.9975 9.53137 19.8438 9.53137H25V19.8439H19.8438C16.9975 19.8439 14.6875 17.5339 14.6875 14.6876Z" fill="#F24E1E"/>
<path d="M25 9.53137H30.1562C33.0025 9.53137 35.3125 11.8414 35.3125 14.6876C35.3125 17.5339 33.0025 19.8439 30.1562 19.8439H25V9.53137Z" fill="#FF7262"/>
<path d="M14.6875 25.0001C14.6875 22.1539 16.9975 19.8439 19.8438 19.8439H25V30.1564H19.8438C16.9975 30.1564 14.6875 27.8464 14.6875 25.0001Z" fill="#A259FF"/>
<path d="M35.3125 25.0001C35.3125 27.8464 33.0025 30.1564 30.1562 30.1564C27.31 30.1564 25 27.8464 25 25.0001C25 22.1539 27.31 19.8439 30.1562 19.8439C33.0025 19.8439 35.3125 22.1539 35.3125 25.0001Z" fill="#1ABCFE"/>
<path d="M19.8438 40.4689C22.69 40.4689 25 38.1589 25 35.3126V30.1564H19.8438C16.9975 30.1564 14.6875 32.4664 14.6875 35.3126C14.6875 38.1589 16.9975 40.4689 19.8438 40.4689Z" fill="#0ACF83"/>
</svg>
