<svg width="50" height="50" viewBox="0 0 50 50" fill="none" xmlns="http://www.w3.org/2000/svg">
<rect y="0.00012207" width="50" height="50" rx="10" fill="#231F20"/>
<path d="M13.5482 37.8013L11 9.00012H39L36.449 37.7971L24.2632 41.0001L13.5482 37.8013Z" fill="#E44D26"/>
<path d="M24 41.0001L36.375 37.9525L39 9.00012H24V41.0001Z" fill="#F16529"/>
<path d="M24 21.5782H18.1951L17.7941 17.2381H24V13.0001H13L13.1052 14.137L14.1831 25.8165H24V21.5782ZM24 32.585L23.9805 32.5903L19.0952 31.3154L18.7832 27.9357H14.3792L14.9937 34.5901L23.9798 37.0001L24 36.9948V32.585Z" fill="#EBEBEB"/>
<path d="M24 21.5789V25.8175H29.8987L29.3427 31.3143L24 32.5904V37.0001L33.8205 34.5918L33.8926 33.8757L35.0182 22.7171L35.1348 21.5789H33.8442H24ZM24 13.0001V17.2384H35.5709L35.6669 16.2861L35.8855 14.1371L36 13.0001H24Z" fill="white"/>
</svg>
