<svg width="50" height="50" viewBox="0 0 50 50" fill="none" xmlns="http://www.w3.org/2000/svg">
<rect y="0.00012207" width="50" height="50" rx="10" fill="#231F20"/>
<path d="M14.3661 37.001L12 10.0001H38L35.6316 36.997L24.9843 40.0001L14.3661 37.001Z" fill="#1572B6"/>
<path d="M25 40.0001L37.1431 37.1446L40 10.0001H25V40.0001Z" fill="#33A9DC"/>
<path d="M25 21.0319H30.8048L31.2057 16.9684H25V13.0001H36L35.8947 14.0648L34.8162 25.0001H25V21.0319Z" fill="white"/>
<path d="M25 31.6163L24.9819 31.6219L20.4114 30.3564L20.1192 27.0001H16L16.5748 33.6078L24.9813 36.0001L25 35.9947V31.6163Z" fill="#EBEBEB"/>
<path d="M30.5192 25.0001L29.9813 30.4952L25 31.7307V36.0001L34.1559 33.6687L34.223 32.9754L35 25.0001H30.5192Z" fill="white"/>
<path d="M25 13.0001V16.9682H15.3573L15.2774 16.0765L15.0955 14.0648L15 13.0001H25ZM24.9864 21.0321V25.0001H20.5966L20.5167 24.1085L20.3345 22.0968L20.2393 21.0321H24.9864Z" fill="#EBEBEB"/>
</svg>
