<svg width="50" height="50" viewBox="0 0 50 50" fill="none" xmlns="http://www.w3.org/2000/svg">
<rect y="0.00012207" width="50" height="50" rx="10" fill="#F7DF1E"/>
<mask id="mask0_15_142" style="mask-type:luminance" maskUnits="userSpaceOnUse" x="9" y="9" width="32" height="32">
<path d="M41 9.50012H9V40.5001H41V9.50012Z" fill="white"/>
</mask>
<g mask="url(#mask0_15_142)">
<path d="M9 9.50012H41V40.5001H9V9.50012Z" fill="#F7DF1E"/>
<path d="M17.4139 35.406L19.8627 33.9702C20.3352 34.7817 20.7649 35.4684 21.7958 35.4684C22.7839 35.4684 23.4071 35.094 23.4071 33.6374V23.7322H26.4142V33.6786C26.4142 36.6958 24.5885 38.0693 21.9247 38.0693C19.5191 38.0693 18.1228 36.8627 17.4139 35.406ZM28.0475 35.0938L30.4961 33.7205C31.1408 34.7402 31.9784 35.4892 33.4605 35.4892C34.7066 35.4892 35.501 34.8857 35.501 34.0534C35.501 33.0546 34.6848 32.7008 33.3101 32.1183L32.5585 31.8059C30.3888 30.9114 28.9496 29.7876 28.9496 27.4154C28.9496 25.2304 30.668 23.5656 33.3533 23.5656C35.265 23.5656 36.6397 24.2107 37.6277 25.8963L35.2862 27.353C34.7706 26.4582 34.2123 26.1046 33.3531 26.1046C32.4722 26.1046 31.9138 26.6456 31.9138 27.353C31.9138 28.2269 32.4724 28.5809 33.7611 29.122L34.5128 29.434C37.069 30.4954 38.5082 31.5773 38.5082 34.0118C38.5082 36.634 36.3816 38.0697 33.5248 38.0697C30.7325 38.0697 28.9282 36.7794 28.0475 35.0938Z" fill="black"/>
</g>
</svg>
