<svg width="435" height="371" viewBox="0 0 435 371" fill="none" xmlns="http://www.w3.org/2000/svg">
<g clip-path="url(#clip0_312_404)">
<path d="M58.4661 369.119C37.5861 369.119 21.2847 361.035 11.3313 345.753C1.71706 330.994 -0.974046 310.902 3.73723 289.181C5.75002 279.902 8.06511 270.668 10.2991 261.736C16.8462 235.574 23.0321 210.865 22.8846 183.686C22.833 173.876 23.2975 154.286 27.006 133.272C30.5966 112.959 36.1853 96.991 43.6171 85.802C62.7866 56.9333 84.1459 35.0274 107.09 20.6889C127.484 7.93625 148.946 1.4751 170.866 1.4751C182.751 1.4751 194.96 3.38542 207.155 7.15442L207.207 7.13967C207.398 7.09542 207.686 7.03641 208.055 6.97003C209.035 6.77826 210.112 6.59387 211.262 6.42422C213.798 6.04068 217.89 5.53913 222.977 5.29573C225.027 5.19985 227.113 5.14822 229.178 5.14822C240.156 5.14822 250.92 6.50536 261.161 9.19013C278.333 13.682 293.668 21.8027 306.741 33.3309C323.064 47.721 335.863 67.4733 344.799 92.0419C345.75 94.6529 346.709 97.3082 347.682 100C360.083 134.283 374.143 173.131 393.571 202.199C396.675 206.838 400.642 211.89 404.837 217.238C405.581 218.182 406.326 219.141 407.078 220.1C411.819 226.162 417.26 233.243 421.831 240.597C432.832 258.306 435.596 272.689 430.539 285.84C425.872 297.965 414.525 308.749 396.808 317.895C378.663 327.262 359.729 331.776 352.438 333.28C324.974 338.952 298.335 340.516 274.831 341.903L273.054 342.006C248.723 343.437 223.56 344.919 197.356 349.979L194.997 350.436C151.423 358.852 106.368 367.548 61.2457 369.082C60.3167 369.097 59.3804 369.119 58.4661 369.119Z" fill="#231F20"/>
<path d="M170.865 2.9503C182.286 2.9503 194.311 4.70573 206.94 8.637L207.088 8.68125L207.243 8.64437L207.11 8.08382C207.243 8.64437 207.243 8.64437 207.243 8.64437H207.258L207.309 8.62962C207.353 8.62225 207.42 8.6075 207.516 8.58537C207.7 8.54849 207.973 8.48948 208.334 8.4231C209.057 8.28296 210.118 8.09119 211.482 7.88467C214.218 7.47163 218.177 6.99958 223.05 6.77093C224.96 6.68243 227.009 6.62342 229.184 6.62342C238.098 6.62342 249.054 7.54539 260.799 10.6137C289.974 18.2476 324.029 39.1873 343.42 92.5361C344.371 95.1471 345.329 97.8024 346.303 100.487C358.527 134.268 372.823 173.787 392.354 203.003C395.472 207.671 399.469 212.753 403.686 218.13C404.431 219.074 405.175 220.026 405.927 220.992C410.97 227.438 416.19 234.276 420.584 241.357C429.395 255.54 434.829 270.564 429.167 285.294C424.087 298.496 411.073 308.859 396.136 316.567C381.221 324.267 364.492 329.268 352.142 331.82C325.378 337.344 300.097 338.923 274.749 340.42C274.159 340.457 273.562 340.494 272.972 340.523C248.221 341.984 223.382 343.444 197.083 348.519L194.724 348.976C150.567 357.502 106.205 366.066 61.2008 367.592C60.2718 367.622 59.3575 367.637 58.458 367.637C36.8997 367.637 21.5642 358.771 12.5619 344.934C3.16144 330.507 0.603049 310.578 5.18161 289.498C7.18703 280.256 9.46525 271.162 11.7287 262.097C18.1505 236.422 24.5059 211.05 24.3511 183.678C24.27 169.332 25.3391 151.166 28.4578 133.523C31.5765 115.873 36.7449 98.8055 44.8403 86.6134C59.564 64.4419 80.7094 38.9071 107.864 21.9355C126.178 10.4957 147.213 2.9503 170.865 2.9503ZM207.117 8.08382V8.09119C207.117 8.08382 207.117 8.08382 207.117 8.08382ZM170.865 0C148.658 0 126.945 6.53491 106.308 19.4351C83.1793 33.8842 61.6726 55.9377 42.3852 84.9833C34.8427 96.342 29.1803 112.502 25.5529 133.014C21.8148 154.153 21.3503 173.839 21.4019 183.693C21.5494 210.688 15.3857 235.308 8.86805 261.382C6.62669 270.328 4.31161 279.578 2.29881 288.878C-2.50093 310.984 0.271269 331.466 10.0919 346.557C15.0097 354.117 21.5273 360.017 29.4531 364.104C37.8066 368.411 47.5683 370.594 58.458 370.594C59.3944 370.594 60.3529 370.58 61.304 370.543C106.537 369.001 151.651 360.298 195.277 351.875L197.636 351.417C223.743 346.38 248.855 344.905 273.142 343.474L273.348 343.459L274.918 343.363C298.467 341.976 325.165 340.398 352.732 334.711C360.09 333.192 379.178 328.641 397.485 319.193C415.534 309.877 427.117 298.828 431.917 286.356C437.159 272.733 434.35 257.945 423.084 239.808C418.476 232.395 413.005 225.27 408.242 219.178C407.49 218.211 406.738 217.26 405.994 216.316C401.806 210.991 397.854 205.953 394.794 201.373C375.462 172.452 361.439 133.693 349.068 99.4914L348.964 99.2038C348.028 96.6075 347.099 94.0555 346.185 91.533C337.168 66.7284 324.228 46.7696 307.72 32.2173C294.479 20.5415 278.937 12.3101 261.537 7.75928C251.17 5.04501 240.288 3.67312 229.177 3.67312C227.091 3.67312 224.975 3.72475 222.903 3.82064C217.749 4.06404 213.606 4.58034 211.04 4.97125C209.573 5.19252 208.452 5.39905 207.766 5.53181C207.552 5.57606 207.368 5.61294 207.213 5.64245C195.004 1.89557 182.78 0 170.865 0Z" fill="white"/>
<path d="M139.268 35.4921C80.3589 69.2362 48.5965 141.821 71.4082 207.443C93.7186 271.605 172.645 287.625 232.233 276.915C251.498 273.456 269.208 266.397 284.035 253.224C339.973 203.549 334.274 104.964 281.432 55.2665C260.906 35.9642 232.122 22.0757 203.538 29.0605C192.478 31.7748 179.524 12.4282 139.268 35.4921Z" fill="white"/>
<path d="M227.505 144.137C230.926 147.272 235.77 147.935 239.87 145.981C241.683 145.708 243.372 144.594 244.153 142.441C244.168 142.396 244.183 142.345 244.205 142.308C246.151 139.557 247.117 135.928 246.918 132.483C248.009 126.155 247.545 119.517 241.964 116.279C232.504 110.769 224.63 123.632 223.494 131.406C222.809 136.06 223.944 140.855 227.505 144.137Z" fill="#231F20"/>
<path d="M152.559 147.5C158.929 142.817 160.669 133.84 157.219 126.922C156.57 124.141 155.044 121.7 152.264 120.07C148.401 117.805 143.505 118.366 140.541 121.774C137.725 125.019 137.01 130.388 136.899 134.519C136.796 138.664 137.29 144.203 140.394 147.308C143.844 150.76 148.917 150.185 152.559 147.5Z" fill="#231F20"/>
<path d="M224.704 100.354C233.522 99.7643 242.266 100.266 250.944 102.021C255.862 103.017 257.897 95.4348 252.935 94.439C243.623 92.5656 234.185 91.887 224.711 92.5213C219.69 92.8459 219.661 100.694 224.704 100.354Z" fill="#A9A9A9"/>
<path d="M127.778 99.9562C137.636 99.5137 147.486 99.0711 157.336 98.6212C162.365 98.3926 162.387 90.5521 157.336 90.7808L127.778 92.1158C122.743 92.3518 122.728 100.192 127.778 99.9562Z" fill="#A9A9A9"/>
<path d="M246.298 191.57C252.38 193.695 259.001 193.451 265.194 191.961C266.809 191.578 268.387 191.083 269.943 190.538C270.186 190.53 270.422 190.523 270.658 190.516C272.722 190.42 274.307 189.608 275.428 188.421C278.311 187.278 281.503 186.238 283.641 183.914C286.9 180.381 286.561 176.052 284.357 172.666C284.334 170.608 283.251 168.617 280.707 167.444C268.52 161.831 255.02 156.58 241.896 162.517C235.895 165.231 230.417 171.08 232.149 178.169C233.771 184.836 240.134 189.417 246.298 191.57Z" fill="#F8D6D8"/>
<path d="M108.168 192.64C114.059 197.051 121.616 198.378 128.819 197.523C135.765 196.696 143.661 194.211 146.013 187.027C146.219 186.791 146.426 186.555 146.618 186.297C150.739 180.846 148.859 172.74 144.244 168.197C138.729 162.761 130.928 162.798 123.799 164.022C116.662 165.246 106.539 166.006 102.292 172.77C97.7944 179.917 102.152 188.133 108.168 192.64Z" fill="#F8D6D8"/>
<path d="M203.058 167.665C196.01 173.529 185.695 174.141 177.858 169.546C174.348 167.488 171.171 172.939 174.673 174.997C185.098 181.119 198.281 179.813 207.519 172.135C210.645 169.524 206.162 165.084 203.058 167.665Z" fill="#F8D6D8"/>
</g>
<defs>
<clipPath id="clip0_312_404">
<rect width="435" height="371" fill="white"/>
</clipPath>
</defs>
</svg>
