<svg width="590" height="635" viewBox="0 0 590 635" fill="none" xmlns="http://www.w3.org/2000/svg">
<path d="M107.275 476.658C82.6341 476.658 63.3963 467.122 51.6501 449.093C40.304 431.683 37.1282 407.981 42.6881 382.357C45.0635 371.411 47.7956 360.518 50.4319 349.981C58.1584 319.119 65.4585 289.971 65.2844 257.908C65.2235 246.335 65.7717 223.226 70.1483 198.437C74.3856 174.474 80.9809 155.637 89.7515 142.438C112.374 108.382 137.58 82.5403 164.658 65.6257C188.725 50.5817 214.053 42.9597 239.921 42.9597C253.947 42.9597 268.356 45.2133 282.747 49.6594L282.808 49.642C283.034 49.5898 283.373 49.5202 283.808 49.4419C284.966 49.2157 286.236 48.9982 287.593 48.798C290.586 48.3456 295.415 47.7539 301.419 47.4668C303.838 47.3537 306.3 47.2928 308.737 47.2928C321.692 47.2928 334.396 48.8938 346.481 52.0609C366.746 57.3598 384.844 66.9395 400.27 80.5391C419.534 97.5146 434.639 120.816 445.185 149.798C446.307 152.879 447.438 156.011 448.587 159.187C463.222 199.629 479.814 245.457 502.741 279.747C506.404 285.22 511.086 291.18 516.036 297.488C516.915 298.602 517.794 299.733 518.681 300.864C524.276 308.016 530.697 316.369 536.092 325.044C549.074 345.935 552.337 362.902 546.368 378.416C540.86 392.72 527.469 405.441 506.561 416.23C485.148 427.28 462.804 432.605 454.199 434.38C421.788 441.071 390.351 442.916 362.613 444.551L360.516 444.673C331.803 446.361 302.106 448.11 271.183 454.079L268.399 454.618C216.977 464.546 163.805 474.805 110.555 476.614C109.459 476.632 108.354 476.658 107.275 476.658Z" fill="#231F20"/>
<path d="M239.92 44.6999C253.397 44.6999 267.589 46.7707 282.493 51.4083L282.667 51.4605L282.85 51.417L282.693 50.7557C282.85 51.417 282.85 51.417 282.85 51.417H282.867L282.928 51.3996C282.981 51.3909 283.059 51.3735 283.172 51.3474C283.39 51.3039 283.712 51.2343 284.138 51.1559C284.991 50.9906 286.243 50.7644 287.853 50.5208C291.081 50.0335 295.754 49.4767 301.505 49.2069C303.758 49.1025 306.177 49.0329 308.744 49.0329C319.264 49.0329 332.193 50.1205 346.054 53.7401C380.483 62.7456 420.673 87.4475 443.556 150.381C444.679 153.462 445.81 156.594 446.958 159.761C461.385 199.611 478.256 246.231 501.304 280.695C504.985 286.203 509.701 292.198 514.678 298.541C515.557 299.655 516.435 300.777 517.323 301.917C523.274 309.521 529.435 317.587 534.62 325.94C545.018 342.672 551.431 360.396 544.748 377.772C538.753 393.346 523.396 405.571 505.768 414.664C488.166 423.747 468.424 429.647 453.85 432.657C422.265 439.174 392.43 441.036 362.516 442.802C361.82 442.846 361.115 442.889 360.419 442.924C331.21 444.647 301.896 446.37 270.86 452.356L268.076 452.896C215.966 462.954 163.613 473.056 110.502 474.857C109.406 474.891 108.327 474.909 107.265 474.909C81.8237 474.909 63.7258 464.45 53.1019 448.127C42.0082 431.108 38.989 407.598 44.3923 382.731C46.759 371.829 49.4475 361.101 52.1187 350.407C59.6972 320.119 67.1974 290.188 67.0147 257.899C66.919 240.976 68.1807 219.545 71.8611 198.733C75.5416 177.911 81.641 157.777 91.1946 143.395C108.57 117.24 133.525 87.1169 165.57 67.0961C187.183 53.6009 212.007 44.6999 239.92 44.6999ZM282.702 50.7557V50.7644C282.702 50.7557 282.702 50.7557 282.702 50.7557ZM239.92 41.2195C213.712 41.2195 188.088 48.9285 163.734 64.1464C136.439 81.1916 111.059 107.207 88.2972 141.472C79.3962 154.871 72.7138 173.935 68.433 198.132C64.0216 223.069 63.4734 246.292 63.5344 257.916C63.7084 289.762 56.4344 318.805 48.7428 349.563C46.0977 360.117 43.3656 371.028 40.9902 382C35.3259 408.077 38.5975 432.239 50.1871 450.042C55.9993 458.96 63.6823 465.921 73.0358 470.741C82.8939 475.822 94.414 478.398 107.265 478.398C108.37 478.398 109.501 478.381 110.624 478.337C164.004 476.519 217.245 466.251 268.728 456.315L271.513 455.776C302.323 449.833 331.958 448.093 360.619 446.405L360.863 446.387L362.716 446.274C390.507 444.638 422.013 442.776 454.546 436.068C463.229 434.275 485.756 428.907 507.36 417.761C528.66 406.772 542.329 393.738 547.994 379.025C554.18 362.954 550.865 345.509 537.57 324.113C532.132 315.369 525.676 306.963 520.055 299.776C519.168 298.637 518.28 297.514 517.401 296.4C512.459 290.118 507.795 284.176 504.184 278.772C481.371 244.656 464.821 198.933 450.221 158.586L450.082 158.204C448.977 155.158 447.889 152.156 446.819 149.198C436.178 119.937 420.908 96.3921 401.426 79.2252C385.8 65.4516 367.458 55.7413 346.924 50.3729C334.69 47.1709 321.848 45.5525 308.735 45.5525C306.273 45.5525 303.776 45.6135 301.331 45.7266C295.249 46.0137 290.359 46.6228 287.331 47.0839C285.6 47.3449 284.277 47.5886 283.468 47.7452C283.216 47.7974 282.998 47.8409 282.815 47.8757C268.407 43.4556 253.98 41.2195 239.92 41.2195Z" fill="white"/>
<path d="M196.261 398.697C242.106 368.079 294.077 363.824 343.933 384.854C359.952 391.606 375.779 398.958 390.553 408.138C445.447 442.246 487.838 529.159 495.095 593.381H94.8516C100.438 518.814 131.848 441.715 196.261 398.697Z" fill="#DBB59C"/>
<path d="M202.74 83.5213C133.301 123.337 95.8618 208.982 122.751 286.412C149.049 362.119 242.082 381.022 312.32 368.385C335.029 364.303 355.904 355.975 373.381 340.431C439.317 281.817 432.599 165.494 370.313 106.854C346.118 84.0783 312.19 67.6908 278.496 75.9324C265.46 79.1351 250.191 56.3074 202.74 83.5213Z" fill="white"/>
<path d="M306.883 211.517C310.86 215.223 316.491 216.008 321.256 213.697C323.364 213.374 325.327 212.057 326.236 209.511C326.253 209.458 326.27 209.397 326.296 209.354C328.558 206.101 329.681 201.81 329.45 197.737C330.718 190.254 330.178 182.405 323.69 178.576C312.694 172.061 303.54 187.271 302.221 196.464C301.424 201.967 302.743 207.636 306.883 211.517Z" fill="#231F20"/>
<path d="M218.46 215.365C225.963 209.775 228.013 199.06 223.949 190.802C223.184 187.483 221.387 184.569 218.113 182.623C213.562 179.921 207.796 180.59 204.305 184.657C200.987 188.531 200.145 194.94 200.014 199.87C199.893 204.818 200.475 211.43 204.131 215.136C208.195 219.257 214.17 218.57 218.46 215.365Z" fill="#231F20"/>
<path d="M303.434 159.854C313.805 159.133 324.09 159.746 334.296 161.89C340.08 163.107 342.473 153.843 336.637 152.626C325.685 150.337 314.586 149.508 303.443 150.283C297.538 150.68 297.503 160.268 303.434 159.854Z" fill="#A9A9A9"/>
<path d="M189.381 158.994C200.801 158.464 212.211 157.934 223.622 157.395C229.447 157.121 229.472 147.732 223.622 148.006L189.381 149.605C183.548 149.887 183.531 159.277 189.381 158.994Z" fill="#A9A9A9"/>
<path d="M329.082 267.179C336.261 269.673 344.076 269.387 351.385 267.638C353.291 267.188 355.153 266.608 356.989 265.967C357.276 265.958 357.555 265.95 357.833 265.941C360.27 265.828 362.141 264.876 363.463 263.482C366.866 262.14 370.634 260.919 373.157 258.192C377.003 254.045 376.603 248.962 374.001 244.988C373.975 242.572 372.696 240.235 369.694 238.858C355.31 232.269 339.377 226.105 323.887 233.074C316.804 236.261 310.339 243.127 312.384 251.447C314.298 259.274 321.808 264.651 329.082 267.179Z" fill="#F8D6D8"/>
<path d="M166.093 268.891C173.023 274.146 181.912 275.728 190.385 274.708C198.555 273.724 207.843 270.763 210.609 262.205C210.852 261.924 211.095 261.642 211.32 261.335C216.168 254.841 213.957 245.185 208.528 239.772C202.041 233.296 192.865 233.34 184.479 234.799C176.084 236.257 164.177 237.162 159.181 245.22C153.891 253.734 159.016 263.523 166.093 268.891Z" fill="#F8D6D8"/>
<path d="M277.611 238.912C269.453 245.768 257.516 246.484 248.446 241.111C244.384 238.705 240.707 245.078 244.76 247.485C256.825 254.643 272.081 253.117 282.773 244.138C286.391 241.085 281.203 235.893 277.611 238.912Z" fill="#F8D6D8"/>
<path d="M295.106 392.917C309 371.995 312.445 338.221 288.339 327.83C272.175 320.861 257.545 326.98 248.183 343.802C226.558 382.664 266.364 436.189 295.106 392.917Z" fill="white"/>
</svg>
