<svg width="30" height="37" viewBox="0 0 30 37" fill="none" xmlns="http://www.w3.org/2000/svg">
<path d="M3.45023 5.46291C3.47624 5.33812 3.50135 5.21565 3.52597 5.0956C3.71917 4.15325 3.88191 3.35948 4.21265 2.75623C4.38273 2.44603 4.57087 2.24349 4.78579 2.11617C4.99619 1.99152 5.30845 1.89357 5.80646 1.91806L5.80867 1.91817C7.81695 2.01248 9.89916 2.93541 11.96 3.84925L11.9606 3.84948C15.9377 5.61036 19.7642 7.79624 23.4849 10.1316L23.486 10.1323C23.6302 10.2225 23.7822 10.3166 23.9403 10.4143C24.8679 10.9881 26.0052 11.6915 26.9967 12.5173C28.197 13.5171 28.9193 14.4867 28.9936 15.3611C29.0574 16.1135 28.623 16.6728 27.5114 17.2919C27.0328 17.5585 26.5064 17.7922 25.9478 18.0402C25.8733 18.0733 25.7982 18.1066 25.7226 18.1403C25.1137 18.4117 24.4471 18.7164 23.9078 19.0831C23.5112 19.3476 22.674 19.9261 22.5388 20.923C22.4491 21.5695 22.7084 22.1509 22.8371 22.4396C22.8435 22.4541 22.8497 22.4678 22.8554 22.4807L22.8561 22.4823C23.1272 23.0924 23.445 23.7274 23.7592 24.3552L23.7986 24.4338C24.1296 25.0955 24.4577 25.7541 24.7512 26.4166C25.3383 27.7414 25.7384 28.9791 25.7473 30.1074C25.7254 30.3568 25.679 30.4541 25.6554 30.4857L25.6535 30.4883C25.6458 30.4986 25.6177 30.5315 25.5323 30.5856C25.4408 30.6436 25.3315 30.6976 25.1626 30.7788C25.1622 30.779 25.1618 30.7792 25.1613 30.7794L20.7255 32.8956L16.287 35.0132L16.2866 35.0134C16.0365 35.1328 15.8489 35.1476 15.6973 35.1244C15.5354 35.0998 15.3416 35.02 15.1095 34.842C14.6199 34.4664 14.1159 33.7762 13.5965 32.851C13.1862 32.1201 12.8104 31.3262 12.4402 30.5443C12.3489 30.3514 12.2579 30.1592 12.1669 29.9689C11.7351 29.0665 11.2632 28.1174 10.7535 27.53L10.7536 27.53L10.7489 27.5247C10.3024 27.0173 9.73309 26.7531 9.14759 26.6466L9.14507 26.6462L1.87253 15.8176L0.880743 15.6897L1.87254 15.8174C1.90796 15.5429 1.94318 15.2686 1.97836 14.9946C2.39196 11.7739 2.80002 8.59641 3.45023 5.46291ZM3.45023 5.46291C3.45021 5.46302 3.45019 5.46312 3.45017 5.46322L2.47121 5.25915L3.45035 5.46233C3.45031 5.46253 3.45027 5.46272 3.45023 5.46291ZM8.9687 27.6305C9.37556 27.7045 9.72695 27.8771 9.99819 28.1853C10.4804 28.7412 10.9791 29.7949 11.5294 30.9576C12.8223 33.6893 14.3999 37.0227 16.7176 35.9157L25.5946 31.6806C25.9152 31.5265 26.2481 31.3662 26.4577 31.0827C26.6549 30.8176 26.7228 30.4785 26.7474 30.1456C26.7474 28.0919 25.6574 25.9138 24.6576 23.9159C24.34 23.2812 24.0315 22.6647 23.7699 22.0762C23.6281 21.7556 23.4802 21.4104 23.5295 21.059C23.5973 20.5535 24.0412 20.196 24.4665 19.9124C24.9752 19.5658 25.6498 19.2665 26.3526 18.9547C28.1623 18.1517 30.1587 17.2659 29.99 15.2766C29.784 12.8504 26.46 10.7959 24.4556 9.55709C24.3007 9.46133 24.1536 9.37044 24.0165 9.28463C20.2746 6.93592 16.4032 4.72283 12.3654 2.93509C12.3346 2.92146 12.3038 2.90779 12.273 2.8941L8.9687 27.6305ZM8.9687 27.6305C8.05266 27.4664 6.84773 27.7986 5.61808 28.1377C3.4301 28.741 1.16384 29.3659 0.307435 27.2544L8.9687 27.6305Z" fill="white" stroke="#1E2A38" stroke-width="2"/>
</svg>
