<svg width="30" height="30" viewBox="0 0 30 30" fill="none" xmlns="http://www.w3.org/2000/svg">
<g clip-path="url(#clip0_152_711)">
<path d="M28.125 7.5H22.5V6C22.5 4.4087 21.7098 2.88258 20.3033 1.75736C18.8968 0.632141 16.9891 0 15 0C13.0109 0 11.1032 0.632141 9.6967 1.75736C8.29018 2.88258 7.5 4.4087 7.5 6V7.5H1.875C1.37772 7.5 0.900806 7.65804 0.549175 7.93934C0.197544 8.22064 0 8.60218 0 9V25.5C0 26.6935 0.592632 27.8381 1.64752 28.682C2.70242 29.5259 4.13316 30 5.625 30H24.375C25.8668 30 27.2976 29.5259 28.3525 28.682C29.4074 27.8381 30 26.6935 30 25.5V9C30 8.60218 29.8025 8.22064 29.4508 7.93934C29.0992 7.65804 28.6223 7.5 28.125 7.5ZM11.25 6C11.25 5.20435 11.6451 4.44129 12.3484 3.87868C13.0516 3.31607 14.0054 3 15 3C15.9946 3 16.9484 3.31607 17.6516 3.87868C18.3549 4.44129 18.75 5.20435 18.75 6V7.5H11.25V6ZM26.25 25.5C26.25 25.8978 26.0525 26.2794 25.7008 26.5607C25.3492 26.842 24.8723 27 24.375 27H5.625C5.12772 27 4.65081 26.842 4.29918 26.5607C3.94754 26.2794 3.75 25.8978 3.75 25.5V10.5H7.5V12C7.5 12.3978 7.69754 12.7794 8.04918 13.0607C8.40081 13.342 8.87772 13.5 9.375 13.5C9.87228 13.5 10.3492 13.342 10.7008 13.0607C11.0525 12.7794 11.25 12.3978 11.25 12V10.5H18.75V12C18.75 12.3978 18.9475 12.7794 19.2992 13.0607C19.6508 13.342 20.1277 13.5 20.625 13.5C21.1223 13.5 21.5992 13.342 21.9508 13.0607C22.3025 12.7794 22.5 12.3978 22.5 12V10.5H26.25V25.5Z" fill="#222222"/>
</g>
<defs>
<clipPath id="clip0_152_711">
<rect width="30" height="30" fill="white"/>
</clipPath>
</defs>
</svg>
