<svg width="41" height="40" viewBox="0 0 41 40" fill="none" xmlns="http://www.w3.org/2000/svg">
<path d="M22.2134 3.33506C23.4296 3.33039 24.6458 3.34261 25.8617 3.37173L26.185 3.38339C26.5584 3.39673 26.9267 3.41339 27.3717 3.43339C29.145 3.51673 30.355 3.79673 31.4167 4.20839C32.5167 4.63173 33.4434 5.20506 34.37 6.13173C35.2173 6.9644 35.8731 7.97164 36.2917 9.08339C36.7034 10.1451 36.9834 11.3567 37.0667 13.1301C37.0867 13.5734 37.1034 13.9434 37.1167 14.3167L37.1267 14.6401C37.1563 15.8554 37.1691 17.0711 37.165 18.2867L37.1667 19.5301V21.7134C37.1708 22.9296 37.158 24.1459 37.1284 25.3617L37.1184 25.6851C37.105 26.0584 37.0884 26.4267 37.0684 26.8717C36.985 28.6451 36.7017 29.8551 36.2917 30.9167C35.8744 32.0297 35.2185 33.0377 34.37 33.8701C33.5366 34.7173 32.5289 35.373 31.4167 35.7917C30.355 36.2034 29.145 36.4834 27.3717 36.5667C26.9267 36.5867 26.5584 36.6034 26.185 36.6167L25.8617 36.6267C24.6458 36.6564 23.4296 36.6691 22.2134 36.6651L20.97 36.6667H18.7884C17.5721 36.6708 16.3559 36.6581 15.14 36.6284L14.8167 36.6184C14.421 36.6041 14.0255 36.5874 13.63 36.5684C11.8567 36.4851 10.6467 36.2017 9.58336 35.7917C8.47117 35.374 7.46376 34.7181 6.63169 33.8701C5.78343 33.0372 5.12707 32.0293 4.70836 30.9167C4.29669 29.8551 4.01669 28.6451 3.93336 26.8717C3.9148 26.4763 3.89813 26.0807 3.88336 25.6851L3.87503 25.3617C3.8443 24.1459 3.83041 22.9296 3.83336 21.7134V18.2867C3.82871 17.0711 3.84093 15.8554 3.87003 14.6401L3.88169 14.3167C3.89503 13.9434 3.91169 13.5734 3.93169 13.1301C4.01503 11.3551 4.29503 10.1467 4.70669 9.08339C5.12565 7.97109 5.7833 6.96413 6.63336 6.13339C7.46485 5.28465 8.47163 4.62768 9.58336 4.20839C10.6467 3.79673 11.855 3.51673 13.63 3.43339L14.8167 3.38339L15.14 3.37506C16.3553 3.34435 17.571 3.33046 18.7867 3.33339L22.2134 3.33506ZM20.5 11.6684C19.3959 11.6528 18.2996 11.8568 17.275 12.2685C16.2504 12.6802 15.3178 13.2915 14.5314 14.0668C13.7451 14.8421 13.1207 15.766 12.6945 16.7847C12.2683 17.8034 12.0488 18.8966 12.0488 20.0009C12.0488 21.1052 12.2683 22.1984 12.6945 23.2171C13.1207 24.2358 13.7451 25.1597 14.5314 25.935C15.3178 26.7103 16.2504 27.3215 17.275 27.7333C18.2996 28.145 19.3959 28.349 20.5 28.3334C22.7102 28.3334 24.8298 27.4554 26.3926 25.8926C27.9554 24.3298 28.8334 22.2102 28.8334 20.0001C28.8334 17.7899 27.9554 15.6703 26.3926 14.1075C24.8298 12.5447 22.7102 11.6684 20.5 11.6684ZM20.5 15.0017C21.1642 14.9895 21.8242 15.1097 22.4414 15.3554C23.0585 15.6011 23.6206 15.9673 24.0947 16.4326C24.5687 16.898 24.9453 17.4531 25.2024 18.0656C25.4595 18.6781 25.592 19.3358 25.5921 20C25.5922 20.6643 25.46 21.322 25.2031 21.9346C24.9462 22.5472 24.5698 23.1025 24.0958 23.568C23.6219 24.0335 23.06 24.3998 22.4429 24.6457C21.8258 24.8916 21.1659 25.0121 20.5017 25.0001C19.1756 25.0001 17.9038 24.4733 16.9662 23.5356C16.0285 22.5979 15.5017 21.3261 15.5017 20.0001C15.5017 18.674 16.0285 17.4022 16.9662 16.4645C17.9038 15.5268 19.1756 15.0001 20.5017 15.0001L20.5 15.0017ZM29.25 9.16839C28.7123 9.18991 28.2038 9.41864 27.831 9.80668C27.4582 10.1947 27.25 10.7119 27.25 11.2501C27.25 11.7882 27.4582 12.3054 27.831 12.6934C28.2038 13.0815 28.7123 13.3102 29.25 13.3317C29.8026 13.3317 30.3325 13.1122 30.7232 12.7215C31.1139 12.3308 31.3334 11.8009 31.3334 11.2484C31.3334 10.6959 31.1139 10.166 30.7232 9.77525C30.3325 9.38455 29.8026 9.16506 29.25 9.16506V9.16839Z" fill="#013A80"/>
</svg>
