<svg xmlns="http://www.w3.org/2000/svg" viewBox="0 0 90.31 65.78"><defs><style>.cls-1{fill:#333;}</style></defs><title>#</title><g id="Layer_2" data-name="Layer 2"><g id="Layer_3" data-name="Layer 3"><path class="cls-1" d="M77,.56a100.19,100.19,0,0,1-9.16,17.88c-.53.81.77,1.57,1.29.76A102.13,102.13,0,0,0,78.44,1c.35-.9-1.1-1.29-1.45-.4Z"/><path class="cls-1" d="M85,.52A55.23,55.23,0,0,1,74.86,18.31c-.62.73.43,1.8,1.06,1.06A57.16,57.16,0,0,0,86.45.91C86.76,0,85.31-.39,85,.52Z"/><path class="cls-1" d="M69.13,6.94q10.19,1.47,20.24,3.61c.94.2,1.34-1.24.4-1.45Q79.71,7,69.53,5.5c-.94-.14-1.35,1.3-.4,1.44Z"/><path class="cls-1" d="M69.64,10.82a81.74,81.74,0,0,0,14.87,5.45.75.75,0,0,0,.39-1.44,80.42,80.42,0,0,1-14.5-5.3c-.87-.42-1.63.87-.76,1.29Z"/><path class="cls-1" d="M1.48,65.25c1.8-6,5.82-11,10.68-14.85a49.42,49.42,0,0,1,8-5.1c3-1.54,6.54-3.42,10-2.81,2.82.49,5.71,3.21,4.05,6.23A2.81,2.81,0,0,1,30.69,50a4.54,4.54,0,0,1-2.86-3.43c-.69-3.16.87-6.64,2.66-9.17a20.89,20.89,0,0,1,6.9-6c7.34-4.13,16.13-3.92,24.24-3,1,.11.95-1.39,0-1.5-8.34-1-17.32-1.08-24.88,3.11a22.65,22.65,0,0,0-7.63,6.77c-2,2.89-3.57,6.82-2.7,10.37.74,3,4.17,5.71,7.3,4.14,2.77-1.39,3.08-5.31,1.33-7.59-2.29-3-6.45-3.17-9.77-2.18A41.73,41.73,0,0,0,15,46.57C8.22,50.93,2.38,57,0,64.86a.75.75,0,0,0,1.44.39Z"/></g></g></svg>