<svg xmlns="http://www.w3.org/2000/svg" viewBox="0 0 384.32 250.39"><defs><style>.cls-1{opacity:0.47;}.cls-2{fill:#faf28a;}.cls-3{fill:#f9c4db;}.cls-4{opacity:0.25;}.cls-5{fill:#89d0f3;}.cls-6{fill:#333;}</style></defs><title>5g</title><g id="Layer_2" data-name="Layer 2"><g id="Layer_4" data-name="Layer 4"><g class="cls-1"><path class="cls-2" d="M57.84,85A43.83,43.83,0,0,0,87.89,72.55c7.37-7.37,12.92-19.46,12.45-30-1-23-18.67-42.5-42.5-42.5A43.81,43.81,0,0,0,27.79,12.45C20.42,19.82,14.87,31.91,15.34,42.5c1,23,18.67,42.5,42.5,42.5Z"/></g><g class="cls-1"><path class="cls-3" d="M341.79,250.39a43.86,43.86,0,0,0,30.06-12.45c7.37-7.37,12.92-19.47,12.44-30.05-1-23-18.67-42.5-42.5-42.5a43.85,43.85,0,0,0-30.05,12.45c-7.37,7.37-12.92,19.46-12.45,30,1,23,18.68,42.5,42.5,42.5Z"/></g><g class="cls-1"><path class="cls-3" d="M29.52,118.37c15.44,0,30.22-13.57,29.5-29.5s-13-29.5-29.5-29.5C14.09,59.37-.69,72.94,0,88.87s13,29.5,29.5,29.5Z"/></g><g class="cls-1"><path class="cls-2" d="M344.22,102.31c20.4,0,39.94-17.93,39-39s-17.13-39-39-39c-20.4,0-39.94,17.94-39,39s17.14,39,39,39Z"/></g><g class="cls-1"><path class="cls-2" d="M48.13,245.72c20.4,0,39.94-17.93,39-39s-17.13-39-39-39c-20.4,0-39.94,17.94-39,39s17.14,39,39,39Z"/></g></g><g id="Layer_3" data-name="Layer 3"><g class="cls-4"><path class="cls-5" d="M166.81,94.22c-.48-.31-.95-.62-1.44-.91-1.38-.85-2.82-1.62-4.28-2.35a4.1,4.1,0,0,1-2.36.24c-9.29-1.77-18.93-2.17-27.91-5.26-2.63-.91-4-4.91-1.7-6.74a3.6,3.6,0,0,1,.2-.35v0a4.54,4.54,0,0,1,.72-1,1.17,1.17,0,0,1,.05-.11,4,4,0,0,1,5.14-1.54L179,74.3a3.46,3.46,0,0,1,2.32-1.51c6.3-1.33,13.64-5.72,17.18-11.21,2.42-3.73.85-7.73.39-11.8-.4-3.56.33-7.05.39-10.61a18.51,18.51,0,0,0-14.44-6.12L141,34.94c-14.57.63-29.28.73-43.81,1.94-10.39.86-20.14,4.42-25.75,13.89C67,58.42,66.48,68,66.11,76.69a127.3,127.3,0,0,0,6.37,44.79c2.21,6.69,6.53,11.08,11.82,13.17a24.83,24.83,0,0,0-12,10.34c-4.4,7.46-4.46,15.84-3,24.09,2,10.82,7.77,20.57,14.86,28.82a60.83,60.83,0,0,0,12.53,11c7,.7,13.25,4.19,20.16,5.57,8.48,1.69,17-1.77,25.21-3.5a3.81,3.81,0,0,1,3.54,1c8-2.68,15.75-6.05,23.66-9q2.1-1.22,4.28-2.3c.38-.45.76-.89,1.13-1.35,20.58-14,33.37-40.09,29.19-65.27C200.64,114.22,184.9,100.74,166.81,94.22ZM145.94,129.5l.23.13c.28.23.57.46.75.59a2.23,2.23,0,0,1-1.49-1Zm-2.7.74c-.58-.07-2.7-.29-2.69-.31A6.86,6.86,0,0,1,143.24,130.24ZM119.5,174.73l-.23-.14a4.25,4.25,0,0,0-.64-.33C119.61,174.58,119.74,174.78,119.5,174.73Zm21.1-.5c-7.9.59-15.23-3.81-20.08-9.82-3.71-4.6-4-9.54-3.36-14.78-.75-1.69-1.35-3-1.26-2.87a27.14,27.14,0,0,0-14.37-12.61l1.07-.42,3.39-1.5,1.41-.6c1.65-.67,3.29-1.33,5-1.94q4-1.49,8.11-2.66a125.51,125.51,0,0,0,18.1,2.79c1.11.11,2.22.23,3.34.33l1.44.12c1.77.37,3.78.89,4.09,1l.77.2c.91.91,1.76,1.86,2.66,2.79.71,1.12,1.83,2.91,1.87,3,.32.58.6,1.19.91,1.78.43,1.71,1,3.42,1.46,5.14a3.82,3.82,0,0,1,1.32,2.73C157.18,158.36,154.69,173.18,140.6,174.23ZM162,153.32l-.06.1a2.43,2.43,0,0,1,.73-1.95A16.35,16.35,0,0,0,162,153.32Z"/><path class="cls-5" d="M163.87,141.73c.19,1.44.16,2.66,0,0Z"/><path class="cls-5" d="M150.65,133.87c-.23-.26-.39-.48-.35-.52Z"/><path class="cls-5" d="M140.87,126.71h0a1,1,0,0,0,.15.1Z"/></g><g class="cls-4"><path class="cls-5" d="M337,150.46c1.43-4,4-11.2,1.05-15-2.33-3-8.18-3.2-11.65-3.81-2.94-.51-3.76-4.67-1.74-6.58,3.55-3.34,5.4-7.87,8.28-11.74a4.56,4.56,0,0,1,.71-.74c2.09-10.88-1-21.74-8.51-30.8-7-8.46-18.34-13.75-29-15.61-44-7.63-86.86,26.66-100.59,67a65.82,65.82,0,0,0,10.87,62.51c9.34,11.81,22.84,17.93,37,19a23.19,23.19,0,0,0,5.32,2.44c22.08,7,43.19-6.66,58.9-20.85A125.52,125.52,0,0,0,338,154.34,3.24,3.24,0,0,1,337,150.46ZM270.32,108.3l-1.64.76C268.69,108.89,269.39,108.6,270.32,108.3Zm-10.61,45.25a3.43,3.43,0,0,0,.78.19A1.19,1.19,0,0,1,259.71,153.55ZM284,131.94a3.23,3.23,0,0,1-1.14,2.74,44.81,44.81,0,0,1-11.38,6.42c-2.52,3.4-6.37,2.11-8.56,5.92l-.19.34-.18.19.11-.06v0l-.12.06-.11.13-.15.13-.23.06.4-.27-.07,0-.45.26c-.61.17.77,5.34.16,5.52H262c-.39,0-1.21-.11-1.87-.12l-.67-.16-.59-.12c-.61-.42-1.21-.89-1.5-1-.7-.74-1.42-1.5-2.16-2.2-.53-.88-1.11-1.73-1.6-2.63a1.69,1.69,0,0,1-.11-.23c0-.59,0-1.17-.06-1.68a81.09,81.09,0,0,1,.11-10.34c0-.52.05-1.13.06-1.68a2.44,2.44,0,0,0,0,.27,22.57,22.57,0,0,1,1-5.08,83.38,83.38,0,0,1,3.57-11.52,14.86,14.86,0,0,0,.64-2.13c.52-.36,1.05-.72,1.59-1.06q3-1.91,6.11-3.53c.93-.48,1.87-.92,2.8-1.38l1.13-.54c1.14-.37-7.39.23-6.38,0-.13,2.13,10,3.25,10.33,5.33a4,4,0,0,1,.84.36c5.38,3,7.93,9.76,9.09,15.5A3.93,3.93,0,0,1,284,131.94Z"/><path class="cls-5" d="M262.94,147.35l0,0C263.4,147.06,263.58,147,262.94,147.35Z"/><path class="cls-5" d="M263.5,153.4c.06,0-1.86-5-1.78-5.05-.08.08,1.84,5.15,1.75,5.23S263.45,153.48,263.5,153.4Z"/></g></g><g id="Layer_2-2" data-name="Layer 2"><path class="cls-6" d="M67.28,52.21l41.43-.16,41.55-.16,23.33-.09a.5.5,0,0,0,0-1L132.16,51l-41.54.16-23.34.09a.5.5,0,0,0,0,1Z"/><path class="cls-6" d="M174.05,51.4V75.45a.5.5,0,0,0,1,0V51.4a.5.5,0,0,0-1,0Z"/><path class="cls-6" d="M98.07,77.87c9.93,0,19.86-.16,29.79-.37s20-.44,30-.59q8.35-.12,16.71-.13a.5.5,0,0,0,0-1c-9.93,0-19.86.16-29.78.37s-20,.44-30,.59q-8.36.12-16.71.13a.5.5,0,0,0,0,1Z"/><path class="cls-6" d="M97,77.37l-.58,26c0,.64,1,.64,1,0l.58-26c0-.64-1-.64-1,0Z"/><path class="cls-6" d="M66.23,144.28c-.34,10.08.25,20.32,2.87,30.09a55.72,55.72,0,0,0,11.44,22.25,54.42,54.42,0,0,0,21.18,14.55,63,63,0,0,0,34.44,3.18,54.43,54.43,0,0,0,27.9-13.95,62,62,0,0,0,15-23.75,73.09,73.09,0,0,0,4.27-28.11c-.48-10.19-3.15-20.44-9.07-28.87a40.07,40.07,0,0,0-12.18-11.44,61.75,61.75,0,0,0-17.45-6.56,92.31,92.31,0,0,0-38.76-1.24,74.85,74.85,0,0,0-9.09,2.35c-.61.2-.35,1.16.27,1a84.65,84.65,0,0,1,38.05-2.87,92,92,0,0,1,18.22,4.38,41.9,41.9,0,0,1,15.22,9.2c7.55,7.38,11.68,17.4,13.18,27.73a70.94,70.94,0,0,1-1.62,27.75,65.26,65.26,0,0,1-12.36,25,50.46,50.46,0,0,1-24.06,16.49,62.23,62.23,0,0,1-34.09,1.24,56.41,56.41,0,0,1-24.43-12.7,50.71,50.71,0,0,1-13.32-20.17c-3.25-8.83-4.48-18.29-4.68-27.66q-.09-3.9,0-7.82a.5.5,0,0,0-1,0Z"/><path class="cls-6" d="M66.81,144.65A249.53,249.53,0,0,1,94.1,156.86c.57.3,1.08-.57.51-.87a253.18,253.18,0,0,0-27.54-12.31c-.6-.22-.86.74-.26,1Z"/><path class="cls-6" d="M94.19,156.69c-.88,9.58,7.07,17.65,14.55,22.35a32.84,32.84,0,0,0,13.35,5,29.82,29.82,0,0,0,12.42-1.11,31.51,31.51,0,0,0,11.1-6,30.94,30.94,0,0,0,8.13-11,32.24,32.24,0,0,0,3.31-14.48A22.54,22.54,0,0,0,154.6,142c-3-5.82-8.45-10-14.36-12.54a44.26,44.26,0,0,0-19.74-3.52,36.43,36.43,0,0,0-10.87,2.19A42.78,42.78,0,0,0,97.93,135c-.91.73-1.8,1.49-2.67,2.26-.43.38-.85.77-1.27,1.16-.6.55-1.11,1.14-2,.83a10,10,0,0,1-1.73-.94c-.58-.34-1.15-.69-1.72-1.05-1.1-.7-2.19-1.43-3.26-2.18-4.35-3-8.47-6.39-12.91-9.31-2-1.33-4.15-2.75-4.82-5.21a15.21,15.21,0,0,1-.33-3.92c0-1.45,0-2.89,0-4.34V51.4a.5.5,0,0,0-1,0l0,34.38v29.93a30.07,30.07,0,0,0,.14,3.91,8.18,8.18,0,0,0,3.42,5.55c2,1.51,4.1,2.79,6.1,4.24,4.2,3,8.25,6.29,12.66,9a14.86,14.86,0,0,0,3.29,1.8c1.23.38,2-.34,2.87-1.12a67,67,0,0,1,5.32-4.48,38.78,38.78,0,0,1,12.1-6.28,40.48,40.48,0,0,1,20-.45c6.36,1.39,12.65,4.18,17.32,8.81a22.31,22.31,0,0,1,5.18,7.78A22.67,22.67,0,0,1,156,154.72a35,35,0,0,1-5.42,15.05,28.43,28.43,0,0,1-9.1,8.93,29.57,29.57,0,0,1-24.55,3.12,37.62,37.62,0,0,1-12.75-7.43c-3.48-3-6.61-6.75-8.12-11.14a15.74,15.74,0,0,1-.83-6.56c.06-.65-.94-.64-1,0Z"/><path class="cls-6" d="M316,134.45c1.89-7.59.17-15.39-3-22.38A72.75,72.75,0,0,0,300.7,93.35,49.4,49.4,0,0,0,292.41,86a48,48,0,0,0-10-5.28,66.34,66.34,0,0,0-38.54-3,64.89,64.89,0,0,0-18.09,7A63.63,63.63,0,0,0,210.2,97.22,75.69,75.69,0,0,0,198.28,115a86,86,0,0,0-6.81,20.3A80.63,80.63,0,0,0,190,156.75a66,66,0,0,0,4.69,20.73,56.43,56.43,0,0,0,10.51,16.57,60.3,60.3,0,0,0,13.55,11,67.61,67.61,0,0,0,16,6.9,75.75,75.75,0,0,0,17.37,2.84,77.45,77.45,0,0,0,17.6-1.2,72.35,72.35,0,0,0,16.72-5.18,51.54,51.54,0,0,0,16.72-11.91,49,49,0,0,0,10.56-17.57c2.21-6.56,3.06-13.48,3.56-20.35.27-3.63.44-7.27.63-10.9,0-.64-1-.64-1,0-.37,7.13-.63,14.3-1.81,21.35a52.23,52.23,0,0,1-6.56,18.73,50.21,50.21,0,0,1-14.09,15,59.3,59.3,0,0,1-16.71,7.85,74.8,74.8,0,0,1-17,3.08,76.31,76.31,0,0,1-17.28-.81,71.19,71.19,0,0,1-16.5-4.76,63,63,0,0,1-14.65-8.73,56.87,56.87,0,0,1-11.8-12.92,58.13,58.13,0,0,1-8.05-19.28,72.89,72.89,0,0,1-1.48-21,84.16,84.16,0,0,1,4.12-20.71,80.42,80.42,0,0,1,9.17-19A67.69,67.69,0,0,1,218,91.16a62.11,62.11,0,0,1,16.64-9.62,64.43,64.43,0,0,1,18.53-4.19,65.2,65.2,0,0,1,19.1,1.35,55.3,55.3,0,0,1,19.14,7.86,56.25,56.25,0,0,1,15.08,16c4.08,6.23,7.67,13.08,8.88,20.5a27.82,27.82,0,0,1-.38,11.13c-.15.62.81.89,1,.26Z"/><path class="cls-6" d="M314.84,133.82H284.76a.5.5,0,0,0,0,1h30.08a.5.5,0,0,0,0-1Z"/><path class="cls-6" d="M284.66,134.54a20.42,20.42,0,0,0-4.19-16.34,23.22,23.22,0,0,0-14.86-8.87,29.67,29.67,0,0,0-18.49,3.56,38.29,38.29,0,0,0-13.46,12.86c-6.79,10.34-9.72,24-5.07,35.77,4.49,11.39,15.66,19.12,27.44,21.37a26.57,26.57,0,0,0,15.6-1.26,23.46,23.46,0,0,0,11-10.55,35.5,35.5,0,0,0,1.8-3.85.52.52,0,0,0-.49-.64H261.7a.5.5,0,0,0,0,1H284l-.48-.63c-1.92,4.82-4.93,9.32-9.33,12.19A22.77,22.77,0,0,1,260,182.43c-11.36-.84-22.81-7.37-28.57-17.32-6.16-10.63-4.83-24,.61-34.59a41.15,41.15,0,0,1,11.32-14,30.9,30.9,0,0,1,16.95-6.46,22.68,22.68,0,0,1,16.33,5.49A21.21,21.21,0,0,1,284,130.22a17.19,17.19,0,0,1-.33,4.05c-.13.63.84.9,1,.27Z"/><path class="cls-6" d="M262.05,166.69c-.36-6.55-.85-13.1-.64-19.66a.5.5,0,0,0-1,0c-.21,6.56.28,13.11.64,19.66,0,.64,1,.64,1,0Z"/><path class="cls-6" d="M260.91,147.53a276.14,276.14,0,0,1,43.71-.52c4.26.3,8.53.69,12.78,1.16.64.07.63-.93,0-1a278.32,278.32,0,0,0-43.68-1.52q-6.42.3-12.81.88c-.64.05-.64,1.05,0,1Z"/><path class="cls-6" d="M67.11,52.24q11.72-8.3,24-15.79c.55-.33,0-1.2-.5-.86q-12.26,7.5-24,15.79c-.52.36,0,1.23.51.86Z"/><path class="cls-6" d="M90.89,36.42c14-.85,27.93-.67,41.89-.4s28,.65,42,.26c7.8-.21,15.59-.67,23.35-1.54.63-.07.64-1.07,0-1a349.15,349.15,0,0,1-41.79,1.68c-14-.12-28-.62-42.05-.62-7.81,0-15.63.14-23.43.62-.64,0-.64,1,0,1Z"/><path class="cls-6" d="M174.59,52.41c5.53-5.52,12.35-9.42,18.71-13.88,1.78-1.25,3.53-2.55,5.21-3.93.5-.41-.21-1.12-.71-.71-6,4.94-12.85,8.69-19,13.47a55.09,55.09,0,0,0-5,4.34.5.5,0,0,0,.71.71Z"/><path class="cls-6" d="M197.69,35.24q.24,12,.49,24.07a.5.5,0,0,0,1,0q-.24-12-.49-24.07c0-.64-1-.65-1,0Z"/><path class="cls-6" d="M175,76.71c3.11-2.39,6.6-4.09,9.91-6.15a104.06,104.06,0,0,0,9.42-6.74A62.42,62.42,0,0,0,199,59.67c.46-.45-.25-1.16-.71-.71A82.31,82.31,0,0,1,187,68c-4.09,2.78-8.61,4.85-12.54,7.85-.5.39,0,1.26.51.87Z"/><path class="cls-6" d="M97.15,103.3q7.69-4.69,15.68-8.89,3.93-2.07,7.94-4c1.32-.64,2.64-1.26,4-1.88,1.09-.5,2.45-.93,3.13-2s.48-2.89.47-4.22l0-5.43a.5.5,0,0,0-1,0l0,4.44,0,2.22a7,7,0,0,1-.13,2c-.38,1.25-2,1.69-3.09,2.18-1.29.6-2.58,1.21-3.86,1.83q-7.74,3.74-15.24,8-4.25,2.38-8.39,4.93c-.54.33,0,1.2.51.86Z"/><path class="cls-6" d="M127,87.79a112.62,112.62,0,0,1,32.27,3.87,111.25,111.25,0,0,1,15.47,5.43c4.77,2.09,9.6,4.42,13.62,7.78s7.94,8.46,8.24,14.09c0,.64,1,.64,1,0-.27-5-3.14-9.55-6.62-13-3.75-3.75-8.47-6.33-13.24-8.55A113,113,0,0,0,127,86.79a.5.5,0,0,0,0,1Z"/><path class="cls-6" d="M147.75,211c8.27-3.14,16.61-6.18,24.38-10.43,6.63-3.62,13.17-8,18.12-13.79,2.7-3.13,5.77-7.24,4.58-11.62a.5.5,0,0,0-1,.27c1,3.89-1.76,7.61-4.13,10.42a48.83,48.83,0,0,1-8.16,7.51,96.15,96.15,0,0,1-20.7,11.45c-4.42,1.86-8.91,3.52-13.39,5.22-.6.23-.34,1.2.26,1Z"/><path class="cls-6" d="M67,144.43l15.79-10.09c.54-.34,0-1.21-.5-.86L66.47,143.56c-.55.35,0,1.22.5.87Z"/><path class="cls-6" d="M95.55,156.37a166.32,166.32,0,0,1,15-9.79c1.29-.74,2.58-1.46,3.89-2.17.89-.48,2.32-1,2.31-2.23s-1.32-1.92-2.13-2.53q-1.74-1.34-3.56-2.58a89.26,89.26,0,0,0-8.5-5.14c-.56-.31-1.07.56-.5.86,2.38,1.27,4.71,2.64,7,4.12,1.16.76,2.3,1.54,3.43,2.36.5.36,1,.73,1.48,1.1a9.35,9.35,0,0,1,1.54,1.25c.48.57.17,1-.39,1.31s-1.25.67-1.87,1c-1.16.64-2.32,1.29-3.47,1.95q-3.54,2.06-7,4.29-3.93,2.55-7.71,5.32c-.52.38,0,1.25.5.87Z"/><path class="cls-6" d="M115.57,142.82c.32,4-.26,8,0,12a18.78,18.78,0,0,0,1.21,5.69,20.32,20.32,0,0,0,2.82,4.77,24.75,24.75,0,0,0,17.9,9.74,22.25,22.25,0,0,0,12-2.67c.56-.31.06-1.18-.51-.87a21.81,21.81,0,0,1-20.34.1,24.8,24.8,0,0,1-7.57-6,18,18,0,0,1-4.46-10.05c-.41-4.23.27-8.48-.07-12.71,0-.64-1-.65-1,0Z"/><path class="cls-6" d="M217.11,91.78c7.95-6.69,16.28-13,25.43-18s19.27-8.57,29.73-9.44c10.68-.89,21.35,1.53,31.28,5.38,7.72,3,14.09,8.59,18.86,15.28a77.35,77.35,0,0,1,10.53,22.26c.29,1,.57,1.91.84,2.87a.5.5,0,0,0,1-.27,84.62,84.62,0,0,0-9.93-23.07c-4.48-7-10.46-13-18-16.71a54.71,54.71,0,0,0-6.54-2.56c-2.62-.88-5.26-1.69-7.93-2.36a62,62,0,0,0-16-2c-10.69.14-21.18,3.23-30.73,7.91S227.57,81.9,219.44,88.55l-3,2.52c-.49.42.22,1.12.71.71Z"/><path class="cls-6" d="M333.65,109.78a75.38,75.38,0,0,1-13.75,19.75,58.69,58.69,0,0,1-4.75,4.44c-.5.41.21,1.11.71.7a72.9,72.9,0,0,0,15.52-18.56c1.13-1.89,2.19-3.83,3.13-5.82.27-.58-.59-1.09-.86-.51Z"/><path class="cls-6" d="M264.23,109.94c-5.86,3-8.65,9.4-10.33,15.4a61.45,61.45,0,0,0-2.25,11.95,29.31,29.31,0,0,0,.13,6.14,16.89,16.89,0,0,0,1.56,4.9A26.1,26.1,0,0,0,261,157.6c.51.4,1-.47.51-.86a25.4,25.4,0,0,1-6.69-7.82,17.59,17.59,0,0,1-1.83-4.68,22.68,22.68,0,0,1-.36-5.76,55.66,55.66,0,0,1,2-11.73,39.28,39.28,0,0,1,3.22-8.73,16.57,16.57,0,0,1,7-7.22c.57-.28.07-1.15-.51-.86Z"/><path class="cls-6" d="M261.12,147.64q11.36-6.58,23.09-12.47c.58-.29.07-1.15-.5-.86q-11.74,5.88-23.1,12.47a.5.5,0,0,0,.51.86Z"/><path class="cls-6" d="M319.55,132a.5.5,0,0,0,0-1,.5.5,0,0,0,0,1Z"/><path class="cls-6" d="M319.15,131.81a97.34,97.34,0,0,1,19.21,2.89l-.11-.91q-10.41,7.25-20.95,14.3c-.53.36,0,1.22.51.86q10.53-7,20.94-14.3a.5.5,0,0,0-.12-.91,99.45,99.45,0,0,0-19.48-2.93c-.64,0-.64,1,0,1Z"/><path class="cls-6" d="M338.88,134.77c-.92,12.3-1.94,25.19-7.6,36.37s-15.91,19-26.29,25.45c-6,3.69-12.14,7-18.19,10.55a.5.5,0,0,0,.51.87c10.83-6.35,22.21-12,31.76-20.32a54.84,54.84,0,0,0,12.14-14.28,59.44,59.44,0,0,0,6.15-17.52,170.21,170.21,0,0,0,2.52-21.12c.05-.64-.95-.64-1,0Z"/></g></g></svg>