<svg xmlns="http://www.w3.org/2000/svg" viewBox="0 0 43.21 112.41"><defs><style>.cls-1{opacity:0.31;}.cls-2{fill:#31ad4a;}.cls-3{fill:#333;}</style></defs><title>Asset 1</title><g id="Layer_2" data-name="Layer 2"><g id="Layer_2-2" data-name="Layer 2"><g class="cls-1"><path class="cls-2" d="M19.55,60.9c-1-2.4-2.09-4.79-3.12-7.19a22.23,22.23,0,0,0-1.32-3.42c.3.45-1.8,1.68.38.19a12.69,12.69,0,0,0,5-6.83c.69-2.39-.11-4.88.37-7.18.37-1.73,1.94-2.64,3.16-4.1a26.79,26.79,0,0,0,3.72-6c1.05-2.28,3-10,6.16-10.21,9.61-.5,9.66-15.5,0-15-7.47.38-13.09,4.9-16.44,11.46-1.56,3-2.36,6.66-4.38,9.46S8.33,26.6,7,29.89a15.62,15.62,0,0,0-1.09,5.82c0,.43.16,4.48.87,2.69-.33.83-3,2.34-3.7,3.09A12.19,12.19,0,0,0,.37,46.73C-1.44,54,3.8,62,6.59,68.47c1.63,3.75,7.05,4.52,10.27,2.69,3.86-2.2,4.29-6.56,2.69-10.26Z"/></g><path class="cls-3" d="M10.4,111.69c.75-10.45,1.47-20.9,2.28-31.34.79-10.22,1.76-20.44,3.47-30.55C17,44.88,18,40,19.23,35.14a88.59,88.59,0,0,1,4.12-12.85,35.33,35.33,0,0,1,6.47-10.44c2.23-2.39,6.92-6.89,10-3.39,2.83,3.18,2,8.48.8,12.14A23.48,23.48,0,0,1,32.7,32a.75.75,0,0,0,.53,1.28c1.94-.09,2.74,2,2.88,3.61.19,2.38-1.07,4.42-1.89,6.58a7.94,7.94,0,0,0,.05,6.77,7.77,7.77,0,0,1,1.29,3.42,6.54,6.54,0,0,1-1.34,3.63,30.44,30.44,0,0,1-5.39,5.43,30.12,30.12,0,0,1-6.7,4.66c-4.52,2.18-10.24,2.25-13.81-1.7a23.9,23.9,0,0,1-3.9-6.46,26,26,0,0,1-2-6.72,14.78,14.78,0,0,1,.46-6.93,10.38,10.38,0,0,1,1.37-2.72C5,41.84,5.94,41,6.7,40c1.65-2.26,1.15-4.72.87-7.31a8.76,8.76,0,0,1,1.94-6.52,52.37,52.37,0,0,0,4.3-5.88c1.23-2.28,2.07-4.74,3.4-7a24.85,24.85,0,0,1,11.65-10,23.31,23.31,0,0,1,7.63-1.8c1.2-.07,3-.11,3.78,1,.47.62.44,2.17-.57,2.2a.75.75,0,0,0,0,1.5c2-.06,2.87-2.45,2.07-4.1-1.1-2.3-4.27-2.21-6.39-2a26.37,26.37,0,0,0-14,6.07,25.31,25.31,0,0,0-5.07,5.76c-1.62,2.53-2.54,5.39-4,8-1.35,2.38-3.4,4.26-4.83,6.58a9.28,9.28,0,0,0-1.35,3.42,15,15,0,0,0,.19,4.33,6.56,6.56,0,0,1-.54,4.45C5,39.89,3.92,40.8,3.1,41.91A13.16,13.16,0,0,0,.74,48.84C.4,54.11,2.46,59.48,5.16,63.91a13.13,13.13,0,0,0,5.92,5.62,13.32,13.32,0,0,0,7.8.58c5.65-1.17,10.44-5.43,14.41-9.4,1.85-1.85,3.79-4.25,3.77-7A7.62,7.62,0,0,0,35.85,50a5.78,5.78,0,0,1-.75-4.33c.6-2.62,2.32-4.92,2.51-7.64a6.6,6.6,0,0,0-1.87-5.43,3.62,3.62,0,0,0-2.51-.82l.53,1.29a25.12,25.12,0,0,0,7.75-10.46c1.44-3.64,2.32-8,1.19-11.86A7.83,7.83,0,0,0,40,6.55a5.36,5.36,0,0,0-5.38-.29c-3.86,1.74-7,5.49-9.23,9a51.58,51.58,0,0,0-5.4,12,140.88,140.88,0,0,0-3.89,15,274.43,274.43,0,0,0-4.37,32.06C10.59,86.74,9.8,99.22,8.9,111.69c-.07,1,1.43,1,1.5,0Z"/></g></g></svg>