<svg xmlns="http://www.w3.org/2000/svg" viewBox="0 0 285.12 583.68"><defs><style>.cls-1{opacity:0.25;}.cls-2{fill:#6a3815;}.cls-3{fill:#333;}</style></defs><title>이젤_2</title><g id="Layer_2" data-name="Layer 2"><g id="Layer_9" data-name="Layer 9"><g class="cls-1"><path class="cls-2" d="M103.61,94.26q47,1.15,94-1.65c7-.42,7.08-11.42,0-11q-46.93,2.81-94,1.65c-7.08-.18-7.07,10.83,0,11Z" transform="translate(0)"/></g><g class="cls-1"><path class="cls-2" d="M112.52,82.87a35.54,35.54,0,0,1,6.34-.68l-.4-3-2,.6a1.5,1.5,0,0,0,.4,2.94c1.6,0,3.6.28,5.1-.38a2.82,2.82,0,0,0,1.67-3.24c-.49-1.83-2.2-1.48-3.66-1.32l-2.87.31-1.43.15c-.45,0-.87-.13-1,.4l-3-.4-.1.81c-.22,1.66,2.63,2,2.94.4a76.67,76.67,0,0,1,6.68-20.05c.71-1.42-1.2-3.21-2.35-1.81a27.93,27.93,0,0,0-3.49,5.26l2.74,1.16a61.16,61.16,0,0,1,2.93-6.24c.91-1.7-1.63-3.2-2.59-1.52l-.79,1.39,2.74.36c-.28-1.29.46-2.56,1-3.69a13.27,13.27,0,0,0,1.3-4,1.51,1.51,0,0,0-2.26-1.3,2.94,2.94,0,0,0-1.39,2.63,1.52,1.52,0,0,0,1.5,1.5,2,2,0,0,0,1.76-3.06,1.51,1.51,0,0,0-2.35-.3,6.27,6.27,0,0,0-1.35,2.28l2.9.8a1.19,1.19,0,0,1,1.15-.95,1.52,1.52,0,0,0,.76-2.8,2.87,2.87,0,0,0-1.61-.53v3l3.37-.21,1.44-.09,1-.06c.6,0,.64,0,.13-.13l-.69-.9a6.86,6.86,0,0,1-.39,1.58l-.45,2-1,4.57-2,8.9-2,8.66a9.29,9.29,0,0,0-.51,2.08l-.12.24.37-.12a4.39,4.39,0,0,0-.18-1c-.17-1.47-.3-3-.45-4.43-.12-1.19-1.61-2.11-2.56-1.06a48.87,48.87,0,0,0-4.52,5.81c-1.08,1.63,1.49,3.07,2.59,1.51a6.82,6.82,0,0,1,3.87-2.62L118,74.12c-.56,1.1-1.55,2.36-1.24,3.64a1.45,1.45,0,0,0,1,1,1.75,1.75,0,0,0,1.66-.45,1.56,1.56,0,0,0,.24-1.82l0-.08a1.51,1.51,0,0,0-2.35-.3l-1.83,1.61c-1.3,1.15.36,3.18,1.82,2.36a14.13,14.13,0,0,0,3.8-3.13c1.24-1.45-.71-3.48-2.12-2.12l-1.52,1.47,2.36,1.82,3-4.43c.71-1-.28-2.13-1.3-2.26a2.32,2.32,0,0,0-2.26,1.2l2.75,1.16,1.42-4.8A1.51,1.51,0,0,0,121,67.58l-5.93,6.59,2.51,1.45,3.12-8.83c.61-1.71-1.81-2.44-2.74-1.16l-2.55,3.54,2.75,1.15,3.57-10.2c.64-1.83-2.23-2.58-2.9-.79-.84,2.25-1.57,4.53-2.19,6.86-.5,1.9,2.21,2.56,2.9.79,1.71-4.41,3.38-8.84,4.66-13.4l-2.89-.8-3.28,13a1.5,1.5,0,0,0,2.89.79l4.3-11.9-2.74.35c.17.38-.45,2.19-.57,2.75l-.68,3.11-1.4,6.47a1.5,1.5,0,0,0,2.89.8,122.8,122.8,0,0,0,3.84-15.48c.37-1.87-2.43-2.69-2.89-.79L123,54.56a1.51,1.51,0,0,0,2.74,1.15l.84-1.31a1.5,1.5,0,0,0-.89-2.2l-1.53.57.44-1.06-.16.13,1.16-.16-.3,0,.66,2.51a.81.81,0,0,1,.89-.38l-1.3-2.26a63.22,63.22,0,0,0-4,12.05c-.32,1.44-1.41,4.21-.16,5.43,1.61,1.56,3.36-.73,3.79-2.15a1.51,1.51,0,0,0-2.51-1.46c-2.89,3.06-1.94,7.1-2,10.9a1.5,1.5,0,0,0,3,0c0-2.77-1-6.52,1.09-8.77l-2.5-1.46c-.23.3-.17.43.16.38l1.3.74c.19.34.14-.12.19-.3s.11-.61.17-.91c.12-.61.24-1.22.38-1.83.29-1.29.63-2.56,1-3.83A60.32,60.32,0,0,1,128.15,53a1.52,1.52,0,0,0-1.29-2.26,3.57,3.57,0,0,0-3,1.26c-.64.75-.55,2.33.66,2.5a2.1,2.1,0,0,0,2.66-1.76,2,2,0,0,0-2.06-2.24c-2.92,0-2.77,4-.21,4.56l-.9-2.2-.84,1.31,2.74,1.15.66-2.69-2.89-.79a124.39,124.39,0,0,1-3.84,15.47l2.89.8,1.66-7.67c.28-1.28.57-2.55.84-3.83a4.52,4.52,0,0,0-.15-3.14c-.6-1.27-2.35-.74-2.74.36L118,65.77l2.89.79,3.28-13a1.5,1.5,0,0,0-2.89-.8c-1.28,4.56-3,9-4.67,13.41l2.9.79c.62-2.32,1.35-4.6,2.19-6.86l-2.9-.79-3.57,10.19c-.6,1.72,1.82,2.45,2.74,1.16l2.55-3.53L117.81,66l-3.13,8.84a1.51,1.51,0,0,0,2.51,1.46l5.93-6.59-2.51-1.46L119.19,73a1.51,1.51,0,0,0,2.74,1.16l-.33.28-1.29-2.25-3,4.42c-1,1.44,1.16,3,2.35,1.82L121.15,77,119,74.88a11.65,11.65,0,0,1-3.2,2.65l1.82,2.36,1.83-1.61-2.36-.3,0,.08.23-1.82-.09.08,1.46-.38-.12,0,1,1c.15.62.23.07.41-.29l.53-1.05a1.52,1.52,0,0,0-1.7-2.2,10,10,0,0,0-5.66,4l2.59,1.51a44.21,44.21,0,0,1,4-5.2l-2.56-1.06.38,3.73a9.26,9.26,0,0,0,.5,2.87,2.77,2.77,0,0,0,4.34,1.25c1.46-1.29,1.6-4,2-5.72l1.63-7.22q1.64-7.17,3.25-14.33c.34-1.49,1.55-4.37-.69-5a10.21,10.21,0,0,0-3,.09l-3.85.24a1.5,1.5,0,0,0,0,3l.1.13.75-2.8a4.26,4.26,0,0,0-4,3.15c-.52,1.88,2.27,2.6,2.9.8a2.61,2.61,0,0,1,.57-1l-2.36-.31.83-1.45,1.5,1.5-.1,0-2.25-1.29c-.19,1.47-1.1,2.82-1.66,4.16a7,7,0,0,0-.53,4.34,1.51,1.51,0,0,0,2.74.36l.79-1.39-2.59-1.52a68.59,68.59,0,0,0-3.23,7c-.64,1.57,2,2.66,2.74,1.15a24.87,24.87,0,0,1,3-4.65L118.7,58a79.26,79.26,0,0,0-7,20.76l3,.4.1-.81c.22-1.67-2.63-2-2.94-.4-.41,2.1,1.18,3.47,3.2,3.45,2.27,0,4.62-.48,6.87-.72l-1.06-.44c-.28-.28,0-.34-.4-.47a5.73,5.73,0,0,0-1.1,0l-2.46,0,.4,3,2-.6a1.5,1.5,0,0,0-.39-2.94,41.71,41.71,0,0,0-7.14.78c-1.89.38-1.09,3.27.8,2.9Z" transform="translate(0)"/></g><g class="cls-1"><path class="cls-2" d="M152.68,10l1.88.79-1.2-9.14c-6,3.77-6.08,10.4-6.43,16.82L145.35,47c-.47,8.55-2,17.91-1.31,26.44.25,2.9,1.14,5.78,3.59,7.56a8,8,0,0,0,4.06,1.47c1.21.08,3.76-1.23,4.7-.84,2.91,1.19,6.55-1.84,6.33-4.82-.8-11.08-1.66-22.16-2.37-33.24s-2.18-22.62.26-33.42l-9.82-1.33c.2,8.22.29,16.44.22,24.66q0,5.92-.19,11.84c-.1,4,.35,8.81-1.06,12.6-2.25,6,7.41,8.65,9.64,2.66,2.74-7.39,1.51-17.34,1.6-25.12q.13-13.32-.21-26.64c-.14-5.46-8.54-7-9.82-1.33-2.53,11.2-1.44,22.83-.74,34.18.72,11.72,1.64,23.43,2.49,35.14L159.05,72c-2.43-1-3.8.3-6.13.17l1.06.66c0-.75,0-1.49.06-2.23.07-1.64.18-3.27.28-4.91L155.4,46l1-18.67.54-9.83c.09-1.59-.28-6.14,1.43-7.21,4-2.48,2.67-7.53-1.19-9.14L155.34.4c-5.93-2.47-8.52,7.2-2.66,9.64Z" transform="translate(0)"/></g><g class="cls-1"><path class="cls-2" d="M176.45,53.37c2.11,6,1.37,13.82,2.11,20.21.78,6.66,3.77,7.54,10.09,8,3.07.23,5.91-3.4,4.83-6.33-3-8.18-3-16.86-6-25.07-2.21-6-11.88-3.4-9.64,2.65,3,8.21,3,16.89,6,25.08l4.82-6.33a17.1,17.1,0,0,1-3.34-.38l3.5,3.49c-2.51-7.61-.07-16.39-2.72-24-2.1-6-11.77-3.44-9.64,2.66Z" transform="translate(0)"/></g><g class="cls-1"><path class="cls-2" d="M50.5,407.84q91.62-2.44,183.29-1.4c9,.1,9-13.9,0-14q-91.65-1.05-183.29,1.4c-9,.24-9,14.24,0,14Z" transform="translate(0)"/></g><g class="cls-1"><path class="cls-2" d="M73.35,417.83c.12-1,.22-2.09.29-3.14a10.88,10.88,0,0,1,1-3.88,6.84,6.84,0,0,0-7-5.28c-3.75.1-7.47-.39-11.22-.29-6.46.17-8.6,7-6.4,11.35A6,6,0,0,0,50,419c-2.47,3.39-3,8.14-3.41,12.46C45.26,447.41,43,463.21,40.5,479q-7.44,47.51-15,95c-.79,5,3.29,11.48,9.23,9.23,5.61-2.13,8.36-6.31,9.65-12.06,1.58-7.06,2.72-14.25,4.07-21.35l8-41.72C59,494.48,62.65,480.6,63,466.7c.07-2.6.08-5.16.09-7.69a209.23,209.23,0,0,0,6.57-34.27c.37-1,.73-2.08,1.09-3.13a6.87,6.87,0,0,0,.38-1.94A6.66,6.66,0,0,0,73.35,417.83Z" transform="translate(0)"/></g><g class="cls-1"><path class="cls-2" d="M7.86,484.94a81.06,81.06,0,0,0,13.76,0c4.13-.36,8.33-1.6,12.47-1.27l-5.3-7c-.44,2-.54,4.82-1.39,6.67l3.28-2.53c-3.91.92-9.33-.07-13.38-.23-4.2-.16-8.29-.58-12.45.25l6.76,6.76a45.11,45.11,0,0,0,1.56-8.79h-11a12.41,12.41,0,0,1-1.17,5c-2,4.19,1.29,9.41,6.21,8.07l3.73-1c6.82-1.85,3.93-12.47-2.92-10.6l-3.73,1,6.21,8.08a26.33,26.33,0,0,0,2.67-10.55c.31-7.12-10.49-7-11,0A29.35,29.35,0,0,1,1,484.72c-1.18,4.27,2.76,7.56,6.77,6.77,3.66-.73,7.8.09,11.51.21s7.29.34,10.9.19c7.49-.3,7.86-6,9.22-12.24a5.6,5.6,0,0,0-5.31-7c-4.18-.33-8.31.9-12.47,1.27a81.06,81.06,0,0,1-13.76,0c-7.06-.56-7,10.44,0,11Z" transform="translate(0)"/></g><g class="cls-1"><path class="cls-2" d="M67.07,491.68c48.65,2,99.4.31,148.06-.61,11.57-.22,11.61-18.22,0-18-48.66.92-97.41,2.65-146.06.61-11.58-.49-4.56,10.88-9.41,18.37Z" transform="translate(0)"/></g><g class="cls-1"><path class="cls-2" d="M258.29,568.27c-6-28.25-9.52-57-13.37-85.61-.62-4.61-.93-8.87-1.07-12.91a4.24,4.24,0,0,1-.79-.5c-2.76-2.2-2.52-6.36-2.5-9.52a3.89,3.89,0,0,1,.11-.93,12.47,12.47,0,0,1-.58-1.49c-2-6.58-1.47-13.38-2.56-20.07a3.94,3.94,0,0,1-.47-1.78q0-1-.12-1.92-.48-3.1-.89-6.19c-.46-2.54-1-5.06-1.36-7.56-.09-.6-.22-1.27-.36-2a10,10,0,0,1-.7-4.49,10.15,10.15,0,0,1,.3-3.77c-2.53-2.91-5.81-4.88-9.45-3.88-5.25,1.45-18.88-1-16.68,4.53,9.84,24.86,12.38,52.05,15.91,78.32,3.84,28.61,7.32,57.36,13.37,85.61,1.24,5.81,8,9.19,13.53,7.68C256.62,580.15,259.54,574.1,258.29,568.27Z" transform="translate(0)"/></g><g class="cls-1"><path class="cls-2" d="M243.45,474c.5,4.06,0,11.93,4.65,13.75,2.79,1.1,6.86.34,9.79.34h11.52c4.5,0,10.12,1.05,11.2-4.56a39,39,0,0,0,.17-10.85c-.22-1.79-.75-3.21-2.51-4-2.24-1.05-5.12.05-7.4.38a84.65,84.65,0,0,1-12.52.9c-4.56,0-10.5-1.49-11.23,4.68-1.55,13.27,20.24,7.31,27.05,6.3L270,477.76c.13-1.95-6-1.13-6.18-3l-2.42,3.19,2.45.09c4.15.8,5.93-5.56,1.76-6.36a16.59,16.59,0,0,0-6-.1,3.29,3.29,0,0,0-2.43,3.18c.56,5.64,5.2,7.34,10.26,8.52,4.55,1.06,8.78-.42,9.12-5.5.16-2.37-2.23-3.47-4.18-3.19-3.83.57-7.68,1-11.54,1.37-1.78.16-3.57.32-5.35.39-.67,0-4.68-.15-2,.09a69.08,69.08,0,0,0,10.57-.05c1.92-.12,3.83-.32,5.74-.56.77-.09,4.24-1,4.68-.69-1.14-.76-.4,2.75-.41,3.54,0,1-.89,4.68.5,3.41s-2.43-.55-3.29-.55h-5.76c-3.82,0-7.72-.26-11.52,0h-1.92q-1.62,1.23-1.2-1.35c-.73-1.65-.67-4.45-.88-6.14-.52-4.16-7.12-4.22-6.6,0Z" transform="translate(0)"/></g><g class="cls-1"><path class="cls-2" d="M148.53,440.82a3.1,3.1,0,0,1-.9-3.41c1.1-3.64,2.44-7.29,2.83-11.09a2.41,2.41,0,0,0-.92-1.14v0c.54-2.89,1.6-6.09,1.24-9a.43.43,0,0,0,0-.05c.37-1.05.76-2.1,1.16-3.14a3.2,3.2,0,0,1-.19-1.06,7.27,7.27,0,0,1,1.06-4.16,3.49,3.49,0,0,0-2.94-1.78l-19.39.74a5.89,5.89,0,0,0-1.11,0l-1.57.06a3.28,3.28,0,0,0-3.17,3.52,5.84,5.84,0,0,0-.57,1.61c-.57,2.92.78,5.91,1.43,8.83l0,.33c-1.16,4.29-.24,9.3.78,13.56l.69,17.6a3.09,3.09,0,0,0-.17,1.28c.14,2.28-.08,5.05.47,7.42a19.38,19.38,0,0,0,.71,6c0,.24,0,.48-.06.73a2.48,2.48,0,0,0,0,.61.67.67,0,0,1-.09.14,3.33,3.33,0,0,0,2.85,5c4.12.09,13.35,2.39,14.41-3.51a7.84,7.84,0,0,0,0-2.37c.17-.1.33-.23.5-.35a3.29,3.29,0,0,1-.44-2.82,29.35,29.35,0,0,1,1.18-2.86,14.67,14.67,0,0,1,.44-4.1,12,12,0,0,1-.1-2,48.26,48.26,0,0,1,1.37-8.62C148.25,444.79,148.36,442.8,148.53,440.82Z" transform="translate(0)"/></g><g class="cls-1"><path class="cls-2" d="M144.19,495.86a3.38,3.38,0,0,1,.19-.68c-1.92-4.73-9-2.58-12.92-2.31a3.5,3.5,0,0,0-3,4.75,7.64,7.64,0,0,0-.68,1.23c1.51,8.67,1.29,17.4,1.07,26.16a24.64,24.64,0,0,0,2.71,8c1.86,3.07,5.75,3.79,8.1.78a7.09,7.09,0,0,0,1.23-2.91,3.53,3.53,0,0,1-.1-1.15c.33-3.72.65-7.45,1.08-11.16.19-1.7.23-3.4.52-5a3.75,3.75,0,0,1,0-1.54C143.31,506.69,143.25,501.22,144.19,495.86Z" transform="translate(0)"/></g></g><g id="Layer_2-2" data-name="Layer 2"><path class="cls-3" d="M201.22,87.55c.35-2,.53-4.54-1.32-5.9a6.53,6.53,0,0,0-3.39-1c-1.93-.18-3.86-.25-5.79-.27-7.74-.08-15.48.23-23.21.48L120,82.39c-3.83.12-7.67.12-11.5.26a51.12,51.12,0,0,0-5.53.47,5.47,5.47,0,0,0-3.47,1.53C98,86.42,98,89.28,98.11,91.52a3,3,0,0,0,2.2,3,9.41,9.41,0,0,0,2.25.16h3c15.83,0,31.66-.06,47.48-.47q11.79-.3,23.58-.93,6-.32,11.91-.75c2-.15,4-.3,5.94-.47,1.57-.13,3.45-.07,4.8-1a5.31,5.31,0,0,0,2-3.53c.12-.63-.84-.9-1-.27-.3,1.59-1,3-2.66,3.44a13.82,13.82,0,0,1-2.41.31l-3,.24q-5.57.45-11.15.78-11.28.69-22.59,1c-15,.48-30,.58-45,.62-3.81,0-7.63,0-11.44,0a4.34,4.34,0,0,1-2-.31,2.08,2.08,0,0,1-.93-1.88,15.83,15.83,0,0,1,.14-3.83,4.26,4.26,0,0,1,1.52-2.81c1.17-.83,2.85-.87,4.23-1,3.61-.35,7.25-.28,10.87-.36,15-.35,30-1,45-1.44,7.46-.24,14.92-.57,22.38-.64,3.62,0,7.25-.13,10.88,0,2.12.1,5.53-.1,6.2,2.53a7.79,7.79,0,0,1-.05,3.26C200.15,87.91,201.11,88.18,201.22,87.55Z" transform="translate(0)"/><path class="cls-3" d="M118.88,48.57,112,75.42,110.06,83a.5.5,0,0,0,1,.26l6.88-26.85,1.94-7.58a.5.5,0,0,0-1-.27Z" transform="translate(0)"/><path class="cls-3" d="M119.64,49.25l11-.3-.48-.63c-1.62,8.78-3.35,17.53-5.4,26.22-.63,2.71-1.3,5.4-2,8.09a.5.5,0,0,0,1,.27C126,74,128,65,129.69,56c.47-2.46.94-4.93,1.39-7.39a.51.51,0,0,0-.48-.64l-11,.3a.5.5,0,0,0,0,1Z" transform="translate(0)"/><path class="cls-3" d="M176.06,48.66q5.76-.44,11.54-.36a.5.5,0,0,0,0-1q-5.78-.07-11.54.36c-.63.05-.64,1.05,0,1Z" transform="translate(0)"/><path class="cls-3" d="M175.5,48.24c.91,8.49,1.66,17,2.95,25.46.37,2.38.79,4.76,1.29,7.12.14.63,1.1.36,1-.27-1.75-8.25-2.53-16.67-3.43-25l-.78-7.26c-.07-.63-1.07-.64-1,0Z" transform="translate(0)"/><path class="cls-3" d="M187.19,48.18Q189,61,192,73.56c.55,2.38,1.14,4.74,1.75,7.1a.5.5,0,0,0,1-.26q-3.25-12.51-5.41-25.26-.61-3.6-1.12-7.23c-.1-.63-1.06-.36-1,.27Z" transform="translate(0)"/><path class="cls-3" d="M149.06,2.1c3.88-.08,7.77-.1,11.65-.05a.5.5,0,0,0,0-1c-3.88-.05-7.77,0-11.65.05-.64,0-.65,1,0,1Z" transform="translate(0)"/><path class="cls-3" d="M148.45,1.7c-1.13,10.35-1.71,20.75-2.17,31.15-.23,5.19-.43,10.39-.66,15.59S145,58.83,144.91,64c-.14,5.86-.07,11.72-.62,17.56-.07.64.93.64,1,0,.49-5.18.49-10.39.58-15.59s.42-10.39.66-15.58C147,40,147.34,29.63,148,19.25c.37-5.86.83-11.71,1.47-17.55.07-.64-.93-.63-1,0Z" transform="translate(0)"/><path class="cls-3" d="M148.45,1.7c-1.62,14.78-2.09,29.64-2.73,44.48q-.27,6.33-.62,12.66c0,.64,1,.64,1,0,.84-14.85,1.14-29.73,2.22-44.57q.45-6.3,1.13-12.57c.07-.64-.93-.63-1,0Z" transform="translate(0)"/><path class="cls-3" d="M160.39,1.7c.42,10.36.39,20.72.44,31.09s.38,20.64.67,31c.17,5.78.28,11.56.2,17.34,0,.55.89.71,1,.14l.13-.88c.1-.63-.87-.9-1-.26l-.14.87,1,.13c.14-10.28-.32-20.55-.62-30.83s-.23-20.72-.31-31.08c-.05-5.83-.14-11.66-.38-17.48,0-.64-1-.64-1,0Z" transform="translate(0)"/><path class="cls-3" d="M160.76,2.2a.5.5,0,0,0,0-1,.5.5,0,0,0,0,1Z" transform="translate(0)"/><path class="cls-3" d="M160.76,2.2a.5.5,0,0,0,0-1,.5.5,0,0,0,0,1Z" transform="translate(0)"/><path class="cls-3" d="M50.79,92.78l36.45-1.07,10.32-.3c.64,0,.65-1,0-1L61.12,91.47l-10.33.31c-.64,0-.64,1,0,1Z" transform="translate(0)"/><path class="cls-3" d="M200.64,88.38c11.46-.23,22.92-.4,34.39-.61l9.15-.17a.5.5,0,0,0,0-1c-11.47.23-22.93.4-34.39.61l-9.15.17a.5.5,0,0,0,0,1Z" transform="translate(0)"/><path class="cls-3" d="M50.31,92.14c-6.83,39.53-12.66,79.23-18.43,118.92-5.74,39.47-11.8,78.87-18.46,118.19-3.73,22-7.52,44-11.24,66-.11.63.86.9,1,.26C9.8,356.11,16.72,316.78,23,277.35s11.62-79,17.59-118.41c3.36-22.21,6.88-44.39,10.71-66.53.1-.63-.86-.9-1-.27Z" transform="translate(0)"/><path class="cls-3" d="M241.63,398.24a7.77,7.77,0,0,0,0-4.95,5.54,5.54,0,0,0-3.67-2.94c-2.77-.87-5.86-.8-8.73-.91-3.62-.14-7.24-.17-10.86-.16-14.42,0-28.84.36-43.26.66l-43.78.94-44,.95c-7.1.15-14.2.17-21.3.31-3.46.07-6.93.21-10.38.51-2.53.22-5.32.37-7.46,1.92a6.6,6.6,0,0,0-2.56,4.19,12.31,12.31,0,0,0,0,5.79c.89,2.57,4.13,2.7,6.41,2.72,3.58,0,7.17,0,10.76,0q21.85,0,43.72-.12t43.91-.48q21.84-.39,43.67-1.14,11-.4,21.91-.92c3.61-.17,7.23-.35,10.84-.55l5.55-.31a19.51,19.51,0,0,0,4.44-.65,6.81,6.81,0,0,0,4.7-4.85.5.5,0,0,0-1-.27,5.86,5.86,0,0,1-2.09,3.23,9.16,9.16,0,0,1-4.55,1.42c-3.38.34-6.8.42-10.19.59q-10.46.56-20.92,1Q182,405,161,405.46t-42,.6q-21,.17-42,.18l-21.18,0c-1.61,0-3.24.05-4.85,0-1.35-.06-3.21-.2-4.06-1.42a6,6,0,0,1-.55-3.42,12.47,12.47,0,0,1,.26-2.65c1.23-5.38,8-5.09,12.3-5.34,6.7-.4,13.42-.31,20.12-.41,14-.22,28-.6,41.94-.9l42-.9c13.93-.3,27.87-.68,41.8-.83,6.86-.07,13.72-.17,20.58,0a89.53,89.53,0,0,1,10,.49c1.78.24,4,.72,5.07,2.37.89,1.43.57,3.26.17,4.78A.5.5,0,0,0,241.63,398.24Z" transform="translate(0)"/><path class="cls-3" d="M2.87,395.9q17.38.87,34.81.63c3.32,0,6.63-.13,10-.23.64,0,.64-1,0-1q-17.4.56-34.82,0-5-.17-9.94-.41c-.65,0-.64,1,0,1Z" transform="translate(0)"/><path class="cls-3" d="M242.19,395.66l33.08-1.5,9.36-.42c.65,0,.65-1,0-1l-33.07,1.5-9.37.42c-.64,0-.64,1,0,1Z" transform="translate(0)"/><path class="cls-3" d="M243.69,87.23c3.12,20.48,5.77,41,8.14,61.6,2.23,19.38,4.22,38.8,6.21,58.21,2,19.08,3.93,38.15,6.17,57.19,2.3,19.53,5.16,39,7.81,58.45,1.41,10.38,2.78,20.77,4.45,31.11s3.73,20.58,5.69,30.86l1.47,7.63c.12.63,1.08.36,1-.27-2-10.27-4-20.53-5.87-30.83s-3.28-20.68-4.69-31.05c-2.72-20-5.68-39.89-8.1-59.89-2.3-19-4.31-38.11-6.27-57.19-2-19.35-4-38.7-6.12-58-2.27-20.13-4.78-40.23-7.72-60.27q-.57-3.9-1.16-7.79c-.1-.64-1.06-.37-1,.26Z" transform="translate(0)"/><path class="cls-3" d="M49.05,406.74a89.11,89.11,0,0,1-1.21,17.18c-.82,5.57-1.72,11.13-2.58,16.7L40,474.49l-10.46,67.4-5.89,38c-.1.63.86.9,1,.27l10.57-68.09,10.51-67.74c1-6.26,2-12.52,2.92-18.78a96.22,96.22,0,0,0,1.44-18.79c0-.64-1-.64-1,0Z" transform="translate(0)"/><path class="cls-3" d="M24.58,580.6a21.66,21.66,0,0,0,19.1,1.12c.59-.25.08-1.11-.5-.86a20.66,20.66,0,0,1-18.1-1.12.5.5,0,0,0-.5.86Z" transform="translate(0)"/><path class="cls-3" d="M74.18,407.14Q70.61,424,67.27,441T60.8,474.88q-3.13,17-6,34T49.19,543c-.89,5.64-1.69,11.29-2.64,16.92s-2.08,11.14-3,16.73c-.23,1.39-.44,2.78-.64,4.18-.09.63.88.9,1,.26.78-5.56,1.87-11.07,2.87-16.6s1.86-11.31,2.74-17q2.65-17.06,5.52-34.08t6-34q3.09-17,6.41-33.93t6.86-33.84c.29-1.4.59-2.8.88-4.2.13-.63-.83-.9-1-.26Z" transform="translate(0)"/><path class="cls-3" d="M232.39,403.21c-.5,10.67,1.72,21.38,3.34,31.87l5.38,34.61,5.37,34.62,5.37,34.62,5.38,34.62.67,4.3c.09.64,1.06.37,1-.26l-5.35-34.45-5.34-34.44-5.38-34.62-5.34-34.45c-.87-5.59-1.77-11.17-2.6-16.77A124.4,124.4,0,0,1,233.33,407c0-1.26,0-2.52.06-3.77,0-.64-1-.64-1,0Z" transform="translate(0)"/><path class="cls-3" d="M257.42,577.46a20.63,20.63,0,0,1-18.09,1.12c-.59-.25-1.1.61-.51.86a21.71,21.71,0,0,0,19.11-1.12.5.5,0,0,0-.51-.86Z" transform="translate(0)"/><path class="cls-3" d="M207.36,405.12Q210.93,422,214.28,439t6.47,33.91q3.12,17,6,34t5.59,34.08c.88,5.63,1.68,11.28,2.63,16.91s2.08,11.14,3,16.74c.23,1.39.44,2.78.64,4.17.09.64,1.05.37,1-.26-.79-5.57-1.88-11.08-2.88-16.6s-1.85-11.32-2.74-17q-2.64-17.05-5.52-34.08t-6-34q-3.09-17-6.41-33.92t-6.86-33.84c-.29-1.41-.59-2.81-.88-4.21-.13-.63-1.1-.36-1,.27Z" transform="translate(0)"/><path class="cls-3" d="M4.32,474.76q13.91-.66,27.83-.85l7.86-.07a.5.5,0,0,0,0-1q-13.92.06-27.83.58c-2.62.1-5.24.22-7.86.34-.64,0-.64,1,0,1Z" transform="translate(0)"/><path class="cls-3" d="M2.81,474.6l-2,10.78-.48,2.55A7.92,7.92,0,0,0,0,490.2c.16,1.39,1.3,1.86,2.56,1.9,7.28.23,14.59.19,21.88.29l12.47.16a.5.5,0,0,0,0-1l-20.7-.27-10.48-.14-2.5,0c-.59,0-1.5.11-2-.36s-.29-1.27-.19-1.83c.16-.89.34-1.78.51-2.66l2.16-11.4c.12-.63-.84-.89-1-.26Z" transform="translate(0)"/><path class="cls-3" d="M62.46,474.78l40.06-.48q15.57-.18,31.14-.4,13.28-.19,26.55-.43,13.13-.25,26.25-.57,15.15-.37,30.28-.8L221,472c.64,0,.64-1,0-1q-15.54.43-31.08.83-13.26.33-26.53.59t-26.27.45q-15.16.22-30.34.4l-38.72.46-5.6.07a.5.5,0,0,0,0,1Z" transform="translate(0)"/><path class="cls-3" d="M58.48,492.42l64.48-1q32.12-.48,64.22-.83,18.12-.18,36.23-.29a.5.5,0,0,0,0-1q-32.26.18-64.55.62-32.1.41-64.21.92l-36.17.55a.5.5,0,0,0,0,1Z" transform="translate(0)"/><path class="cls-3" d="M241.88,471.45l21.38-1.35,10.68-.67,2.74-.17a3.3,3.3,0,0,1,1.94.26c.67.43.56,1.35.58,2l.08,2.73.34,12.15c0,.64,1,.65,1,0L280.3,475l-.08-2.73a10.34,10.34,0,0,0-.15-2.36c-.38-1.4-1.76-1.73-3.05-1.7-3.67.11-7.36.46-11,.69l-11.43.72-12.68.8c-.64,0-.64,1,0,1Z" transform="translate(0)"/><path class="cls-3" d="M245.28,489.22c8.86-.46,17.72-.91,26.57-1.42l7.57-.46c.64,0,.65-1,0-1-8.88.56-17.77,1-26.65,1.49l-7.49.39c-.64,0-.65,1,0,1Z" transform="translate(0)"/><path class="cls-3" d="M123.66,406.75,125,432.69l1.3,26.3.72,14.49c0,.65,1,.65,1,0l-1.29-25.93-1.3-26.3-.72-14.5c0-.64-1-.64-1,0Z" transform="translate(0)"/><path class="cls-3" d="M151.84,407.18q-1.8,12.63-3.33,25.31t-2.77,25.36q-.7,7.22-1.32,14.44c0,.64,1,.63,1,0q1.08-12.66,2.44-25.28t3-25.21q.93-7.19,2-14.35c.09-.63-.87-.9-1-.27Z" transform="translate(0)"/><path class="cls-3" d="M127.81,491.58c.84,10.23.7,20.51,1.42,30.74q.39,5.49,1,10.95c.07.64,1.07.64,1,0q-1-9.1-1.43-18.27c-.2-4.94-.28-9.87-.49-14.81q-.17-4.31-.52-8.61c-.05-.63-1-.64-1,0Z" transform="translate(0)"/><path class="cls-3" d="M143.28,491.37l-2.91,32.87-.8,9c-.06.65.94.64,1,0l2.91-32.86.8-9c.05-.64-.95-.64-1,0Z" transform="translate(0)"/><path class="cls-3" d="M130.28,533.46c0,1,1.05,1.44,1.86,1.76a8.74,8.74,0,0,0,8.3-1.16c.51-.38,0-1.25-.5-.86a7.77,7.77,0,0,1-6.65,1.34,6.81,6.81,0,0,1-1.15-.4c-.27-.12-.84-.33-.86-.68,0-.64-1-.64-1,0Z" transform="translate(0)"/></g></g></svg>