<svg xmlns="http://www.w3.org/2000/svg" viewBox="0 0 24.59 20.21"><defs><style>.cls-1{fill:#333;}</style></defs><title>cat-circle</title><g id="Layer_2" data-name="Layer 2"><g id="Layer_4" data-name="Layer 4"><path class="cls-1" d="M2,15.62c4.46,6.42,14.85,5.72,19.8.28,3-3.31,4.11-9.31.88-12.87C20.23.37,16.22-.23,12.82.07A16.7,16.7,0,0,0,2.51,4.43,8.33,8.33,0,0,0,.12,8.74a8.6,8.6,0,0,0,1,5.42A13.46,13.46,0,0,0,2,15.62c.36.53,1.23,0,.86-.5a9.14,9.14,0,0,1-1.82-5A6.69,6.69,0,0,1,2.47,6C4.52,3.33,8,1.89,11.16,1.3S18,.84,20.73,2.69c3.13,2.12,3.4,6.28,2.14,9.57C20.3,19,10.15,21.41,4.6,17a9.07,9.07,0,0,1-1.78-1.88C2.46,14.59,1.59,15.09,2,15.62Z" transform="translate(-0.01)"/></g></g></svg>