<svg xmlns="http://www.w3.org/2000/svg" viewBox="0 0 130.52 111.5"><defs><style>.cls-1{fill:#333;}</style></defs><title>고양이걷기</title><g id="Layer_2" data-name="Layer 2"><g id="Layer_2-2" data-name="Layer 2"><path class="cls-1" d="M86.63,43.31a3.54,3.54,0,0,1-2.31-2.45,27.72,27.72,0,0,1-1.16-4,39.78,39.78,0,0,1-1-8.63,40.27,40.27,0,0,1,3.5-17c.88-2,2.36-4.93,5-4.6,2.24.29,3.54,2.92,4.77,4.52a12.61,12.61,0,0,0,12.81,4.51,14.31,14.31,0,0,0,6.41-3.76A20.77,20.77,0,0,0,117,9c.7-1,1.28-2.26,2.31-2.94,1.23-.82,2.29.17,2.92,1.21a41.15,41.15,0,0,1,1.88,3.83,77.2,77.2,0,0,1,3.51,8.53,33,33,0,0,1,1,18.16c-1.32,5.55-4.6,10.26-6.54,15.56a49.65,49.65,0,0,0-1.78,8.35,74.43,74.43,0,0,1-1.94,8.06,87.49,87.49,0,0,1-6.28,15.07c-.68,1.31-1.37,2.6-2.08,3.89-.31.56.55,1.07.86.5a107.65,107.65,0,0,0,7.34-15.78,71.91,71.91,0,0,0,2.38-8.16q.49-2.17.87-4.38c.25-1.5.4-3,.75-4.5,1.35-5.73,5-10.57,6.77-16.15a32.75,32.75,0,0,0,.28-18.61,60.42,60.42,0,0,0-3.3-8.86c-.63-1.43-1.3-2.84-2-4.25a8.3,8.3,0,0,0-2.1-3.19,2.61,2.61,0,0,0-3.08-.15A9.17,9.17,0,0,0,116.51,8a17.21,17.21,0,0,1-5.92,5.62A11.52,11.52,0,0,1,96.42,10.9c-1.43-1.74-2.55-4.11-4.75-5-2.38-1-4.48.65-5.73,2.57a29.29,29.29,0,0,0-3.26,7.94A41.81,41.81,0,0,0,81.6,34.09a39,39,0,0,0,.94,4.42,16.54,16.54,0,0,0,1.31,3.69,3.85,3.85,0,0,0,2.51,2.07c.63.13.9-.84.27-1Z" transform="translate(0)"/><path class="cls-1" d="M86.32,43.22A41.53,41.53,0,0,0,69.23,41.1a44.66,44.66,0,0,0-8.07,1.82,68,68,0,0,0-7.72,2.86,48.51,48.51,0,0,0-8.11,4.47c-.53.36,0,1.23.5.86a55.42,55.42,0,0,1,14.56-6.9,49.19,49.19,0,0,1,7.73-2,33.9,33.9,0,0,1,8.42-.14,46.78,46.78,0,0,1,9.51,2.07c.62.2.88-.76.27-1Z" transform="translate(0)"/><path class="cls-1" d="M38.29,55.7c-3.95,4.95-6.23,10.89-9,16.54a54.17,54.17,0,0,1-10.58,15,53.81,53.81,0,0,1-7.12,5.84c-2.3,1.6-4.9,3.64-4.86,6.74,0,2.35,2.48,4.72,4.87,3.56,1.24-.61,2-2,3-2.84a22.67,22.67,0,0,1,4-2.39A85.36,85.36,0,0,0,36.8,85.8c.48-.43-.23-1.13-.71-.71A82.78,82.78,0,0,1,20.69,96c-2.51,1.37-5.35,2.45-7.43,4.48-.87.85-1.62,2.33-3,2.22a2.79,2.79,0,0,1-2.45-2.46c-.39-3.09,2.7-5.1,4.87-6.62a52.13,52.13,0,0,0,6.65-5.49,53.23,53.23,0,0,0,10.22-14c3-6,5.27-12.4,9.48-17.68.4-.49-.3-1.21-.71-.7Z" transform="translate(0)"/><path class="cls-1" d="M40.64,85.88a72.24,72.24,0,0,0,39,4.86,70.4,70.4,0,0,0,11-2.62c.6-.19.34-1.16-.27-1a71,71,0,0,1-38.75,1.35A69.12,69.12,0,0,1,41.15,85c-.59-.25-1.1.61-.51.86Z" transform="translate(0)"/><path class="cls-1" d="M94.2,88a39.54,39.54,0,0,0,6.51,10.71c1.35,1.64,2.78,3.21,4.23,4.76a18.76,18.76,0,0,0,4.58,3.85,8.18,8.18,0,0,0,5.55.82,6.49,6.49,0,0,0,4.44-3,2.52,2.52,0,0,0,0-2.37,4.07,4.07,0,0,0-1.82-1.48,8.12,8.12,0,0,1-2.3-1.58,12,12,0,0,1-1.72-2.35,47.76,47.76,0,0,1-3.15-6.57,14.93,14.93,0,0,1-1.15-7.74c.1-.63-.86-.9-1-.27-.67,4.21,1,8.2,2.77,11.91a27.56,27.56,0,0,0,2.73,4.82,9.2,9.2,0,0,0,1.79,1.79c.66.48,1.42.77,2.11,1.19,2.14,1.29.2,3.29-1.32,4.06a7,7,0,0,1-5.52.33,13.09,13.09,0,0,1-4.58-3.33c-1.39-1.42-2.73-2.9-4-4.41a40,40,0,0,1-7.23-11.42c-.23-.6-1.19-.34-1,.26Z" transform="translate(0)"/><path class="cls-1" d="M93.3,90.81c-.8,2.79-1.61,5.59-2.63,8.31a43.51,43.51,0,0,1-1.74,4,18,18,0,0,0-1.76,3.58,3.82,3.82,0,0,0,3.11,4.75c2.77.33,3.92-2.49,5.3-4.35a49.09,49.09,0,0,1,6.51-7.08c.48-.43-.23-1.14-.7-.71a49.35,49.35,0,0,0-5.29,5.53c-.78.94-1.52,1.92-2.22,2.92s-1.28,2.32-2.52,2.64a2.61,2.61,0,0,1-2.8-1,3.16,3.16,0,0,1-.16-3.12c.52-1.13,1.2-2.19,1.74-3.31s1-2.28,1.45-3.45c1-2.75,1.86-5.59,2.67-8.42a.5.5,0,0,0-1-.26Z" transform="translate(0)"/><path class="cls-1" d="M44,87.12a20.55,20.55,0,0,0,.87,8.57,17.51,17.51,0,0,0,4.36,7.42,6.71,6.71,0,0,0,7.1,1.31,3,3,0,0,0,1.94-2.53c0-1.32-1.13-2.14-1.93-3a9.61,9.61,0,0,1-2.11-8.54c.15-.63-.81-.89-1-.27a10.64,10.64,0,0,0,.61,6.79,10.14,10.14,0,0,0,1.89,2.87c.73.78,2.07,1.8,1.21,3a3.93,3.93,0,0,1-3.29,1.23,5.87,5.87,0,0,1-3.42-1.23,11.55,11.55,0,0,1-2.59-3.22A18.69,18.69,0,0,1,46,95.82a19.76,19.76,0,0,1-1-8.7c.07-.64-.93-.64-1,0Z" transform="translate(0)"/><path class="cls-1" d="M36.08,59.27A67.53,67.53,0,0,1,14.54,40.21,80.12,80.12,0,0,1,7,27.92a68.57,68.57,0,0,1-5.43-14c-.66-2.67-1-5.66.15-8.26a7.57,7.57,0,0,1,4.8-4.46c1-.27,2.72-.36,3.33.73.53.93.44,2.3.59,3.34a45.22,45.22,0,0,0,1.41,6.59A51.46,51.46,0,0,0,25.47,34.08,50.07,50.07,0,0,0,48.28,46.87c1.07.25,2.14.47,3.23.65.63.11.9-.86.26-1a48.33,48.33,0,0,1-24.29-12,50.51,50.51,0,0,1-14.6-22.87,46.26,46.26,0,0,1-1.45-6.58,13.38,13.38,0,0,0-.56-3.46A3,3,0,0,0,8.11,0,7.19,7.19,0,0,0,2.44,2.64,10.37,10.37,0,0,0,0,9.34a25.48,25.48,0,0,0,1.73,8.52q1.2,3.5,2.69,6.88a83.51,83.51,0,0,0,7.13,13A70.64,70.64,0,0,0,32.42,58.28c1,.65,2.09,1.26,3.16,1.85.56.31,1.07-.55.5-.86Z" transform="translate(0)"/><ellipse class="cls-1" cx="104.41" cy="29.76" rx="1.56" ry="3"/><ellipse class="cls-1" cx="117.54" cy="29.76" rx="1.56" ry="3"/><path class="cls-1" d="M112.8,36.18a6.31,6.31,0,0,0-2.81.12,1.53,1.53,0,0,0-.8,1.77,1.91,1.91,0,0,0,1,1,3,3,0,0,0,2.85,0,1.85,1.85,0,0,0,0-2.75" transform="translate(0)"/><path class="cls-1" d="M112.93,35.7a7.71,7.71,0,0,0-2.71,0,2.07,2.07,0,0,0-1.55,2.4c.3,1.13,1.68,1.65,2.72,1.78A2.41,2.41,0,0,0,114,38.59a2.36,2.36,0,0,0-.71-2.75.49.49,0,0,0-.68.18.5.5,0,0,0,.18.68c-.09-.06,0,0,0,0l.07.08s.07.1,0,0l.06.09,0,.1s.07.14,0,0a2.17,2.17,0,0,1,.07.24l0,.11s0,.17,0,.05c0,.08,0,.16,0,.24a1.85,1.85,0,0,1,0,.23c0-.09,0,0,0,0s0,.12,0,.18-.08.22,0,.13c0,.07-.07.13-.1.19s0,0,0,0l-.07.08s-.1.09-.05,0h0l-.1.07a1.88,1.88,0,0,1-1.07.24,3.29,3.29,0,0,1-1.11-.27,1.62,1.62,0,0,1-.89-.7s0-.14,0-.2,0,.05,0,0v-.16c0,.07,0,0,0,0s0-.11.05-.16,0,0,0,0a1.28,1.28,0,0,1,.11-.2,1.64,1.64,0,0,1,.29-.3l.21-.12c-.12.06,0,0,0,0l.12,0a4.24,4.24,0,0,1,1.15-.07l.63,0,.26,0h.16a.53.53,0,0,0,.62-.35.51.51,0,0,0-.35-.62Z" transform="translate(0)"/><path class="cls-1" d="M111.08,39.21a9.39,9.39,0,0,0-.57,2,8.85,8.85,0,0,1-.64,1.81,8.68,8.68,0,0,1-2.38,3,.5.5,0,1,0,.71.71,9.43,9.43,0,0,0,2.48-3.06,9.33,9.33,0,0,0,.71-1.84,12.09,12.09,0,0,1,.56-2c.27-.58-.59-1.08-.87-.5Z" transform="translate(0)"/><path class="cls-1" d="M112.19,39.24c-.81.34-.46,1.25-.32,1.91a15.09,15.09,0,0,0,.66,2.27A6.91,6.91,0,0,0,115,46.73c.53.36,1-.5.5-.86a5.62,5.62,0,0,1-1.9-2.46,11.31,11.31,0,0,1-.57-1.7c-.08-.31-.15-.63-.22-.94s-.07-.32-.1-.48l0-.24c0-.11-.06-.06-.21.16a.52.52,0,0,0,.35-.62.5.5,0,0,0-.61-.35Z" transform="translate(0)"/><path class="cls-1" d="M76.13,30.81a24.86,24.86,0,0,1,17.12.88c.54.23,1-.57.47-.8a25.85,25.85,0,0,0-17.84-1c-.56.17-.32,1.07.25.89Z" transform="translate(0)"/><path class="cls-1" d="M76.39,37.32a23.59,23.59,0,0,1,16.37.39c.55.22.79-.68.25-.9a24.47,24.47,0,0,0-16.87-.38c-.56.19-.32,1.08.25.89Z" transform="translate(0)"/></g></g></svg>