<svg xmlns="http://www.w3.org/2000/svg" viewBox="0 0 160.86 180.28"><defs><style>.cls-1{fill:#333;}.cls-2{fill:#444545;}.cls-3{opacity:0.35;}.cls-4{fill:#343791;}</style></defs><title>cat-circle3</title><g id="Layer_2" data-name="Layer 2"><g id="Layer_4" data-name="Layer 4"><path class="cls-1" d="M23.79,141.16c-2.71-8.95-3.28-18.33-5-27.48a69.13,69.13,0,0,0-3.6-13C13.7,96.76,11.86,93,10,89.29,6.25,81.75,2.28,74,1.26,65.55A41.84,41.84,0,0,1,6.14,41.34c8-15.43,23.27-25.1,38.82-31.79,8.61-3.71,17.62-6.93,27-8.1A54.28,54.28,0,0,1,96.22,3.92c15,5.09,27.41,15.94,37.67,27.71a170.32,170.32,0,0,1,15.22,20.23A66,66,0,0,1,159,76.63c2.89,17.63-1.69,35.75-8.45,52-3.26,7.81-7,15.66-12.12,22.43a45.15,45.15,0,0,1-9,9,51.29,51.29,0,0,1-11.31,6.17c-8.2,3.31-16.91,5.09-25.33,7.71-8.67,2.69-17.6,5.75-26.8,5.33-8.65-.4-16.43-4.62-23-10a59.43,59.43,0,0,1-14.76-17.65,56.67,56.67,0,0,1-4.42-10.47c-.19-.61-1.16-.35-1,.27a59.88,59.88,0,0,0,29.37,35.08,33.13,33.13,0,0,0,13,3.7A47.9,47.9,0,0,0,78.73,179c4.64-1,9.18-2.46,13.72-3.87s8.92-2.59,13.41-3.82c8.43-2.31,17-5.1,24.09-10.36,6.81-5,11.75-12.07,15.69-19.48a146.12,146.12,0,0,0,10.28-24.57,100.8,100.8,0,0,0,4.89-26.49,65.29,65.29,0,0,0-4.15-26.15c-3.35-8.54-8.63-16.17-14.11-23.45-9.64-12.81-21-25-35.11-32.9A60.53,60.53,0,0,0,85.45.4C76.21-.75,66.91.78,58.07,3.55a135.63,135.63,0,0,0-24.9,10.62A76,76,0,0,0,12.77,30,51.19,51.19,0,0,0,1.08,52,39.73,39.73,0,0,0,.15,64.55a46.56,46.56,0,0,0,3,12.34C6.28,85,10.83,92.36,14,100.37c3.53,8.78,4.52,18.12,5.91,27.41a96.25,96.25,0,0,0,2.87,13.65C23,142,24,141.78,23.79,141.16Z" transform="translate(0 -0.02)"/><path class="cls-1" d="M51,36.13A66.8,66.8,0,0,0,40.85,56.68q-.93,3.18-1.55,6.44a.51.51,0,0,0,.74.56q11.2-5.34,22.13-11.24,2.71-1.47,5.42-3l2.74-1.54c.65-.37,1.35-.77,1.55-1.54.36-1.41-1.21-2.35-2.3-2.77-1.85-.72-3.68-1.46-5.48-2.3-4-1.85-7.92-3.9-12.07-5.42-.61-.22-.87.75-.27,1,3.49,1.27,6.82,2.94,10.17,4.53,1.63.78,3.27,1.54,4.94,2.23.78.33,1.58.62,2.36.92.57.22,1.65.69,1.7,1.42s-1.25,1.18-1.73,1.45L66.45,49l-4.89,2.68Q56.44,54.4,51.27,57q-5.84,3-11.74,5.78l.74.57a66,66,0,0,1,8-21.32q1.66-2.8,3.59-5.43c.38-.52-.48-1-.86-.51Z" transform="translate(0 -0.02)"/><path class="cls-1" d="M57,56.05A143.3,143.3,0,0,0,72,79,144.33,144.33,0,0,0,91.24,98.83a144.55,144.55,0,0,0,12.3,9.33c.54.37,1-.5.51-.86A141.85,141.85,0,0,1,83,89.81a142.49,142.49,0,0,1-17.25-21,141.46,141.46,0,0,1-7.89-13.25c-.3-.57-1.17-.06-.87.51Z" transform="translate(0 -0.02)"/><path class="cls-1" d="M46.35,74.31a118.65,118.65,0,0,0,25-10.58c2.23-1.26,4.41-2.6,6.55-4,.54-.35,0-1.22-.5-.87A117.64,117.64,0,0,1,53.38,71c-2.41.88-4.84,1.67-7.29,2.39a.5.5,0,0,0,.26,1Z" transform="translate(0 -0.02)"/><path class="cls-1" d="M61.43,86.09A126.39,126.39,0,0,0,86.34,72.76c.52-.37,0-1.23-.51-.87A124.65,124.65,0,0,1,61.16,85.13c-.59.23-.33,1.2.27,1Z" transform="translate(0 -0.02)"/><path class="cls-1" d="M76.73,98.91a106.53,106.53,0,0,0,23.11-16.6c1.94-1.83,3.82-3.74,5.62-5.72.43-.48-.28-1.19-.71-.71A105.67,105.67,0,0,1,83.16,94q-3.39,2.15-6.94,4c-.57.3-.06,1.17.51.87Z" transform="translate(0 -0.02)"/><path class="cls-1" d="M102.32,107.28l0,21.61a.51.51,0,0,0,.86.35,235.59,235.59,0,0,0,15.88-20.4.5.5,0,0,0-.3-.73L103,105.84c-.63-.09-.9.87-.26,1l15.81,2.27-.3-.73a234,234,0,0,1-15.73,20.19l.85.36,0-21.61a.5.5,0,0,0-1,0Z" transform="translate(0 -0.02)"/><path class="cls-2" d="M56.21,42.05a43.41,43.41,0,0,1-2.14,6.18.53.53,0,0,0,.18.69.51.51,0,0,0,.69-.18,44.45,44.45,0,0,0,2.23-6.43.5.5,0,0,0-1-.26Z" transform="translate(0 -0.02)"/><path class="cls-2" d="M52.54,44a9.1,9.1,0,0,0,3,2.31c1.18.55,2.49.79,3.62,1.45a.5.5,0,0,0,.5-.87c-1.1-.64-2.36-.87-3.51-1.4a8.3,8.3,0,0,1-2.89-2.2c-.41-.49-1.12.22-.7.71Z" transform="translate(0 -0.02)"/></g><g id="Layer_5" data-name="Layer 5"><g class="cls-3"><path class="cls-4" d="M49.29,38.61Q43.65,48.18,38.47,58C36.56,61.65,41,64.76,44,62.25c7.21-6,17.19-9.07,25.64-12.87,2.76-1.24,1.94-5.76-.84-6.39a63.11,63.11,0,0,1-9-2.35c-1.74-.68-3.58-2.15-5.57-2-3.67.28-5.84,5.66-6.29,8.74a3.64,3.64,0,0,0,1.6,3.95c2,1.11,3.75,1,6,.55,4.41-.94,2.54-7.69-1.86-6.75l-.56.16,1.61,4c.17-1.16,1.08-3.9,2-4.62l-2.48,1c-1.54-.09,1.21.75,1.69,1A29.84,29.84,0,0,0,59,47.8c2.58.82,5.28,1.33,7.92,1.94l-.84-6.4c-9.14,4.1-19.26,7.5-27,14l5.5,4.24q5.17-9.82,10.82-19.4c2.29-3.89-3.76-7.42-6.05-3.53Z" transform="translate(0 -0.02)"/></g><g class="cls-3"><path class="cls-4" d="M103.06,110.79a88.67,88.67,0,0,1-2.49,13.62c-1,3.8,4.39,6.19,6.39,2.7s4.9-6.15,7.73-8.94c2.47-2.43,5.77-4.94,5.13-8.72a3.44,3.44,0,0,0-2.45-2.44c-3.8-1-7.85.61-11.74-.41-4.37-1.15-6.23,5.6-1.87,6.75a22.09,22.09,0,0,0,5.89.7c1.74,0,4.19-.75,5.86-.29l-2.44-2.45.08.48.35-2.69c-1.48,2.64-4.47,4.76-6.58,6.89a36.56,36.56,0,0,0-6,7.58l6.4,2.7a100.37,100.37,0,0,0,2.74-15.48c.45-4.48-6.55-4.45-7,0Z" transform="translate(0 -0.02)"/></g></g></g></svg>