<svg xmlns="http://www.w3.org/2000/svg" viewBox="0 0 30.92 29.01"><defs><style>.cls-1{fill:#333;}</style></defs><title>cat-circle2</title><g id="Layer_2" data-name="Layer 2"><g id="Layer_4" data-name="Layer 4"><path class="cls-1" d="M5.47,24.75c4.83,2.67,10.82,5.38,16.43,3.77,5.17-1.48,8-6.46,8.73-11.5.82-5.37.22-12.89-5.17-15.81-4.2-2.28-9.44-1-13.5,1-4.34,2.1-8.57,5.51-10.74,9.9a10,10,0,0,0-1.1,6.1,8.93,8.93,0,0,0,3.62,5.45,13.8,13.8,0,0,0,1.73,1.12A.5.5,0,0,0,6,23.89a9.5,9.5,0,0,1-4.53-4.66,7.78,7.78,0,0,1,.11-5.44C3.07,9.58,6.86,6.24,10.62,4S19.07.17,23.34,1.42c5,1.46,6.49,6.89,6.55,11.58.07,4.53-1,9.57-4.65,12.64-4.44,3.78-10.69,2.3-15.51.15-1.28-.58-2.52-1.22-3.75-1.9C5.41,23.58,4.91,24.44,5.47,24.75Z" transform="translate(-0.01)"/></g></g></svg>