<svg xmlns="http://www.w3.org/2000/svg" viewBox="0 0 236.92 247.07"><defs><style>.cls-1{opacity:0.28;}.cls-2{fill:#757576;}.cls-3{opacity:0.43;}.cls-4{fill:#fbbea0;}.cls-5{fill:#333;}.cls-6{opacity:0.35;}.cls-7{fill:#fdbd69;}</style></defs><title>도전_1</title><g id="Layer_2" data-name="Layer 2"><g id="Layer_4" data-name="Layer 4"><g class="cls-1"><path class="cls-2" d="M118.74,12.48c9.62-1.59,18.09.39,23.22,9.28,5.33,9.23,2.89,19.18-1.19,28.37-3.09,7-10.72,18.41-1.67,24.27,7.46,4.84,17.2-3,13.84-11.29-2.86-7.07-14.47-4-11.57,3.19q5.28,2.4,5.78-1.5c.46-1,.93-2,1.4-3,1-2.12,2-4.23,2.94-6.37a77.88,77.88,0,0,0,4.2-11.2,37.37,37.37,0,0,0-1.36-24.34c-2.94-7-8.14-13.53-15.07-16.9-7.53-3.65-15.65-3.37-23.71-2-7.6,1.26-4.38,12.82,3.19,11.57Z" transform="translate(-0.01)"/></g><g class="cls-3"><path class="cls-4" d="M129,52.07c-3.52,1-6.42,4.5-6.15,8.28a6.36,6.36,0,0,0,1.76,4.24,6,6,0,0,0,8.48,0,5.86,5.86,0,0,0,1.76-4.24,3.37,3.37,0,0,1,0-.55l-.21,1.6a2.31,2.31,0,0,1,.15-.53l-.61,1.43a3.53,3.53,0,0,1,.35-.59l-.94,1.21a3.59,3.59,0,0,1,.39-.39l-1.22.94a2.55,2.55,0,0,1,.59-.35l-1.43.6.26-.08a6.24,6.24,0,0,0,3.59-2.76,6,6,0,0,0-2.16-8.21,6.2,6.2,0,0,0-4.62-.6Z" transform="translate(-0.01)"/></g><g class="cls-3"><path class="cls-4" d="M103.55,57.18h0l1.19.51h0l1,.78h0l1.29,2.2h0l.18,1.33h0L107,63.28v0l-.51,1.2v0l-.78,1,0,0-1,.78.06,0-1.19.5.07,0-1.33.18h0l-1.33-.18h0l-1.2-.5h0l-1-.78a1.06,1.06,0,0,1,.15.15c.17.16.4.31.56.44a7.21,7.21,0,0,0,.58.43,3.73,3.73,0,0,0,1.23.53,4.08,4.08,0,0,0,.69.09,2.74,2.74,0,0,0,.7.09l1.32-.18a3.57,3.57,0,0,0,1.23-.51,9,9,0,0,0,1.06-.81,5.58,5.58,0,0,0,1.46-3.54,3.74,3.74,0,0,0-.43-1.92,3.78,3.78,0,0,0-1-1.61l-1-.78a5,5,0,0,0-2.52-.69l-1.33.18a5,5,0,0,0-2.2,1.29l0,0,1-.78h0l1.19-.51h0l1.33-.18h0l1.33.18-.06,0,1.2.51-.09-.06,1,.79-.14-.13a.23.23,0,0,0-.07-.07l-1-.78a2.65,2.65,0,0,0-.62-.27,3.87,3.87,0,0,0-2-.44,5.18,5.18,0,0,0-2.61.7,5.11,5.11,0,0,0-2.4,3.08,5,5,0,0,0,0,2.67,5.66,5.66,0,0,0,2.31,3,8.24,8.24,0,0,0,1.23.52,5.64,5.64,0,0,0,3.86-.5,5.58,5.58,0,0,0,2.29-3l.18-1.33a5,5,0,0,0-.68-2.52l-.78-1a5.05,5.05,0,0,0-2.21-1.29Z" transform="translate(-0.01)"/></g><path class="cls-5" d="M171.51,99.61l10.59.76,5.17.37c1.62.12,3.28.13,4.89.41a4.34,4.34,0,0,1,3.43,2.28,9.72,9.72,0,0,1,.79,3.77c.23,3.36.41,6.73.6,10.09a383.94,383.94,0,0,1,.58,41.41A185.54,185.54,0,0,1,194.94,182c-.12.63.85.9,1,.26,2.54-14,3.18-28.29,3-42.51-.11-7.11-.43-14.23-.82-21.33q-.28-5.3-.62-10.59c-.15-2.5-.42-5.47-2.81-6.88a11,11,0,0,0-4.88-1l-5.91-.43-12.31-.88c-.64,0-.64,1,0,1Z" transform="translate(-0.01)"/><g class="cls-6"><path class="cls-7" d="M110.65,100.05a30.24,30.24,0,0,0,30.09,1.25c2.8-1.49,5-4.29,7.77-5.51l-3.78,1c1.58,0,3.75,1.67,5.13,2.4,2.28,1.2,4.54,2.42,6.75,3.72a63.67,63.67,0,0,1,10.87,7.68c6.09,5.55,11,12.92,10.52,21.45-.44,8.78-5.79,16.7-10.85,23.53-6.12,8.25-12.81,16.1-19.23,24.11h10.6l-5.5-5c-.73-.66-4.58-5.09-3.72-2.83v4q-2.51,2.85.24.69l1.39-1c1.43-1,2.84-2.09,4.23-3.19a79.22,79.22,0,0,0,19.07-21.65c6.88-11.81,7.68-25.23-.77-36.44-7.1-9.41-19.19-17.85-31.31-18.14-6.67-.16-11,3.52-17,5.58-4.4,1.52-10.88.62-10.75-5.17.2-9.66-14.8-9.66-15,0-.33,15.57,16,24,29.74,19.63,6.66-2.14,10.73-6.74,18-3.85a34.41,34.41,0,0,1,14.45,11.06c8.68,11.89-3.29,25.89-12,34-4.68,4.37-13.35,7.79-14.85,14.48-1.8,7.95,8.09,13.91,13.08,18.44,2.74,2.5,8,3.29,10.6,0,17.34-21.6,46.94-49.83,28.58-79.46C179.29,98.24,166,90.18,152.87,83.9c-3.93-1.89-7.72-3-11.93-1.06-2.55,1.16-4.24,3.35-6.56,4.83-5.06,3.22-11.3,2.61-16.16-.57-8.1-5.3-15.63,7.68-7.57,13Z" transform="translate(-0.01)"/></g></g><g id="Layer_3" data-name="Layer 3"><path class="cls-5" d="M113,13.63a22.92,22.92,0,0,0-8.91,12c-1.51,4.9-1.13,10.92,3.2,14.29a8.43,8.43,0,0,0,7.24,1.71.5.5,0,0,0-.27-1,7.3,7.3,0,0,1-6-1.24,9.31,9.31,0,0,1-3.69-5.6c-1.12-4.73.63-9.87,3.32-13.78a21.69,21.69,0,0,1,5.6-5.58c.52-.37,0-1.23-.51-.87Z" transform="translate(-0.01)"/><path class="cls-5" d="M117.28,3.88c-4.75-1.49-9.76.41-13.64,3.17a35.36,35.36,0,0,0-9.45,10.38A44.16,44.16,0,0,0,88.93,30.5a33,33,0,0,0-1,6.91,24.81,24.81,0,0,0,.94,6.74A31.66,31.66,0,0,0,96.52,57.6c.44.46,1.15-.25.7-.71a30.65,30.65,0,0,1-6.88-11.4A25.77,25.77,0,0,1,89,39a25.74,25.74,0,0,1,.54-6.49c1.68-8.81,5.91-17.32,12.81-23.18,4-3.35,9.4-6.14,14.67-4.49.62.19.88-.77.27-1Z" transform="translate(-0.01)"/><path class="cls-5" d="M119.17,3.3a20.94,20.94,0,0,1,17.17.07A23.42,23.42,0,0,1,143.78,9a44.39,44.39,0,0,1,5.58,7.5,39.6,39.6,0,0,1,5.6,17.8,32.59,32.59,0,0,1-3.49,16.6A28.92,28.92,0,0,1,138.33,64c-.58.28-.08,1.14.5.87,10.77-5.12,17.2-17,17.18-28.7a39.66,39.66,0,0,0-4.87-18.52,46.21,46.21,0,0,0-5.42-7.94,27.88,27.88,0,0,0-7.5-6.53,22,22,0,0,0-19.55-.75c-.58.26-.08,1.13.5.86Z" transform="translate(-0.01)"/><path class="cls-5" d="M146.6,59.12c3.27-.42,4.9,3,5.14,5.72a8.33,8.33,0,0,1-.55,4.53A7,7,0,0,1,148.57,72,18.86,18.86,0,0,1,145,73.64a14.44,14.44,0,0,1-4.14,1,5.54,5.54,0,0,1-3.71-1,5.6,5.6,0,0,1-2-3.49,14.85,14.85,0,0,1,0-3.94,11.59,11.59,0,0,1,.85-4c.27-.58-.59-1.09-.87-.51a12.25,12.25,0,0,0-.93,4,18.15,18.15,0,0,0-.08,4.23,6.25,6.25,0,0,0,5.8,5.72,12.53,12.53,0,0,0,4.8-.81A22.37,22.37,0,0,0,148.76,73a8.37,8.37,0,0,0,3.16-2.92,8.46,8.46,0,0,0,.85-4.85,8.89,8.89,0,0,0-1.73-5.2,5.05,5.05,0,0,0-4.44-1.94c-.63.08-.64,1.08,0,1Z" transform="translate(-0.01)"/><path class="cls-5" d="M118,45.51a10.65,10.65,0,0,1,4.47-2.26c.62-.14.36-1.11-.27-1a11.69,11.69,0,0,0-4.9,2.51.5.5,0,0,0,0,.71.51.51,0,0,0,.7,0Z" transform="translate(-0.01)"/><path class="cls-5" d="M111.63,53.44a6.85,6.85,0,0,1,.06,2.43,2.58,2.58,0,0,1-.49,1.06c-.3.36-.67.63-1,1a1.58,1.58,0,0,0,.07,2.17,2.57,2.57,0,0,0,2.18.27c.63-.13.36-1.1-.27-1-.34.08-1.24.26-1.37-.23a1,1,0,0,1,.32-.8,12.49,12.49,0,0,0,.87-.92c.93-1.22.75-2.85.55-4.28a.52.52,0,0,0-.62-.35.54.54,0,0,0-.35.62Z" transform="translate(-0.01)"/><path class="cls-5" d="M132.08,66.29c.23,2.71.11,5.46.59,8.15a9,9,0,0,0,1.79,3.9,7.49,7.49,0,0,0,1.88,1.76,3,3,0,0,1,.49.29c.29.27.13.54,0,.83-.23.45-.49.89-.74,1.33-1.85,3.27-4.51,7-8.68,7a11.77,11.77,0,0,1-5.86-1.77,15,15,0,0,1-2.36-1.67,6.86,6.86,0,0,1-1-.9c-.32-.4.23-.61.51-.87a6.71,6.71,0,0,0,.46-9c-.41-.5-1.12.21-.71.7a5.51,5.51,0,0,1,1.12,4.53,5.63,5.63,0,0,1-.88,2.2,4.48,4.48,0,0,1-.76.87c-.28.26-.65.47-.81.84-.36.83.46,1.53,1,2a17.53,17.53,0,0,0,2.34,1.77,14.15,14.15,0,0,0,5.67,2.15c4.21.53,7.48-2.25,9.65-5.58.58-.88,1.1-1.8,1.61-2.73.37-.68.89-1.58.33-2.31a3.86,3.86,0,0,0-1-.7,6.39,6.39,0,0,1-1.12-1,8.57,8.57,0,0,1-1.53-2.41,14.33,14.33,0,0,1-.8-4.73c-.09-1.6-.1-3.2-.24-4.79-.06-.64-1.06-.65-1,0Z" transform="translate(-0.01)"/><path class="cls-5" d="M130.38,201.63a60.1,60.1,0,0,0,2.35-17c.09-5.84-.21-11.68-.4-17.51L132,158a32.51,32.51,0,0,0-.57-6.15,9.65,9.65,0,0,0-2-4.26,8.33,8.33,0,0,0-4.26-2.49,23.16,23.16,0,0,0-3.51-.49c-1.52-.15-3-.28-4.57-.4q-4.5-.34-9-.59c-6-.32-12.12-.51-18.18-.66s-12.13-.38-18.18-.25c-5.17.11-10.26.87-15.39,1.35-1.78.16-3.57.35-5.33.67a15.35,15.35,0,0,0-4.9,1.61,5.11,5.11,0,0,0-2.53,3.84,32.58,32.58,0,0,0-.31,3.27c-.06,1.16-.2,2.29-.34,3.44A152.51,152.51,0,0,0,42.81,193c.53,4.59.86,10.07,4.13,13.66,3.45,3.8,9.24,3.74,14,4.1q18.17,1.39,36.41,1.55c5.83.06,11.7.14,17.52-.2,5.3-.31,10.66-1.16,15.42-3.61,4.59-2.35,8.34-6,11.59-10a53,53,0,0,0,4.4-5.41c.88-1.41,1.62-3.32,0-4.55a6.25,6.25,0,0,0-4.69-.85c-.63.1-.37,1.06.27,1,1.24-.19,3.64-.17,4.26,1.22.37.81-.2,1.78-.61,2.47a19.19,19.19,0,0,1-2.11,2.8c-3.14,3.65-6.17,7.43-10.1,10.27-8.82,6.38-20.17,5.89-30.55,5.9q-17.42,0-34.81-1.09c-2.89-.18-5.77-.39-8.66-.61a33.8,33.8,0,0,1-7.36-1.08,9.27,9.27,0,0,1-5.4-4.14,18.57,18.57,0,0,1-2-6.37,132,132,0,0,1-1.58-16.83,152.2,152.2,0,0,1,.34-17.35c.21-2.85.54-5.68.89-8.51.24-2,.07-4.1.68-6a4.65,4.65,0,0,1,3.11-2.74A23,23,0,0,1,53,145.43c1.58-.22,3.16-.34,4.75-.5,2.53-.26,5.05-.61,7.59-.85a154.69,154.69,0,0,1,17.36-.26c11.59.23,23.19.51,34.74,1.43,1.44.12,2.88.24,4.32.38a19,19,0,0,1,3.35.51,7,7,0,0,1,3.9,2.56c2.23,3.07,1.92,7.46,2,11,.19,5.76.39,11.52.56,17.27a101.37,101.37,0,0,1-.54,16.62,47.36,47.36,0,0,1-1.69,7.73c-.19.62.77.88,1,.27Z" transform="translate(-0.01)"/><path class="cls-5" d="M117.39,85a79.26,79.26,0,0,0-28.16,15.43,78.62,78.62,0,0,0-25.68,43.15c-.14.63.83.9,1,.27a78,78,0,0,1,13.06-29.33,77.47,77.47,0,0,1,40.09-28.55.5.5,0,0,0-.27-1Z" transform="translate(-0.01)"/><path class="cls-5" d="M90.93,124.64c.69,3.13.66,6.36,1.07,9.52a73.17,73.17,0,0,0,2,9.25.5.5,0,0,0,1-.27,66.45,66.45,0,0,1-2-9.45c-.37-3.1-.37-6.25-1-9.31-.14-.63-1.1-.36-1,.26Z" transform="translate(-0.01)"/><path class="cls-5" d="M137.87,81a84,84,0,0,1,25,12.13,74.48,74.48,0,0,1,19.65,20c5.36,8.34,8.46,18.23,7,28.19a43.58,43.58,0,0,1-5,14.11,93.59,93.59,0,0,1-7.78,12.29c-6.23,8.33-14.06,15.14-21.66,22.18l-3,2.77c-.47.44.24,1.14.71.71,4.08-3.78,8.19-7.55,12.25-11.35a107.7,107.7,0,0,0,10.61-11.28A95,95,0,0,0,184,158.54a52.46,52.46,0,0,0,5.94-13.86c2.33-9.92.2-20.13-4.68-28.94-4.62-8.35-11.4-15.47-18.9-21.29a84.94,84.94,0,0,0-24.78-13.36c-1.12-.39-2.25-.74-3.39-1.08a.5.5,0,0,0-.27,1Z" transform="translate(-0.01)"/><path class="cls-5" d="M167.26,130.43a49.05,49.05,0,0,1-9.59,18.37,136,136,0,0,1-15.32,15.88q-5,4.55-10.3,8.76c-.5.4.21,1.11.71.71a204.17,204.17,0,0,0,17.88-16,80.53,80.53,0,0,0,13.18-16.59,43.4,43.4,0,0,0,4.41-10.85.5.5,0,0,0-1-.26Z" transform="translate(-0.01)"/><path class="cls-5" d="M132.42,176.34c2.37-.1,4.73,1.19,6.76,2.27a27.94,27.94,0,0,1,5.58,3.87,19,19,0,0,1,6.36,11.57c.08.63,1.08.64,1,0-.93-7.68-6.7-13.47-13.37-16.78-1.95-1-4.1-2-6.33-1.93-.64,0-.64,1,0,1Z" transform="translate(-0.01)"/><path class="cls-5" d="M145.31,182.65a49.78,49.78,0,0,1-14.15,12.81c-.54.35,0,1.21.51.87a51.17,51.17,0,0,0,14.51-13.18c.37-.52-.5-1-.87-.5Z" transform="translate(-0.01)"/><path class="cls-5" d="M132.89,190.44a10.38,10.38,0,0,0,3.18-2.83.51.51,0,0,0-.18-.69.51.51,0,0,0-.68.18l-.08.1h0l0,0-.16.2-.31.36c-.23.24-.46.47-.71.69l-.36.3-.1.08,0,0-.19.14c-.27.19-.55.37-.85.54a.5.5,0,1,0,.51.86Z" transform="translate(-0.01)"/><path class="cls-5" d="M158.85,120.7c4.6,3,7.7,8.43,7.12,14-.07.64.93.63,1,0,.62-5.93-2.74-11.68-7.61-14.89-.54-.35-1,.51-.51.87Z" transform="translate(-0.01)"/><path class="cls-5" d="M96.38,57.38a79.68,79.68,0,0,0,6.44,10.49,18.14,18.14,0,0,0,9.45,6.56c3.87,1.08,8.37,1.23,12.06-.51a19.55,19.55,0,0,0,4.57-3.17,36.22,36.22,0,0,0,4.27-4.4c2.54-3.18,4.18-6.94,6.43-10.31a29.92,29.92,0,0,1,1.88-2.48,8.75,8.75,0,0,0,1.59-2.48,9.77,9.77,0,0,0,.21-5.44,7.3,7.3,0,0,0-2.45-4.17,7.2,7.2,0,0,0-5.23-1.18,41.84,41.84,0,0,1-5.79.63,11,11,0,0,1-4.93-1.45,13.9,13.9,0,0,1-6.37-8.08,19.54,19.54,0,0,1,.69-12.13,25.76,25.76,0,0,1,1.23-2.85c.29-.57-.57-1.08-.86-.5-3.32,6.59-4.15,15.08.84,21.09a13.41,13.41,0,0,0,8.27,4.81,18,18,0,0,0,5.37-.31c1.88-.29,4-.58,5.71.44a6.14,6.14,0,0,1,2.59,4.14,7.7,7.7,0,0,1-.74,5.67c-.55.85-1.26,1.58-1.87,2.38s-1.13,1.58-1.65,2.41c-1.07,1.72-2,3.51-3.05,5.25a33.69,33.69,0,0,1-7.68,9,15.26,15.26,0,0,1-4.78,2.8,16,16,0,0,1-6.24.58,17.17,17.17,0,0,1-10.93-4.84c-2.71-2.69-4.59-6.08-6.45-9.38-.58-1-1.15-2-1.72-3a.5.5,0,0,0-.86.5Z" transform="translate(-0.01)"/><ellipse class="cls-5" cx="105.35" cy="52.28" rx="1.5" ry="2.84" transform="translate(-5.73 13.63) rotate(-7.21)"/><ellipse class="cls-5" cx="119.94" cy="51.55" rx="1.5" ry="2.92" transform="translate(-3.37 8.65) rotate(-4.07)"/><path class="cls-5" d="M102.15,45.29a6.16,6.16,0,0,1,3.51,1.29.5.5,0,0,0,.69-.17.53.53,0,0,0-.18-.69,7,7,0,0,0-4-1.43.5.5,0,0,0-.5.5.51.51,0,0,0,.5.5Z" transform="translate(-0.01)"/><path class="cls-5" d="M97.39,56.93c-2-2.65-1.79-6.23-1.74-9.38a18.3,18.3,0,0,1,1.84-7.83,30.29,30.29,0,0,1,3.8-5.77c.41-.5-.3-1.21-.7-.71a25.54,25.54,0,0,0-5.42,9.91,29.23,29.23,0,0,0-.48,7.53,11.54,11.54,0,0,0,1.84,6.76c.38.51,1.25,0,.86-.51Z" transform="translate(-0.01)"/><path class="cls-5" d="M145.55,192.61a10.89,10.89,0,0,0,5.68,2.15.5.5,0,1,0,0-1,10,10,0,0,1-5.17-2,.5.5,0,1,0-.51.86Z" transform="translate(-0.01)"/><path class="cls-5" d="M161.55,184.82q14.41-.31,28.83-.48t28.7-.17q7.24,0,14.48,0c.55,0,1.12,0,1.67,0,.7.07.78.55.62,1.13a16.54,16.54,0,0,1-1.26,2.74q-1.43,2.86-3.05,5.64a166.69,166.69,0,0,1-14.95,20.85c-2.56,3.15-5.19,6.24-7.73,9.4-2.4,3-4.73,6-7.13,9-.54.67-1.08,1.33-1.63,2-.4.49.3,1.2.71.71,2.48-3,4.85-6.05,7.26-9.08,2.53-3.2,5.17-6.32,7.75-9.48a188,188,0,0,0,15.56-21.15c1.13-1.85,2.21-3.74,3.22-5.67.51-1,1-2,1.49-3a5.86,5.86,0,0,0,.84-2.48,1.55,1.55,0,0,0-1.4-1.56,25.41,25.41,0,0,0-3.6-.05l-7.36,0q-14.85,0-29.7.11t-29.58.45l-3.74.08a.5.5,0,0,0,0,1Z" transform="translate(-0.01)"/><path class="cls-5" d="M41.83,182.78c-3.77-.19-6.82,2.39-9.24,5a130,130,0,0,0-8.75,10.56C18.16,205.88,13.23,214,8.21,222,7.06,223.8,6,225.7,4.74,227.48c-.8,1.15-1.75,2.2-2.52,3.38a5.26,5.26,0,0,0-1.16,3.38c.21,1.4,1.67,2.18,2.87,2.63,4.21,1.58,8.89,1.44,13.31,1.51q7.31.12,14.62.29,14.73.36,29.44.91c9.78.37,19.53,1,29.3,1.56,4.84.26,9.69.47,14.55.55s9.7-.09,14.56-.2q14.65-.33,29.32-.16,7.33.07,14.66.28c4.9.13,9.8.43,14.7.34a47.52,47.52,0,0,0,10.9-1.1,37.79,37.79,0,0,0,9.16-3.45,7,7,0,0,0,2.73-2.27.5.5,0,0,0-.86-.51A7.46,7.46,0,0,1,197,237a35,35,0,0,1-4.1,1.7,37.43,37.43,0,0,1-10.2,2.11c-4.37.25-8.73.12-13.1,0q-7-.24-14.06-.37-14.07-.25-28.14-.07c-9.4.13-18.78.52-28.18.19s-18.61-1-27.92-1.53-18.67-.76-28-1-18.69-.48-28-.63a54.69,54.69,0,0,1-6.89-.41c-1.83-.27-4.44-.61-5.82-2-1.14-1.11-.14-2.64.57-3.71s1.6-2.07,2.36-3.14c1.21-1.7,2.25-3.55,3.35-5.32l3.69-5.87c2.36-3.75,4.73-7.49,7.21-11.15,2.6-3.83,5.32-7.57,8.25-11.16q2.14-2.64,4.41-5.17a24.49,24.49,0,0,1,4.18-4,8.25,8.25,0,0,1,5.23-1.71c.64,0,.64-1,0-1Z" transform="translate(-0.01)"/><path class="cls-5" d="M1.17,233.24a4.41,4.41,0,0,0-.89,4.58A6.36,6.36,0,0,0,4,241.62a22.48,22.48,0,0,0,6.5,1.3c2.61.28,5.22.46,7.84.6,5.25.26,10.5.32,15.76.44s10.77.28,16.15.46c10.67.37,21.34.84,32,1.34,9.56.45,19.13,1.07,28.71,1.18,9.16.12,18.32,0,27.47-.07h3.86a.5.5,0,0,0,0-1c-9.16,0-18.32.15-27.48.12-8.86,0-17.68-.5-26.53-.93-10.38-.5-20.77-1-31.16-1.38s-20.71-.64-31.08-.88c-5.09-.13-10.2-.31-15.27-.84-3.57-.37-9.59-.85-9.82-5.62A3.08,3.08,0,0,1,1.88,234a.5.5,0,0,0-.71-.71Z" transform="translate(-0.01)"/><path class="cls-5" d="M142.34,246.86l28.95.14c4.7,0,9.41.14,14.11,0a29.15,29.15,0,0,0,12.29-2.61c7-3.42,12.09-9.74,17-15.52A131.1,131.1,0,0,0,229,209.59a57.62,57.62,0,0,0,7.7-21.79c.12-1,.21-2,.27-3,0-.65-1-.64-1,0a53.57,53.57,0,0,1-6.6,22.05,114,114,0,0,1-13.55,19.26c-2.48,3-5,5.92-7.65,8.73a43.82,43.82,0,0,1-8.62,7.41,25,25,0,0,1-11.64,3.65c-4.55.33-9.15.12-13.71.1l-28.33-.13-3.49,0a.5.5,0,0,0,0,1Z" transform="translate(-0.01)"/><path class="cls-5" d="M84.78,169.05c-1.19-1-.79-2.88.14-3.92A4.67,4.67,0,0,1,89.38,164l-.12-.91A15.9,15.9,0,0,0,84,169.44a.52.52,0,0,0,.18.69.5.5,0,0,0,.68-.18,15,15,0,0,1,4.87-6,.51.51,0,0,0-.12-.91,5.62,5.62,0,0,0-5.56,1.56c-1.17,1.42-1.59,3.86,0,5.19.49.41,1.2-.3.71-.71Z" transform="translate(-0.01)"/><path class="cls-5" d="M85.41,174.18a4.73,4.73,0,0,0-6.81.91,6.82,6.82,0,0,0,0,7.67,4.89,4.89,0,0,0,2.93,1.79,4,4,0,0,0,1.55,0c.79-.16,1.45-.71,2.28-.44a7.55,7.55,0,0,0,1.87.53,4.34,4.34,0,0,0,4.49-3.12,1.12,1.12,0,0,0-.69-1.39,3.06,3.06,0,0,1-1.45-1.6c-.65-1.65.09-3.38,1.06-4.72a.51.51,0,0,0-.3-.74,6.25,6.25,0,0,0-5.36,1.4c-.49.43.22,1.13.71.71A5.13,5.13,0,0,1,90.08,174l-.3-.74c-1.28,1.78-2,4.16-.83,6.19a4.07,4.07,0,0,0,1,1.11,4.48,4.48,0,0,0,.56.36c.35.19.31.33.15.7a3.4,3.4,0,0,1-2.75,2,3.8,3.8,0,0,1-1.7-.27A3.08,3.08,0,0,0,84.6,183a16.6,16.6,0,0,0-1.69.54,3.14,3.14,0,0,1-1.61-.09c-2.41-.74-3.18-3.44-2.72-5.69a4.5,4.5,0,0,1,2.11-3.24,3.73,3.73,0,0,1,4,.36c.5.39,1.21-.31.71-.71Z" transform="translate(-0.01)"/><path class="cls-5" d="M180.2,163.3a90.5,90.5,0,0,0,.42,20.74c.08.64,1,.37,1-.26a89.94,89.94,0,0,1-.38-20.48c.06-.65-.94-.64-1,0Z" transform="translate(-0.01)"/></g></g></svg>