<svg xmlns="http://www.w3.org/2000/svg" viewBox="0 0 169.88 93.33"><defs><style>.cls-1{opacity:0.29;}.cls-2{fill:#c8e9f1;}.cls-3{fill:#333;}</style></defs><title>구름2</title><g id="Layer_2" data-name="Layer 2"><g id="Layer_8" data-name="Layer 8"><g class="cls-1"><path class="cls-2" d="M101.51,13.75c-5.48-2-9-5.82-13.37-9.46A22.41,22.41,0,0,0,84,1.56,61.91,61.91,0,0,0,66.89.14,39.73,39.73,0,0,0,46,7.56c-5.2,3.86-9.39,8.74-14.37,12.82-4.76,3.9-10.39,4.56-16,6.71C8.82,29.74,2.72,34.57.67,41.94c-2,7.19.49,15,7.05,19a22.7,22.7,0,0,0,7.78,2.72c1.27.23,5.49.68,5.75.91a9.5,9.5,0,0,0,5.29,2.31c1.54-3.75-2.67-8.86-2.09-14.53,1-9.55,8.83-11,16.52-12.4a13.83,13.83,0,0,0,2.42-2.1c2.45-2.76,4-6.16,6.56-8.87a39.28,39.28,0,0,1,9.24-7.39c4.66-2.65,10.11-2.79,15.33-2.35A109.59,109.59,0,0,1,89,21.67c4,.14,8.08.76,12.35.75C107.83,22.4,114,18.65,119,14A29.26,29.26,0,0,1,101.51,13.75Z"/><path class="cls-2" d="M22.2,44.48a1.31,1.31,0,0,1,.69.16,1,1,0,0,0-.25,0C22,44.53,21.89,44.47,22.2,44.48Z"/></g></g><g id="Layer_6" data-name="Layer 6"><path class="cls-3" d="M7.88,36.92A18.27,18.27,0,0,0,1.47,51.73a13.77,13.77,0,0,0,2.39,7.42,11.71,11.71,0,0,0,6.83,4.43c5.92,1.49,14.62-.35,17.85,6.25.87,1.77,1.27,3.73,2,5.55a24.36,24.36,0,0,0,2.15,4.19,26.66,26.66,0,0,0,6.41,6.82,28.2,28.2,0,0,0,17.8,5.71,26.21,26.21,0,0,0,9.64-2.35c3.85-1.68,7.63-3.65,12-3.11,4.12.51,7.83,2.65,11.62,4.2a33.48,33.48,0,0,0,23.71.62c3.93-1.38,7.25-3.74,10.91-5.65a20,20,0,0,1,6.2-2.07,55.65,55.65,0,0,1,6.83-.41,44.21,44.21,0,0,0,11.15-1.59c6.82-2,13.23-5.88,17.24-11.84a22.75,22.75,0,0,0,3-18.1,19.13,19.13,0,0,0-4.16-8,16.25,16.25,0,0,0-3.47-2.93c-1.64-1-3.45-1.74-5.11-2.74a10.14,10.14,0,0,1-4-4.35c-.81-1.66-1.35-3.44-2.1-5.13a28.88,28.88,0,0,0-5.15-7.74,33.59,33.59,0,0,0-15.82-9.43A31.23,31.23,0,0,0,111,12a50.73,50.73,0,0,0-4.88,2.18c-2,.95-4.23,1.9-6.47,1.4-1.95-.43-3.47-1.84-4.91-3.15a39.93,39.93,0,0,0-4.3-3.46A38.33,38.33,0,0,0,69.49,2.31C62.34,2.18,54.85,4,49.16,8.48c-5,3.93-8.16,9.58-12.29,14.32a22.68,22.68,0,0,1-8.81,6.61c-3.32,1.3-6.85,1.87-10.27,2.8a27.23,27.23,0,0,0-9.91,4.71c-.5.4.21,1.1.71.71A27.37,27.37,0,0,1,19,32.93a69,69,0,0,0,10-2.82c6.3-2.66,10.14-8.43,14.13-13.68a40.66,40.66,0,0,1,6.12-6.72,26.26,26.26,0,0,1,9.3-4.91,36.82,36.82,0,0,1,21.65.27,36.45,36.45,0,0,1,9.94,4.87,47.38,47.38,0,0,1,4.45,3.67,12.1,12.1,0,0,0,4.32,2.78c3.93,1.21,7.57-1.5,11-2.94a27.74,27.74,0,0,1,8.8-2c12.29-.83,25.2,5.91,30.54,17.21,1.52,3.22,2.25,7,5.16,9.32,2.76,2.24,6.32,3.12,8.94,5.59,4.52,4.26,6.16,10.9,5.34,16.92-.92,6.82-5.19,12.5-10.87,16.2A34.4,34.4,0,0,1,148,81a47.07,47.07,0,0,1-11.21,1.38,46.57,46.57,0,0,0-6.36.47,20.23,20.23,0,0,0-5.67,1.88c-3.69,1.84-7,4.3-10.9,5.71a32.89,32.89,0,0,1-23.56-.59C86.56,88.3,83,86.29,79,85.7s-7.6.79-11.2,2.41a29.28,29.28,0,0,1-10,3,26.2,26.2,0,0,1-9.23-1,27,27,0,0,1-15-11,22.77,22.77,0,0,1-2.12-4.14c-.68-1.77-1.1-3.63-1.9-5.36a9.79,9.79,0,0,0-7-5.37c-5.73-1.37-13,.06-17.28-4.85C1.65,55.21,1.87,48.77,3.89,44a16,16,0,0,1,4.7-6.34C9.09,37.23,8.38,36.53,7.88,36.92Z"/></g></g></svg>