<svg xmlns="http://www.w3.org/2000/svg" viewBox="0 0 192.68 97.11"><defs><style>.cls-1{opacity:0.29;}.cls-2{fill:#c8e9f1;}.cls-3{fill:#333;}</style></defs><title>구름1</title><g id="Layer_2" data-name="Layer 2"><g id="Layer_8" data-name="Layer 8"><g class="cls-1"><path class="cls-2" d="M95.77,6.21c-4.34-.84-8.45-3.4-12.62-5.38-2.52,0-5,.12-7.51.37A11.34,11.34,0,0,1,72,3.43,36.17,36.17,0,0,0,59.5,11.11c-3.32,3.18-4.57,6.77-7.08,10.51-3.92,5.84-10.37,8.25-17.05,5.81-2.38-.87-4.49-2.57-6.92-3.21-1.88-.49-4.17-.25-6.13-.24a9.46,9.46,0,0,1-1.2-.06,24.19,24.19,0,0,0-4.57.8,22.14,22.14,0,0,0-15,14.44c-3.93,12-1.08,35.61,16.08,32.55a7.32,7.32,0,0,0,3.72-1.89,36.91,36.91,0,0,0,2.1-4,2.31,2.31,0,0,0,.22-.53A15,15,0,0,0,22.35,63a19.11,19.11,0,0,1-3-9.92,11.22,11.22,0,0,1-.22-3.76,14.87,14.87,0,0,1,.09-2.6c.32-2.27,1.24-3.27,2.71-3.72,2.88-3.09,7.44-4.19,11.88-4,6.5.23,11.68.1,17.9-2.14.94-.34,1.85-.72,2.76-1.12l1-.81c7-5.66,12-13.54,21.45-15a58.3,58.3,0,0,1,6.43-.63c3-1.12,6.09-2.09,9.41-3A32.23,32.23,0,0,0,110.38,4.36,22.47,22.47,0,0,1,95.77,6.21Z"/></g></g><g id="Layer_6" data-name="Layer 6"><path class="cls-3" d="M16.48,26.23A27.2,27.2,0,0,0,2.58,44.29a25.34,25.34,0,0,0,5,21.95,27.28,27.28,0,0,0,21,10.15c4.9,0,10.41-1.87,15,.53a17.73,17.73,0,0,1,5.22,4.73,59.86,59.86,0,0,0,4.1,4.62C58.63,91.88,66.25,96.36,74.37,97a19.86,19.86,0,0,0,11-2.13c3.65-2,6.29-5.68,10.21-7.12a7.28,7.28,0,0,1,6.44.9c1.93,1.13,3.73,2.41,5.75,3.38a37,37,0,0,0,12,3.41,38,38,0,0,0,24.15-5.35,62.5,62.5,0,0,0,5.08-3.78c2.07-1.6,4.27-2.83,7-2.59,2.47.22,4.82,1.19,7.27,1.54a26.35,26.35,0,0,0,5.82.16,27,27,0,0,0,19.61-10.78,23.24,23.24,0,0,0,2.67-21.16,22.88,22.88,0,0,0-5.81-9.08,19.38,19.38,0,0,0-4.42-3.14c-1.93-1-4-1.67-6-2.66a10.21,10.21,0,0,1-4.86-4.72c-1-2-1.52-4.29-2.35-6.41a39.23,39.23,0,0,0-5.31-9.39A45.74,45.74,0,0,0,145.9,4.73,47.58,47.58,0,0,0,125,0,41.4,41.4,0,0,0,114.3,1.51a38,38,0,0,0-5,1.81c-2.17.95-4.21,2.24-6.46,3a10.27,10.27,0,0,1-7.26-.24c-2.3-.87-4.43-2.12-6.74-3A30.88,30.88,0,0,0,62.71,5.7a19.48,19.48,0,0,0-6.34,6.82c-1.8,2.94-3.25,6.08-4.89,9.11-1.33,2.45-2.84,5.38-5.28,6.91-2.6,1.62-6,.74-8.66-.17-3.44-1.16-6.74-2.73-10.31-3.43a16.75,16.75,0,0,0-10.75,1.29c-.58.28-.07,1.14.5.86a16.41,16.41,0,0,1,11.64-.8c3.38.91,6.54,2.46,9.9,3.44,2.52.73,5.51,1.17,7.92-.18s3.87-3.84,5.16-6.08c1.66-2.91,3.07-6,4.71-8.87,1.55-2.74,3.33-5.66,6-7.46A29.68,29.68,0,0,1,88,3.92c4.34,1.47,8.41,4.71,13.22,3.88a23.56,23.56,0,0,0,6.47-2.61A38,38,0,0,1,112.75,3,41.77,41.77,0,0,1,133.83,1.8c14,2.68,27.22,11.91,32.82,25.3,1.57,3.77,2.16,8.21,5.53,10.89s7.51,3.25,10.84,5.69c6,4.37,9,12,8.64,19.33-.43,7.85-5.26,14.54-12.07,18.26a27,27,0,0,1-11.37,3.24,25,25,0,0,1-5.79-.35c-2.3-.42-4.52-1.31-6.87-1.44-4.68-.24-7.82,3.63-11.39,6a35.41,35.41,0,0,1-11.44,4.94A37.06,37.06,0,0,1,108,91.08c-1.92-1-3.65-2.18-5.5-3.26a8.66,8.66,0,0,0-5.61-1.41c-4.06.57-6.89,4.14-10,6.39-6.68,4.75-15.25,3.79-22.31.43a40.22,40.22,0,0,1-10.31-7.1,48.49,48.49,0,0,1-4.12-4.48A25.91,25.91,0,0,0,45.61,77c-4-3-8.91-2.3-13.55-1.85a26.76,26.76,0,0,1-12.2-1.33A26.39,26.39,0,0,1,3.72,56.77c-2.16-7.66-.15-16.1,4.59-22.4A24.9,24.9,0,0,1,17,27.09C17.56,26.8,17.05,25.94,16.48,26.23Z"/></g></g></svg>