<svg xmlns="http://www.w3.org/2000/svg" viewBox="0 0 151.35 419.79"><defs><style>.cls-1{opacity:0.38;}.cls-2{fill:#3e8a40;}.cls-3{opacity:0.11;}.cls-4{fill:#5c3010;}.cls-5{fill:#333;}</style></defs><title>컨텍화분_1</title><g id="Layer_2" data-name="Layer 2"><g id="Layer_2-2" data-name="Layer 2"><g class="cls-1"><path class="cls-2" d="M129.52,108.74a9.78,9.78,0,0,0,1.16-3.13l-8.16-1.1q-.08,1-.18,2l-.06.56c.08-.58.1-.72,0-.4s-.11.66-.17,1a15.51,15.51,0,0,1-.51,1.89l-.09.26c-.17.42-.14.35.1-.22,0,.07-.4.76-.46.85s-.77,1.06-.08.21a15.9,15.9,0,0,0-1,1.32,7.1,7.1,0,0,0-1,2.54,17.38,17.38,0,0,0-.23,2.78,6,6,0,0,0,0,.84c.1-.64.11-.74,0-.29s-.1.35.12-.24l6.52-.84c-.4-.37,0,.09.15.26s.28.81.12.27c-.22-.72,0,.7,0,.19s-.24.77,0,.29a3.35,3.35,0,0,0,.16-.54c.14-.5-.35.62-.07.2s.44-.78.67-1.15.46-.7.7-1c.09-.12.24-.44.37-.5-.19.1-.42.52-.07.09s.61-.72.93-1.06c.14-.16.28-.31.43-.46,1.48-1.52-1.79,2.27-4.36-.39l-1.06-1.83c.18-1.67.15-2.16-.07-1.49l-.18.46c0,.11-.38,1-.16.42s-.13.3-.18.41c-.13.3-.27.59-.42.89a26.25,26.25,0,0,1-1.61,2.94c-.14.23-.57.73.09-.09-.42.52.46-.23.05,0a9.12,9.12,0,0,0-1.93,1.37,8.53,8.53,0,0,0-2.34,3.75,4.22,4.22,0,0,0,2.9,5.11l-.56-.26c.28.17.27.15,0-.07a3.12,3.12,0,0,1-.83-1.23,4.38,4.38,0,0,0,2.9,2.9,4.19,4.19,0,0,0,4-1.07,36.45,36.45,0,0,0,5.34-7,4.15,4.15,0,1,0-7.17-4.19c-.31.53-.64,1.07-1,1.58l-.53.78a3.78,3.78,0,0,1-.54.75l.27-.35-.39.49-.6.71c-.41.47-.84.93-1.27,1.38l6.94,1.83a6.59,6.59,0,0,0-4.37-4.24l2.9,5.11q.23-.63-.12.27a4,4,0,0,1,.27-.44l-.32.44a3.15,3.15,0,0,1,.37-.36c-.48.37-.52.42-.13.16l.25-.15a10.09,10.09,0,0,0,1.58-1.17,14.42,14.42,0,0,0,2.56-3.83,44.64,44.64,0,0,0,2-4.58,5.07,5.07,0,0,0,.24-3.39,4.68,4.68,0,0,0-3.27-3.13c-2.45-.66-4.4.76-5.93,2.49a31.87,31.87,0,0,0-2.91,3.85c-2,3.21-2.85,7.67.27,10.55,1.84,1.69,5.29,1.66,6.52-.85a12.18,12.18,0,0,0,1.06-5.62c0-.47,0-.37,0,.28a3.46,3.46,0,0,1,.14-.53l-.2.5c.25-.38.21-.35-.13.1a13.77,13.77,0,0,0,1.65-2.37c1.55-3,1.92-6.29,2.18-9.61a4.12,4.12,0,0,0-3.6-4.08c-1.84-.25-4.23.93-4.55,3,0,.32-.16.64-.22,1s0,.19.17-.33a5,5,0,0,1-.27.51,4.15,4.15,0,0,0,7.17,4.19Z" transform="translate(-0.01 0)"/></g><g class="cls-1"><path class="cls-2" d="M141.8,128.19a7.44,7.44,0,0,0,4.07-3.24,22.84,22.84,0,0,0,1.48-3.49l-.42,1a11,11,0,0,1,1-1.79,12,12,0,0,0,1.25-2.54,21.13,21.13,0,0,0,.93-4.8l-8.16,1.1a16.68,16.68,0,0,1,.46,2.21l-.15-1.1a10.52,10.52,0,0,1,0,2.63l.15-1.1a7.36,7.36,0,0,1-.46,1.73l.42-1a6.76,6.76,0,0,1-.78,1.36l.65-.84a6.18,6.18,0,0,1-1,1l.84-.65a4.83,4.83,0,0,1-1.05.62l1-.41a4.79,4.79,0,0,1-1.05.28l1.1-.14c-.65.07-1.3.11-1.94.19a7.55,7.55,0,0,0-2.68.84,4.15,4.15,0,0,0,4.19,7.17l.31-.15-1,.42a4.64,4.64,0,0,1,.82-.19l-1.1.14c.92-.1,1.83-.13,2.74-.31a7.72,7.72,0,0,0,2.35-.94,9.71,9.71,0,0,0,3.44-3.56c1.79-3.22,1.62-7,.7-10.42a4.15,4.15,0,0,0-4.55-3,3.93,3.93,0,0,0-2.39,1.14l-.65.84a4.18,4.18,0,0,0-.56,2.1c0,.12,0,.24-.05.36l.15-1.1a14.58,14.58,0,0,1-.84,3.58l.42-1c-.39.88-1,1.59-1.46,2.42a32.3,32.3,0,0,0-1.41,3.39l.42-1a5.6,5.6,0,0,1-.68,1.16l.65-.84a3.47,3.47,0,0,1-.58.57l.84-.65a2.58,2.58,0,0,1-.42.25l1-.42a1.66,1.66,0,0,1-.31.12,4.38,4.38,0,0,0-2.48,1.91,4.15,4.15,0,0,0,4.69,6.09Z" transform="translate(-0.01 0)"/></g><g class="cls-1"><path class="cls-2" d="M109.29,5.05C95.85,16.94,79.36,28.4,68.62,42.91A37.65,37.65,0,0,0,61.3,66.12c0,3.64.62,7.28.47,10.91-.22,5.34-2.42,9.15-4.13,14.1-2.88,8.36-.48,13.2,2.62,20.69,1.42,3.4,1.12,6.23,4.43,8.78,3.67,2.84,8.35,2.77,12.43,1,3-1.31,4.89-3.83,7.61-5.49,3.23-2,7.26-2.5,10.63-4.26a23.75,23.75,0,0,0,8-6.65c2.24-2.92,3.4-6.78,6.2-9.18,5.07-4.36,11.37-5.49,15-11.79,4.63-7.95.07-15.91,2.7-23.75,2.14-6.37,7.32-10.7,8.49-17.7a26.06,26.06,0,0,0-7.34-22.13c-13.83-13.53-27.12,6.41-36.72,15.15-13.5,12.28-17.8,26.68-22,43.92-1.86,7.66-6.41,18.3.69,24.73,8.25,7.45,17.34-.42,23.09-6.72,13.33-14.6,21.25-32.86,30.9-49.87,6.34-11.17-10.87-21.23-17.21-10.06-5.1,9-9.66,18.26-14.82,27.21a136.5,136.5,0,0,1-7.88,12.39,74,74,0,0,1-5.08,6.24c-1.23,1.33-5.89,3.9-2,3.8l7,2.92-.86-1,2.91,7c-.39-3.13,1.58-8,2.39-11.39,1-4.34,2-8.71,3.19-13,2.11-7.85,5.1-13.89,10.94-19.58,5.33-5.2,11.33-9.66,16.24-15.27.13-.13,2.58-3,2.54-3.07l-6.47,2.24a4,4,0,0,1,.77,2.6,46,46,0,0,1-4.06,8c-3.65,6-5.54,12.11-5.1,19.18.17,2.65,1.31,6.44-.29,8.64-1.41,1.94-6,3.26-8.07,4.65a27,27,0,0,0-7.27,7.23c-1.71,2.5-2.64,5.64-5,7.5s-6.69,2.32-9.6,3.75c-3.54,1.74-6.09,5-9.64,6.52l7.68-1-1.36-.23,6,4.58c2.84,5.46.57.09-.06-1.9-.48-1.54-1.46-2.88-2-4.38-1.71-4.68,1.07-7.85,2.64-12.56C83,79.51,79.41,70,81.62,60.73c1.93-8.11,10.64-14,16.53-19.27l25.23-22.32c9.62-8.51-4.51-22.57-14.09-14.09Z" transform="translate(-0.01 0)"/></g><g class="cls-3"><path class="cls-4" d="M30.91,314.78l83.89.39L91.58,284.68c-7,18.76-10,38-12.92,57.67C77.58,349.57,76,361,74.2,365.75c.73-1.91-2,3.64-2,3.56.42-.94,1.52-1,1.93-1.67-.89,1.44-3.65,1.21-.63.76,2.46-.37-3.25-.25-2.26-.13-1.68-.2-3.31-.76-5-1-2.56-.93-3.21-1-1.94-.31.87.54.69.45-.56-.27-1.75-1.1-1.52-.69.66,1.23a4.34,4.34,0,0,1,2.21,3.51c-.75-1.43-.92-3.12-.51-.39-1.28-8.51.2-18,.52-26.55a124.56,124.56,0,0,0,.07-15.09c-.44-5.29-2.53-10.64-2.83-15.83.16,2.75.73-3.18.74-3.92a39.75,39.75,0,0,0-1-10.32,34.28,34.28,0,0,0-9.48-16.53c-12.7-12.34-35.79-7.28-40.25,10.62l-.68,2.73L42.9,279.32l-1.71-.39L55.58,290l-1-1.41c-7.12-9.64-18.31-15-30.07-9.85S8.68,294.9,10.53,307.15c2,13,4.1,26,5.43,39.1,1.43,13.94.52,28.33,2.7,42.13,3.33,21.12,22.65,26.7,41,29,16.34,2.05,35.17,1.46,48.19-9.86C118,398.67,122,385.84,125,373.17c3.46-14.37,7.83-30.18,7.1-45.05-.79-16.15-9.2-30.1-23.73-37.55-14.28-7.31-34.56-12-47.29.82-7.18,7.25-10.16,17.65-10,27.66a103.26,103.26,0,0,0,1.89,14.85c.24,1.38.64,2.83.74,4.23-.24-3.33-.17.57-.3.62-1.08.47,3.19-5.9-.16-.12,1.37-2.37,4.27-4.25,5.36-6.57.52-1.09,3.18-.7.59-.87s-8,2.55-9.08,3.13a37.06,37.06,0,0,0-9.3,7.17c-.77.8-2,3.73-2,2.22a1.64,1.64,0,0,1,1.12-.65q5.41-2,11.33,1.48L60,353.18c2.42,3.86.1.23-.34-1.76-.31-1.66-.37-1.79-.18-.38l-.24-2.74c-.3-4.58-.58-9.16-.7-13.75a88.47,88.47,0,0,1,.27-12.4A31.78,31.78,0,0,1,61,314.92c5.9-11.59,3-26.12-8.64-32.95-10.74-6.28-27-3-32.95,8.64-8.84,17.38-9.7,35.84-8.45,54.94.65,10,1.36,21.34,6.47,30.28,6.9,12.06,20.43,17.22,33.74,14.06,8.3-2,18.89-7,23.81-14.35,2.07-3.07-7.84,2.71-1.74,1.9a26.19,26.19,0,0,0,8-3,34.34,34.34,0,0,0,11.52-9.53c6.15-7.81,8.84-17.35,9-27.25.06-5.07-1.05-10.19-1.91-15.19-.61-3.55-.82-3.22.27-6l-6.2,10.62q-22.25,2.21-13.39,4.15c1.07.26,2.14.55,3.2.88,4.1,1-.64-.64,1.43.51,8,4.45-3.17-2.43-1-3.2-.21.08-1.29,11.8-1.47,12.79-1,5.57-2.3,11.09-3.62,16.6-1,4.21-2,8.39-3.26,12.53-1.37,4.6,1.72-1.22-1.28,2.31,1-1.18,5.24-6.55,5.93-4,0,.13-13.58.29-14.79.19-5.31-.45-.14.45-5.31-.89-1.53-.4-7.89-3.54-3.89-1L65,376.65q1.41,10.69,1.05,4.23c0-2.1-.05-4.21-.11-6.31q-.12-4.72-.36-9.45-.6-11.89-2-23.73C61.8,325.66,59.34,310,57,294.34L13,312.9c4.65,6.3,9.28,11.08,17.14,12.86,12.44,2.83,26.35-3.72,29.62-16.82l.68-2.72L20.15,316.84q-3.62-14.2-3.67-7.2c-.07,1.56-.19,3.11-.35,4.67a56.34,56.34,0,0,0,1.33,12.06c1,4.88,1.41,6.27,1.25,11.95-.29,10.82-1.63,21.91-.74,32.71,1.21,14.61,6.78,27.63,19.42,35.92,10.17,6.66,24.75,9.73,36.79,9.57,28.08-.36,44.39-24.11,49-49.25,4.32-23.64,6.44-47.06,14.86-69.78,5.55-15-8.69-30.42-23.22-30.49l-83.89-.38c-13-.06-24.08,11.11-24.08,24.08a24.41,24.41,0,0,0,24.08,24.08Z" transform="translate(-0.01 0)"/></g><path class="cls-5" d="M1.89,271.26A63.54,63.54,0,0,0,1,297.45c.11.63,1.07.36,1-.27a62.36,62.36,0,0,1,1-25.66.5.5,0,0,0-1-.26Z" transform="translate(-0.01 0)"/><path class="cls-5" d="M2.09,298.64q13.23,3,26.69,4.74t27.12,2.39q13.7.6,27.39,0,13.53-.63,27-2.52t26.74-5.1l3.23-.8a.5.5,0,0,0-.27-1c-8.7,2.23-17.52,4-26.4,5.38s-18,2.32-27,2.84-18.08.63-27.12.34-18-1-27-2.07-17.9-2.57-26.75-4.45l-3.25-.71c-.63-.14-.9.83-.27,1Z" transform="translate(-0.01 0)"/><path class="cls-5" d="M2.6,271.83A169.67,169.67,0,0,0,29,277.6a259.83,259.83,0,0,0,26.87,2.26c9,.33,18.07.39,27.09.08a265.23,265.23,0,0,0,27.15-2.26,199.62,199.62,0,0,0,26.76-5.48c1.09-.3,2.17-.62,3.25-.94.61-.19.35-1.16-.27-1a193.8,193.8,0,0,1-26.39,5.9,253.84,253.84,0,0,1-27.24,2.62c-9,.4-17.92.41-26.87.16s-18-.8-26.89-1.91a174.89,174.89,0,0,1-26.34-5.24c-1.07-.3-2.14-.62-3.2-.95-.62-.19-.88.77-.27,1Z" transform="translate(-0.01 0)"/><path class="cls-5" d="M140,270.51c1.87,8.49,2.84,17.59-.37,25.89-.23.6.74.86,1,.26,3.26-8.45,2.27-17.76.37-26.42-.14-.62-1.11-.36-1,.27Z" transform="translate(-0.01 0)"/><path class="cls-5" d="M8.22,300.18q1.65,20.63,3.83,41.2t4.86,40.84q1.52,11.49,3.2,23c.1.64,1.06.37,1-.26q-3-20.42-5.46-40.89t-4.4-40.9q-1.08-11.46-2-22.95c-.05-.64-1.05-.65-1,0Z" transform="translate(-0.01 0)"/><path class="cls-5" d="M20.79,406.11a74.8,74.8,0,0,0,18.47,8.8,99.57,99.57,0,0,0,20.66,4.14,126.65,126.65,0,0,0,22.2.43,80.13,80.13,0,0,0,20-4,86.08,86.08,0,0,0,17.36-8.33l2.12-1.34c.54-.35,0-1.22-.51-.87a89.39,89.39,0,0,1-17,8.77,78.07,78.07,0,0,1-19.41,4.58,122,122,0,0,1-21.87.05,103.72,103.72,0,0,1-20.63-3.57,75.14,75.14,0,0,1-18.71-8.12c-.72-.45-1.44-.9-2.15-1.37-.54-.36-1,.51-.5.86Z" transform="translate(-0.01 0)"/><path class="cls-5" d="M134.6,298.85q-1.69,20.86-4.15,41.65t-5.73,41.58q-1.83,11.58-3.89,23.13c-.11.63.85.9,1,.27q3.69-20.67,6.6-41.46t5-41.56q1.2-11.79,2.16-23.61c.05-.64-.95-.63-1,0Z" transform="translate(-0.01 0)"/><path class="cls-5" d="M75.32,279.36a40.35,40.35,0,0,1-7-40c5.19-13.63,18.87-23,20.46-38.12,1.79-17-10-31.2-16.73-45.72A54.18,54.18,0,0,1,66.77,131a52.82,52.82,0,0,1,6.34-23.33c6.73-12.57,17.34-23.07,21.83-36.81a43.48,43.48,0,0,0,1.29-5c.12-.63-.84-.9-1-.27-2.82,14.59-13.55,25.68-21,38a57,57,0,0,0-8,21.62,52.9,52.9,0,0,0,2.31,24.37C74,165.44,86.92,178.81,87.9,196.16a29.26,29.26,0,0,1-1.8,12.08,46.29,46.29,0,0,1-5.27,9.64c-4.15,6.1-9.11,11.72-12.28,18.44a41.3,41.3,0,0,0,3,39.7,37.68,37.68,0,0,0,3.07,4c.42.49,1.13-.22.71-.7Z" transform="translate(-0.01 0)"/><path class="cls-5" d="M83.36,90.37c-3.31-2.27-4-6.55-4-10.28,0-2.23.17-4.44.32-6.66L80.22,65l.66-9.38c0-.65-1-.64-1,0l-1.22,17.4c-.3,4.3-.86,8.88.51,13.06a9.67,9.67,0,0,0,3.69,5.11c.53.37,1-.5.5-.86Z" transform="translate(-0.01 0)"/><path class="cls-5" d="M75.35,103.48c6-1.94,13.62.1,18.62-4.57.47-.44-.23-1.15-.7-.71-2.36,2.2-5.58,2.75-8.68,3s-6.44.31-9.5,1.3c-.61.2-.35,1.16.26,1Z" transform="translate(-0.01 0)"/><path class="cls-5" d="M66.6,129.31a7.25,7.25,0,0,0,.17-7,16.77,16.77,0,0,0-5.23-6.09c-2.19-1.77-4.51-3.5-6-6a13.93,13.93,0,0,1-1.74-7.62C54,96.91,56.3,91.47,57.59,86a37.44,37.44,0,0,0,1-9c0-3.25-.42-6.47-.67-9.7a44.39,44.39,0,0,1,0-9.71,25.18,25.18,0,0,1,2.79-8.35c2.76-5.1,6.9-9.3,11.08-13.26,9.72-9.19,19.87-17.92,30.34-26.23,2.52-2,5-4.09,7.71-5.88,2.35-1.56,5.09-3,8-2.86A7.74,7.74,0,0,1,124,4.06c1.77,2.62.22,5.56.14,8.4C124,17.86,129.2,21.05,132,25a19.3,19.3,0,0,1,3,15.52,25.91,25.91,0,0,1-3.73,7.79,22.07,22.07,0,0,0-3.21,7.32c-1,4.93-.26,10,.24,14.94.46,4.64,1,9.77-1.13,14.11a14.07,14.07,0,0,1-5.1,5.56c-2.21,1.47-4.62,2.64-6.73,4.28a19.19,19.19,0,0,0-5,6.49,42.76,42.76,0,0,1-4.14,7.15,25.45,25.45,0,0,1-10.49,7.16c-8.16,3.29-17.43,4.39-24.78,9.49A22,22,0,0,0,66.34,129c-.4.5.31,1.21.71.71,5.78-7.19,15.5-9,23.84-11.65,4.16-1.33,8.38-2.87,12-5.45a21.06,21.06,0,0,0,4.56-4.43,59.26,59.26,0,0,0,4.17-7.42A19.7,19.7,0,0,1,114,97.1a16.29,16.29,0,0,1,3.23-2.74c2.24-1.49,4.68-2.67,6.8-4.33a14,14,0,0,0,4.41-5.81,19.3,19.3,0,0,0,1.22-6.9c.1-5.09-.94-10.13-1.08-15.21a25.07,25.07,0,0,1,.73-7.43c.78-2.88,2.47-5.27,4-7.78a20.05,20.05,0,0,0,2.59-15.74,19.38,19.38,0,0,0-3.48-7.26c-1.61-2.08-3.63-3.82-5.23-5.91a10.55,10.55,0,0,1-1.81-3.26,8.86,8.86,0,0,1,0-4.43,12.59,12.59,0,0,0,.34-4.53,6.13,6.13,0,0,0-1.48-2.95,9,9,0,0,0-6-2.8,13.72,13.72,0,0,0-7.92,2.4,81.25,81.25,0,0,0-7.58,5.63q-4,3.16-7.94,6.4Q86.9,20.93,79.3,27.74A176.83,176.83,0,0,0,65.53,40.93c-3.84,4.3-7.16,9.27-8.31,15-1.28,6.42,0,13,.31,19.4a37.27,37.27,0,0,1-.7,9.43c-.62,2.87-1.49,5.69-2.27,8.52-1.41,5.09-2.8,10.81-.64,15.9a17.09,17.09,0,0,0,5.3,6.42c2.17,1.78,4.55,3.44,6,5.89,1.32,2.21,2,5,.5,7.31-.36.54.51,1,.86.5Z" transform="translate(-0.01 0)"/><path class="cls-5" d="M89.67,197.52C91,192,95,187.7,99.33,184.22c4.61-3.73,9.81-6.71,14.09-10.86a36.46,36.46,0,0,0,8.92-15.1A77.14,77.14,0,0,0,126,139.11a40.12,40.12,0,0,0,.07-5.59,43.65,43.65,0,0,0-.75-5.07c-.68-3.42-1.52-6.82-1.43-10.33a.5.5,0,0,0-1,0c-.16,6.22,2.43,12.13,2.24,18.36A78.49,78.49,0,0,1,122,156.15c-1.68,5.71-4.19,11.26-8.34,15.6s-9.35,7.37-14,11-9.36,8.4-10.85,14.49c-.16.62.81.89,1,.26Z" transform="translate(-0.01 0)"/><path class="cls-5" d="M126.08,135.11c1.55-6.7,9.6-7.62,14.33-11.24a11.16,11.16,0,0,0,3.42-4.11c.27-.58-.6-1.08-.87-.5-2.88,6.19-10.81,6.5-15.3,11a9.62,9.62,0,0,0-2.55,4.61c-.14.63.82.89,1,.27Z" transform="translate(-0.01 0)"/><path class="cls-5" d="M3.47,270.35q13.09-2.19,26.32-3.47t26.75-1.74q13.47-.45,26.94-.07t26.8,1.57q13.26,1.2,26.43,3.2l3.24.51c.63.1.9-.86.27-1q-13.12-2.11-26.36-3.41-13.41-1.32-26.88-1.8T59.77,264q-13.47.34-26.91,1.55-13.26,1.2-26.43,3.27l-3.23.53c-.63.1-.36,1.07.27,1Z" transform="translate(-0.01 0)"/><path class="cls-5" d="M134.89,126.73l6-11.07,3-5.48c.38-.7.81-1.58,1.67-1.76a2,2,0,0,1,1.77.7,8.87,8.87,0,0,1,2.16,4.23,19.82,19.82,0,0,1,.9,5.4,8.62,8.62,0,0,1-1.38,4.94,8.86,8.86,0,0,1-3.64,3,15.23,15.23,0,0,1-5.74,1.15,18.46,18.46,0,0,1-6.27-.76c-.61-.19-.88.78-.26,1a19.3,19.3,0,0,0,6.09.82,17.79,17.79,0,0,0,5.7-.9,9.44,9.44,0,0,0,6.42-7.74,16.63,16.63,0,0,0-.52-5.87,14.05,14.05,0,0,0-2-5.08c-.84-1.13-2.19-2.24-3.69-1.72a3.35,3.35,0,0,0-1.74,1.62c-.59,1-1.12,2-1.67,3l-7.6,14c-.31.57.55,1.08.86.51Z" transform="translate(-0.01 0)"/><path class="cls-5" d="M124.93,128.16a10.79,10.79,0,0,1-7.44-9.19,11.17,11.17,0,0,1,1.31-6.68c1.09-2,2.93-3.42,3.59-5.64.49-1.67.41-3.73,1.43-5.2a2.38,2.38,0,0,1,2.42-1,4.6,4.6,0,0,1,2.51,1.78,12.08,12.08,0,0,1,2.19,6.19,18,18,0,0,1-.44,6.5,17.2,17.2,0,0,1-3.29,6.66c-1.43,1.75-3.44,3.52-3.29,6,0,.64,1,.64,1,0-.15-2.45,2.22-4.22,3.55-6a18.44,18.44,0,0,0,3-6.39,19,19,0,0,0,.46-7,13.37,13.37,0,0,0-2.3-6.51c-1.26-1.63-3.39-3-5.43-1.9-1.74.94-2,3.06-2.38,4.82a9.29,9.29,0,0,1-1,3.13c-.65,1.12-1.58,2-2.32,3.1a12,12,0,0,0-2.09,6.93c0,5,3.32,10,8.24,11.34a.5.5,0,0,0,.27-1Z" transform="translate(-0.01 0)"/></g></g></svg>