<svg width="35" height="62" viewBox="0 0 35 62" fill="none" xmlns="http://www.w3.org/2000/svg">
<g clip-path="url(#clip0)">
<ellipse cx="17.889" cy="12.0976" rx="11.3415" ry="11.6667" transform="rotate(90 17.889 12.0976)" fill="#FEEDC3"/>
<path d="M21.8277 60.7347C20.3223 41.0321 20.8869 21.5102 23.1449 1.98834C22.3922 2.34985 21.4514 2.71137 20.6987 2.89213C24.8385 7.23032 28.6019 11.93 31.6127 16.9913C31.989 17.5335 32.3654 17.895 31.8008 18.2566C31.2363 18.6181 30.1073 18.4373 29.5428 18.4373C28.0374 18.4373 26.3438 18.4373 24.8385 18.4373C21.6395 18.2566 18.4406 18.0758 15.2417 17.7143C12.0428 17.3528 8.65567 16.8105 5.45675 16.0875C5.0804 15.9067 3.38685 15.9067 3.01051 15.5452C2.82234 15.1837 3.19868 15.0029 3.57502 14.8222C4.70406 13.9184 6.02126 13.0146 7.33847 12.2915C12.4191 8.67638 17.6879 5.96501 23.1449 3.79592C24.8385 3.07289 23.5213 0.723032 21.8277 1.44606C16.3707 3.61516 11.1019 6.50729 6.02126 9.76093C4.89223 10.484 3.7632 11.3878 2.44599 12.2915C1.50513 13.0146 0.376102 13.7376 -0.000244759 14.8222C-0.752934 17.172 1.88148 18.0758 3.7632 18.4373C10.161 19.8834 16.5589 20.6064 22.9567 20.9679C25.7793 21.1487 37.0697 22.5948 34.4352 16.8105C33.3062 13.9184 31.2363 11.207 29.3546 8.67639C27.2847 5.96502 25.0266 3.4344 22.7686 1.08455C21.8277 0.180758 20.5105 0.90379 20.3223 1.98834C18.0643 21.5102 17.4998 41.0321 19.0051 60.7347C19.0051 62.3615 21.8277 62.3615 21.8277 60.7347Z" fill="#555555"/>
</g>
<defs>
<clipPath id="clip0">
<rect width="62" height="35" fill="white" transform="translate(35) rotate(90)"/>
</clipPath>
</defs>
</svg>
