<svg xmlns="http://www.w3.org/2000/svg" viewBox="0 0 291.88 252.15"><defs><style>.cls-1{fill:#c9c9c9;}.cls-2{opacity:0.5;}.cls-3{fill:#a9a8a9;}.cls-4{fill:#f8aeab;}.cls-5{fill:#4d2e11;}.cls-6{fill:#333;}.cls-7{fill:none;stroke:#333;stroke-miterlimit:10;}</style></defs><title>화살</title><g id="Layer_2" data-name="Layer 2"><g id="Layer_5" data-name="Layer 5"><path class="cls-1" d="M127.28,250.91c-13.92,3-32.46,3.21-52.39.07-40.14-6.33-70.7-24-68.25-39.58s37-23,77.12-16.66c16.26,2.56,30.95,7,42.51,12.39-1.09,8.22-2.08,16.47-4.23,24.46a20.4,20.4,0,0,1-3.12,7.23c-.89,1.17-2,2.17-2.79,3.41a4.33,4.33,0,0,0-.53,4.18,5.33,5.33,0,0,0,2.91,2.23A34.26,34.26,0,0,0,127.28,250.91Z" transform="translate(0 -2.17)"/><path class="cls-1" d="M27.94,199.61c.27-1,.55-2.05.86-3.07l.48-1.52.16-.51c.27-.69.22-.67-.13.05l-1.33.78-.18,0L26.28,195a13.71,13.71,0,0,1,3.7,2.82c2.71,2.76,7-1.48,4.24-4.24-1.84-1.88-5-4.93-7.83-4-1.68.55-2.31,2.08-2.81,3.62s-1,3.22-1.43,4.84c-1,3.74,4.8,5.34,5.79,1.6Z" transform="translate(0 -2.17)"/><path class="cls-1" d="M8.45,212.06c-3.35.46-10.93,3.23-7.64,7.87,2.48,3.5,8.08,3.92,11.94,3.74s3.87-6.19,0-6c-2.39.11-5.68.23-7.47-1.68l.78,1.32L6,216.86l-.31,2.31c-.22.42.29-.07.44-.13.43-.18.82-.42,1.26-.58a12.43,12.43,0,0,1,2.7-.61c1.61-.23,2.48-2.28,2.1-3.7a3.08,3.08,0,0,0-3.69-2.09Z" transform="translate(0 -2.17)"/><path class="cls-1" d="M35.32,238.65C39.44,252.53,56.57,259.8,68,249.4c2.07-1.89.29-4.92-2.13-5.12-5.46-.46-13.85,2.67-16.95-3.17-1.81-3.41-7-.38-5.18,3,4.82,9.09,13.82,5.44,22.13,6.14l-2.12-5.13c-8.11,7.39-19.86,1.31-22.65-8.1-1.09-3.69-6.89-2.12-5.79,1.6Z" transform="translate(0 -2.17)"/><path class="cls-1" d="M55.91,196.68a37.73,37.73,0,0,0,12.46-6.16c3-2.3.06-7.51-3-5.18a33.28,33.28,0,0,1-11,5.55c-3.7,1.06-2.13,6.85,1.6,5.79Z" transform="translate(0 -2.17)"/><path class="cls-1" d="M42.56,190.37c7.73-5.22,17.66-2.28,26.11-.67,9.11,1.73,18,4.4,27.14,6l.79-5.89-34.56-3c-3.58-.31-3.77,4.81-.8,5.89,5.23,1.91,10.65,2.4,16.16,2.78v-6A174,174,0,0,1,55,187.66v5.79l3-.89c2.61-.77,3.1-5.33,0-5.79a91.86,91.86,0,0,0-15.46-1,3,3,0,0,0-.79,5.89l7.79,2.57.8-5.89-5.1.61c-3.12.37-4.36,5-.8,5.89A165.14,165.14,0,0,0,60.76,198c3.77.54,5.4-5.24,1.59-5.79A159.56,159.56,0,0,1,46,189l-.79,5.9,5.1-.61c3.26-.39,4.2-4.78.8-5.9l-7.8-2.56-.8,5.89a83.61,83.61,0,0,1,13.87.82v-5.79l-3,.89c-2.61.77-3.1,5.33,0,5.79a184.27,184.27,0,0,0,24,2c3.9.07,3.82-5.74,0-6-5-.34-9.82-.84-14.56-2.56l-.8,5.89,34.56,3c3.34.29,4.14-5.32.8-5.89-11-1.89-21.78-5-32.77-7-8.5-1.57-17.54-2.77-25.1,2.34-3.19,2.14-.19,7.34,3,5.18Z" transform="translate(0 -2.17)"/></g><g id="Layer_4" data-name="Layer 4"><g class="cls-2"><path class="cls-3" d="M176.62,52c-.7-7.58-1.2-17.89-10.21-20.25-4.65-1.22-9,.73-12.71,3.7a7.78,7.78,0,0,0-3.37-2.26l-11.8-3.89a7.18,7.18,0,0,0-3.82-.25,6.09,6.09,0,0,1-.74.51c-.31.56-.58,1.13-.85,1.71l.09,2.07c.09,2-.35,5.16.71,6.9,1.78,2.89,0,5.64-2.5,6.54-.62.84-1.21,1.7-1.76,2.59-3.37,5.53-5,11.93-6.12,18.25-2.15,12.43-3.76,25.78,6.7,34.42a12.71,12.71,0,0,0,9.46,8.27c8.64,1.94,15.25-3.68,19.81-10.33,4.76-6.93,10.59-13.55,14-21.3C177.17,70.25,177.46,61,176.62,52Z" transform="translate(0 -2.17)"/></g><g class="cls-2"><path class="cls-4" d="M196.17,171.54a52,52,0,0,1-6-6.55c-.34-.25-.68-.49-1-.71a4.52,4.52,0,0,1-1.74-1.83,88.6,88.6,0,0,1-11-8c-3.49-3.07-6.93-6.16-10.66-8.92-3.35-5.62-14.05-4.37-14,3.8.06,9.91,3.21,22.42,11.13,29a29.59,29.59,0,0,0,13.5,6.18c5.07,1,11.51,2,16.62.77,4.47-1.06,8.17-5.13,7.74-9.8A31.39,31.39,0,0,1,196.17,171.54Z" transform="translate(0 -2.17)"/><path class="cls-4" d="M189.21,170.66l0,0C190.12,170.67,190.11,170.68,189.21,170.66Z" transform="translate(0 -2.17)"/></g><g class="cls-2"><path class="cls-4" d="M210.5,148.52a53.87,53.87,0,0,0-2.12-7.35c-5.95-9.71-16.31-17.21-27.41-18.5a4.5,4.5,0,0,1-2,1.09c-2.09.54-4.26.62-6.36,1.13-1.5.36-2.89,1.06-4.37,1.46a5.73,5.73,0,0,0-.07,2.64,9.73,9.73,0,0,1,1.46,1.09,14.47,14.47,0,0,1,2.13,1.12c.83.55,1.62,1.16,2.41,1.78.28.22.55.46.84.67,0,0,.85.5.82.49a4.35,4.35,0,0,1,1.78,1.93c4,2.25,8.23,4.08,12.15,6.52,5.87,3.65,9.77,9.72,14,15.06,2,2.48,4.74,2.17,6.75.6C210.52,155,211,151.75,210.5,148.52Z" transform="translate(0 -2.17)"/></g><g class="cls-2"><path class="cls-5" d="M244.82,17.45c-.45,6.63-.59,15.41,3.84,20.87,4,5,11.31,6.46,16.7,9.57C277.74,55,281,68.5,274.43,81.1c-2.69,5.14-10.09,10.61-9.26,16.8.52,3.83,3.34,5,5.86,7.28,2.13,1.92,3.19,4.72,4,7.4,3.57,11.91,6.09,27.18-4.07,36.47-5.59,5.11-13.44,7.88-17.63,14.45-4.37,6.84-3.47,15-2.4,22.67.49,3.5,4.91,5.35,8,4.54,3.75-1,5-4.54,4.54-8-.56-4-1.39-9.13,1.11-12.6s7.67-5.65,11.1-8.22c7.49-5.63,13.11-12.79,14.72-22.21,1.51-8.8.2-17.77-1.76-26.4a44.83,44.83,0,0,0-4.09-11.63,24.09,24.09,0,0,0-3.84-5.18,20.63,20.63,0,0,0-2.18-1.87c-.43-.33-2.14-2.09-1.35-.84l.66,5q-1.4,1.44.49-.62c.7-.8,1.37-1.62,2-2.47a58.74,58.74,0,0,0,3.74-5.25,47.75,47.75,0,0,0,5.22-11.64,37.52,37.52,0,0,0-1.38-25.31c-3.44-7.89-9.92-13.54-17.37-17.57-1.86-1-3.77-1.9-5.69-2.77-1.54-.7-4.34-1.32-5.55-2.54-2.7-2.73-1.73-9.56-1.49-13.14.57-8.35-12.43-8.31-13,0Z" transform="translate(0 -2.17)"/></g><g class="cls-2"><path class="cls-5" d="M83.87,31.89c.14.69.25,1.37.34,2.06l-.07-.53c.17,1.31.28,2.62.39,3.93a2.13,2.13,0,0,0,.58,1.42,2.08,2.08,0,0,0,1.42.58,2.05,2.05,0,0,0,2-2c0-1.13.06-2.27.17-3.4l-.07.53a1.33,1.33,0,0,1,.05-.19l-.2.48a1.09,1.09,0,0,1,.08-.15l-.31.41.1-.1-.4.31.12-.06-.47.2a.58.58,0,0,1,.14,0l-.54.07a1.7,1.7,0,0,1,.39,0l-.53-.07A9,9,0,0,1,88.8,36l-.48-.2c.55.23,1.08.49,1.61.77a2,2,0,0,0,2-3.45,22.51,22.51,0,0,0-2.55-1.17,4.68,4.68,0,0,0-2.8-.41A2.53,2.53,0,0,0,84.92,33a5.2,5.2,0,0,0-.26,1.75l-.13,2.61h4a57.17,57.17,0,0,0-.8-6.52,2,2,0,0,0-2.46-1.4,2.06,2.06,0,0,0-1.4,2.46Z" transform="translate(0 -2.17)"/></g><g class="cls-2"><path class="cls-5" d="M92.18,17.77a26.47,26.47,0,0,1-.11,4.36,4,4,0,0,1-.06.5c.09-.47,0,0,0,.14-.06.38-.13.77-.21,1.16-.14.71-.32,1.42-.52,2.12a2,2,0,0,0,1.4,2.46,2.07,2.07,0,0,0,2.46-1.4l.36-.88c.09-.22-.12.28,0-.07l.21-.48c.25-.57.5-1.15.78-1.72a2.15,2.15,0,0,1,.14-.26c.16-.27,0,0-.08.07a1.4,1.4,0,0,1-1.24.29L95.09,24l.24.17s.39.3.18.12.12.11.16.15c.23.2.46.42.68.65a2,2,0,0,0,2.82,0,2,2,0,0,0,0-2.83,9.67,9.67,0,0,0-2.06-1.71,2.72,2.72,0,0,0-3.45.51,8.69,8.69,0,0,0-1.26,2.32q-.59,1.33-1.14,2.7l3.86,1.06a28.1,28.1,0,0,0,1.06-9.34,2,2,0,1,0-4,0Z" transform="translate(0 -2.17)"/></g><g class="cls-2"><path class="cls-5" d="M100,7.12a44.57,44.57,0,0,1-.25,8.64,2,2,0,0,0,.58,1.41,2.07,2.07,0,0,0,1.15.55,2,2,0,0,0,2.19-1.43l1.7-5.85-3.34.88c.22.18.39.43.6.61-.2-.26-.23-.31-.11-.15l.09.14a3.53,3.53,0,0,1,.21.32c.3.47.55,1,.83,1.44a9.21,9.21,0,0,0,1.16,1.62,5.68,5.68,0,0,0,2,1.28,2,2,0,0,0,1.55-.21,2,2,0,0,0,.71-2.73,2.32,2.32,0,0,0-1.19-.92c.6.25.14,0,0,0s-.13-.21.08.07a6.08,6.08,0,0,0-.5-.52c.42.4.11.15,0,0s-.12-.18-.17-.27-.26-.44-.39-.66a9.32,9.32,0,0,0-2-2.79A2.11,2.11,0,0,0,102.87,8a2,2,0,0,0-1.39,1.4l-1.7,5.84,3.93.54A44.57,44.57,0,0,0,104,7.12a2,2,0,0,0-4,0Z" transform="translate(0 -2.17)"/></g></g><g id="Layer_3" data-name="Layer 3"><path class="cls-6" d="M132.32,105.69a28.05,28.05,0,0,1-4.49-7.8,76.31,76.31,0,0,1-3.37-9,40.81,40.81,0,0,1-.16-19.22A64.32,64.32,0,0,1,130.52,52a38.69,38.69,0,0,1,2.37-3.83,15.47,15.47,0,0,1,1.27-1.63,10.3,10.3,0,0,0,1.2-1.44,3.88,3.88,0,0,0,0-3.33,24.61,24.61,0,0,1-1-4.31,38.41,38.41,0,0,1-.32-5.56,2,2,0,0,1,0-.49c0-.18,0-.21.1-.09l.45.1,1.23.29c.86.22,1.71.45,2.56.7a62.58,62.58,0,0,1,10.14,4c.58.28,1.09-.58.51-.86a63.31,63.31,0,0,0-9.29-3.75c-1.53-.48-3.09-.91-4.66-1.27-.56-.13-1.36-.44-1.8.12s-.25,1.39-.25,2a39.56,39.56,0,0,0,.37,5.21,26.12,26.12,0,0,0,1,4.29,4.21,4.21,0,0,1,.31,1.82,3.6,3.6,0,0,1-1.12,1.69A23.93,23.93,0,0,0,131,49.25a60.18,60.18,0,0,0-7.14,17.91,45.62,45.62,0,0,0-.94,19.55,57.25,57.25,0,0,0,3.67,10.77,31.08,31.08,0,0,0,5,8.92c.42.48,1.13-.23.7-.71Z" transform="translate(0 -2.17)"/><path class="cls-6" d="M149.43,36.21a56.44,56.44,0,0,1,15-3.29A121.78,121.78,0,0,1,180,32.44a38.78,38.78,0,0,1,8.9,1.21.5.5,0,0,0,.26-1c-5.19-1.41-10.61-1.35-15.95-1.23a95.22,95.22,0,0,0-15.45,1.39,49.8,49.8,0,0,0-8.57,2.41c-.6.23-.34,1.2.26,1Z" transform="translate(0 -2.17)"/><path class="cls-6" d="M189.71,33.56a45.77,45.77,0,0,1,7.5-8.29c.3-.27.61-.53.92-.79s.73-.79,1.07-.82.87.6,1.13.87.66.72,1,1.09a25.8,25.8,0,0,1,2.77,4.17c.74,1.39,1.39,2.82,2,4.27a14.85,14.85,0,0,0,2.06,4.14,25.74,25.74,0,0,0,3.29,2.69,17.6,17.6,0,0,1,3.37,3.78,27.69,27.69,0,0,1,4.15,10.09A98.15,98.15,0,0,1,220.59,66c.74,7.43.77,15.12-1.68,22.26a78.58,78.58,0,0,1-3.65,8.56,72.1,72.1,0,0,1-4.3,8c-.35.54.52,1,.87.5a71.17,71.17,0,0,0,4-7.45c1.26-2.62,2.48-5.28,3.52-8,2.75-7.13,3-14.87,2.36-22.41a116.39,116.39,0,0,0-1.55-11.63,31,31,0,0,0-3.88-10.69A23.06,23.06,0,0,0,213,41c-1.09-1.09-2.45-1.86-3.59-2.89a10.47,10.47,0,0,1-2.3-4.07c-.67-1.57-1.36-3.14-2.17-4.65a26.33,26.33,0,0,0-2.71-4.14,19.4,19.4,0,0,0-1.83-2,1.47,1.47,0,0,0-1.94-.3,17.42,17.42,0,0,0-2,1.65c-.73.65-1.44,1.31-2.14,2a47.59,47.59,0,0,0-3.87,4.28c-.57.72-1.12,1.46-1.64,2.22-.36.53.5,1,.86.51Z" transform="translate(0 -2.17)"/><path class="cls-6" d="M138.33,41.38a13.92,13.92,0,0,1-1.28-3.49,13.33,13.33,0,0,1-.28-1.88c0-.19-.1-.59,0-.76s.35-.12.5-.11a8.17,8.17,0,0,1,1.67.42c.62.18,1.24.37,1.85.57,1.28.42,2.53.9,3.77,1.42a.52.52,0,0,0,.62-.35.53.53,0,0,0-.35-.62c-1.44-.6-2.9-1.14-4.39-1.61-.77-.25-1.54-.47-2.32-.67a2.57,2.57,0,0,0-1.62,0,1.33,1.33,0,0,0-.78,1.34,11.69,11.69,0,0,0,.26,2.2,14.91,14.91,0,0,0,1.46,4.09c.3.57,1.16.06.86-.5Z" transform="translate(0 -2.17)"/><path class="cls-6" d="M193.71,33.16a18.26,18.26,0,0,1,6-4.54l-.68-.18c.78,1.21,1.67,2.34,2.46,3.55a13.22,13.22,0,0,1,1.68,3.87.5.5,0,0,0,1-.26,13.56,13.56,0,0,0-1.71-4c-.8-1.25-1.73-2.41-2.53-3.66a.51.51,0,0,0-.68-.18,19.08,19.08,0,0,0-6.17,4.7c-.42.49.29,1.2.71.71Z" transform="translate(0 -2.17)"/><path class="cls-6" d="M276.9,92.64c6.48,2.26,9.92,9,11.76,15.22a62.69,62.69,0,0,1,1.83,24,56.86,56.86,0,0,1-2,11.07,35.94,35.94,0,0,1-4.12,8.89,50.61,50.61,0,0,1-13.52,13.69q-2,1.38-4,2.65c-1.24.77-2.57,1.43-3.79,2.25-2.46,1.66-1.8,4.45-1.82,7.05a39.77,39.77,0,0,1-.52,6.44,12.26,12.26,0,0,1-1.53,4.6,3.56,3.56,0,0,1-4.37,1.67c-1.91-.73-2.91-2.65-3.46-4.5-1.17-4-.88-8.42-.82-12.56,0-2.21.09-4.42.19-6.63a12.3,12.3,0,0,1,.59-3.82,4.63,4.63,0,0,1,2.52-2.53c1.61-.75,3.35-1.2,5-1.95a37,37,0,0,0,9.22-6.12c10.89-9.82,15.62-26.57,8.37-39.91a27.64,27.64,0,0,0-2.87-4.26,40.19,40.19,0,0,0-3.8-3.81c-2.2-2-4.45-4.49-4.9-7.58-.55-3.68,1.63-7.06,3.69-9.89,2.18-3,4.39-5.85,5.75-9.33a26.52,26.52,0,0,0-13.67-33.89c-3.38-1.54-7.25-2.09-10.36-4.17-2.37-1.59-3-3.91-3.29-6.61a64.76,64.76,0,0,1-.59-10.5,22.87,22.87,0,0,1,1.18-6,11,11,0,0,1,1.21-2.68,1.91,1.91,0,0,1,2.8-.35c3.3,2,3.56,6.92,3.51,10.33,0,.92,0,1.83,0,2.75a7.49,7.49,0,0,0,0,1.64c.17.89.86,1.23,1.69,1.38a34.87,34.87,0,0,1,5.53,1.26,29.54,29.54,0,0,1,5.49,2.65,60.44,60.44,0,0,1,9.47,7.47,42.33,42.33,0,0,1,7.59,8.72,28.75,28.75,0,0,1,3.88,11c1.13,7.93-.83,16.22-4.56,23.25a20,20,0,0,1-6.72,7.78c-.55.34-.05,1.21.5.86a20.6,20.6,0,0,0,6.95-7.89,43.85,43.85,0,0,0,4.21-11.3c1.73-7.74,1.11-16.11-2.77-23.12a39,39,0,0,0-7.47-9.16,69.7,69.7,0,0,0-9.1-7.53,28.73,28.73,0,0,0-11.23-4.74,8.16,8.16,0,0,1-2.09-.35c-.43-.21-.41-.53-.41-1,0-2,.16-4,.06-6-.16-3.15-1-7-3.86-8.85a3,3,0,0,0-4,.32,13.09,13.09,0,0,0-2.09,5,33.32,33.32,0,0,0-.38,12c.29,2.5.18,5.29,1.4,7.58,1.51,2.86,4.85,4.13,7.74,5.1,3.61,1.21,7,2.44,10.07,4.75a25.59,25.59,0,0,1,10.16,18.27,26.38,26.38,0,0,1-1.62,11.37c-1.42,3.76-3.91,6.75-6.2,10-2,2.81-3.83,6.11-3.4,9.67.37,3,2.31,5.56,4.44,7.65,1.26,1.24,2.64,2.36,3.82,3.68a24.85,24.85,0,0,1,3.33,4.68,27.71,27.71,0,0,1,3.38,11.07A33.44,33.44,0,0,1,272,146.24a36.29,36.29,0,0,1-8.17,7.86,36.92,36.92,0,0,1-5.38,3.12c-1.72.8-3.61,1.26-5.3,2.11-2.34,1.17-3.11,3.35-3.32,5.81-.38,4.24-.34,8.57-.31,12.82,0,3.7.1,8.29,2.55,11.32,2,2.55,5.66,2.84,7.69.13s2.31-6.95,2.45-10.29c.05-1.07.06-2.15,0-3.22a14,14,0,0,1,0-2.75,3.52,3.52,0,0,1,2.12-2.39c11.4-6.56,22-15.81,25.46-29a66,66,0,0,0,1.74-11.38,70.55,70.55,0,0,0-.06-12.67c-.7-7.09-2.51-14.73-7-20.47a16.21,16.21,0,0,0-7.44-5.55c-.61-.22-.87.75-.26,1Z" transform="translate(0 -2.17)"/><line class="cls-7" x1="251.18" y1="38.13" x2="254.74" y2="157.07"/><path class="cls-6" d="M211.78,105.66c7.76,1.37,15.43-1.65,22.67-4.06a224.64,224.64,0,0,0,21.36-8,104.23,104.23,0,0,0,11.34-5.91c.55-.34.05-1.2-.5-.87a121,121,0,0,1-20.33,9.59c-3.44,1.29-6.91,2.48-10.39,3.65s-7.23,2.48-10.91,3.49c-4.21,1.16-8.62,1.91-13,1.14-.63-.11-.9.86-.26,1Z" transform="translate(0 -2.17)"/><path class="cls-6" d="M223.4,124.31a125.88,125.88,0,0,0,34.87-16.24q4.47-3,8.68-6.37c.51-.4-.2-1.11-.7-.71a124.74,124.74,0,0,1-33,19q-5,1.92-10.09,3.4a.5.5,0,0,0,.26,1Z" transform="translate(0 -2.17)"/><path class="cls-6" d="M230.82,185.56l-2.14,17.58-.29,2.44.85-.35Q217.9,192,205.61,179.66q-12-12.06-25-23.16-10.84-9.3-22.32-17.81c-7.82-5.8-15.87-11.31-24.18-16.38q-3.65-2.24-7.37-4.32l-2.23-1.21a8.26,8.26,0,0,0-1.14-.6.37.37,0,0,1-.14-.07l.1.79q2.85-3.23,5.72-6.44c.82-.92,1.6-1.92,2.47-2.79.29-.28.69-.7,1.12-.72a1.54,1.54,0,0,1,.73.29l1.05.57c4.87,2.65,9.66,5.46,14.37,8.39,9.31,5.81,18.3,12.11,27,18.78q12.31,9.42,23.86,19.78,10.69,9.57,20.73,19.83c3.57,3.65,7,7.43,10.42,11.18a.93.93,0,0,1,.13.15c.42.49,1.13-.22.71-.71-2.8-3.26-5.77-6.38-8.75-9.47q-10-10.41-20.76-20.09-11.46-10.36-23.67-19.87c-8.77-6.8-17.81-13.25-27.19-19.19-4.74-3-9.56-5.88-14.47-8.6l-1.89-1a11.42,11.42,0,0,0-1.73-.91,2.38,2.38,0,0,0-2.37.92c-.88.87-1.66,1.87-2.48,2.79-1,1.08-1.91,2.15-2.86,3.22l-2.86,3.22a.51.51,0,0,0,.1.79c3,1.47,5.84,3.17,8.68,4.86,7.94,4.73,15.62,9.89,23.1,15.3q11.64,8.43,22.63,17.71,13,10.91,25,22.8t23.44,24.91q1.47,1.68,2.92,3.38c.32.37.81,0,.86-.36L231.52,188l.3-2.45C231.89,184.93,230.89,184.93,230.82,185.56Z" transform="translate(0 -2.17)"/><path class="cls-6" d="M123.15,116.34a40,40,0,0,0-15.37,20.38c-2.89,8.74-2.85,19.22,2.73,26.92a20.14,20.14,0,0,0,11.28,7.89c.62.16.89-.81.27-1a19,19,0,0,1-10-6.5,23.6,23.6,0,0,1-5-12.31c-1-8.65,1.69-17.54,6.6-24.65a38.5,38.5,0,0,1,10-9.91c.53-.36,0-1.22-.51-.86Z" transform="translate(0 -2.17)"/><path class="cls-6" d="M121.67,171.07a22.53,22.53,0,0,0-.19,5.8,8.94,8.94,0,0,0,1.39,4.35c1.8,2.51,5.35,3.37,8.27,3a9.83,9.83,0,0,0,7.09-4.76,10.19,10.19,0,0,0,.82-8.88,9,9,0,0,0-3.72-3.94,6.91,6.91,0,0,0-5.25-1.07.5.5,0,0,0,.26,1,5.7,5.7,0,0,1,4.3.86,8.89,8.89,0,0,1,3.16,2.9c1.41,2.35,1.09,5.62-.08,8a8.91,8.91,0,0,1-5.91,4.78,8.34,8.34,0,0,1-7.63-1.81,7,7,0,0,1-1.7-4.36,21.32,21.32,0,0,1,.16-5.53c.1-.63-.86-.9-1-.27Z" transform="translate(0 -2.17)"/><path class="cls-6" d="M131.21,135.4a13.46,13.46,0,0,0-3.32,5,37.75,37.75,0,0,0-2.07,6.52,25.88,25.88,0,0,0,.24,13.11,19.38,19.38,0,0,0,3.21,6.24c.39.51,1.1-.2.71-.71-5.32-6.86-4.45-16.24-1.53-23.9a13.75,13.75,0,0,1,3.47-5.53c.48-.43-.23-1.13-.71-.7Z" transform="translate(0 -2.17)"/><path class="cls-6" d="M129.35,138.56a66.24,66.24,0,0,0-.21,26.9c.13.63,1.09.37,1-.26a65.06,65.06,0,0,1,.21-26.37c.14-.63-.83-.9-1-.27Z" transform="translate(0 -2.17)"/><path class="cls-6" d="M159.21,222.21a63.62,63.62,0,0,1-11.74,20c-2.46,2.83-5.33,5.63-8.85,7.07a22.78,22.78,0,0,1-11.34,1.13,33.73,33.73,0,0,1-6.21-1.36c-1.58-.51-3.74-1.07-4.79-2.47-1.24-1.68-.07-3.8,1.07-5.17a23.29,23.29,0,0,0,3.29-4.42,27.54,27.54,0,0,0,1.91-5.38c.55-2.05,1-4.13,1.44-6.21.84-4.18,1.46-8.4,2-12.63,1.14-8.48,2.1-17,4.22-25.34.27-1.05.56-2.09.87-3.13a.5.5,0,0,0-1-.27c-2.52,8.55-3.62,17.41-4.79,26.22-.59,4.5-1.2,9-2,13.46-.41,2.17-.87,4.33-1.41,6.47a32.36,32.36,0,0,1-1.93,5.93,13.39,13.39,0,0,1-1.59,2.61c-.61.77-1.31,1.46-1.93,2.23a6,6,0,0,0-1.59,4.86c.38,1.75,2,2.68,3.52,3.32a32.46,32.46,0,0,0,5.86,1.78,28,28,0,0,0,12.19.12,20.6,20.6,0,0,0,9.66-5.86,61.61,61.61,0,0,0,13-19.86c.4-.93.76-1.88,1.11-2.83.22-.61-.75-.87-1-.27Z" transform="translate(0 -2.17)"/><path class="cls-6" d="M151.06,219.63a55.93,55.93,0,0,0,20,4.66,57.35,57.35,0,0,0,20.32-2.71A54.68,54.68,0,0,0,202,216.83a.5.5,0,0,0-.5-.86,56.08,56.08,0,0,1-39.17,6.23,53.7,53.7,0,0,1-10.78-3.44c-.58-.25-1.09.61-.5.87Z" transform="translate(0 -2.17)"/><path class="cls-6" d="M193.5,220.53a65.46,65.46,0,0,0,3.08,10.35c1.19,3.18,2.26,6.6,4.13,9.46,3.45,5.26,9.78,7.58,15.84,7.82a46,46,0,0,0,10.72-1c2.83-.57,5.91-1.64,7.22-4.45a4.88,4.88,0,0,0,.25-3.8,6,6,0,0,0-2.36-2.66,20.93,20.93,0,0,1-3.14-2.22,5.59,5.59,0,0,1-1.33-4.16c0-8.24.32-16.46,1.12-24.66.07-.64-.93-.63-1,0-.69,7.15-1.1,14.34-1.08,21.52,0,2.66-.53,5.77,1.47,7.89,1.59,1.69,4.59,2.38,5.42,4.72a4.27,4.27,0,0,1-.76,3.81,7.32,7.32,0,0,1-3.74,2.46,31.25,31.25,0,0,1-4.61,1,44.56,44.56,0,0,1-5.29.58c-6.08.29-12.72-1.12-16.85-5.95-2.39-2.79-3.52-6.53-4.79-9.91a68.78,68.78,0,0,1-3.34-11c-.12-.63-1.09-.37-1,.26Z" transform="translate(0 -2.17)"/><path class="cls-6" d="M222.89,124a176.74,176.74,0,0,1,5.53,23.15A158.23,158.23,0,0,1,230.6,171q.1,6.74-.42,13.44c-.05.64.95.64,1,0a150.37,150.37,0,0,0-.09-24,167.09,167.09,0,0,0-3.7-23.63c-1-4.41-2.2-8.79-3.54-13.11-.19-.61-1.15-.35-1,.27Z" transform="translate(0 -2.17)"/><path class="cls-6" d="M100.66,81.34a27.62,27.62,0,0,0,19.92-7.93,25.88,25.88,0,0,0,3.9-4.88c.34-.55-.52-1-.86-.5a26.63,26.63,0,0,1-17,11.78,24.87,24.87,0,0,1-6,.53c-.64,0-.64,1,0,1Z" transform="translate(0 -2.17)"/><path class="cls-6" d="M99.77,81A61.93,61.93,0,0,0,103,88.88c1.16,2.53,2.39,5,3.67,7.52q3.84,7.44,8.37,14.5,2.57,4,5.35,7.88c.37.52,1.24,0,.86-.51a179.1,179.1,0,0,1-16.81-28.65,63.82,63.82,0,0,1-3.71-8.94.5.5,0,0,0-1,.27Z" transform="translate(0 -2.17)"/><line class="cls-7" x1="108.97" y1="77.55" x2="87.99" y2="33.56"/><line class="cls-7" x1="96.62" y1="22.74" x2="115.26" y2="74.74"/><line class="cls-7" x1="104.44" y1="12.77" x2="120.83" y2="70.27"/><path class="cls-6" d="M82.93,27.61a50.47,50.47,0,0,0,1.94,16.53.5.5,0,0,0,1,0,35.76,35.76,0,0,0,2.11-7.24c.06-.33,0-.55.37-.5a6.53,6.53,0,0,1,1,.27l1.91.55,3.95,1.13a.51.51,0,0,0,.57-.74c-1.11-2.23-3.45-3.71-5.33-5.24q-3.3-2.7-6.63-5.36c-.5-.4-1.21.3-.71.71,2.16,1.72,4.31,3.46,6.44,5.2,1,.82,2,1.63,3,2.46a8.84,8.84,0,0,1,2.35,2.74l.57-.74-4.55-1.3-2.27-.65c-.49-.13-1-.18-1.33.28a4.79,4.79,0,0,0-.43,1.72c-.14.73-.31,1.44-.5,2.15a38,38,0,0,1-1.45,4.29h1a49.63,49.63,0,0,1-1.9-16.26c0-.65-1-.65-1,0Z" transform="translate(0 -2.17)"/><path class="cls-6" d="M82.85,28.05a74.53,74.53,0,0,1,5.05,8.29.5.5,0,0,0,.86,0,.75.75,0,0,0,.16-.54c0-.64-1-.64-1,0l0,0h.86a74.45,74.45,0,0,0-5-8.29c-.37-.52-1.24,0-.87.5Z" transform="translate(0 -2.17)"/><path class="cls-6" d="M92.77,14.11a92.8,92.8,0,0,0-1.08,15.17.5.5,0,0,0,.85.36l2.32-2.27,1.07-1c.42-.41.77-.84,1.39-.87,1.81-.1,3.51.83,5.32.14a.5.5,0,0,0,.22-.83A132.37,132.37,0,0,1,93.48,14.2c-.31-.39-1,0-.84.48C93.85,18.21,96,21.37,96.83,25a.5.5,0,0,0,1-.26c-.86-3.65-3-6.81-4.18-10.33l-.84.49a134.22,134.22,0,0,0,9.38,10.56l.22-.83a5.82,5.82,0,0,1-3.1,0,5.58,5.58,0,0,0-2.69-.1,7.33,7.33,0,0,0-2.25,1.91l-2.5,2.44.86.35a90.81,90.81,0,0,1,1-14.91c.09-.63-.87-.9-1-.26Z" transform="translate(0 -2.17)"/><path class="cls-6" d="M100.49,2.64a98.39,98.39,0,0,0-.43,17.16.51.51,0,0,0,.94.25l1.84-2.63.85-1.21c.33-.47.54-1,1.19-.85,1.75.39,3.3,1.39,5.14,1.35.35,0,.67-.43.43-.75L101.12,3c-.3-.43-1.12-.19-.91.38q2.08,5.68,4.4,11.27c.24.59,1.21.33,1-.26q-2.31-5.6-4.41-11.28l-.91.39,9.33,13,.43-.75a8.4,8.4,0,0,1-3.14-.75c-.78-.29-1.87-.85-2.72-.62s-1.43,1.5-1.9,2.17l-2.13,3,.93.26a98.39,98.39,0,0,1,.43-17.16c.08-.63-.92-.63-1,0Z" transform="translate(0 -2.17)"/><path class="cls-7" d="M210.32,154.34a34.3,34.3,0,0,1-1.07,8.55,407.56,407.56,0,0,0-42.68-35.39,26.63,26.63,0,0,1,15.08-4.72C197.48,122.78,210.32,136.91,210.32,154.34Z" transform="translate(0 -2.17)"/><path class="cls-7" d="M201.9,176.68a27.33,27.33,0,0,1-20.25,9.22c-15.83,0-28.67-14.13-28.67-31.56a33.78,33.78,0,0,1,4-16A418.86,418.86,0,0,1,201.9,176.68Z" transform="translate(0 -2.17)"/><path class="cls-7" d="M157,138.3a418.86,418.86,0,0,1,44.94,38.38" transform="translate(0 -2.17)"/><path class="cls-7" d="M166.57,127.5a407.56,407.56,0,0,1,42.68,35.39" transform="translate(0 -2.17)"/><ellipse class="cls-6" cx="162.55" cy="62.45" rx="2.43" ry="4.11"/><ellipse class="cls-6" cx="185.47" cy="60.97" rx="2.43" ry="4.11"/><circle class="cls-6" cx="175.6" cy="74.13" r="3.14"/><circle class="cls-6" cx="176.88" cy="73.9" r="3.14"/><path class="cls-6" d="M176.22,78.31a28.78,28.78,0,0,1-5.89,14.61c-.39.51.32,1.22.71.71a30.05,30.05,0,0,0,6.18-15.32c.06-.64-.94-.64-1,0Z" transform="translate(0 -2.17)"/><path class="cls-6" d="M176,78.75a54.22,54.22,0,0,0,5.65,14.9c.31.56,1.17.06.86-.51A53.3,53.3,0,0,1,177,78.48c-.13-.63-1.1-.36-1,.27Z" transform="translate(0 -2.17)"/><path class="cls-6" d="M117.73,80a79.6,79.6,0,0,1,23.94-5.2q3.5-.2,7-.09c.64,0,.64-1,0-1a80.52,80.52,0,0,0-24.46,3.06c-2.28.65-4.53,1.41-6.75,2.26-.59.23-.33,1.2.27,1Z" transform="translate(0 -2.17)"/><path class="cls-6" d="M120.31,91.91a74.5,74.5,0,0,1,21.05-8.23c2.12-.48,4.25-.85,6.39-1.14.64-.09.37-1.05-.26-1A75.42,75.42,0,0,0,125.65,88c-2,.93-3.94,2-5.84,3.06a.5.5,0,0,0,.5.86Z" transform="translate(0 -2.17)"/><path class="cls-6" d="M100.63,80.72a42.17,42.17,0,0,1,24-14.54c.63-.13.36-1.09-.27-1a43.29,43.29,0,0,0-20,10.13A41.87,41.87,0,0,0,99.93,80c-.41.5.29,1.21.7.71Z" transform="translate(0 -2.17)"/></g></g></svg>