<svg xmlns="http://www.w3.org/2000/svg" viewBox="0 0 208.99 234.49"><defs><style>.cls-1{opacity:0.47;}.cls-2{fill:#017c0a;}.cls-3{fill:#e02727;}.cls-4{fill:none;stroke:#333;stroke-miterlimit:10;}.cls-5{fill:#333;}</style></defs><title>지구_3</title><g id="Layer_2" data-name="Layer 2"><g id="Layer_3" data-name="Layer 3"><g class="cls-1"><path class="cls-2" d="M126.29,163.89a65,65,0,0,0,18-9.51c2.36-1.8,3.6-4.74,2-7.53-1.36-2.32-5.15-3.78-7.53-2a55.75,55.75,0,0,1-15.31,8.4c-6.64,2.33-3.78,13,2.92,10.61Z"/></g><g class="cls-1"><path class="cls-2" d="M93.39,27.12C81,30.18,68.48,32.59,56.89,38.2s-22,15-30.35,24.73C16.92,74.06,11.19,86.4,6.81,100.37c-2.19,7-4.1,14-5.8,21.13-1.92,8-.87,14.41,1.21,22.23A11.14,11.14,0,0,0,12,152a21,21,0,0,1,7.75-5.14,11.8,11.8,0,0,1,2.71-.74,4.52,4.52,0,0,1,2.08-.4,23.77,23.77,0,0,1,11,2.82,13.76,13.76,0,0,0,5.71-2.35,73.94,73.94,0,0,1,4.8-10.85l.09-.14c.47-15.76,7.1-29.78,13.69-43.86.21.1.43.18.65.27q-.09,4.55-.39,9.09c-.27,4,2.16,7.66,5.52,9.72,2.72-1.79,5.71-3,8.59-4.51,3.55-1.9,4.51-3.79,4.23-7.85s-1.39-7.86-.9-11.87a18.26,18.26,0,0,1,4.57-9.64.76.76,0,0,0,0-.11c-.08-.17.71-.86.62-1,1.73-1.84,2.59-3.17,4.16-5.15,4.62-5.85,9.41-8.88,9.93-16.29,1.15-.27,1-4.21,2.14-4.49,1.35-6,2.89-12.48,7.12-16.79A10.92,10.92,0,0,0,93.39,27.12Zm-64,118.44a2.54,2.54,0,0,0,.82-.29C30,145.53,29.74,145.6,29.34,145.56Z"/><path class="cls-2" d="M31.23,99.9l0,.08c0,.12-.1.26-.18.47l.1-.28c-.31.71-.24.52-.1.18l.13-.28a1.45,1.45,0,0,0,.08-.21c.08-.2.12-.26,0,.09Z"/><path class="cls-2" d="M70,91.85c2.35-.46,1.84.16,0,0Z"/></g><g class="cls-1"><path class="cls-2" d="M207.2,126.61a121.83,121.83,0,0,0-16.39-52.52L189,71.8c-2-2.36-4-4.73-6-7.06-4.14-4.81-8.4-9.47-13-13.86A12.68,12.68,0,0,0,168,52a56.33,56.33,0,0,1,1.49,22.74,40,40,0,0,1-6.33,17.22,20.43,20.43,0,0,0,1.28,2.46c.73.36,1.46.75,2.16,1.17,8.93,5.37,13.43,16.26,10.1,26.3a17.39,17.39,0,0,1-7.56,9.63c-.24.18-.47.38-.73.55-2.87,2-6.22,3-9.07,5a22.5,22.5,0,0,0-3.35,2.89,5.61,5.61,0,0,1,.19.62c2,8.5,2,16-1.45,22.72l.45.6c-.1.35-.19.7-.3,1-2.48,8.79-1,15.05,4.69,22.1l.39.47a.38.38,0,0,0,0,.1c.16.5.78,3.15.78,2.92a.34.34,0,0,1,0,.1,9.79,9.79,0,0,1,1.67,2,3.18,3.18,0,0,1,.48,1.06l.15.16a5.14,5.14,0,0,1,1.27,2.91c2.78,4.19,4.2,9,2.95,13.89.12.06.24.14.37.19.77-.69,1.57-1.35,2.39-2a4.64,4.64,0,0,1,1.43-1.43c5.78-3.84,9.76-9.76,15.28-13.84.38-1.13.76-2.26,1.11-3.41a14,14,0,0,0,6.74-7.52c3.34-8,8-15.4,10.15-23.86A99.28,99.28,0,0,0,207.2,126.61Z"/></g><g class="cls-1"><path class="cls-2" d="M39.63,209a138.71,138.71,0,0,0,56.45-10l2-.81q-8-3.62-4.61-.35c1,1.78,3.11,3.5,4.5,4.94a120.12,120.12,0,0,0,9.8,9.08,137.27,137.27,0,0,0,23.17,15.64l2.74-21c-13.65,2.58-27.95,2.13-41.61-.21a216.8,216.8,0,0,1-21.8-5q-4.94-1.37-9.82-2.92c-1.17-.37-4.95-1.45-5-1.59l-13,16.89a223,223,0,0,0,59.49,4.68c6.2-.36,11.5-5,11.5-11.5,0-5.94-5.27-11.86-11.5-11.5a199.29,199.29,0,0,1-53.38-3.86c-9.27-2-18.69,7.95-13,16.9,5.34,8.38,14.21,10.83,23.23,13.53a235.13,235.13,0,0,0,25.34,6.19c18.57,3.37,37.08,4,55.68.53,9.72-1.84,11.14-16.57,2.74-21a109.87,109.87,0,0,1-21.67-14.77c-6.89-6.12-13.71-17.93-24-17.62-4.82.14-9.09,2.57-13.56,4.13a126,126,0,0,1-14.65,4.16,117.56,117.56,0,0,1-29,2.45c-14.81-.46-14.79,22.54,0,23Z"/></g><g class="cls-1"><path class="cls-2" d="M89.57,117.73c8.29-2.92,11.94-9.62,13.18-18,.36-2.43-.6-4.81-3.14-5.54-2.12-.61-5.18.74-5.54,3.14-.72,4.85-1.74,9.86-6.9,11.67-5.42,1.91-3.09,10.61,2.4,8.68Z"/></g><g class="cls-1"><path class="cls-3" d="M178.87,7.7a28.93,28.93,0,0,1-.19,5.5l.09-.67a26.32,26.32,0,0,1-.51,2.79,2.53,2.53,0,0,0,.9,2.63,2.48,2.48,0,0,0,2.77.19l6.23-4.08a2.5,2.5,0,0,0-2.53-4.32l-6.22,4.09,3.67,2.82a31.32,31.32,0,0,0,.79-8.95,2.55,2.55,0,0,0-2.5-2.5,2.53,2.53,0,0,0-2.5,2.5Z"/></g></g><g id="Layer_2-2" data-name="Layer 2"><circle class="cls-4" cx="104.9" cy="130.39" r="103.59"/><path class="cls-5" d="M147.26,224.3c-8.18-4.4-15-10.86-20.94-17.89s-11.41-14.88-17.15-22.3c-2.63-3.4-5.7-7.43-10.26-8.08a12.25,12.25,0,0,0-7,1.48c-2.36,1.14-4.59,2.55-6.94,3.73a62.77,62.77,0,0,1-14.81,5.24,53,53,0,0,1-7.93,1.07c-2.87.17-5.75.08-8.63,0-5.15-.14-10.42-.26-15.43,1.15a20.33,20.33,0,0,0-10.63,6.58,14.74,14.74,0,0,0-1.65,2.61c-.28.57.58,1.08.86.5a17,17,0,0,1,9.48-8c4.7-1.79,9.73-2,14.7-1.9,5.43.09,10.81.35,16.2-.46a60.17,60.17,0,0,0,14.69-4.25,71.3,71.3,0,0,0,7-3.47,25.48,25.48,0,0,1,6.92-3.16,8.53,8.53,0,0,1,6.67,1.3,21.74,21.74,0,0,1,4.86,4.81C113,190.45,118.14,198,124,205.14s12.15,13.57,19.89,18.36c1,.58,1.92,1.14,2.9,1.67.57.3,1.07-.56.51-.87Z"/><path class="cls-5" d="M167.64,212.44a28.08,28.08,0,0,0-1.75-14.84C164,193,161,189,158.45,184.82s-5-9-4.91-14.13,3.21-9.1,4.61-13.8c1.51-5.06.47-10.28-.78-15.26-.3-1.21-.56-2.62.47-3.55a11.53,11.53,0,0,1,3.16-1.67c2.51-1.14,5.06-2.18,7.65-3.14s5.09-1.78,7.68-2.54a3,3,0,0,0,2.13-1.41,4.57,4.57,0,0,0,0-2.81,10.93,10.93,0,0,1,0-4.11,18.06,18.06,0,0,1,1.31-3.72,10.31,10.31,0,0,0,.62-6.55,23.76,23.76,0,0,0-2.82-6.25c-1-1.75-2-3.48-3.21-5.13a29.4,29.4,0,0,0-8.22-8,28.6,28.6,0,0,0-2.86-1.6l.25.43c.12-5.67,3.75-10.47,5.34-15.76,1.69-5.6,1.78-11.54,1.32-17.33-.27-3.33-.72-6.65-1.18-10-.09-.63-1.06-.36-1,.27a96.14,96.14,0,0,1,1.33,17.76A37.15,37.15,0,0,1,168,75.13a62.72,62.72,0,0,1-3.19,7.9,22.22,22.22,0,0,0-2.31,8.55.49.49,0,0,0,.24.43,27.89,27.89,0,0,1,9.33,7.4,43.51,43.51,0,0,1,3.34,4.82,51.24,51.24,0,0,1,3.12,5.62,10.15,10.15,0,0,1,.71,7.37c-.39,1.14-1,2.2-1.35,3.34a11.72,11.72,0,0,0-.64,3.61,20.22,20.22,0,0,0,.38,3.39,1.82,1.82,0,0,1-.38,1.69,4.17,4.17,0,0,1-1.65.65q-3.81,1.13-7.53,2.52t-7.17,2.93c-1.75.78-4.29,1.54-4.74,3.69a6.86,6.86,0,0,0,.29,3.11c.32,1.24.63,2.47.87,3.73a25.42,25.42,0,0,1,.42,8c-.61,4.87-3.8,8.82-4.85,13.55s.3,9.48,2.35,13.7c2.15,4.43,5.18,8.34,7.61,12.6A29,29,0,0,1,167,208.3a27.78,27.78,0,0,1-.3,3.87c-.1.63.87.91,1,.27Z"/><path class="cls-5" d="M140,152.69a4.62,4.62,0,0,0,1.59-1.94,4.31,4.31,0,0,0,0-2.61c-.36-1.4-1-3.39-2.43-4-1.71-.73-3.25.64-4.24,1.89a17.61,17.61,0,0,1-4.24,3.83c-2.89,1.92-6.26,3.75-7.65,7.13a3.18,3.18,0,0,0-.31,2.33,2,2,0,0,0,1.9,1,13.11,13.11,0,0,0,5.14-.92c3.85-1.45,7.09-4.12,10.24-6.7.5-.41-.21-1.11-.7-.71a48.19,48.19,0,0,1-7.54,5.4,16.9,16.9,0,0,1-4.16,1.63,12.41,12.41,0,0,1-2.19.3,5.25,5.25,0,0,1-1.19,0c-.58-.13-.68-.5-.55-1.06.66-2.94,3.49-4.9,5.86-6.43a39.15,39.15,0,0,0,3.84-2.66,14.23,14.23,0,0,0,1.62-1.58,17,17,0,0,1,1.6-1.89,2.08,2.08,0,0,1,2.34-.53,3.61,3.61,0,0,1,1.26,2,6.26,6.26,0,0,1,.6,2.75,3.32,3.32,0,0,1-1.49,2.15C138.83,152.39,139.54,153.1,140,152.69Z"/><path class="cls-5" d="M6,160.42c1.9-6.23,8-9.82,13.37-12.76a13.43,13.43,0,0,1,5.52-2,11.93,11.93,0,0,1,5.19,1c1.66.65,3.24,1.47,4.87,2.17s3.19,1.53,4.43,0a31.14,31.14,0,0,0,3-4.67,51.9,51.9,0,0,0,2.41-4.91A62.7,62.7,0,0,0,48,129c1.58-6.74,2.54-13.71,5.24-20.13a29.12,29.12,0,0,1,15.89-16l-.63-.48-.49,3.68c-.13,1-.53,2.27-.17,3.23.28.78,1.1,1.11,1.44,1.83a2.48,2.48,0,0,1,0,1.72c-.63,2.28-3,4.93-1.53,7.32a.51.51,0,0,0,.79.11q3.7-4.35,7.34-8.75c.91-1.11,2.09-2.38,1.34-3.9-.31-.65-.83-1.17-1.19-1.79a8.69,8.69,0,0,1-1-2.45c-1.61-6.73,5-11.65,9.29-15.65,4.44-4.13,8.9-8.63,11.09-14.42C96.76,60,97,56.47,97.7,53a60.33,60.33,0,0,1,2.38-8.86,41.67,41.67,0,0,1,11-16.72c.47-.44-.24-1.15-.71-.71a42,42,0,0,0-10.19,14.5,53,53,0,0,0-2.75,8.41c-.82,3.39-1.17,6.86-1.93,10.26-1.43,6.37-5.61,11.28-10.2,15.69-2.23,2.14-4.61,4.14-6.74,6.37s-4,4.78-4.52,7.84a9.71,9.71,0,0,0,.5,5.06A9.57,9.57,0,0,0,75.8,97.2a3.49,3.49,0,0,1,.73,1.23,1.84,1.84,0,0,1-.46,1.4c-1.19,1.69-2.65,3.23-4,4.82l-4.19,4.95.79.1c-.69-1.08-.2-2.36.28-3.42a15.2,15.2,0,0,0,1.45-3.64,3.26,3.26,0,0,0-.09-1.64,5,5,0,0,0-1.26-1.62,1.61,1.61,0,0,1-.27-1.44c.07-.62.16-1.23.24-1.84l.49-3.68a.5.5,0,0,0-.63-.48A29.67,29.67,0,0,0,54,105.16c-3.41,6.2-4.66,13.26-6.12,20.1a87.72,87.72,0,0,1-2.69,10.34,49,49,0,0,1-5,10.37,16.9,16.9,0,0,1-1.62,2.38c-.76.81-1.94.13-2.78-.22-1.72-.72-3.37-1.58-5.1-2.28a14,14,0,0,0-5.12-1.21A11.5,11.5,0,0,0,20.38,146,49.66,49.66,0,0,0,11,151.87a17.52,17.52,0,0,0-5.94,8.28c-.19.62.77.88,1,.27Z"/><path class="cls-5" d="M97.32,109.56a18.54,18.54,0,0,0,1-3.59l.9-4.27c.3-1.42.63-2.83.9-4.25.17-.88.17-2-.81-2.4-1.94-.8-3.46,2.27-4.21,3.53-1.15,1.94-2.16,4-3.37,5.86a18.63,18.63,0,0,1-4.22,4.72,9.32,9.32,0,0,0-2.4,3,3.7,3.7,0,0,0-.34,3.32c.68,1.23,2.4,1.31,3.62,1.15A10.81,10.81,0,0,0,93.47,114a13.32,13.32,0,0,0,3.85-4.43c.26-.59-.6-1.09-.87-.51a11.16,11.16,0,0,1-2.72,3.4,15.17,15.17,0,0,1-4.13,2.83c-1,.43-2.71.8-3.68.06-.72-.54-.4-1.62-.11-2.31a8.52,8.52,0,0,1,1.91-2.73c.52-.5,1.13-.9,1.66-1.39a17,17,0,0,0,1.89-2.08c2.34-3,3.74-6.66,6-9.76A2.78,2.78,0,0,1,98.48,96c.75-.26.77.57.69,1.1-.23,1.37-.58,2.73-.87,4.09l-.85,4a19.27,19.27,0,0,1-1,3.83C96.19,109.63,97.06,110.14,97.32,109.56Z"/><path class="cls-5" d="M35.33,53.57,30,47.31c-.88-1-1.79-2-2.64-3.08-.59-.73-.43-1.15.24-1.69.93-.74,2.44-1.39,2.4-2.79,0-1.09-1.1-2-1.73-2.81l-2.66-3.29L23,30.45c-.7-.86-2-2.07-1.79-3.31s1.51-1.81,2.34-2.4c1.06-.77,2.1-1.58,3.2-2.29a2.67,2.67,0,0,1,3.08-.15A8.51,8.51,0,0,1,32,24.66c1.45,2,2.89,4.1,4.32,6.16,3.29,4.72,6.54,9.46,9.87,14.14.37.52,1.24,0,.87-.5C43.91,40,40.8,35.47,37.67,31c-1.54-2.22-3.09-4.44-4.65-6.64-1.15-1.62-2.7-3.75-5-3.46a7.59,7.59,0,0,0-3.25,1.75c-1.07.76-2.19,1.49-3.21,2.33a3.13,3.13,0,0,0-1.37,2.65,5.86,5.86,0,0,0,1.69,3.07l5.64,7c.55.68,1.92,1.8,1.19,2.73a8.14,8.14,0,0,1-1.67,1.3,2.34,2.34,0,0,0-1.14,1.74,2.12,2.12,0,0,0,.58,1.36c.5.62,1,1.22,1.56,1.84l6.56,7.66c.42.49,1.12-.22.7-.71Z"/><path class="cls-5" d="M52,41.42l-4-5.94L47.1,34c-.26-.39-1-1.21-.91-1.73s.88-.75,1.23-1l1.42-.88,1.42-.89c.42-.26.92-.67,1.41-.33a3.86,3.86,0,0,1,.85,1.24l1,1.61,3.7,6.22A.5.5,0,0,0,58,37.8l-3.51-5.89C54,31,53.48,30,52.89,29.15a2,2,0,0,0-1.73-1,6.07,6.07,0,0,0-2.42,1.24c-.91.57-1.87,1.09-2.74,1.72-1.81,1.3.06,3.22.92,4.51l4.24,6.36c.36.53,1.22,0,.86-.51Z"/><path class="cls-5" d="M42.21,38.11a9.54,9.54,0,0,0,4.24-3.06.53.53,0,0,0,0-.71.51.51,0,0,0-.71,0A8.58,8.58,0,0,1,42,37.14a.5.5,0,0,0,.26,1Z"/><path class="cls-5" d="M65.17,34.41c-1.15-1.92-2.34-3.83-3.44-5.78a3.72,3.72,0,0,1-.64-2.82c.29-1,1.06-1,1.84-1.39,1.88-1,.27-3.34-.31-4.61l-1.43-3.09c-.49-1.06-1-2.1-1.46-3.19A2.07,2.07,0,0,1,59.62,12a3,3,0,0,1,1-1.13,24.21,24.21,0,0,1,5.51-3.08,1.09,1.09,0,0,1,.66-.13c.22.07.37.37.48.55a6.87,6.87,0,0,1,.6,1.52c.46,1.51,1.14,3.41,2.93,3.72a2.37,2.37,0,0,0,1.06-.08c.49-.13,1.09-.52,1.47,0a4.77,4.77,0,0,1,.48,1.24l.57,1.59c1.64,4.56,3.32,9.11,4.94,13.68.22.61,1.18.35,1-.26-1.57-4.43-3.2-8.84-4.79-13.26-.37-1-.69-2.12-1.13-3.13a1.6,1.6,0,0,0-1.84-1.09,6,6,0,0,1-1.43.35,1.94,1.94,0,0,1-1.27-.75,8.59,8.59,0,0,1-1.19-2.86C68.39,8,68,7,67.14,6.67s-2,.38-2.72.73a25,25,0,0,0-3,1.68,9,9,0,0,0-2.3,1.85,2.74,2.74,0,0,0-.35,2.76c.39,1.09,1,2.14,1.44,3.2l1.59,3.43c.23.52.47,1,.71,1.55s.64,1.22.1,1.61-1,.31-1.38.57a2.39,2.39,0,0,0-.82.91,3.58,3.58,0,0,0-.08,3,22.21,22.21,0,0,0,1.84,3.34l2.18,3.65a.5.5,0,0,0,.86-.51Z"/><path class="cls-5" d="M96.07,26A112.8,112.8,0,0,1,93.93,13.1q-.34-3.27-.49-6.55c0-.53,0-1-.06-1.58a4.75,4.75,0,0,1,0-1.46c.28-.93,1.67-1,2.47-1.14A65.71,65.71,0,0,1,109,1l1.58,0c.48,0,1-.05,1.16.51a4.84,4.84,0,0,1,0,1.37c0,.57-.07,1.15-.11,1.73-.13,2.23-.29,4.45-.48,6.68q-.61,7.47-1.6,14.91c-.08.63.92.63,1,0q1-7.26,1.57-14.54c.2-2.39.38-4.78.52-7.17a11.74,11.74,0,0,0,.07-3.24A1.62,1.62,0,0,0,111,.07a60.24,60.24,0,0,0-14,1.06,18.75,18.75,0,0,0-3.32.74,2,2,0,0,0-1.34,1.8,19.49,19.49,0,0,0,.07,3.24c.06,1.22.14,2.43.23,3.64A114.55,114.55,0,0,0,95.11,26.3c.14.63,1.11.36,1-.27Z"/><path class="cls-5" d="M77.63,23.39a17.45,17.45,0,0,0,5.56-1.46l-.68-.18a16.32,16.32,0,0,1,1.77,6.92c0,.64,1,.64,1,0a17.42,17.42,0,0,0-1.91-7.42.5.5,0,0,0-.68-.18,16.1,16.1,0,0,1-5.06,1.32c-.63.05-.64,1.06,0,1Z"/><path class="cls-5" d="M84.42,24.73c.91-.42,1.85-.8,2.78-1.19l1.44-.61c.35-.16,1-.62,1.36-.37a1.87,1.87,0,0,1,.52,1.07A10.06,10.06,0,0,1,90.78,25a15.12,15.12,0,0,1,.14,2.69c0,.64,1,.64,1,0a15.94,15.94,0,0,0-.21-3.16c-.14-.93-.33-2.28-1.21-2.82a1.88,1.88,0,0,0-1.83.14l-1.52.65c-1.08.46-2.17.9-3.24,1.38-.58.27-.08,1.13.51.87Z"/><path class="cls-5" d="M86.3,10.79a21.57,21.57,0,0,0,3.39-.37A30.93,30.93,0,0,0,93,9.66c.62-.18.35-1.15-.26-1a29.23,29.23,0,0,1-3.21.73,19.36,19.36,0,0,1-3.22.36.5.5,0,0,0,0,1Z"/><path class="cls-5" d="M85.81,10.51A53.72,53.72,0,0,1,88,22.37c.05.64,1.05.65,1,0a55,55,0,0,0-2.18-12.13c-.19-.61-1.16-.35-1,.27Z"/><path class="cls-5" d="M111.52,14.53c1.44.3,2.91.55,4.34.9.24.06.63.13.75.37s-.1.84-.16,1.13L116,18.86c-.62,2.7-1.22,5.39-1.85,8.08-.14.63.82.89,1,.27.72-3.1,1.41-6.21,2.13-9.32.27-1.19.86-2.65-.6-3.26a12.45,12.45,0,0,0-2.19-.51l-2.67-.55c-.63-.13-.9.83-.27,1Z"/><path class="cls-5" d="M127.5,28.54l3.23-6.19c.52-1,1-2,1.55-3a4.27,4.27,0,0,1,1.64-1.92c1.48-.72,3,1,4.41,1.17,1.95.28,2.75-1.64,3.49-3.06L145,9.45c.4-.76.85-2.24,1.82-2.41s2.14.66,3,1.08l1.4.7a5.74,5.74,0,0,1,1.33.74c.47.43.17,1-.07,1.49s-.57,1.11-.86,1.66l-3.24,6.21L141,33c-.29.57.57,1.08.87.51L148.94,20l3.53-6.75a8.36,8.36,0,0,0,1.33-3c0-1-.65-1.51-1.43-1.91-1.08-.55-2.16-1.09-3.25-1.62a4,4,0,0,0-2.68-.57c-1,.26-1.41,1.16-1.83,2l-1.71,3.28-1.77,3.4c-.44.84-.87,2.16-1.7,2.7s-1.66,0-2.37-.35a5.35,5.35,0,0,0-2.35-.8c-2.22-.05-3.24,2.48-4.09,4.11l-4,7.63c-.3.57.56,1.07.86.5Z"/><path class="cls-5" d="M153.32,38.8a38.58,38.58,0,0,1,3.87-6.71,23.76,23.76,0,0,1,2.41-3c.84-.83,1.85-1.41,3-.8,1.33.71,2.78,2.56,4.45,1.52a3.72,3.72,0,0,0,1-1.09c.43-.63.85-1.27,1.27-1.91l2.31-3.46,1.22-1.83A10.24,10.24,0,0,1,174,19.88c.57-.58,1.25,0,1.82.29l1.88,1,1.79,1c.5.28,1.29.56,1.55,1.11.49,1.07-.75,2.65-1.28,3.49a25.35,25.35,0,0,1-2.27,3.07c-.81.94-1.74,1.73-2.59,2.62a1.7,1.7,0,0,0-.11,2.45c.69.77,1.67.92,2.53,1.4.52.29,1,.68.71,1.31a10.75,10.75,0,0,1-.95,1.64c-.72,1.17-1.49,2.3-2.29,3.42-1.6,2.25-3.3,4.43-5,6.58-.4.49.3,1.2.71.7,1.61-2,3.19-4,4.7-6.08.77-1.07,1.53-2.16,2.25-3.28.32-.49.63-1,.93-1.49a4.53,4.53,0,0,0,.77-1.65,2.21,2.21,0,0,0-1.5-2.13c-.65-.31-3-.93-2.13-2a14.54,14.54,0,0,1,1.33-1.27c.48-.47.94-1,1.38-1.48a26.36,26.36,0,0,0,2.37-3.19A8.07,8.07,0,0,0,182.11,24c.13-1.25-.7-1.91-1.7-2.46l-4-2.19c-1.05-.58-2.15-1.22-3.14-.19a10.3,10.3,0,0,0-1,1.47l-1.35,2-2.57,3.87c-.4.59-.78,1.2-1.19,1.79s-.76.92-1.39.78c-.9-.19-1.63-1-2.38-1.5a3.06,3.06,0,0,0-3.15-.21,10.29,10.29,0,0,0-3,2.93,38.57,38.57,0,0,0-4.8,8c-.27.58.6,1.09.86.5Z"/><path class="cls-5" d="M150.45,16.4l2,1.43c.58.41,1.57.86,1.89,1.51s-.53,1.92-.88,2.58l-1.3,2.39-5.28,9.8c-.31.57.56,1.08.86.51l6-11.11c.47-.88,1-1.74,1.41-2.65a2.16,2.16,0,0,0,0-2.13,6.59,6.59,0,0,0-1.93-1.58L151,15.54c-.53-.37-1,.5-.5.86Z"/><path class="cls-5" d="M150.42,28.84l5.44,3.46c.54.35,1-.51.5-.86L150.92,28c-.54-.35-1,.52-.5.86Z"/><path class="cls-5" d="M173.89,45.66a10.3,10.3,0,0,1,2,1,3,3,0,0,1,1.39,1.45c.25.82-.64,1.53-1.15,2l-2.49,2.5c-.46.45.25,1.16.71.7,1-1,1.93-1.91,2.88-2.88a2.76,2.76,0,0,0,1-2.63,3.79,3.79,0,0,0-1.67-1.93,11.06,11.06,0,0,0-2.44-1.2c-.61-.23-.87.74-.27,1Z"/><path class="cls-5" d="M177.5,49.54,179,51.39l.73.88a6.81,6.81,0,0,1,.75.95c.33.59-.62,1.31-1,1.67a17.92,17.92,0,0,1-1.9,1.69c-.51.4.21,1.1.71.71a20.8,20.8,0,0,0,2.15-1.94c.56-.59,1.3-1.29,1.08-2.19a2.79,2.79,0,0,0-.64-1L180,51l-1.81-2.21c-.4-.49-1.11.22-.7.71Z"/><path class="cls-5" d="M125.55,19.72A6.56,6.56,0,0,0,128.08,21a8.14,8.14,0,0,0,2.77.38.52.52,0,0,0,.5-.5.5.5,0,0,0-.5-.5,7,7,0,0,1-2.44-.33,9.45,9.45,0,0,1-1.23-.43c-.18-.09-.36-.18-.53-.28a2.33,2.33,0,0,1-.39-.28c-.48-.43-1.19.28-.71.71Z"/><path class="cls-5" d="M125.42,19.23a37.77,37.77,0,0,1-3.8,8.69.5.5,0,0,0,.86.5,39.18,39.18,0,0,0,3.91-8.92.5.5,0,0,0-1-.27Z"/><path class="cls-5" d="M28.34,25.75,29.56,27a.49.49,0,0,0,.7,0,.5.5,0,0,0,0-.71L29.05,25a.5.5,0,0,0-.71,0,.52.52,0,0,0,0,.71Z"/><path class="cls-5" d="M97.77,6.79V8a.51.51,0,0,0,.15.35.47.47,0,0,0,.35.15.51.51,0,0,0,.5-.5V6.79a.53.53,0,0,0-.15-.36.5.5,0,0,0-.35-.14.51.51,0,0,0-.5.5Z"/><path class="cls-5" d="M104.22,5.84l-.43,2a.5.5,0,1,0,1,.27l.42-2a.5.5,0,0,0-.35-.61.49.49,0,0,0-.61.35Z"/><path class="cls-5" d="M99.39,13.66v2a.51.51,0,0,0,.5.5.51.51,0,0,0,.5-.5v-2a.51.51,0,0,0-.5-.5.51.51,0,0,0-.5.5Z"/><path class="cls-5" d="M104.24,12.85v1.22a.51.51,0,0,0,.15.35.53.53,0,0,0,.35.15.51.51,0,0,0,.5-.5V12.85a.52.52,0,0,0-.14-.35.53.53,0,0,0-.36-.15.51.51,0,0,0-.5.5Z"/><path class="cls-5" d="M100.2,20.54v.81a.5.5,0,0,0,.14.35.53.53,0,0,0,.36.15.51.51,0,0,0,.35-.15.53.53,0,0,0,.15-.35v-.81a.51.51,0,0,0-.15-.35.49.49,0,0,0-.35-.15.53.53,0,0,0-.36.15.48.48,0,0,0-.14.35Z"/><path class="cls-5" d="M105.05,19.73v1.21a.53.53,0,0,0,.15.36.5.5,0,0,0,.35.14.51.51,0,0,0,.5-.5V19.73a.47.47,0,0,0-.15-.35.45.45,0,0,0-.35-.15.51.51,0,0,0-.5.5Z"/><path class="cls-5" d="M183.33,12.82a16.84,16.84,0,0,1,.45-4c.15-1.15-.15-2.68-1.35-3.17s-2.24.43-2.7,1.5a15.87,15.87,0,0,0-.7,4.9l-.27,3.11-.12,1.43a4.09,4.09,0,0,0,0,1.21c.37,1.52,2.9.49,3.83.13a11.78,11.78,0,0,0,3.79-2.4c1-1,2.36-2.44,2.44-3.93a2.36,2.36,0,0,0-2.82-2.23c-1.71.2-2.7,1.82-3.46,3.18-.32.57.55,1.07.86.51.55-1,1.19-2.21,2.32-2.61.92-.32,2.27.13,2.07,1.3a6.6,6.6,0,0,1-2.12,3.07,10.36,10.36,0,0,1-2.89,2,9.63,9.63,0,0,1-1.66.59l-.71.16a1.92,1.92,0,0,1-.48.07c-.24,0-.19-.09-.21-.32a15.25,15.25,0,0,1,.19-2.23l.21-2.39a34.85,34.85,0,0,1,.39-4.21c.15-.7.6-2.2,1.6-1.9s.87,2,.73,2.8a12.31,12.31,0,0,0-.37,3.47c.08.63,1.08.63,1,0Z"/><path class="cls-5" d="M68.75,18.88a9.94,9.94,0,0,0,6-2.68c.46-.45-.25-1.15-.71-.71a8.81,8.81,0,0,1-5.28,2.39.52.52,0,0,0-.5.5.5.5,0,0,0,.5.5Z"/><path class="cls-5" d="M68.14,18.63l1.57,2.93L70.47,23a5.91,5.91,0,0,0,.74,1.23c.7.78,1.63.46,2.44.05l3.08-1.59c.57-.3.07-1.16-.51-.86l-2.59,1.33a4.87,4.87,0,0,1-1.18.55c-.41.08-.6-.25-.77-.57-.92-1.65-1.78-3.33-2.67-5-.31-.57-1.17-.06-.87.5Z"/><path class="cls-5" d="M145.21,11.82l-.41.8a.51.51,0,0,0,.18.69.5.5,0,0,0,.38,0,.53.53,0,0,0,.3-.23l.41-.81a.53.53,0,0,0,.05-.39.48.48,0,0,0-.23-.29.43.43,0,0,0-.38-.05.46.46,0,0,0-.3.23Z"/><path class="cls-5" d="M148.82,12.84l-.79.83a.51.51,0,0,0-.15.35.53.53,0,0,0,.15.36.46.46,0,0,0,.35.14.54.54,0,0,0,.36-.14l.78-.83a.51.51,0,0,0,.15-.35.49.49,0,0,0-.15-.36.46.46,0,0,0-.35-.14.5.5,0,0,0-.35.14Z"/><path class="cls-5" d="M146.92,34.15a3.63,3.63,0,0,0-.6.9.33.33,0,0,0-.06.19.34.34,0,0,0,0,.2.5.5,0,0,0,.23.3.5.5,0,0,0,.68-.18,3.14,3.14,0,0,1,.4-.66l-.07.1.11-.15a.36.36,0,0,0,.11-.16.41.41,0,0,0,0-.19.51.51,0,0,0-.5-.5.45.45,0,0,0-.35.15Z"/><path class="cls-5" d="M160.68,31.25l-.69,1.4-.33.66a4.69,4.69,0,0,0-.33.72c-.18.61.38.88.84,1.11l1.35.67.66.32a3.38,3.38,0,0,0,.72.34c.58.14.83-.49,1.07-.89l.77-1.32a.81.81,0,0,0,.14-.81c-.13-.24-.38-.32-.6-.45a8.72,8.72,0,0,1-1.19-.91L161.78,31a.51.51,0,0,0-.71,0,.49.49,0,0,0,0,.7L162.62,33l.73.58a3.22,3.22,0,0,0,.36.24l.21.12c.06,0,.17.15.09,0L164,33.7v.08l.07-.26c-.19.39-.43.75-.65,1.11l-.32.56-.14.24-.1.16a.08.08,0,0,0,0,0l.25-.06c.08,0,.11,0,0,0l-.2-.1-.33-.16-.74-.37-1.44-.71a.61.61,0,0,0-.14-.07l-.05,0,.09.28a3.08,3.08,0,0,0,.19-.37l.34-.7.74-1.49a.51.51,0,0,0-.18-.68.51.51,0,0,0-.69.18Z"/><path class="cls-5" d="M168.23,35.6l-.8,1.51-.39.73a3.11,3.11,0,0,0-.36.76c-.12.59.5.92.93,1.17a11.4,11.4,0,0,1,1.22.71c.41.29.67.76,1.22.78s.88-.62,1.16-1l.93-1.46a1.3,1.3,0,0,0,.32-.73c0-.33-.29-.52-.51-.71A20.84,20.84,0,0,0,169,35.24a.5.5,0,0,0-.51.86c.56.32,1.1.67,1.62,1,.24.17.47.35.7.53l.39.32c.1.08.27.17.32.28l-.06-.25c0-.09,0,0-.05,0a2.39,2.39,0,0,0-.13.21l-.24.37-.45.71-.48.75a.57.57,0,0,0-.11.16.21.21,0,0,0,0,.06l.14,0s-.18-.15-.18-.15a4.68,4.68,0,0,0-1.17-.85l-.6-.33c-.15-.09-.47-.22-.55-.38l.07.25c0-.13.21-.41.28-.54l.38-.73.76-1.42c.3-.57-.56-1.07-.86-.51Z"/><path class="cls-5" d="M24.61,28.25a9.37,9.37,0,0,0,1.28,1.67.5.5,0,0,0,.71-.71,8.93,8.93,0,0,1-.63-.73l.08.11a7,7,0,0,1-.57-.85.5.5,0,0,0-.87.51Z"/><path class="cls-5" d="M117.15,18.89c.95.08,1.9.2,2.84.36.07,0,.07,0,0,0s-.06,0,0,0,0,.32,0,.43-.1.43-.16.65c-.12.48-.26,1-.39,1.43-.54,1.87-1.16,3.72-1.84,5.54-.23.6.73.87,1,.27q1.23-3.27,2.15-6.64c.19-.69.74-2.15-.18-2.57a5.52,5.52,0,0,0-1.52-.28c-.6-.08-1.19-.14-1.79-.19s-.64.94,0,1Z"/><path class="cls-5" d="M56.39,35.2a43.21,43.21,0,0,1,6-4c.57-.31.07-1.17-.5-.86a44.13,44.13,0,0,0-6.24,4.14.5.5,0,0,0,0,.71.5.5,0,0,0,.7,0Z"/></g></g></svg>