<svg xmlns="http://www.w3.org/2000/svg" viewBox="0 0 987.91 761.49"><defs><style>.cls-1{opacity:0.25;}.cls-2{fill:#34b44a;}.cls-3{opacity:0.38;}.cls-4{fill:#ffe094;}.cls-5{opacity:0.4;}.cls-6{opacity:0.5;}.cls-7{fill:#9f9f9f;}.cls-8{fill:#969696;}.cls-9{opacity:0.46;}.cls-10{fill:#fff;}.cls-11{opacity:0.29;}.cls-12{fill:#fbcfd4;}.cls-13{fill:#bbb;}.cls-14{fill:#fbd9df;}.cls-15{fill:#333;}</style></defs><title>main-me</title><g id="Layer_2" data-name="Layer 2"><g id="Layer_1-2" data-name="Layer 1"><g class="cls-1"><path class="cls-2" d="M987.73,264.4c-1.57-24.09-9.71-46.14-27.53-63.34C926,168,874.33,170.26,830,172.32a749,749,0,0,0-114.23,14.39,616.92,616.92,0,0,0-106.72,32.12l-17.85,7.46a57.92,57.92,0,0,0-11.44,8,8.24,8.24,0,0,1,1.33,1c3.64,3.21,7.65,5,10,9.55a18.75,18.75,0,0,1,1.45,3.65c2.12,4.25,2.14,9.5.71,14.33a7.36,7.36,0,0,1-1,4.28c-.9,1.65-1.8,3.29-2.73,4.9a5,5,0,0,1-.35,1.53,20.88,20.88,0,0,1-4.92,7.47c-.58.57-1.19,1.1-1.79,1.64a41,41,0,0,1-6.69,6.61,35.59,35.59,0,0,1-8.54,7.26,6.3,6.3,0,0,1-1.5.63c-.47.41-1,.81-1.45,1.2l-.1.1a6.08,6.08,0,0,1-2.39,1.67c-.42.27-.86.51-1.29.76a7.4,7.4,0,0,1-2.78,3,41.72,41.72,0,0,1-9,3.87c-.37.27-.76.5-1.15.74a6.73,6.73,0,0,1-3,1.64c-.34.07-.67.17-1,.26-.65.24-1.29.45-1.94.65l-.14,0c-2.45.91-4.83,2-7.36,2.72a8.69,8.69,0,0,1-1,.16l-.37.38A22.52,22.52,0,0,1,517.68,325c-3.15.57-6.69.88-9.79-.18-.33,0-.66,0-1,0-5.78.14-12.79-.27-16.14-5.75a9.91,9.91,0,0,1-1.05-2.3c-.2-.28-.39-.58-.58-.87a11.31,11.31,0,0,1-3.3-.7l-.23.1c-3.92,1.39-8-1.21-10.41-4.08a1.91,1.91,0,0,1-.29-.76c-3-2.64-3.51-6.57-3.18-10.44-.74,1.52-1.43,3-2.12,4.55a8.84,8.84,0,0,1-.18,1.45c0,.18-.07.36-.1.55,0,.62-.1,1.24-.12,1.87-.06,1.33-.06,2.66-.06,4a7.33,7.33,0,0,1-.8,3.32,8.34,8.34,0,0,1,.53,1.08,58.62,58.62,0,0,1,3.74,12.65,7.4,7.4,0,0,1,.74,3.44c-.14,11.7-.58,20.18-8.22,29.69-5.47,6.79-14.07,13.52-22.92,14.89a8.74,8.74,0,0,1-1.6.09,21.45,21.45,0,0,1-6.37,2.37c-2.31.41-4.67,1.62-6.83,1-5.69,3.71-11.54,4.46-17.61,7.55l-.94.29c-1.44,0-2.88-.07-4.32-.13-8.77-.35-18.09,2.94-26.86,6.41-11.18.45-22.37.55-33.56.93-12.7.43-25.17,1.7-37.77,3.38-12.38,1.64-24.65,3.24-36.51,7.28-1.87.64-3.71,1.29-5.54,2a58.81,58.81,0,0,0-11.28-.6l-19.86,2.64a74.72,74.72,0,0,0-33,19l-85.52,71.61C102,511.94,88.75,522.13,77,533.72c-18.35,18.11-33.69,40.8-40.06,65.92a75.91,75.91,0,0,0-1.5,7.64,76.24,76.24,0,0,0-19.09,17.51C2.41,642.64-4.32,667,3,689.26c9.43,28.76,29.46,48.5,58.29,58.08,12,4,25.34,4.39,38,5.19q26.49,1.66,53,3,53.72,2.76,107.5,4.24,106.86,2.93,213.78.78t213.58-9.36c40.25-2.73,80.85-4.92,120.74-11.08,3-.46,6-1,9-1.7a76.38,76.38,0,0,0,22.88-2.57,74.9,74.9,0,0,0,33-19,72,72,0,0,0,8.41-10C894.34,696,905,683.93,916,669.34c12.13-16.1,20.13-35.07,27.07-53.8,7.5-20.2,10.09-41.31,12.72-62.59,4.32-34.91,2.18-70.22,5.67-105.18,5.15-30.59,13.45-60.6,17.88-91.35,3.22-22.24,6.16-44.5,7.6-66.92C987.47,281.21,988.27,272.71,987.73,264.4Z"/></g><g class="cls-3"><path class="cls-4" d="M475.48,236c0-6.15-1.17-11.89-4.74-16.3-6.55,4.75-14.45,6.44-22.92,6.37-5.62,0-11.22-.75-16.85-.4-6.48.41-12.43,2.3-18.68,3.82a37,37,0,0,1-5.05.86,59.43,59.43,0,0,1-17.75,2.56,41.4,41.4,0,0,1-7.79-.84c-.94.17-1.88.31-2.87.4a23,23,0,0,1-13.35-2.71,12.54,12.54,0,0,1-1.9-.31c-4.53,0-9.34-2.5-12.8-6a5.92,5.92,0,0,1-1.65-.77,12,12,0,0,1-5.49-12c.07-.51.18-1,.29-1.49,0,0,0,0,0-.07-3.51-10.48-.31-22.85,3.05-32.92,1.7-5.08,4.23-9.85,5.78-15,1.3-4.28,2.18-8.57,4.38-12.43a16.5,16.5,0,0,0-9,7.7c-19.82,34.13-28.09,72.73-36.82,110.77-8.07,35.17-17.43,70.39-39.5,99.64-7.16,9.5.76,22.92,10.54,25.92,16.12,4.93,38.47,5.19,51.41-7.41,7.27-7.07,8.12-15.86,9.33-25.33a205.73,205.73,0,0,1,4.58-23.32q1.52-6,3.28-12c7.6,4.12,17.2,5.93,24.8,7.15a133.69,133.69,0,0,0,43.09-.06c12.69-2.05,26.74-6.19,37.37-13.6,13.58-9.48,18.58-23.44,19-39.57C475.57,264.48,475.56,250.2,475.48,236Z"/></g><g class="cls-5"><path class="cls-4" d="M356.92,260.21A51.65,51.65,0,0,0,352,273.27a3,3,0,0,0,3.69,3.69l2-.63L354,272.64l-4.8,16.42c-.8,2.76,3,5.26,5,2.92l.29-.27L350.82,288a153.84,153.84,0,0,1-3.69,16.14c-.8,2.77,2.14,4.35,4.4,3.39l2.44-1-4.4-3.38-2.63,12.51c-.53,2.5-2,6.17-1.08,8.79,1.9,5.22,12.06,5.32,16.4,5.17,3.85-.13,3.87-6.13,0-6a50.34,50.34,0,0,1-8-.73,2.72,2.72,0,0,0-2.7-.27l.75-3.57,3-14.31c.58-2.76-2-4.4-4.4-3.39l-2.45,1,4.41,3.38a150.29,150.29,0,0,0,3.7-16.14c.37-2.16-1.32-4.37-3.69-3.69a5,5,0,0,0-2.94,1.82l5,2.92,4.8-16.43a3,3,0,0,0-3.69-3.69l-2,.63,3.69,3.69a45.57,45.57,0,0,1,4.32-11.62c1.82-3.41-3.35-6.44-5.18-3Z"/></g><g class="cls-6"><path class="cls-7" d="M472.18,164.72c-3.53-7-5.51-8.33-9.16-11.13-1.93-1.48-2.9-3-4.83-4.51.1-1.29-1.79-2.38-2-3.66-.45-.35,0-.87-.4-1.28a32.76,32.76,0,0,1-3.09-4.21,29.8,29.8,0,0,1-2.77-4.56,46,46,0,0,1-3.29-10.4l-.15-.79,0-.09-.3-1.06q-2.94-10.36-5.87-20.73a132.16,132.16,0,0,1-3.84-15.61c1.18-15.49.89-31.12-1.85-46.2-4.74-26.07-28.34-46.31-52.57-35-.15.07-.3.17-.45.25-7-5.83-17.31-7.06-25.78-4.37C345.3,4.7,338,14.07,333.7,23.92c-5.38,12.47.17,24.49,13.72,27.68a24.57,24.57,0,0,0,6.22.62,18.42,18.42,0,0,1-4.22-6.47c-1.25-3.25-1.3-6.94-1.26-10.39s.46-5.35,2.49-8.34c0,0,.05-.05.07-.08a5.26,5.26,0,0,1,.53-1.15,5.71,5.71,0,0,1,.94-1.21c.09-.13.18-.25.28-.37.65-.75,1.4-1.4,2.1-2.11a.73.73,0,0,1,1,0,.13.13,0,0,1,0,0l0,0a.77.77,0,0,1,0,1l-.2.27a.54.54,0,0,1-.09.12,22.56,22.56,0,0,0-1.92,3c.68.5,1-.61.4.31-1.76,2.59-2,5.85-2,8.91,0,1.38,0,2.79.11,4.18h.15A1.9,1.9,0,0,1,354,41.86c0,.15,0,.3,0,.45v0s0,0,0,.1c.06.28.11.55.18.83a14.16,14.16,0,0,0,.5,1.56l.07.19c0-.11,0-.11,0,0s.1.25.16.37c.13.28.26.55.4.82.26.52.55,1,.85,1.54.43.72.86,1.38,1.3,2l.36.41a1.28,1.28,0,0,1,.55,0,1.31,1.31,0,0,1,.69.22,1.42,1.42,0,0,1,.52.48,1.31,1.31,0,0,1,.29.53c.33-.07.66-.13,1-.22a23.9,23.9,0,0,0,4.44,3.54l.14,0h0a3,3,0,0,1,2.13.17c-.54-.25,0,0,.15,0l.6.15a1.87,1.87,0,0,0,.4.07h.17c.75.06,1.51,0,2.27,0a32.49,32.49,0,0,1,3.42.16l1.1.12c.31,0,.62-.07.93-.08a8.75,8.75,0,0,1,1.91.16,5.88,5.88,0,0,1,2.82,1.48,5.35,5.35,0,0,1,1.1,1.44l.43,0c.06.09.1.17.16.27.35.61.66,1.25,1,1.89l.41,1.09c.76,2.32,1.56,4.61,2.15,7,.48,1.93,1.15,2.54.39,3.33-.11.11-.07.28,0,.46q-2.2,1.64-4.35,3.36c-9.48,8.66-9.95,22.07-12.62,33.9-5.36,23.81-12.88,46.83-21.53,69.6-4.56,12-7.11,26-.17,37.77s19.65,18,32.8,14.51a15.48,15.48,0,0,0,3.2-1.22c6.65,2.51,14.49,2.1,21.66,0,18.09-5.28,39.29-.77,57.59-10.66,10.73-5.8,19.19-16.82,20-29.35C484.2,180.09,482.79,177.13,472.18,164.72Z"/><path class="cls-7" d="M454,188.66c.15-1.2,2.46-1.87,0,0Z"/><path class="cls-7" d="M461.73,193.46l.75-.39A1.6,1.6,0,0,1,461.73,193.46Z"/></g><g class="cls-5"><path class="cls-8" d="M384.66,221.88a23.2,23.2,0,0,1-5.35-7.58,13.21,13.21,0,0,1-1.31-2.78c-1.84-5.47-1-11.69-.38-17.3a227,227,0,0,0,.78-40.32c-.3-5.21-4.37-5.24-4.07,0,1,17.19-6.07,33.83-5.52,50.89.48,14.87,9.48,22.07,23.14,25.56a3.82,3.82,0,0,0,4.6-2.21A24.26,24.26,0,0,1,384.66,221.88Z"/></g><g class="cls-5"><path class="cls-8" d="M435.24,217.58c-10.2-1.71-21.95-5.16-26.83-15.26-5.5-11.38-1.6-25.37-2.65-37.45a4,4,0,0,0-2.22-3.34c-2.77,4.94-5,10.23-5.21,15.95a7.9,7.9,0,0,1-.72,3.11c-.33,9.61-.34,19.25,4.78,27.67a28.81,28.81,0,0,0,6,7,.27.27,0,0,1,.08.07c6.78,5.75,15.91,8.63,24.62,10.09C438.2,226.3,440.4,218.45,435.24,217.58Z"/></g><g class="cls-5"><path class="cls-8" d="M438.62,232.4a37.83,37.83,0,0,0,14.76-21.51c3.18-12.91-1.44-25.84-8.68-36.49a4.13,4.13,0,0,0-5.49-1.3,28.82,28.82,0,0,1,5.72,14.35,33.66,33.66,0,0,1,1.34,13.65,27.24,27.24,0,0,1-.74,7.63c-2.34,9.54-9.16,16.79-18,20.63a3.19,3.19,0,0,0-1.93,4.12C430.17,234.37,434.43,234.26,438.62,232.4Z"/></g><g class="cls-5"><path class="cls-8" d="M478.89,195.76c-.5-3-4.12-5.5-6.95-7.25a27,27,0,0,0-5.72-2.78c-.6-.19-1.23-.36-1.87-.51a3.67,3.67,0,0,0,1,3.85c7.07,7,13,25,.13,30.14-4.8,1.93-2.71,9.81,2.16,7.85,12.22-4.89,15.11-17,12.27-28.08C479.7,197.52,479.13,197.15,478.89,195.76Z"/></g><g class="cls-5"><path class="cls-8" d="M371.54,227.54c-15.82-3.71-8-22.64-4.53-32.43a3.38,3.38,0,0,0-1.1-4c-2.2,4.22-5.41,7.78-7.86,11.87a77.71,77.71,0,0,0-3.76,7.17c-.14,1.45-.32,2.9-.53,4.35a24.07,24.07,0,0,0,.83,6.21,20.23,20.23,0,0,0,14.79,14.7C374.47,236.59,376.65,228.74,371.54,227.54Z"/></g><g class="cls-9"><path class="cls-10" d="M370,43c2.89-2.7,5.41-5.77,8.42-8.34.8-.67,2.2-2.35,3.21-2.61l-4.47,1.16c2.34.61,5.91,8.4,8.57,10.38,3.18,2.37,7.07,2.13,10.37.07.82-.51,4.2-4.65,4.76-4.63.82,0,1.39,1.92,2.34,3,2.7,2.93,6.35,3.38,10.09,2.8,5.82-.89,3.35-9.58-2.44-8.7-.61.1-3.23-4.68-4.11-5.33a7.71,7.71,0,0,0-5.29-1.53,10.29,10.29,0,0,0-5.57,2.12c-3.39,2.48-3.49,6-7.08,2.15-2.8-3-5.35-7.43-10.42-7.14-3.74.21-6.15,2.5-7.76,5.31-1.1,1.89-2.11,3.83-3.33,5.64a17.72,17.72,0,0,0-2.45,4.42c-.58,1.81.35,4.05,2.72,3.13a5.64,5.64,0,0,0,1.65-1.13C369.46,43.46,369.72,43.21,370,43Z"/></g><g class="cls-11"><path class="cls-12" d="M364.91,74.44v-.52a7.13,7.13,0,0,0-.82-3.66,7.16,7.16,0,0,0-2-3.05,7.06,7.06,0,0,0-3.06-2,7.19,7.19,0,0,0-3.66-.82l-2.53.34a9.48,9.48,0,0,0-4.19,2.45l-1.48,1.92a9.39,9.39,0,0,0-1.3,4.79v.52a7.15,7.15,0,0,0,.82,3.67,7.07,7.07,0,0,0,2,3,10.48,10.48,0,0,0,6.72,2.78l2.52-.33a9.61,9.61,0,0,0,4.2-2.45l1.48-1.92a9.5,9.5,0,0,0,1.3-4.8Z"/></g><g class="cls-3"><path class="cls-13" d="M508,245.58l1.69-1.89-6-2.48c-.38,3.06-.27,5.31,2.46,7.31,1.64,1.2,4.25.82,3.44,3.5-.51,1.7-3.27,3.89-4.55,5.08-1.52,1.4-10.16,8.55-11,4.22-.24-1.2,3-5.32,3.66-6.42.89-1.53,2.41-5.65,4.49-6l-2.69-.36.72.4-1.73-3c.57,5.57-14.95,19.53-1.5,21,4.27.46,6.94-2.14,8.18-5.9.75-2.25,1.17-4.65,1.76-6.94-.55,2.1,1.22-1.92,1.23-1.26-.09-5.18-2.59.43-2.27.27l2.7-.35c-1.09-.2-3.07-2.8-3.41-3.81-.57-1.73.8-4.13,1.46-5.78,1.67-4.18-5.09-6-6.75-1.86-2.7,6.74-2.09,11.77,3.76,16.57,5.48,4.5,11-2.42,9.76-8.19-1.1-5-7.11-4.54-10.25-1.89-2.33,2-3.09,4.69-3.76,7.53-.38,1.61-.94,3.18-1.34,4.77l.6-.37-1,.23c.3-.63.41.94-.45-.15l.9,3.4c1.27-4.36,12.4-17.28,4.92-20.66-4.55-2.06-8,3-9.91,6.34-2.52,4.33-7.52,10.21-6.4,15.63,2.45,11.84,18.57,2,23.3-2.41,3.29-3.06,7.41-7.09,7-12a7.15,7.15,0,0,0-2.67-5.08c-2.21-1.8-4-.78-3.63-3.77s-4.07-4.59-6-2.47l-1.69,1.89c-3,3.34,1.94,8.31,4.95,5Z"/></g><g class="cls-3"><path class="cls-13" d="M585.4,242.78c-15.14,2.12-25.9,20.89-29,34.39-1.45,6.35-3.37,15.82,2.33,20.59,8.12,6.82,15.7-2.86,20.77-8.37,5.7-6.22,11.09-12.13,13.61-20.37,1.77-5.79,5.24-16.84-1.43-20.79-7.71-4.57-13.6,5.69-17.42,10.84a114.61,114.61,0,0,0-13,22.62c-1.52,3.49-1,7.48,2.51,9.58,3,1.77,8.07,1,9.58-2.51a116.64,116.64,0,0,1,8.54-16.17c2.88-4.52,6.22-10.2,10.5-13.55l-6.81,1.8.69.18-4.18-3.22c-1.6-3.53-.71-.76-1,1.2-.29,1.59-.6,3.19-1,4.75a24,24,0,0,1-4,8.46c-2.12,2.83-4.73,5.38-7.12,8-1.1,1.19-3.17,2.69-3.89,4.19q-4.15,3.09,3.92,4.1c0-.8,0-1.59.11-2.38.75-10.55,8-28.14,20-29.82,3.77-.53,5.76-5.29,4.89-8.61-1.07-4-4.89-5.41-8.61-4.89Z"/></g><g class="cls-3"><path class="cls-14" d="M501.31,317.84c4.5,0,4.51-7,0-7s-4.51,7,0,7Z"/></g><g class="cls-3"><path class="cls-14" d="M501.49,317.47c4.5,0,4.51-7,0-7s-4.51,7,0,7Z"/></g><g class="cls-3"><path class="cls-14" d="M490,313.81c4.51,0,4.52-7,0-7s-4.51,7,0,7Z"/></g><g class="cls-3"><path class="cls-14" d="M489.42,314c4.5,0,4.51-7,0-7s-4.52,7,0,7Z"/></g><path class="cls-15" d="M340.13,51.23a14.8,14.8,0,0,1-2.58,6.18,49.65,49.65,0,0,1-4.18,5.49c-1.42,1.66-2.91,3.61-2.45,5.93a3.91,3.91,0,0,0,1.8,2.46,6.84,6.84,0,0,1,2.43,2c1.08,1.83.79,4.19.68,6.21a28.45,28.45,0,0,0,.48,7.71,17.92,17.92,0,0,0,7.85,10.91c4.88,3.28,10.75,4.57,16.43,5.67.63.12.9-.85.27-1-5-1-10.2-2.06-14.7-4.63-4-2.27-7.33-5.69-8.61-10.17a24.43,24.43,0,0,1-.76-7.62c.07-2.07.38-4.22-.2-6.25a5.27,5.27,0,0,0-1.4-2.4c-.78-.74-1.84-1.1-2.59-1.85-1.89-1.9,0-4.61,1.34-6.16a51.09,51.09,0,0,0,4.52-5.94,15.5,15.5,0,0,0,2.67-6.6c.07-.63-.93-.63-1,0Z"/><path class="cls-15" d="M357.11,19.49c-3.16,5.38-5.48,11.32-4.67,17.66a21.76,21.76,0,0,0,7.82,14.23,18.91,18.91,0,0,0,7,3.59c3.07.79,6.1.37,9.21.32,2.9-.06,5.76.54,7.63,2.92a10.23,10.23,0,0,1,2,6.76c-.3,6.68-6.44,11.14-11.71,14.17a.5.5,0,0,0,.51.87c4.83-2.79,10.11-6.56,11.74-12.21,1.28-4.44-.06-10.17-4.41-12.43-2.92-1.52-6.29-1-9.44-.9a17.2,17.2,0,0,1-8.39-1.62,20.15,20.15,0,0,1-10.24-12.34,21.35,21.35,0,0,1-.4-10.56A34.59,34.59,0,0,1,358,20a.5.5,0,0,0-.86-.5Z"/><path class="cls-15" d="M382.66,6.32c-3.91-4.09-9.55-6-15.11-6A28,28,0,0,0,351.09,6a48.91,48.91,0,0,0-12.27,13.68,68.22,68.22,0,0,0-4.69,8.17,20.08,20.08,0,0,0-1.87,8.93c.19,6.11,3.43,12.46,9.25,14.93.59.24,1.1-.62.51-.87-5-2.13-8.08-7.34-8.66-12.65a18.6,18.6,0,0,1,1.1-8.58,46.9,46.9,0,0,1,4.14-7.67A54,54,0,0,1,350,8.07a28.15,28.15,0,0,1,15.39-6.63C371.37.94,377.7,2.58,382,7c.45.47,1.15-.24.71-.7Z"/><path class="cls-15" d="M373.58,80.1c3.32,11,1.29,22.6-2.43,33.19-1.91,5.45-4.26,10.74-6.62,16s-4.65,10.48-6.87,15.77a249.05,249.05,0,0,0-11.51,32.8,141.9,141.9,0,0,0-3.42,16.84c-.39,2.78-.68,5.58-.87,8.38a54.26,54.26,0,0,0-.1,7.86,22.5,22.5,0,0,0,1.53,6.77,17.55,17.55,0,0,0,4.07,5.77c3.61,3.52,8.12,6.06,12.6,8.31,1.26.63,2.54,1.22,3.84,1.76.59.25.85-.72.26-1a74.08,74.08,0,0,1-7.41-3.69,47.39,47.39,0,0,1-6.38-4.19,21.11,21.11,0,0,1-5.12-5.5,18.32,18.32,0,0,1-2.22-6.72,39.55,39.55,0,0,1-.18-7.38c.13-2.86.38-5.71.73-8.55a140,140,0,0,1,3.23-16.88,237.06,237.06,0,0,1,11.13-32.45c2.19-5.31,4.51-10.58,6.85-15.84,2.26-5.1,4.57-10.19,6.54-15.42,3.84-10.2,6.37-21.31,4.29-32.2a38.56,38.56,0,0,0-1-4c-.19-.62-1.16-.36-1,.26Z"/><ellipse class="cls-15" cx="344.41" cy="62.06" rx="3.85" ry="1.79" transform="translate(215.68 387.48) rotate(-78.63)"/><path class="cls-15" d="M342.14,51.78a14.9,14.9,0,0,1,8.08,1.37c.58.28,1.09-.58.51-.86a15.93,15.93,0,0,0-8.59-1.51c-.63.07-.64,1.07,0,1Z"/><path class="cls-15" d="M360.59,103.82c1.63.33,2.53,2,3.26,3.31a21,21,0,0,1,2,5.29c.89,4,.77,8.06.85,12.09a.5.5,0,0,0,1,0c-.08-4.33,0-8.75-1-13a21.62,21.62,0,0,0-2.29-5.51c-.79-1.38-1.86-2.82-3.51-3.17-.63-.13-.9.83-.27,1Z"/><path class="cls-15" d="M380.5,7.25c6.54-6.66,18.32-4.83,25.82-1,8,4.13,14.49,11.28,18.81,19.1,4.73,8.57,6.83,18.15,8.42,27.72a200.18,200.18,0,0,1,2.55,33.61,123.89,123.89,0,0,0,.67,16.79,71.62,71.62,0,0,0,3.29,13.76,98.67,98.67,0,0,0,13.39,25.27,130.8,130.8,0,0,0,8.95,11.1c3.14,3.49,6.58,6.68,9.79,10.11a44.44,44.44,0,0,1,8,11.35,41.7,41.7,0,0,1,3.36,10.62,37.56,37.56,0,0,1-2.1,20.76,31.19,31.19,0,0,1-14,15.52,35.44,35.44,0,0,1-5.38,2.31c-.61.2-.35,1.17.26,1a32.93,32.93,0,0,0,17.23-13,36.07,36.07,0,0,0,5.62-20.08,41.69,41.69,0,0,0-6.41-21.81,66.3,66.3,0,0,0-9.25-10.83c-3.47-3.48-6.86-7-10-10.8a108.36,108.36,0,0,1-16.06-25.59,76.6,76.6,0,0,1-4.72-14.38A81,81,0,0,1,437.1,92c0-5.82.06-11.62-.24-17.43s-.83-11.34-1.62-17c-1.41-10-3.24-20.17-7.55-29.36A51.14,51.14,0,0,0,410.44,7.59C403.32,2.76,393.26,0,384.92,3.22a14.52,14.52,0,0,0-5.13,3.33.5.5,0,0,0,.71.7Z"/><path class="cls-15" d="M461.64,186.12c5.55,1.83,8.9,7.59,10.39,12.92,1.57,5.64,1.15,11.77-2.07,16.75a32.43,32.43,0,0,1-6.84,7.24c-.5.41.21,1.11.71.71,4.7-3.89,8.87-8.6,9.84-14.83a25.09,25.09,0,0,0-4.14-17.67,15.31,15.31,0,0,0-7.62-6.08c-.62-.2-.88.76-.27,1Z"/><path class="cls-15" d="M353.73,150.63c-6.05,3.86-10.3,9.76-13.68,16a191,191,0,0,0-10,22.19c-6.13,15.77-10.84,32-15.38,48.34C310,254.05,305.2,270.92,300,287.69c-4.94,16-9.74,32-15.34,47.79-5.17,14.53-11.48,28.89-20.95,41.18q-1.75,2.28-3.65,4.44c-.42.49.29,1.2.71.71,10-11.42,16.83-25,22.26-39.09,5.9-15.22,10.49-31,15.37-46.53q7.86-25.12,14.95-50.48c4.52-16.31,9-32.65,14.69-48.6,2.87-8.05,6.06-16,9.7-23.71,3.14-6.66,6.68-13.41,12.1-18.51a29.5,29.5,0,0,1,4.38-3.4c.54-.35,0-1.21-.51-.86Z"/><path class="cls-15" d="M260.3,382.15C267,383.7,272,388.49,277.75,392a51.85,51.85,0,0,0,70.1-15.18c.36-.53-.5-1-.86-.5a50.7,50.7,0,0,1-67.48,15.57c-6.3-3.63-11.66-9-18.94-10.71-.63-.14-.9.82-.27,1Z"/><path class="cls-15" d="M355.21,263.43q-4.15,22.77-7.24,45.73-1.55,11.49-2.82,23c-.79,7.19-1.66,14.41-1.76,21.65-.11,7.74.79,15.56,4,22.67.27.59,1.13.08.87-.5-5.81-12.93-3.82-27.74-2.35-41.36q2.46-22.89,6-45.64,2-12.69,4.29-25.32c.11-.62-.85-.89-1-.26Z"/><path class="cls-15" d="M345.84,326a127.74,127.74,0,0,0,24.25,6.88A134.2,134.2,0,0,0,395.15,335a137.72,137.72,0,0,0,25.05-2.52,135.06,135.06,0,0,0,24.11-7,129.62,129.62,0,0,0,22.35-11.49l2.59-1.72c.53-.36,0-1.23-.51-.87a126.54,126.54,0,0,1-21.95,12A133.41,133.41,0,0,1,423,330.88a136.49,136.49,0,0,1-24.82,3.06,134.52,134.52,0,0,1-25-1.57A127.91,127.91,0,0,1,349,326.13c-1-.36-1.94-.73-2.9-1.11-.6-.23-.86.73-.27,1Z"/><path class="cls-15" d="M472.89,224.71c.75,11.34,1.25,22.7,1.19,34.07a271.38,271.38,0,0,1-2.16,34c-.83,6.35-2,12.67-3.4,18.92-.15.63.81.89,1,.27a216.65,216.65,0,0,0,4.89-33.72,336.34,336.34,0,0,0,.5-34.2c-.21-6.44-.55-12.87-1-19.29,0-.64-1-.65-1,0Z"/><path class="cls-15" d="M363.31,194.72C359,199,357.31,205.11,357,211a58.17,58.17,0,0,0,.4,10.05,19.06,19.06,0,0,0,2.73,8.28,10.74,10.74,0,0,0,7,4.88c.63.11.9-.85.26-1a9.61,9.61,0,0,1-6.08-4,17.61,17.61,0,0,1-2.82-7.86,58.28,58.28,0,0,1-.48-9.15,31.93,31.93,0,0,1,1.36-9,19.16,19.16,0,0,1,4.68-7.82c.46-.45-.25-1.15-.71-.7Z"/><path class="cls-15" d="M468.07,312.86c4.2,11.52,7.26,24.54,4,36.69a34.08,34.08,0,0,1-8.59,15,48.12,48.12,0,0,1-14,9.64c-12.06,5.69-25.52,7.05-38.5,9.43a190.79,190.79,0,0,0-20.51,5.1c-6.76,2-13.49,4.21-20.38,5.79a68.5,68.5,0,0,1-17.6,1.62,65.81,65.81,0,0,1-17.74-2.89c-1.33-.42-2.63-.9-3.91-1.44-.59-.25-1.1.62-.51.86a58.91,58.91,0,0,0,17.1,4.13,72.23,72.23,0,0,0,18.23-.4c6.79-1,13.42-3.15,20-5.15,6.92-2.11,13.84-4.25,20.93-5.74,13.43-2.81,27.42-3.81,40.23-9.05,10.61-4.34,20.41-11.61,24.83-22.52,4.76-11.78,2.64-25.14-1.12-36.88-.48-1.5-1-3-1.53-4.46-.22-.6-1.19-.34-1,.26Z"/><path class="cls-15" d="M241.74,394l-48.47,34.12c-15.7,11-31.56,21.89-46.68,33.72a484.26,484.26,0,0,0-39.76,34.89C94.13,509.05,82,522,70.36,535.37s-22.85,27-33.79,40.92c-1.36,1.71-2.7,3.43-4,5.16-.39.5.31,1.21.71.7,10.88-13.94,22-27.71,33.53-41.12s23.47-26.44,36-38.92a503.49,503.49,0,0,1,39.13-35.31C156.7,454.83,172.39,444,188,433l48.3-34,6-4.2c.52-.37,0-1.24-.5-.87Z"/><path class="cls-15" d="M260.53,381.48a118.14,118.14,0,0,0-12.31-1.19,9.24,9.24,0,0,0-5,1.61,25.91,25.91,0,0,0-4.12,3.09,69.92,69.92,0,0,0-7.05,7.84c-1.17,1.44-2.33,2.89-3.37,4.44a18.15,18.15,0,0,0-1.44,2.4,1.24,1.24,0,0,0,.32,1.66c1.15.73,2.9-.27,3.93-.77a32.61,32.61,0,0,0,4.26-2.61c1.41-1,2.81-2,4.3-2.87.36-.21.73-.42,1.1-.6a1.55,1.55,0,0,1,.71-.22,1.11,1.11,0,0,1,.74.39c.49.44,1,.87,1.5,1.28a20.13,20.13,0,0,0,8,4.31,69.08,69.08,0,0,0,11.84,1.1,77.85,77.85,0,0,0,11.53-.09,21.7,21.7,0,0,0,9.36-2.85,14,14,0,0,0,1.91-1.43c.49-.42-.22-1.13-.7-.7-5.1,4.45-12.67,4.35-19,4.18-3.84-.1-7.73-.26-11.56-.68a20,20,0,0,1-5.25-1.13,17.76,17.76,0,0,1-3.51-2,32.88,32.88,0,0,1-3.3-2.58,2.25,2.25,0,0,0-1.63-.8,5.73,5.73,0,0,0-2.31,1c-2.73,1.59-5.13,3.69-7.93,5.15a13.72,13.72,0,0,1-2.33,1,2.35,2.35,0,0,1-.74.13c-.68,0-.26-.59,0-1a36.52,36.52,0,0,1,3.14-4.56c2.06-2.61,4.16-5.22,6.47-7.61a30.46,30.46,0,0,1,4.24-3.71c1.48-1,3.25-2.26,5.09-2.41a20.45,20.45,0,0,1,3.41.15l3.18.27q3.28.31,6.57.75c.64.08.63-.92,0-1Z"/><path class="cls-15" d="M289.55,319.23c-17.38,6.25-33.4,15.63-48.18,26.64-15,11.13-28.68,23.78-42.12,36.68-13.65,13.1-27,26.51-41.17,39.09a453.42,453.42,0,0,1-49.53,38.21,454.11,454.11,0,0,1-54,30.91q-3.48,1.69-7,3.31a.51.51,0,0,0,0,.87c12.83,7.27,24.95,15.78,36.78,24.56.52.38,1-.48.51-.86A361.53,361.53,0,0,0,48,494.07v.87a455.16,455.16,0,0,0,54.56-30,455,455,0,0,0,49.73-37c14.49-12.39,28.06-25.78,41.74-39,13.43-13,27-25.92,41.69-37.52s30.37-21.69,47.61-28.75c2.14-.88,4.29-1.7,6.46-2.48.61-.22.35-1.18-.26-1Z"/><path class="cls-15" d="M376.09,155l-4.87,20c-1.55,6.4-3.25,12.81-4.05,19.36-1.35,11,.4,23.95,9.78,31.2,4.58,3.53,10.58,5.34,16.3,4,.62-.15.36-1.12-.27-1a18.4,18.4,0,0,1-14.5-3.13,24.35,24.35,0,0,1-9-12.76c-3.81-11.86-.44-24.31,2.4-36l5.21-21.41c.15-.62-.81-.89-1-.26Z"/><path class="cls-15" d="M400.66,163.28A105,105,0,0,0,399,197.56a29.26,29.26,0,0,0,1.85,7.66,23.63,23.63,0,0,0,4.13,6.34,65.19,65.19,0,0,0,5.47,5.43,44.61,44.61,0,0,0,6.24,4.8,27.29,27.29,0,0,0,16.92,4c.64-.06.64-1.06,0-1a26.14,26.14,0,0,1-14.88-3,49.48,49.48,0,0,1-11.81-9.62,26.57,26.57,0,0,1-4.52-6,23.59,23.59,0,0,1-2.23-7.39,90.92,90.92,0,0,1-.78-16.49,106.6,106.6,0,0,1,2.27-18.75c.13-.63-.83-.89-1-.26Z"/><path class="cls-15" d="M428.85,137.42a63.14,63.14,0,0,0,14.5,39.92c2.38,2.89,4.95,5.68,6.75,9a27.06,27.06,0,0,1,3,11.36,41.27,41.27,0,0,1-4.35,20.91,37.69,37.69,0,0,1-6,8.77,18,18,0,0,1-8.4,5.44,11.44,11.44,0,0,1-2.54.36c-.64,0-.64,1,0,1,7.07-.22,12.43-6.15,15.94-11.72a42.27,42.27,0,0,0,6.41-20.59,35,35,0,0,0-1.22-11.34,28.75,28.75,0,0,0-5.5-9.87c-2.38-3-4.9-5.79-7-9a62.28,62.28,0,0,1-10.45-31.53c0-.92-.06-1.84-.07-2.75a.5.5,0,0,0-1,0Z"/><path class="cls-15" d="M487.05,279.91a22.64,22.64,0,0,1-1.68-12.49,42.28,42.28,0,0,1,3.27-11.88,32.85,32.85,0,0,1,5.16-8.31,39.7,39.7,0,0,1,7-6.31,118.74,118.74,0,0,1,10.06-6.32l-.76-.43-.44,4.65-.21,2.2a2.55,2.55,0,0,0,.23,1.74c.6.92,1.91.87,2.87.94a39.24,39.24,0,0,1,15.83,4.79c.61.34,1.21.69,1.8,1.06a5.17,5.17,0,0,0,1.73.85,2.42,2.42,0,0,0,1.83-.5c.68-.45,1.33-.93,2-1.4l4.48-3.15-.73-.3c1.42,8,2.86,16.56.12,24.49-.21.61.75.87,1,.27,2.81-8.11,1.34-16.81-.12-25a.5.5,0,0,0-.73-.3L536.16,247l-1.73,1.22a10.42,10.42,0,0,1-1.67,1.13c-.65.27-1.24-.14-1.78-.47s-1.12-.7-1.69-1c-1.12-.63-2.26-1.21-3.43-1.73a40.23,40.23,0,0,0-7.08-2.42q-1.87-.45-3.78-.72c-1.2-.17-2.43-.16-3.62-.37-.75-.13-1-.48-.94-1.24s.14-1.53.22-2.3l.46-4.89a.5.5,0,0,0-.75-.43c-6,3.46-12.14,7-16.81,12.25a39,39,0,0,0-9,20.12c-.74,4.84-.51,9.84,1.63,14.31.28.58,1.14.07.87-.51Z"/><path class="cls-15" d="M486,279.58A103.54,103.54,0,0,0,479,291c-2.06,4.06-3.64,8.73-3,13.35.57,4.46,3.86,8.28,7.44,10.79a8.92,8.92,0,0,0,6,1.83,5.48,5.48,0,0,0,4.54-3.15,7.27,7.27,0,0,0-.67-6.44c-1.32-2.21-3.44-3.77-5.48-5.26-.52-.38-1,.48-.51.86,3.05,2.23,7,5.37,6,9.7a4.41,4.41,0,0,1-4.06,3.3,8.32,8.32,0,0,1-5.58-1.88c-3.36-2.47-6.44-6.15-6.76-10.45s1.07-8.35,2.94-12.05a102.73,102.73,0,0,1,7.11-11.47c.36-.53-.5-1-.86-.5Z"/><path class="cls-15" d="M512,309.76c-3.23-.83-6.58-1.68-9.93-1.2a9.81,9.81,0,0,0-6.43,3.62,6.52,6.52,0,0,0-.83,6.83c1.2,2.62,3.75,4.21,6.37,5.12a35.06,35.06,0,0,0,8.73,1.7,33.2,33.2,0,0,0,8.62-.43,22.83,22.83,0,0,0,13.94-8c3.49-4.44,5.25-10.35,3.66-15.9a.5.5,0,0,0-1,.27,16.53,16.53,0,0,1-2.31,13.38A20.88,20.88,0,0,1,521,323.76a32.78,32.78,0,0,1-16,.38c-2.64-.56-5.48-1.3-7.54-3.14a6.07,6.07,0,0,1-2-6.57,8.11,8.11,0,0,1,5.8-4.72c3.47-.8,7.06.15,10.42,1a.5.5,0,0,0,.27-1Z"/><path class="cls-15" d="M523.59,245.37a79,79,0,0,1,17.19-11.57,41.68,41.68,0,0,1,19.47-4.19,43,43,0,0,1,12.28,2.44c.61.21.87-.76.26-1a41.9,41.9,0,0,0-21.46-1.81,52,52,0,0,0-18.76,8,98.81,98.81,0,0,0-9.69,7.36c-.49.42.22,1.12.71.71Z"/><path class="cls-15" d="M572.53,232.05c7.28,2.4,14.58,6.41,18.66,13.15a23,23,0,0,1,2.5,17,46.77,46.77,0,0,1-4.17,11,51.16,51.16,0,0,1-6.76,10c-5.48,6.34-12.33,11.46-19.25,16.12a139.15,139.15,0,0,1-27.43,14.36c-1.19.46-2.39.91-3.59,1.34-.61.22-.35,1.18.26,1A141.55,141.55,0,0,0,561.19,302c4-2.58,7.94-5.36,11.71-8.3a80.14,80.14,0,0,0,9.09-8.18,53.16,53.16,0,0,0,12.26-21.46A24.73,24.73,0,0,0,593,246.46c-3.34-6.84-9.91-11.33-16.8-14.12-1.13-.46-2.27-.87-3.43-1.26-.61-.2-.87.77-.26,1Z"/><ellipse class="cls-15" cx="504.11" cy="256.9" rx="2.75" ry="1.53" transform="translate(31.88 568.53) rotate(-60.43)"/><ellipse class="cls-15" cx="517.38" cy="262.22" rx="3.06" ry="1.7" transform="translate(33.97 582.77) rotate(-60.43)"/><path class="cls-15" d="M507.9,262.66a1.72,1.72,0,0,0-1.56,0,1.39,1.39,0,0,0-.77,1.33,2.15,2.15,0,0,0,1,1.57,1.9,1.9,0,0,0,1.75.27,1.56,1.56,0,0,0,.93-1.41,1.6,1.6,0,0,0-.92-1.43c-.62-.28-1.53-.22-1.76.54a1.08,1.08,0,0,0,1.06,1.35,1.19,1.19,0,0,0,.95-.5,1.23,1.23,0,0,0-.61-1.83,1.4,1.4,0,0,0-1.08.08.51.51,0,0,0-.18.68.51.51,0,0,0,.69.18s.06,0,0,0h.08s-.1,0,0,0h.09l.09,0c.09,0-.06,0,0,0l.07,0s-.07-.06,0,0,0,0,0,0,0,0,0,0l0,.05,0,0s0,0,0,0,0,.11,0,.11,0-.1,0,0v.13s0-.1,0,0a.64.64,0,0,0,0,.07c0,.05,0-.07,0,0l0,.05,0-.05,0,0s0,.06,0,0,0,0,0,0l-.06,0s.1,0,0,0l-.05,0h-.11s.1,0,0,0h0s0,0,0,0,0,0,0,0,0,0,0,0l-.05-.05c0,.09.06,0,0,0s0-.07,0,0,0,0,0,0,0,0,0,0a.17.17,0,0,1,0-.1s0,.11,0,0,0,.09,0,0,.05-.08,0,0,.06,0,0,0,0,0,0,0-.1,0,0,0h.2l.13,0c.05,0,0,0,0,0l.07,0,.13.08c.08.05-.05-.05,0,0l.09.1s0,0,0,0l.05.06.06.12c0,.05,0,0,0,0a.19.19,0,0,0,0,.07s0,.09,0,.11,0-.09,0,0v.11c0,.12,0-.07,0,0l0,.13a.43.43,0,0,0,0,.05c0,.05,0,0,0,0a.61.61,0,0,1-.05.12l0,0c-.05.08,0,0,0,0l-.08.08s-.07.06,0,0,0,0,0,0L508,265c-.09,0,0,0,0,0l-.07,0-.08,0s.1,0,0,0h-.14c-.05,0-.12,0,0,0a.47.47,0,0,1-.16,0l-.13,0-.06,0h0l-.27-.16,0,0-.11-.09c-.08-.07-.14-.15-.21-.22s0,.06,0,0l0-.05-.08-.13,0-.06s0-.07,0,0,0,0,0,0a.24.24,0,0,0,0-.08s0,0,0-.06,0,0,0,0v-.06c0-.09,0,0,0,0s0-.11,0-.13,0,0,0,0,0,0,0-.06l0,0c.05-.08,0,0,0,0l.09-.09,0,0s0-.05,0,0,0,0,0,0l.05,0,0,0h0s0,0,0,0l.06,0,.12,0h.07s-.11,0,0,0h.18c.09,0,0,0,0,0l.11,0,.06,0c.06,0-.11,0,0,0a.51.51,0,0,0,.69-.18.5.5,0,0,0-.18-.68Z"/><path class="cls-15" d="M506.72,265.13l-1.32,2.36a9.19,9.19,0,0,1-1.3,2.06,3.93,3.93,0,0,1-.94.62,11.68,11.68,0,0,0-1.06.66,24.64,24.64,0,0,0-2,1.57c-.5.41.21,1.12.7.7a24.82,24.82,0,0,1,2-1.56,10.77,10.77,0,0,0,2.07-1.37,10.09,10.09,0,0,0,1.3-2l1.4-2.49c.31-.56-.55-1.07-.87-.51Z"/><path class="cls-15" d="M504.18,270.39a13.41,13.41,0,0,1,.44,4,.5.5,0,0,0,1,0,14.24,14.24,0,0,0-.48-4.31.5.5,0,0,0-1,.27Z"/><path class="cls-15" d="M473.84,289.24a53,53,0,0,1,11.5-7.95c.58-.3.07-1.16-.5-.87a53.73,53.73,0,0,0-6.12,3.73,55,55,0,0,0-5.59,4.38c-.48.44.23,1.14.71.71Z"/><path class="cls-15" d="M575.67,233a358.33,358.33,0,0,1,66.45-30.93,498.4,498.4,0,0,1,70.55-18.72c24.75-4.77,49.78-8,74.85-10.46A723.76,723.76,0,0,1,866.25,169a453.62,453.62,0,0,1,78.8,7.23c3.2.6,6.4,1.25,9.59,1.93.63.13.9-.83.27-1a434.87,434.87,0,0,0-78.14-9A673.85,673.85,0,0,0,796.91,171c-25.18,2.25-50.35,5.26-75.24,9.67a521.68,521.68,0,0,0-71.54,17.63A370.39,370.39,0,0,0,583,227.54c-2.63,1.49-5.25,3-7.84,4.59-.55.33,0,1.2.5.86Z"/></g></g></svg>