<svg xmlns="http://www.w3.org/2000/svg" viewBox="0 0 122.64 89.21"><defs><style>.cls-1{fill:#ffd15f;}.cls-2{fill:#333;}</style></defs><title>메인물결</title><g id="Layer_2" data-name="Layer 2"><g id="Layer_3" data-name="Layer 3"><circle class="cls-1" cx="105.64" cy="14.4" r="9.86"/><path class="cls-2" d="M105,.57A136,136,0,0,1,92.48,25c-.52.81.78,1.57,1.3.76A139.19,139.19,0,0,0,106.46,1c.35-.9-1.1-1.29-1.44-.4Z"/><path class="cls-2" d="M115.94.52A75.31,75.31,0,0,1,102,24.91c-.62.73.44,1.8,1.06,1.06A77.35,77.35,0,0,0,117.39.91c.31-.91-1.14-1.3-1.45-.39Z"/><path class="cls-2" d="M94.1,9q13.88,2,27.61,4.92c.94.2,1.34-1.25.4-1.45Q108.39,9.51,94.5,7.5c-.94-.14-1.35,1.31-.4,1.45Z"/><path class="cls-2" d="M94.86,14.27a111.71,111.71,0,0,0,20.21,7.41.75.75,0,0,0,.4-1.45A108.81,108.81,0,0,1,95.61,13c-.86-.42-1.62.88-.75,1.3Z"/><path class="cls-2" d="M1.48,88.68C4,80.3,9.65,73.37,16.46,68a67.54,67.54,0,0,1,11.18-7c4.14-2.09,9-4.57,13.82-3.47a7.75,7.75,0,0,1,5.15,3.53,5.62,5.62,0,0,1,0,5.27,4.07,4.07,0,0,1-4.87,1.91,6.35,6.35,0,0,1-4.24-4.57c-1.15-4.35.91-9.22,3.33-12.78a28.6,28.6,0,0,1,9.52-8.55c10.09-5.77,22.23-5.53,33.43-4.23,1,.11.94-1.39,0-1.5-11.12-1.29-23-1.48-33.21,3.89A31,31,0,0,0,40,49.58c-2.77,3.83-4.9,8.94-4.05,13.74A8.1,8.1,0,0,0,39.67,69a6.27,6.27,0,0,0,5.92.44c3.78-1.87,4-7.23,1.53-10.21-3.32-4-9.19-3.89-13.71-2.33a61.61,61.61,0,0,0-13.57,6.93C11.92,69,4.9,76,1.25,84.85A35,35,0,0,0,0,88.28a.75.75,0,0,0,1.45.4Z"/></g></g></svg>