<svg xmlns="http://www.w3.org/2000/svg" viewBox="0 0 33.91 18.58"><defs><style>.cls-1{fill:#eaa49a;}.cls-2{fill:#333;}</style></defs><title>next</title><g id="Layer_2" data-name="Layer 2"><g id="Layer_1-2" data-name="Layer 1"><circle class="cls-1" cx="27.45" cy="8.23" r="5.92"/><path class="cls-2" d="M.72,8.5a181.11,181.11,0,0,0,32.43-.76.77.77,0,0,0,.54-1.28A42.67,42.67,0,0,0,26.18.81C25.21.23,23.76-.63,23,.7c-.67,1.12-.35,2.9-.32,4.13A61,61,0,0,0,23.8,15.09c.21,1.05.29,3,1.52,3.41s2.21-1.28,2.82-2.11A46,46,0,0,0,33.5,7c.37-.88-.92-1.65-1.29-.76a46.42,46.42,0,0,1-4.59,8.35c-.47.67-.95,1.33-1.45,2-.18.22-.26.46-.44.33s-.25-1-.3-1.28c-.36-1.71-.66-3.43-.87-5.16s-.33-3.36-.4-5c0-.84,0-1.69,0-2.53a2.87,2.87,0,0,1,.06-1.17c.18-.31.34-.08.67.11a39.26,39.26,0,0,1,7.76,5.74l.53-1.28A181.11,181.11,0,0,1,.72,7c-1-.06-1,1.44,0,1.5Z"/></g></g></svg>