<svg xmlns="http://www.w3.org/2000/svg" viewBox="0 0 169.27 214.82"><defs><style>.cls-1{opacity:0.43;}.cls-2{fill:#cccccb;}.cls-3{opacity:0.5;}.cls-4{fill:#fbd3df;}.cls-5{fill:#333;}</style></defs><title>의자고양이</title><g id="Layer_2" data-name="Layer 2"><g id="Layer_5" data-name="Layer 5"><g class="cls-1"><path class="cls-2" d="M103.83,114.68A59.1,59.1,0,0,0,131,105.33a114.74,114.74,0,0,0,11.81-8.9c1.83-1.55,3.62-3.14,5.4-4.74l2.66-2.42,1.33-1.21c1.42-1.1.74-1.07-2,.07l-4-2.32c9.82,8-13.38,14.41-18.4,15.42-6.7,1.34-13.65,2.6-20.5,2.57-6.5,0-13.07-2.35-19.36-3.84v17.36c6.19-1.06,12.32-2.2,18.17-4.57,6.06-2.45,11.76-5.79,17.45-9a167.52,167.52,0,0,0,29.87-21.67l-4,2.31.63-.23h-4.79a5.42,5.42,0,0,1,1.13,1.56c1.75,4.54,6.06,7.67,11.07,6.29,4.34-1.19,8.05-6.51,6.29-11.07-2.69-7-9.7-16.39-18.49-14.14-3.73,1-6.16,4.17-8.9,6.62a85.11,85.11,0,0,1-9.21,7.06c-6.78,4.56-14,8.5-21.15,12.37-7.34,4-14.7,5.71-22.88,7.11-8.9,1.52-8.27,15.39,0,17.36,7.58,1.8,15.35,4.27,23.2,4.48,8,.23,16.44-1.35,24.32-2.84,13.59-2.58,31.43-9,35.53-24.18a21.42,21.42,0,0,0-5.61-20.21c-6.38-6.5-14-5.38-20.47.16-10.68,9.15-21.39,20.7-36.31,22-4.84.41-9,3.85-9,9,0,4.55,4.13,9.41,9,9Z" transform="translate(-0.01 0)"/></g></g><g id="Layer_4" data-name="Layer 4"><g class="cls-3"><path class="cls-2" d="M50.44,10.05a7.5,7.5,0,0,0,.21-3.15,4.45,4.45,0,0,1-2.5.08,4.41,4.41,0,0,1-2.49-1.91,5.8,5.8,0,0,1-.9-3.21A6.11,6.11,0,0,1,44.83,1,8.57,8.57,0,0,0,42,.8c-.25.22-.51.42-.77.63a4,4,0,0,1-1.08,2,21,21,0,0,1-2.63,2.18,9.68,9.68,0,0,1-1.68,1,15.63,15.63,0,0,0-.34,2,8.79,8.79,0,0,0-1.13.53C26,13.92,22.15,22.23,19.14,31c-1.37,4-2.53,8.35-1.36,12.55A9.06,9.06,0,0,0,28.48,50c3.9-1,7.32-4.25,10.3-6.78a37.08,37.08,0,0,0,8.56-9.95,26,26,0,0,0,3.35-13C50.65,17,49.58,13.25,50.44,10.05Z" transform="translate(-0.01 0)"/></g><g class="cls-3"><path class="cls-2" d="M71.88,97.18c14.12,6.12,27.64-5.5,40.65-10,12.66-4.32,29.66-9.25,30.75-23.4,1-13-5.19-11.9-9.23-4.56-5.08,9.25-15.63,12.24-25,15.43a121.62,121.62,0,0,0-14.91,6.13C90.25,82.77,83,87.92,78.44,86c-7.59-3.3-14.22,7.9-6.56,11.22Z" transform="translate(-0.01 0)"/></g><path class="cls-4" d="M45.83,81.83a2.32,2.32,0,0,0-1.11-1.45,2.51,2.51,0,0,0-.63-.25,4.49,4.49,0,0,0-.62-.07h0l-.53.07h-.09a4.25,4.25,0,0,0-.49.21.26.26,0,0,0-.09,0,2.56,2.56,0,0,0-.85.85,2.22,2.22,0,0,0-.14.32,2,2,0,0,0-.14.34c0,.19-.06.41-.08.6a.71.71,0,0,0,0,.14c0,.2.05.42.09.62a.17.17,0,0,0,0,.1,4.4,4.4,0,0,0,.21.5l0,.07.08.12a4.17,4.17,0,0,0,.36.47l.09.09a3.68,3.68,0,0,0,.59.45,5.32,5.32,0,0,0,.69.32l.27.08c.22,0,.44.07.66.08h.12a2.54,2.54,0,0,0,.78-.12,2.81,2.81,0,0,0,1.07-.63,2.65,2.65,0,0,0,.47-.59,2.44,2.44,0,0,0,.28-.69,2.74,2.74,0,0,0,.08-.64c0-.1,0-.22,0-.3s0-.24-.06-.35a1.58,1.58,0,0,0-.35-.68,1.53,1.53,0,0,0-.56-.51,2.22,2.22,0,0,0-1.55-.2l-.47.2a2.07,2.07,0,0,0-.72.72l-.2.47a2,2,0,0,0,0,1.07s0,0,0,.07l-.07-.53a.28.28,0,0,1,0,.13l.07-.54a.47.47,0,0,1,0,.17l.2-.47-.08.13.31-.41a.77.77,0,0,1-.12.13l.4-.31a.51.51,0,0,1-.16.09l.48-.2a.66.66,0,0,1-.2.06l.53-.07h-.24l.53.07a1.59,1.59,0,0,1-.33-.09l.47.2a1.5,1.5,0,0,1-.32-.19l.4.31a1,1,0,0,1-.21-.21l.31.4a1.08,1.08,0,0,1-.11-.18l.2.47a.85.85,0,0,1,0-.17l.07.53a.54.54,0,0,1,0-.18l-.07.54a.85.85,0,0,1,0-.17l-.2.47a.83.83,0,0,1,.08-.12l-.32.4.09-.08-.4.31.1-.06-.48.2.1,0-.53.07a.57.57,0,0,1,.13,0L43,84l.12,0-.48-.21.1.06-.41-.31.07.07-.31-.41a.3.3,0,0,1,0,.08l-.2-.48s0,0,0,.06a1.45,1.45,0,0,0,.36.68,1.38,1.38,0,0,0,.56.51,1.41,1.41,0,0,0,.74.24,1.55,1.55,0,0,0,.8,0l.48-.21a1.86,1.86,0,0,0,.71-.71l.2-.48a1.91,1.91,0,0,0,0-1.06Z" transform="translate(-0.01 0)"/><path class="cls-4" d="M52.55,80.77a4.59,4.59,0,0,0-1.11.17c-.24.08-.48.19-.71.29l-.3.16a6.8,6.8,0,0,0-.6.46,2.39,2.39,0,0,0-.23.22c-.09.1-.16.2-.24.3a3.3,3.3,0,0,0-.22.3.41.41,0,0,0,0,.09,6.32,6.32,0,0,0-.25.6,2.57,2.57,0,0,0,0,1.48s0,0,0,0,.14.37.21.5a2.44,2.44,0,0,0,.36.47l.05,0a3.32,3.32,0,0,0,.42.32l.06,0,.27.11.27.11a4.35,4.35,0,0,0,.63.1h.46a4.41,4.41,0,0,0,1.08-.22c.24-.11.51-.2.75-.34s.43-.32.64-.48a2.39,2.39,0,0,0,.23-.22,5.29,5.29,0,0,0,.51-.66,1.66,1.66,0,0,0,.24-.75,1.68,1.68,0,0,0,0-.8,1.5,1.5,0,0,0-.36-.68,1.53,1.53,0,0,0-.56-.51,2,2,0,0,0-1.54-.2l-.48.2a2.07,2.07,0,0,0-.72.72l-.09.13.31-.41a1.8,1.8,0,0,1-.36.37l.41-.31a2.78,2.78,0,0,1-.47.28l.48-.21a2.23,2.23,0,0,1-.56.16l.53-.07a2.36,2.36,0,0,1-.46,0l.53.07-.13,0,.48.21a.41.41,0,0,1-.11-.07l.41.32L52.22,83l.32.41a.35.35,0,0,1,0-.08l.2.48a.56.56,0,0,1,0-.12l.08.53a.54.54,0,0,1,0-.18l-.08.53a1.55,1.55,0,0,1,.07-.23l-.2.47a1.49,1.49,0,0,1,.14-.24l-.32.41a2.89,2.89,0,0,1,.35-.35l-.4.31a2.43,2.43,0,0,1,.52-.3l-.48.2a2.12,2.12,0,0,1,.55-.14l-.53.07.2,0a1.47,1.47,0,0,0,.77-.17,1.56,1.56,0,0,0,.64-.41,1.53,1.53,0,0,0,.41-.65,1.46,1.46,0,0,0,.18-.77l-.08-.53a1.91,1.91,0,0,0-.51-.88,2,2,0,0,0-1.41-.59Z" transform="translate(-0.01 0)"/></g><g id="Layer_3" data-name="Layer 3"><path class="cls-5" d="M24.13,61.36a102.43,102.43,0,0,0-.26,13.11A14.16,14.16,0,0,0,25,80a13,13,0,0,0,3.52,4.16A21,21,0,0,0,38,88.92c3.16.59,7.5.55,9.35-2.59a4,4,0,0,0-.29-4.7,8.94,8.94,0,0,0-4.4-2.34.5.5,0,0,0-.26,1,8.45,8.45,0,0,1,3.73,1.84A3,3,0,0,1,46.43,86c-1.81,2.79-6.13,2.47-8.93,1.81A20.31,20.31,0,0,1,29,83.32a12.19,12.19,0,0,1-3.21-3.83,13.35,13.35,0,0,1-.95-5.24,104.58,104.58,0,0,1,.27-12.89c.05-.64-.95-.64-1,0Z" transform="translate(-0.01 0)"/><path class="cls-5" d="M58,79.43c-3.7.21-8,1.17-9.9,4.73A6.38,6.38,0,0,0,47.48,89a5.84,5.84,0,0,0,3.73,3.54c3.76,1.43,8,.57,11.52-1.14a29.2,29.2,0,0,0,9.45-7.69,26.56,26.56,0,0,0,5.87-12c.12-.63-.85-.9-1-.26C75.78,78.58,70.92,85,64.94,89a17.18,17.18,0,0,1-10.38,3.24,8.12,8.12,0,0,1-5-1.79,4.36,4.36,0,0,1-1.16-4.37c1.07-4.26,5.76-5.44,9.59-5.66.64,0,.64-1,0-1Z" transform="translate(-0.01 0)"/><path class="cls-5" d="M80.47,22.69a54,54,0,0,1,24.46-3,51.37,51.37,0,0,1,20.76,6.5c5.75,3.36,10.79,8.16,13.48,14.32a33.37,33.37,0,0,1,2.42,12.09,37.7,37.7,0,0,1-1,11,21,21,0,0,1-5.14,9.49,28,28,0,0,1-8.77,5.64c-3.31,1.46-6.75,2.59-10.09,4a105.3,105.3,0,0,0-10.53,5.24c-6.92,3.81-13.88,8-21.68,9.79-3.89.87-8.22.94-11.61-1.43-2.62-1.82-4.6-5.3-3-8.41a3.4,3.4,0,0,1,3.31-2.1,6.2,6.2,0,0,1,2.53,1.28A10.63,10.63,0,0,0,78,88.33c3.49,1.27,7.41.09,10.63-1.39,7.64-3.5,14.26-9.25,22.6-11.15a21.2,21.2,0,0,1,6.1-.5c.64,0,.64-1,0-1-8.9-.6-16.54,4.73-23.88,9-3.56,2.06-7.5,4.36-11.71,4.57a8.55,8.55,0,0,1-5.47-1.58c-1.37-.94-2.88-1.89-4.6-1.32-3,1-4,4.83-3,7.56a10.52,10.52,0,0,0,7.54,6.39c4.19,1,8.6,0,12.6-1.36a75.6,75.6,0,0,0,11.2-5.06c3.66-2,7.25-4.07,10.94-6a101.76,101.76,0,0,1,10.83-4.7,58.23,58.23,0,0,0,10.11-4.58,21.16,21.16,0,0,0,7.52-7.66,27.62,27.62,0,0,0,3.11-10.74A45.72,45.72,0,0,0,142,46.67a27.73,27.73,0,0,0-4.07-10.54,32.25,32.25,0,0,0-7-7.57,47.09,47.09,0,0,0-19.31-8.81,57.2,57.2,0,0,0-25.41.13,50.27,50.27,0,0,0-6,1.85c-.6.22-.34,1.19.26,1Z" transform="translate(-0.01 0)"/><path class="cls-5" d="M71.45,84.5a.5.5,0,0,0,0-1,.5.5,0,0,0,0,1Z" transform="translate(-0.01 0)"/><path class="cls-5" d="M71.65,84.55c7.67.22,15-2.31,22.44-3.75a53.36,53.36,0,0,1,6.53-.89c.64,0,.65-1,0-1-7.64.5-14.89,3.17-22.44,4.24a38.57,38.57,0,0,1-6.53.4.5.5,0,0,0,0,1Z" transform="translate(-0.01 0)"/><ellipse class="cls-5" cx="39.38" cy="28.41" rx="1.89" ry="3.02"/><ellipse class="cls-5" cx="54.75" cy="28.81" rx="1.89" ry="3.32"/><path class="cls-5" d="M46.33,33.16a5,5,0,0,0-1.18,1.36,2.23,2.23,0,0,0-.2,1.64,1.62,1.62,0,0,0,1.1,1.15,2.07,2.07,0,0,0,1.8-.53,3.07,3.07,0,0,0,1-1.52,2,2,0,0,0-.31-1.65,1.78,1.78,0,0,0-1.46-.78,1.83,1.83,0,0,0-1.45.79,1.47,1.47,0,0,0,0,1.72,1.55,1.55,0,0,0,1.73.61l-.57-.74s0,.06,0,0a.1.1,0,0,1,0,.05l0,0s0,0,0,0-.15.08-.06,0l-.12,0c-.11,0,.06,0-.05,0h-.13c.11,0,0,0,0,0s-.06,0,0,0l-.07-.05-.26.93a3.24,3.24,0,0,0,1.88-.74.51.51,0,0,0,.08-.61.52.52,0,0,0-.57-.22l-1,.14a.5.5,0,0,0-.37.48.53.53,0,0,0,.37.49,2,2,0,0,0,2.2-.82l-.87-.51c0,.12,0,0,0,0s-.13.11,0,0l-.09.05c-.08,0,.09,0,0,0a3.15,3.15,0,0,1-.42.09,1.81,1.81,0,0,0-1,.42,1,1,0,0,0-.16,1.25,1.09,1.09,0,0,0,1.16.55.5.5,0,1,0-.26-1c.09,0,0,0,0,0s-.1,0,0,0l-.07,0c.06,0,0,0,0,0s-.06-.09,0,0l0-.07c0,.08,0,0,0,0s0,0,0,0h0c0-.08,0,0,0,0s0,0,0,0-.06.05,0,0l.06-.06s-.05,0,0,0,.08,0,0,0,0,0,0,0l.1,0c.53-.15,1.15-.16,1.44-.72a.53.53,0,0,0-.18-.69.52.52,0,0,0-.69.18.89.89,0,0,1-.44.35l-.18,0s-.12,0,0,0h-.28c.1,0,0,0,0,0l-.12,0v1l1-.15-.49-.84a2.09,2.09,0,0,1-1.17.45.5.5,0,0,0-.25.93,1.44,1.44,0,0,0,1.94-.47.5.5,0,0,0-.57-.73L47,35c-.12,0,.08,0,0,0s-.16,0,0,0a.27.27,0,0,1-.12,0s-.14-.06-.05,0l-.11-.06c-.12-.06,0,.06,0,0l-.11-.11c-.06-.06,0,.09,0,0a.41.41,0,0,0-.07-.11c-.06-.11,0,.07,0,0l0-.12c0,.11,0,0,0-.05s0,.08,0,0l0-.13c0,.11,0,0,0-.05a.41.41,0,0,1,.05-.09c-.06.08,0,0,0,0l.09-.09c.1-.09-.07,0,0,0l.12-.07c.11-.06-.08,0,0,0l.13,0,.09,0h0s.23,0,.13,0l.13,0s.15.06.05,0l.12.07s.13.09,0,0l.1.09s.13.15.07.08a1.32,1.32,0,0,1,.12.2c.07.11,0-.09,0,0s0,.08,0,.13l0,.14c0-.11,0,0,0,.05v.14h0a.5.5,0,0,1,0,.12,2,2,0,0,1-.66,1,1.16,1.16,0,0,1-.93.38c.1,0-.19-.08-.07,0l-.12-.07c-.1-.06,0,.07,0,0a.78.78,0,0,1-.19-.33l0-.13s0-.15,0,0a1.61,1.61,0,0,1,0-.31.4.4,0,1,0,0,0,1.36,1.36,0,0,1,0-.17s.07-.15,0-.08a1.28,1.28,0,0,1,.11-.2,4.8,4.8,0,0,1,1-1.07.49.49,0,0,0-.7-.7Z" transform="translate(-0.01 0)"/><path class="cls-5" d="M46.22,36.86a22.76,22.76,0,0,1-3.36,6.74c-.38.53.48,1,.86.51a23.72,23.72,0,0,0,3.46-7,.5.5,0,0,0-1-.27Z" transform="translate(-0.01 0)"/><path class="cls-5" d="M46.39,37.26a12.32,12.32,0,0,0,3.86,7.47c.48.43,1.19-.27.71-.71a11.3,11.3,0,0,1-3.57-6.76.53.53,0,0,0-.5-.5c-.24,0-.54.24-.5.5Z" transform="translate(-0.01 0)"/><path class="cls-5" d="M25.09,60.72a33.83,33.83,0,0,1-6.77-26.61,38.54,38.54,0,0,1,5.09-13,43.55,43.55,0,0,1,4.12-5.71A33.32,33.32,0,0,1,33,10.06c1-.75,2-1.46,2.94-2.3S37.62,6,38.49,5.18a25.86,25.86,0,0,1,3.06-2.57c.49-.36,1-.7,1.52-1a2.88,2.88,0,0,1,.78-.48c.24,0,.11-.11.27.12a2.16,2.16,0,0,1,.18.56,13.42,13.42,0,0,1,.59,3.88c0,.91-.07,2,1,2.24a3.21,3.21,0,0,0,1.31,0c.71-.12,1.41-.22,2.12-.29a37.19,37.19,0,0,1,3.94-.24c1.32,0,2.64,0,4,.14s2.63.36,3.95.52a3.56,3.56,0,0,0,2.86-.78,16.94,16.94,0,0,0,1.61-1.37C66.5,5,67.44,4.3,68.3,3.51L69,2.92c.15-.13.54-.54.77-.53s.32.8.31,1.11c0,1.22-.15,2.45-.23,3.67,0,.66-.09,1.32-.13,2a3.73,3.73,0,0,0,.07,1.25c.27.83,1.19,1.4,1.87,1.84a18.9,18.9,0,0,1,2.83,1.94,19.68,19.68,0,0,1,4,6.14,33.69,33.69,0,0,1,3,15.06,32.82,32.82,0,0,1-.36,3.84c-.09.63.87.9,1,.27a34.51,34.51,0,0,0-1.27-15.76,33.91,33.91,0,0,0-3.14-7,16.24,16.24,0,0,0-2.06-2.83,13,13,0,0,0-2.85-2.15c-.71-.43-2-1-2.09-2a34.72,34.72,0,0,1,.24-3.94A12.64,12.64,0,0,0,71,2.57c-.16-.81-.83-1.57-1.71-1.12A15.42,15.42,0,0,0,66.5,3.78c-.76.66-1.49,1.35-2.23,2-.27.25-.56.39-.85.62A2.48,2.48,0,0,1,61.5,7c-1.34-.12-2.68-.41-4-.54a40.63,40.63,0,0,0-8.25.09c-.63.07-1.27.16-1.91.25s-1.42.36-1.45-.53a18.51,18.51,0,0,0-.33-3.78C45.36,1.74,45.16.11,44.12,0c-.52-.06-1,.38-1.46.64-.58.37-1.15.76-1.71,1.16a28.8,28.8,0,0,0-3,2.5c-.93.91-1.79,1.87-2.75,2.74S33.11,8.69,32.05,9.5a30.16,30.16,0,0,0-2.91,2.63,46.09,46.09,0,0,0-4.81,5.72,42.13,42.13,0,0,0-6.27,12.93,34.68,34.68,0,0,0,4.29,27.79c.63,1,1.31,1.94,2,2.86.4.5,1.1-.21.71-.71Z" transform="translate(-0.01 0)"/><path class="cls-5" d="M23.31,67.23A42.79,42.79,0,0,0,10,73.51C6.49,76,3.26,79.13,1.53,83.09c-3.62,8.3,1.28,17.26,8.42,21.8a38,38,0,0,0,13.34,4.89,108.27,108.27,0,0,0,11.2,1.48c7.63.64,15.3.88,23,1,7.31.11,14.65.12,22-.21l2.09-.11c.64,0,.64-1,0-1-6.77.4-13.56.42-20.34.36-7.62-.06-15.24-.26-22.84-.76-3.09-.2-6.17-.45-9.23-.85a56.84,56.84,0,0,1-13.81-3.21A23.76,23.76,0,0,1,4.69,98.67,16,16,0,0,1,1.42,87C2.1,82.69,4.8,79.11,8,76.34A39,39,0,0,1,20.2,69.27c1.11-.41,2.23-.76,3.37-1.08a.5.5,0,0,0-.26-1Z" transform="translate(-0.01 0)"/><path class="cls-5" d="M141,66.09c8,.22,16.35,3.39,21.87,9.36a19.9,19.9,0,0,1,5.15,9.73,13.6,13.6,0,0,1-2.3,10.22c-4.74,6.83-13.35,8.76-21.07,9.89-9.3,1.37-18.65,2.43-28,3.29s-18.85,1.51-28.29,1.92l-3.46.14c-.64,0-.65,1,0,1q14.72-.56,29.41-1.84t29.14-3.33c8-1.13,16.86-2.78,22.28-9.43A14.79,14.79,0,0,0,169.26,87a18.75,18.75,0,0,0-4-10.26c-4.94-6.54-12.94-10.38-21-11.39-1.08-.13-2.17-.21-3.26-.24a.5.5,0,0,0,0,1Z" transform="translate(-0.01 0)"/><path class="cls-5" d="M.19,89.69c-.33,6.47-.6,13.52,3.11,19.17s10.57,7.08,16.67,8.59a167.72,167.72,0,0,0,43,4.45c7.62-.13,15.24-.44,22.86-.6s15.14-.27,22.7-.47c13.82-.34,28-1.7,41.08-6.36a37.58,37.58,0,0,0,12.52-6.92,20.42,20.42,0,0,0,6.63-12,26.61,26.61,0,0,0,.32-4,.5.5,0,0,0-1,0,20.14,20.14,0,0,1-4.8,13.44,30.5,30.5,0,0,1-11.54,7.61,89.29,89.29,0,0,1-18,4.92A154.86,154.86,0,0,1,113,119.68c-7.25.32-14.52.36-21.77.51s-14.7.33-22,.56c-14.17.44-28.31-.07-42.26-2.79-3.42-.67-6.82-1.46-10.17-2.4-3.12-.86-6.35-1.74-9-3.59C2.15,108.2,1,101,1,94.82c0-1.71.1-3.42.19-5.13,0-.65-1-.64-1,0Z" transform="translate(-0.01 0)"/><path class="cls-5" d="M17.82,116.36q0,22.49-.37,45T16.53,206a10.83,10.83,0,0,1-.85,4.82,5,5,0,0,1-2.21,2,9.36,9.36,0,0,1-6.47.73,4.25,4.25,0,0,1-2.57-1.75,9,9,0,0,1-1.06-4.12c-.32-3.65-.47-7.32-.58-11-.45-14.78-.6-29.57-.75-44.35s-.23-29.42-.31-44.14c0-1.79,0-3.59,0-5.39a.5.5,0,0,0-1,0q.11,22.67.29,45.33c.14,15.11.34,30.22.7,45.33.09,3.8.21,7.6.46,11.4.18,2.74,0,6.51,2.31,8.49a7.81,7.81,0,0,0,6,1.37A8.32,8.32,0,0,0,16.13,212a7.63,7.63,0,0,0,1.3-4c.17-1.81.14-3.65.19-5.46q.15-5.75.27-11.49.27-11.47.45-23,.38-23,.47-45.95c0-1.92,0-3.83,0-5.75a.5.5,0,0,0-1,0Z" transform="translate(-0.01 0)"/><path class="cls-5" d="M58.68,121.44c0,10.69-.08,21.38-.3,32.07s-.55,21.17-.83,31.76a15.07,15.07,0,0,1-.62,5,4.63,4.63,0,0,1-2.09,2.36,9.4,9.4,0,0,1-6.3,1.05,4.81,4.81,0,0,1-2.69-1.33,6.83,6.83,0,0,1-1.42-4c-.38-3.54-.49-7.11-.61-10.66-.32-9.87-.5-19.75-.68-29.62C43,140.63,43,133.18,43,125.74l0-5.07a.5.5,0,0,0-1,0c0,8.61,0,17.23.18,25.84.15,9.4.38,18.81.62,28.21.1,3.72.23,7.44.49,11.15.2,2.68.21,6.08,2.64,7.81a8.48,8.48,0,0,0,6.2,1,7.79,7.79,0,0,0,5.29-3,8.86,8.86,0,0,0,1.13-4.34c.1-1.79.11-3.59.16-5.39q.12-4.8.26-9.6c.14-5,.28-9.92.39-14.89.24-10.26.34-20.52.38-30.78,0-1.74,0-3.48,0-5.22a.5.5,0,0,0-1,0Z" transform="translate(-0.01 0)"/><path class="cls-5" d="M128.82,118.73c0,11.14-.11,22.28-.37,33.41s-.61,22.09-.9,33.13a15.07,15.07,0,0,1-.62,5,4.63,4.63,0,0,1-2.09,2.36,9.4,9.4,0,0,1-6.3,1.05,4.81,4.81,0,0,1-2.69-1.33,6.83,6.83,0,0,1-1.42-4c-.38-3.54-.49-7.11-.61-10.66-.33-9.93-.5-19.87-.68-29.8-.14-7.54-.15-15.07-.18-22.61l0-5.07a.5.5,0,0,0-1,0c0,8.69,0,17.39.18,26.09.15,9.47.38,18.95.62,28.42.1,3.72.23,7.44.49,11.15.2,2.68.21,6.08,2.64,7.81a8.48,8.48,0,0,0,6.2,1,7.79,7.79,0,0,0,5.29-3,8.86,8.86,0,0,0,1.13-4.34c.1-1.8.11-3.6.16-5.41l.27-9.8c.15-5.25.31-10.49.44-15.73.28-10.8.41-21.6.46-32.4,0-1.75,0-3.5,0-5.25a.5.5,0,0,0-1,0Z" transform="translate(-0.01 0)"/><path class="cls-5" d="M149.71,113.72q0,22.89.39,45.77.17,11.41.41,22.85.12,5.72.26,11.45c0,1.91.1,3.82.14,5.73s0,3.65.19,5.46a7.63,7.63,0,0,0,1.3,4,6.37,6.37,0,0,0,2.41,1.86,10.58,10.58,0,0,0,6.58.8,5.88,5.88,0,0,0,2.67-1.25,6.23,6.23,0,0,0,1.84-3.58,38.48,38.48,0,0,0,.47-4.91c.13-1.9.22-3.8.29-5.7.28-7.55.38-15.11.51-22.66s.22-15.12.3-22.69c.17-15.12.25-30.25.33-45.37,0-1.88,0-3.76,0-5.64a.5.5,0,0,0-1,0q-.1,22.17-.28,44.34c-.14,14.7-.33,29.39-.66,44.08-.08,3.72-.17,7.45-.36,11.16-.09,1.8-.2,3.59-.36,5.38A8.55,8.55,0,0,1,164,209c-1.27,1.8-3.87,2-5.88,1.78s-4.28-1.07-5.26-2.91a11.07,11.07,0,0,1-.86-5.07c-.05-1.83-.1-3.66-.14-5.48-.1-3.74-.18-7.48-.27-11.21q-.24-11.17-.42-22.36-.36-22.25-.45-44.5c0-1.83,0-3.66,0-5.49a.5.5,0,0,0-1,0Z" transform="translate(-0.01 0)"/></g></g></svg>