<svg width="165" height="177" viewBox="0 0 165 177" fill="none" xmlns="http://www.w3.org/2000/svg">
<g clip-path="url(#clip0)">
<path d="M-15.8407 176.688C-6.65432 159.254 5.69278 143.686 20.5693 130.78C24.1716 127.671 28.0482 124.8 31.0523 121.042C34.0563 117.284 35.5272 112.602 36.5991 107.858C37.6306 103.214 38.9122 98.6293 40.4383 94.1242C45.6193 79.4292 53.9986 66.0723 64.9692 55.0211L63.9097 54.5717C63.5607 62.8451 63.2075 71.1435 62.8502 79.4668C62.8502 80.2908 64.0094 80.2409 64.0967 79.4668C65.965 64.6122 72.7293 50.807 83.3176 40.2389C86.3064 37.2544 89.5795 34.5698 93.0901 32.2235L92.1552 31.6867L88.6027 61.0264C88.5154 61.7381 89.6373 61.8255 89.8492 61.1887C94.6139 45.859 103.193 31.9948 114.779 20.8996C118.054 17.7552 121.558 14.859 125.262 12.235L124.352 11.5359L117.334 40.3762C117.309 40.4685 117.306 40.5652 117.325 40.6589C117.343 40.7526 117.383 40.8409 117.44 40.9169C117.498 40.9928 117.573 41.0545 117.658 41.0972C117.743 41.1398 117.837 41.1622 117.933 41.1628C121.759 41.4 124.078 38.1414 125.511 35.0202C127.244 31.2747 128.216 27.2545 130.422 23.6963C135.097 16.2052 142.763 11.1239 150.528 7.24101C155.066 4.96874 159.777 3.05854 164.514 1.23572L163.741 0.474139C158.73 14.3537 152.032 27.5623 143.797 39.8019C141.441 43.3102 138.948 46.7436 136.318 50.0771C135.907 50.6015 136.406 51.4379 137.066 51.0634C146.866 45.4982 155.166 37.6265 161.248 28.1284L160.089 27.8038C158.563 44.0001 150.72 58.9397 138.263 69.3789C134.794 72.2757 131.005 74.7641 126.97 76.795C126.865 76.8576 126.781 76.9493 126.729 77.059C126.676 77.1687 126.656 77.2915 126.672 77.4123C126.688 77.5331 126.739 77.6466 126.818 77.7387C126.898 77.8309 127.002 77.8978 127.119 77.9311C133.985 79.2696 141.101 78.2167 147.287 74.9472L146.378 74.2356C140.482 90.7158 126.434 103.763 109.868 109.194C105.188 110.714 100.324 111.592 95.4085 111.803C95.2865 111.805 95.1677 111.842 95.0669 111.911C94.966 111.98 94.8874 112.076 94.841 112.189C94.7945 112.302 94.7822 112.427 94.8055 112.547C94.8289 112.667 94.8868 112.777 94.9723 112.864C97.9035 115.566 101.513 117.419 105.415 118.224C109.317 119.029 113.364 118.756 117.122 117.434L116.424 116.51C109.307 127.072 100.22 137.485 87.6554 141.23C81.558 143.182 74.9899 143.077 68.958 140.93C63.623 138.87 59.36 134.875 55.2466 131.03C50.7468 126.835 46.1223 122.528 40.2015 120.468C39.4411 120.205 39.117 121.404 39.8774 121.716C50.9712 125.586 56.9543 137.197 67.6617 141.779C79.8149 146.998 93.5637 142.142 103.162 134.014C108.698 129.096 113.53 123.437 117.521 117.196C117.579 117.089 117.605 116.967 117.596 116.845C117.586 116.724 117.542 116.607 117.469 116.51C117.395 116.412 117.295 116.338 117.181 116.296C117.066 116.254 116.942 116.246 116.823 116.273C113.264 117.524 109.432 117.781 105.738 117.015C102.044 116.25 98.6285 114.491 95.8573 111.928L95.421 112.989C104.363 112.583 113.085 110.082 120.887 105.685C128.705 101.313 135.453 95.2526 140.644 87.9441C143.54 83.8229 145.859 79.324 147.537 74.5727C147.736 74.0358 147.076 73.6363 146.627 73.8735C140.732 76.9778 133.96 77.9858 127.418 76.7326L127.568 77.8687C142.298 70.2736 153.436 57.1569 158.556 41.375C159.991 36.9729 160.912 32.4187 161.298 27.8038C161.298 27.1546 160.438 27.0048 160.139 27.4917C154.183 36.7974 146.054 44.5105 136.455 49.9647L137.203 50.951C146.414 39.1617 154.13 26.2747 160.176 12.5846C161.946 8.71424 163.55 4.78979 164.988 0.811234C165.016 0.704601 165.016 0.592317 164.987 0.485827C164.958 0.379337 164.901 0.282448 164.823 0.205037C164.744 0.127626 164.646 0.0724601 164.54 0.0451631C164.433 0.0178661 164.321 0.0194138 164.215 0.0496484C156 3.20836 147.724 6.62925 140.531 11.7356C137.061 14.117 133.961 16.9989 131.332 20.2878C130.056 21.937 128.942 23.7056 128.004 25.569C127.161 27.3777 126.42 29.2326 125.785 31.1248C124.539 34.6331 122.582 40.189 117.982 39.8643L118.581 40.6509L125.599 11.8105C125.723 11.3236 125.15 10.7743 124.689 11.1114C111.337 20.5941 100.63 33.3422 93.5887 48.1419C91.6236 52.2528 89.9573 56.5004 88.6027 60.8516L89.8492 61.0264L93.4017 31.6867C93.401 31.5774 93.3717 31.4702 93.3168 31.3759C93.2618 31.2815 93.1831 31.2032 93.0884 31.1489C92.9938 31.0945 92.8866 31.066 92.7775 31.0662C92.6684 31.0663 92.5613 31.0952 92.4668 31.1498C79.7767 39.7098 70.3152 52.281 65.5925 66.8569C64.2718 70.9611 63.3534 75.1843 62.8502 79.4668H64.0967C64.4457 71.1851 64.7989 62.9075 65.1562 54.6341C65.1513 54.512 65.1114 54.3938 65.0412 54.2938C64.9711 54.1938 64.8737 54.1161 64.7607 54.07C64.6476 54.0239 64.5237 54.0114 64.4038 54.034C64.2838 54.0565 64.1729 54.1131 64.0842 54.1971C50.7097 67.6813 41.1848 84.5072 36.4994 102.926C35.2529 107.92 34.53 113.089 31.9497 117.559C29.4567 121.741 25.7173 124.85 21.9778 127.909C5.99687 141.259 -7.21945 157.614 -16.9251 176.051C-17.2991 176.762 -16.2146 177.399 -15.8407 176.688Z" fill="#333333"/>
<path d="M50.8339 108.033C54.3711 108.395 57.9369 107.714 61.0926 106.073C64.1215 104.699 67.0508 103.064 69.9925 101.503C75.7014 98.4942 81.373 95.4229 86.9448 92.1519C97.9388 85.7221 108.584 78.5057 117.77 69.6788C122.915 64.7331 127.485 59.2214 131.395 53.2486C131.831 52.5744 130.746 52.0001 130.31 52.6118C123.363 62.9214 114.639 71.9094 104.545 79.155C94.3181 86.5129 83.5558 93.0942 72.3484 98.8438C69.2197 100.517 66.1159 102.19 62.9124 103.838C59.3101 105.686 55.2964 107.446 51.1705 106.834C50.3852 106.722 50.0362 107.92 50.8339 108.083V108.033Z" fill="#333333"/>
<g opacity="0.5">
<path opacity="0.5" d="M67.0133 108.844C64.8818 101.478 71.8996 93.5876 75.9507 88.0942L52.2674 74.2359C42.5821 90.2666 62.7753 107.359 77.7955 97.5828C83.8783 93.6126 86.5209 87.3576 89.4003 81.0152L98.8113 60.2152L73.2707 53.2486C72.099 62.5249 69.6559 72.5005 69.7431 81.8392C69.8803 96.6465 87.4932 101.815 97.3778 92.1394C104.47 85.1977 108.808 73.7115 113.582 65.1093L129.787 36.2065L104.794 25.6567L98.4373 58.1177C96.2685 69.167 107.798 80.4784 118.581 73.6241C133.364 64.2229 141.155 47.5679 152.111 34.4586C156.86 28.778 157.671 20.6128 152.111 15.0444C149.515 12.5154 146.035 11.1005 142.414 11.1005C138.792 11.1005 135.313 12.5154 132.716 15.0444C124.913 22.5854 120.114 31.4497 116.374 41.6001C113.333 49.8901 110.578 57.5559 105.567 64.9221C100.17 72.8875 93.4265 79.9041 86.5708 86.5835C80.9366 92.0894 74.7166 99.3183 66.1657 98.3694C58.799 97.5454 52.4543 105.274 52.4543 112.103C52.4543 120.206 58.774 125.012 66.1657 125.836C78.4935 127.21 89.4128 120.643 98.4623 112.977C107.076 105.599 114.957 97.4036 121.996 88.5062C129.602 79.1897 135.624 68.6825 139.821 57.4061C142.999 48.7415 145.293 41.0008 152.061 34.3962L132.716 14.982C127.468 21.2245 122.744 27.879 118.082 34.5585C114.343 39.8022 110.179 46.3818 104.732 49.8526L124.875 65.359L131.245 32.9604C132.491 26.2685 129.911 19.4267 123.305 16.7299C120.254 15.4359 116.839 15.292 113.69 16.3248C110.542 17.3576 107.873 19.4973 106.178 22.3482L91.2202 49.1035L83.9656 61.9881L80.3508 68.4179L78.5434 71.6265C76.8357 74.4232 76.9479 74.4856 78.8799 71.7888L85.8104 69.9161H84.5639L94.3115 73.9737L93.4015 73.2246L96.9291 79.2798C97.9014 83.1876 97.6645 77.3571 97.8141 76.221L98.8238 68.2306L100.693 53.2486C102.364 39.9021 80.5876 34.2714 75.1404 46.3194L67.2128 63.7984C65.8915 66.7199 64.645 69.6788 63.2489 72.5379C62.7919 73.57 62.2808 74.5813 61.7158 75.5718C63.8348 74.0861 63.8846 73.8613 61.8279 74.8976L68.7584 73.0248L73.6197 74.8601L77.1473 80.9154V82.1639L75.2402 89.1929L75.9008 88.0942C77.6614 84.9417 78.132 81.228 77.2136 77.7349C76.2953 74.2418 74.0595 71.2419 70.9772 69.3667C64.0093 65.2841 56.6301 68.318 52.2175 74.3607C43.2178 86.5586 36.0131 100.829 40.513 116.273C45.4117 133.215 71.8871 126.011 66.9635 108.969L67.0133 108.844Z" fill="#156735"/>
</g>
</g>
<defs>
<clipPath id="clip0">
<rect width="182" height="177" fill="white" transform="translate(-17)"/>
</clipPath>
</defs>
</svg>
