<svg xmlns="http://www.w3.org/2000/svg" viewBox="0 0 335.51 208.06"><defs><style>.cls-1{opacity:0.52;}.cls-2{fill:#b7b7b7;}.cls-3{fill:#333;}</style></defs><title>퍼즐</title><g id="Layer_2" data-name="Layer 2"><g id="Layer_3" data-name="Layer 3"><g class="cls-1"><path class="cls-2" d="M202.8,105.87c-1.42-7.51-9.43-9.09-15.82-9.94-6.85-.91-17.38-2.17-17,7.79.19,4.44,1,8.43.55,13-.18,1.92-.47,3.81-.78,5.71-.21,1.23-.43,2.46-.65,3.69q-1.19,3.3,2.71-.64c-1.18-2.33-9.41-1.21-11.15-.73-3.45,1-6.62,3.2-7.19,6.93a6.91,6.91,0,0,0,3,7.34,10.3,10.3,0,0,0,6.09,1.72,26.2,26.2,0,0,0,5-1c1.18.59,1.52,4.32,1.66,5.35a22.41,22.41,0,0,1-1,9.1,6.56,6.56,0,0,0,6.27,8.23l15.71.09,5.89,0c1.34,0,6,.81,7.08.06,1.49.42,1-.15-1.43-1.69a23.57,23.57,0,0,0-1.3,2.79,15.33,15.33,0,0,0-1.29,4.71,11.73,11.73,0,0,0,3.19,9.51c6,5.87,15.06,2.25,16.85-5.43a15.12,15.12,0,0,0,0-6c-.15-.81-.55-4.11-1.07-4.39q-5.73,3.62-1.07,2.91c1.27,0,2.53-.06,3.8-.13q3.33-.18,6.63-.56c7.72-.88,18.05-.81,18.87-10.56a76.64,76.64,0,0,0,0-13.12c-.42-4.24-2.43-7.09-6.68-8-3.66-.77-6.87-.5-4.43-5.06,1.67-3.12,3.13-3.34,6.06-5a9.92,9.92,0,0,0,5.14-7.91c.12-1.89-.57-3.48-1.08-5.23-.43,2.12-.25,2.46.56,1a5.29,5.29,0,0,0,.79-2.49c.67-4.58-1.72-7.63-6.27-8.23s-9.19,2.33-13.67.36c-5.15-2.26-10.86,1.45-9.55,7.34.66,2.94,1.81,6.22,1.43,9.24-.31,2.59-1.49,5.06-1.92,7.63-.95,5.58.63,10.11,4.3,14.33.53.62,2.55,2.23,2.71,3.11-.32-1.75-.81-.53-1.31.16-.69.94-2.66,6.29-1.82,7.32,2.59-2.29,3-3.1,1.1-2.42a25,25,0,0,1-2.7.59,36.82,36.82,0,0,1-3.78.32c-3.39.16-6.8,0-10.18-.15-5.56-.24-11.61-.9-15.91-4.91-1.44-1.35-1.06-.19-1.42-2.63-.2-1.33-.15-2.71-.36-4.06-.39-2.54-1.55-5.11-1.69-7.65s1.47-4.37,2.37-6.66a27.18,27.18,0,0,0,1.12-3.94c.67-3,1.7-3.29-2.55-3-4.07.29-3.54.14-1.61,2a16.78,16.78,0,0,0,2.94,2.17,19,19,0,0,0,7.68,2.25c3.5.44,6.49-3.34,6.5-6.5v-1.2L190,116.61l1.13,2.09,11.22-6.56-.59-1.32-12.54,3.46c2.35,6.06,6.37,10.78,12.54,13.18a20.16,20.16,0,0,0,9.45,1.24,28.89,28.89,0,0,0,5.29-1c1.74-.5,3.82-1.88,5.55-2.07l-4.59-1.91c-.81-1,.11.84.17,1.15.26,1.32.65,2.54.79,3.89,0,.5.45,4.24.52,1.17.73-1.21.65-1.5-.24-.86a17.88,17.88,0,0,0-1.92,1.05,35.1,35.1,0,0,0-9.75,9.26c-2.46,3.28.1,8.75,3.88,9.55a39.4,39.4,0,0,0,7.73.89l-4.6-11.1a93.62,93.62,0,0,1-7.79,5.51c-7.11,4.57-.94,14.82,6.56,11.23A60.17,60.17,0,0,1,222,152c5.56-1.65,6.15-8.8,1.55-11.88-4.8-3.21-12.34-1.24-17.71-.85l4.6,11.09a64,64,0,0,1,11.08-7.89c7.39-4.21.9-14.67-6.57-11.22-6.16,2.84-12.43,5.35-18.83,7.6l6.32,10.86A110,110,0,0,1,215.84,140c7.19-4.66,1-14.49-6.56-11.23a229.48,229.48,0,0,0-22.68,11.34l6.56,11.22q8.88-5.35,17.34-11.34c5.54-3.92,2.4-14.66-5-11.88a118.62,118.62,0,0,1-13.29,4.1l5,11.88a157.86,157.86,0,0,1,22.11-10.77c7.47-3.11,4.71-15.21-3.46-12.53l-20.69,6.79,5,11.88a95.55,95.55,0,0,1,11.7-5.09c6.88-2.47,5.78-12.35-1.73-12.77L204,121.2l-2.65-.15q-4.46-.6,1.66,1.57l.66,5-.82.81c6.56-4.89.44-16-6.56-11.22l-14.17,9.72,8.89,8.9,3.37-6.7c3-6.07-3-11.58-8.9-8.89a14.78,14.78,0,0,0-3,1.57l8.9,8.89q2.3-2.58-1.15-.23l-6.32-1.67.39.36-1-7.88-.18.4L195.2,125l.13-1H184.1l1.3,2.5c3.87,7.43,15.09.86,11.23-6.56l-1.3-2.5c-2.11-4-9.24-4.44-11.23,0a19.25,19.25,0,0,0-1.9,7.61c-.24,6.19,9.35,9.19,12.11,3.28l.19-.4c1.19-2.55,1.23-5.81-1-7.88l-.39-.36c-1.58-1.45-4.17-2.52-6.32-1.67-3.36,1.34-4.57,3.34-6.63,6.21-3.89,5.44,3.6,12.08,8.9,8.9a14.74,14.74,0,0,1,3-1.58l-8.89-8.89-3.36,6.7c-2.69,5.34,3.12,12.85,8.89,8.89l14.17-9.73-6.56-11.22c-4.53,3.37-7.83,9.55-2.92,14.4,3.79,3.74,11.94,2.65,16.79,2.93l-1.72-12.77a124.54,124.54,0,0,0-14.82,6.41c-6.5,3.34-2,14.18,5,11.88l20.7-6.8-3.46-12.53c-8.62,3.59-17.22,7.18-25.21,12.07-6.3,3.86-2.19,13.64,5,11.88A116.52,116.52,0,0,0,209,140.6l-5-11.88q-8.48,6-17.34,11.34c-7.16,4.31-.73,15.38,6.56,11.22A229.4,229.4,0,0,1,215.84,140l-6.56-11.23a131,131,0,0,0-16.08,11.8c-4.76,4.23.24,13,6.33,10.86,7.45-2.61,14.76-5.6,21.94-8.91l-6.57-11.22a80,80,0,0,0-13.7,9.92c-4.08,3.64-1,11.49,4.59,11.1,1.79-.13,10.05-1.66,11.15-.92l1.55-11.88a82.17,82.17,0,0,0-12.2,4.75l6.56,11.23a128.4,128.4,0,0,0,10.42-7.55c4.62-3.67.59-11-4.59-11.09a20.35,20.35,0,0,1-4.27-.43l3.88,9.55c3.21-4.27,9.4-5.28,12-9.76s1-11.72-.62-16.31c-2.55-7.36-7.3-7.91-14-5.57-5.05,1.76-11.5,2.77-13.91-3.47-3-7.64-15.14-4.66-12.54,3.46a23.7,23.7,0,0,0,1.91,4.42c4.11,7.3,15.19.8,11.22-6.56l-1.12-2.1c-3.11-5.77-12.09-3-12.11,3.29v1.2l6.5-6.5c-2.63-.33-4.27-4-7-4.83a8.41,8.41,0,0,0-9,3.11c-2.58,3.24-2.26,7.21-3.69,10.88s-3.32,6.29-3.27,10.4c0,3.71,1.65,7.09,2.09,10.71.47,4,.1,7.42,2.61,10.87,4.29,5.89,12.81,9.56,19.78,10.63a78.78,78.78,0,0,0,25.41,0c3.3-.6,6.68-1.43,8.93-4.09s1.66-5.65,2.89-8.61c1.63-3.91,3-6.64,1.24-10.81-1.29-3-5.06-5.05-6-7.93s1.5-7,1.9-9.89c.69-5-.58-9.77-1.66-14.61l-9.55,7.34a24.24,24.24,0,0,0,10.41,2.5c3.31,0,6.55-1.52,9.82-1.09l-6.27-8.22c-.34,2.34-1.94,3.62-1.71,6.37,0,.43.25,3,.79,3.15,2-2.41,2.33-3.23,1-2.45a17.28,17.28,0,0,1-1.58.71c-4.56,2.23-7.43,6-9.54,10.58-2.61,5.64-3.22,11,.91,16.15a17.58,17.58,0,0,0,10.65,6.17c1.27.22,5.08,1.5,1.58-.2l-3-3.89c.52,2.12.08,4.84.08,7v2.81c-.25,1.37.2,1.35,1.36-.08,3.53-1.74-.64-.6-1.44-.45a102.67,102.67,0,0,1-16.22,1.59c-4.53.12-9,.72-11,5.43a12.12,12.12,0,0,0-.77,5.78c.09,1.11.39,5.61,1.26,6.27l5.72-.57.71-1.42a12.66,12.66,0,0,0,1.34-3,12.43,12.43,0,0,0,.59-6.39c-.83-4.15-4.25-7-8.21-8-4.59-1.14-9.82-.54-14.52-.57l-17.67-.1,6.27,8.23c2.15-7.47,2.42-16.66-1.51-23.67a13.22,13.22,0,0,0-7.54-6.43,14.11,14.11,0,0,0-4.39-.44c-.69,0-4.19.77-4.29.7l3,7.35.16-1.07-3,3.88c3-2.31,7.84,1.51,11.62.27s5.78-4.42,6.7-8a86.23,86.23,0,0,0,2-13.47,48.54,48.54,0,0,0,.19-7.43,35,35,0,0,0-.39-3.69c0-2.13-.24-2.29-.82-.49l-3.89,3c2.11-.3,5.38.48,7.45.79,1.12.16,2.29.55,3.41.63,1.31.09.93.83.74-.14,1.56,8.21,14.09,4.73,12.54-3.46Z" transform="translate(-0.04 -0.01)"/></g></g><g id="Layer_2-2" data-name="Layer 2"><path class="cls-3" d="M172.53,48.94a7.23,7.23,0,0,0,1,4.56,3.11,3.11,0,0,0,4.23.61c.85-.47,1.58-1.13,2.42-1.61a5.86,5.86,0,0,1,2.71-.75,8,8,0,0,1,5.25,1.8,10.44,10.44,0,0,1,3.24,5.13,15.22,15.22,0,0,1,.59,6.29,4.79,4.79,0,0,1-1.48,3,13.24,13.24,0,0,1-2.64,1.8A16.6,16.6,0,0,1,181.55,72a8.78,8.78,0,0,1-3.19-.19c-1.07-.27-2-.92-3.1-1.12-1.77-.33-2.93,1-3.39,2.54a12.78,12.78,0,0,0-.36,3.8c0,1.36.08,2.72.12,4.08a52.29,52.29,0,0,1-.18,9.28,8.42,8.42,0,0,1-1,3.22,3.69,3.69,0,0,1-2.24,1.45,26.86,26.86,0,0,1-8.58.56c-2.82-.12-5.63-.41-8.44-.63-.47,0-.93-.07-1.4-.09a.5.5,0,0,0-.48.36c-.69,2.32-.23,4.75.23,7.07s1.12,4.69.28,6.86c-1,2.58-3.79,3.25-6.28,3.33a36,36,0,0,1-4.28-.16,13.31,13.31,0,0,1-4.66-1.11,7,7,0,0,1-3-2.57,5.46,5.46,0,0,1-.57-4.13,8.67,8.67,0,0,0,.17-4.14,6.32,6.32,0,0,0-2-3c-2.22-2-5.19-2.35-8-2.34-3.42,0-6.84.24-10.26.37-1.36.06-2.72.12-4.09.21a4.17,4.17,0,0,1-3-.51c-.81-.67-.91-2-1-3a30.63,30.63,0,0,1,.07-3.71c.08-1.16.19-2.33.2-3.49,0-1.64,0-3.27-.07-4.91L103,74.86a9.45,9.45,0,0,0-.42-3.31c-1.38-3.57-5.7-2.32-8.36-1.19A50.45,50.45,0,0,1,88,73.05a10.8,10.8,0,0,1-13.34-6.47A11.06,11.06,0,0,1,74.61,59a12.18,12.18,0,0,1,12.8-8,12.65,12.65,0,0,1,4.09,1.09,15.53,15.53,0,0,0,4,1.59,4.22,4.22,0,0,0,4.62-2.36A12.58,12.58,0,0,0,100.9,46c0-2.84,0-5.69-.06-8.53,0-1.74-.09-3.47-.18-5.21,0-.83-.08-1.65-.13-2.48a13,13,0,0,1-.09-2.25c.1-.89.74-1.09,1.53-1.11s1.67,0,2.51,0c1.73,0,3.45.07,5.18.12,3.46.09,6.91.21,10.37.18,1.28,0,2.56-.06,3.84,0a12.94,12.94,0,0,0,3.11-.24,2.92,2.92,0,0,0,2.11-1.53,4.37,4.37,0,0,0-.14-3.14c-.36-1.06-.89-2-1.32-3.06a24.28,24.28,0,0,1-1.38-4.79,10.38,10.38,0,0,1,.09-4.64,9.65,9.65,0,0,1,2-3.65A12.84,12.84,0,0,1,136,1.57a12.61,12.61,0,0,1,8.86,1.24A12.83,12.83,0,0,1,150,9.55a18.78,18.78,0,0,1,.86,9.65c-.32,1.52-.83,3-1,4.54-.16,1.31-.12,2.63,1.24,3.23,3,1.31,6.49,1.35,9.68,1,2.77-.29,5.53-.94,8.31-1.12a4.65,4.65,0,0,1,3.08.6,4.33,4.33,0,0,1,1.38,3.28,21.55,21.55,0,0,1-.18,4c-.15,1.38-.24,2.75-.31,4.14l-.47,10c0,.65,1,.64,1,0l.5-10.53c.13-2.73.76-5.55.4-8.28A5.31,5.31,0,0,0,173.06,27a4.52,4.52,0,0,0-2.85-1.1,15.5,15.5,0,0,0-3.33.28c-1.55.23-3.1.46-4.65.67-3.53.47-7.15.61-10.54-.65a1.28,1.28,0,0,1-.86-.64,2.6,2.6,0,0,1-.09-1.11,12.75,12.75,0,0,1,.43-2.53,23.18,23.18,0,0,0,.9-4.88c.17-5.76-1.89-12.41-7.24-15.34A13.75,13.75,0,0,0,136.12.53a14.2,14.2,0,0,0-7.83,3.69A10.44,10.44,0,0,0,125,11.55a20.94,20.94,0,0,0,2.22,8.73,8.91,8.91,0,0,1,1.08,3.4c0,1.19-.83,1.66-1.89,1.86a16.14,16.14,0,0,1-3.18.14c-1.49,0-3,.06-4.47.05-3.54,0-7.07-.13-10.61-.23-1.77,0-3.54-.08-5.31-.08-1.22,0-2.74,0-3.26,1.32a3.86,3.86,0,0,0-.16,1.69c0,1,.12,2,.17,3,.09,1.74.16,3.47.2,5.21.08,3,0,6.06.07,9.09,0,1.77.12,3.83-.76,5.44a3,3,0,0,1-2,1.52,6.49,6.49,0,0,1-4.12-1A14.91,14.91,0,0,0,84.87,50a13.22,13.22,0,0,0-7.41,3,12.59,12.59,0,0,0-3.57,14.19,12.33,12.33,0,0,0,4.81,5.61,11.77,11.77,0,0,0,8,1.5c2.61-.4,4.8-1.62,7.15-2.71a12.87,12.87,0,0,1,5-1.48,2.87,2.87,0,0,1,3.06,2.68,29.57,29.57,0,0,1,.15,4.61l.09,5.42c0,1.3,0,2.58,0,3.87s-.2,2.66-.22,4c0,2,0,4.81,2.23,5.66a7.07,7.07,0,0,0,3.07.23c1.51-.11,3-.16,4.53-.21,3.46-.14,7-.43,10.44-.34,2.9.08,6.15.86,7.7,3.58a5.91,5.91,0,0,1,.32,4.3,7.29,7.29,0,0,0,.07,4.14,8.38,8.38,0,0,0,6,4.79,23,23,0,0,0,4.67.58,24.4,24.4,0,0,0,4.1-.07c2.43-.3,4.74-1.41,5.7-3.8.88-2.17.36-4.63-.08-6.84-.47-2.36-1.08-4.86-.37-7.23l-.49.37c5.64.25,11.31,1.33,17,.49a9,9,0,0,0,3.28-1,4.25,4.25,0,0,0,1.77-2.25c1-2.65.93-5.78.9-8.57s-.28-5.73-.21-8.59c0-1.29.12-3.19,1.25-4,1-.72,2.2,0,3.14.44a9.21,9.21,0,0,0,3,.68,13.79,13.79,0,0,0,6.12-1.3,15.85,15.85,0,0,0,5.48-3.46c1.46-1.62,1.59-3.84,1.47-5.91a15.93,15.93,0,0,0-1.43-5.92c-1.64-3.45-5.19-6.07-9.14-5.67a7.07,7.07,0,0,0-2.54.73c-.89.46-1.64,1.13-2.5,1.65a2.39,2.39,0,0,1-2.55.25,3,3,0,0,1-1.14-2,9.8,9.8,0,0,1-.16-2.48C173.56,48.3,172.56,48.3,172.53,48.94Z" transform="translate(-0.04 -0.01)"/><path class="cls-3" d="M173.31,27.73a127.51,127.51,0,0,0,18,.2c1.42-.09,2.85-.18,4.26-.34a6.76,6.76,0,0,0,3.1-.94c1.83-1.26,2-3.72,1.34-5.67-.77-2.28-2.39-4.16-2.86-6.56a10.94,10.94,0,0,1,.49-5.67,11.52,11.52,0,0,1,8-7.53c4.28-1,8.69,1.37,11.12,4.85A11,11,0,0,1,218.83,12a15.31,15.31,0,0,1-2.05,7.15c-.58,1.18-1.22,2.33-1.73,3.53a3.41,3.41,0,0,0-.07,3.12c1.05,1.76,3.51,2,5.33,2.16,5.81.57,11.65.24,17.47.07,2.21-.06,4.61-.36,6.63.77a7.2,7.2,0,0,1,3.07,3.89c1.7,4.68.47,9.79.18,14.59a27.67,27.67,0,0,0,0,4.27.54.54,0,0,0,.37.48c3.41,1,6.83-.64,10.25-.08A9.78,9.78,0,0,1,265,56.56a8.74,8.74,0,0,1,.59,8A10,10,0,0,1,259.64,70c-3.73,1.22-7.42-.68-11.15-.91a.49.49,0,0,0-.48.36,58.71,58.71,0,0,0-.65,17.4c.41,3.92,1,9.21-2.93,11.59-2.73,1.65-6.28,1.63-9.36,1.46-3.28-.18-6.53-.74-9.8-1.06a13.3,13.3,0,0,0-5,.2,3.52,3.52,0,0,0-2.79,4c.39,2.23,2.47,3.84,2.34,6.21s-2.13,4.39-4.31,5.23a15.77,15.77,0,0,1-7.09.77c-1.91-.19-4.15-.82-5.18-2.61-1.28-2.25,0-5-.13-7.45a7,7,0,0,0-2.34-4.82c-2.9-2.57-7-3-10.64-3.43-5.85-.72-11.67-1.76-17.57-1.93-1.45,0-2.91,0-4.37.06-.64,0-.64,1,0,1,6.06-.34,12.08.54,18.07,1.36,2.45.34,4.94.53,7.37,1a15.4,15.4,0,0,1,5.24,1.81A6.4,6.4,0,0,1,202,104.5c.46,2.51-.81,5-.12,7.52,1.23,4.42,7.14,4.62,10.81,4.15a9.93,9.93,0,0,0,6.33-2.88,6.07,6.07,0,0,0,1.47-6,27.23,27.23,0,0,0-1.56-3,3,3,0,0,1-.17-3.09c1.06-1.55,3.59-1.49,5.24-1.4,3.17.19,6.31.79,9.47,1.06s6.89.43,10-.79a7.84,7.84,0,0,0,3.42-2.45,10.05,10.05,0,0,0,1.73-5.82c.1-2.9-.45-5.78-.61-8.67a56.65,56.65,0,0,1,.26-8.93q.26-2.22.69-4.41l-.49.37c3.64.23,7.15,2,10.83,1a11,11,0,0,0,6.74-5.32,9.64,9.64,0,0,0,.45-8.46,11,11,0,0,0-6.17-6,11.28,11.28,0,0,0-5.41-.48c-2.19.25-4.43.74-6.59.09l.36.48c-.52-5.45,1.21-10.87.42-16.31-.5-3.51-2.25-7-5.93-8a11.56,11.56,0,0,0-3.21-.27c-1.51,0-3,.08-4.51.13-2.94.09-5.88.2-8.82.17-1.5,0-3-.07-4.5-.17a23.78,23.78,0,0,1-4-.46,3.42,3.42,0,0,1-2.41-1.48c-.57-1.2.45-2.7,1-3.75,1.18-2.36,2.5-4.74,2.94-7.37a11.19,11.19,0,0,0-.77-6.1,13.07,13.07,0,0,0-9.4-7.73c-8.09-1.43-15,7.1-13.25,14.82.55,2.39,2.25,4.27,2.9,6.61a4.3,4.3,0,0,1-.29,3.46,4.11,4.11,0,0,1-3.1,1.51,88,88,0,0,1-8.89.55q-4.57.11-9.14-.1c-1.48-.07-3-.17-4.44-.29-.64-.05-.64.95,0,1Z" transform="translate(-0.04 -0.01)"/><path class="cls-3" d="M246.37,29,260,28.79l6.83-.11a34.07,34.07,0,0,0,5.15-.29,7.44,7.44,0,0,0,3.8-1.64A4.1,4.1,0,0,0,277,23c-.56-3.26-3.93-5.32-3.65-8.85s3.42-6.21,6.33-7.67C283,4.84,287.48,4,290.8,6s4.56,5.8,4.53,9.37a22.45,22.45,0,0,1-1.11,6.33c-.51,1.68-1.23,3.5,0,5.05a6.28,6.28,0,0,0,3.75,1.9,46.08,46.08,0,0,0,6.09.65A78.5,78.5,0,0,0,317.52,29c1.05-.12,2.11-.26,3.16-.41.64-.1.37-1.06-.26-1a78.19,78.19,0,0,1-13.41.83q-3.37-.09-6.72-.46a9.73,9.73,0,0,1-4.7-1.3c-1.79-1.29-.81-3.33-.3-5.05a22.85,22.85,0,0,0,1-6.25A12.1,12.1,0,0,0,292.52,6c-2.86-2.44-6.75-2.54-10.22-1.59a14.91,14.91,0,0,0-8.49,5.77,8.06,8.06,0,0,0-1.45,4.36,8.3,8.3,0,0,0,1.53,4.49c.84,1.32,2,2.7,2.19,4.3a3.28,3.28,0,0,1-2,3.33,10.49,10.49,0,0,1-4.35.92c-2.16.09-4.34.08-6.51.12L249.72,28l-3.35.06a.5.5,0,0,0,0,1Z" transform="translate(-0.04 -0.01)"/><path class="cls-3" d="M320.19,28.48l-1.43,27.39.5-.5c-1.59-.13-2.65-1.74-3.82-2.63a6.84,6.84,0,0,0-5-1.17,10.82,10.82,0,0,0-7.73,5A10.57,10.57,0,0,0,308.62,72a10.88,10.88,0,0,0,10.15-2.38c.47-.44-.23-1.15-.71-.71a9.78,9.78,0,0,1-8.39,2.31,9.5,9.5,0,0,1-6.38-13.73,9.85,9.85,0,0,1,7-4.91A6.05,6.05,0,0,1,315.44,54c1.14,1,2.19,2.2,3.82,2.33a.52.52,0,0,0,.5-.5l1.43-27.39c0-.64-1-.64-1,0Z" transform="translate(-0.04 -0.01)"/><path class="cls-3" d="M317.61,69.58a108.8,108.8,0,0,1,.59,14.66c-.07,2.41-.22,4.82-.45,7.21-.2,2.07-.43,4.27-2.31,5.52A11.8,11.8,0,0,1,310,98.48a40.72,40.72,0,0,1-7.07,0c-1.23-.1-2.45-.26-3.67-.48a15.94,15.94,0,0,0-2.92-.42,2.93,2.93,0,0,0-3.11,2.8c0,1.7,1.07,3.3,1.76,4.79a6.08,6.08,0,0,1,0,5.45c-1.82,3.64-6.41,5-10.22,4.74a8,8,0,0,1-4.63-1.67c-1.62-1.38-1.85-3.43-1.6-5.43.38-3.12,1.77-7.51-1.28-9.84-1.65-1.25-4-.88-5.9-.82l-7.46.22-14.79.44-3.73.11c-.64,0-.64,1,0,1L260.5,99l7.58-.22,3.73-.12a14.62,14.62,0,0,1,3.56.07c1.81.42,2.59,2.13,2.75,3.84.18,2-.44,4-.66,6a6.86,6.86,0,0,0,1.36,5.37,7.62,7.62,0,0,0,4.24,2.29,13,13,0,0,0,10.79-2.51,7.92,7.92,0,0,0,2.7-4.85,8.74,8.74,0,0,0-1.27-5.19c-.63-1.28-2-3.62-.29-4.67a4.13,4.13,0,0,1,2.88-.15c1.11.2,2.22.41,3.34.54a39.59,39.59,0,0,0,7.3.24,19.92,19.92,0,0,0,6-1,6,6,0,0,0,3.67-3.63,14.27,14.27,0,0,0,.55-3.12q.18-1.83.3-3.66a106.28,106.28,0,0,0-.08-14.93c-.09-1.22-.2-2.44-.33-3.65-.07-.64-1.07-.64-1,0Z" transform="translate(-0.04 -0.01)"/><path class="cls-3" d="M99.72,25.34c-7.58,0-15.17.17-22.75.12-1.25,0-3.13-.14-3.29-1.75s1-2.86,1.53-4.14a11.81,11.81,0,0,0,.42-7.29A12.14,12.14,0,0,0,65.26,3,13.61,13.61,0,0,0,52.18,9.64a14.72,14.72,0,0,0,2.33,16.83l.36-.86a177.82,177.82,0,0,1-19.59.27q-4.86-.21-9.71-.69c-2.47-.24-5.46-.9-7.07,1.53-1.36,2-1.12,4.89-1.1,7.22,0,3.24.22,6.49.57,9.72.17,1.54.37,3.07.61,4.6.18,1.19.49,2.79-.83,3.44a5.33,5.33,0,0,1-3,.16c-1.08-.16-2.15-.44-3.24-.5A11.38,11.38,0,0,0,.82,58.12,10.53,10.53,0,0,0,4.11,70.29a10.71,10.71,0,0,0,6.16,2.52,35.56,35.56,0,0,0,3.57-.18,4.56,4.56,0,0,1,3.41.81c1.06,1,1.14,2.64,1.16,4A32.58,32.58,0,0,1,18,82.24a24.43,24.43,0,0,0-.26,7.86,8.78,8.78,0,0,0,3.38,5.73c2.27,1.56,5.34,1.64,8,1.89a113.47,113.47,0,0,0,19.42.17c1.59-.12,3.17-.28,4.75-.46a.51.51,0,0,0,.25-.94,9.44,9.44,0,0,1-3.1-12.56c2.52-4.09,8.46-5.67,12.57-3.08a9.59,9.59,0,0,1,4.09,5.87,9,9,0,0,1,.16,3.55c-.23,1.39-1,2.62-1.21,4-.45,2.72,2,3.93,4.27,4.21,1.5.18,3,.14,4.53.17,1.74,0,3.48,0,5.21,0q11.92,0,23.82-.91c.63,0,.64-1,0-1q-11,.84-22.08.91c-3.59,0-7.24.11-10.82-.14a5.41,5.41,0,0,1-3.35-1.1c-1.25-1.19-.34-2.92.14-4.24a10.52,10.52,0,0,0-5-12.63A10.5,10.5,0,0,0,49.83,83C46.62,87.6,48.33,94.47,53,97.36l.25-.93a114.67,114.67,0,0,1-18.8.67,77,77,0,0,1-9.23-.83,8.65,8.65,0,0,1-3.77-1.41,6.78,6.78,0,0,1-2-2.61c-2.36-5.15.45-10.78-.09-16.11a5.41,5.41,0,0,0-1.25-3.28,4.31,4.31,0,0,0-2.8-1.21,20.46,20.46,0,0,0-3.5.13,9.56,9.56,0,0,1-3.45-.31C4,70.2.62,65.76,1,61.18s4.49-8.27,8.9-8.78c2.13-.24,4.13.57,6.25.58a3.88,3.88,0,0,0,2.56-.74,3.35,3.35,0,0,0,1-3.09c-.17-1.51-.45-3-.63-4.52s-.33-3.07-.44-4.61a81.62,81.62,0,0,1-.22-9.12,8,8,0,0,1,.73-3.33,3.21,3.21,0,0,1,3-1.67,43.17,43.17,0,0,1,4.38.39c1.55.14,3.11.26,4.67.37a176.54,176.54,0,0,0,19,.22q2.34-.11,4.68-.27a.5.5,0,0,0,.35-.85,13.75,13.75,0,0,1-2.54-14.9A12.57,12.57,0,0,1,65.26,4a11.25,11.25,0,0,1,9.63,9.67,10.67,10.67,0,0,1,0,3.61,13.66,13.66,0,0,1-1.37,3.58c-.56,1.15-1.14,2.54-.56,3.8a3.36,3.36,0,0,0,2.86,1.74,45.2,45.2,0,0,0,5.46,0l6.08,0,12.41-.07a.5.5,0,0,0,0-1Z" transform="translate(-0.04 -0.01)"/><path class="cls-3" d="M20.34,95l1.25,28.34a.5.5,0,0,0,.75.43c4.19-2.17,9.78-2,13.54,1a9.82,9.82,0,0,1,2.64,11.67,7.89,7.89,0,0,1-4.66,4.29c-2.87,1-6,.55-8.93.51-1.14,0-2.54,0-3,1.29a7.05,7.05,0,0,0,.08,3c.18,1.88.23,3.77.34,5.65.19,3.6.38,7.56,2.17,10.78a7.68,7.68,0,0,0,3.4,3.27,8.34,8.34,0,0,0,2.58.72c1.58.2,3.19.25,4.78.35q10.13.64,20.28.91c.8,0,3,.4,3.1-.92.05-.6-.48-.7-.92-.86a6.45,6.45,0,0,1-1.65-.85,8.49,8.49,0,0,1-3.48-5.89c-.61-5.1,4-9.49,8.85-9.85a7.88,7.88,0,0,1,4.06.69,6.63,6.63,0,0,1,2.88,3.13,10.9,10.9,0,0,1,.59,7.8A10.49,10.49,0,0,1,67.21,164c-.4.5.31,1.21.7.71a12.08,12.08,0,0,0,2.33-9.59,10.4,10.4,0,0,0-2.06-4.62,7,7,0,0,0-4.57-2.53c-6.39-.95-13,4.68-11.92,11.32A9.09,9.09,0,0,0,58,166.55l-.3-.23c-.13-.23.21-.11-.19-.1l-.3,0c-.29,0-.58,0-.87,0l-1.85,0-3.59-.12q-3.53-.12-7-.29t-7.05-.38l-3.58-.23a29.29,29.29,0,0,1-3-.25c-5.46-1-6.38-7-6.74-11.65-.21-2.65-.23-5.33-.5-8a9.67,9.67,0,0,1-.18-2.14c.16-1.15,1.61-.94,2.46-.92a47.9,47.9,0,0,0,6.34,0,9.35,9.35,0,0,0,7.65-5,11.28,11.28,0,0,0,.62-8.44c-2.1-6.37-9.79-8.68-15.76-6.8a14.52,14.52,0,0,0-2.27,1l.75.43L21.34,95a.5.5,0,0,0-1,0Z" transform="translate(-0.04 -0.01)"/><path class="cls-3" d="M66.23,165.21a149.67,149.67,0,0,0,26.69.39,26,26,0,0,0,6-.75,6.09,6.09,0,0,0,3.54-2.93,13.45,13.45,0,0,0,1.36-4.55c.32-2.12.52-4.25.66-6.38a93.89,93.89,0,0,0-.16-15l-.75.43a7.84,7.84,0,0,0,11.25-2.95,8.8,8.8,0,0,0-4.21-11.64,10.12,10.12,0,0,0-7.77-.3l.64.48.33-23.53a.5.5,0,0,0-1,0L102.45,122a.5.5,0,0,0,.63.49c3.91-1.49,8.82-.12,10.74,3.78,1.82,3.7.45,8.55-3.6,10a6.7,6.7,0,0,1-6.17-.72.5.5,0,0,0-.76.43,95.66,95.66,0,0,1,.29,12.78q-.15,3.19-.51,6.38a23,23,0,0,1-.93,4.94,5.77,5.77,0,0,1-2.87,3.55c-1.76.82-4,.78-5.86.93q-6.37.5-12.79.44c-4.81,0-9.61-.31-14.39-.8-.64-.07-.63.93,0,1Z" transform="translate(-0.04 -0.01)"/><path class="cls-3" d="M170.8,96.65,169.37,128l.85-.36c-4-3.32-10.37-5-14.76-1.35a8.6,8.6,0,0,0-3.12,6,6.85,6.85,0,0,0,2.81,5.8,12.8,12.8,0,0,0,6.33,2.25,25.67,25.67,0,0,0,3.72.16c1.13,0,2.59-.15,3.5.66a2.66,2.66,0,0,1,.72,1.86c.08.85.09,1.72.12,2.57.05,1.74,0,3.48,0,5.22s-.21,3.48-.4,5.21c-.09.81-.19,1.63-.32,2.44a4.59,4.59,0,0,1-.8,2.21c-1,1.26-3.15,1.33-4.64,1.56q-3,.43-6,.68a92.42,92.42,0,0,1-11.77.17.5.5,0,0,0-.43.75c1.81,2.55,3.38,5.85,2.84,9.07s-3.44,5.33-6.49,6.09c-5.23,1.29-11.79-1.44-12.12-7.41a7.17,7.17,0,0,1,3.56-6.91c.48-.25.2-.89-.25-.94-8.54-.82-17.14-1.93-25.74-1.31a58.78,58.78,0,0,0-7.12.94c-.64.13-.37,1.09.26,1,8.38-1.65,17-1.12,25.4-.31l7.2.71-.25-.93a8,8,0,0,0-4.06,6.7,8.73,8.73,0,0,0,3.34,7.51,11.76,11.76,0,0,0,8.92,2.16c3.27-.48,6.62-2.36,7.9-5.54,1.53-3.82-.3-8.17-2.53-11.31l-.43.76a90.93,90.93,0,0,0,10.31-.07,68.6,68.6,0,0,0,9.9-1.19,4.72,4.72,0,0,0,3.19-1.87,10,10,0,0,0,1-4.21,75.25,75.25,0,0,0,.55-10.18,19.57,19.57,0,0,0-.31-4.65,3.09,3.09,0,0,0-2.35-2.23,14.91,14.91,0,0,0-3.53-.17,21.74,21.74,0,0,1-3.6-.27,9.94,9.94,0,0,1-6-2.88,6,6,0,0,1-.79-6.5,8,8,0,0,1,6.61-4.62,12.7,12.7,0,0,1,8.94,3.1.51.51,0,0,0,.86-.35l1.43-31.33c0-.64-1-.64-1,0Z" transform="translate(-0.04 -0.01)"/><path class="cls-3" d="M167.51,162.72l26.89,1.44,7.72.42-.36-.85c-4.85,4.59-3.61,13.47,2.28,16.58a11.8,11.8,0,0,0,9.71.44,11.12,11.12,0,0,0,6.59-7.23,12.94,12.94,0,0,0-1.93-11.32L218,163l15.07.23,7.59.12c1.86,0,4.08.27,5.33-1.41,1.05-1.41.95-3.34.86-5l-.41-7.49-.42-7.61-.21-3.75a18.31,18.31,0,0,0-.26-3.39c-.45-1.86-2.26-2-3.85-1.77a9.9,9.9,0,0,1-2.71.22,5.76,5.76,0,0,1-2.47-.93,5.86,5.86,0,0,1-2.64-4.38,4.92,4.92,0,0,1,.48-3.14c1-1.62,3.23-2,4.94-2.24,1.95-.32,4.1-.47,5.84-1.5a4.17,4.17,0,0,0,1.83-2.08c.54-1.47.08-3.23-.3-4.68-.21-.81-.46-1.6-.67-2.41a16.77,16.77,0,0,1-.4-2.83,61.65,61.65,0,0,1,.06-7.32c.07-1.22.14-2.44.19-3.66,0-.65-1-.65-1,0-.11,2.44-.29,4.88-.33,7.32a26.84,26.84,0,0,0,.42,6.33c.36,1.59,1,3.14,1.18,4.77a3.42,3.42,0,0,1-.88,3.26c-1.38,1.25-3.57,1.42-5.32,1.69s-4,.56-5.51,1.8c-1.78,1.46-1.85,4.06-1.28,6.12a6.87,6.87,0,0,0,7.8,4.79,7.26,7.26,0,0,1,2.58-.19c1.13.25,1.15,1.4,1.2,2.35l.41,7.49.41,7.36c.13,2.33.34,4.67.37,7,0,1.75-.27,3.8-2.3,4.2a16.46,16.46,0,0,1-3.44.06l-3.73-.06L221.72,162,218,162a.5.5,0,0,0-.43.75c3.84,5.12,2.91,13.37-3,16.56a11,11,0,0,1-8.86.71,9,9,0,0,1-5.66-6.4,9.49,9.49,0,0,1,2.41-9.14.5.5,0,0,0-.35-.85l-26.89-1.45-7.72-.41c-.64,0-.64,1,0,1Z" transform="translate(-0.04 -0.01)"/><path class="cls-3" d="M244.93,163.16q14.67.47,29.33-.4,4.14-.25,8.27-.61c.38,0,.73-.56.35-.85a6.81,6.81,0,0,1,.48-10.71,7.77,7.77,0,0,1,6.41-.81,7.4,7.4,0,0,1,4.74,4.46,8.91,8.91,0,0,1-.45,7.45.51.51,0,0,0,.44.75c3.39.39,6.8.62,10.21.67,1.69,0,3.38,0,5.06-.05s3.3-.09,4.92-.31a3,3,0,0,0,2.68-1.87,6.46,6.46,0,0,0,.28-1.75c.06-.91.11-1.82.17-2.73l.61-10.15.7-11.65-.85.36c4,3.92,11.17,3.9,14.84-.44s3.22-11.23-1.31-14.67c-2.18-1.65-5.53-2.72-8.23-1.91a35.68,35.68,0,0,0-3.58,1.58c-.89.37-2.07.76-2.81-.08-.95-1.07-1-2.89-1.11-4.24a41.86,41.86,0,0,1,.27-6.62c.43-4.25,1.3-8.41,1.89-12.62.09-.63-.87-.91-1-.27-.5,3.49-1.2,6.94-1.65,10.44a64.31,64.31,0,0,0-.57,6.79,17.83,17.83,0,0,0,.46,5.35c.44,1.52,1.42,2.86,3.19,2.65a10.89,10.89,0,0,0,3.41-1.3,7.45,7.45,0,0,1,3.72-.9,9.23,9.23,0,0,1,7.54,4.37,9.64,9.64,0,0,1,.68,7.74,8.66,8.66,0,0,1-6.44,5.8,9.54,9.54,0,0,1-8.64-2.38.5.5,0,0,0-.85.35L317,153.93l-.29,4.83a5.17,5.17,0,0,1-.33,2,2,2,0,0,1-1.61,1,35.19,35.19,0,0,1-4.6.31c-1.6.06-3.2.08-4.81.07a105.82,105.82,0,0,1-10.83-.68l.43.75c2.49-4.57.93-11-4.09-13.08a8.9,8.9,0,0,0-7.32.24,7.36,7.36,0,0,0-3.92,5.51,7.64,7.64,0,0,0,2.58,7.14l.35-.85c-9.74.84-19.53,1.23-29.31,1.17-2.76,0-5.53-.07-8.29-.16-.64,0-.64,1,0,1Z" transform="translate(-0.04 -0.01)"/><path class="cls-3" d="M200.74,120.68a11.81,11.81,0,0,0-1.22,5.95,1.34,1.34,0,0,0,1.73,1.28,3.46,3.46,0,0,0,1.92-1.55,6.57,6.57,0,0,0,.94-2.42,5.69,5.69,0,0,0,0-2.43,2.1,2.1,0,0,0-1.52-1.61,2,2,0,0,0-2,.8,1.77,1.77,0,0,0,.25,2.36,2.09,2.09,0,0,0,1.18.55,1.9,1.9,0,0,0,.67,0l.29-.11.13,0,.09,0c.08,0,.06,0-.08,0l-.13-.49-.64,1.66a2.59,2.59,0,0,1-.17.38l-.15.19s.12,0,.11,0,0,0,0-.08c-.11-.62.06-1.39-.74-1.65l-.13,1a2,2,0,0,1,.85.3l.38-.91a1.38,1.38,0,0,0-1.65,1,.65.65,0,0,0,.55.84.59.59,0,0,0,.57-.75.5.5,0,0,0-.35-.35c-.42-.14-.78.29-.92.64a1.28,1.28,0,0,0,.1,1.14.51.51,0,0,0,.68.18.93.93,0,0,0,0-1.55c-.69-.42-1.27.64-1,1.21a.52.52,0,0,0,.74.3A1.66,1.66,0,0,0,202.3,125c0-.53-.45-1.12-1-1a.53.53,0,0,0-.48.37,2.09,2.09,0,0,0,.39,2,.51.51,0,0,0,.71,0,1.52,1.52,0,0,0,.23-1.93.51.51,0,0,0-.69-.18A1.26,1.26,0,0,0,201,126a.52.52,0,0,0,.57.23,1.06,1.06,0,0,0,.49-1.76.52.52,0,0,0-.61-.08,1.86,1.86,0,0,0-.74,1.85.5.5,0,0,0,.83.22c.56-.63,1-1.54.31-2.25a1,1,0,0,0-1.11-.16,1.19,1.19,0,0,0-.56,1c-.08.68.3,1.78,1.2,1.45s.91-1.62.75-2.34a.51.51,0,0,0-.92-.12,1.22,1.22,0,0,0,.14,1.56c.45.46,1.15-.25.7-.71-.11-.12-.06-.23,0-.34l-.92-.12a1.57,1.57,0,0,1-.08,1s-.09.14-.08.15.22,0,.22,0-.06-.26-.06-.35a.83.83,0,0,1,.07-.27s-.08,0-.07,0,.06,0,.06.09c.05.28-.22.53-.38.72l.83.23a.8.8,0,0,1,.29-.72l-.61-.08s.06,0,0,.06.14,0-.06,0l.56.23a.27.27,0,0,1,.13-.42l-.69-.18a.52.52,0,0,1-.07.72h.71a1.07,1.07,0,0,1-.14-1l-.48.37c.13,0,0,0,0,0s0,0,0,.13-.37.32-.54.41l.74.3c0-.1-.07-.06,0-.11H201c-.09-.06-.09-.1,0-.16l.68.18a.27.27,0,0,1,.05-.37l-.39.05h0l-.35-.34v-.23l.07-.14.36-.15h0l.35.15.07.24,0-.06s.07-.08.1-.11a.38.38,0,0,1,.29-.06.5.5,0,0,0,.38-.91,3.08,3.08,0,0,0-1.35-.44c-.58,0-.65.82-.13,1a.12.12,0,0,1-.07-.07.71.71,0,0,1,0,.2c0,.19,0,.37,0,.56a1,1,0,0,0,.75,1c.61.13,1.07-.4,1.29-.9.29-.67.53-1.36.8-2a.5.5,0,0,0-.13-.49.92.92,0,0,0-.94-.2c-.27.07-.5.24-.79.2a.88.88,0,1,1,1-.93,3.81,3.81,0,0,1,0,1.68,6.39,6.39,0,0,1-.55,1.87,3.67,3.67,0,0,1-1.18,1.49,1,1,0,0,1-.73.23c-.24-.06-.23-.32-.23-.53a11.15,11.15,0,0,1,1.09-5.24c.28-.58-.58-1.09-.86-.51Z" transform="translate(-0.04 -0.01)"/><path class="cls-3" d="M200.29,123.3a.94.94,0,0,0,.08.64.5.5,0,0,0,.79.1l.15-.15.07-.06h0l-.25.07h0l-.25-.07s0,0,0,0l.14.1a1.15,1.15,0,0,0,.25.12,1.2,1.2,0,0,0,.42.07,2.28,2.28,0,0,0,.45,0l.12,0h.15c.11,0,.08,0-.07,0l-.18-.18s0-.13,0-.18,0,0,0,0,0,0,0,0,.05,0,0,0l-.06.06-.09.08-.23.18a3.78,3.78,0,0,0-.65.73,8,8,0,0,0-.47.75,6.73,6.73,0,0,0-.48,1,.51.51,0,0,0,.49.63,1.94,1.94,0,0,0,1.83-1.3.51.51,0,0,0-.35-.62.53.53,0,0,0-.62.35s0,0,0,0a.59.59,0,0,1,0,.08.41.41,0,0,1-.05.09l0,0,0,0-.07.06-.06.06c-.06,0,.09-.06,0,0l-.15.09s-.06,0,0,0a.13.13,0,0,1-.08,0l-.09,0-.07,0h-.15l.48.63a5.13,5.13,0,0,1,.38-.73,5.52,5.52,0,0,1,.4-.66,2.77,2.77,0,0,1,.46-.53s.16-.13.09-.08l.17-.13a1.48,1.48,0,0,0,.26-.24.85.85,0,0,0,.14-1c-.25-.37-.71-.28-1.08-.22h-.26l-.1,0s0,0,0,0l0,0-.08-.07a.63.63,0,0,0-.65,0,2,2,0,0,0-.4.37l.78.1a.11.11,0,0,1,0,.12.5.5,0,0,0-.35-.61.49.49,0,0,0-.61.35Z" transform="translate(-0.04 -0.01)"/><path class="cls-3" d="M214.74,120.68a11.81,11.81,0,0,0-1.22,5.95,1.34,1.34,0,0,0,1.73,1.28,3.46,3.46,0,0,0,1.92-1.55,6.57,6.57,0,0,0,.94-2.42,5.69,5.69,0,0,0,0-2.43,2.1,2.1,0,0,0-1.52-1.61,2,2,0,0,0-2,.8,1.77,1.77,0,0,0,.25,2.36,2.09,2.09,0,0,0,1.18.55,1.9,1.9,0,0,0,.67,0l.29-.11.13,0,.09,0c.08,0,.06,0-.08,0l-.13-.49-.64,1.66a2.59,2.59,0,0,1-.17.38l-.15.19s.12,0,.11,0,0,0,0-.08c-.11-.62.06-1.39-.74-1.65l-.13,1a2,2,0,0,1,.85.3l.38-.91a1.38,1.38,0,0,0-1.65,1,.65.65,0,0,0,.55.84.59.59,0,0,0,.57-.75.5.5,0,0,0-.35-.35c-.42-.14-.78.29-.92.64a1.28,1.28,0,0,0,.1,1.14.51.51,0,0,0,.68.18.93.93,0,0,0,0-1.55c-.69-.42-1.27.64-1,1.21a.52.52,0,0,0,.74.3A1.66,1.66,0,0,0,216.3,125c0-.53-.45-1.12-1-1a.53.53,0,0,0-.48.37,2.09,2.09,0,0,0,.39,2,.51.51,0,0,0,.71,0,1.52,1.52,0,0,0,.23-1.93.51.51,0,0,0-.69-.18A1.26,1.26,0,0,0,215,126a.52.52,0,0,0,.57.23,1.06,1.06,0,0,0,.49-1.76.52.52,0,0,0-.61-.08,1.86,1.86,0,0,0-.74,1.85.5.5,0,0,0,.83.22c.56-.63,1-1.54.31-2.25a1,1,0,0,0-1.11-.16,1.19,1.19,0,0,0-.56,1c-.08.68.3,1.78,1.2,1.45s.91-1.62.75-2.34a.51.51,0,0,0-.92-.12,1.22,1.22,0,0,0,.14,1.56c.45.46,1.15-.25.7-.71-.11-.12-.06-.23,0-.34l-.92-.12a1.57,1.57,0,0,1-.08,1s-.09.14-.08.15.22,0,.22,0-.06-.26-.06-.35a.83.83,0,0,1,.07-.27s-.08,0-.07,0,.06,0,.06.09c.05.28-.22.53-.38.72l.83.23a.8.8,0,0,1,.29-.72l-.61-.08s.06,0,0,.06.14,0-.06,0l.56.23a.27.27,0,0,1,.13-.42l-.69-.18a.52.52,0,0,1-.07.72h.71a1.07,1.07,0,0,1-.14-1l-.48.37c.13,0,0,0,0,0s0,0,0,.13-.37.32-.54.41l.74.3c0-.1-.07-.06,0-.11H215c-.09-.06-.09-.1,0-.16l.68.18a.27.27,0,0,1,.05-.37l-.39.05h0l-.35-.34v-.23l.07-.14.36-.15h0l.35.15.07.24,0-.06s.07-.08.1-.11a.38.38,0,0,1,.29-.06.5.5,0,0,0,.38-.91,3.08,3.08,0,0,0-1.35-.44c-.58,0-.65.82-.13,1a.12.12,0,0,1-.07-.07.71.71,0,0,1,0,.2c0,.19,0,.37,0,.56a1,1,0,0,0,.75,1c.61.13,1.07-.4,1.29-.9.29-.67.53-1.36.8-2a.5.5,0,0,0-.13-.49.92.92,0,0,0-.94-.2c-.27.07-.5.24-.79.2a.88.88,0,1,1,1-.93,3.81,3.81,0,0,1,0,1.68,6.39,6.39,0,0,1-.55,1.87,3.67,3.67,0,0,1-1.18,1.49,1,1,0,0,1-.73.23c-.24-.06-.23-.32-.23-.53a11.15,11.15,0,0,1,1.09-5.24c.28-.58-.58-1.09-.86-.51Z" transform="translate(-0.04 -0.01)"/><path class="cls-3" d="M214.29,123.3a.94.94,0,0,0,.08.64.5.5,0,0,0,.79.1l.15-.15.07-.06h0l-.25.07h0l-.25-.07s0,0,0,0l.14.1a1.15,1.15,0,0,0,.25.12,1.2,1.2,0,0,0,.42.07,2.28,2.28,0,0,0,.45,0l.12,0h.15c.11,0,.08,0-.07,0l-.18-.18s0-.13,0-.18,0,0,0,0,0,0,0,0,.05,0,0,0l-.06.06-.09.08-.23.18a3.78,3.78,0,0,0-.65.73,8,8,0,0,0-.47.75,6.73,6.73,0,0,0-.48,1,.51.51,0,0,0,.49.63,1.94,1.94,0,0,0,1.83-1.3.51.51,0,0,0-.35-.62.53.53,0,0,0-.62.35s0,0,0,0a.59.59,0,0,1,0,.08.41.41,0,0,1-.05.09l0,0,0,0-.07.06-.06.06c-.06,0,.09-.06,0,0l-.15.09s-.06,0,0,0a.13.13,0,0,1-.08,0l-.09,0-.07,0h-.15l.48.63a5.13,5.13,0,0,1,.38-.73,5.52,5.52,0,0,1,.4-.66,2.77,2.77,0,0,1,.46-.53s.16-.13.09-.08l.17-.13a1.48,1.48,0,0,0,.26-.24.85.85,0,0,0,.14-1c-.25-.37-.71-.28-1.08-.22h-.26l-.1,0s0,0,0,0l0,0-.08-.07a.63.63,0,0,0-.65,0,2,2,0,0,0-.4.37l.78.1a.11.11,0,0,1,0,.12.5.5,0,0,0-.35-.61.49.49,0,0,0-.61.35Z" transform="translate(-0.04 -0.01)"/><path class="cls-3" d="M198.22,135.4c.64,1.46,2.18,2.3,3.52,3a19.7,19.7,0,0,0,5,1.83,14.59,14.59,0,0,0,9.79-1.2,11.89,11.89,0,0,0,4.06-3.46c.39-.51-.48-1-.86-.5a12.1,12.1,0,0,1-9.95,4.52,16.74,16.74,0,0,1-6-1.34,19.68,19.68,0,0,1-2.74-1.41,4.48,4.48,0,0,1-1.94-2c-.26-.58-1.12-.08-.87.51Z" transform="translate(-0.04 -0.01)"/><path class="cls-3" d="M253.75,199.4a13.25,13.25,0,0,1-13.94-7.18,12.83,12.83,0,0,1-.95-2.48c-.18-.64-.51-1.63-.14-2.26.58-1,1.75.64,2.05,1.12a5.52,5.52,0,0,1,.82,2.55,4.6,4.6,0,0,1-2.28,4.32,4.25,4.25,0,0,1-4.81-.56,9.62,9.62,0,0,1-2.9-5.07,52.71,52.71,0,0,1-2-14.56.51.51,0,0,0-.75-.43,5.17,5.17,0,0,0-2.59,3c-.21.61.76.87,1,.26a4.24,4.24,0,0,1,2.13-2.44l-.75-.43a50.9,50.9,0,0,0,2.23,15.56,9.4,9.4,0,0,0,3.62,5.28,5.11,5.11,0,0,0,5.57.07,5.59,5.59,0,0,0,2.55-4.95,6.64,6.64,0,0,0-.82-2.89,4.19,4.19,0,0,0-2.07-2.08,1.55,1.55,0,0,0-2,.95,4.36,4.36,0,0,0,.09,2.6,14.62,14.62,0,0,0,2.8,5.51,14.42,14.42,0,0,0,13.38,5c.63-.1.36-1.06-.27-1Z" transform="translate(-0.04 -0.01)"/><path class="cls-3" d="M229.11,175.24l2.14,1.12a.5.5,0,0,0,.5-.87l-2.14-1.11a.5.5,0,1,0-.5.86Z" transform="translate(-0.04 -0.01)"/><path class="cls-3" d="M259,203.15c-.11-3.69-.06-7.37.13-11.05l-.85.36,3.6,3.66c.78.79,1.92,2.5,3.2,1.68a6.09,6.09,0,0,0,1.32-1.36,16.79,16.79,0,0,0,1.2-1.7,15.11,15.11,0,0,0,1.67-3.87l-.61.35c.79.31.68,2.11.72,2.75.07,1.12.1,2.24.08,3.36a40.42,40.42,0,0,1-.76,7c-.12.63.84.9,1,.26a40.67,40.67,0,0,0,.8-8.24,33.23,33.23,0,0,0-.22-4,2.33,2.33,0,0,0-1.32-2.13.5.5,0,0,0-.61.35,14.27,14.27,0,0,1-3.43,6.05c-.27.28-.47.44-.85.21a3.8,3.8,0,0,1-.67-.66l-1.46-1.48-2.92-3a.5.5,0,0,0-.85.35c-.19,3.68-.24,7.36-.13,11.05,0,.64,1,.64,1,0Z" transform="translate(-0.04 -0.01)"/><path class="cls-3" d="M273.56,198a6,6,0,0,0,5.21.2,4.18,4.18,0,0,0,2.13-1.75,1.43,1.43,0,0,0-1.08-2c-1.94-.53-3.82.93-4.81,2.48a5.77,5.77,0,0,0-.52,5.51,4.37,4.37,0,0,0,4.81,2.39c.63-.15.36-1.11-.26-1a3.3,3.3,0,0,1-3.31-1.32,4.21,4.21,0,0,1-.42-4,5,5,0,0,1,3-3.13c.38-.1,2-.23,1.69.54-.21.61-1,1.06-1.57,1.31a5,5,0,0,1-4.4-.11c-.57-.31-1.07.56-.5.86Z" transform="translate(-0.04 -0.01)"/><path class="cls-3" d="M286.13,200a52.79,52.79,0,0,1,2.77-9.69c.24-.6-.73-.86-1-.26a52.56,52.56,0,0,0-2.77,9.69c-.12.63.85.9,1,.26Z" transform="translate(-0.04 -0.01)"/><path class="cls-3" d="M284.91,204.15a2.08,2.08,0,0,0-2,2.43,1.83,1.83,0,0,0,.54.94,2.19,2.19,0,0,0,2,.48,1.86,1.86,0,0,0,1.3-1.68,2,2,0,0,0-1.07-2,.5.5,0,0,0-.5.86l.16.09.07,0,0,0,0,0,.13.13s0-.05,0-.05a.08.08,0,0,0,0,0l.06.09a1.09,1.09,0,0,1,.08.15c0,.08,0-.09,0,0l0,.1c0,.05,0,.11.05.17s0,.13,0,0,0,0,0,.05v.18a.28.28,0,0,0,0,.09c0,.09,0-.11,0,0s0,.11-.05.17l0,.08s0-.05,0-.05,0,0,0,.05l-.09.16c-.05.07.06-.07,0,0l-.07.08-.06.06,0,0,0,0-.16.1h0c-.05,0,.05,0,.05,0l-.09,0-.18,0h-.32c-.07,0,.11,0,0,0l-.09,0-.19-.05-.08,0,.05,0,0,0-.17-.09-.08-.06s.05,0,.05,0l0,0a.86.86,0,0,1-.13-.14l0,0s0,0,0,0,0,0,0-.07l-.05-.08s-.06-.12,0-.05,0,0,0,0,0-.06,0-.1,0-.13,0,0,0,0,0-.07,0-.18,0-.19,0,.1,0,.05a.07.07,0,0,1,0-.05.36.36,0,0,1,0-.11s0-.08,0-.11,0-.07,0,0,0,0,0,0a1.28,1.28,0,0,1,.11-.2l0-.05a.34.34,0,1,1,0,0s.06-.07.08-.09l.16-.16c.05,0,0,0,0,0l.05,0,.1-.06.1-.05s0,0,0,0,0,0,0,0l.22-.06h.15a.5.5,0,0,0,.5-.5.51.51,0,0,0-.5-.5Z" transform="translate(-0.04 -0.01)"/></g></g></svg>