<svg xmlns="http://www.w3.org/2000/svg" viewBox="0 0 160.86 262.11"><defs><style>.cls-1{fill:#333;}.cls-2{fill:#444545;}.cls-3{opacity:0.35;}.cls-4{fill:#343791;}</style></defs><title>고양이생각_1</title><g id="Layer_2" data-name="Layer 2"><g id="Layer_4" data-name="Layer 4"><path class="cls-1" d="M6.85,257.54c4.46,6.42,14.84,5.72,19.79.28,3-3.31,4.12-9.31.89-12.87-2.41-2.66-6.42-3.26-9.83-3a16.67,16.67,0,0,0-10.3,4.35A8.33,8.33,0,0,0,5,250.66a8.61,8.61,0,0,0,1,5.42,13.46,13.46,0,0,0,.88,1.46c.36.53,1.23,0,.86-.51a9.08,9.08,0,0,1-1.82-5,6.69,6.69,0,0,1,1.47-4.09c2.05-2.66,5.48-4.09,8.69-4.69s6.84-.46,9.57,1.4c3.13,2.12,3.4,6.28,2.14,9.57-2.57,6.75-12.72,9.15-18.27,4.74A9.12,9.12,0,0,1,7.71,257C7.35,256.51,6.48,257,6.85,257.54Z" transform="translate(0 -0.02)"/><path class="cls-1" d="M36.61,227c4.83,2.67,10.82,5.38,16.43,3.76,5.17-1.48,8-6.46,8.74-11.49.81-5.38.21-12.89-5.17-15.81-4.2-2.28-9.45-1-13.51,1-4.34,2.1-8.57,5.52-10.74,9.9a9.92,9.92,0,0,0-1.09,6.11,8.87,8.87,0,0,0,3.61,5.45A16.49,16.49,0,0,0,36.61,227a.5.5,0,0,0,.51-.87,9.54,9.54,0,0,1-4.53-4.66A7.75,7.75,0,0,1,32.7,216c1.51-4.22,5.3-7.56,9.06-9.77s8.45-3.85,12.72-2.61c5,1.47,6.49,6.89,6.56,11.58.06,4.54-1,9.58-4.66,12.64-4.44,3.78-10.69,2.31-15.5.15-1.28-.57-2.53-1.22-3.76-1.9C36.56,225.77,36.05,226.64,36.61,227Z" transform="translate(0 -0.02)"/><path class="cls-1" d="M23.79,141.16c-2.71-8.95-3.28-18.33-5-27.48a69.13,69.13,0,0,0-3.6-13C13.7,96.76,11.86,93,10,89.29,6.24,81.75,2.29,74,1.26,65.55A41.92,41.92,0,0,1,6.14,41.34c8-15.43,23.27-25.1,38.82-31.79,8.61-3.71,17.62-6.94,27-8.1A54.28,54.28,0,0,1,96.35,4c15,5.14,27.46,16.06,37.72,27.88a168.75,168.75,0,0,1,15.21,20.29,65.62,65.62,0,0,1,9.77,24.8c2.8,17.64-1.82,35.74-8.62,51.95-3.25,7.76-7,15.54-12.09,22.26a44.94,44.94,0,0,1-9,9A52,52,0,0,1,118,166.28c-8.06,3.23-16.6,5-24.88,7.55-8.72,2.7-17.69,5.82-26.95,5.43-8.72-.36-16.54-4.58-23.2-10a59.43,59.43,0,0,1-14.76-17.65,56.67,56.67,0,0,1-4.42-10.47c-.19-.61-1.16-.35-1,.27a59.88,59.88,0,0,0,29.37,35.08,33.13,33.13,0,0,0,13,3.7A47.9,47.9,0,0,0,78.73,179c4.64-1,9.18-2.46,13.72-3.87s8.82-2.57,13.26-3.78c8.39-2.3,16.9-5.05,24-10.22,6.85-5,11.83-12,15.79-19.4a146.28,146.28,0,0,0,10.33-24.53,101.09,101.09,0,0,0,5-26.79,65.26,65.26,0,0,0-4.1-26c-3.31-8.52-8.55-16.12-14-23.38C133,28.1,121.63,15.82,107.44,7.87A60.57,60.57,0,0,0,85.59.42c-9.18-1.17-18.42.31-27.2,3A135,135,0,0,0,33.17,14.17,76,76,0,0,0,12.77,30,51.19,51.19,0,0,0,1.08,52,39.68,39.68,0,0,0,.14,64.4a46.09,46.09,0,0,0,3,12.35c3.09,8.12,7.67,15.56,10.9,23.62,3.53,8.78,4.52,18.12,5.91,27.41a96.25,96.25,0,0,0,2.87,13.65C23,142,24,141.78,23.79,141.16Z" transform="translate(0 -0.02)"/><path class="cls-1" d="M51,36.13A66.8,66.8,0,0,0,40.85,56.68q-.93,3.18-1.55,6.44a.51.51,0,0,0,.74.56q11.2-5.34,22.13-11.24,2.71-1.47,5.42-3l2.74-1.54c.65-.37,1.35-.77,1.55-1.54.36-1.41-1.21-2.35-2.3-2.77-1.85-.72-3.68-1.46-5.48-2.3-4-1.85-7.92-3.9-12.07-5.42-.61-.22-.87.75-.27,1,3.49,1.27,6.82,2.94,10.17,4.53,1.63.78,3.27,1.54,4.94,2.23.78.33,1.58.62,2.36.92.57.22,1.65.69,1.7,1.42s-1.25,1.18-1.73,1.45L66.45,49l-4.89,2.68Q56.44,54.4,51.27,57q-5.84,3-11.74,5.78l.74.57a66,66,0,0,1,8-21.32q1.66-2.8,3.59-5.43c.38-.52-.48-1-.86-.51Z" transform="translate(0 -0.02)"/><path class="cls-1" d="M57,56.05A143.3,143.3,0,0,0,72,79,144.33,144.33,0,0,0,91.24,98.83a144.55,144.55,0,0,0,12.3,9.33c.54.37,1-.5.51-.86A141.85,141.85,0,0,1,83,89.81a142.49,142.49,0,0,1-17.25-21,141.46,141.46,0,0,1-7.89-13.25c-.3-.57-1.17-.06-.87.51Z" transform="translate(0 -0.02)"/><path class="cls-1" d="M46.35,74.31a118.65,118.65,0,0,0,25-10.58c2.23-1.26,4.41-2.6,6.55-4,.54-.35,0-1.22-.5-.87A117.64,117.64,0,0,1,53.38,71c-2.41.88-4.84,1.67-7.29,2.39a.5.5,0,0,0,.26,1Z" transform="translate(0 -0.02)"/><path class="cls-1" d="M61.43,86.09A126.39,126.39,0,0,0,86.34,72.76c.52-.37,0-1.23-.51-.87A124.65,124.65,0,0,1,61.16,85.13c-.59.23-.33,1.2.27,1Z" transform="translate(0 -0.02)"/><path class="cls-1" d="M76.73,98.91a106.53,106.53,0,0,0,23.11-16.6c1.94-1.83,3.82-3.74,5.62-5.72.43-.48-.28-1.19-.71-.71A105.67,105.67,0,0,1,83.16,94q-3.39,2.15-6.94,4c-.57.3-.06,1.17.51.87Z" transform="translate(0 -0.02)"/><path class="cls-1" d="M102.32,107.28l0,21.61a.51.51,0,0,0,.86.35,235.59,235.59,0,0,0,15.88-20.4.5.5,0,0,0-.3-.73L103,105.84c-.63-.09-.9.87-.26,1l15.81,2.27-.3-.73a234,234,0,0,1-15.73,20.19l.85.36,0-21.61a.5.5,0,0,0-1,0Z" transform="translate(0 -0.02)"/><path class="cls-2" d="M56.21,42.05a43.41,43.41,0,0,1-2.14,6.18.53.53,0,0,0,.18.69.51.51,0,0,0,.69-.18,44.45,44.45,0,0,0,2.23-6.43.5.5,0,0,0-1-.26Z" transform="translate(0 -0.02)"/><path class="cls-2" d="M52.54,44a9.1,9.1,0,0,0,3,2.31c1.18.55,2.49.79,3.62,1.45a.5.5,0,0,0,.5-.87c-1.1-.64-2.36-.87-3.51-1.4a8.3,8.3,0,0,1-2.89-2.2c-.41-.49-1.12.22-.7.71Z" transform="translate(0 -0.02)"/></g><g id="Layer_5" data-name="Layer 5"><g class="cls-3"><path class="cls-4" d="M49.29,38.61Q43.65,48.18,38.47,58C36.56,61.65,41,64.76,44,62.25c7.21-6,17.19-9.07,25.64-12.87,2.76-1.24,1.94-5.76-.84-6.39a63.11,63.11,0,0,1-9-2.35c-1.74-.68-3.58-2.15-5.57-2-3.67.28-5.84,5.66-6.29,8.74a3.64,3.64,0,0,0,1.6,3.95c2,1.11,3.75,1,6,.55,4.41-.94,2.54-7.69-1.86-6.75l-.56.16,1.61,4c.17-1.16,1.08-3.9,2-4.62l-2.48,1c-1.54-.09,1.21.75,1.69,1A29.84,29.84,0,0,0,59,47.8c2.58.82,5.28,1.33,7.92,1.94l-.84-6.4c-9.14,4.1-19.26,7.5-27,14l5.5,4.24q5.17-9.82,10.82-19.4c2.29-3.89-3.76-7.42-6.05-3.53Z" transform="translate(0 -0.02)"/></g><g class="cls-3"><path class="cls-4" d="M103.06,110.79a88.67,88.67,0,0,1-2.49,13.62c-1,3.8,4.39,6.19,6.39,2.7s4.9-6.15,7.73-8.94c2.47-2.43,5.77-4.94,5.13-8.72a3.44,3.44,0,0,0-2.45-2.44c-3.8-1-7.85.61-11.74-.41-4.37-1.15-6.23,5.6-1.87,6.75a22.09,22.09,0,0,0,5.89.7c1.74,0,4.19-.75,5.86-.29l-2.44-2.45.08.48.35-2.69c-1.48,2.64-4.47,4.76-6.58,6.89a36.56,36.56,0,0,0-6,7.58l6.4,2.7a100.37,100.37,0,0,0,2.74-15.48c.45-4.48-6.55-4.45-7,0Z" transform="translate(0 -0.02)"/></g></g></g></svg>