<svg width="153" height="163" viewBox="0 0 153 163" fill="none" xmlns="http://www.w3.org/2000/svg">
<g clip-path="url(#clip0)">
<path d="M167.924 162.713C159.393 146.659 147.928 132.322 134.114 120.437C130.769 117.574 127.17 114.93 124.38 111.469C121.591 108.008 120.225 103.697 119.23 99.3275C118.272 95.051 117.082 90.8291 115.665 86.6803C110.854 73.1476 103.073 60.8472 92.8859 50.6701L93.8697 50.2562C94.1938 57.8752 94.5217 65.5173 94.8535 73.1822C94.8535 73.9411 93.7771 73.8951 93.6961 73.1822C91.9613 59.5026 85.6801 46.7893 75.8481 37.0571C73.0728 34.3087 70.0335 31.8364 66.7737 29.6757L67.6418 29.1813L70.9405 56.2004C71.0215 56.8558 69.9798 56.9363 69.7831 56.3499C65.3587 42.2327 57.3926 29.4651 46.634 19.2475C43.5928 16.3518 40.3391 13.6847 36.8998 11.2682L37.7447 10.6244L44.2612 37.1836C44.2842 37.2685 44.2873 37.3576 44.2702 37.4439C44.2532 37.5302 44.2164 37.6115 44.1627 37.6815C44.109 37.7514 44.0399 37.8082 43.9607 37.8475C43.8814 37.8868 43.7942 37.9074 43.7056 37.9079C40.1522 38.1264 37.9994 35.1255 36.6683 32.2512C35.0594 28.8019 34.1566 25.0997 32.1079 21.8229C27.7675 14.9244 20.6491 10.245 13.4382 6.66923C9.22504 4.57669 4.84985 2.81757 0.451523 1.13894L1.16914 0.437591C5.82227 13.2193 12.0422 25.3832 19.6884 36.6547C21.876 39.8855 24.1909 43.0473 26.6331 46.1171C27.0151 46.6 26.5521 47.3704 25.9387 47.0254C16.8385 41.9005 9.13165 34.6513 3.48405 25.9045L4.56047 25.6056C5.97757 40.5208 13.2603 54.2787 24.8275 63.8923C28.0484 66.56 31.5669 68.8515 35.3141 70.7218C35.411 70.7794 35.4888 70.8639 35.538 70.9649C35.5871 71.0659 35.6054 71.179 35.5907 71.2902C35.5759 71.4015 35.5287 71.506 35.4549 71.5909C35.381 71.6758 35.2838 71.7374 35.1752 71.7681C28.7998 73.0006 22.1919 72.031 16.4475 69.0201L17.2925 68.3648C22.7672 83.5415 35.8118 95.5564 51.1943 100.558C55.54 101.958 60.0566 102.766 64.6208 102.961C64.7341 102.962 64.8444 102.997 64.9381 103.06C65.0318 103.123 65.1047 103.213 65.1478 103.317C65.191 103.421 65.2024 103.535 65.1807 103.646C65.1591 103.756 65.1052 103.858 65.0259 103.938C62.3041 106.426 58.9522 108.133 55.3291 108.874C51.706 109.615 47.9482 109.364 44.458 108.146L45.1061 107.295C51.7152 117.022 60.153 126.611 71.8202 130.06C77.482 131.858 83.581 131.761 89.182 129.784C94.1359 127.887 98.0944 124.208 101.914 120.667C106.092 116.804 110.387 112.837 115.885 110.94C116.591 110.699 116.891 111.802 116.185 112.09C105.884 115.654 100.328 126.347 90.3858 130.566C79.1006 135.372 66.3339 130.9 57.4214 123.415C52.281 118.886 47.794 113.675 44.0876 107.928C44.0338 107.829 44.0098 107.716 44.0184 107.604C44.0271 107.492 44.068 107.385 44.1363 107.295C44.2046 107.206 44.2974 107.137 44.4037 107.099C44.51 107.06 44.6253 107.052 44.7357 107.077C48.0406 108.229 51.5991 108.466 55.029 107.761C58.459 107.056 61.6309 105.436 64.2041 103.076L64.6092 104.053C56.3058 103.679 48.2065 101.376 40.9624 97.327C33.7029 93.3003 27.4362 87.7194 22.6168 80.989C19.9275 77.1938 17.774 73.0507 16.216 68.6752C16.0309 68.1808 16.6443 67.8129 17.061 68.0314C22.5347 70.8901 28.8233 71.8184 34.8974 70.6643L34.7585 71.7106C21.0805 64.7162 10.7383 52.637 5.98416 38.1034C4.65097 34.0495 3.79645 29.8554 3.43776 25.6056C3.43776 25.0077 4.23639 24.8698 4.51419 25.3182C10.0447 33.8878 17.5927 40.9909 26.5058 46.0137L25.8114 46.922C17.2589 36.0651 10.0937 24.1974 4.47946 11.5902C2.83588 8.02594 1.34662 4.41189 0.0116882 0.748024C-0.01474 0.649825 -0.0144958 0.546422 0.0124207 0.448355C0.0393372 0.350288 0.0919495 0.261063 0.164902 0.189774C0.237839 0.118486 0.328506 0.0676839 0.427658 0.042546C0.52681 0.0174081 0.63089 0.0188333 0.729294 0.0466765C8.35693 2.95554 16.0424 6.10586 22.7209 10.8083C25.9432 13.0014 28.8217 15.6553 31.263 18.6841C32.4481 20.2028 33.483 21.8315 34.3534 23.5476C35.1364 25.2132 35.8242 26.9214 36.4136 28.6639C37.5711 31.8947 39.3883 37.0111 43.6593 36.7122L43.1037 37.4365L36.5873 10.8773C36.4715 10.4289 37.004 9.92302 37.4322 10.2335C49.8305 18.9661 59.7722 30.7059 66.3107 44.335C68.1354 48.1208 69.6827 52.0324 70.9405 56.0395L69.7831 56.2004L66.4843 29.1813C66.4849 29.0807 66.5121 28.982 66.5632 28.8951C66.6142 28.8082 66.6873 28.7361 66.7752 28.6861C66.8631 28.636 66.9626 28.6098 67.0639 28.6099C67.1652 28.6101 67.2647 28.6366 67.3524 28.6869C79.1361 36.5699 87.9217 48.1468 92.3071 61.5698C93.5335 65.3493 94.3863 69.2385 94.8535 73.1822H93.6961C93.372 65.5556 93.0441 57.9327 92.7122 50.3137C92.7168 50.2012 92.7539 50.0925 92.819 50.0003C92.8841 49.9082 92.9746 49.8367 93.0796 49.7942C93.1845 49.7518 93.2996 49.7403 93.4109 49.761C93.5223 49.7818 93.6253 49.834 93.7077 49.9113C106.127 62.329 114.971 77.824 119.322 94.786C120.48 99.385 121.151 104.145 123.547 108.261C125.862 112.113 129.334 114.976 132.806 117.793C147.646 130.087 159.918 145.148 168.931 162.127C169.278 162.782 168.271 163.369 167.924 162.713Z" fill="#333333"/>
<path d="M106.012 99.4878C102.727 99.8215 99.416 99.194 96.4857 97.6827C93.6731 96.418 90.9531 94.9118 88.2215 93.4746C82.9204 90.7037 77.6539 87.8754 72.4801 84.863C62.2714 78.9418 52.3867 72.2962 43.8562 64.1675C39.0794 59.613 34.8355 54.5373 31.2053 49.0368C30.8001 48.4159 31.8071 47.8871 32.2122 48.4504C38.6631 57.9445 46.7644 66.2216 56.1368 72.8941C65.6334 79.6701 75.627 85.7308 86.0339 91.0257C88.9391 92.5663 91.8212 94.107 94.7959 95.6247C98.1409 97.3263 101.868 98.9474 105.699 98.3841C106.428 98.2806 106.752 99.3843 106.012 99.5338V99.4878Z" fill="#333333"/>
<g opacity="0.5">
<path opacity="0.5" d="M90.9878 100.235C92.967 93.4517 86.4505 86.1852 82.6888 81.1263L104.68 68.3641C113.674 83.1269 94.9231 98.867 80.9758 89.8644C75.3274 86.2082 72.8736 80.448 70.1999 74.6073L61.4611 55.4524L85.1773 49.0368C86.2653 57.5795 88.534 66.766 88.4529 75.3661C88.3256 89.0021 71.9708 93.7621 62.7922 84.8515C56.2062 78.4589 52.1783 67.8812 47.7452 59.9594L32.6983 33.3427L55.9053 23.6273L61.8083 53.5208C63.8223 63.6961 53.1158 74.1129 43.1039 67.8007C29.3764 59.1431 22.1424 43.8055 11.9683 31.7331C7.55843 26.5017 6.80608 18.9824 11.9683 13.8545C14.3795 11.5255 17.6101 10.2225 20.9733 10.2225C24.3365 10.2225 27.5671 11.5255 29.9783 13.8545C37.224 20.799 41.6802 28.9622 45.1525 38.3097C47.9767 45.944 50.5347 53.0035 55.1877 59.787C60.1995 67.1224 66.4613 73.584 72.8273 79.7351C78.059 84.8055 83.8347 91.4626 91.7748 90.5888C98.6154 89.8299 104.507 96.9469 104.507 103.236C104.507 110.698 98.6385 115.124 91.7748 115.883C80.3276 117.148 70.1883 111.1 61.7852 104.041C53.7869 97.2462 46.4687 89.6994 39.9324 81.5058C32.8701 72.9261 27.2781 63.2499 23.3808 52.8655C20.4293 44.8862 18.2996 37.7578 12.0146 31.6756L29.9783 13.797C34.8512 19.5457 39.238 25.6739 43.5668 31.8251C47.0392 36.654 50.9051 42.7132 55.9632 45.9095L37.2587 60.1894L31.3441 30.3534C30.1867 24.1907 32.5826 17.8901 38.7171 15.4066C41.5499 14.215 44.7212 14.0825 47.6447 15.0336C50.5683 15.9847 53.0462 17.9551 54.6205 20.5805L68.51 45.2197L75.2464 57.0851L78.603 63.0063L80.2813 65.9611C81.867 68.5366 81.7628 68.5941 79.9688 66.1106L73.5333 64.386H74.6908L65.6395 68.1227L66.4844 67.4328L63.2088 73.0091C62.306 76.6078 62.5259 71.2385 62.3871 70.1922L61.4495 62.8338L59.7133 49.0368C58.1623 36.746 78.3831 31.5606 83.4412 42.6557L90.8026 58.7522C92.0295 61.4426 93.1869 64.1675 94.4833 66.8005C94.9077 67.7509 95.3822 68.6822 95.9069 69.5943C93.9393 68.2261 93.893 68.0192 95.8028 68.9735L89.3673 67.2489L84.8533 68.939L81.5777 74.5153V75.665L83.3486 82.1381L82.7351 81.1263C81.1003 78.2232 80.6633 74.8032 81.5161 71.5864C82.3688 68.3696 84.4449 65.6069 87.3071 63.8801C93.7772 60.1204 100.629 62.9143 104.727 68.4791C113.084 79.7121 119.774 92.8538 115.595 107.076C111.046 122.678 86.4621 116.044 91.0341 100.35L90.9878 100.235Z" fill="#156735"/>
</g>
</g>
<defs>
<clipPath id="clip0">
<rect width="169" height="163" fill="white" transform="matrix(-1 0 0 1 169 0)"/>
</clipPath>
</defs>
</svg>
