<svg xmlns="http://www.w3.org/2000/svg" viewBox="0 0 83.42 198.25"><defs><style>.cls-1{fill:#333;}.cls-2{opacity:0.5;}.cls-3{fill:#156735;}</style></defs><title>나무_3</title><g id="Layer_2" data-name="Layer 2"><g id="Layer_2-2" data-name="Layer 2"><path class="cls-1" d="M.42,132.85a16,16,0,0,1-.3,4.88A12.53,12.53,0,0,0,.25,142,6.73,6.73,0,0,0,2,145.38a7,7,0,0,0,3.79,1.7c3.26.58,6.57,1,9.85,1.42s6.64.86,10,1.19c13.23,1.31,26.89,1.41,39.72-2.54a38.09,38.09,0,0,0,4.9-1.76,5.74,5.74,0,0,0,3.12-3.19,8.21,8.21,0,0,0,0-4.06,14.47,14.47,0,0,1-.25-4.82c.12-.63-.85-.9-1-.26a11.94,11.94,0,0,0,0,4,18.08,18.08,0,0,1,.41,3.66c-.18,3.26-3.68,4.2-6.26,5.05a75.41,75.41,0,0,1-18.64,3.51c-12.92.87-25.86-.84-38.62-2.71a19.42,19.42,0,0,1-5.08-1,4.89,4.89,0,0,1-2.65-3.24,11.29,11.29,0,0,1-.22-4.77,15.55,15.55,0,0,0,.23-4.95c-.11-.63-1.08-.37-1,.26Z" transform="translate(0)"/><path class="cls-1" d="M.92,133.67A147.16,147.16,0,0,0,30,137.41c4.92.2,9.84.25,14.75.26,4.63,0,9.28.11,13.9-.2,4.85-.32,9.73-1.23,14-3.7a.5.5,0,0,0-.51-.86,29.29,29.29,0,0,1-12.39,3.48c-4.5.38-9,.28-13.54.28a269.25,269.25,0,0,1-29-1.18,123.85,123.85,0,0,1-16.09-2.78c-.62-.16-.89.81-.26,1Z" transform="translate(0)"/><path class="cls-1" d="M6.66,147.33a212.59,212.59,0,0,0,6.43,32c.71,2.62,1.46,5.24,2.22,7.85a37,37,0,0,0,1.52,4.93c1.51,3.34,5.37,4.81,8.75,5.48,4.36.88,8.86.7,13.28.6,3.46-.08,7,.13,10.44-.68a10.16,10.16,0,0,0,6.09-4.12,21.18,21.18,0,0,0,2.19-4.16c.94-2.25,1.71-4.57,2.46-6.88a134.74,134.74,0,0,0,4.07-15.93c1-5.4,1.64-10.86,2.29-16.32l.23-1.94a3,3,0,0,0,.07-1.43.52.52,0,0,0-.69-.18s0,0,0,0c-.61-.22-.87.75-.27,1a.85.85,0,0,0,.76-.06l-.69-.18c-.15-.34,0-.16-.08-.05a1.8,1.8,0,0,0-.06.48l-.12,1-.24,2.06-.48,4c-.33,2.72-.67,5.43-1.12,8.12a134.13,134.13,0,0,1-3.44,15.23q-1.09,3.78-2.4,7.5a41.61,41.61,0,0,1-2.2,5.36A10.14,10.14,0,0,1,50.6,196c-2.83,1.12-6.07,1.08-9.06,1.09A125.87,125.87,0,0,1,28.8,197a22.91,22.91,0,0,1-6.08-1.3,9.41,9.41,0,0,1-4.29-2.87,11.6,11.6,0,0,1-1.61-4c-.62-2.28-1.3-4.55-1.94-6.83a231.38,231.38,0,0,1-6.73-30.78c-.18-1.31-.34-2.62-.49-3.93-.07-.63-1.08-.64-1,0Z" transform="translate(0)"/><path class="cls-1" d="M1.25,133.08a9.13,9.13,0,0,1,4.57-2.3c1.55-.41,3.11-.8,4.66-1.2,3.47-.88,7-1.68,10.49-2.31,2.31-.41,4.64-.73,7-1,.64-.07.64-1.07,0-1a151.54,151.54,0,0,0-22.2,4.47,10.46,10.46,0,0,0-5.2,2.61c-.43.47.27,1.18.71.71Z" transform="translate(0)"/><path class="cls-1" d="M32.85,125.94a104,104,0,0,1,15.17,1,105,105,0,0,1,17.33,3.43,30.12,30.12,0,0,1,7.06,2.94c.55.33,1-.53.5-.87a29.18,29.18,0,0,0-6.17-2.68,76.85,76.85,0,0,0-8.19-2.11,138.31,138.31,0,0,0-17.79-2.43c-2.63-.19-5.27-.31-7.91-.25-.64,0-.65,1,0,1Z" transform="translate(0)"/><path class="cls-1" d="M30.31,135.52c-1-7.56,1-15,3-22.22S37.55,98.58,37,91c-.31-4.21-1.42-8.27-2.14-12.41-.69-3.94-1.24-7.91-2.74-11.64-1.33-3.34-3.18-6.49-4-10A19.08,19.08,0,0,1,29,46.2a15.82,15.82,0,0,1,2.68-4.62A27,27,0,0,1,36,37.85a19.34,19.34,0,0,0,3.71-3.52A20.62,20.62,0,0,0,42,30.39c2.63-5.64,3.44-12.49,7.86-17.16,2.61-2.75,6.19-4.24,9.66-5.56C63.67,6.11,67.79,4.58,71.9,3a31.84,31.84,0,0,1,5.27-1.81C78.31,1,80.07.88,80.86,2c1.07,1.48-.58,3.58-1.44,4.77s-2,2.61-2.93,4a7.48,7.48,0,0,0-1.37,4,6.6,6.6,0,0,0,1.95,4.13,5.78,5.78,0,0,1,1.65,4.75,9.27,9.27,0,0,1-2.2,4.56c-2.35,2.78-5.86,4.19-8.75,6.31a17,17,0,0,0-2,1.68,3.76,3.76,0,0,0-1.28,2,2.14,2.14,0,0,0,1.73,2.3,6.45,6.45,0,0,0,3.69-.14L69.28,40c1.18,3.74-1.42,7.26-4.11,9.59s-5.81,3.79-8.38,6.12a12.67,12.67,0,0,0-3.27,4.5.5.5,0,0,0,.23.56L58.24,63l-.23-.3a4.23,4.23,0,0,1-2.19,4.69c-2,1.17-4.46,1-6.64.74A76.41,76.41,0,0,1,34.92,65c-.62-.2-.88.77-.27,1a76.29,76.29,0,0,0,14.64,3.17,12.2,12.2,0,0,0,6.53-.62,5.85,5.85,0,0,0,3.29-4.09,4.15,4.15,0,0,0,0-1.45,1.15,1.15,0,0,0-.84-1.07l-4-2,.23.56c1.4-3.36,4.61-5.44,7.52-7.37s6.16-4.26,7.75-7.69a7.82,7.82,0,0,0,.5-5.68.52.52,0,0,0-.62-.35c-1.09.35-2.76.59-3.76-.13-1.46-1.06,1.24-3,2-3.63,2.85-2.2,6.36-3.58,8.86-6.22,2.11-2.22,3.82-5.63,2.67-8.71C78.79,19,77.26,18,76.5,16.37A4.72,4.72,0,0,1,76.88,12,32.92,32.92,0,0,1,79.75,8c1-1.3,2.18-2.8,2.4-4.46A2.85,2.85,0,0,0,80.34.39a6.88,6.88,0,0,0-4,0,51.9,51.9,0,0,0-5.56,2L64.38,4.8c-3.7,1.38-7.57,2.59-11,4.54a17.56,17.56,0,0,0-6.91,7.05A60.62,60.62,0,0,0,43,25.24a28.54,28.54,0,0,1-4.15,8.58c-2.3,2.92-5.82,4.49-8.14,7.38a18.54,18.54,0,0,0-3.81,9.56,21.05,21.05,0,0,0,1.69,10.59c.68,1.63,1.47,3.21,2.17,4.83a33.28,33.28,0,0,1,1.86,5.67c.46,2,.78,4,1.12,6S34.5,82,34.93,84a43.79,43.79,0,0,1,1,12.39,64.84,64.84,0,0,1-2.14,11.31c-1.92,7.31-4.46,14.59-4.75,22.21a31.41,31.41,0,0,0,.25,5.57c.08.63,1.08.64,1,0Z" transform="translate(0)"/><path class="cls-1" d="M37.51,58.56A8.57,8.57,0,0,1,41,49.46a47.52,47.52,0,0,0,4.57-3.15,21.78,21.78,0,0,0,3.34-3.77c4-5.69,5.77-12.63,9.65-18.42A17.79,17.79,0,0,1,67,16.89c.6-.22.34-1.18-.26-1C60,18.36,56.37,25.11,53.61,31.28a70.36,70.36,0,0,1-4.94,9.81,22.6,22.6,0,0,1-3.48,4.2,38.72,38.72,0,0,1-4.72,3.3,9.62,9.62,0,0,0-3.92,10.23.5.5,0,0,0,1-.26Z" transform="translate(0)"/><path class="cls-1" d="M57.32,24.16a6,6,0,0,1,1-6.31c.43-.47-.27-1.18-.71-.7a7,7,0,0,0-1.18,7.52.5.5,0,0,0,.68.18.51.51,0,0,0,.18-.69Z" transform="translate(0)"/><path class="cls-1" d="M44.8,47.24a14.88,14.88,0,0,0,13-2.84c.5-.4-.21-1.1-.71-.7a13.86,13.86,0,0,1-12,2.58.5.5,0,0,0-.26,1Z" transform="translate(0)"/></g><g id="Layer_3" data-name="Layer 3"><g class="cls-2"><path class="cls-3" d="M39.72,66.66c1.93-2.47,3-4.51,2.58-7.74A11.91,11.91,0,0,0,41,54.65c-.14-.27-1.83-2.38-1.82-2.47.24-1.84,4.76-3.77,6-4.73A16.14,16.14,0,0,0,51,40.21c1.13-2.89,1.13-6.13,2.59-8.89s3.88-4.79,6.17-6.71c2.69-2.24,5.51-4.34,8.27-6.49l4.5-3.5,2.25-1.75q4-1.95-2.57-2.15l-.6-4.62c-.35,2.45-3.34,4.5-5,6.26l-6,6.47c-2.15,2.3-7.6,10.34-11.12,9.23C42.11,25.74,39,37.32,46.31,39.63c6.31,2,11.85-1.15,16.35-5.46C68,29.08,72.8,23.35,77.82,18,81.66,13.85,86.32,7.5,81.1,2.3S69.31,2.07,64.83,5.56C54.64,13.47,43.69,20,40.52,33.25c-.83,3.49-1.94,4.23-4.79,6.14a21.82,21.82,0,0,0-6.31,5.79,12.05,12.05,0,0,0-2.11,8,10.8,10.8,0,0,0,1,3.51c.87,1.94,1.08,3.88,2.95,1.49-4.7,6,3.73,14.57,8.49,8.49Z" transform="translate(0)"/></g></g></g></svg>