<svg xmlns="http://www.w3.org/2000/svg" viewBox="0 0 173.5 173.02"><defs><style>.cls-1{fill:#333;}.cls-2{opacity:0.1;}.cls-3{fill:#f48e9a;}.cls-4{opacity:0.22;}.cls-5{fill:#f7e393;}.cls-6{fill:#eaeaea;}</style></defs><title>고양이</title><g id="Layer_2" data-name="Layer 2"><g id="Layer_4" data-name="Layer 4"><path class="cls-1" d="M95.25,12.68c.81,4.84,1,9.8-1.37,14.26A17.84,17.84,0,0,1,85,35.11c-.88.37-.12,1.67.76,1.29a19.07,19.07,0,0,0,9.5-8.95c2.41-4.79,2.26-10,1.4-15.17-.16-.95-1.61-.55-1.45.4Z" transform="translate(-0.37)"/><path class="cls-1" d="M84.88,27c-1.93-1.49-4.55-.62-6.09,1s-3,4.46-2.54,6.91a6.89,6.89,0,0,0,1.82,3.1,9.3,9.3,0,0,1,2.16,3.4c.76,2.43.89,4.95,1.88,7.32,3.38,8,12.6,13.13,21.09,10.08a16.18,16.18,0,0,0,10.3-11.74c.21-.94-1.24-1.35-1.44-.4a14.57,14.57,0,0,1-19,10.69,16.53,16.53,0,0,1-8.47-7,16.94,16.94,0,0,1-2-5.25c-.49-2.32-.71-4.72-2.18-6.67a24.55,24.55,0,0,1-2.28-2.83,4.45,4.45,0,0,1,.17-4.06c1-2,3.4-5.12,5.88-3.21.76.59,1.51-.72.75-1.3Z" transform="translate(-0.37)"/><path class="cls-1" d="M101.91,11.24c1.5.21,2.46,1.71,3.07,3a8.8,8.8,0,0,1-3.55,11.53.75.75,0,0,0,.75,1.3,10.49,10.49,0,0,0,5.2-8.58,10.58,10.58,0,0,0-1.22-5.23c-.78-1.5-2.06-3.18-3.85-3.44-.94-.14-1.35,1.31-.4,1.45Z" transform="translate(-0.37)"/><path class="cls-1" d="M94.74,1.76C89.36-1.2,82.08-.3,77.31,3.47a21.63,21.63,0,0,0-6,8.5,57.13,57.13,0,0,0-3.19,10.79,114.09,114.09,0,0,1-2.82,11.82,31.62,31.62,0,0,1-5.93,10.7,55.26,55.26,0,0,1-8.08,8c-2.51,1.95-5.25,3.59-7.73,5.57a18.48,18.48,0,0,0-6.23,8.56,23.52,23.52,0,0,0-.76,13.39.75.75,0,0,0,1.44-.4,21.92,21.92,0,0,1,.5-11.8,16.64,16.64,0,0,1,5.22-7.94c2.32-2,5-3.61,7.43-5.42a55.62,55.62,0,0,0,7.52-7A35.8,35.8,0,0,0,65.22,39a52.82,52.82,0,0,0,3.32-10.79c1.52-7,2.6-14.53,6.89-20.52A14.37,14.37,0,0,1,84,1.93,14.11,14.11,0,0,1,94,3.06c.84.46,1.6-.83.76-1.3Z" transform="translate(-0.37)"/><path class="cls-1" d="M92.38,33.35a7.15,7.15,0,0,1,4.82.41.78.78,0,0,0,1-.27.75.75,0,0,0-.27-1,8.7,8.7,0,0,0-6-.56.75.75,0,1,0,.4,1.44Z" transform="translate(-0.37)"/><path class="cls-1" d="M101.26,40.81a14,14,0,0,1-.05,1.7,2,2,0,0,0,1,1.64c.11.06.23.11.34.18s0,0,0,0,0,0,0,0c0-.13,0,.07,0,0s0,.17,0,0c0,0,0,.2,0,.1s0,.1,0,.1,0,0,0,0-.09.15,0,0a1.85,1.85,0,0,1-.14.14s0,0,0,0l-.06,0-.18.11a5.41,5.41,0,0,1-.72.25.75.75,0,1,0,.4,1.45,3.55,3.55,0,0,0,1.81-1,1.83,1.83,0,0,0,.21-2.09,1.91,1.91,0,0,0-.84-.67s-.21-.09-.1,0l0,0c0,.06,0,.06,0,0l0-.06c0,.06,0,.07,0,0a1.66,1.66,0,0,1-.06-.21c0-.08,0,.07,0-.06v-.23a4.55,4.55,0,0,1,0-.53,3.62,3.62,0,0,0,0-1.27.75.75,0,0,0-1.44.4Z" transform="translate(-0.37)"/><path class="cls-1" d="M86,54.32c-.54,2-1.61,4.15-3.77,4.7-.79.2-1.83-.08-2.26.83a3.42,3.42,0,0,0,.35,2.55,8.5,8.5,0,0,0,8.65,5.34A8.74,8.74,0,0,0,94.46,65a.77.77,0,0,0-.16-1.18c-1.52-1.09.13-3.27.88-4.25.59-.77-.72-1.52-1.29-.76a6.63,6.63,0,0,0-1.65,3.44,3.14,3.14,0,0,0,1.31,2.86l-.15-1.17a7,7,0,0,1-12-3.06c0-.1-.05-.2-.06-.3-.21.06-.22.08,0,0a2.61,2.61,0,0,0,.79-.06,5,5,0,0,0,1.49-.46c2.13-1,3.25-3.21,3.84-5.38a.75.75,0,0,0-1.44-.4Z" transform="translate(-0.37)"/><path class="cls-1" d="M78.52,59.45C62.89,62.53,47.33,70,38.18,83.54c-4.34,6.42-7,14.64-4.2,22.23s10.09,13,16.61,17.47a100.87,100.87,0,0,0,26.62,12.9.76.76,0,0,0,.92-.53,85.75,85.75,0,0,1,9.44-18.49.75.75,0,0,0-.44-1.1c-5.42-1.48-11.19-3.16-15.59-6.8S65.08,100,66.79,94.46a13.29,13.29,0,0,1,5.5-7.34c.82-.52.07-1.82-.75-1.3a15.28,15.28,0,0,0-6.63,15.46c1.12,6.15,6.32,10.3,11.73,12.75a67.39,67.39,0,0,0,10.09,3.44l-.45-1.1a87,87,0,0,0-9.6,18.85l.93-.53a99.28,99.28,0,0,1-23-10.59,92.65,92.65,0,0,1-10.11-7.26,33.06,33.06,0,0,1-7.84-8.79c-4-7-2.42-15,1.49-21.69s10-12.29,16.66-16.43a70.87,70.87,0,0,1,24.08-9c.94-.18.54-1.63-.4-1.45Z" transform="translate(-0.37)"/><path class="cls-1" d="M93,64.85l11.73,5.74c3.67,1.8,7.48,3.46,10.63,6.13,4.76,4,8.41,9.3,11.94,14.41,1.6,2.33,3.16,4.71,4.92,6.93.6.75,1.65-.31,1.06-1.06-3.13-4-5.67-8.36-8.76-12.36a62.42,62.42,0,0,0-7.26-8.23c-3-2.74-6.49-4.52-10.1-6.29l-13.4-6.57c-.87-.42-1.63.87-.76,1.3Z" transform="translate(-0.37)"/><path class="cls-1" d="M85.52,118.82a15.26,15.26,0,0,0,10.29,3.31c2-.06,4.06-.3,6,.36,1.54.54,3.09,1.73,3.23,3.47.08,1,1.58,1,1.5,0-.31-3.74-4.17-5.3-7.45-5.4-2.24-.07-4.5.29-6.73-.14a13.1,13.1,0,0,1-5.74-2.66c-.74-.6-1.81.46-1.06,1.06Z" transform="translate(-0.37)"/><path class="cls-1" d="M101.58,126.31l3.77,1.11c.58.17,1.2.31,1.77.52.32.13.44.25.31.54s-.68.52-1.05.6a8,8,0,0,1-1.69.19,9.57,9.57,0,0,1-3.55-.63.75.75,0,0,0-.92.52.76.76,0,0,0,.52.92,10.63,10.63,0,0,0,3.43.69,7.8,7.8,0,0,0,3.42-.52,2.14,2.14,0,0,0,1.29-2.57c-.4-1.13-1.8-1.32-2.8-1.61l-4.1-1.21a.75.75,0,0,0-.4,1.45Z" transform="translate(-0.37)"/><path class="cls-1" d="M104.3,130.39a2.1,2.1,0,0,0,1,.86,2.8,2.8,0,0,1,.88.44c.48.54-.36,1.23-.84,1.39a7,7,0,0,1-5.69-.81.75.75,0,0,0-.75,1.29,9.17,9.17,0,0,0,3.71,1.24,6.83,6.83,0,0,0,3.63-.48,2.51,2.51,0,0,0,1.47-2.86,2,2,0,0,0-1.09-1.26c-.34-.17-.86-.3-1-.57-.47-.84-1.76-.08-1.3.76Z" transform="translate(-0.37)"/><path class="cls-1" d="M105,134.24a2.18,2.18,0,0,1-1.84,1.69,3.94,3.94,0,0,1-.79,0,5.22,5.22,0,0,1-.88-.15,8.94,8.94,0,0,1-1.83-.76c-.86-.44-1.62.85-.76,1.3a7,7,0,0,0,4.74,1,3.63,3.63,0,0,0,2.81-2.71.77.77,0,0,0-.52-.92.76.76,0,0,0-.93.52Z" transform="translate(-0.37)"/><path class="cls-1" d="M101.84,136.71a6.63,6.63,0,0,1-5.39,1.12c-2.22-.49-3.56-1.94-4.69-3.84a20.86,20.86,0,0,0-4.16-5.23,49.38,49.38,0,0,0-5.38-3.93c-.8-.53-1.56.77-.75,1.3a39.26,39.26,0,0,1,6,4.52,15.83,15.83,0,0,1,2.38,3,25,25,0,0,0,2,3.16A8.14,8.14,0,0,0,102.6,138c.77-.56,0-1.86-.76-1.29Z" transform="translate(-0.37)"/><path class="cls-1" d="M96.16,4.26a15.54,15.54,0,0,1,7.25-1.83,14.28,14.28,0,0,1,7,2.09,20.83,20.83,0,0,1,8.38,9,20.28,20.28,0,0,1,1,14.28c-.66,2.37-1.38,4.7-1.84,7.12s-.67,4.68-.89,7c-.25,2.58-.61,5.3-2,7.53A7.18,7.18,0,0,1,109.54,53c-1,.06-1,1.56,0,1.5,4.65-.3,7.52-4.45,8.41-8.66.57-2.67.6-5.42,1-8.12a57.23,57.23,0,0,1,1.84-8.18,26.94,26.94,0,0,0,1.34-7.85,21.21,21.21,0,0,0-1.47-7.55,22.28,22.28,0,0,0-8.77-10.5,16.54,16.54,0,0,0-8-2.73,17,17,0,0,0-8.5,2c-.86.44-.1,1.73.76,1.3Z" transform="translate(-0.37)"/><path class="cls-1" d="M67.14,94.62c3.33-1.11,6.78-2.24,10.33-2.23S84,94,86.79,96.17c.75.6,1.81-.45,1.06-1.06-2.87-2.3-6-4-9.72-4.2s-7.73,1-11.38,2.26c-.92.3-.53,1.75.39,1.45Z" transform="translate(-0.37)"/><path class="cls-1" d="M85.24,94.85c8-1,18.28-3.62,24.54,3.21.65.71,1.71-.35,1.06-1.06-6.6-7.19-17.15-4.7-25.6-3.65-.95.11-1,1.62,0,1.5Z" transform="translate(-0.37)"/><path class="cls-1" d="M107,19.13A15,15,0,0,1,111,23.22a10.13,10.13,0,0,1,1.35,5.55,24.36,24.36,0,0,1-.46,5.78c-.39,1.71-.74,3.39.08,5,.44.86,1.73.1,1.3-.76-.9-1.79.22-4,.44-5.88a28.1,28.1,0,0,0,0-6.15c-.42-3.87-3-6.79-6.07-9-.79-.55-1.54.75-.75,1.3Z" transform="translate(-0.37)"/><path class="cls-1" d="M106,34.73a3.15,3.15,0,0,1,.44-.11l.11,0h-.05l.19,0a3.53,3.53,0,0,1,.46,0h.17s.3,0,.09,0a3.46,3.46,0,0,1,.83.2l.16.06h0l.1,0,.4.22a.75.75,0,1,0,.76-1.29,5.07,5.07,0,0,0-4-.55.76.76,0,0,0-.53.92.77.77,0,0,0,.93.53Z" transform="translate(-0.37)"/><path class="cls-1" d="M117.19,120.84l.59-.06c.94-.1,1-1.58,0-1.5a10.32,10.32,0,0,1-11.22-10.16,13.64,13.64,0,0,1,3.14-8c1.46-2,3-3.7,4-6,.39-.91.78-1.84,1.09-2.78.22-.65.57-1.51.06-2.1L114,91.45a16.79,16.79,0,0,1,2.69,2.36c.63.7,1.07,1.45,2.08,1.55s2.2,0,3.31.16a21.73,21.73,0,0,1,6.91,2.07c.8.4,1.74,1.27,2.68,1.14a8.33,8.33,0,0,0,1.58-.58c.59-.22,1.2-.42,1.81-.59a22.13,22.13,0,0,1,3.87-.7l-.75-.75c-.23,2.41-1.47,4.7-1.27,7.15.23,2.72.47,5.18-.65,7.77a.76.76,0,0,0,.27,1c4,2.25,8.16,4.46,11.61,7.51a19.51,19.51,0,0,1,3.95,4.69,13.7,13.7,0,0,1,1.73,5.82c.43,4.42,1.38,9-1.14,13-2,3.26-5.64,5.24-9.16,6.53-1.94.71-4.73,2-6.65.65a2.23,2.23,0,0,1-.55-.51,1.46,1.46,0,0,1-.22-.35c-.05-.24,0-.32.29-.25a6.57,6.57,0,0,0,1.09-.35,2.72,2.72,0,0,0,1.3-2.37.75.75,0,0,0-1.5,0c0,1.5-1.44.94-2.25,1.57a1.77,1.77,0,0,0-.1,2.38c1.14,1.88,3.53,2.13,5.49,1.75a27,27,0,0,0,6.3-2.25,19.73,19.73,0,0,0,5.24-3.56,12.8,12.8,0,0,0,3.37-5.51,18.91,18.91,0,0,0,.36-7.42,33.8,33.8,0,0,0-1-7.1,16.31,16.31,0,0,0-3.26-5.59c-3.77-4.39-9.14-7.17-14.11-10l.27,1a14.62,14.62,0,0,0,.95-7.9c-.35-2.68.93-5.14,1.18-7.78a.75.75,0,0,0-.75-.75A28.12,28.12,0,0,0,132.16,97a1.9,1.9,0,0,1-.9.22,3.56,3.56,0,0,1-.7-.41c-.47-.27-1-.51-1.45-.74a24.15,24.15,0,0,0-3.06-1.18,22.42,22.42,0,0,0-6.29-1c-.61,0-1,0-1.44-.4s-.75-.88-1.16-1.29a18.92,18.92,0,0,0-2.45-2c-.74-.52-1.44.57-.91,1.17-.18-.2,0-.44-.19-.25a2.41,2.41,0,0,0-.12.48c-.14.48-.32.94-.49,1.4-.27.7-.56,1.4-.87,2.09-1.21,2.71-3.51,4.72-5,7.26a12.87,12.87,0,0,0-1.93,8.35,11.71,11.71,0,0,0,3.77,7.19,12,12,0,0,0,8.83,2.93v-1.5l-.59.06c-1,.1-1,1.61,0,1.5Z" transform="translate(-0.37)"/><path class="cls-1" d="M116.94,120.43a82.32,82.32,0,0,1,.25,10.88c-.08,1.81-.22,3.63-.42,5.43-.16,1.5-.09,3.45-1.15,4.62-.73.79-1.71,1.51-1.78,2.69a2.59,2.59,0,0,0,1.8,2.44,6.77,6.77,0,0,0,6.76-.91,5.53,5.53,0,0,0,1.55-4.23c0-2-.2-4.07-.3-6.09-.06-1-1.56-1-1.5,0l.24,4.66c.07,1.31.22,2.84-.53,4-1.11,1.72-4.31,2.06-6,1-1.2-.74,0-1.7.63-2.35a4.9,4.9,0,0,0,1.4-3,85,85,0,0,0,.8-8.87,83,83,0,0,0-.27-10.34c-.08-1-1.58-1-1.5,0Z" transform="translate(-0.37)"/><path class="cls-1" d="M121.57,135a11.77,11.77,0,0,0,5.63,2.16.75.75,0,0,0,.75-.75.77.77,0,0,0-.75-.75,10.35,10.35,0,0,1-4.87-2,.75.75,0,0,0-1,.27.77.77,0,0,0,.26,1Z" transform="translate(-0.37)"/><path class="cls-1" d="M124.81,136.66a27.63,27.63,0,0,1,1,6.71,5,5,0,0,1-.71,2.78,3.37,3.37,0,0,0-.61,2.56c.56,2.07,3,2.15,4.75,2a3.38,3.38,0,0,0,2.37-1,6.33,6.33,0,0,0,1.14-2.63,25.31,25.31,0,0,0,.26-7.27c-.07-1-1.57-1-1.5,0a22.84,22.84,0,0,1-.27,7.1c-.25,1-.55,2.07-1.67,2.3-.94.2-2.39.38-3.21-.24s-.11-1.67.29-2.43a6,6,0,0,0,.66-3,29,29,0,0,0-1-7.22.75.75,0,0,0-1.45.4Z" transform="translate(-0.37)"/><path class="cls-1" d="M132.05,144.57a8.72,8.72,0,0,0,5.67,2.82.76.76,0,0,0,.75-.75.78.78,0,0,0-.75-.75h-.25l-.32-.06c-.23-.05-.46-.1-.68-.17a5.74,5.74,0,0,1-1.22-.48,6.9,6.9,0,0,1-2.14-1.65.75.75,0,0,0-1.06,1.06Z" transform="translate(-0.37)"/><path class="cls-1" d="M155.36,129c2.36-5.49,3-11.42,3.89-17.28.83-5.65,1.86-12,5.49-16.64a6.41,6.41,0,0,1,3.66-2.52A3.26,3.26,0,0,1,172.06,94a2.24,2.24,0,0,1-.93,3.17c-1.15.6-2.39.84-3.37,1.75a10.16,10.16,0,0,0-2.17,3.48,35.21,35.21,0,0,0-1.57,4.46,89.68,89.68,0,0,0-1.9,9.61c-1.07,6.55-2.36,13.56-7,18.6-.65.7.41,1.77,1.06,1.06,4.38-4.72,6-11.08,7.09-17.26.6-3.44,1.06-6.92,1.9-10.31a36.17,36.17,0,0,1,1.63-5.11c.6-1.43,1.3-3.11,2.69-3.93s2.74-.88,3.69-2a3.75,3.75,0,0,0,.59-3.28c-.73-2.8-3.89-3.74-6.43-2.85-2.93,1-4.7,3.92-6,6.58a37.73,37.73,0,0,0-2.76,8.87c-1.41,7.16-1.59,14.69-4.5,21.49-.38.87.91,1.64,1.29.75Z" transform="translate(-0.37)"/><ellipse class="cls-1" cx="118.49" cy="101.93" rx="1.89" ry="0.97" transform="translate(-24 167.01) rotate(-65.31)"/><ellipse class="cls-1" cx="125.67" cy="104.9" rx="1.89" ry="0.97" transform="translate(-22.51 175.26) rotate(-65.31)"/><ellipse class="cls-1" cx="95.28" cy="38.5" rx="2.43" ry="1.24" transform="translate(27.07 115.69) rotate(-70.7)"/><ellipse class="cls-1" cx="106.63" cy="39.44" rx="2.19" ry="1.12" transform="translate(33.78 127.04) rotate(-70.7)"/><ellipse class="cls-1" cx="119.44" cy="107.27" rx="1.21" ry="1.09" transform="translate(-28.29 170.99) rotate(-65.31)"/><path class="cls-1" d="M118.26,107.9s-.07.17,0,.06l0,.07c0,.08-.08.17-.13.25a3.31,3.31,0,0,1-.29.47s-.11.22-.16.23.07-.08,0,0l0,.06-.07.09c-.13.15-.26.29-.4.43l-.41.38-.22.18c-.08.07.16-.12,0,0l-.13.1c-.37.26-.75.5-1.14.74a.75.75,0,1,0,.76,1.29,11.57,11.57,0,0,0,2.25-1.68,6.56,6.56,0,0,0,1.47-2.24.75.75,0,0,0-.52-.92.78.78,0,0,0-.93.52Z" transform="translate(-0.37)"/><path class="cls-1" d="M118.13,108.2a9.78,9.78,0,0,0-1.08,5.22.76.76,0,0,0,.75.75.77.77,0,0,0,.75-.75c0-.41,0-.83,0-1.24,0-.19,0-.39,0-.58s0-.22,0-.33c0,.1,0-.14,0-.16A7.4,7.4,0,0,1,119,110l.12-.31c0-.12,0,0,.05-.12a5.33,5.33,0,0,1,.31-.57.75.75,0,1,0-1.3-.76Z" transform="translate(-0.37)"/><path class="cls-1" d="M111,102.44a6.27,6.27,0,0,0-3.42-2.56,40.58,40.58,0,0,0-5-1.78.4.4,0,0,0-.22.77A40.47,40.47,0,0,1,107,100.5c1.23.52,2.66,1.08,3.3,2.34.24.46.93.06.69-.4Z" transform="translate(-0.37)"/><path class="cls-1" d="M109.51,104.66a10.57,10.57,0,0,0-6.57-1.59c-.51.05-.51.85,0,.8a9.82,9.82,0,0,1,6.16,1.48c.44.28.84-.41.41-.69Z" transform="translate(-0.37)"/><path class="cls-1" d="M126,150.06a47.38,47.38,0,0,0-3.35,13.1c-.07.57-.13,1.15-.19,1.72a8,8,0,0,1-.16,1.7c-.29.77-.82.49-1.45.2-.43-.19-.85-.4-1.3-.55a12,12,0,0,0-6.13,0c-4.36.89-8.61,2.2-13,3-2.13.39-4.29.61-6.43,1s-4.53.8-6.83,1a66,66,0,0,1-21.54-1.4,64,64,0,0,0-6.86-1.37,27.22,27.22,0,0,0-7,.25,39.82,39.82,0,0,1-7,.38,70.83,70.83,0,0,1-13.39-2.18,141.08,141.08,0,0,0-14.82-3c-5.05-.62-10.33,0-15.19-1.79l.18,1.37c6.65-4.26,13.3-8.61,18.75-14.39,5.62-5.94,10.32-12.77,15.25-19.28l8.95-11.8c.58-.77-.72-1.51-1.3-.75L27.76,137.48c-4.82,6.35-9.79,12.41-16.18,17.27-3.49,2.64-7.17,5-10.85,7.37a.76.76,0,0,0,.18,1.37c4.36,1.58,9,1.26,13.57,1.63a92.41,92.41,0,0,1,13.8,2.58,104.85,104.85,0,0,0,13.61,2.65,39,39,0,0,0,6.83.16c2.46-.17,4.88-.72,7.35-.74,4.92,0,9.72,1.79,14.56,2.5A67.44,67.44,0,0,0,92.09,172c2.14-.36,4.28-.65,6.42-1,4.53-.72,9-1.83,13.4-3,2.36-.6,5-1.23,7.37-.37,1,.34,1.93,1.1,3,.86a2.05,2.05,0,0,0,1.48-2c.37-2.64.54-5.27,1.08-7.89a40.4,40.4,0,0,1,2.42-7.91c.38-.88-.91-1.64-1.29-.76Z" transform="translate(-0.37)"/><path class="cls-1" d="M130.45,109.46a15.7,15.7,0,0,1,8.93-.4.4.4,0,0,0,.21-.78,16.54,16.54,0,0,0-9.35.41c-.49.17-.28.94.21.77Z" transform="translate(-0.37)"/><path class="cls-1" d="M128.89,111.84a11.56,11.56,0,0,1,6.61,4c.32.4.89-.17.56-.57a12.24,12.24,0,0,0-6.95-4.24c-.5-.1-.72.67-.22.77Z" transform="translate(-0.37)"/></g><g id="Layer_5" data-name="Layer 5"><g class="cls-2"><path class="cls-3" d="M87.92,46.66c-.61.42-.75.53-.41.34l-1,.4a2.52,2.52,0,0,1,.47-.13L86,47.42a1.22,1.22,0,0,1,.33,0l-1.06-.14a2.88,2.88,0,0,1,.49.11l-1-.4c.45.2.31.36-.24-.27l-.4-.54a1.74,1.74,0,0,1,.18.33l-.4-1a4.77,4.77,0,0,1,.15.54L83.9,45a2.76,2.76,0,0,1,0,.76L84,44.73a3.47,3.47,0,0,1-.16.55l.41-1c-.33.77-.45.23.86-.67l.95-.41-.18.07L87,43.17l-.17,0,1.07.14-.15,0,1,.41c-.5-.22.51.47.64.62.42.52.13.11,0-.07l.4,1c0-.11-.08-.22-.11-.33A4,4,0,1,0,82,47c.78,2.51,2.79,4.48,5.57,4.1s4.37-3.07,4.41-5.69a6,6,0,0,0-3-5.27,5.69,5.69,0,0,0-6.68.86,4,4,0,0,0,0,5.66,4.08,4.08,0,0,0,5.65,0Z" transform="translate(-0.37)"/></g><g class="cls-2"><path class="cls-3" d="M109.25,44.57h-.19a8.52,8.52,0,0,0-1.13.15,2.92,2.92,0,0,0-.78.28,4.68,4.68,0,0,0-1.74,1.15A4.41,4.41,0,0,0,104.24,49a4.41,4.41,0,0,0,1.17,2.83A4,4,0,0,0,108.24,53l1.06-.14a4.06,4.06,0,0,0,1.77-1,1,1,0,0,1,.18-.17l-.81.62.27-.15-.95.4a1.67,1.67,0,0,1,.3-.08l-1.06.14h.25a3.83,3.83,0,0,0,3.65-2.46,3,3,0,0,0,.35-1.54l-.15-1.07a4.07,4.07,0,0,0-1-1.76l-.81-.63a4,4,0,0,0-2-.54Z" transform="translate(-0.37)"/></g><g class="cls-4"><path class="cls-1" d="M101.08,5.12C95.07-1,85.44-.73,78.82,4.31c-7.91,6-9.59,16.12-11.62,25.21-1.12,5-2.59,9.72-6,13.71S53.86,50.13,50,53.33c-7.82,6.5-14.52,14.31-15,24.9-.3,6.44,9.7,6.42,10,0,.39-8.54,7.85-14.36,13.92-19.35,5.64-4.64,11.28-9.47,14.5-16.17s3.69-14.28,5.93-21.35C81,16.21,87.64,5.74,94,12.2c4.52,4.59,11.59-2.49,7.07-7.08Z" transform="translate(-0.37)"/></g><g class="cls-4"><path class="cls-1" d="M93.75,15.69A10.29,10.29,0,0,1,93,21.16a31.15,31.15,0,0,1-2.31,5.3c-1.66,2.93-4.08,5.56-7.37,6.61-2.45.78-1.4,4.64,1.06,3.86a17.65,17.65,0,0,0,9.76-8.46,36.2,36.2,0,0,0,2.78-6.42,13.93,13.93,0,0,0,.67-7.42c-.55-2.52-4.4-1.45-3.86,1.06Z" transform="translate(-0.37)"/></g><g class="cls-4"><path class="cls-5" d="M76.35,60.65C67.1,62.2,59.2,67.26,51.66,72.55S36.51,84,35.49,93.72c-.47,4.49.86,8.5,3.13,12.33,2.38,4,4.45,8.61,7.32,12.27,5.61,7.15,15.68,9.72,23.75,13,7.14,2.93,10.25-8.68,3.19-11.57-5.31-2.17-12.94-3.94-17-8.22-2.29-2.41-3.33-5.93-5.07-8.74s-4-5.46-3.18-9.09c1.48-6.21,9.26-10.34,14.15-13.6,5.55-3.7,11.12-6.79,17.77-7.9,7.6-1.27,4.38-12.84-3.19-11.57Z" transform="translate(-0.37)"/></g><g class="cls-4"><path class="cls-5" d="M90.5,85.43l12.15-1.64-2.7-6.4c-2.2,1.28-5,1.6-7.47,2.23l-7.92,2c-4,1-2.83,6.52.93,6.87a122.82,122.82,0,0,0,16.16.43l-1.76-6.52-1.65,1.24C95.5,85.76,96.34,90,100,90.21a6.91,6.91,0,0,1,2.34.46l-2.09-5.14.4-.55a3.74,3.74,0,0,0,.35,6.47c4.06,1.88,7.62-4.16,3.53-6l-.28-.13,1.61,2.09-.07-.29-1.61,4a5.78,5.78,0,0,0,2.11-2c1.42-1.86-.14-4.57-2.09-5.14a19.32,19.32,0,0,0-4.2-.71l1.76,6.53,1.65-1.25c2.52-1.91,2.06-6.67-1.77-6.52a122.82,122.82,0,0,1-16.16-.43l.93,6.88c5.44-1.41,12.18-2.14,17.07-5,3.7-2.16,1-6.9-2.7-6.4L88.64,78.68c-4.45.6-2.55,7.35,1.86,6.75Z" transform="translate(-0.37)"/></g><g class="cls-4"><path class="cls-6" d="M87.94,90.92a3.18,3.18,0,0,0-.58.07,2.11,2.11,0,0,0-.56.09,4.5,4.5,0,0,0-.93.4l0,0-.7.54-.06,0,0,0c-.14.16-.44.55-.56.73a.21.21,0,0,0,0,.06l0,0-.35.83A2.72,2.72,0,0,0,83.91,95a2.6,2.6,0,0,0,.3,1.35,2.63,2.63,0,0,0,.73,1.13,2.58,2.58,0,0,0,1.12.72,2.62,2.62,0,0,0,1.35.3l.93-.12a3.62,3.62,0,0,0,1.55-.9l.54-.71A3.44,3.44,0,0,0,90.91,95v-.11l-.12.93,0-.12-.35.84.06-.1L90,97.1a.57.57,0,0,1,.11-.11l-.71.55.1-.06-.84.35.12,0-.94.13h.12a2.62,2.62,0,0,0,1.35-.3,2.67,2.67,0,0,0,1.13-.72,3.92,3.92,0,0,0,1-2.48l-.12-.93a3.59,3.59,0,0,0-.9-1.54l-.71-.55a3.56,3.56,0,0,0-1.77-.48Z" transform="translate(-0.37)"/></g><g class="cls-4"><path class="cls-6" d="M138,128.08c3.13-1.22,6.29-2.47,9.69-2.52l-3-5.27-3.38,5.07c-1,1.44-2.3,2.92-2.59,4.66-.76,4.48,4.11,5.11,7.35,4.85l-3.38-4.43c.12-.6.31-.53-.22,0a4.43,4.43,0,0,0-.86,1.28,4,4,0,0,0,0,3.35c1.28,2.92,4.48,2.4,7.06,2.15,4.44-.42,4.49-7.42,0-7a29.93,29.93,0,0,1-3.41.26L147,131l-.46-.26,1.61,2.09-.09-.33v1.86c-.75,1.85,0,.55.44-.08a4.47,4.47,0,0,0,.94-1.93c.4-2.05-.94-4.63-3.37-4.43-.5,0-1,.08-1.51.08-1.05-.15-1,0,.07.53l1,2.48v-.48l-.47,1.77c1.56-2.93,3.71-5.66,5.55-8.43,1.48-2.22-.47-5.3-3-5.26-4.08.06-7.79,1.3-11.55,2.77-4.15,1.62-2.34,8.39,1.86,6.75Z" transform="translate(-0.37)"/></g></g></g></svg>