<svg xmlns="http://www.w3.org/2000/svg" viewBox="0 0 90.87 89.84"><defs><style>.cls-1{fill:#fff;}.cls-2{fill:#666766;}.cls-3{opacity:0.5;}.cls-4{fill:#f4898b;}</style></defs><title>고양이클릭</title><g id="Layer_2" data-name="Layer 2"><g id="Layer_2-2" data-name="Layer 2"><path class="cls-1" d="M15.49,19.37l.1.12c.46.63.18,1.17.1,1.86a9.53,9.53,0,0,0,.05,2.77,7.81,7.81,0,0,0,.49,1.7L15.8,26C8.74,25.83,1.94,32.42,1,39.43A15,15,0,0,0,12,55.37l.08.05C11.82,73,24.37,86.33,41.43,88.22,57.52,90,74,88.77,82.61,73.06c7-12.79,11.67-38.09.51-50-4.13-4.4-12.45-7.09-17.54-3a16.23,16.23,0,0,1-1.31,1.16c-.28.21-.52.32-.58.18a11.55,11.55,0,0,0-7.08-6.64,13.43,13.43,0,0,0-9,.83c-1.36.6-3.23,1.71-3.79,3.09L43.7,18C43.91,11.13,41.18,5.59,35,2.73a20.18,20.18,0,0,0-6.83-1.51c-4.21-.33-8.58-.14-12.4,1.63-3.42,1.59-6.92,3.72-7.27,7.7a7.64,7.64,0,0,0,.87,4.14,8.5,8.5,0,0,0,2.87,3.23,5.08,5.08,0,0,0,1.49.7A3.59,3.59,0,0,1,15.49,19.37Z"/><path class="cls-2" d="M14.79,20.08c.22.27-.16,1.87-.18,2.29a9.68,9.68,0,0,0,.16,2c.12.63.24,1.71.75,2.15L16,24.86a7.33,7.33,0,0,1-1.75.19,14.59,14.59,0,0,0-2.17.42,15.38,15.38,0,0,0-4.29,2,18,18,0,0,0-6.14,6.87,15.37,15.37,0,0,0,2,16.76,16.25,16.25,0,0,0,3.78,3.38,15.43,15.43,0,0,0,2.13,1.12,12.66,12.66,0,0,1,2,.7l-.49-.87A33.17,33.17,0,0,0,26.22,84a37.16,37.16,0,0,0,16.44,5.36,69.27,69.27,0,0,0,17.91-.19A32.82,32.82,0,0,0,76,82.66c4.5-3.6,7.52-8.51,9.71-13.76C90,58.56,92.19,46.34,90,35.24,89,30.19,86.83,25,82.9,21.47c-4.18-3.7-10.83-5.86-16.12-3.32a9,9,0,0,0-1.64,1c-.49.39-1,1.14-1.6,1.35l.77.1a7.65,7.65,0,0,0-.51-1.18A14,14,0,0,0,63,18.22a13,13,0,0,0-2.22-2.34,11.27,11.27,0,0,0-5.85-2.43,14.66,14.66,0,0,0-7.14,1c-1.84.73-3.9,1.85-4.79,3.72l1.83.23c-.3-1.73-.13-3.52-.47-5.28a16.17,16.17,0,0,0-2-5.36A15.81,15.81,0,0,0,32.55.86a29.27,29.27,0,0,0-15,.25C13.81,2.28,9.44,4.57,8,8.39a8.42,8.42,0,0,0,.82,7.32,9.53,9.53,0,0,0,2.45,2.73,7,7,0,0,0,1.7,1,6.26,6.26,0,0,1,1.86.67c1,.84,2.39-.57,1.41-1.41a5,5,0,0,0-2.07-1,5.92,5.92,0,0,1-2.71-1.76,7,7,0,0,1-1.8-6.19C10.52,6.11,15,4,18.24,3a27.79,27.79,0,0,1,13.35-.28,13.86,13.86,0,0,1,9,6.12,14.54,14.54,0,0,1,1.87,5c.31,1.7.15,3.42.44,5.12a1,1,0,0,0,1.83.24c.95-2,3.67-3,5.68-3.49a11,11,0,0,1,7.12.45,10.6,10.6,0,0,1,4.67,4.44c.34.59.54,1.54,1.25,1.79s1.55-.41,2.11-.9c6-5.33,15-1.09,18.9,4.85s4.66,13.43,4.3,20.35a64.77,64.77,0,0,1-4.85,21.38C81,75,76.58,80.88,69.8,84.25S55.32,88.1,48,87.75c-7.61-.36-15-1.6-21.4-5.93a30.5,30.5,0,0,1-12.26-17,31.58,31.58,0,0,1-1-5.55c-.08-.92-.13-1.86-.14-2.79,0-.73.16-1.53-.56-2a23.8,23.8,0,0,0-2.46-.87,12.73,12.73,0,0,1-2.51-1.5,14.54,14.54,0,0,1-3.84-4.42,13.12,13.12,0,0,1-.89-11.31,15.64,15.64,0,0,1,8.55-8.63,12.65,12.65,0,0,1,2.78-.73,10.58,10.58,0,0,0,2.32-.27,1,1,0,0,0,.44-1.67c.28.23,0-.2,0-.35s-.12-.46-.17-.69a7.55,7.55,0,0,1-.14-1.71c0-1.38.56-2.52-.41-3.7C15.38,17.67,14,19.1,14.79,20.08Z"/></g><g id="Layer_3" data-name="Layer 3"><g class="cls-3"><path class="cls-4" d="M23.11,2.42l-.8,0a11.24,11.24,0,0,0-3,.44c-1.68.42-2.28.32-3.76,1.24-7,4.32-5.84,4.84-6.12,7.83a7.27,7.27,0,0,0,4.35,5.7c4.61,1.74,8.84,2,11.94-2.38A9,9,0,0,0,25.76,5,8.41,8.41,0,0,0,23.11,2.42Z"/></g><g class="cls-3"><path class="cls-4" d="M51,36.12c-4.66.51-9.17,1.25-13.17,3.9-4.73,3.14-8.23,7.83-9,13.54C27.33,65,37.74,73.73,48.66,73.71A23,23,0,0,0,70.15,57.77C71.89,52,70.57,44.7,66,40.62a16.39,16.39,0,0,0-7.45-3.9c-2.75-.58-5.31-.15-8-.44-6.79-.71-13.3,6.49-13,13,.34,7.66,5.73,12.24,13,13a7,7,0,0,0,2.41,0q6.12-.16-6.36-4.48l-1.77-6.56c.26,2.12.28-.39.5-1a4.49,4.49,0,0,1,2.12-2.51c-2,1.26,1.62-.33.13.08-.72.18-.6.18.34,0a3.72,3.72,0,0,1,2.37.15c-1.59-.33-.3-.15.48.28q3.28,1.85,2,6.41c1.74,2.49,1.85,4.52.33,6.11a4,4,0,0,1-1.63,1.41l.81-.47-1,.51c1.5-.32,1.46-.36-.13-.11,6.74-.74,13.34-5.45,13-13-.29-6.41-5.76-13.79-13-13Z"/></g><g class="cls-3"><path class="cls-4" d="M14.65,34.16c-1.06-2.88-4-5.15-7.2-4.24A29.58,29.58,0,0,1,4.6,32.78l-.75,1.33c-.24.42-.48.85-.7,1.28l-.32.66-.08.18a1.8,1.8,0,0,0-.08.21,7.56,7.56,0,0,0-.4,1.4v0c0,.59-.08,1.18-.11,1.77,0,.06,0,.12,0,.17,0,.89,0,1.78,0,2.66a2,2,0,0,1-.12.66c0,.2.1.4.14.61.13.56.23,1.13.35,1.7A6.9,6.9,0,0,0,5.2,47.37C12.84,50.59,16.72,39.81,14.65,34.16Z"/></g></g></g></svg>