<svg xmlns="http://www.w3.org/2000/svg" viewBox="0 0 279.1 278.33"><defs><style>.cls-1{fill:#333;}.cls-2{opacity:0.1;}.cls-3{fill:#f48e9a;}.cls-4{opacity:0.22;}.cls-5{fill:#f7e393;}.cls-6{fill:#eaeaea;}</style></defs><title>고양이만짐_1</title><g id="Layer_2" data-name="Layer 2"><g id="Layer_4" data-name="Layer 4"><path class="cls-1" d="M154,19.61c1.07,6.39,1.58,13-.46,19.28a29.64,29.64,0,0,1-8.67,13,28.13,28.13,0,0,1-7.58,4.73c-.59.25-.33,1.22.26,1A30.31,30.31,0,0,0,155.9,31.5,54.45,54.45,0,0,0,155,19.35c-.11-.63-1.07-.37-1,.26Z" transform="translate(-0.62)"/><path class="cls-1" d="M136.3,43.7a5.81,5.81,0,0,0-5.06-1,8.83,8.83,0,0,0-4.71,3.27c-2.44,3.08-4.55,7.59-2.65,11.44.86,1.74,2.35,3.08,3.58,4.56a13.45,13.45,0,0,1,2.66,5.68c.48,2,.72,4.07,1.22,6.08a28.88,28.88,0,0,0,15.33,19,25.17,25.17,0,0,0,19.61,1A25.44,25.44,0,0,0,181.41,78a23.05,23.05,0,0,0,.73-2.71c.14-.63-.83-.9-1-.26a24.42,24.42,0,0,1-12.72,16.61,24,24,0,0,1-18.79,1.2,27.46,27.46,0,0,1-14.19-11.74A28.34,28.34,0,0,1,132,72a60.65,60.65,0,0,0-1.25-6,13.7,13.7,0,0,0-2.63-4.9,22.78,22.78,0,0,1-3.37-4.28,7.46,7.46,0,0,1,.08-6c1.3-3.39,4.19-7.61,8.29-7.38a4.3,4.3,0,0,1,2.48.93c.49.4,1.21-.3.71-.71Z" transform="translate(-0.62)"/><path class="cls-1" d="M164.41,16.8c2,.24,3.5,2.16,4.51,3.76A15.44,15.44,0,0,1,171,26.12a14.87,14.87,0,0,1-2.6,11.12,15,15,0,0,1-4.75,4.3.5.5,0,0,0,.51.86,15.94,15.94,0,0,0,5.66-22.26c-1.22-2-3-4.05-5.42-4.34-.64-.07-.63.93,0,1Z" transform="translate(-0.62)"/><path class="cls-1" d="M152.13,2.77C143.55-2,131.68-.35,124.26,5.88c-4.31,3.61-7.24,8.89-9.35,14a99.88,99.88,0,0,0-5,17.64c-1.32,6.33-2.52,12.71-4.61,18.84a51.7,51.7,0,0,1-3.95,8.87,53.79,53.79,0,0,1-5.57,7.84c-2.1,2.51-4.38,4.86-6.7,7.16A75.72,75.72,0,0,1,83,85.86C79,89,74.63,91.6,70.64,94.74s-7.42,6.76-9.35,11.43a39.12,39.12,0,0,0-2.95,19,33.54,33.54,0,0,0,.83,4.58.5.5,0,0,0,1-.26,35.72,35.72,0,0,1,.71-19.18,28,28,0,0,1,3.39-7.59,28.36,28.36,0,0,1,4.9-5.48c3.73-3.32,8-5.93,12-8.85A88.36,88.36,0,0,0,93.55,77.12,57.14,57.14,0,0,0,104.17,62a86.53,86.53,0,0,0,5.48-18.17c2.46-11.55,4.39-24,11.91-33.6a22.66,22.66,0,0,1,5.49-5.12A25.78,25.78,0,0,1,148.38,2.2a18.67,18.67,0,0,1,3.24,1.43c.56.32,1.07-.55.51-.86Z" transform="translate(-0.62)"/><path class="cls-1" d="M148.48,52.54a12.21,12.21,0,0,1,8.35.74c.58.27,1.09-.59.51-.87a13.36,13.36,0,0,0-9.12-.83.5.5,0,0,0,.26,1Z" transform="translate(-0.62)"/><path class="cls-1" d="M163.72,65.1c.22,1-.15,2-.05,2.94a2.46,2.46,0,0,0,1.19,2c.33.18.75.29.9.67a1.23,1.23,0,0,1-.1,1c-.41.8-1.45,1.06-2.24,1.3a.5.5,0,0,0,.26,1,4.94,4.94,0,0,0,2.62-1.42,2.21,2.21,0,0,0,.23-2.51,2.59,2.59,0,0,0-1.11-.82,1.35,1.35,0,0,1-.73-1c-.21-1.11.25-2.23,0-3.36-.14-.63-1.11-.36-1,.26Z" transform="translate(-0.62)"/><path class="cls-1" d="M139,87.33c-.83,3.13-2.42,6.37-5.56,7.74a6.38,6.38,0,0,1-2.4.52,2,2,0,0,0-1.72.59,2.08,2.08,0,0,0-.15,1.69,11.47,11.47,0,0,0,.62,2.07,13.06,13.06,0,0,0,13.33,8.18,13.33,13.33,0,0,0,8.42-4.25.5.5,0,0,0-.1-.78,3.52,3.52,0,0,1-1.19-3.69,11.18,11.18,0,0,1,2.35-4.16c.39-.51-.48-1-.86-.51-1.15,1.51-2.35,3.12-2.56,5.06a4.39,4.39,0,0,0,1.75,4.16l-.1-.78a12.14,12.14,0,0,1-14.69,2.57,12.41,12.41,0,0,1-5.22-5.69,12,12,0,0,1-.67-1.91,4.83,4.83,0,0,1-.18-.92c0-.54.31-.61.79-.62a8,8,0,0,0,3.79-1c2.93-1.68,4.48-4.84,5.32-8a.5.5,0,0,0-1-.26Z" transform="translate(-0.62)"/><path class="cls-1" d="M126.45,96.12c-12.62,2.47-25,6.47-36.2,12.9S68.9,124,61.69,134.7C54.74,145,50.45,158,55,170.15c2.24,6,6.34,11.16,11,15.56a124.59,124.59,0,0,0,16,12.53,162,162,0,0,0,37.45,18.83q2.47.87,5,1.66a.51.51,0,0,0,.61-.35,136.78,136.78,0,0,1,11.3-23.72c1.29-2.16,2.64-4.27,4-6.35a.5.5,0,0,0-.3-.73c-9-2.46-18.59-5.29-25.84-11.46a24.23,24.23,0,0,1-7.63-11,22.41,22.41,0,0,1,.16-13.44,22.17,22.17,0,0,1,9.16-12.11c.55-.34,0-1.2-.5-.86-8.08,5-12.21,15.34-10.31,24.61,2,9.66,10.22,16,18.75,19.85a107.68,107.68,0,0,0,15.95,5.4l-.3-.73A139,139,0,0,0,126.7,211.2c-1,2.28-1.87,4.59-2.71,6.91l.61-.35A160.82,160.82,0,0,1,87,200.37a149.22,149.22,0,0,1-16.54-12c-4.86-4.08-9.44-8.69-12.55-14.28a30.38,30.38,0,0,1-3.66-17.82,43.89,43.89,0,0,1,6.05-17.48c6.43-11.09,16.31-20.11,27.09-26.9A110.72,110.72,0,0,1,122,98.07q2.34-.52,4.68-1c.63-.12.36-1.08-.27-1Z" transform="translate(-0.62)"/><path class="cls-1" d="M150,103.54l19.15,9.38c6,2.92,12.08,5.62,17.17,10,4.67,4,8.54,8.78,12.34,13.56,2.49,3.12,4.71,6.47,7,9.76,2.58,3.74,5.08,7.58,7.91,11.14.4.51,1.1-.2.71-.7-2.5-3.15-4.72-6.54-7-9.84s-4.66-6.87-7.18-10.16a103.21,103.21,0,0,0-11.61-13.19,45.18,45.18,0,0,0-7.47-5.59c-2.91-1.72-6-3.17-9-4.65l-21.51-10.54c-.57-.28-1.08.58-.5.87Z" transform="translate(-0.62)"/><path class="cls-1" d="M138.1,190.92A22.66,22.66,0,0,0,151.21,196c4.94.27,10.36-1.09,14.86,1.57A7,7,0,0,1,169.8,203c0,.64,1,.65,1,0-.26-4.21-4.31-7-8.15-7.69a39.3,39.3,0,0,0-8.4-.21,25.17,25.17,0,0,1-7.92-.86,21.67,21.67,0,0,1-7.53-4c-.49-.4-1.2.3-.7.71Z" transform="translate(-0.62)"/><path class="cls-1" d="M163.74,202.84l6.09,1.79c.95.28,1.93.51,2.87.85s1.39,1,.92,1.91a2.9,2.9,0,0,1-2.12,1.3,14.29,14.29,0,0,1-2.92.34,16.23,16.23,0,0,1-5.93-1.05c-.6-.23-.86.73-.27,1a17,17,0,0,0,5.36,1.08,12,12,0,0,0,5.18-.74,2.78,2.78,0,0,0,1.75-3.35,2.4,2.4,0,0,0-1.47-1.32c-.83-.33-1.71-.54-2.56-.79L164,201.88a.5.5,0,0,0-.27,1Z" transform="translate(-0.62)"/><path class="cls-1" d="M168.57,209.77a2.7,2.7,0,0,0,1.33,1.12,4.4,4.4,0,0,1,1.61.9c1.14,1.36-.49,3-1.72,3.38-3.15,1.09-7,.27-9.75-1.39-.55-.34-1,.53-.5.86a14,14,0,0,0,5.65,1.9,10.57,10.57,0,0,0,5.51-.67,3.39,3.39,0,0,0,2.05-3.83,2.6,2.6,0,0,0-1.43-1.61c-.65-.32-1.51-.49-1.89-1.17s-1.17-.06-.86.51Z" transform="translate(-0.62)"/><path class="cls-1" d="M169.74,216.54a4.22,4.22,0,0,1-3.48,3.22c-2.14.45-4.35-.5-6.21-1.47-.57-.29-1.08.57-.51.87,2.16,1.12,4.66,2.12,7.13,1.53a5.18,5.18,0,0,0,4-3.88c.11-.63-.86-.9-1-.27Z" transform="translate(-0.62)"/><path class="cls-1" d="M164.33,221a11.56,11.56,0,0,1-13.54,0c-2.37-1.76-3.57-4.53-5.12-7a29.25,29.25,0,0,0-5.8-6.46,84.77,84.77,0,0,0-8-5.75c-.54-.35-1,.51-.51.87,5.07,3.35,10.31,6.86,13.59,12.12,1.53,2.47,2.8,5.15,5.17,6.94a12.46,12.46,0,0,0,6.9,2.43,12,12,0,0,0,7.79-2.29c.5-.39,0-1.25-.51-.87Z" transform="translate(-0.62)"/><path class="cls-1" d="M154.42,5.57a25.88,25.88,0,0,1,11.76-3.05A23.49,23.49,0,0,1,177.5,5.65a34.52,34.52,0,0,1,14.24,14.84,33.05,33.05,0,0,1,2.08,23c-1.08,4.13-2.39,8.16-3.2,12.36s-1.11,8.16-1.54,12.28c-.38,3.78-1,7.69-3,11a13.26,13.26,0,0,1-7.33,6.17,10.06,10.06,0,0,1-2.37.41c-.64,0-.65,1,0,1a12.54,12.54,0,0,0,8.6-4.38,20.15,20.15,0,0,0,4.47-9.93c.77-4.2.86-8.5,1.48-12.73a95.58,95.58,0,0,1,3-13A41.89,41.89,0,0,0,196,34.33a33.62,33.62,0,0,0-2.31-11.81A35.06,35.06,0,0,0,180,6a26.63,26.63,0,0,0-11-4.26,24.47,24.47,0,0,0-12.08,1.68,32.1,32.1,0,0,0-2.93,1.33c-.57.29-.07,1.16.5.86Z" transform="translate(-0.62)"/><path class="cls-1" d="M107.69,151.6c8.45-2.82,17.9-5.7,26.37-1.38a34.93,34.93,0,0,1,6.08,4.08c.5.4,1.21-.31.71-.71-3.46-2.8-7.27-5.26-11.69-6.16-4.62-.94-9.38-.3-13.9.83-2.65.67-5.25,1.51-7.84,2.37-.61.21-.35,1.17.27,1Z" transform="translate(-0.62)"/><path class="cls-1" d="M137.13,151.94c11-1.35,22.91-4.39,33.49.54a20.78,20.78,0,0,1,6.69,4.86c.43.48,1.14-.23.71-.7a24.25,24.25,0,0,0-13-7.06c-5.69-1.23-11.54-.86-17.27-.12-3.54.46-7.06,1-10.6,1.48-.63.08-.64,1.08,0,1Z" transform="translate(-0.62)"/><path class="cls-1" d="M172.59,29.61c3.84,2.65,7.61,6.46,8.65,11.15a31,31,0,0,1,.47,7.2c0,1.32,0,2.64-.15,4a27.93,27.93,0,0,1-.68,3.74c-.56,2.4-1.1,5,.14,7.28.31.56,1.17.06.86-.51-1.18-2.19-.43-4.76.09-7a34.55,34.55,0,0,0,.74-7.66,31.46,31.46,0,0,0-.5-7.25A15.26,15.26,0,0,0,179,34.22a27.53,27.53,0,0,0-5.93-5.47c-.53-.37-1,.5-.5.86Z" transform="translate(-0.62)"/><path class="cls-1" d="M170.49,54.77a6.53,6.53,0,0,1,5.21.7c.55.34,1.05-.52.5-.86a7.52,7.52,0,0,0-6-.81.5.5,0,0,0,.27,1Z" transform="translate(-0.62)"/><path class="cls-1" d="M188.8,194l.94-.1c.63-.07.64-1.06,0-1A17.6,17.6,0,0,1,177,189,17.29,17.29,0,0,1,171,177c-.37-4.9,1.55-9.41,4.28-13.37,1.39-2,3-3.83,4.49-5.78a21.82,21.82,0,0,0,2.62-4.57c.61-1.41,1.2-2.83,1.72-4.27a14.79,14.79,0,0,0,.6-2c.08-.38.2-1-.15-1.27l-.6.78a27.37,27.37,0,0,1,3.44,2.83c.46.46.92.93,1.35,1.43a13.2,13.2,0,0,0,1.31,1.48,2.37,2.37,0,0,0,1.56.5c.77,0,1.53,0,2.29,0a33.46,33.46,0,0,1,4.24.43,34.82,34.82,0,0,1,12.11,4.36,3,3,0,0,0,1.7.66,7.72,7.72,0,0,0,2-.75,36.3,36.3,0,0,1,9.91-2.31l-.5-.5c-.33,4-2.51,7.8-2,11.83a34,34,0,0,1,.37,6.21,18.43,18.43,0,0,1-1.56,6.44.51.51,0,0,0,.18.68c6.66,3.74,13.62,7.43,19.3,12.6a30.74,30.74,0,0,1,6.36,7.78,21.57,21.57,0,0,1,1.88,4.52,28.47,28.47,0,0,1,.81,5.11,88.32,88.32,0,0,1,.88,11.13,19.72,19.72,0,0,1-3.09,10.39c-3.46,5.26-9.33,8.45-15.1,10.57a47,47,0,0,1-4.89,1.54,8.55,8.55,0,0,1-5.52-.16,4.93,4.93,0,0,1-1.83-1.36c-.36-.44-1.2-1.76-.37-2.09a4.13,4.13,0,0,1,1.05-.12,3.68,3.68,0,0,0,1-.29,3.73,3.73,0,0,0,1.54-1.38,3.54,3.54,0,0,0,.52-2c0-.64-1-.64-1,0a2.59,2.59,0,0,1-1,2.2c-.69.53-1.41.41-2.21.59-1.74.37-1.3,2.33-.54,3.42,2.22,3.2,6.5,2.81,9.77,1.85,6.25-1.82,12.69-4.62,17.22-9.45a19.81,19.81,0,0,0,4.91-9.18,35.07,35.07,0,0,0,.1-11.61c-.41-3.64-.5-7.41-1.78-10.89a26.49,26.49,0,0,0-5.44-8.7c-5.35-5.89-12.47-9.85-19.31-13.76L220.84,179l.18.68a22.83,22.83,0,0,0,1.4-12.64c-.6-4.23,1.59-8.17,1.94-12.34a.51.51,0,0,0-.5-.5A37.32,37.32,0,0,0,215.3,156c-.65.22-1.3.46-1.94.71l-.86.36a1.25,1.25,0,0,1-1.41-.07A38.07,38.07,0,0,0,207.4,155a36.49,36.49,0,0,0-8-2.55,36.88,36.88,0,0,0-4-.57c-.66-.05-1.32-.09-2-.11s-1.47.08-2.17,0-1.19-.9-1.64-1.43-1-1.14-1.57-1.68a26.73,26.73,0,0,0-3.64-3c-.46-.32-1,.41-.6.78,0,0-.05-.13-.07-.11s0,.16,0,.19a4.91,4.91,0,0,1-.17.76c-.18.64-.41,1.28-.64,1.9-.47,1.26-1,2.51-1.52,3.74a21.77,21.77,0,0,1-3,4.94c-1.53,1.93-3.12,3.79-4.48,5.84-2.64,4-4.4,8.6-4,13.46a18.35,18.35,0,0,0,5.78,11.95,18.55,18.55,0,0,0,14,4.74v-1l-.94.1c-.64.06-.64,1.06,0,1Z" transform="translate(-0.62)"/><path class="cls-1" d="M189.1,194a133.93,133.93,0,0,1,.44,16.64c-.1,2.77-.29,5.55-.56,8.31-.14,1.38-.29,2.76-.48,4.14a12.07,12.07,0,0,1-.81,4c-.82,1.59-2.61,2.46-3.34,4.11s.28,3.39,1.88,4.14a10.67,10.67,0,0,0,5.64.79,8.46,8.46,0,0,0,5-2.14c1.83-1.79,2.14-4.39,2.08-6.82-.08-3.06-.31-6.13-.47-9.19,0-.64-1-.64-1,0,.13,2.62.28,5.23.41,7.84.12,2.15.25,4.53-.91,6.44-1.91,3.13-6.79,3.58-9.94,2.37a3,3,0,0,1-1.91-1.65,2.36,2.36,0,0,1,.63-2.22c1.13-1.34,2.61-2.33,3.12-4.09a22.71,22.71,0,0,0,.58-3.57c.17-1.3.32-2.6.46-3.9.25-2.56.44-5.12.55-7.69a132.75,132.75,0,0,0-.41-17.5c0-.64-1-.64-1,0Z" transform="translate(-0.62)"/><path class="cls-1" d="M196.24,216.89A18.26,18.26,0,0,0,205,220.3c.64.07.63-.93,0-1a17.45,17.45,0,0,1-8.24-3.27c-.52-.38-1,.49-.5.86Z" transform="translate(-0.62)"/><path class="cls-1" d="M201.8,220.07a47.69,47.69,0,0,1,1.63,10.55,8.83,8.83,0,0,1-.87,4.7c-.65,1.18-1.52,2.38-1.36,3.8a3.62,3.62,0,0,0,2.18,2.73,8.93,8.93,0,0,0,4.59.38,4.93,4.93,0,0,0,3.74-1.66,9.76,9.76,0,0,0,1.58-4c.83-3.74.6-7.6.36-11.39,0-.64-1-.65-1,0a47.58,47.58,0,0,1,0,9.32,16.08,16.08,0,0,1-1.08,4.33,4.25,4.25,0,0,1-1.06,1.55,3.81,3.81,0,0,1-2.11.78,8.94,8.94,0,0,1-4.51-.21,2.44,2.44,0,0,1-1.56-3c.38-1.23,1.28-2.23,1.7-3.45a11.41,11.41,0,0,0,.4-4.11,50,50,0,0,0-1.65-10.6.5.5,0,0,0-1,.27Z" transform="translate(-0.62)"/><path class="cls-1" d="M213.32,232.55A13.42,13.42,0,0,0,222,236.9c.64.06.63-.94,0-1a12.37,12.37,0,0,1-7.95-4.06c-.44-.48-1.14.23-.71.71Z" transform="translate(-0.62)"/><path class="cls-1" d="M249.89,207.49c3.92-9.05,4.87-18.93,6.33-28.59a96.76,96.76,0,0,1,3-14.19,47.67,47.67,0,0,1,2.68-6.83,27.22,27.22,0,0,1,3.92-6.17,10.33,10.33,0,0,1,6-3.56c2.19-.33,4.7.27,6,2.21a4.72,4.72,0,0,1,.12,5.34c-1.37,1.76-3.93,1.94-5.73,3.07-2,1.27-3.23,3.44-4.2,5.55a51.15,51.15,0,0,0-2.7,7.4,135.54,135.54,0,0,0-3.18,15.85c-1.57,9.61-3.38,19.73-9.27,27.76a29.45,29.45,0,0,1-2.32,2.78c-.44.47.27,1.17.71.7,7-7.42,9.56-17.63,11.25-27.4,1-5.5,1.69-11,3-16.49A61.07,61.07,0,0,1,268,167c.93-2.36,2-5,3.92-6.73,1.74-1.54,4.22-1.7,6-3.12a5.11,5.11,0,0,0,1.66-5.18,6.1,6.1,0,0,0-3.73-4.38,8.71,8.71,0,0,0-6.59.29c-4.53,2-7.2,7-9.07,11.34a65.41,65.41,0,0,0-4.1,14.35c-1.82,10-2.38,20.27-5.71,29.92-.41,1.19-.86,2.36-1.35,3.5-.26.59.61,1.1.86.51Z" transform="translate(-0.62)"/><ellipse class="cls-1" cx="190.88" cy="164.12" rx="3.06" ry="1.57" transform="translate(-38.58 269) rotate(-65.31)"/><ellipse class="cls-1" cx="202.49" cy="168.91" rx="3.06" ry="1.57" transform="translate(-36.18 282.34) rotate(-65.31)"/><ellipse class="cls-1" cx="153.36" cy="61.55" rx="3.92" ry="2.01" transform="translate(43.95 185.95) rotate(-70.7)"/><ellipse class="cls-1" cx="171.72" cy="63.08" rx="3.55" ry="1.81" transform="translate(54.8 204.29) rotate(-70.7)"/><ellipse class="cls-1" cx="192.43" cy="172.75" rx="1.95" ry="1.76" transform="translate(-45.53 275.43) rotate(-65.31)"/><path class="cls-1" d="M191.21,174a8.65,8.65,0,0,1-2,2.94,17.67,17.67,0,0,1-3.24,2.38c-.54.34,0,1.2.51.86a18.59,18.59,0,0,0,3.5-2.6,9.75,9.75,0,0,0,2.19-3.32.5.5,0,0,0-.35-.61.52.52,0,0,0-.62.35Z" transform="translate(-0.62)"/><path class="cls-1" d="M190.93,174.61c-1.48,2.42-1.67,5.31-1.66,8.08a.5.5,0,0,0,1,0c0-2.59.13-5.31,1.52-7.57a.5.5,0,0,0-.86-.51Z" transform="translate(-0.62)"/><path class="cls-1" d="M178.5,165.05c-1.07-2.12-3.35-3.14-5.42-4a63.47,63.47,0,0,0-8.11-2.86.4.4,0,0,0-.22.77,62.34,62.34,0,0,1,7.75,2.7c2,.85,4.28,1.78,5.3,3.83.23.46.93,0,.7-.41Z" transform="translate(-0.62)"/><path class="cls-1" d="M176.25,168.74a16.75,16.75,0,0,0-10.5-2.54c-.51.05-.51.85,0,.8a16,16,0,0,1,10.09,2.43c.44.28.84-.42.41-.69Z" transform="translate(-0.62)"/><path class="cls-1" d="M203.61,242.29a76.21,76.21,0,0,0-5.38,21.34c-.11.93-.21,1.87-.3,2.81a15.69,15.69,0,0,1-.29,2.65c-.62,2.29-3.18.48-4.49,0-3.11-1.27-6.54-1-9.77-.42-3.61.69-7.16,1.76-10.74,2.63s-7,1.63-10.58,2.28-7,1-10.55,1.58-7.24,1.29-10.93,1.67a108.58,108.58,0,0,1-23.15-.14,107.28,107.28,0,0,1-11.67-2c-3.68-.84-7.35-1.8-11.1-2.28a42.41,42.41,0,0,0-11.25.3,68.16,68.16,0,0,1-11.33.7c-7.41-.25-14.69-1.77-21.87-3.46s-14.36-3.58-21.68-4.67a102.13,102.13,0,0,0-10.76-1,82.82,82.82,0,0,1-11.24-.9A30.33,30.33,0,0,1,1.24,262l.12.91C12.08,256,22.8,249,31.59,239.69a183.44,183.44,0,0,0,12.27-14.85q6.26-8.21,12.48-16.46l14.21-18.74c.38-.51-.48-1-.87-.51L44.92,221.8C41,227,37.1,232.1,32.78,236.91A102.54,102.54,0,0,1,18.51,250c-5.67,4.31-11.66,8.16-17.65,12A.5.5,0,0,0,1,263c7,2.57,14.6,2,21.94,2.64,7.57.64,15,2.41,22.34,4.18A169.5,169.5,0,0,0,67,274a64,64,0,0,0,11.07.26c3.88-.27,7.71-1.13,11.6-1.2a49.62,49.62,0,0,1,11.86,1.62c3.83.88,7.65,1.77,11.55,2.37a109.67,109.67,0,0,0,23.26,1.05,107.59,107.59,0,0,0,11.45-1.32c1.61-.27,3.2-.64,4.83-.83,1.8-.22,3.6-.46,5.39-.74,7.37-1.14,14.6-2.93,21.82-4.77,3.52-.89,7.3-1.83,10.94-1.09,1.64.33,3,1.25,4.57,1.71a2.4,2.4,0,0,0,3-1.09c.65-1.29.5-3.09.65-4.49q.3-3,.78-6a76.27,76.27,0,0,1,2.61-11.16,57,57,0,0,1,2.06-5.51c.25-.58-.61-1.09-.87-.5Z" transform="translate(-0.62)"/><path class="cls-1" d="M210.16,176.05a25.65,25.65,0,0,1,14.57-.66c.5.12.71-.65.21-.77a26.4,26.4,0,0,0-15,.66c-.48.17-.27.94.21.77Z" transform="translate(-0.62)"/><path class="cls-1" d="M207.78,179.9a18.88,18.88,0,0,1,10.79,6.58c.32.4.88-.17.56-.56A19.54,19.54,0,0,0,208,179.13c-.5-.11-.71.66-.21.77Z" transform="translate(-0.62)"/></g><g id="Layer_5" data-name="Layer 5"><g class="cls-2"><path class="cls-3" d="M139.73,73a1.91,1.91,0,0,1-.88.48c.34-.09.33-.09,0,0a1.14,1.14,0,0,1-.79,0c.33.1.35.08,0,0s-.3-.14,0,0a1.51,1.51,0,0,1-.64-.66c.41.65,0-.67.08.16-.19-1.24,0,.12-.07.16.08-.54.07-.59,0-.14l.18-.38c-.82,1.35.4,1.18,3.64-.51l.41.3c.34.44.39.47.17.08.2.5.23.55.09.14a4,4,0,0,0-7.71,2.13c.88,2.85,3.05,5.29,6.29,4.86s4.95-3.8,5-6.79a7.2,7.2,0,0,0-3.59-6.39,6.72,6.72,0,0,0-7.82,1,4,4,0,0,0,0,5.65,4.08,4.08,0,0,0,5.66,0Z" transform="translate(-0.62)"/></g><g class="cls-2"><path class="cls-3" d="M176,73.83a6.61,6.61,0,0,0-1.47.15,4.45,4.45,0,0,0-1,.33,5.64,5.64,0,0,0-2,1.36,4.22,4.22,0,0,0-1.17,2.83,4.06,4.06,0,0,0,1.17,2.83,4,4,0,0,0,5.66,0,1.9,1.9,0,0,1,.29-.28l-.81.62a2.76,2.76,0,0,1,.44-.25l-.95.41a2.09,2.09,0,0,1,.49-.13l-1.07.14a1.88,1.88,0,0,1,.41,0A4,4,0,0,0,178.78,75l-.81-.62a3.91,3.91,0,0,0-2-.55Z" transform="translate(-0.62)"/></g><g class="cls-4"><path class="cls-1" d="M160.56,9.77c-9.26-9.91-25.13-7.77-34.4,1-11.52,10.87-12.57,27.41-16.33,41.82a46.42,46.42,0,0,1-11,20.7c-5.51,5.88-12,10.69-18.17,15.88C69.47,98.59,59.41,110.51,59,125.79c-.17,6.44,9.83,6.44,10,0,.36-13.34,11-23.17,20.55-31.11,10-8.28,20.67-16.43,26.15-28.58s5.52-25.68,10.63-37.82c2.3-5.47,5.92-11.06,11.5-13.59,5.27-2.39,11.56-2.23,15.66,2.15,4.4,4.72,11.46-2.37,7.07-7.07Z" transform="translate(-0.62)"/></g><g class="cls-4"><path class="cls-1" d="M152.08,24.34c.71,3.21-.13,6.45-1.17,9.48a51.71,51.71,0,0,1-3.84,8.84c-2.85,5-7,9.52-12.69,11.3-2.44.77-1.4,4.63,1.07,3.86,6.64-2.09,11.71-7.18,15.07-13.14a56.93,56.93,0,0,0,4.39-10.22,20.93,20.93,0,0,0,1-11.18c-.56-2.51-4.42-1.45-3.86,1.06Z" transform="translate(-0.62)"/></g><g class="cls-4"><path class="cls-5" d="M123.75,100.93c-14.36,2.25-26.66,10.23-38.35,18.39-11.18,7.81-23.11,16.79-25,31.32-.89,7,1.28,13.11,5,19S71.87,182.2,76,187.76C84.45,199,100.54,203,113,208.1c7.14,2.92,10.25-8.69,3.19-11.58-5.54-2.26-11.11-4.47-16.62-6.8-4.93-2.08-10.22-4.45-13.63-8.73s-5.34-10-8.39-14.73c-3.21-4.95-6.32-9.46-5-15.62,2.37-10.89,13.91-17.56,22.41-23.37,9.86-6.75,20-12.89,32-14.77,7.61-1.19,4.38-12.76-3.19-11.57Z" transform="translate(-0.62)"/></g><g class="cls-4"><path class="cls-5" d="M145.06,135.35l19.65-2.65-2.7-6.4c-3.47,2.14-8.15,2.67-12.06,3.68l-13.34,3.45c-4,1-2.82,6.52.93,6.87a196.49,196.49,0,0,0,26.13.69l-1.77-6.52-2.66,2c-2.74,2.08-1.89,6.28,1.77,6.53a13.2,13.2,0,0,1,4.36.81l-2.09-5.14-.13-.11a3.56,3.56,0,0,0-1.6,4,3.78,3.78,0,0,0,2.16,2.78c4.07,1.87,7.63-4.16,3.54-6.05l1.05,1.41-1.61,4a7.1,7.1,0,0,0,2.64-2.41c1.41-1.86-.15-4.57-2.09-5.14A28.21,28.21,0,0,0,161,136l1.76,6.52,2.67-2c2.52-1.91,2.05-6.68-1.77-6.53a196.49,196.49,0,0,1-26.13-.69l.93,6.88,15.12-3.91c4-1,8.37-1.71,11.95-3.92s1.05-6.91-2.69-6.4L143.2,128.6c-4.44.6-2.55,7.35,1.86,6.75Z" transform="translate(-0.62)"/></g><g class="cls-4"><path class="cls-6" d="M141.5,148.47a2.81,2.81,0,0,0-.65.07,3.31,3.31,0,0,0-.63.1,4.75,4.75,0,0,0-1,.44,8.23,8.23,0,0,0-.75.57l-.09.08-.06.07a8.34,8.34,0,0,0-.58.75l-.06.1a6.82,6.82,0,0,0-.37.88,2.88,2.88,0,0,0-.19,1.3,2.84,2.84,0,0,0,.3,1.35,2.69,2.69,0,0,0,.73,1.12,2.66,2.66,0,0,0,1.12.73,2.62,2.62,0,0,0,1.35.3l.93-.13a3.38,3.38,0,0,0,1.55-.9l.55-.7a3.55,3.55,0,0,0,.47-1.77,1.15,1.15,0,0,1,0-.19l-.13.93a.64.64,0,0,1,.06-.18l-.36.83a1.4,1.4,0,0,1,.1-.16l-.55.71a1.37,1.37,0,0,1,.17-.17l-.71.55.17-.1-.84.35.18-.05-.93.12h.19a2.62,2.62,0,0,0,1.35-.3,3.1,3.1,0,0,0,1.85-1.85A2.62,2.62,0,0,0,145,152l-.12-.93a3.53,3.53,0,0,0-.9-1.54l-.71-.55a3.46,3.46,0,0,0-1.77-.48Z" transform="translate(-0.62)"/></g><g class="cls-4"><path class="cls-6" d="M221.85,204.31c5.26-2.06,10.52-4.08,16.23-4.16l-3-5.27-5.46,8.2c-1.36,2-3.51,4.28-3.93,6.72-1,5.74,6,5.71,9.76,5.4l-3.37-4.43c-.12.61-1.54,1.65-1.86,2.33a4.14,4.14,0,0,0,0,3.74c1.77,3.62,6.24,2.46,9.44,2.16,4.44-.43,4.49-7.43,0-7-.84.08-4.07.71-4.48.47l1.61,2.09c-.79,1.91-.75,2.37.14,1.35a4.51,4.51,0,0,0,.81-.88,5.51,5.51,0,0,0,1.14-2.4c.4-2-.95-4.63-3.38-4.43-.45,0-3.8.41-3.85.37l1,2.47c0,.45,1.29-1.79,1.48-2.08l2.34-3.52,4.69-7c1.48-2.22-.48-5.3-3-5.26-6.38.09-12.21,2.11-18.09,4.41-4.15,1.62-2.35,8.39,1.86,6.75Z" transform="translate(-0.62)"/></g></g></g></svg>