<svg xmlns="http://www.w3.org/2000/svg" viewBox="0 0 173 172.52"><defs><style>.cls-1{fill:#333;}.cls-2{opacity:0.1;}.cls-3{fill:#f48e9a;}.cls-4{opacity:0.22;}.cls-5{fill:#f7e393;}.cls-6{fill:#eaeaea;}</style></defs><title>고양이만짐</title><g id="Layer_2" data-name="Layer 2"><g id="Layer_4" data-name="Layer 4"><path class="cls-1" d="M95.49,12.37c.66,3.93,1,8-.3,11.87A18.1,18.1,0,0,1,90,32.1,17,17,0,0,1,85.29,35c-.58.24-.33,1.21.27,1A18.94,18.94,0,0,0,97,19.72a34.83,34.83,0,0,0-.58-7.62c-.11-.63-1.07-.36-1,.27Z" transform="translate(-0.62)"/><path class="cls-1" d="M84.86,27.08c-2-1.59-4.61-.62-6.12,1.15s-3,4.7-2,7.14a10.14,10.14,0,0,0,2.05,2.83,8.34,8.34,0,0,1,1.86,3.45c.34,1.27.49,2.59.78,3.87a18.65,18.65,0,0,0,1.06,3.19c3.43,7.84,12.53,12.67,20.8,9.61a15.9,15.9,0,0,0,10-11.52c.14-.63-.83-.9-1-.27a14.93,14.93,0,0,1-7.68,10.12,14.65,14.65,0,0,1-11.44.81,16.75,16.75,0,0,1-8.73-7.1,17.3,17.3,0,0,1-2.16-5.44c-.48-2.34-.7-4.76-2.22-6.71a20.08,20.08,0,0,1-2.25-2.81A4.68,4.68,0,0,1,78,31.17a8,8,0,0,1,2.47-3.23,3.11,3.11,0,0,1,3.64-.15c.5.4,1.21-.31.71-.71Z" transform="translate(-0.62)"/><path class="cls-1" d="M102.11,10.77c1.52.2,2.59,2,3.17,3.24a9.34,9.34,0,0,1,.83,4.57,9.19,9.19,0,0,1-4.56,7.13.5.5,0,0,0,.51.87,10.24,10.24,0,0,0,5.07-8.4,10.43,10.43,0,0,0-1.21-5.13c-.8-1.5-2-3-3.81-3.28-.63-.09-.63.91,0,1Z" transform="translate(-0.62)"/><path class="cls-1" d="M94.61,1.73c-5.36-3-12.66-2-17.34,1.85a22,22,0,0,0-5.87,8.66,59.58,59.58,0,0,0-3.12,10.88,101.28,101.28,0,0,1-2.87,11.79,31.93,31.93,0,0,1-5.87,10.35c-1.3,1.53-2.69,3-4.12,4.39a44.6,44.6,0,0,1-3.86,3.54c-2.49,2-5.21,3.58-7.69,5.55a18,18,0,0,0-5.74,7.11,24.35,24.35,0,0,0-1.81,11.8,21.59,21.59,0,0,0,.52,2.87.5.5,0,0,0,1-.27,21.93,21.93,0,0,1,.47-11.83,17.15,17.15,0,0,1,2.08-4.62,18,18,0,0,1,3-3.37c2.32-2,5-3.65,7.47-5.47a54.17,54.17,0,0,0,7.49-6.87A36.12,36.12,0,0,0,65,38.75a52.19,52.19,0,0,0,3.37-10.93C69.87,20.66,71,13,75.5,6.94A14.33,14.33,0,0,1,83,1.69a15.37,15.37,0,0,1,9.06,0,11.94,11.94,0,0,1,2,.89.5.5,0,0,0,.51-.87Z" transform="translate(-0.62)"/><path class="cls-1" d="M92.31,32.87a7.37,7.37,0,0,1,5,.43.5.5,0,0,0,.68-.18.49.49,0,0,0-.18-.68,8.48,8.48,0,0,0-5.78-.54.5.5,0,0,0,.26,1Z" transform="translate(-0.62)"/><path class="cls-1" d="M101.5,40.5a15,15,0,0,1,0,1.77,1.72,1.72,0,0,0,.84,1.42c.15.08.4.14.47.32a.57.57,0,0,1,0,.44c-.21.45-.85.59-1.27.72a.5.5,0,0,0,.26,1,3.23,3.23,0,0,0,1.7-.92,1.58,1.58,0,0,0,.18-1.79,1.89,1.89,0,0,0-.76-.58.66.66,0,0,1-.36-.52,3.32,3.32,0,0,1,0-.89,3.4,3.4,0,0,0,0-1.19c-.14-.63-1.11-.36-1,.26Z" transform="translate(-0.62)"/><path class="cls-1" d="M86.21,54.15c-.54,2-1.61,4.16-3.76,4.81-.72.22-1.92-.07-2.3.77a3.45,3.45,0,0,0,.39,2.38,8.25,8.25,0,0,0,8.34,5.14,8.49,8.49,0,0,0,5.4-2.68.51.51,0,0,0-.1-.79c-1.69-1.18-.07-3.47.79-4.59.39-.51-.48-1-.87-.51A6.5,6.5,0,0,0,92.48,62a2.91,2.91,0,0,0,1.19,2.61l-.1-.78a7.32,7.32,0,0,1-9,1.47,7.49,7.49,0,0,1-3.09-3.56,7.15,7.15,0,0,1-.35-1.11c-.05-.21-.12-.44.06-.53a3.21,3.21,0,0,1,.76,0,5.14,5.14,0,0,0,2.19-.83,8.26,8.26,0,0,0,3-4.85.5.5,0,0,0-1-.26Z" transform="translate(-0.62)"/><path class="cls-1" d="M78.58,59.45a73.19,73.19,0,0,0-22.42,8,53.39,53.39,0,0,0-17.76,16c-4.3,6.35-6.95,14.43-4.21,21.94A26.34,26.34,0,0,0,41,115.1a77.47,77.47,0,0,0,10,7.82,100.15,100.15,0,0,0,23.24,11.7c1,.36,2.07.7,3.11,1a.51.51,0,0,0,.62-.35,85.41,85.41,0,0,1,9.47-18.55.5.5,0,0,0-.3-.73c-5.51-1.5-11.38-3.23-15.83-7a14.88,14.88,0,0,1-4.68-6.62,13.71,13.71,0,0,1,0-8.31,13.52,13.52,0,0,1,5.61-7.45c.54-.35,0-1.21-.51-.87a15,15,0,0,0-6.48,15.33c1.18,6.06,6.32,10.08,11.66,12.48a67,67,0,0,0,10,3.38l-.29-.73A86,86,0,0,0,76.93,135l.61-.35A99.16,99.16,0,0,1,54.45,124a93.16,93.16,0,0,1-10.25-7.39,32.63,32.63,0,0,1-7.8-8.84,18.64,18.64,0,0,1-2.23-11A27,27,0,0,1,38,86c4-6.76,10-12.26,16.59-16.41A68.05,68.05,0,0,1,75.91,61c1-.23,2-.43,2.94-.62.63-.13.36-1.09-.27-1Z" transform="translate(-0.62)"/><path class="cls-1" d="M93.11,64.39l11.75,5.75c3.63,1.78,7.38,3.42,10.5,6,4.86,4.06,8.56,9.41,12.13,14.58,1.59,2.31,3.14,4.68,4.89,6.88.39.5,1.1-.21.7-.71-3.13-4-5.68-8.36-8.76-12.37a64,64,0,0,0-7.27-8.24c-3-2.73-6.52-4.51-10.14-6.28l-13.3-6.52c-.57-.28-1.08.58-.5.87Z" transform="translate(-0.62)"/><path class="cls-1" d="M85.7,118.4A14.52,14.52,0,0,0,90.46,121a17.09,17.09,0,0,0,6,.62c2-.07,4-.22,5.9.58a4.45,4.45,0,0,1,2.94,3.52c0,.64,1,.65,1,0a5,5,0,0,0-2.41-3.83,9.5,9.5,0,0,0-5.27-1.32c-2.22,0-4.44.27-6.64-.21a13.24,13.24,0,0,1-5.52-2.65c-.5-.41-1.21.3-.71.7Z" transform="translate(-0.62)"/><path class="cls-1" d="M101.65,125.83l3.76,1.1c.59.18,1.2.32,1.78.53s.68.44.46.9a1.66,1.66,0,0,1-1.2.72,8.71,8.71,0,0,1-1.76.2,9.74,9.74,0,0,1-3.62-.65c-.6-.22-.86.74-.26,1a10.68,10.68,0,0,0,3.36.67,7.56,7.56,0,0,0,3.3-.48,1.91,1.91,0,0,0,1.17-2.29c-.37-1-1.73-1.17-2.62-1.43l-4.11-1.21a.5.5,0,0,0-.26,1Z" transform="translate(-0.62)"/><path class="cls-1" d="M104.52,130a1.86,1.86,0,0,0,.89.77,2.53,2.53,0,0,1,.94.51.92.92,0,0,1,0,1,1.68,1.68,0,0,1-1,.76,7.26,7.26,0,0,1-5.88-.84.5.5,0,0,0-.51.86,8.83,8.83,0,0,0,3.59,1.2,6.67,6.67,0,0,0,3.51-.43,2.29,2.29,0,0,0,1.35-2.59,1.81,1.81,0,0,0-1-1.11c-.36-.18-.89-.28-1.1-.65-.31-.57-1.17-.06-.86.5Z" transform="translate(-0.62)"/><path class="cls-1" d="M105.23,134.07a2.44,2.44,0,0,1-2,1.85,5.71,5.71,0,0,1-3.69-.89c-.57-.29-1.08.57-.51.87a6.76,6.76,0,0,0,4.56,1,3.39,3.39,0,0,0,2.63-2.54c.11-.63-.85-.9-1-.26Z" transform="translate(-0.62)"/><path class="cls-1" d="M102,136.68a7,7,0,0,1-8.34-.14c-1.41-1.14-2.11-2.86-3.09-4.34a18.19,18.19,0,0,0-3.5-3.83,54.38,54.38,0,0,0-4.94-3.57c-.54-.35-1,.51-.51.87,3.21,2.12,6.46,4.32,8.49,7.68a12.94,12.94,0,0,0,3.28,4.23A7.89,7.89,0,0,0,97.59,139a7.62,7.62,0,0,0,4.88-1.45c.51-.38,0-1.24-.5-.86Z" transform="translate(-0.62)"/><path class="cls-1" d="M96,3.8a15.86,15.86,0,0,1,7.22-1.87,14.52,14.52,0,0,1,7,2,21.13,21.13,0,0,1,8.67,9.16,20.26,20.26,0,0,1,1.2,14c-.66,2.49-1.45,4.93-1.94,7.46s-.71,5-1,7.47-.65,5.28-2.1,7.5A7.38,7.38,0,0,1,109.54,53c-.64,0-.64,1,0,1,4.69-.26,7.44-4.64,8.24-8.84.51-2.65.56-5.37,1-8A59.48,59.48,0,0,1,120.6,29a26.05,26.05,0,0,0,1.26-7.63A21,21,0,0,0,120.39,14a22,22,0,0,0-8.63-10.33A16.36,16.36,0,0,0,104,1a16.61,16.61,0,0,0-8.48,2c-.58.3-.07,1.16.5.87Z" transform="translate(-0.62)"/><path class="cls-1" d="M67.08,94.13C70.46,93,74,91.86,77.57,91.9A12.78,12.78,0,0,1,82.74,93,21,21,0,0,1,87,95.75c.49.4,1.21-.3.7-.7-2.84-2.29-5.93-4-9.65-4.14S70.42,92,66.81,93.17c-.61.2-.35,1.17.27,1Z" transform="translate(-0.62)"/><path class="cls-1" d="M85.24,94.35c4.67-.58,9.37-1.61,14.1-1.28,3.92.28,7.91,1.6,10.62,4.57.43.47,1.14-.23.7-.71-2.75-3-6.75-4.43-10.73-4.81-4.93-.48-9.83.63-14.69,1.23-.63.08-.64,1.08,0,1Z" transform="translate(-0.62)"/><path class="cls-1" d="M107.07,18.67a15.6,15.6,0,0,1,4.06,4,9.84,9.84,0,0,1,1.49,5.5,24.54,24.54,0,0,1-.4,5.93c-.39,1.7-.86,3.47,0,5.11.3.57,1.16.06.86-.51-.93-1.78.13-3.94.38-5.77a28.35,28.35,0,0,0,.09-6.11,9.8,9.8,0,0,0-1.93-5.17,17.58,17.58,0,0,0-4-3.85c-.53-.37-1,.5-.51.87Z" transform="translate(-0.62)"/><path class="cls-1" d="M105.92,34.24a3.84,3.84,0,0,1,3.08.42.5.5,0,1,0,.5-.86,4.86,4.86,0,0,0-3.85-.52.5.5,0,0,0-.35.61.51.51,0,0,0,.62.35Z" transform="translate(-0.62)"/><path class="cls-1" d="M117.19,120.35l.59-.06c.63-.07.64-1.06,0-1a10.74,10.74,0,0,1-7.94-2.56,10.58,10.58,0,0,1-3.52-7.45,13.21,13.21,0,0,1,2.9-8.15c.86-1.2,1.86-2.29,2.72-3.49A13.61,13.61,0,0,0,113.41,95c.39-.9.77-1.82,1.1-2.75.17-.51.65-1.54.17-2l-.61.78a15.81,15.81,0,0,1,2.66,2.31,12.87,12.87,0,0,0,1.1,1.23,1.93,1.93,0,0,0,1.28.34,23.29,23.29,0,0,1,6.83,1,21.11,21.11,0,0,1,3.34,1.37c.77.4,1.66,1.23,2.56.94,1.14-.36,2.21-.87,3.38-1.18a22.59,22.59,0,0,1,3.66-.63l-.5-.5c-.21,2.43-1.52,4.77-1.26,7.24a23.55,23.55,0,0,1,.25,3.75,11.31,11.31,0,0,1-1,4,.52.52,0,0,0,.18.68c4.05,2.28,8.27,4.51,11.75,7.63a19.37,19.37,0,0,1,4,4.74,14.23,14.23,0,0,1,1.71,5.87c.44,4.5,1.37,9.16-1.22,13.22-2.07,3.25-5.66,5.24-9.19,6.55-2,.76-4.89,2-6.92.65a2.08,2.08,0,0,1-1-1.22c0-.37.33-.32.61-.35a2.49,2.49,0,0,0,.7-.18,2.46,2.46,0,0,0,1.44-2.29c0-.64-1-.65-1,0a1.44,1.44,0,0,1-.73,1.32c-.47.26-1.05.08-1.52.36-.85.51-.5,1.63,0,2.28,1.3,1.85,3.76,1.86,5.74,1.35,4-1,8.17-2.87,11.08-5.88a12.53,12.53,0,0,0,3.13-5.46,20.34,20.34,0,0,0,.21-7.42,30.91,30.91,0,0,0-1.08-6.91,16.6,16.6,0,0,0-3.3-5.42c-3.76-4.24-9-7-13.86-9.7l.18.69a14.33,14.33,0,0,0,.91-7.8c-.37-2.67,1-5.12,1.18-7.75a.51.51,0,0,0-.5-.5,22.9,22.9,0,0,0-6.72,1.6,1.68,1.68,0,0,1-.73.25,1.47,1.47,0,0,1-.67-.31c-.51-.29-1-.57-1.56-.82a23.34,23.34,0,0,0-3-1.18,22.35,22.35,0,0,0-6.43-1c-.29,0-.57,0-.86,0a1,1,0,0,1-.77-.48c-.32-.38-.65-.76-1-1.12a17.57,17.57,0,0,0-2.56-2.15c-.47-.33-1,.39-.61.78-.16-.16-.06-.23-.12,0l-.12.47c-.14.44-.29.86-.46,1.29-.28.73-.58,1.46-.89,2.18-1.16,2.61-3.34,4.56-4.84,7a12.86,12.86,0,0,0-2.15,8.31,11.58,11.58,0,0,0,3.67,7.23,11.73,11.73,0,0,0,8.72,2.91v-1l-.59.06c-.63.07-.64,1.07,0,1Z" transform="translate(-0.62)"/><path class="cls-1" d="M117.19,120.19a83,83,0,0,1,.26,10.58c-.07,1.74-.19,3.49-.37,5.22-.09.89-.2,1.77-.32,2.65a4.68,4.68,0,0,1-.68,2.32c-.63.82-1.65,1.41-1.93,2.47a2.23,2.23,0,0,0,1.5,2.55,6.49,6.49,0,0,0,6.69-.93,5.46,5.46,0,0,0,1.35-4.15c0-2-.19-3.93-.29-5.89,0-.64-1-.64-1,0,.08,1.58.16,3.16.25,4.73.07,1.35.19,2.88-.57,4.06-1.17,1.82-4.23,2.11-6.07,1.25a1.31,1.31,0,0,1-.92-1.14,2.06,2.06,0,0,1,.76-1.26,5.13,5.13,0,0,0,1.72-2.72,63.76,63.76,0,0,0,.88-9,81.32,81.32,0,0,0-.26-10.7c0-.64-1-.65-1,0Z" transform="translate(-0.62)"/><path class="cls-1" d="M121.7,134.5a11.6,11.6,0,0,0,5.5,2.13.5.5,0,0,0,.5-.5.51.51,0,0,0-.5-.5,10.45,10.45,0,0,1-5-2,.5.5,0,1,0-.51.87Z" transform="translate(-0.62)"/><path class="cls-1" d="M125.05,136.35a28.59,28.59,0,0,1,1,6.63,5.35,5.35,0,0,1-.72,3,3.33,3.33,0,0,0-.63,2.32c.43,1.95,2.74,2,4.32,1.9a3.36,3.36,0,0,0,2.43-1,6,6,0,0,0,1-2.44,24.88,24.88,0,0,0,.27-7.26c0-.63-1-.64-1,0a23,23,0,0,1-.29,7.22c-.27,1.06-.63,2.18-1.83,2.43-1,.21-2.56.38-3.44-.3-1.06-.81-.22-1.88.25-2.77a5.86,5.86,0,0,0,.61-2.86,29,29,0,0,0-1-7.11.5.5,0,0,0-1,.27Z" transform="translate(-0.62)"/><path class="cls-1" d="M132.23,144.15a8.48,8.48,0,0,0,5.49,2.75.5.5,0,0,0,.5-.5.51.51,0,0,0-.5-.5,7.47,7.47,0,0,1-4.79-2.45c-.43-.48-1.13.23-.7.7Z" transform="translate(-0.62)"/><path class="cls-1" d="M155.15,128.61c2.39-5.54,3-11.56,3.89-17.48a62.62,62.62,0,0,1,1.76-8.57,22.93,22.93,0,0,1,3.89-8.08A6.59,6.59,0,0,1,168.36,92a3.58,3.58,0,0,1,3.79,1.32A2.61,2.61,0,0,1,172,96.6c-1,.94-2.51,1-3.59,1.84a8.46,8.46,0,0,0-2.42,3.44,35.06,35.06,0,0,0-1.65,4.57,87.45,87.45,0,0,0-1.94,9.77c-1.08,6.59-2.39,13.67-7.11,18.73-.44.47.27,1.18.71.71,4.35-4.67,6-11,7-17.16.59-3.42,1.06-6.88,1.89-10.26a36.76,36.76,0,0,1,1.55-4.94c.59-1.45,1.28-3.18,2.61-4.11,1.15-.81,2.69-.91,3.7-1.94A3.43,3.43,0,0,0,173.5,94c-.74-2.94-4.15-3.62-6.64-2.52-2.78,1.24-4.43,4.26-5.6,6.91a39.86,39.86,0,0,0-2.58,8.84c-1.3,7-1.55,14.28-4.4,20.88-.25.58.61,1.09.87.5Z" transform="translate(-0.62)"/><ellipse class="cls-1" cx="118.49" cy="101.69" rx="1.89" ry="0.97" transform="translate(-24.02 166.87) rotate(-65.31)"/><ellipse class="cls-1" cx="125.67" cy="104.66" rx="1.89" ry="0.97" transform="translate(-22.53 175.12) rotate(-65.31)"/><ellipse class="cls-1" cx="95.28" cy="38.26" rx="2.43" ry="1.24" transform="translate(27.06 115.53) rotate(-70.7)"/><ellipse class="cls-1" cx="106.63" cy="39.2" rx="2.19" ry="1.12" transform="translate(33.77 126.88) rotate(-70.7)"/><ellipse class="cls-1" cx="119.44" cy="107.03" rx="1.21" ry="1.09" transform="translate(-28.32 170.85) rotate(-65.31)"/><path class="cls-1" d="M118.5,107.72a2.76,2.76,0,0,1-.2.44c-.09.16-.19.32-.29.48a5.67,5.67,0,0,1-.69.82,10.88,10.88,0,0,1-2,1.44.5.5,0,0,0,.5.86,11.41,11.41,0,0,0,2.21-1.64,6.46,6.46,0,0,0,1.4-2.13.51.51,0,0,0-.35-.62.52.52,0,0,0-.62.35Z" transform="translate(-0.62)"/><path class="cls-1" d="M118.35,108.09a9.4,9.4,0,0,0-1,5.09.5.5,0,0,0,1,0,8.53,8.53,0,0,1,.91-4.59c.34-.55-.53-1-.86-.5Z" transform="translate(-0.62)"/><path class="cls-1" d="M111,102.19a6.21,6.21,0,0,0-3.42-2.55,39,39,0,0,0-5-1.78.4.4,0,0,0-.22.77,37,37,0,0,1,4.68,1.63c1.23.52,2.66,1.08,3.3,2.34.24.46.93.05.69-.41Z" transform="translate(-0.62)"/><path class="cls-1" d="M109.51,104.42a10.51,10.51,0,0,0-6.57-1.59c-.51,0-.51.85,0,.8a9.76,9.76,0,0,1,6.16,1.48c.44.28.84-.42.41-.69Z" transform="translate(-0.62)"/><path class="cls-1" d="M126.19,149.94a47.26,47.26,0,0,0-3.35,13.3c-.07.58-.13,1.16-.19,1.74a8.5,8.5,0,0,1-.17,1.59c-.33,1.21-1.85.11-2.54-.17a11,11,0,0,0-6.15-.26c-2.23.43-4.43,1.09-6.64,1.63s-4.35,1-6.54,1.41-4.35.64-6.53,1-4.44.8-6.71,1a66.32,66.32,0,0,1-21.48-1.3c-2.3-.52-4.58-1.12-6.92-1.42a26.55,26.55,0,0,0-7,.19,40.49,40.49,0,0,1-7,.43A69.1,69.1,0,0,1,31.53,167c-4.45-1-8.89-2.22-13.41-2.89a62.86,62.86,0,0,0-6.71-.6,53.18,53.18,0,0,1-6.9-.55A19.72,19.72,0,0,1,1.24,162l.12.91c6.65-4.26,13.29-8.6,18.74-14.38a115.63,115.63,0,0,0,7.61-9.22c2.59-3.39,5.15-6.79,7.72-10.18l8.79-11.6c.39-.51-.48-1-.86-.5L28,137.27c-2.4,3.17-4.82,6.34-7.48,9.31a62.2,62.2,0,0,1-8.78,8.08c-3.51,2.67-7.22,5.05-10.92,7.43A.5.5,0,0,0,1,163c4.36,1.6,9.07,1.25,13.62,1.64a93.55,93.55,0,0,1,13.77,2.58,104.87,104.87,0,0,0,13.5,2.64,40.07,40.07,0,0,0,6.84.16c2.4-.17,4.77-.7,7.18-.74a29.84,29.84,0,0,1,7.28,1c2.38.55,4.74,1.09,7.15,1.46a67.65,67.65,0,0,0,14.43.67,68.45,68.45,0,0,0,7.14-.83c1-.16,2-.39,2.93-.51,1.13-.13,2.26-.29,3.39-.46,4.56-.71,9-1.81,13.5-2.95a15.23,15.23,0,0,1,6.66-.68c1,.21,1.85.78,2.83,1.06a1.67,1.67,0,0,0,2.09-.76,8.39,8.39,0,0,0,.42-2.87c.13-1.23.28-2.46.48-3.69a48,48,0,0,1,1.61-6.9,34,34,0,0,1,1.26-3.36c.25-.59-.61-1.1-.87-.51Z" transform="translate(-0.62)"/><path class="cls-1" d="M130.45,109.22a15.79,15.79,0,0,1,8.93-.41.4.4,0,0,0,.21-.77,16.45,16.45,0,0,0-9.35.41c-.49.17-.28.94.21.77Z" transform="translate(-0.62)"/><path class="cls-1" d="M128.89,111.6a11.55,11.55,0,0,1,6.61,4c.32.4.89-.17.56-.56a12.24,12.24,0,0,0-6.95-4.24c-.5-.11-.72.66-.22.77Z" transform="translate(-0.62)"/></g><g id="Layer_5" data-name="Layer 5"><g class="cls-2"><path class="cls-3" d="M87.92,46.41c-.61.42-.75.54-.41.34l-1,.41A1.93,1.93,0,0,1,87,47L86,47.17a1.82,1.82,0,0,1,.33,0L85.23,47a2.16,2.16,0,0,1,.49.11l-1-.4c.45.19.31.35-.24-.28l-.4-.53a1.74,1.74,0,0,1,.18.33l-.4-1a4.94,4.94,0,0,1,.15.55l-.15-1.07a2.84,2.84,0,0,1,0,.77L84,44.48a3.58,3.58,0,0,1-.16.56l.41-.95c-.33.76-.45.23.86-.68l.95-.4-.18.06L87,42.93h-.17l1.07.15-.15,0,1,.4c-.5-.21.51.47.64.62.42.53.13.12,0-.06l.4.95a3.38,3.38,0,0,1-.11-.34A4,4,0,0,0,82,46.76c.78,2.5,2.79,4.47,5.57,4.1s4.37-3.08,4.41-5.7a6,6,0,0,0-3-5.26,5.7,5.7,0,0,0-6.68.85,4,4,0,1,0,5.65,5.66Z" transform="translate(-0.62)"/></g><g class="cls-2"><path class="cls-3" d="M109.25,44.32h-.19a10.58,10.58,0,0,0-1.13.15,3.84,3.84,0,0,0-.78.28,4.59,4.59,0,0,0-1.74,1.16,3.06,3.06,0,0,0-.83,1.29,3.66,3.66,0,0,0,0,3.08,3.18,3.18,0,0,0,.83,1.29,4.09,4.09,0,0,0,2.83,1.17l1.06-.15a4,4,0,0,0,1.77-1,1,1,0,0,1,.18-.18l-.81.63.27-.16-.95.41a1.11,1.11,0,0,1,.3-.08l-1.06.14h.25a3,3,0,0,0,1.54-.34,3.08,3.08,0,0,0,1.29-.83,2.94,2.94,0,0,0,.82-1.29,3,3,0,0,0,.35-1.54l-.15-1.06a4,4,0,0,0-1-1.77l-.81-.62a4.11,4.11,0,0,0-2-.55Z" transform="translate(-0.62)"/></g><g class="cls-4"><path class="cls-1" d="M101.08,4.88c-6-6.1-15.64-5.85-22.26-.81-7.91,6-9.59,16.11-11.62,25.21-1.12,5-2.59,9.72-6,13.71C58,46.83,53.86,49.89,50,53.09,42.19,59.58,35.49,67.4,35,78c-.3,6.43,9.7,6.42,10,0,.39-8.54,7.85-14.36,13.92-19.35,5.64-4.64,11.28-9.47,14.5-16.17s3.69-14.28,5.93-21.36C81,16,87.64,5.49,94,12c4.52,4.59,11.59-2.48,7.07-7.07Z" transform="translate(-0.62)"/></g><g class="cls-4"><path class="cls-1" d="M93.75,15.45A10.31,10.31,0,0,1,93,20.92a31.05,31.05,0,0,1-2.31,5.29c-1.66,2.94-4.08,5.57-7.37,6.61-2.45.78-1.4,4.64,1.06,3.86a17.6,17.6,0,0,0,9.76-8.45,36.52,36.52,0,0,0,2.78-6.42,14,14,0,0,0,.67-7.43c-.55-2.51-4.4-1.45-3.86,1.07Z" transform="translate(-0.62)"/></g><g class="cls-4"><path class="cls-5" d="M76.35,60.4C67.1,62,59.2,67,51.66,72.31S36.51,83.74,35.49,93.48c-.47,4.49.86,8.5,3.13,12.33,2.38,4,4.45,8.61,7.32,12.27,5.61,7.14,15.68,9.72,23.75,13,7.14,2.92,10.25-8.68,3.19-11.57-5.31-2.17-12.94-3.94-17-8.22-2.29-2.42-3.33-5.93-5.07-8.75s-4-5.45-3.18-9.08c1.48-6.22,9.26-10.34,14.15-13.6,5.55-3.71,11.12-6.79,17.77-7.9,7.6-1.28,4.38-12.84-3.19-11.58Z" transform="translate(-0.62)"/></g><g class="cls-4"><path class="cls-5" d="M90.5,85.19l12.15-1.64-2.7-6.4c-2.2,1.28-5,1.6-7.47,2.23l-7.92,2c-4,1-2.83,6.53.93,6.88a124.57,124.57,0,0,0,16.16.43L99.89,82.2l-1.65,1.25C95.5,85.52,96.34,89.73,100,90a6.91,6.91,0,0,1,2.34.46l-2.09-5.14.4-.55a3.57,3.57,0,0,0-1.61,4,3.62,3.62,0,0,0,2,2.52c4.06,1.87,7.62-4.16,3.53-6l-.28-.13,1.61,2.09-.07-.3-1.61,4a5.75,5.75,0,0,0,2.11-2c1.42-1.86-.14-4.57-2.09-5.14A19.32,19.32,0,0,0,100,83l1.76,6.52,1.65-1.24c2.52-1.91,2.06-6.67-1.77-6.52a124.57,124.57,0,0,1-16.16-.43l.93,6.87c5.44-1.4,12.18-2.13,17.07-5,3.7-2.15,1-6.89-2.7-6.39L88.64,78.44c-4.45.6-2.55,7.35,1.86,6.75Z" transform="translate(-0.62)"/></g><g class="cls-4"><path class="cls-6" d="M87.94,90.68a3.23,3.23,0,0,0-.58.06,3.44,3.44,0,0,0-.56.09,4.54,4.54,0,0,0-.93.41h0l-.7.55-.06,0,0,0c-.14.17-.44.56-.56.73l0,.07,0,0-.35.84a2.68,2.68,0,0,0-.16,1.16,3.81,3.81,0,0,0,1,2.47,2.51,2.51,0,0,0,1.12.73,2.62,2.62,0,0,0,1.35.3l.93-.13a3.43,3.43,0,0,0,1.55-.9l.54-.7a3.46,3.46,0,0,0,.48-1.77v-.12l-.12.93,0-.11-.35.84.06-.1-.55.7a.52.52,0,0,1,.11-.1l-.71.55a.21.21,0,0,1,.1-.06l-.84.35a.27.27,0,0,1,.12,0l-.94.12h.12a3.86,3.86,0,0,0,2.48-1,2.58,2.58,0,0,0,.72-1.12,2.62,2.62,0,0,0,.3-1.35l-.12-.93a3.62,3.62,0,0,0-.9-1.55l-.71-.54a3.46,3.46,0,0,0-1.77-.48Z" transform="translate(-0.62)"/></g><g class="cls-4"><path class="cls-6" d="M138,127.84c3.13-1.23,6.29-2.48,9.69-2.53l-3-5.27-3.38,5.08c-1,1.44-2.3,2.92-2.59,4.65-.76,4.49,4.11,5.12,7.35,4.85l-3.38-4.43c.12-.6.31-.53-.22,0a4.43,4.43,0,0,0-.86,1.28,3.94,3.94,0,0,0,0,3.34c1.28,2.92,4.48,2.4,7.06,2.16,4.44-.42,4.49-7.43,0-7a32.4,32.4,0,0,1-3.41.26l1.77.48-.46-.27,1.61,2.09-.09-.33v1.86c-.75,1.86,0,.55.44-.07a4.51,4.51,0,0,0,.94-1.94c.4-2-.94-4.62-3.37-4.43-.5.06-1,.08-1.51.09-1.05-.15-1,0,.07.53l1,2.47v-.47l-.47,1.76c1.56-2.93,3.71-5.66,5.55-8.42,1.48-2.23-.47-5.31-3-5.27-4.08.06-7.79,1.31-11.55,2.78-4.15,1.62-2.34,8.39,1.86,6.75Z" transform="translate(-0.62)"/></g></g></g></svg>