<svg xmlns="http://www.w3.org/2000/svg" viewBox="0 0 728.04 562.65"><defs><style>.cls-1{opacity:0.25;}.cls-2{fill:#08c11e;}.cls-3{opacity:0.38;}.cls-4{fill:#ffe094;}.cls-5{opacity:0.4;}.cls-6{opacity:0.5;}.cls-7{fill:#a0a0a0;}.cls-8{fill:#969696;}.cls-9{opacity:0.46;}.cls-10{fill:#fff;}.cls-11{opacity:0.29;}.cls-12{fill:#ffcfd4;}.cls-13{fill:#bababa;}.cls-14{fill:#ffd9df;}.cls-15{fill:#333;}</style></defs><title>메인_고양이_1</title><g id="Layer_2" data-name="Layer 2"><g id="Layer_8" data-name="Layer 8"><g class="cls-1"><path class="cls-2" d="M727.91,196.32c-1.16-17.75-7.16-34-20.29-46.68-25.23-24.34-63.28-22.69-96-21.17a551.66,551.66,0,0,0-84.18,10.6,454.59,454.59,0,0,0-78.65,23.67l-13.15,5.5a42.5,42.5,0,0,0-8.44,5.91,6.47,6.47,0,0,1,1,.71c2.68,2.37,5.63,3.7,7.39,7a13.58,13.58,0,0,1,1.07,2.69,14.67,14.67,0,0,1,.53,10.56,5.43,5.43,0,0,1-.71,3.15c-.67,1.22-1.33,2.43-2,3.62a4.12,4.12,0,0,1-.26,1.13,15.48,15.48,0,0,1-3.63,5.5c-.43.42-.87.81-1.32,1.21a30.72,30.72,0,0,1-4.93,4.87,26.17,26.17,0,0,1-6.29,5.35,4.83,4.83,0,0,1-1.11.46c-.34.31-.7.6-1.06.88a.6.6,0,0,1-.08.08,4.48,4.48,0,0,1-1.76,1.23c-.31.2-.63.38-.95.56a5.52,5.52,0,0,1-2.05,2.18,30.64,30.64,0,0,1-6.63,2.85,9.48,9.48,0,0,1-.85.55,5,5,0,0,1-2.21,1.21c-.24.05-.48.12-.73.19-.47.18-.95.34-1.42.48l-.11,0c-1.8.66-3.55,1.49-5.42,2a4.54,4.54,0,0,1-.72.13l-.27.27A16.62,16.62,0,0,1,381.5,241a14.66,14.66,0,0,1-7.21-.14c-.25,0-.49,0-.74,0-4.26.1-9.43-.2-11.9-4.23a8.32,8.32,0,0,1-.77-1.7c-.15-.21-.28-.43-.42-.64a8.19,8.19,0,0,1-2.44-.52l-.17.08c-2.88,1-5.9-.9-7.67-3a1.36,1.36,0,0,1-.21-.56c-2.22-1.95-2.58-4.85-2.35-7.7-.54,1.12-1.05,2.24-1.56,3.36a5.49,5.49,0,0,1-.13,1.07c0,.13-.05.27-.08.4,0,.46-.06.92-.08,1.38,0,1,0,2,0,2.95a5.21,5.21,0,0,1-.6,2.44,6,6,0,0,1,.4.8,42.93,42.93,0,0,1,2.75,9.32,5.57,5.57,0,0,1,.55,2.54c-.11,8.62-.43,14.87-6.06,21.87-4,5-10.37,10-16.89,11a6.85,6.85,0,0,1-1.18.07,15.93,15.93,0,0,1-4.69,1.74c-1.71.31-3.45,1.2-5,.71-4.19,2.74-8.5,3.29-13,5.56l-.7.22c-1.06,0-2.12,0-3.18-.1-6.47-.26-13.33,2.17-19.8,4.73-8.23.33-16.48.4-24.73.68-9.36.32-18.55,1.26-27.83,2.49-9.12,1.21-18.17,2.39-26.91,5.37q-2.06.71-4.08,1.44a43.37,43.37,0,0,0-8.31-.44l-14.64,1.95a55.08,55.08,0,0,0-24.3,14l-63,52.78c-9.33,7.81-19.1,15.31-27.76,23.86-13.52,13.34-24.82,30.06-29.51,48.58-.46,1.81-.83,3.7-1.12,5.63a56.14,56.14,0,0,0-14.06,12.9C1.78,475.07-3.18,493,2.2,509.42c6.94,21.2,21.71,35.74,43,42.81,8.84,2.94,18.67,3.23,28,3.82q19.55,1.23,39.08,2.24,39.58,2,79.22,3.11,78.75,2.16,157.55.58t157.39-6.9c29.67-2,59.59-3.62,89-8.16,2.22-.34,4.44-.77,6.66-1.25a56.11,56.11,0,0,0,16.85-1.9,55.17,55.17,0,0,0,24.3-14,53.26,53.26,0,0,0,6.21-7.4c9.72-8,17.57-16.86,25.68-27.62,8.94-11.86,14.83-25.84,20-39.64,5.52-14.89,7.44-30.45,9.37-46.13,3.18-25.73,1.61-51.75,4.18-77.51,3.8-22.55,9.91-44.66,13.18-67.32,2.37-16.39,4.53-32.79,5.6-49.32C727.71,208.71,728.31,202.44,727.91,196.32Z"/></g></g><g id="Layer_6" data-name="Layer 6"><g class="cls-3"><path class="cls-4" d="M350.41,175.38c0-4.53-.87-8.76-3.5-12-4.83,3.5-10.65,4.75-16.89,4.7-4.14,0-8.27-.55-12.42-.29-4.77.3-9.16,1.69-13.77,2.81a26.16,26.16,0,0,1-3.71.63A43.79,43.79,0,0,1,287,173.1a30.24,30.24,0,0,1-5.74-.62c-.69.12-1.38.23-2.11.3a17,17,0,0,1-9.84-2,8.51,8.51,0,0,1-1.4-.23c-3.34,0-6.88-1.84-9.43-4.41a4.5,4.5,0,0,1-1.22-.56,8.86,8.86,0,0,1-4.05-8.84c0-.38.14-.73.22-1.1a.43.43,0,0,1,0,0c-2.59-7.72-.23-16.84,2.25-24.26,1.25-3.74,3.11-7.26,4.26-11,1-3.16,1.61-6.32,3.23-9.16a12.13,12.13,0,0,0-6.65,5.67c-14.61,25.15-20.7,53.6-27.14,81.63-6,25.92-12.84,51.88-29.1,73.43-5.28,7,.55,16.89,7.77,19.1,11.87,3.64,28.34,3.83,37.88-5.46,5.36-5.21,6-11.68,6.88-18.67a150.25,150.25,0,0,1,3.37-17.18c.74-3,1.55-5.91,2.42-8.83,5.6,3,12.67,4.36,18.27,5.26a98.11,98.11,0,0,0,31.76-.05c9.35-1.5,19.7-4.55,27.54-10,10-7,13.69-17.27,14-29.15C350.47,196.38,350.46,185.86,350.41,175.38Z"/></g><g class="cls-5"><path class="cls-4" d="M262.35,192.84a40.8,40.8,0,0,0-3.71,9.81,3,3,0,0,0,3.69,3.69l1.49-.47-3.69-3.69-3.54,12.11c-.81,2.75,3,5.26,5,2.92h-.13l-3.69-3.69a117.64,117.64,0,0,1-2.73,11.89c-.79,2.78,2.15,4.35,4.41,3.39l1.8-.76-4.41-3.39-2,9.41c-.43,2-1.57,5-.61,7.07,1.86,4,9,4.11,12.7,4,3.85-.08,3.87-6.08,0-6-2.86.06-6,0-8.44-1.78L260,240c-.11-4.36,1.73-9.47,2.63-13.72.58-2.76-2-4.41-4.41-3.39l-1.8.76,4.41,3.39a115.13,115.13,0,0,0,2.72-11.9c.38-2.16-1.32-4.37-3.69-3.69a4.56,4.56,0,0,0-2.51,1.54l5,2.92,3.54-12.1a3,3,0,0,0-3.69-3.69l-1.48.46,3.69,3.69a34.91,34.91,0,0,1,3.1-8.38c1.8-3.41-3.38-6.45-5.18-3Z"/></g></g><g id="Layer_3" data-name="Layer 3"><g class="cls-6"><path class="cls-7" d="M348,122.86c-2.6-5.18-4.06-6.13-6.75-8.2-1.42-1.09-2.14-2.23-3.56-3.32.08-1-1.31-1.76-1.47-2.7-.32-.26,0-.64-.29-.94a24.11,24.11,0,0,1-2.28-3.11,21.5,21.5,0,0,1-2-3.35,33.74,33.74,0,0,1-2.43-7.67c0-.19-.07-.39-.11-.58a.25.25,0,0,0,0-.07l-.21-.78q-2.18-7.64-4.33-15.28a98,98,0,0,1-2.83-11.5,134.05,134.05,0,0,0-1.36-34C316.94,13,301.2-5.14,281.54,4c-.12,0-.22.12-.34.18-5.13-4.3-12.75-5.2-19-3.22-7.74,2.46-13.15,9.37-16.29,16.63C242,26.82,246,37.15,256,39.5a17.71,17.71,0,0,0,4.59.45,13.58,13.58,0,0,1-3.12-4.76,21,21,0,0,1-.93-7.66c0-2.6.35-5.42,1.84-7.62l0-.06a4.7,4.7,0,0,1,.39-.85,4.83,4.83,0,0,1,.69-.89l.21-.27c.48-.55,1-1,1.55-1.55a.53.53,0,0,1,.75,0l0,0,0,0a.55.55,0,0,1,0,.75c-.06.07-.1.14-.15.21a.27.27,0,0,1-.07.08,16.63,16.63,0,0,0-1.41,2.22,1.18,1.18,0,0,1,.29,1.7c-1.29,1.91-1.46,4.32-1.46,6.57,0,1,0,2.06.09,3.09l.1,0a1.41,1.41,0,0,1,1.37,1.38c0,.12,0,.23,0,.34v0a.32.32,0,0,0,0,.08c0,.2.08.4.13.61a11.83,11.83,0,0,0,.37,1.15l.06.14c0-.08,0-.08,0,0l.12.27c.09.2.19.41.29.61.2.38.41.76.63,1.13.32.53.64,1,1,1.48l.26.3a1.13,1.13,0,0,1,.41,0,1.05,1.05,0,0,1,.51.16A1,1,0,0,1,265,39a1,1,0,0,1,.21.38c.25,0,.49-.09.73-.15a17.71,17.71,0,0,0,3.28,2.6l.1,0h0a2.25,2.25,0,0,1,1.57.12c-.4-.18,0,0,.11,0s.29.08.44.12a1.57,1.57,0,0,0,.3.05h.12c.56,0,1.11,0,1.67,0a23.8,23.8,0,0,1,2.53.12l.8.08.69-.06a6.73,6.73,0,0,1,1.41.13,4.27,4.27,0,0,1,2.07,1.08,3.93,3.93,0,0,1,.81,1.06h.32l.12.2c.26.45.49.92.71,1.4l.3.8c.56,1.71,1.15,3.39,1.58,5.14.36,1.42.85,1.87.29,2.45-.08.09-.05.21,0,.34-1.08.81-2.15,1.63-3.21,2.48-7,6.38-7.33,16.26-9.29,25a378.84,378.84,0,0,1-15.87,51.29c-3.36,8.86-5.24,19.19-.13,27.84s14.49,13.26,24.18,10.69a11,11,0,0,0,2.35-.9c4.9,1.85,10.68,1.55,16,0,13.32-3.9,28.95-.57,42.44-7.86,7.91-4.27,14.14-12.4,14.7-21.63C356.83,134.19,355.79,132,348,122.86Z"/><path class="cls-7" d="M334.56,140.5c.1-.88,1.81-1.37,0,0Z"/><path class="cls-7" d="M340.27,144.05l.55-.29A1.22,1.22,0,0,1,340.27,144.05Z"/></g></g><g id="Layer_7" data-name="Layer 7"><g class="cls-5"><path class="cls-8" d="M283.47,165a17.2,17.2,0,0,1-3.94-5.59,9.45,9.45,0,0,1-1-2.05c-1.36-4-.77-8.61-.28-12.74a167.49,167.49,0,0,0,.57-29.72c-.22-3.84-3.22-3.86-3,0,.74,12.67-4.47,24.93-4.07,37.51.36,10.95,7,16.26,17,18.83a2.82,2.82,0,0,0,3.4-1.63A17.89,17.89,0,0,1,283.47,165Z"/></g><g class="cls-5"><path class="cls-8" d="M320.75,161.82c-7.52-1.26-16.18-3.8-19.78-11.25-4-8.38-1.17-18.7-1.94-27.59a3,3,0,0,0-1.64-2.47c-2,3.65-3.71,7.55-3.84,11.76a5.8,5.8,0,0,1-.53,2.29c-.24,7.08-.25,14.18,3.52,20.39a21.23,21.23,0,0,0,4.42,5.17l.06,0c5,4.24,11.72,6.36,18.13,7.44C322.93,168.24,324.55,162.46,320.75,161.82Z"/></g><g class="cls-5"><path class="cls-8" d="M323.24,172.74a27.88,27.88,0,0,0,10.88-15.85c2.34-9.51-1.07-19-6.4-26.89a3,3,0,0,0-4-1,21.24,21.24,0,0,1,4.21,10.58,24.85,24.85,0,0,1,1,10,20,20,0,0,1-.55,5.62A22.44,22.44,0,0,1,315,170.5a2.35,2.35,0,0,0-1.42,3A15.65,15.65,0,0,0,323.24,172.74Z"/></g><g class="cls-5"><path class="cls-8" d="M352.63,145.68c-.37-2.21-2.75-4-4.83-5.28a19.6,19.6,0,0,0-4.22-2.05c-.44-.14-.91-.27-1.38-.38a2.71,2.71,0,0,0,.75,2.84c5.21,5.17,9.58,18.41.1,22.21-3.54,1.42-2,7.23,1.59,5.79,9-3.61,11.14-12.5,9-20.69A5.16,5.16,0,0,1,352.63,145.68Z"/></g><g class="cls-5"><path class="cls-8" d="M273.81,169.16c-11.66-2.74-5.88-16.68-3.34-23.9a2.51,2.51,0,0,0-.81-3c-1.62,3.11-4,5.73-5.79,8.75a54.17,54.17,0,0,0-2.77,5.28c-.11,1.07-.24,2.14-.4,3.2a17.83,17.83,0,0,0,.62,4.58A14.92,14.92,0,0,0,272.21,175C276,175.83,277.57,170.05,273.81,169.16Z"/></g><g class="cls-9"><path class="cls-10" d="M272.66,33.14c2.12-2,4-4.25,6.21-6.14.58-.5,1.61-1.74,2.36-1.93l-3.3.85c1.73.45,4.36,6.2,6.32,7.66a6.6,6.6,0,0,0,7.64.05c.6-.38,3.09-3.43,3.51-3.42.6,0,1,1.42,1.72,2.18,2,2.16,4.69,2.49,7.44,2.07,4.29-.66,2.47-7.07-1.8-6.42-.45.07-2.38-3.45-3-3.93a5.74,5.74,0,0,0-3.9-1.13,7.59,7.59,0,0,0-4.1,1.57c-2.5,1.82-2.57,4.41-5.22,1.58-2.06-2.2-3.94-6.95-7.68-6.74-2.76.16-4.53,3.32-5.72,5.39-.8,1.4-1.55,2.82-2.45,4.16a13.29,13.29,0,0,0-1.81,3.25c-.42,1.34.26,3,2,2.31a4,4,0,0,0,1.21-.83Z"/></g></g><g id="Layer_4" data-name="Layer 4"><g class="cls-11"><path class="cls-12" d="M271.42,56.34V56a7.19,7.19,0,0,0-.82-3.66,8.49,8.49,0,0,0-5-5,7.19,7.19,0,0,0-3.66-.82l-2.53.34a9.56,9.56,0,0,0-4.19,2.44l-1.49,1.93A9.48,9.48,0,0,0,252.42,56v.39a7.13,7.13,0,0,0,.82,3.66,7.07,7.07,0,0,0,2,3,10.56,10.56,0,0,0,6.72,2.79l2.52-.34a9.52,9.52,0,0,0,4.2-2.45l1.48-1.92a9.49,9.49,0,0,0,1.3-4.79Z"/></g></g><g id="Layer_5" data-name="Layer 5"><g class="cls-3"><path class="cls-13" d="M375,183.1l1.24-1.39-6-2.47c-.33,2.57,0,4.55,2.26,6.18a6.27,6.27,0,0,0,1.69.86c1.13.3,1.3.45.52.45,0,.92-2.56,3-3.22,3.56a17.44,17.44,0,0,1-3.8,2.82,8.64,8.64,0,0,1-2.22.93q-1.79.06-.66.48c-.29-.74,4.48-8.57,5.45-8.74l-2.69-.35.53.29-1.73-3c.21,2-2.58,4.38-3.05,6.5a4.43,4.43,0,0,0,1.8,4.86c1.77,1,3.7.37,5.27-.66a12.53,12.53,0,0,0,2.21-1.9c.39-.49.79-1,1.17-1.5q1.62-1.94-1.61-.21l-.83-6.4c1.22.46,1.84.11,1.87-1,1.44-4.28-5.32-6.12-6.75-1.86-.91,2.74-1,6,1.18,8.19a5.84,5.84,0,0,0,7.23.77c2.77-1.72,1.88-5.29-.83-6.4a4.35,4.35,0,0,0-4.51.89,9.4,9.4,0,0,0-1.26,1.69c-.53.73-2.15,1.79-.44,2l2.09,1.61c.85,1.51,2.36-2.13,2.78-3.11a6.08,6.08,0,0,0,.38-4.81c-1.44-3.22-5.47-2.78-7.75-.78-2.84,2.5-4.91,7.07-6.56,10.41-1.45,3-1.79,6.57.9,9,5.52,4.85,14.65-2.31,18.39-6.3,2.24-2.4,4.44-5.32,3.7-8.8a6.24,6.24,0,0,0-2.68-3.9,10.06,10.06,0,0,0-2.11-1l.06,1c.07-.56.15-1.13.22-1.69.37-3-4.08-4.6-6-2.48l-1.24,1.39c-3,3.35,1.93,8.32,5,4.95Z"/></g><g class="cls-3"><path class="cls-13" d="M433.09,182c-7.89,1.2-14,9.23-17.27,16-2.36,5-7.46,18-1.28,22,2.93,1.92,6,.32,8.31-1.82a86.34,86.34,0,0,0,10.07-11.28,28,28,0,0,0,4.8-11.75c.64-3.44,1.78-7.38-1.77-9.46a3.63,3.63,0,0,0-4.24.55c-3.21,2.51-5.92,6.95-8.18,10.33a86.88,86.88,0,0,0-7.21,13.32c-1.79,4.09,4.24,7.66,6.05,3.54,3.24-7.38,7.8-17.15,14.29-22.24l-4.24.55.67.39-1.73-3c.56,4.48-1.63,10.39-4.24,13.88a68,68,0,0,1-4.55,5.2c-1.1,1.2-4.12,5.73-5.91,5.56l2.47,1c-1.19-1.18.36-6.18.69-7.51a32.08,32.08,0,0,1,3.12-7.85c2.54-4.52,6.57-9.86,12-10.69,4.44-.68,2.55-7.42-1.86-6.75Z"/></g><g class="cls-3"><path class="cls-13" d="M427.32,141.19a13.65,13.65,0,0,1,1.72,1.68c.06.07.42.51.12.14s.12.17.18.26c.23.35.45.71.65,1.08a3.5,3.5,0,0,0,6.05-3.53,16,16,0,0,0-3.77-4.58,3.59,3.59,0,0,0-4.95,0c-1.18,1.29-1.51,3.71,0,4.95Z"/></g><g class="cls-3"><path class="cls-13" d="M420.91,150.7l3,1.8a3.5,3.5,0,0,0,3.54-6.05l-3.05-1.79a3.5,3.5,0,1,0-3.53,6Z"/></g><g class="cls-3"><path class="cls-13" d="M419.66,163.88a4.89,4.89,0,0,1,.54,0l-.93-.13a4.69,4.69,0,0,1,.91.24l-.84-.35a3.42,3.42,0,0,1,.59.33,3.5,3.5,0,0,0,4.79-1.26,3.54,3.54,0,0,0,.35-2.7,3.85,3.85,0,0,0-1.61-2.09,6.87,6.87,0,0,0-3.8-1.07,3.63,3.63,0,0,0-2.47,1,3.5,3.5,0,0,0,2.47,6Z"/></g><g class="cls-3"><path class="cls-14" d="M369.44,236.62c4.5,0,4.51-7,0-7s-4.51,7,0,7Z"/></g><g class="cls-3"><path class="cls-14" d="M369.57,236.35c4.51,0,4.51-7,0-7s-4.51,7,0,7Z"/></g><g class="cls-3"><path class="cls-14" d="M361.08,233.66c4.5,0,4.51-7,0-7s-4.51,7,0,7Z"/></g><g class="cls-3"><path class="cls-14" d="M360.67,233.79c4.51,0,4.52-7,0-7s-4.51,7,0,7Z"/></g></g><g id="Layer_2-2" data-name="Layer 2"><path class="cls-15" d="M250.53,39.23a11.13,11.13,0,0,1-2,4.65A41.42,41.42,0,0,1,245.39,48c-1,1.19-2,2.63-1.64,4.28A2.84,2.84,0,0,0,245,54a5.81,5.81,0,0,1,1.92,1.59c.81,1.4.52,3.23.45,4.76a20.13,20.13,0,0,0,.42,5.64,13.37,13.37,0,0,0,5.82,7.93c3.6,2.42,7.93,3.37,12.12,4.18.63.12.9-.84.27-1-6.6-1.27-14.93-3.41-17.08-10.77a17.94,17.94,0,0,1-.57-5.56,14.93,14.93,0,0,0-.15-4.72,4.24,4.24,0,0,0-1-1.78c-.58-.56-1.37-.83-1.94-1.39-1.4-1.39.13-3.38,1.09-4.49a36.9,36.9,0,0,0,3.27-4.3,11.88,11.88,0,0,0,2-4.9c.07-.64-.93-.63-1,0Z"/><path class="cls-15" d="M263.06,14.29a24,24,0,0,0-3.55,13.58,16.28,16.28,0,0,0,5.25,11,14.29,14.29,0,0,0,4.94,2.95,16.86,16.86,0,0,0,6.59.57c2.23-.13,4.62-.09,6.28,1.62a7,7,0,0,1,1.83,4.91c0,5.07-4.6,8.47-8.57,10.75a.5.5,0,0,0,.51.87c3.6-2.08,7.52-4.88,8.72-9.09.95-3.33-.06-7.6-3.31-9.29-2.18-1.14-4.67-.79-7-.69a12.46,12.46,0,0,1-6.27-1.25A14.78,14.78,0,0,1,261,30.76c-1.37-5.45.18-11.21,2.95-16a.5.5,0,0,0-.86-.51Z"/><path class="cls-15" d="M282.09,4.56A15.45,15.45,0,0,0,270.94.13a20.69,20.69,0,0,0-12.18,4.08,36,36,0,0,0-9.12,10.11c-2.68,4.22-5.06,9.07-4.91,14.19.13,4.57,2.54,9.3,6.88,11.15.59.25,1.1-.61.5-.86-3.7-1.58-5.92-5.4-6.32-9.31-.49-4.79,1.57-9.44,4-13.46C254,8.89,260.53,1.9,269.31,1.19c4.38-.35,9,.84,12.08,4.08.44.46,1.15-.24.7-.71Z"/><path class="cls-15" d="M275.18,60.54c2.45,8.08.94,16.64-1.8,24.43-1.41,4-3.14,7.9-4.87,11.77s-3.47,7.83-5.12,11.78a183.13,183.13,0,0,0-8.47,24.17,105.39,105.39,0,0,0-2.51,12.54,53.62,53.62,0,0,0-.66,11.93,16.11,16.11,0,0,0,1.21,5,13.06,13.06,0,0,0,3.07,4.23,37.36,37.36,0,0,0,9.31,6.08c.9.44,1.8.85,2.73,1.24.59.25.85-.72.26-1a43.21,43.21,0,0,1-10-5.71,16,16,0,0,1-3.72-3.9,13.21,13.21,0,0,1-1.72-5,28.47,28.47,0,0,1-.16-5.46q.15-3.17.54-6.31A102.8,102.8,0,0,1,255.62,134a173.91,173.91,0,0,1,8.18-23.89c1.63-4,3.35-7.87,5.09-11.78s3.39-7.55,4.85-11.43c2.82-7.52,4.66-15.71,3.12-23.73a26.65,26.65,0,0,0-.71-2.9.5.5,0,0,0-1,.27Z"/><ellipse class="cls-15" cx="253.81" cy="47.21" rx="2.84" ry="1.32" transform="translate(157.5 286.74) rotate(-78.63)"/><path class="cls-15" d="M252.14,39.77a10.79,10.79,0,0,1,5.89,1c.58.28,1.08-.58.5-.86a11.75,11.75,0,0,0-6.39-1.13.51.51,0,0,0-.5.5.5.5,0,0,0,.5.5Z"/><path class="cls-15" d="M265.7,78.11c1.2.26,1.84,1.48,2.37,2.48a15,15,0,0,1,1.44,3.9,44.83,44.83,0,0,1,.6,8.74.5.5,0,0,0,1,0c-.06-3.21,0-6.5-.78-9.64a16.37,16.37,0,0,0-1.69-4,4.48,4.48,0,0,0-2.67-2.4c-.63-.13-.89.83-.27,1Z"/><path class="cls-15" d="M280.5,5.44c2.4-2.44,5.86-3.21,9.18-3.16a24.93,24.93,0,0,1,10.44,2.61c6.24,3.07,10.62,8.53,13.48,14.76,3,6.51,4.54,13.67,5.72,20.69a145.44,145.44,0,0,1,1.94,24.56,96.48,96.48,0,0,0,.43,12.38A51.47,51.47,0,0,0,324,87.53,72.3,72.3,0,0,0,334,106.47a97.62,97.62,0,0,0,6.51,8.12c2.31,2.58,4.85,4.94,7.22,7.46a33.27,33.27,0,0,1,6.07,8.54,30.61,30.61,0,0,1,2.44,7.67,27.59,27.59,0,0,1-1.5,15.28A22.79,22.79,0,0,1,344.43,165a24.88,24.88,0,0,1-4,1.71c-.6.2-.34,1.17.27,1a24.45,24.45,0,0,0,12.85-9.76A26.75,26.75,0,0,0,357.66,143a30.76,30.76,0,0,0-4.76-16.09,49.73,49.73,0,0,0-6.95-8.11c-2.56-2.57-5.06-5.18-7.36-8a79.14,79.14,0,0,1-11.84-19,56.17,56.17,0,0,1-3.39-10.6,60.44,60.44,0,0,1-1.11-12.31c0-4.28,0-8.56-.19-12.84s-.62-8.27-1.21-12.38c-1.06-7.49-2.53-15.12-5.35-22.16-2.51-6.26-6.29-12.09-12-15.87a26.68,26.68,0,0,0-10.11-4,18.44,18.44,0,0,0-9.8.6,10.89,10.89,0,0,0-3.81,2.47c-.45.46.26,1.17.71.71Z"/><path class="cls-15" d="M345.27,139.74c4.05,1.34,6.49,5.56,7.57,9.46a15,15,0,0,1-1.52,12.21,23.87,23.87,0,0,1-5,5.31c-.5.41.21,1.11.71.7,3.52-2.9,6.61-6.43,7.3-11.1a18.63,18.63,0,0,0-3.07-13,11.46,11.46,0,0,0-5.71-4.56c-.61-.2-.87.77-.26,1Z"/><path class="cls-15" d="M260.62,112.36c-4.48,2.86-7.63,7.22-10.13,11.83a142.24,142.24,0,0,0-7.36,16.38c-4.52,11.63-8,23.62-11.33,35.63-3.47,12.46-7,24.89-10.83,37.25-3.64,11.77-7.17,23.61-11.31,35.22-3.8,10.69-8.44,21.26-15.41,30.3-.85,1.12-1.75,2.2-2.68,3.26-.42.49.29,1.2.71.71,7.35-8.43,12.43-18.49,16.44-28.86,4.35-11.22,7.73-22.82,11.32-34.29q5.81-18.53,11-37.21c3.34-12,6.63-24.06,10.83-35.81,2.11-5.92,4.45-11.76,7.14-17.45,2.31-4.89,4.9-9.85,8.89-13.61a22.62,22.62,0,0,1,3.2-2.48c.54-.35,0-1.21-.5-.87Z"/><path class="cls-15" d="M191.79,283.22c5,1.16,8.72,4.75,13,7.35a38.35,38.35,0,0,0,51.69-11.33c.36-.54-.5-1-.86-.51a37.23,37.23,0,0,1-49.52,11.45c-4.67-2.68-8.63-6.67-14-7.92-.63-.15-.89.82-.27,1Z"/><path class="cls-15" d="M261.65,195.57q-3.07,16.85-5.36,33.81-1.14,8.52-2.08,17.05c-.58,5.3-1.22,10.63-1.28,16a39.26,39.26,0,0,0,2.95,16.6c.26.59,1.13.08.87-.5-4.25-9.5-2.8-20.36-1.72-30.36q1.8-16.83,4.41-33.55,1.46-9.4,3.17-18.76c.12-.63-.85-.9-1-.27Z"/><path class="cls-15" d="M254.83,241.84a97.18,97.18,0,0,0,36.39,6.64,100.94,100.94,0,0,0,36.34-7.09,94.82,94.82,0,0,0,18.32-9.72c.53-.36,0-1.22-.51-.86a96.08,96.08,0,0,1-33.78,14.4A99.73,99.73,0,0,1,275,246.29a94.37,94.37,0,0,1-19.88-5.42c-.6-.24-.86.73-.27,1Z"/><path class="cls-15" d="M348.37,167.07c.55,8.35.91,16.71.87,25.07a198.8,198.8,0,0,1-1.58,25c-.62,4.69-1.45,9.36-2.52,14-.14.63.82.89,1,.27a161.44,161.44,0,0,0,3.61-24.85,246.29,246.29,0,0,0,.36-25.2c-.15-4.76-.4-9.51-.71-14.26,0-.64-1-.64-1,0Z"/><path class="cls-15" d="M267.65,144.88c-3.26,3.21-4.48,7.78-4.68,12.24a41.8,41.8,0,0,0,.31,7.33,14.09,14.09,0,0,0,2.07,6.21,8.05,8.05,0,0,0,5.15,3.57c.63.11.9-.85.26-1-4.06-.72-5.9-4.85-6.44-8.51A40.82,40.82,0,0,1,264,158a23,23,0,0,1,1-6.54,14,14,0,0,1,3.45-5.83.5.5,0,0,0-.71-.7Z"/><path class="cls-15" d="M344.81,232.07c3.09,8.47,5.34,18,3,26.95a24.87,24.87,0,0,1-6.41,11.13,35.25,35.25,0,0,1-10.26,7c-8.88,4.16-18.78,5.15-28.32,6.91a140.83,140.83,0,0,0-15,3.74c-5,1.51-10,3.11-15.06,4.27a49.91,49.91,0,0,1-26.09-1,29.17,29.17,0,0,1-2.83-1.05c-.59-.24-.85.72-.26,1a43.93,43.93,0,0,0,12.83,3,53,53,0,0,0,13.38-.36,109.11,109.11,0,0,0,14.75-3.84c5.1-1.55,10.2-3.12,15.42-4.2,9.87-2.05,20.15-2.8,29.55-6.68,7.8-3.21,15-8.57,18.24-16.58,3.55-8.7,2-18.6-.79-27.29-.35-1.11-.73-2.21-1.13-3.3-.22-.6-1.19-.34-1,.26Z"/><path class="cls-15" d="M178.08,291.68l-35.72,25.14C130.79,325,119.09,333,107.93,341.69a359.57,359.57,0,0,0-29.3,25.72c-9.35,9.12-18.28,18.67-26.87,28.51s-16.84,19.91-24.91,30.15l-3,3.81c-.39.5.32,1.21.71.7,8-10.27,16.21-20.42,24.71-30.3s17.3-19.48,26.52-28.68a370.2,370.2,0,0,1,28.84-26c10.92-8.82,22.47-16.81,33.94-24.88l35.59-25.05,4.41-3.1c.52-.37,0-1.24-.51-.87Z"/><path class="cls-15" d="M192,282.47a77.86,77.86,0,0,0-9.14-.87c-2.53,0-4.9,1.85-6.7,3.47a50.08,50.08,0,0,0-5.25,5.83c-.88,1.09-1.76,2.19-2.54,3.36-.47.71-1.77,2.23-.81,3,.78.64,2,0,2.77-.33a20.51,20.51,0,0,0,3.16-1.87c1-.72,2.07-1.48,3.16-2.14.48-.29,1.39-1,1.92-.65s.8.71,1.21,1a15,15,0,0,0,5.93,3.22,50.2,50.2,0,0,0,8.83.83c5.58.26,12.38.67,16.9-3.25.49-.43-.22-1.13-.71-.71-3.72,3.23-9.2,3.16-13.84,3-2.79-.07-5.61-.2-8.39-.48a15.85,15.85,0,0,1-4-.82,12.86,12.86,0,0,1-2.67-1.52,24.49,24.49,0,0,1-2.35-1.85,1.89,1.89,0,0,0-1.24-.65,3.44,3.44,0,0,0-1.59.63c-2,1.13-3.77,2.65-5.78,3.77a13.35,13.35,0,0,1-1.62.77,3.34,3.34,0,0,1-.68.21c-.52.08-.27-.28-.08-.6a27.59,27.59,0,0,1,2.24-3.25A70.62,70.62,0,0,1,175.6,287a21.57,21.57,0,0,1,3-2.63,7.85,7.85,0,0,1,3.9-1.77,36.49,36.49,0,0,1,4.66.32c1.61.16,3.22.34,4.82.55.63.09.63-.92,0-1Z"/><path class="cls-15" d="M213.35,236.61a137.83,137.83,0,0,0-35.54,19.64c-11,8.21-21.16,17.54-31.06,27.05-10.06,9.66-19.91,19.54-30.34,28.81a334.73,334.73,0,0,1-36.48,28.14A335.18,335.18,0,0,1,40.1,363q-2.57,1.25-5.15,2.44a.5.5,0,0,0,0,.86,266.72,266.72,0,0,1,27.1,18.1c.52.39,1-.48.51-.86a265.75,265.75,0,0,0-27.11-18.1v.86a334,334,0,0,0,40.21-22.1A335.09,335.09,0,0,0,112.34,317C123,307.85,133,298,143.1,288.21c9.9-9.59,19.9-19.11,30.72-27.65s22.35-16,35-21.16c1.57-.65,3.16-1.25,4.76-1.83.6-.22.35-1.18-.26-1Z"/><path class="cls-15" d="M277,115.68l-3.61,14.83a119.48,119.48,0,0,0-3,14.47c-.95,8.15.46,17.61,7.41,22.9a14.56,14.56,0,0,0,12,2.87c.62-.15.36-1.11-.27-1A13.47,13.47,0,0,1,279,167.51a17.8,17.8,0,0,1-6.63-9.33c-2.8-8.67-.35-17.78,1.73-26.31L278,115.94c.16-.62-.81-.89-1-.26Z"/><path class="cls-15" d="M295.14,121.77a76.87,76.87,0,0,0-1.23,25.4,21.06,21.06,0,0,0,1.36,5.59,17.34,17.34,0,0,0,3.05,4.7,46.79,46.79,0,0,0,4.06,4,33.62,33.62,0,0,0,4.55,3.51,20.3,20.3,0,0,0,12.6,3c.63-.06.64-1.06,0-1a19.15,19.15,0,0,1-11-2.2,36.79,36.79,0,0,1-8.68-7.1,19.56,19.56,0,0,1-3.22-4.3,17.17,17.17,0,0,1-1.66-5.47,66.49,66.49,0,0,1-.57-12.05A77.86,77.86,0,0,1,296.11,122c.13-.63-.84-.9-1-.26Z"/><path class="cls-15" d="M315.91,102.74A46.89,46.89,0,0,0,326.45,132a51.18,51.18,0,0,1,4.93,6.45,19.49,19.49,0,0,1,2.36,8.38,30.14,30.14,0,0,1-3.07,15.45,26.94,26.94,0,0,1-5,7.09,11.39,11.39,0,0,1-7.52,3.77c-.65,0-.65,1,0,1,5.24-.17,9.21-4.51,11.82-8.65a31.21,31.21,0,0,0,4.77-15.12,26.09,26.09,0,0,0-.85-8.39,20.89,20.89,0,0,0-4-7.29c-1.75-2.2-3.63-4.27-5.21-6.6a45.79,45.79,0,0,1-7.85-25.38.5.5,0,0,0-1,0Z"/><path class="cls-15" d="M359,207.69a16.7,16.7,0,0,1-1.19-9.34,31.19,31.19,0,0,1,2.42-8.62,26.2,26.2,0,0,1,8.93-10.64c2.35-1.69,4.85-3.16,7.36-4.61l-.76-.43-.33,3.48c-.08.87-.47,2.17.06,2.94s1.34.67,2.05.72a30,30,0,0,1,3.14.41,29.2,29.2,0,0,1,5.93,1.8,28.88,28.88,0,0,1,2.9,1.43,7.85,7.85,0,0,0,2.53,1.32c1,.13,2-.85,2.77-1.41l3.34-2.35-.74-.29c1.05,5.91,2.1,12.15.1,18-.21.61.75.87,1,.26,2.07-6,1-12.43-.09-18.51a.51.51,0,0,0-.74-.3l-2.52,1.78A29.35,29.35,0,0,1,392.7,185c-.77.43-1.89-.63-2.55-1s-1.62-.87-2.45-1.25a32,32,0,0,0-10.52-2.61c-.54,0-.92-.15-.89-.78s.11-1.15.17-1.73l.34-3.6a.51.51,0,0,0-.75-.44c-4.43,2.57-9,5.23-12.44,9.08A28.82,28.82,0,0,0,357,197.57a18.06,18.06,0,0,0,1.22,10.62c.28.58,1.14.08.86-.5Z"/><path class="cls-15" d="M358.06,207.44a76.74,76.74,0,0,0-5.27,8.51c-1.5,3-2.64,6.44-2.19,9.84s2.94,6.24,5.66,8.08a6.63,6.63,0,0,0,4.46,1.28,4.14,4.14,0,0,0,3.4-2.44,5.46,5.46,0,0,0-.44-4.69,13.86,13.86,0,0,0-4.16-4.05c-.52-.38-1,.49-.51.86,2.22,1.62,5.24,4,4.31,7.16a3.19,3.19,0,0,1-3.13,2.2,6.5,6.5,0,0,1-4.08-1.66c-2.39-1.91-4.47-4.5-4.59-7.68a17.73,17.73,0,0,1,2.27-8.67,78.61,78.61,0,0,1,5.14-8.23c.36-.54-.51-1-.87-.51Z"/><path class="cls-15" d="M377.32,229.63c-4.05-1-9.16-2-12.14,1.76a4.92,4.92,0,0,0-.76,5,7.53,7.53,0,0,0,4.48,3.9,24.2,24.2,0,0,0,6.56,1.37,24.85,24.85,0,0,0,6.56-.27,17,17,0,0,0,10.41-6,13.47,13.47,0,0,0,2.77-11.89.5.5,0,0,0-1,.27,12.11,12.11,0,0,1-1.68,9.75,15.22,15.22,0,0,1-8.49,6.29,23.77,23.77,0,0,1-11.67.35,12.06,12.06,0,0,1-5.56-2.22,4.4,4.4,0,0,1-1.57-4.81,5.9,5.9,0,0,1,4.36-3.42c2.49-.51,5,.17,7.43.79a.5.5,0,0,0,.27-1Z"/><path class="cls-15" d="M386,182.39c6.58-5.58,14.46-10,23.08-11.32a31.2,31.2,0,0,1,5.63-.34c.65,0,.64-1,0-1-8-.26-15.86,2.66-22.55,6.88a60.71,60.71,0,0,0-6.86,5.07c-.5.42.21,1.12.7.71Z"/><path class="cls-15" d="M409.49,179.83c2.9-2,4.48-5.28,5.43-8.62a122.66,122.66,0,0,0,2.35-12.49c1.32-7.59,3.46-15.72,9.61-20.9,2.74-2.29,7.39-4.83,10.36-1.53a4.71,4.71,0,0,1,.53,5.38c-.95,1.67-2.81,2.49-4.39,3.44-6.08,3.67-8.18,10.86-9.57,17.41s-2.5,14-7.73,18.66a13.38,13.38,0,0,1-2,1.47.5.5,0,0,0,.51.86c6.21-3.74,8.27-11.3,9.64-18s2.79-14.94,9-19.12c1.55-1,3.35-1.76,4.65-3.15a5.85,5.85,0,0,0,1.46-5.07,5.67,5.67,0,0,0-3.26-4,6.93,6.93,0,0,0-5.7.31c-7.19,3.17-11,10.93-12.81,18.16-1.14,4.54-1.69,9.18-2.54,13.77-.68,3.68-1.51,7.67-3.94,10.64a10,10,0,0,1-2,1.91c-.52.37,0,1.24.51.86Z"/><path class="cls-15" d="M421.89,172.61c5.34,1.77,10.69,4.69,13.68,9.65a16.81,16.81,0,0,1,1.81,12.47,34.76,34.76,0,0,1-3.08,8.05,37.75,37.75,0,0,1-4.95,7.31c-4.05,4.68-9.1,8.44-14.21,11.88A103.15,103.15,0,0,1,395,232.5c-.87.34-1.75.66-2.63,1-.6.21-.34,1.18.27,1a104.09,104.09,0,0,0,21-10.31A78.93,78.93,0,0,0,429,211.94a39.11,39.11,0,0,0,9-15.89,18.27,18.27,0,0,0-.93-13c-2.47-5.07-7.35-8.4-12.45-10.47-.83-.34-1.68-.64-2.54-.93-.61-.2-.87.77-.26,1Z"/><ellipse class="cls-15" cx="371.5" cy="190.79" rx="2.03" ry="1.12" transform="translate(22.21 419.73) rotate(-60.43)"/><ellipse class="cls-15" cx="381.28" cy="194.72" rx="2.26" ry="1.25" transform="translate(23.75 430.22) rotate(-60.43)"/><path class="cls-15" d="M374.36,194.93a1.38,1.38,0,0,0-1.28,0,1.16,1.16,0,0,0-.64,1.09,1.76,1.76,0,0,0,.84,1.27,1.5,1.5,0,0,0,1.4.21,1.28,1.28,0,0,0,.77-1.16,1.3,1.3,0,0,0-.74-1.17,1.36,1.36,0,0,0-.84-.11.85.85,0,0,0-.65.58.93.93,0,0,0,.91,1.17,1,1,0,0,0,.81-.43,1,1,0,0,0-.53-1.54,1.1,1.1,0,0,0-.89.06.51.51,0,0,0-.18.69.51.51,0,0,0,.68.18c.08,0-.11,0,0,0h0s-.12,0-.06,0h0l.06,0c.08,0-.08-.05,0,0l0,0,0,0,0,0c.05.05,0,0,0,0s0,0,0,0,0,.06,0,0,0,.06,0,.08v0s0-.11,0-.06a.07.07,0,0,0,0,0c0,.05,0-.09,0,0s.07-.06,0,0,.09-.05,0,0,0,0,0,0,.1,0,.06,0-.14,0-.05,0,0,0,0,0,.12,0,.07,0h0s-.07,0,0,0,0,0,0,0l.05,0,0,0c.05,0,.06.08,0,0s0-.06,0,0,0,0,0,0,0,.06,0,.06,0-.06,0-.08,0,.11,0,.06l0,.05s.06-.06,0,0,.05-.05,0,0,0,0,0,0-.11,0,0,0h.08l.09,0c.05,0-.05,0-.05,0l.05,0,.1.06c.07,0-.07-.07,0,0a.46.46,0,0,1,.07.07s0-.05,0-.05a.09.09,0,0,0,0,.05.56.56,0,0,0,.05.08l0,0v0s0,.06,0,.08c0-.14,0-.06,0,0v0c0,.09,0-.1,0,0s0,.06,0,.09l0,0s0-.06,0-.06a.3.3,0,0,0,0,.08l0,0c-.05.07.06-.07,0,0l-.06.06c-.08.07.08-.05,0,0l-.07,0c-.07,0,0,0,0,0h-.06l0,0h0a.45.45,0,0,0-.11,0,.29.29,0,0,1-.1,0h-.05l.05,0-.2-.12,0,0s0,0,0,0,0-.05-.08-.07l-.15-.16c-.05-.05.06.08,0,0l0,0-.06-.1s-.05-.11,0,0,0,0,0,0,0,0,0-.06v0s0,.11,0,0v0c0-.08,0,0,0,0s0-.07,0-.09.05,0,0,.05,0,0,0,0l0,0c0-.08,0,0,0,0l.07-.07s.09-.07,0,0,0,0,0,0,.13-.06,0,0,0,0,0,0l.09,0h.11c.06,0,.07,0-.05,0h.09l0,0c.05,0-.12-.06,0,0a.51.51,0,0,0,.38.05.5.5,0,0,0,.12-.91Z"/><path class="cls-15" d="M373.32,196.8l-1,1.74a6.3,6.3,0,0,1-.94,1.48,2.92,2.92,0,0,1-.66.44c-.27.15-.53.31-.79.48-.51.37-1,.77-1.48,1.18a.5.5,0,0,0,.71.71,15.55,15.55,0,0,1,1.44-1.13,8.52,8.52,0,0,0,1.55-1,8,8,0,0,0,1-1.53l1-1.84a.5.5,0,0,0-.86-.5Z"/><path class="cls-15" d="M371.43,200.77a9.69,9.69,0,0,1,.32,2.94.49.49,0,0,0,.5.5.51.51,0,0,0,.5-.5,10.82,10.82,0,0,0-.36-3.2.5.5,0,1,0-1,.26Z"/><path class="cls-15" d="M349.29,214.72a38.71,38.71,0,0,1,8.45-5.84c.57-.29.07-1.15-.51-.86a38.39,38.39,0,0,0-4.5,2.75,39.3,39.3,0,0,0-4.15,3.25c-.48.43.23,1.14.71.7Z"/><path class="cls-15" d="M424.31,173.29a263.89,263.89,0,0,1,48.94-22.78,366.93,366.93,0,0,1,52-13.8c18.22-3.51,36.66-5.87,55.12-7.7a532.8,532.8,0,0,1,58-2.89,333.28,333.28,0,0,1,58,5.33q3.54.66,7.07,1.41c.62.14.89-.83.26-1a320.56,320.56,0,0,0-57.61-6.63,498.53,498.53,0,0,0-58.86,2.08c-18.56,1.67-37.12,3.88-55.48,7.13a385.27,385.27,0,0,0-52.72,13,273.31,273.31,0,0,0-49.5,21.58c-1.94,1.1-3.86,2.23-5.78,3.38a.5.5,0,0,0,.51.86Z"/></g></g></svg>