<svg xmlns="http://www.w3.org/2000/svg" viewBox="0 0 588.19 366.98"><defs><style>.cls-1{opacity:0.25;isolation:isolate;}.cls-2{fill:#eaa49a;}.cls-3{fill:#b7b7b7;}.cls-4{opacity:0.14;}.cls-5{fill:#c6c4c4;}.cls-6{fill:#333;}</style></defs><title>메인_1</title><g id="Layer_2" data-name="Layer 2"><g id="Layer_3" data-name="Layer 3"><g class="cls-1"><path class="cls-2" d="M280.69,63.34a4.66,4.66,0,0,1,.49.16l-1.08-.45a3.53,3.53,0,0,1,.59.35l-.91-.71a4.45,4.45,0,0,1,.49.48l-.7-.91A3.44,3.44,0,0,1,280,63l-.46-1.08a4.74,4.74,0,0,1,.15.5l-.16-1.19a1.36,1.36,0,0,1,0,.35l.16-1.2,0,.17.45-1.07-.07.12.7-.91-.1.1.91-.7-.12.07,1.07-.46-.13,0,1.2-.17h-.14l2.27.61-.12-.06.91.71a1.07,1.07,0,0,1-.18-.19l.7.91a4.3,4.3,0,0,1-.54-.9l.45,1.08-.07-.2a4.92,4.92,0,0,0-2.07-2.69,4.62,4.62,0,0,0-3.47-.45,4.55,4.55,0,0,0-2.69,2.07,4.35,4.35,0,0,0-.45,3.46c.76,2,1.88,3.89,4.06,4.49a5.1,5.1,0,0,0,6.32-4.82,7.31,7.31,0,0,0-5.47-6.92,4.5,4.5,0,1,0-2.39,8.68Z" transform="translate(-0.01)"/></g><g class="cls-1"><path class="cls-2" d="M315.36,53.15c-2.79-1.6-5.95-2-8.64.06A7.43,7.43,0,0,0,304,61a6.85,6.85,0,0,0,6.41,4.84c3.42,0,5.46-2.58,6.59-5.48.86-2.2-.94-5-3.14-5.54A4.62,4.62,0,0,0,308.35,58c.27-.61.31-.7.09-.26s-.18.35.21-.19a2.71,2.71,0,0,1,1.78-.67,2.35,2.35,0,0,1,1.32.37c-.3-.19-.29-.16.05.07a2.71,2.71,0,0,1,.95,2c0-.5,0-.38-.08.34l-.25.53c.25-.42.17-.36-.22.17.35-.33.27-.29-.23.13a2.65,2.65,0,0,1-1.62.22c.48.15.43.13-.12-.08l.59.33a4.5,4.5,0,1,0,4.54-7.77Z" transform="translate(-0.01)"/></g><g class="cls-1"><path class="cls-2" d="M286.6,86.38c-8,.78-16.13,3-22.4,8.35-6.71,5.69-8.41,14.56-1.23,20.6,6.09,5.13,13.64,8.1,20.48,12s16.06,7.16,22.93,1.09c6.23-5.5,4.49-14.61,1.74-21.51-1.6-4-4.33-7.16-7-10.55-2.35-3-4.44-6.26-7.92-8-7.72-4-17.61,2-20.2,9.76-3,9.07,6,15.68,13.27,18.83,4.21,1.84,9.12,1.24,11.63-3,2.11-3.6,1.18-9.78-3.05-11.63a20.11,20.11,0,0,1-7.57-5.11l2.19,3.75-.48-1.4V104c0-.13.47-.25.86-.32h-4.52c-.61-.82-.44-.64.5.55l2.18,2.79a38.11,38.11,0,0,1,3.84,5.11c.86,1.62.79,3.59,1.58,5.16q.29,4.49,3.13-2.37a6.51,6.51,0,0,1-1.71-.63c-6.33-5.71-16.48-6.57-22.15-13.22l2.19,3.75-.21-1.08v4.52c.71-3.1,9.43-4.67,11.89-4.91,4.57-.45,8.5-3.59,8.5-8.5,0-4.26-3.91-8.95-8.5-8.5Z" transform="translate(-0.01)"/></g><g class="cls-1"><path class="cls-2" d="M312,96.07c9.16.65,19.61,6.19,27.17,11.15a52.5,52.5,0,0,1,17.4,18.66c7.82,14.42,2.22,27.56-8.41,38.84-5.73,6.08,3.44,15.29,9.2,9.19,7.36-7.81,13.91-17,15.66-27.82,1.45-8.94-.51-17.48-4.55-25.49C363.58,111,355.84,103,347,96.9c-9.85-6.8-23-13-35.07-13.83-8.35-.6-8.31,12.41,0,13Z" transform="translate(-0.01)"/></g><g class="cls-1"><path class="cls-3" d="M351.81,84.08c-4.56-4.62-9.06-9.69-11.64-15.73-2.89-6.77-2-14.13-2.7-21.28C336.28,34,333,19.13,324.19,9c-7.85-9.12-21-12.09-30.88-5,1.38.29,2.75.63,4.09,1,5.87,1.7,12.75,5.61,16.72,11a18.61,18.61,0,0,1,3.6,5.89,14.58,14.58,0,0,1,2.12,5.41A79,79,0,0,1,324,43.39c.94,6.28.53,12.64,1.3,18.93,1.27,10.41,6.6,19.15,13.44,26.87,3.63,4.09,7.73,7.69,11.54,11.59,3.54,3.63,13.3,9.2,11.91,14.58-2.08,8.11,6.45,11.57,8.54,3.46C374.56,104.07,361.08,93.48,351.81,84.08Z" transform="translate(-0.01)"/></g><g class="cls-4"><path class="cls-5" d="M207.78,190a557,557,0,0,0-83,45.26c-9.85,6.51-16.5,19.1-12.64,31.06a32.71,32.71,0,0,0,7.08,12.13c4.13,4.51,13.19,8.79,19.44,8.06l58.8-6.9-13.88-51.25L98,274.62c-12.67,6.85-17.72,25.43-9.86,37.62,8.29,12.86,24.07,17.19,37.62,9.87l85.59-46.26C221.57,270.31,227.58,256,224,244.8a32.86,32.86,0,0,0-7.07-12.14c-4.14-4.5-13.19-8.78-19.44-8l-58.8,6.9,13.88,51.24a557,557,0,0,1,83-45.26c5.89-2.59,11-10.52,12.64-16.44,1.81-6.58,1-15.34-2.77-21.19s-9.43-11-16.44-12.63c-7.67-1.75-14.05-.37-21.19,2.77Z" transform="translate(-0.01)"/></g></g><g id="Layer_2-2" data-name="Layer 2"><path class="cls-6" d="M286.51,17.14a11.85,11.85,0,0,0-5.95,8.55,14.06,14.06,0,0,0,3,10.76,10.45,10.45,0,0,0,5.28,3.91.5.5,0,0,0,.26-1,9.13,9.13,0,0,1-4.39-3.11,14,14,0,0,1-2.65-4.62,11.67,11.67,0,0,1,.91-9.82A10.35,10.35,0,0,1,287,18c.57-.3.07-1.16-.5-.86Z" transform="translate(-0.01)"/><path class="cls-6" d="M282,36.49a21.36,21.36,0,0,0-5.65,11.86,28,28,0,0,0,.11,7.14,22.71,22.71,0,0,0,1.82,7,23,23,0,0,0,9.07,9.46,18.88,18.88,0,0,0,5.41,2.26,24.46,24.46,0,0,0,7.49.38,20.21,20.21,0,0,0,13.66-7.41,23.29,23.29,0,0,0,3.7-6.62c1-2.61,1.84-5.29,3.49-7.59,1.35-1.89,3.12-3.67,3.7-6a5.73,5.73,0,0,0-.25-3.54,13.55,13.55,0,0,0-1.75-3.27,3.45,3.45,0,0,0-3-1.48A11.76,11.76,0,0,0,316.07,40a19.8,19.8,0,0,1-7.35,1.56,17.38,17.38,0,0,1-13.3-5.42,16,16,0,0,1-3.94-12.8,13.74,13.74,0,0,1,.94-3.25c.25-.58-.61-1.09-.87-.51a16,16,0,0,0,.23,12.69,16.84,16.84,0,0,0,9.57,9,20.45,20.45,0,0,0,13.93.06c1.2-.42,2.32-1.08,3.52-1.47a2.93,2.93,0,0,1,2-.09,3.08,3.08,0,0,1,1.42,1.3,11.31,11.31,0,0,1,1.61,3.49,5,5,0,0,1-.51,3.38c-1.07,2.14-2.87,3.82-4,5.9a64.38,64.38,0,0,0-3.06,7.4,20.31,20.31,0,0,1-10.42,10.86,19.32,19.32,0,0,1-7.95,1.53,19.84,19.84,0,0,1-6.46-.91,23,23,0,0,1-10.13-7.38,16.71,16.71,0,0,1-3-5.76,32,32,0,0,1-1.07-7.4,20.51,20.51,0,0,1,3.38-12.32,24,24,0,0,1,2.14-2.69c.44-.48-.27-1.19-.7-.71Z" transform="translate(-0.01)"/><path class="cls-6" d="M289.94,4.57C282.6,3.51,275.33,7.3,270.85,13c-5.06,6.42-6.89,14.68-7.44,22.68-.32,4.7-.23,9.41-.25,14.11s-.23,9.35-.68,14c-.4,4-.79,8-1.56,12a86.05,86.05,0,0,1-2.23,8.63c-1,3.24-2.13,6.45-3.41,9.59a52.37,52.37,0,0,1-3.88,7.88c-.3.48-.61.94-.94,1.39s.48,1,.86.51a37.79,37.79,0,0,0,3.81-6.91c1.33-3,2.48-6,3.52-9.08s1.92-6,2.66-9.12a86.89,86.89,0,0,0,1.56-9.49c.57-4.54,1-9.1,1.19-13.67s.06-9.25.13-13.87c.12-8.31.9-17,5-24.35,3.59-6.44,10.12-11.68,17.73-11.89a15.74,15.74,0,0,1,2.74.15c.63.09.9-.87.27-1Z" transform="translate(-0.01)"/><path class="cls-6" d="M293.73,4.5c7.84-4.51,18-2.31,24.77,3.12,7.61,6.06,11.24,15.81,12.69,25.14,1.6,10.3.42,20.93,3,31.09a36.61,36.61,0,0,0,6.63,13.42c3.07,4,6.69,7.52,10.1,11.22A56.47,56.47,0,0,1,360,101a41,41,0,0,1,2.83,7.44,19.2,19.2,0,0,1,.82,6.3,19.71,19.71,0,0,1-.49,3.14c-.15.62.81.89,1,.26a18,18,0,0,0,.44-6.21,33,33,0,0,0-1.86-7.18,45.09,45.09,0,0,0-8-13.44c-6.6-8-15.19-14.58-18.65-24.7s-2.27-21.33-3.59-31.94C331.26,25,328,15.09,320.8,8.29c-6.36-6-16.26-9.14-24.68-6a19,19,0,0,0-2.89,1.36.5.5,0,0,0,.5.86Z" transform="translate(-0.01)"/><path class="cls-6" d="M291.27,73.91A9,9,0,0,1,292.48,79a7.79,7.79,0,0,1-.18,2.55c-.28.8-1.09,1-1.49,1.71-.56,1,.35,1.81.7,2.67a15.76,15.76,0,0,1,.75,2.6,81.63,81.63,0,0,1,1.23,8.08c.43,3.57.81,7.15,1.25,10.73.57,4.64,1.22,9.28,2.05,13.89.11.63,1.08.36,1-.27-1.42-7.85-2.24-15.78-3.18-23.7-.33-2.78-.65-5.57-1.2-8.32a22.25,22.25,0,0,0-.72-2.81,9.41,9.41,0,0,0-.45-1.1c-.21-.42-.79-1-.42-1.4s.65-.5.92-.8a3,3,0,0,0,.59-1.11,9.53,9.53,0,0,0,.19-2.72,10,10,0,0,0-1.34-5.58c-.36-.52-1.23,0-.87.51Z" transform="translate(-0.01)"/><path class="cls-6" d="M305.91,72.45a12.4,12.4,0,0,0-.24,5.87,12.19,12.19,0,0,0,.92,2.75,4.09,4.09,0,0,1,.58,1.3,2,2,0,0,1-.31.85,34.63,34.63,0,0,0-1.66,5c-1.7,6.11-3.08,12.3-4.62,18.45-1.21,4.78-2.46,9.55-3.79,14.29a.5.5,0,0,0,1,.27c2.19-7.8,4.14-15.66,6.07-23.53.68-2.78,1.36-5.56,2.1-8.32A43.11,43.11,0,0,1,307.6,84a5,5,0,0,0,.56-1.45,2.56,2.56,0,0,0-.37-1.34,13.84,13.84,0,0,1-.73-1.62,11.34,11.34,0,0,1-.18-6.89.5.5,0,0,0-1-.26Z" transform="translate(-0.01)"/><path class="cls-6" d="M292.7,80.3c-2.9,1.85-6,3.38-8.86,5.3a1.56,1.56,0,0,0-.88,1.51c.1.79.85,1.42,1.35,2,1.25,1.41,2.58,2.78,3.77,4.24.61.76.23,1.55,0,2.38l-.88,2.85-1.7,5.47a19.2,19.2,0,0,0-.75,2.59,2.84,2.84,0,0,0,.59,2.18c1,1.39,2.15,2.7,3.27,4a104.6,104.6,0,0,0,8.35,8.63c.47.44,1.18-.27.7-.71q-3.74-3.45-7.13-7.24-1.65-1.86-3.22-3.79a10.82,10.82,0,0,1-1.44-1.92c-.42-.87.11-1.91.38-2.77l1.62-5.22c.51-1.65,1.17-3.32,1.54-5s-.92-2.52-1.87-3.59l-1.82-2.05-.83-.93c-.26-.3-1-.91-.9-1.35s.77-.63,1-.78.74-.46,1.12-.68c.77-.47,1.55-.92,2.34-1.37,1.6-.93,3.22-1.85,4.78-2.85.55-.35,0-1.21-.5-.87Z" transform="translate(-0.01)"/><path class="cls-6" d="M306.54,80.27a33.4,33.4,0,0,1,8.68,6.91l.39.48c.23.29.1.28-.17.46s-.76.51-1.13.79a21,21,0,0,0-2,1.73c-1.08,1-2.75,2.49-2.33,4.17a29.64,29.64,0,0,0,1,2.86c.37,1,.73,2,1.09,3l1.05,3c.18.5.35,1,.52,1.5a2.29,2.29,0,0,1,.2,1.43,7.19,7.19,0,0,1-1.59,2.18,23.76,23.76,0,0,1-1.79,1.83,42.76,42.76,0,0,1-4,3.29,95.62,95.62,0,0,0-9.29,7.12c-.47.44.24,1.14.7.7,5.21-4.9,12.26-7.93,16.46-13.88a2.72,2.72,0,0,0,.49-2.43c-.29-1-.69-2-1-3q-1.11-3.16-2.28-6.31c-.17-.46-.38-.92-.51-1.39a1.55,1.55,0,0,1,.39-1.46,16.49,16.49,0,0,1,2-2.12,19.32,19.32,0,0,1,2.3-1.84c.56-.38,1.55-.83,1.16-1.67a5.63,5.63,0,0,0-.82-1.07c-.34-.4-.69-.79-1.06-1.17a27.23,27.23,0,0,0-2.46-2.22A44.81,44.81,0,0,0,307,79.4a.5.5,0,0,0-.5.87Z" transform="translate(-0.01)"/><path class="cls-6" d="M282.58,85.93c-8.39,1.72-16.11,5.68-23.14,10.5-3.55,2.44-6.95,5.09-10.27,7.84a75,75,0,0,0-9.76,9.35,50.75,50.75,0,0,0-10.76,22.09,43,43,0,0,0-.89,11.92,42.52,42.52,0,0,0,2.46,11.19,51.91,51.91,0,0,0,12.42,19.62c.66.64,1.33,1.25,2,1.85.49.41,1.2-.29.71-.71a49.56,49.56,0,0,1-13.18-18.42,45.57,45.57,0,0,1-3.15-10.89,39.62,39.62,0,0,1,.09-11.66,49.55,49.55,0,0,1,9.33-22.19,59.48,59.48,0,0,1,8.94-9.35c3.27-2.84,6.66-5.56,10.16-8.1,6.77-4.91,14.16-9.17,22.28-11.37,1-.26,2-.5,3-.71.63-.12.36-1.09-.27-1Z" transform="translate(-0.01)"/><path class="cls-6" d="M311.83,83.41A48.22,48.22,0,0,1,326,87.93a138.32,138.32,0,0,1,12.37,6.75,100.71,100.71,0,0,1,11.53,8.25,62,62,0,0,1,9.8,9.84,50.81,50.81,0,0,1,6.58,11.81A62.81,62.81,0,0,1,370,137.4c1.21,7.26-.92,14.7-4.71,20.89a43.83,43.83,0,0,1-17.44,15.88c-.9.46-1.82.89-2.75,1.29-.59.25-.08,1.11.51.86a45.29,45.29,0,0,0,18.93-15.11c4.35-6.06,7.15-13.48,6.76-21a47.91,47.91,0,0,0-2.78-12.54,56,56,0,0,0-5.85-12.43,52.53,52.53,0,0,0-9.08-10.44,95.53,95.53,0,0,0-11.38-8.85,125.74,125.74,0,0,0-12.56-7.32,61.19,61.19,0,0,0-13.79-5.47q-1.85-.42-3.72-.69c-.63-.09-.91.87-.27,1Z" transform="translate(-0.01)"/><path class="cls-6" d="M339.48,204.5c7.11-4.18,6.93-13.39,6.58-20.61-.09-1.86-.21-3.72-.24-5.59-.05-2.83,0-5.67,0-8.51-.07-6.15-.25-12.31-.62-18.46-.09-1.53-.2-3.05-.31-4.58a19.88,19.88,0,0,0-.49-4c-.76-2.56-3.24-3.16-5.57-3.68-5.73-1.28-11.64-1.13-17.47-.92-11.74.43-23.47.07-35.2-.23q-9-.23-18.1-.36c-3,0-6,0-9-.14-1.72-.05-3.44-.28-5.17-.27a8,8,0,0,0-4.44,1,5.81,5.81,0,0,0-2.28,4.41c-.71,6.11-1.23,12.24-1.61,18.38s-.61,12.37-.68,18.57c0,3.05,0,6.11,0,9.16,0,2.82-.12,5.8.55,8.55a7.33,7.33,0,0,0,3,4.43,13,13,0,0,0,4.93,1.89,46.5,46.5,0,0,0,5.52.69c2.1.18,4.18.45,6.27.73a313.66,313.66,0,0,0,36.75,2.69c5.63.08,11.26-.13,16.88-.07,4.86.05,9.8.16,14.58-.85a21.34,21.34,0,0,0,6.17-2.28.5.5,0,0,0-.5-.86c-4.07,2.32-8.89,2.83-13.49,3-2.34.08-4.69,0-7,0-2.51,0-5,0-7.52.07a314.84,314.84,0,0,1-35.68-1.51c-2.94-.29-5.88-.63-8.81-1-2.23-.29-4.45-.64-6.69-.83-3.42-.29-7.25-.4-10.3-2.16a6.37,6.37,0,0,1-3.07-4.2,19.52,19.52,0,0,1-.44-4.11c0-1.47-.06-2.94-.08-4.42q-.12-8.91.2-17.83t1.07-17.8c.25-3,.55-6,.87-9,.2-1.8.37-3.82,2.07-4.87a8.1,8.1,0,0,1,4.48-.8c1.71.05,3.42.25,5.14.27q8.94.13,17.9.3c11.36.23,22.72.65,34.09.63,5.73,0,11.46-.43,17.19-.34a50.63,50.63,0,0,1,8.51.78,22.86,22.86,0,0,1,3.83,1,3.44,3.44,0,0,1,2.28,2.63,27.92,27.92,0,0,1,.41,4.09c.11,1.48.21,3,.3,4.45q.26,4.45.39,8.92c.18,5.79.14,11.57.23,17.36.06,3.7.43,7.4.37,11.1s-.49,7.53-2.46,10.68a11,11,0,0,1-3.75,3.63A.5.5,0,0,0,339.48,204.5Z" transform="translate(-0.01)"/><path class="cls-6" d="M255.55,132.71a5.82,5.82,0,0,0,2.15,5,.53.53,0,0,0,.71,0,.5.5,0,0,0,0-.71,4.89,4.89,0,0,1-1.86-4.31.5.5,0,0,0-.5-.5.51.51,0,0,0-.5.5Z" transform="translate(-0.01)"/><path class="cls-6" d="M335.7,133.72a7,7,0,0,1-2,4.24c-.46.46.25,1.17.7.71a8,8,0,0,0,2.29-4.95.51.51,0,0,0-.5-.5.51.51,0,0,0-.5.5Z" transform="translate(-0.01)"/><path class="cls-6" d="M296.92,121.32A21.16,21.16,0,0,1,298.63,138c-.2.61.77.88,1,.27a22.18,22.18,0,0,0-1.81-17.49c-.31-.56-1.18,0-.86.51Z" transform="translate(-0.01)"/><path class="cls-6" d="M296,127.12a3,3,0,0,0,0,.9,3.2,3.2,0,0,0,.27,1,.46.46,0,0,0,.36.24.5.5,0,0,0,.42-.13,1.67,1.67,0,0,0,.58-1.16,1.72,1.72,0,0,0-.05-.6,1.66,1.66,0,0,0-.33-.63.51.51,0,0,0-.35-.15.55.55,0,0,0-.36.15.52.52,0,0,0-.14.35.57.57,0,0,0,.14.36c-.11-.14,0,0,0,0a.67.67,0,0,1,.06.12l-.05-.12a1.68,1.68,0,0,1,.09.32l0-.14a1.82,1.82,0,0,1,0,.33l0-.13a1.89,1.89,0,0,1-.09.34l.05-.12a1.88,1.88,0,0,1-.14.24s.1-.11,0,0l-.05.05a.94.94,0,0,1-.1.1l.78.1,0-.08.05.12a2.46,2.46,0,0,1-.17-.63l0,.13a2.36,2.36,0,0,1,0-.65l0,.13s0-.08,0-.12a.56.56,0,0,0-.05-.38.46.46,0,0,0-.3-.23.5.5,0,0,0-.62.35Z" transform="translate(-0.01)"/><path class="cls-6" d="M293.69,51.35c.14.93.27,1.86.4,2.79a1.23,1.23,0,0,1-.16,1.12,6.75,6.75,0,0,0-.82.87,1.8,1.8,0,0,0-.07,2.11,1.39,1.39,0,0,0,1.82.4c.53-.36,0-1.23-.5-.87a.34.34,0,0,1-.44,0,.59.59,0,0,1-.16-.65c.17-.67.88-.94,1.19-1.53a3.4,3.4,0,0,0,.05-2.07l-.34-2.4a.5.5,0,0,0-1,.27Z" transform="translate(-0.01)"/><ellipse class="cls-6" cx="302.47" cy="49.56" rx="1.61" ry="2.8" transform="translate(-2.8 21.98) rotate(-4.14)"/><ellipse class="cls-6" cx="286.58" cy="51.07" rx="1.61" ry="2.8" transform="translate(-2.95 20.84) rotate(-4.14)"/><path class="cls-6" d="M281.69,43.41a15,15,0,0,1,7-.75c.27,0,.5-.25.5-.5a.5.5,0,0,0-.5-.5,15.68,15.68,0,0,0-7.31.79c-.6.21-.34,1.18.27,1Z" transform="translate(-0.01)"/><path class="cls-6" d="M294.27,163.47a2.66,2.66,0,0,1-2.5-3.3,3.09,3.09,0,0,1,3.59-2.22l-.12-.92a5.34,5.34,0,0,0-2.62,3.6,3.37,3.37,0,0,0,1.42,3.72c.57.29,1.07-.57.5-.86a2.43,2.43,0,0,1-.92-2.78,4.39,4.39,0,0,1,2.13-2.81.51.51,0,0,0-.12-.92,4.27,4.27,0,0,0-4.33,1.75,3.88,3.88,0,0,0,.3,4.54,3.62,3.62,0,0,0,2.67,1.2c.64,0,.64-1,0-1Z" transform="translate(-0.01)"/><path class="cls-6" d="M294.38,168c.08-2.19-2.48-2.73-4.19-2.54a3.73,3.73,0,0,0-3.25,3.51,5.57,5.57,0,0,0,6.89,6.73,8.15,8.15,0,0,0,5.26-3.73.5.5,0,0,0-.43-.75c-1.65-.14-1.74-2.24-.57-3.06.44-.31,1-.37,1.36-.82a1,1,0,0,0-.19-1.36,4.58,4.58,0,0,0-3.94-.73,2.79,2.79,0,0,0-2,2.65c0,.64,1,.64,1,0,0-1.45,1.56-2,2.75-1.74a5,5,0,0,1,.93.28,1.51,1.51,0,0,1,.45.2c.13.13.17.07,0,.21a3.34,3.34,0,0,1-.69.32,2.89,2.89,0,0,0-.64.46,2.64,2.64,0,0,0,1.5,4.59l-.43-.75a7.17,7.17,0,0,1-4.56,3.24,4.81,4.81,0,0,1-5.22-2,5.5,5.5,0,0,1,.11-5.36,2.82,2.82,0,0,1,2.49-1c1,0,2.38.35,2.33,1.58a.5.5,0,0,0,1,0Z" transform="translate(-0.01)"/><path class="cls-6" d="M333.3,55.93c9.08.54,18.17,1.07,27.27,1.36s18,.32,27-.12c4.55-.22,9.1-.56,13.63-1.06,2.84-.3,5.82-.54,8.51.65a10.62,10.62,0,0,1,5,5c1.68,3.19,2.55,6.84,3.52,10.29a163,163,0,0,1,5.18,25.59,113.58,113.58,0,0,1,.15,25.8,118.93,118.93,0,0,1-6.31,25.67A62.32,62.32,0,0,1,413,159.48a14.89,14.89,0,0,1-3.27,4.08,21,21,0,0,1-5.1,3,52.22,52.22,0,0,1-12,3.37,117.31,117.31,0,0,1-12.4,1.55c-7.93.58-15.89.54-23.83,1.09-2.13.15-4.26.33-6.39.56-.63.07-.64,1.07,0,1,8.29-.89,16.61-1,24.92-1.34s16.79-1.15,24.82-3.43a38.82,38.82,0,0,0,5.81-2.12,21,21,0,0,0,5-3c2.67-2.29,4.21-5.58,5.47-8.8a140.43,140.43,0,0,0,7.53-25.12,105.67,105.67,0,0,0,1.45-26.22,148.93,148.93,0,0,0-4.16-26.13c-1.05-4.26-2.2-8.52-3.59-12.68a18.67,18.67,0,0,0-3.86-7.14A10.68,10.68,0,0,0,406.84,55a19.35,19.35,0,0,0-4.5,0c-2.32.24-4.63.48-6.95.67-9.19.75-18.41.94-27.62.8s-18.46-.6-27.67-1.13l-6.8-.4c-.65,0-.64,1,0,1Z" transform="translate(-0.01)"/><path class="cls-6" d="M409,58.33c-3-.38-4.45,3.7-5.33,5.83a55.62,55.62,0,0,0-3,10,201.53,201.53,0,0,0-3.11,21.73c-1.37,14.32-1.2,28.93,2.24,43a82.62,82.62,0,0,0,8.36,21.31.5.5,0,0,0,.86-.5c-6.6-11.59-9.91-24.78-10.91-38-1.09-14.42.36-29,2.77-43.21a74.6,74.6,0,0,1,2.61-11,39.36,39.36,0,0,1,2.18-5.3c.64-1.26,1.64-3,3.29-2.75.63.08.63-.92,0-1Z" transform="translate(-0.01)"/><path class="cls-6" d="M262.58,54.89a270.59,270.59,0,0,0-40.16.84,75.63,75.63,0,0,0-9.13,1.13A10.27,10.27,0,0,0,206.72,61a28,28,0,0,0-3.32,8.24c-.88,3.11-1.55,6.27-2.23,9.42a350.51,350.51,0,0,0-6.1,39.33,157.83,157.83,0,0,0-1,19.67,71.23,71.23,0,0,0,.89,9.57,34.88,34.88,0,0,0,2.11,7.83,17,17,0,0,0,4.09,6.1,13.77,13.77,0,0,0,7.18,3.24,61,61,0,0,0,9,.42l10.12.12,4.94.05a.5.5,0,0,0,0-1c-6.46-.07-12.93-.07-19.38-.22a20.56,20.56,0,0,1-8.4-1.51,12.66,12.66,0,0,1-5.31-5c-2.85-4.75-3.63-10.67-4-16.1a120.56,120.56,0,0,1,.44-19,345.35,345.35,0,0,1,5.45-38.41c.62-3.15,1.29-6.3,2-9.43a68.74,68.74,0,0,1,2.54-8.92c1-2.67,2.32-5.26,5-6.57,2.46-1.22,5.37-1.38,8.05-1.68a270.67,270.67,0,0,1,39-1.42c1.61,0,3.21.12,4.81.21.64,0,.64-1,0-1Z" transform="translate(-0.01)"/><path class="cls-6" d="M420.61,143.63q33.15-.51,66.32-.72,16.43-.1,32.85-.12c10.64,0,21.29.07,31.93.67a218.72,218.72,0,0,1,35.86,4.71c.62.14.89-.82.26-1-20.93-4.72-42.48-5.36-63.86-5.41-22,0-44,.13-66,.36q-18.66.19-37.32.48a.5.5,0,0,0,0,1Z" transform="translate(-0.01)"/><path class="cls-6" d="M193.54,138.25l-25.79-.16c-8.5-.06-17-.3-25.52,0a95.3,95.3,0,0,0-12.51,1.22,29.14,29.14,0,0,0-10.43,3.39c-3.12,1.89-5.41,4.78-7.57,7.66q-3.43,4.56-6.64,9.28a369.8,369.8,0,0,0-22.82,39.07c-6.93,13.42-13.41,27.06-20.18,40.55s-13.89,27-22,39.78c-1,1.56-2,3.1-3,4.64-.35.54.52,1,.87.5a413.75,413.75,0,0,0,22.38-39.29c6.77-13.3,13.17-26.78,19.91-40.09a423.88,423.88,0,0,1,21.89-39q3-4.71,6.28-9.31a106.9,106.9,0,0,1,6.83-9,20.41,20.41,0,0,1,4.29-3.8,20.71,20.71,0,0,1,5.15-2.25,60.17,60.17,0,0,1,11.91-2c8.38-.73,16.82-.46,25.22-.41l25.48.16,6.22,0a.5.5,0,0,0,0-1Z" transform="translate(-0.01)"/><path class="cls-6" d="M245.21,179.8a66.8,66.8,0,0,0-32.33,7c-10.3,5.17-18.62,13.26-28,19.8-17,11.88-37.59,16.38-56.64,23.92-9.28,3.66-18.31,8.12-26.12,14.4-4.49,3.6-8.54,7.73-13.13,11.22s-10,6-15.22,8.72C58.17,273,39.83,278.17,27.92,291.9a46.48,46.48,0,0,0-7.62,12.54C17.94,310,15.94,315.76,14,321.49q-6,17.4-10.49,35.28c-.36,1.44-.71,2.89-1.06,4.33l-.54,2.28-.21.92c0,.11-.55,2.13-.82,1.71.34.54,1.21,0,.86-.5-.7-1.1-2.3.27-1.47,1.17a1.16,1.16,0,0,0,1.55,0c.91-.68.92-2.47,1.16-3.5q2.17-9.24,4.76-18.39,5.19-18.37,12-36.25a53.26,53.26,0,0,1,7.81-14.63,51,51,0,0,1,10.32-9.58c7.64-5.42,16.27-9.21,24.77-13.06,4.22-1.92,8.42-3.89,12.53-6,5.22-2.72,10.47-5.23,15.13-8.87s8.93-8,13.69-11.68a83.87,83.87,0,0,1,13-8.11c18.86-9.61,40.09-13.45,58.83-23.34a100.63,100.63,0,0,0,13.76-8.89c4.74-3.59,9.31-7.43,14.17-10.86a65.4,65.4,0,0,1,41.44-12.7c.64,0,.64-1,0-1Z" transform="translate(-0.01)"/><path class="cls-6" d="M346.12,178.29a171.75,171.75,0,0,0,28.31,7.37q7,1.18,14.09,1.8A141.83,141.83,0,0,1,402.94,189a41.19,41.19,0,0,1,12.77,4.79c3.83,2.19,7.4,4.79,11.06,7.25,7.38,5,15.5,8.34,23.37,12.41a66.3,66.3,0,0,1,11.43,7.29c3.43,2.78,6.62,5.85,10.16,8.49,7.2,5.37,15.8,8.09,24.21,10.91,17.75,5.94,35.1,13.42,50.65,23.94,14.08,9.52,26.65,21.62,35.57,36.17,1.09,1.79,2.13,3.62,3.12,5.47.3.57,1.16.07.86-.5-7.95-15-19.67-27.65-33.17-37.81-14.68-11.05-31.41-19.09-48.61-25.38-8.69-3.19-17.87-5.49-26.09-9.85s-14.1-11.5-21.86-16.35c-7.59-4.73-16.06-7.8-23.79-12.28-7.52-4.36-14.16-10.28-22.32-13.5-8.81-3.48-18.61-3.1-27.87-4.23a171.71,171.71,0,0,1-29.15-6.22c-2.31-.71-4.61-1.48-6.9-2.28-.61-.22-.87.75-.26,1Z" transform="translate(-0.01)"/></g></g></svg>