<svg xmlns="http://www.w3.org/2000/svg" viewBox="0 0 74.13 168.47"><defs><style>.cls-1{fill:#333;}.cls-2{opacity:0.5;}.cls-3{fill:#136734;}</style></defs><title>선인장</title><g id="Layer_2" data-name="Layer 2"><g id="Layer_2-2" data-name="Layer 2"><path class="cls-1" d="M.09,102.36c.57,3.23-.56,6.5.16,9.72a6.49,6.49,0,0,0,5.49,5.17c3.31.64,6.7,1,10,1.46s6.75.87,10.13,1.21c13.36,1.32,27.16,1.39,40.09-2.68,2.86-.89,6.69-1.81,7.8-5,1-2.87-.71-6-.19-8.9.16-.94-1.28-1.35-1.45-.4-.45,2.57.47,4.92.44,7.47,0,3.22-3.33,4.15-5.87,5A74.86,74.86,0,0,1,48.09,119c-12.83.88-25.69-.79-38.37-2.64a27.44,27.44,0,0,1-4.92-.88,4.62,4.62,0,0,1-3-3.26c-1-3.33.31-6.85-.29-10.25-.17-.95-1.62-.55-1.45.4Z"/><path class="cls-1" d="M1.07,103.88a147.72,147.72,0,0,0,29.24,3.75c4.91.2,9.82.25,14.72.26,4.62,0,9.27.11,13.88-.2,4.91-.32,9.81-1.25,14.11-3.73a.75.75,0,0,0-.76-1.3c-7.74,4.48-17.36,3.73-26,3.73a266.74,266.74,0,0,1-28.83-1.18,123.74,123.74,0,0,1-16-2.77c-.94-.23-1.34,1.21-.4,1.44Z"/><path class="cls-1" d="M6.63,117.3a215.89,215.89,0,0,0,6.51,32.32c.72,2.62,1.48,5.23,2.22,7.84a33.16,33.16,0,0,0,1.51,4.78c1.52,3.3,5.31,4.81,8.65,5.5,4.39.92,8.93.75,13.39.66,3.55-.08,7.22.14,10.7-.71a10.42,10.42,0,0,0,6.14-4.1c2.31-3.2,3.48-7.29,4.68-11a134.58,134.58,0,0,0,4.49-18c.53-3,.94-6.05,1.31-9.08.19-1.57.37-3.13.56-4.69l.26-2.19a5.64,5.64,0,0,0,.16-1.86.75.75,0,0,0-1.1-.45c.18-.12.23-.14-.14-.12a1.32,1.32,0,0,0-.33.08,1.16,1.16,0,0,0-.67.67,1,1,0,0,0,.65,1.37c.94.16,1.35-1.29.4-1.44l.13.08.22.54c-.52.12-.61.21-.26.26a.61.61,0,0,0,.3,0,1.14,1.14,0,0,0,.45-.15l-1.1-.45c0-.12-.13.77-.13.73L65.5,119l-.21,1.83c-.16,1.32-.31,2.65-.47,4-.33,2.67-.67,5.34-1.11,8a131.86,131.86,0,0,1-3.47,15.34,70.88,70.88,0,0,1-4.5,12.61,10,10,0,0,1-5.08,5.11c-2.84,1.09-6.08,1-9.08,1-4.13,0-8.27.29-12.4-.08-3.48-.32-8.19-1.11-10.39-4.17a12.59,12.59,0,0,1-1.58-4.08c-.62-2.3-1.31-4.59-2-6.89A219.61,219.61,0,0,1,8.13,117.3c-.11-.94-1.61-1-1.5,0Z"/><path class="cls-1" d="M25.41,105.78c.81-6,1.52-12.42-.33-18.32A17.53,17.53,0,0,0,20.58,80c-2.37-2.31-5.21-4.17-6.4-7.41s-1.28-7.3-1.44-10.86a106.4,106.4,0,0,1,.13-11.71,69.57,69.57,0,0,1,1.45-11.32,7.1,7.1,0,0,1,2.36-4.27,3.33,3.33,0,0,1,4.09-.24c1.25,1.05,1.44,3,1.58,4.48.18,2.11.37,4.22.65,6.32a110.92,110.92,0,0,0,2.49,12.78.76.76,0,0,0,.92.52c3-.95,4.24-4.06,4.67-6.94a62.24,62.24,0,0,0,.2-11.9c-.38-8.46-1.45-17.1.17-25.5.69-3.61,1.75-8,4.47-10.63a5.71,5.71,0,0,1,4.66-1.74c2.05.25,3.07,1.74,3.48,3.66a105.27,105.27,0,0,1,1.59,13.38q.54,6.84.55,13.7,0,3.39-.12,6.77c-.06,1.61-.6,3.91.84,5.1a3.37,3.37,0,0,0,3.72.12,5.51,5.51,0,0,0,2.23-4A66,66,0,0,0,53.42,27c-.16-3.51-1.1-9.22,3.16-10.8,3.62-1.35,4.82,3.33,5,5.9.14,1.95.06,3.91.06,5.86v7c0,4.61,0,9.21,0,13.81a36.09,36.09,0,0,1-1.05,10,11.31,11.31,0,0,1-5.76,7.38,40.75,40.75,0,0,0-5,2.4,8.39,8.39,0,0,0-3.1,3.93,17.9,17.9,0,0,0-1,5.13c-.17,2.15-.26,4.32-.39,6.48L44.55,98l-.4,6.85c-.06,1,1.44,1,1.5,0l.83-14.07c.27-4.57.41-9.18.84-13.73a12.07,12.07,0,0,1,1.52-5.33,9.21,9.21,0,0,1,4.49-3.24A18.58,18.58,0,0,0,58,65.94,11.65,11.65,0,0,0,60.9,62.2a24.13,24.13,0,0,0,2.17-9.54c.25-4.16.09-8.34.08-12.5l0-14c0-3.11.26-6.82-1.63-9.51s-5.44-2.61-7.65-.32c-2.92,3-2,7.65-1.9,11.45q.12,3.51-.06,7a27.43,27.43,0,0,1-.75,6.46,3,3,0,0,1-1.56,2,1.55,1.55,0,0,1-2-.46c-.42-.8-.09-2.2-.06-3.06,0-1.22.09-2.44.11-3.66A178.75,178.75,0,0,0,46,8.28c-.27-1.94-.36-4.19-1.47-5.88A5.14,5.14,0,0,0,40.83.16c-3.52-.46-6.34,1.9-8,4.81a32.21,32.21,0,0,0-3.32,11.45,74.94,74.94,0,0,0-.32,12.8c.19,4.34.54,8.67.65,13,.06,2.16.06,4.32-.05,6.48A17,17,0,0,1,29,53.66a5,5,0,0,1-3,3.23l.92.52a109.52,109.52,0,0,1-2.41-12.3c-.28-2-.48-4.08-.65-6.14a11.75,11.75,0,0,0-.95-4.34c-1.37-2.79-4.7-3.13-7.07-1.41-2.84,2.06-3.22,6-3.67,9.18a104.28,104.28,0,0,0-.55,24.84c.34,3.45,1,6.81,3.28,9.52s5.18,4.34,7,7.28c4,6.39,2.95,14.66,2,21.74-.13,1,1.38,1,1.5,0Z"/><path class="cls-1" d="M1.65,103.22A9.08,9.08,0,0,1,6.17,101c2.06-.55,4.14-1,6.22-1.5q6.28-1.4,12.64-2.37c.95-.14.55-1.59-.4-1.44-4.47.69-8.93,1.52-13.34,2.52-2.08.47-4.17.94-6.21,1.53a9.61,9.61,0,0,0-4.49,2.44c-.66.7.4,1.77,1.06,1.06Z"/><path class="cls-1" d="M45.61,96.2a49.34,49.34,0,0,1,26.9,7.26c.82.51,1.57-.79.75-1.29A50.73,50.73,0,0,0,45.61,94.7a.75.75,0,0,0,0,1.5Z"/><path class="cls-1" d="M60.18,24.89a5.35,5.35,0,0,0,3.46-1.79.36.36,0,0,0,0-.49.35.35,0,0,0-.5,0,4.66,4.66,0,0,1-3,1.58.35.35,0,0,0,0,.7Z"/><path class="cls-1" d="M58.24,23.82l-1.1-1.6a.37.37,0,0,0-.48-.13.36.36,0,0,0-.12.48l1.1,1.6a.35.35,0,0,0,.48.13.36.36,0,0,0,.12-.48Z"/><path class="cls-1" d="M50.33,55.32a2.75,2.75,0,0,0,4.68,0c.21-.4-.39-.75-.6-.35A2,2,0,0,1,50.94,55c-.2-.41-.8,0-.61.35Z"/><path class="cls-1" d="M12.62,43.16l2.16.54A.35.35,0,1,0,15,43l-2.15-.53a.36.36,0,0,0-.44.24.36.36,0,0,0,.25.43Z"/><path class="cls-1" d="M32.52,16.5c.85,1.84,3.52,2,4.94.77a2.52,2.52,0,0,0,.85-1.34c.11-.44-.57-.63-.68-.19-.48,1.94-3.68,2.2-4.51.41-.19-.41-.79,0-.6.35Z"/><path class="cls-1" d="M21.3,60c-.8.67-.34,1.87.38,2.4a1.55,1.55,0,0,0,1.37.23,2.16,2.16,0,0,0,1.22-1A2.89,2.89,0,0,0,24.73,60a.35.35,0,0,0-.35-.35A.36.36,0,0,0,24,60a2.07,2.07,0,0,1-1,1.93,1.21,1.21,0,0,1-.47.12h-.07l-.12,0-.12,0-.07,0-.11-.06,0,0-.2-.2-.05,0s0,0,0,0a.61.61,0,0,0-.07-.1l-.06-.11s0,0,0-.06v0s0-.08,0-.13,0-.16,0-.08V61s0-.14,0-.06l0-.13v0s0,0,0,0l0-.05c0-.07,0,0,0,0a1.14,1.14,0,0,1,.11-.11.35.35,0,0,0-.5-.49Z"/><path class="cls-1" d="M21.81,91.09l3.75,1.15a.35.35,0,0,0,.19-.68L22,90.41a.35.35,0,0,0-.19.68Z"/><path class="cls-1" d="M32.86,79.59A3.93,3.93,0,0,0,37.17,82a3.89,3.89,0,0,0,3-4.08c0-.44-.74-.45-.7,0a3.08,3.08,0,0,1-5.93,1.49c-.17-.42-.84-.24-.68.18Z"/><path class="cls-1" d="M44.33,88.72a14.8,14.8,0,0,1,5.77-4.41.35.35,0,1,0-.35-.6,14.93,14.93,0,0,0-5.91,4.52c-.28.35.22.84.49.49Z"/><path class="cls-1" d="M40.71,38.48a2.38,2.38,0,0,0,.37,2.73,2.21,2.21,0,0,0,2.72.3,2.24,2.24,0,0,0,1-1.3.35.35,0,0,0-.67-.19,1.65,1.65,0,0,1-1.56,1.13,1.48,1.48,0,0,1-1.41-1.21,1.46,1.46,0,0,1,.14-1.1c.22-.4-.39-.75-.61-.36Z"/></g><g id="Layer_3" data-name="Layer 3"><g class="cls-2"><path class="cls-3" d="M45.66,8.23c.47-4-2.13-6.7-5.62-8C37.51-.7,34.56,1.3,33.89,3.73,30.24,17.12,30.39,31,28.8,44.65c-.15,1.22-.47,7.89-2.57,8.05-.22,0,.09-5.91.05-6.59C26,41.28,23.6,36.79,18.65,35.6a5.06,5.06,0,0,0-6.33,4.82l.14,18.17c0,5.25-.35,10.89,1.55,15.89,1.67,4.39,5,7.4,7.81,11a15.44,15.44,0,0,1,2.44,15.19c-2.08,6.1,7.58,8.72,9.64,2.66C37.48,92.82,33.62,84,26.81,76c-4.16-4.88-4.29-9.36-4.34-15.53l-.15-20.08L16,45.24c.84.21.11,7.26.24,8.3a10.42,10.42,0,0,0,4.27,7.66c5.57,3.79,12.74.39,15.63-5,3.45-6.46,3.11-15.57,3.62-22.67.67-9.16,1.34-18.22,3.77-27.12L37.38,9.88,35.66,8.23c-.75,6.38,9.25,6.33,10,0Z"/></g></g></g></svg>