<svg xmlns="http://www.w3.org/2000/svg" viewBox="0 0 189.91 165.26"><defs><style>.cls-1{fill:#333;}</style></defs><title>창문</title><g id="Layer_2" data-name="Layer 2"><g id="Layer_4" data-name="Layer 4"><path class="cls-1" d="M.15,7.69Q-.22,38,.34,68.35T2.43,129q.86,17,2,33.91c.06,1,1.56,1,1.5,0q-2.06-30.25-3.15-60.57T1.52,41.66q-.08-17,.13-34a.75.75,0,0,0-1.5,0Z"/><path class="cls-1" d="M1.16,7.46C24.29,2.54,48,1.75,71.59,1.74c12,0,24,.14,36.06.11s24.1-.14,36.15-.23c13.66-.1,27.31-.17,41-.08a.75.75,0,0,0,0-1.5c-24.34-.17-48.68.2-73,.29C87.85.43,63.9-.37,40,1A259.53,259.53,0,0,0,.76,6c-.94.2-.54,1.64.4,1.44Z"/><path class="cls-1" d="M5,163.72c13.44.45,26.88.88,40.32,1.18,12,.26,23.91.41,35.87.34,11.3-.08,22.59-.36,33.88-1s22.5-1.47,33.71-2.67c12-1.28,23.94-2.92,35.85-4.84l4.73-.78c.95-.16.54-1.61-.4-1.45-12.06,2-24.16,3.77-36.31,5.14q-16.87,1.92-33.84,2.9c-11.2.64-22.41,1-33.62,1.11-11.79.13-23.58,0-35.36-.21-13.17-.26-26.34-.66-39.5-1.09L5,162.22c-1,0-1,1.47,0,1.5Z"/><path class="cls-1" d="M11,15.62c-.21,15.32-.1,30.66.66,46q.32,6.39.8,12.78c.07,1,1.57,1,1.5,0-1.16-15.29-1.56-30.62-1.55-45.94q0-6.41.09-12.8a.75.75,0,0,0-1.5,0Z"/><path class="cls-1" d="M11.92,16c9.71-1.82,19.61-2.11,29.47-2.11,10,0,20,0,30.06,0,5.72,0,11.43-.06,17.15,0a.75.75,0,0,0,0-1.5c-10.2-.06-20.4.07-30.59.11-10,0-20.08-.27-30.09.26a121.83,121.83,0,0,0-16.39,1.87c-.95.17-.55,1.62.39,1.44Z"/><path class="cls-1" d="M88,13.06l.77,25.39c.24,8.08.38,16.18.74,24.25.15,3.4.4,6.79.46,10.2a.75.75,0,0,0,1.5,0c0-3-.26-6-.41-9.05-.18-3.73-.25-7.47-.37-11.21l-.75-25.2-.44-14.38c0-1-1.53-1-1.5,0Z"/><path class="cls-1" d="M13.16,75.11c20.27,1.31,40.67,3.16,61,1.23a141.45,141.45,0,0,0,16.77-2.57c1-.2.55-1.65-.4-1.44-19.79,4.29-40.2,3.65-60.3,2.4-5.68-.35-11.35-.76-17-1.12-1-.07-1,1.43,0,1.5Z"/><path class="cls-1" d="M175.18,13.67q.69,22.5-.18,45-.25,6.32-.63,12.64c-.05,1,1.45,1,1.5,0q1.32-22.48,1.08-45-.07-6.33-.27-12.65c0-1-1.53-1-1.5,0Z"/><path class="cls-1" d="M176.09,12.59c-10-1.7-20.14-1.82-30.25-1.65s-20.3.37-30.45.47c-5.66.06-11.31.13-17,.27a.75.75,0,0,0,0,1.5c10-.24,20-.28,30.08-.41s20.06-.59,30.08-.3A122.83,122.83,0,0,1,175.7,14c.94.16,1.35-1.28.39-1.45Z"/><path class="cls-1" d="M97.77,12.69c0,3.82.23,7.62.39,11.43.18,4,.09,8,.12,12,0,8.63-.08,17.25-.2,25.87,0,3.68-.16,7.35-.16,11a.75.75,0,0,0,1.5,0c0-7.36.21-14.72.3-22.08.06-4.32.1-8.65.07-13,0-4.07.08-8.15-.06-12.22-.15-4.36-.51-8.71-.46-13.08a.75.75,0,0,0-1.5,0Z"/><path class="cls-1" d="M175.19,70.6c-19.52,1.6-39,3.87-58.65,3.15-6-.23-11.94-.71-17.87-1.45-1-.12-1,1.38,0,1.5a216.32,216.32,0,0,0,30.74,1.55c9.66-.19,19.3-.94,28.93-1.78,5.62-.49,11.23-1,16.85-1.47,1-.08,1-1.58,0-1.5Z"/><path class="cls-1" d="M13.52,88.82q-.31,22.5,1,45,.36,6.31.84,12.62c.07,1,1.57,1,1.5,0Q15.1,124,15,101.47q0-6.33.06-12.65a.75.75,0,0,0-1.5,0Z"/><path class="cls-1" d="M14.49,89.19C24.2,87.36,34.1,87.08,44,87.08c10,0,20,0,30.05,0,5.72,0,11.44-.06,17.16,0a.75.75,0,0,0,0-1.5c-10.2-.07-20.4.07-30.6.1-10,0-20.07-.26-30.08.26a123.81,123.81,0,0,0-16.4,1.87c-.94.18-.54,1.63.4,1.45Z"/><path class="cls-1" d="M90.42,86.26c.46,15.06,1,30.12,1.45,45.19.13,4.43.31,8.87.39,13.3a.75.75,0,0,0,1.5,0c-.14-7.85-.47-15.71-.7-23.57-.23-7.64-.43-15.29-.71-22.93-.15-4-.31-8-.43-12a.75.75,0,0,0-1.5,0Z"/><path class="cls-1" d="M16,148.36c20.16,1.3,40.5,2.74,60.62.2a139.35,139.35,0,0,0,16.6-3.08.75.75,0,0,0-.4-1.45C73.28,148.93,53,148.93,33,147.9c-5.69-.3-11.37-.67-17-1-1-.06-1,1.44,0,1.5Z"/><path class="cls-1" d="M177.75,86.87q.69,22.5-.19,45-.24,6.33-.62,12.64c-.05,1,1.45,1,1.5,0q1.32-22.47,1.07-45-.06-6.32-.26-12.64a.75.75,0,0,0-1.5,0Z"/><path class="cls-1" d="M178.66,85.79C168.91,84.13,159,84,149.13,84.13c-10.14.16-20.28.37-30.42.47-5.71.06-11.43.14-17.15.27a.75.75,0,0,0,0,1.5c10.07-.23,20.15-.28,30.22-.41,9.91-.13,19.83-.59,29.74-.29a122,122,0,0,1,16.74,1.57c1,.16,1.35-1.29.4-1.45Z"/><path class="cls-1" d="M100.81,85.86c0,3.44.17,6.88.33,10.32s.2,7,.16,10.57L101,131.22c-.06,4.56-.17,9.12-.17,13.68a.75.75,0,0,0,1.5,0c0-8.11.2-16.22.31-24.33.1-7.69.42-15.41.08-23.1-.16-3.87-.43-7.74-.39-11.61a.75.75,0,0,0-1.5,0Z"/><path class="cls-1" d="M177.76,143.79c-19.64,1.62-39.35,4.6-59.1,3a112.69,112.69,0,0,1-16.73-2.56c-.94-.21-1.34,1.23-.4,1.45,19.5,4.53,39.51,3.06,59.25,1.15,5.66-.54,11.31-1.11,17-1.58,1-.07,1-1.58,0-1.5Z"/></g></g></svg>