<svg width="37" height="37" viewBox="0 0 37 37" fill="none" xmlns="http://www.w3.org/2000/svg">
<g clip-path="url(#clip0_63_511)">
<path fill-rule="evenodd" clip-rule="evenodd" d="M15.7634 3.04297C13.7303 3.04314 11.7267 3.52952 9.91983 4.46151C8.11292 5.3935 6.55508 6.74409 5.3763 8.4006C4.19751 10.0571 3.43196 11.9715 3.1435 13.984C2.85505 15.9966 3.05207 18.0489 3.71811 19.9698C4.38415 21.8908 5.49991 23.6246 6.9723 25.0266C8.44468 26.4286 10.231 27.4581 12.1822 28.0294C14.1334 28.6006 16.193 28.6969 18.189 28.3103C20.185 27.9237 22.0596 27.0654 23.6564 25.807L29.1344 31.285C29.4173 31.5582 29.7962 31.7094 30.1895 31.706C30.5828 31.7026 30.9591 31.5448 31.2372 31.2667C31.5153 30.9886 31.673 30.6124 31.6765 30.2191C31.6799 29.8258 31.5287 29.4469 31.2554 29.164L25.7774 23.686C27.2594 21.8059 28.1822 19.5466 28.4401 17.1666C28.698 14.7865 28.2806 12.382 27.2358 10.2281C26.1909 8.07422 24.5608 6.258 22.5319 4.98732C20.503 3.71663 18.1574 3.04281 15.7634 3.04297ZM9.01344 15.793C9.01344 15.3951 9.17148 15.0136 9.45278 14.7323C9.73409 14.451 10.1156 14.293 10.5134 14.293H14.2634V10.543C14.2634 10.1451 14.4215 9.76361 14.7028 9.48231C14.9841 9.201 15.3656 9.04297 15.7634 9.04297C16.1613 9.04297 16.5428 9.201 16.8241 9.48231C17.1054 9.76361 17.2634 10.1451 17.2634 10.543V14.293H21.0134C21.4113 14.293 21.7928 14.451 22.0741 14.7323C22.3554 15.0136 22.5134 15.3951 22.5134 15.793C22.5134 16.1908 22.3554 16.5723 22.0741 16.8536C21.7928 17.1349 21.4113 17.293 21.0134 17.293H17.2634V21.043C17.2634 21.4408 17.1054 21.8223 16.8241 22.1036C16.5428 22.3849 16.1613 22.543 15.7634 22.543C15.3656 22.543 14.9841 22.3849 14.7028 22.1036C14.4215 21.8223 14.2634 21.4408 14.2634 21.043V17.293H10.5134C10.1156 17.293 9.73409 17.1349 9.45278 16.8536C9.17148 16.5723 9.01344 16.1908 9.01344 15.793Z" fill="white"/>
</g>
<defs>
<clipPath id="clip0_63_511">
<rect width="36" height="36" fill="white" transform="translate(0.0134277 0.0429688)"/>
</clipPath>
</defs>
</svg>
