<svg width="34" height="34" viewBox="0 0 34 34" fill="none" xmlns="http://www.w3.org/2000/svg">
<g clip-path="url(#clip0_50_736)">
<path fill-rule="evenodd" clip-rule="evenodd" d="M17 20.0061L24.5126 27.5187C24.9112 27.9174 25.4519 28.1413 26.0157 28.1413C26.5794 28.1413 27.1201 27.9174 27.5188 27.5187C27.9174 27.1201 28.1414 26.5794 28.1414 26.0156C28.1414 25.4519 27.9174 24.9112 27.5188 24.5126L20.0033 17L27.5173 9.48739C27.7146 9.29 27.8711 9.05569 27.9779 8.79782C28.0846 8.53996 28.1395 8.2636 28.1394 7.98451C28.1394 7.70543 28.0843 7.42909 27.9775 7.17128C27.8706 6.91347 27.714 6.67923 27.5166 6.48193C27.3192 6.28464 27.0849 6.12815 26.8271 6.02141C26.5692 5.91467 26.2928 5.85977 26.0138 5.85983C25.7347 5.8599 25.4583 5.91493 25.2005 6.0218C24.9427 6.12866 24.7085 6.28525 24.5112 6.48264L17 13.9952L9.48743 6.48264C9.2915 6.27959 9.05709 6.11759 8.79788 6.0061C8.53868 5.89462 8.25987 5.83586 7.97771 5.83328C7.69556 5.8307 7.41571 5.88433 7.15451 5.99105C6.89331 6.09778 6.65597 6.25545 6.45636 6.45488C6.25674 6.65431 6.09884 6.89149 5.99187 7.1526C5.8849 7.4137 5.83101 7.69349 5.83332 7.97565C5.83564 8.2578 5.89413 8.53667 6.00537 8.79598C6.11662 9.05529 6.27839 9.28985 6.48126 9.48597L13.9967 17L6.48268 24.514C6.27981 24.7101 6.11804 24.9447 6.00679 25.204C5.89555 25.4633 5.83706 25.7421 5.83474 26.0243C5.83242 26.3065 5.88632 26.5862 5.99329 26.8474C6.10026 27.1085 6.25816 27.3456 6.45778 27.5451C6.65739 27.7445 6.89472 27.9022 7.15593 28.0089C7.41713 28.1156 7.69697 28.1693 7.97913 28.1667C8.26128 28.1641 8.5401 28.1053 8.7993 27.9938C9.05851 27.8824 9.29291 27.7204 9.48884 27.5173L17 20.0061Z" fill="black"/>
</g>
<defs>
<clipPath id="clip0_50_736">
<rect width="34" height="34" fill="white"/>
</clipPath>
</defs>
</svg>
