<svg width="215" height="36" viewBox="0 0 215 36" fill="none" xmlns="http://www.w3.org/2000/svg">
<path d="M44.8 7.8C45.6 6.97333 46.4533 6.18666 47.36 5.44C48.2933 4.69333 49.2267 3.98667 50.16 3.32C50.7467 2.94667 51.3467 2.58667 51.96 2.24C52.5733 1.89333 53.2133 1.58667 53.88 1.32C54.4133 1.10666 54.9867 0.893331 55.6 0.679997C56.24 0.439997 56.8267 0.346664 57.36 0.399999C57.7333 0.453331 57.9733 0.599998 58.08 0.839998C58.1867 1.08 58.0533 1.26666 57.68 1.4C57.2 1.64 56.7333 1.82666 56.28 1.96C55.8267 2.09333 55.3733 2.32 54.92 2.64C54.3067 3.04 53.76 3.52 53.28 4.08C52.8267 4.61333 52.3733 5.16 51.92 5.72C51.4133 6.30666 50.92 6.88 50.44 7.44C49.9867 8 49.5333 8.58667 49.08 9.2C47.88 10.8 46.7867 12.4667 45.8 14.2C44.84 15.9333 43.92 17.7067 43.04 19.52C42.4533 20.5333 41.92 21.5733 41.44 22.64C40.96 23.68 40.56 24.7733 40.24 25.92C40.16 26.2133 40.0533 26.64 39.92 27.2C39.8133 27.76 39.76 28.3067 39.76 28.84C39.7867 29.3467 39.9067 29.7733 40.12 30.12C40.3333 30.44 40.7467 30.52 41.36 30.36C41.8133 30.2533 42.24 30.0533 42.64 29.76C43.04 29.4667 43.4133 29.1333 43.76 28.76C44.1333 28.3867 44.48 28 44.8 27.6C45.12 27.1733 45.4133 26.8 45.68 26.48C46.0267 26.0267 46.36 25.52 46.68 24.96C47.0267 24.4 47.4 23.92 47.8 23.52C48.12 23.1467 48.3733 23.08 48.56 23.32C48.7733 23.56 48.7867 23.84 48.6 24.16C48.44 24.56 48.2267 24.9467 47.96 25.32C47.6933 25.6667 47.4133 26 47.12 26.32C46.2933 27.36 45.4267 28.4 44.52 29.44C43.64 30.4533 42.7067 31.4133 41.72 32.32C41.3467 32.64 40.92 32.9467 40.44 33.24C39.9867 33.5067 39.5067 33.72 39 33.88C38.52 34.0133 38.0267 34.0533 37.52 34C37.0133 33.9467 36.5467 33.7333 36.12 33.36C35.64 32.96 35.32 32.4667 35.16 31.88C35 31.2933 34.9333 30.6933 34.96 30.08C34.9867 29.4667 35.08 28.8533 35.24 28.24C35.4 27.6 35.56 27.04 35.72 26.56C36.2267 24.8533 36.8667 23.1867 37.64 21.56C38.44 19.9333 39.32 18.36 40.28 16.84C41.24 15.2933 42.2533 13.8 43.32 12.36C44.4133 10.92 45.5333 9.52 46.68 8.16L47.52 7.2C44.5067 9.65333 41.9067 12.4933 39.72 15.72C38.7867 17.2133 37.8267 18.6533 36.84 20.04C35.8533 21.4267 34.8667 22.84 33.88 24.28C32.76 25.8 31.6133 27.2667 30.44 28.68C29.2667 30.0667 27.9067 31.32 26.36 32.44C26.0667 32.6533 25.76 32.8933 25.44 33.16C25.12 33.4 24.8 33.5867 24.48 33.72C24.1067 33.88 23.8533 33.84 23.72 33.6C23.6133 33.3333 23.6667 33.08 23.88 32.84C24.0933 32.6 24.2933 32.3733 24.48 32.16C24.6933 31.9467 24.8933 31.6933 25.08 31.4C25.5067 30.76 25.8667 30.08 26.16 29.36C26.4533 28.64 26.72 27.9333 26.96 27.24C27.5467 25.5333 28.0533 23.8133 28.48 22.08C28.9067 20.3467 29.3733 18.6267 29.88 16.92C30.2 15.7467 30.5733 14.6 31 13.48C31.4533 12.36 31.9467 11.2533 32.48 10.16C31.92 10.7467 31.4267 11.3733 31 12.04C30.6 12.68 30.1733 13.32 29.72 13.96C29.0267 15 28.32 16.04 27.6 17.08C26.9067 18.12 26.2 19.16 25.48 20.2C24.9733 20.92 24.4667 21.6533 23.96 22.4C23.48 23.12 23 23.8267 22.52 24.52C22.2267 24.9733 21.9333 25.4133 21.64 25.84C21.3467 26.24 21.04 26.6667 20.72 27.12C19.92 28.1333 19.0533 29.0933 18.12 30C17.1867 30.9067 16.2267 31.7867 15.24 32.64C14.4933 33.2533 13.6267 33.8133 12.64 34.32C11.68 34.8533 10.6667 35.2267 9.6 35.44C8.56 35.68 7.52 35.72 6.48 35.56C5.44 35.4267 4.49333 35 3.64 34.28C2.76 33.5333 2.12 32.7067 1.72 31.8C1.32 30.8667 1.09333 29.8933 1.04 28.88C0.96 27.84 1.04 26.8 1.28 25.76C1.49333 24.72 1.78667 23.7067 2.16 22.72C2.56 21.6533 3.08 20.5867 3.72 19.52C4.38667 18.4267 5.13333 17.4133 5.96 16.48C6.81333 15.52 7.73333 14.68 8.72 13.96C9.73333 13.2133 10.8 12.64 11.92 12.24C12.3467 12.08 12.8133 11.96 13.32 11.88C13.8267 11.7733 14.3333 11.72 14.84 11.72C15.3467 11.72 15.8267 11.7867 16.28 11.92C16.76 12.0267 17.2 12.2267 17.6 12.52C18.3733 13.1333 18.9067 13.92 19.2 14.88C19.4933 15.8133 19.5867 16.7467 19.48 17.68C19.3467 18.6133 19.04 19.5467 18.56 20.48C18.1067 21.3867 17.52 22.1467 16.8 22.76C16.5867 22.9467 16.3733 23.1333 16.16 23.32C15.9733 23.5067 15.7733 23.6667 15.56 23.8C15.4533 23.88 15.32 23.9467 15.16 24C15 24.0267 14.8533 24.0267 14.72 24C14.6133 23.9733 14.52 23.92 14.44 23.84C14.3867 23.7333 14.4 23.5867 14.48 23.4C14.56 23.24 14.72 23.0667 14.96 22.88C15.2267 22.6667 15.4267 22.48 15.56 22.32C15.9333 21.8933 16.24 21.44 16.48 20.96C16.72 20.48 16.8933 19.96 17 19.4C17.1333 18.6267 17.12 17.8133 16.96 16.96C16.8267 16.1067 16.4133 15.4267 15.72 14.92C14.9467 14.36 14.0533 14.1067 13.04 14.16C12.0267 14.2133 11.1067 14.4133 10.28 14.76C9.34667 15.1867 8.48 15.7867 7.68 16.56C6.90667 17.3067 6.25333 18.12 5.72 19C5.10667 20.0133 4.65333 21.1067 4.36 22.28C4.06667 23.4533 3.90667 24.6133 3.88 25.76C3.88 26.5333 3.96 27.3067 4.12 28.08C4.28 28.8533 4.61333 29.5333 5.12 30.12C5.65333 30.7067 6.30667 31.12 7.08 31.36C7.85333 31.5733 8.61333 31.6533 9.36 31.6C10.3733 31.5467 11.3733 31.3333 12.36 30.96C13.3467 30.56 14.2933 30.0667 15.2 29.48C16.1333 28.8667 17 28.2 17.8 27.48C18.6 26.7333 19.32 25.9867 19.96 25.24C21.2933 23.6133 22.56 21.9467 23.76 20.24C24.9867 18.5067 26.2 16.7733 27.4 15.04C28.6 13.3067 29.8 11.5867 31 9.88C32.2267 8.17333 33.52 6.52 34.88 4.92C35.52 4.14666 36.2 3.45333 36.92 2.84C37.6667 2.22666 38.4667 1.66666 39.32 1.16C39.4 1.13333 39.52 1.09333 39.68 1.04C39.8667 0.986665 40.04 0.959999 40.2 0.959999C40.36 0.959999 40.48 0.999999 40.56 1.08C40.6667 1.16 40.68 1.30666 40.6 1.52C40.52 1.70666 40.3467 1.88 40.08 2.04C39.8133 2.2 39.6133 2.34666 39.48 2.48C39.2933 2.64 39.12 2.81333 38.96 3C38.8 3.16 38.6533 3.34666 38.52 3.56C38.1467 4.12 37.84 4.74667 37.6 5.44C37.36 6.10667 37.1067 6.73333 36.84 7.32C36.68 7.69333 36.56 8.06666 36.48 8.44C36.4 8.81333 36.32 9.18667 36.24 9.56C36.0533 10.3333 35.8667 11.12 35.68 11.92C35.4933 12.6933 35.3067 13.4667 35.12 14.24C34.7467 15.68 34.3333 17.12 33.88 18.56C33.4533 19.9733 33 21.3733 32.52 22.76C32.3867 23.1867 32.24 23.6 32.08 24C31.9467 24.3733 31.8133 24.76 31.68 25.16C32.7733 23.72 33.8267 22.2533 34.84 20.76C35.88 19.24 36.92 17.7467 37.96 16.28C39 14.7867 40.08 13.32 41.2 11.88C42.32 10.44 43.52 9.08 44.8 7.8ZM46.8572 8.12C46.8572 7.50667 47.0705 7 47.4972 6.6C47.9239 6.17333 48.4572 5.96 49.0972 5.96C49.7372 5.96 50.2705 6.17333 50.6972 6.6C51.1505 7 51.3772 7.50667 51.3772 8.12C51.3772 8.73333 51.1505 9.24 50.6972 9.64C50.2705 10.04 49.7372 10.24 49.0972 10.24C48.4572 10.24 47.9239 10.04 47.4972 9.64C47.0705 9.24 46.8572 8.73333 46.8572 8.12ZM47.8972 34V13.92H50.2972V34H47.8972ZM65.5487 13.08C67.4154 13.08 68.9487 13.4133 70.1487 14.08C71.3487 14.7467 72.2954 15.6 72.9888 16.64C73.6821 17.68 74.1621 18.8533 74.4287 20.16C74.6954 21.44 74.8288 22.72 74.8288 24V34H72.4287V23.56C72.4287 22.2533 72.2954 21.0667 72.0288 20C71.7621 18.9067 71.3487 17.9867 70.7887 17.24C70.2287 16.4667 69.4954 15.88 68.5887 15.48C67.7087 15.0533 66.6287 14.84 65.3487 14.84C64.3354 14.84 63.3621 15.08 62.4287 15.56C61.4954 16.0133 60.6821 16.6533 59.9887 17.48C59.2954 18.28 58.7354 19.2267 58.3087 20.32C57.9087 21.4133 57.7087 22.5867 57.7087 23.84V34H55.3087V13.92H57.7087V17.32C58.4021 16.04 59.4154 15.0133 60.7487 14.24C62.1087 13.4667 63.7087 13.08 65.5487 13.08ZM78.4697 18.76C78.4697 17.6933 78.6964 16.8 79.1497 16.08C79.6297 15.3333 80.243 14.7467 80.9897 14.32C81.763 13.8667 82.603 13.56 83.5097 13.4C84.443 13.2133 85.3764 13.1333 86.3097 13.16C87.563 13.16 88.6564 13.3333 89.5897 13.68C90.5497 14 91.5364 14.4533 92.5497 15.04L91.5897 16.68C90.7364 16.2267 89.8964 15.8267 89.0697 15.48C88.2697 15.1333 87.323 14.96 86.2297 14.96C85.243 14.96 84.403 15.0667 83.7097 15.28C83.043 15.4667 82.4964 15.7333 82.0697 16.08C81.643 16.4267 81.3364 16.8267 81.1497 17.28C80.963 17.7067 80.8697 18.1733 80.8697 18.68C80.8697 19.24 81.0297 19.7333 81.3497 20.16C81.6697 20.56 82.1097 20.92 82.6697 21.24C83.2297 21.56 83.8964 21.84 84.6697 22.08C85.443 22.32 86.2697 22.5333 87.1497 22.72C88.4297 23.0133 89.5097 23.3467 90.3897 23.72C91.2697 24.0667 91.9764 24.48 92.5097 24.96C93.0697 25.44 93.4697 26 93.7097 26.64C93.9764 27.28 94.1097 28 94.1097 28.8C94.1097 29.8133 93.8964 30.6933 93.4697 31.44C93.043 32.1867 92.4564 32.8 91.7097 33.28C90.9897 33.76 90.1497 34.1067 89.1897 34.32C88.2297 34.56 87.2164 34.68 86.1497 34.68C84.4697 34.68 82.9897 34.4667 81.7097 34.04C80.4297 33.6133 79.2964 32.9333 78.3097 32L79.5497 30.24C80.243 31.0133 81.1764 31.6667 82.3497 32.2C83.5497 32.7067 84.7364 32.96 85.9097 32.96C87.9097 32.96 89.3764 32.5867 90.3097 31.84C91.243 31.0667 91.7097 30.04 91.7097 28.76C91.7097 28.44 91.6697 28.1067 91.5897 27.76C91.5364 27.3867 91.323 27.0133 90.9497 26.64C90.5764 26.2667 89.9764 25.8933 89.1497 25.52C88.3497 25.1467 87.203 24.8 85.7097 24.48C83.3097 23.9467 81.4964 23.2533 80.2697 22.4C79.0697 21.5467 78.4697 20.3333 78.4697 18.76ZM116.794 21.72C116.9 22.2533 116.954 22.84 116.954 23.48C116.954 24.12 116.927 24.5867 116.874 24.88H98.5937C98.6471 26 98.8737 27.0533 99.2737 28.04C99.7004 29 100.274 29.84 100.994 30.56C101.74 31.28 102.634 31.84 103.674 32.24C104.714 32.64 105.887 32.84 107.194 32.84C108.474 32.84 109.634 32.6667 110.674 32.32C111.74 31.9467 112.7 31.4133 113.554 30.72L114.514 32.4C112.727 33.84 110.207 34.56 106.954 34.56C105.38 34.56 103.94 34.2933 102.634 33.76C101.327 33.2267 100.194 32.4933 99.2337 31.56C98.2737 30.6267 97.5271 29.5067 96.9937 28.2C96.4604 26.8933 96.1937 25.4533 96.1937 23.88C96.1937 22.3867 96.4471 20.9867 96.9537 19.68C97.4604 18.3467 98.1671 17.2 99.0737 16.24C100.007 15.2533 101.1 14.48 102.354 13.92C103.634 13.36 105.02 13.08 106.514 13.08C107.98 13.08 109.287 13.2933 110.434 13.72C111.607 14.12 112.62 14.7067 113.474 15.48C114.327 16.2267 115.034 17.1333 115.594 18.2C116.154 19.24 116.554 20.4133 116.794 21.72ZM114.474 23.12C114.42 21.84 114.194 20.6933 113.794 19.68C113.42 18.6667 112.887 17.8 112.194 17.08C111.527 16.36 110.714 15.8133 109.754 15.44C108.82 15.04 107.767 14.84 106.594 14.84C105.554 14.84 104.567 15.04 103.634 15.44C102.7 15.8133 101.874 16.36 101.154 17.08C100.434 17.8 99.8471 18.68 99.3937 19.72C98.9671 20.7333 98.7271 21.8667 98.6737 23.12H114.474ZM130.509 34.6C128.856 34.6 127.336 34.3333 125.949 33.8C124.589 33.2667 123.403 32.52 122.389 31.56C121.403 30.6 120.629 29.4667 120.069 28.16C119.536 26.8533 119.269 25.44 119.269 23.92C119.269 22.3733 119.536 20.9467 120.069 19.64C120.629 18.3067 121.403 17.16 122.389 16.2C123.403 15.2133 124.589 14.4533 125.949 13.92C127.336 13.36 128.856 13.08 130.509 13.08C132.136 13.08 133.629 13.36 134.989 13.92C136.376 14.4533 137.563 15.2133 138.549 16.2C139.563 17.16 140.336 18.3067 140.869 19.64C141.429 20.9467 141.709 22.3733 141.709 23.92C141.709 25.44 141.429 26.8533 140.869 28.16C140.336 29.4667 139.563 30.6 138.549 31.56C137.563 32.52 136.376 33.2667 134.989 33.8C133.629 34.3333 132.136 34.6 130.509 34.6ZM130.509 32.84C131.949 32.84 133.216 32.6 134.309 32.12C135.403 31.6133 136.323 30.9467 137.069 30.12C137.816 29.2933 138.376 28.3467 138.749 27.28C139.123 26.1867 139.309 25.0667 139.309 23.92C139.309 22.7467 139.123 21.6133 138.749 20.52C138.376 19.4267 137.816 18.4667 137.069 17.64C136.323 16.7867 135.403 16.1067 134.309 15.6C133.216 15.0933 131.949 14.84 130.509 14.84C129.069 14.84 127.789 15.0933 126.669 15.6C125.576 16.1067 124.656 16.7867 123.909 17.64C123.163 18.4667 122.603 19.4267 122.229 20.52C121.856 21.6133 121.669 22.7467 121.669 23.92C121.669 25.0667 121.856 26.1867 122.229 27.28C122.603 28.3467 123.163 29.2933 123.909 30.12C124.656 30.9467 125.576 31.6133 126.669 32.12C127.789 32.6 129.069 32.84 130.509 32.84ZM158.706 20C157.532 19.9733 156.359 19.8533 155.186 19.64C154.039 19.4267 152.999 18.9333 152.066 18.16C151.212 17.4133 150.599 16.4933 150.226 15.4C149.879 14.28 149.746 13.16 149.826 12.04C149.932 10.9733 150.226 9.97333 150.706 9.04C151.212 8.10667 151.826 7.26667 152.546 6.52C153.292 5.74667 154.119 5.06667 155.026 4.48C155.932 3.89333 156.866 3.41333 157.826 3.04C158.572 2.74667 159.452 2.54667 160.466 2.44C161.479 2.33333 162.492 2.49333 163.506 2.92C163.639 3.05333 163.732 3.21333 163.786 3.4C163.866 3.56 163.892 3.72 163.866 3.88C163.839 4.01333 163.759 4.13333 163.626 4.24C163.519 4.32 163.346 4.34666 163.106 4.32C162.866 4.32 162.626 4.24 162.386 4.08C162.172 3.92 161.946 3.8 161.706 3.72C161.412 3.61333 161.106 3.56 160.786 3.56C160.492 3.56 160.199 3.58666 159.906 3.64C158.892 3.77333 157.946 4.13333 157.066 4.72C156.212 5.30666 155.466 6.04 154.826 6.92C154.212 7.77333 153.746 8.72 153.426 9.76C153.106 10.7733 152.986 11.76 153.066 12.72C153.146 13.7333 153.439 14.6667 153.946 15.52C154.479 16.3467 155.172 17.0267 156.026 17.56C156.372 17.8267 156.759 18.04 157.186 18.2C157.639 18.36 158.092 18.4533 158.546 18.48C159.106 18.48 159.519 18.3333 159.786 18.04C160.079 17.7467 160.359 17.3733 160.626 16.92C161.826 14.6267 163.146 12.4533 164.586 10.4C166.026 8.32 167.706 6.42666 169.626 4.72C170.479 3.94666 171.386 3.24 172.346 2.6C173.332 1.93333 174.386 1.38666 175.506 0.959999C175.906 0.826665 176.346 0.706665 176.826 0.599998C177.332 0.466665 177.839 0.399999 178.346 0.399999C178.879 0.373332 179.386 0.413333 179.866 0.52C180.346 0.626665 180.772 0.839998 181.146 1.16C181.652 1.64 181.919 2.22667 181.946 2.92C181.999 3.58667 181.906 4.28 181.666 5C181.426 5.72 181.106 6.41333 180.706 7.08C180.332 7.72 179.986 8.25333 179.666 8.68C178.172 10.7067 176.372 12.56 174.266 14.24C172.186 15.92 169.946 17.2267 167.546 18.16C167.012 18.3733 166.439 18.56 165.826 18.72C165.239 18.8533 164.732 19.1333 164.306 19.56C163.612 20.2533 163.012 21.0667 162.506 22C161.999 22.9067 161.492 23.84 160.986 24.8C160.479 25.76 159.919 26.68 159.306 27.56C158.692 28.4133 157.932 29.1333 157.026 29.72C157.639 29.96 158.239 30.1867 158.826 30.4C159.412 30.6133 160.012 30.8267 160.626 31.04C161.266 31.28 161.892 31.5067 162.506 31.72C163.146 31.9333 163.812 32.0933 164.506 32.2C164.986 32.2533 165.479 32.2667 165.986 32.24C166.492 32.2133 166.932 32.04 167.306 31.72C167.439 31.6133 167.586 31.4533 167.746 31.24C167.906 31.0267 168.106 30.9467 168.346 31C168.559 31.0533 168.666 31.16 168.666 31.32C168.666 31.4533 168.612 31.5867 168.506 31.72C168.346 32.12 168.119 32.4667 167.826 32.76C167.532 33.0267 167.186 33.2533 166.786 33.44C166.412 33.6267 166.012 33.7867 165.586 33.92C165.186 34.0267 164.812 34.12 164.466 34.2C163.852 34.3333 163.226 34.3733 162.586 34.32C161.946 34.2933 161.292 34.2133 160.626 34.08C159.986 33.9467 159.346 33.7867 158.706 33.6C158.066 33.3867 157.466 33.1867 156.906 33C156.452 32.8667 155.999 32.6667 155.546 32.4C155.092 32.1067 154.626 31.9467 154.146 31.92C153.852 31.92 153.586 31.9867 153.346 32.12C153.106 32.2533 152.852 32.3867 152.586 32.52C152.026 32.7867 151.412 33 150.746 33.16C150.186 33.32 149.599 33.48 148.986 33.64C148.399 33.7733 147.799 33.88 147.186 33.96C146.572 34.0133 145.946 34.0267 145.306 34C144.692 33.9733 144.092 33.8667 143.506 33.68C143.106 33.5467 142.679 33.3467 142.226 33.08C141.772 32.7867 141.399 32.4533 141.106 32.08C140.812 31.7067 140.652 31.3067 140.626 30.88C140.599 30.4267 140.812 29.9733 141.266 29.52C142.039 28.7467 142.986 28.24 144.106 28C145.226 27.7333 146.292 27.5867 147.306 27.56C147.999 27.5333 148.706 27.5867 149.426 27.72C150.146 27.8533 150.852 28.0267 151.546 28.24C151.786 28.2933 152.039 28.3867 152.306 28.52C152.599 28.6533 152.879 28.6933 153.146 28.64C153.439 28.5867 153.652 28.44 153.786 28.2C153.919 27.96 154.052 27.7333 154.186 27.52C155.039 26.2667 155.826 25.04 156.546 23.84C157.292 22.64 158.012 21.36 158.706 20ZM151.186 30.4C150.332 30 149.412 29.6667 148.426 29.4C147.466 29.1067 146.492 29.0267 145.506 29.16C145.239 29.2133 144.946 29.2933 144.626 29.4C144.306 29.5067 144.026 29.6533 143.786 29.84C143.546 30 143.359 30.2267 143.226 30.52C143.119 30.7867 143.132 31.0933 143.266 31.44C143.372 31.7333 143.546 31.96 143.786 32.12C144.026 32.2533 144.292 32.3467 144.586 32.4C144.906 32.4533 145.212 32.48 145.506 32.48C145.826 32.48 146.132 32.4667 146.426 32.44C147.332 32.36 148.186 32.16 148.986 31.84C149.812 31.4933 150.546 31.0133 151.186 30.4ZM165.626 17.32C166.319 17.0533 166.999 16.7733 167.666 16.48C168.332 16.1867 168.946 15.8133 169.506 15.36C170.199 14.9067 170.852 14.4133 171.466 13.88C172.079 13.3467 172.692 12.8133 173.306 12.28C174.319 11.3467 175.266 10.3467 176.146 9.28C177.026 8.18667 177.812 7 178.506 5.72C178.746 5.32 178.986 4.84 179.226 4.28C179.492 3.72 179.572 3.17333 179.466 2.64C179.386 2.32 179.226 2.08 178.986 1.92C178.746 1.76 178.479 1.68 178.186 1.68C177.919 1.65333 177.626 1.68 177.306 1.76C177.012 1.84 176.746 1.93333 176.506 2.04C175.919 2.33333 175.386 2.70667 174.906 3.16C174.426 3.58666 173.972 4.08 173.546 4.64C173.119 5.17333 172.706 5.73333 172.306 6.32C171.932 6.88 171.572 7.41333 171.226 7.92C170.212 9.46667 169.252 11.0267 168.346 12.6C167.466 14.1467 166.559 15.72 165.626 17.32ZM191.489 21.72C191.596 22.2533 191.649 22.84 191.649 23.48C191.649 24.12 191.623 24.5867 191.569 24.88H173.289C173.343 26 173.569 27.0533 173.969 28.04C174.396 29 174.969 29.84 175.689 30.56C176.436 31.28 177.329 31.84 178.369 32.24C179.409 32.64 180.583 32.84 181.889 32.84C183.169 32.84 184.329 32.6667 185.369 32.32C186.436 31.9467 187.396 31.4133 188.249 30.72L189.209 32.4C187.423 33.84 184.903 34.56 181.649 34.56C180.076 34.56 178.636 34.2933 177.329 33.76C176.023 33.2267 174.889 32.4933 173.929 31.56C172.969 30.6267 172.223 29.5067 171.689 28.2C171.156 26.8933 170.889 25.4533 170.889 23.88C170.889 22.3867 171.143 20.9867 171.649 19.68C172.156 18.3467 172.863 17.2 173.769 16.24C174.703 15.2533 175.796 14.48 177.049 13.92C178.329 13.36 179.716 13.08 181.209 13.08C182.676 13.08 183.983 13.2933 185.129 13.72C186.303 14.12 187.316 14.7067 188.169 15.48C189.023 16.2267 189.729 17.1333 190.289 18.2C190.849 19.24 191.249 20.4133 191.489 21.72ZM189.169 23.12C189.116 21.84 188.889 20.6933 188.489 19.68C188.116 18.6667 187.583 17.8 186.889 17.08C186.223 16.36 185.409 15.8133 184.449 15.44C183.516 15.04 182.463 14.84 181.289 14.84C180.249 14.84 179.263 15.04 178.329 15.44C177.396 15.8133 176.569 16.36 175.849 17.08C175.129 17.8 174.543 18.68 174.089 19.72C173.663 20.7333 173.423 21.8667 173.369 23.12H189.169ZM214.565 21.72C214.672 22.2533 214.725 22.84 214.725 23.48C214.725 24.12 214.698 24.5867 214.645 24.88H196.365C196.418 26 196.645 27.0533 197.045 28.04C197.472 29 198.045 29.84 198.765 30.56C199.512 31.28 200.405 31.84 201.445 32.24C202.485 32.64 203.658 32.84 204.965 32.84C206.245 32.84 207.405 32.6667 208.445 32.32C209.512 31.9467 210.472 31.4133 211.325 30.72L212.285 32.4C210.498 33.84 207.978 34.56 204.725 34.56C203.152 34.56 201.712 34.2933 200.405 33.76C199.098 33.2267 197.965 32.4933 197.005 31.56C196.045 30.6267 195.298 29.5067 194.765 28.2C194.232 26.8933 193.965 25.4533 193.965 23.88C193.965 22.3867 194.218 20.9867 194.725 19.68C195.232 18.3467 195.938 17.2 196.845 16.24C197.778 15.2533 198.872 14.48 200.125 13.92C201.405 13.36 202.792 13.08 204.285 13.08C205.752 13.08 207.058 13.2933 208.205 13.72C209.378 14.12 210.392 14.7067 211.245 15.48C212.098 16.2267 212.805 17.1333 213.365 18.2C213.925 19.24 214.325 20.4133 214.565 21.72ZM212.245 23.12C212.192 21.84 211.965 20.6933 211.565 19.68C211.192 18.6667 210.658 17.8 209.965 17.08C209.298 16.36 208.485 15.8133 207.525 15.44C206.592 15.04 205.538 14.84 204.365 14.84C203.325 14.84 202.338 15.04 201.405 15.44C200.472 15.8133 199.645 16.36 198.925 17.08C198.205 17.8 197.618 18.68 197.165 19.72C196.738 20.7333 196.498 21.8667 196.445 23.12H212.245Z" fill="white"/>
</svg>
