<svg width="1754" height="291" viewBox="0 0 1754 291" fill="none" xmlns="http://www.w3.org/2000/svg">
<path d="M0.1 285.2V240.6H62.6V159.3H5.1V114.7H62.6V48.9H0V4.30001L100.9 4.20001L101 285.1L0.1 285.2ZM4.1 244.6V281.2L97 281.1L96.9 8.20001L4 8.30001V44.9H66.5V118.7H9V155.3H66.5V244.6H4.1Z" fill="white"/>
<path d="M247.201 285.3H203.601L183.501 216.3C181.401 208.7 179.601 201 178.201 193.3C177.701 196.4 177.001 199.5 176.301 202.6C174.601 209.5 172.301 218.1 169.401 228.2C169.001 229.3 168.601 230.9 167.901 233L152.201 285.4H110.301L156.301 143.1L112.301 4.30002H155.101L174.201 68.5L174.701 70.4C176.701 77.5 178.201 83.6 179.301 88.4C179.301 88.5 179.301 88.6 179.401 88.7C179.701 87 180.101 85.2 180.501 83.6C182.001 77.3 184.201 69.5 186.901 60.4C188.101 56.2 188.801 53.6 189.101 52.6L202.801 4.40002H245.901L200.901 143L247.201 285.3ZM206.601 281.2H241.701L196.701 142.9L196.901 142.3L240.401 8.30002H205.801L192.901 53.7C192.601 54.7 191.801 57.3 190.701 61.4C187.901 70.4 185.801 78.2 184.301 84.4C182.901 90.5 182.001 97.1 181.601 103.8L181.501 105.7H176.901V103.7C176.901 98.7 176.401 93.8 175.401 89.2C174.301 84.4 172.801 78.5 170.901 71.4L170.401 69.5L152.101 8.30002H117.701L160.501 142.9L115.801 281.2H149.201L164.001 231.7C164.601 229.5 165.201 227.9 165.501 226.8C168.401 216.9 170.701 208.4 172.301 201.5C173.901 194.7 175.101 187.6 175.701 180.4L175.901 178.6H180.001L180.201 180.4C181.701 192.1 184.001 203.8 187.301 215.2L206.601 281.2Z" fill="white"/>
<path d="M329.299 285.3H290.899L290.999 49H250.699V4.39999L369.499 4.49999V49.1H329.399L329.299 285.3ZM294.899 281.3H325.299L325.499 45H365.599V8.39999H254.699V45H294.999L294.899 281.3Z" fill="white"/>
<path d="M514.001 285.4H472.501L472.101 283.8C470.601 277.3 469.601 269 469.201 259.1C468.801 249.3 468.501 237.4 468.401 224V211.1C468.201 204.8 468.101 199.7 467.901 195.9C467.701 192.2 467.301 188.4 466.601 184.6C465.901 180.9 464.801 177.7 463.301 175.1C461.901 172.6 460.101 170.9 457.801 169.8C454.401 168.2 450.701 167.2 446.701 166.8C442.501 166.4 436.701 166.2 429.401 166.2H425.301L425.201 285.4H386.801L387.001 4.39999H454.201C462.301 4.39999 469.601 5.59999 476.101 7.79999C482.701 10.1 488.501 14 493.401 19.4C498.201 24.8 502.001 32 504.601 40.9C507.201 49.7 508.501 60.4 508.501 72.9C508.501 81.3 508.101 89.3 507.201 96.6C506.401 104 504.801 110.9 502.701 117.1C500.501 123.5 497.401 128.9 493.601 133.1C490.901 136.1 487.601 138.4 483.901 140C491.401 142.8 497.001 148 500.501 155.5C504.601 164.4 506.701 176.2 506.701 190.7C506.701 202 506.801 212.1 506.901 220.7C507.101 229.3 507.401 237.9 507.901 246.1C508.401 254.2 509.101 261.3 510.101 266.9C511.301 273.9 512.701 276 513.401 276.6L514.101 277.2L514.001 285.4ZM475.801 281.4H510.101V279C508.401 277 507.201 273.3 506.201 267.6C505.201 261.8 504.501 254.6 504.001 246.3C503.501 238 503.201 229.4 503.001 220.7C502.801 212 502.801 201.9 502.801 190.6C502.801 176.7 500.901 165.4 497.001 157.1C493.201 149 487.001 144.2 477.901 142.3L476.301 142V138L477.901 137.7C483.001 136.6 487.401 134.1 490.701 130.4C494.201 126.6 497.001 121.6 499.001 115.8C501.101 109.8 502.501 103.2 503.301 96.1C504.101 88.9 504.501 81.1 504.501 72.9C504.501 60.9 503.301 50.5 500.801 42.1C498.401 33.8 494.901 27.1 490.401 22.2C486.001 17.3 480.701 13.8 474.801 11.7C468.701 9.59999 461.801 8.49999 454.201 8.49999H391.001L390.901 281.4H421.301L421.401 162.2H429.501C436.901 162.2 442.801 162.4 447.101 162.8C451.601 163.2 455.801 164.3 459.601 166.1C462.601 167.5 465.001 169.8 466.901 173C468.601 176 469.901 179.7 470.701 183.8C471.401 187.8 471.901 191.8 472.101 195.7C472.301 199.6 472.401 204.7 472.601 211.1V224.1C472.801 237.5 473.001 249.3 473.401 259.1C473.701 267.8 474.501 275.4 475.801 281.4ZM450.501 125.5H421.401V45.1H449.001C457.101 45.4 463.101 48.2 467.001 53.5C470.801 58.7 472.701 68.6 472.701 83.7C472.701 97 470.701 107.2 466.901 114C462.701 121.1 457.301 125 450.501 125.5ZM425.301 121.5H450.301C455.701 121 459.901 117.9 463.301 112C466.801 105.8 468.601 96.3 468.601 83.6C468.601 69.6 467.001 60.2 463.701 55.8C460.501 51.5 455.701 49.3 448.901 49H425.401L425.301 121.5Z" fill="white"/>
<path d="M660.9 285.5H619.9L610.8 215.4H574L564.9 285.5H523.9L568.7 4.5H618.6L660.9 285.5ZM623.4 281.5H656.2L615.2 8.6H572.2L528.7 281.5H561.5L570.6 211.4H614.4L623.4 281.5ZM609.5 174.7H575.5L586.2 93.8C587.2 87 588.2 76.5 589.2 62.5L589.7 55.5C589.9 50.9 590.3 44.7 590.9 37L591.1 35.2H595.3L595.5 37C596.1 44.6 596.6 50.9 596.7 55.6L597.2 62.5C598.2 76.4 599.1 86.9 600.1 93.7L609.5 174.7ZM580 170.7H605L596 94.3C595 87.5 594.1 77 593.1 63.2C592.1 77 591.1 87.5 590.1 94.3L580 170.7Z" fill="white"/>
<path d="M676.1 122.9C676.6 101.5 677.5 84 678.8 70.3C680.1 56.6 682.7 44.5 686.6 33.8C690.5 23.1 696.4 14.8 704.4 8.90001C712.4 3.00001 723.1 0.100006 736.4 0.100006C749.7 0.100006 760.3 3.10001 768.4 9.00001C776.4 14.9 782.4 23.2 786.2 33.9C790 44.6 792.6 56.8 793.9 70.5C795.2 84.2 796.1 101.7 796.6 123.1V162.6C796.6 184.5 796 202.7 794.9 217.1C793.7 231.5 791.2 244.2 787.3 255.3C783.4 266.4 777.3 275 769.1 281.1C760.9 287.2 750 290.3 736.4 290.3C722.8 290.3 711.9 287.2 703.7 281.1C695.5 274.9 689.4 266.3 685.5 255.2C681.6 244.1 679 231.4 677.9 217C676.8 202.6 676.2 184.5 676.2 162.5L676.1 122.9ZM711.5 188.3C711.5 195.9 711.7 202.9 712.2 209.3C712.7 215.7 713.7 221.9 715.4 227.9C717 233.9 719.5 238.9 722.9 242.7C726.3 246.5 730.7 248.4 736.3 248.4C742 248.4 746.7 246.4 750.2 242.5C753.7 238.6 756.2 233.5 757.7 227.2C759.2 220.9 760.1 214.5 760.5 207.8C760.9 201.2 761.1 193.2 761.1 183.8V112.9C761.1 103.3 760.9 94.8 760.5 87.4C760.1 80 759.1 72.8 757.6 65.8C756 58.8 753.5 53 750.1 48.4C746.7 43.8 742.1 41.6 736.3 41.6C730.7 41.6 726.3 43.5 722.9 47.3C719.5 51.1 717 56.3 715.4 62.8C713.8 69.3 712.7 76.5 712.2 84.2C711.7 92 711.5 101 711.4 111.3L711.5 188.3Z" fill="white"/>
<path d="M863.199 164.4L863.099 283.6H828.699L828.799 6.70001H893.999C901.899 6.70001 908.999 7.80001 915.299 10C921.599 12.2 927.099 15.9 931.799 21.1C936.499 26.3 940.099 33.2 942.599 41.8C945.099 50.4 946.399 60.9 946.399 73.2C946.399 81.6 945.999 89.4 945.199 96.6C944.399 103.9 942.899 110.6 940.799 116.7C938.699 122.9 935.799 128 932.099 132C928.399 136.1 923.799 138.7 918.199 139.9V140.6C927.899 142.6 934.699 147.9 938.699 156.5C942.699 165.1 944.699 176.6 944.699 190.8C944.699 202.1 944.799 212.2 944.899 220.9C945.099 229.6 945.399 238.1 945.899 246.4C946.399 254.6 947.099 261.7 948.099 267.4C949.099 273.2 950.399 276.8 951.999 278.3V283.5H914.099C912.599 277.1 911.699 269 911.299 259.1C910.899 249.3 910.599 237.6 910.499 224C910.499 217.4 910.499 213.8 910.499 213.3V211.1C910.299 204.7 910.199 199.6 909.999 195.8C909.799 192 909.399 188.1 908.699 184.2C907.999 180.3 906.799 176.9 905.099 174C903.499 171.2 901.299 169.1 898.699 167.9C895.099 166.2 891.199 165.1 886.899 164.8C882.599 164.4 876.799 164.2 869.399 164.2L863.199 164.4ZM863.199 123.7H890.199C896.299 123.2 901.099 119.7 904.799 113.2C908.499 106.7 910.299 96.9 910.299 83.9C910.299 69.4 908.499 59.7 904.999 54.9C901.499 50.1 895.999 47.6 888.699 47.3H863.099L863.199 123.7Z" fill="white"/>
<path d="M981.699 283.7L981.799 6.80002H1053.6C1056.1 6.80002 1058.8 7.20002 1061.7 8.10002C1064.7 9.00002 1067.6 10.5 1070.5 12.7C1078.2 18.1 1084.4 26.6 1089.2 38.2C1093 47.3 1095.6 59.4 1097 74.6C1098.5 89.7 1099.2 109.5 1099.2 133.9C1099.2 152.4 1099 167.9 1098.6 180.4C1098.2 193 1097.1 205.6 1095.4 218.2C1093.7 230.9 1090.8 242.3 1086.9 252.3C1083 262.4 1077.6 270.4 1070.9 276.3C1067.5 279.3 1063.7 281.2 1059.6 282.2C1055.5 283.2 1050.7 283.7 1045.3 283.7H981.699ZM1031.1 243.1C1038.8 243.1 1044.8 241.4 1049.2 237.9C1053.5 234.5 1056.8 228.9 1058.9 221.3C1061 213.7 1062.4 203.6 1063 191.2C1063.6 178.8 1063.9 161.2 1063.9 138.6C1063.9 104.6 1062.2 80.9 1058.9 67.5C1055.5 54.1 1048.9 47.4 1038.9 47.4H1016.3L1016.2 243.1H1031.1Z" fill="white"/>
<path d="M1132.4 283.8L1132.5 6.89999H1166.9L1166.8 283.8H1132.4Z" fill="white"/>
<path d="M1338.7 283.9L1382.9 7H1429.4L1471 284H1434.1L1425 213.9H1384.7L1375.6 284L1338.7 283.9ZM1390.2 173.2H1419.7L1410.4 94.6C1409.4 87.7 1408.4 77.2 1407.5 63.2L1407 56.2C1406.8 51.5 1406.4 45.4 1405.8 37.7H1405.3C1404.6 45.3 1404.2 51.5 1404.1 56.2L1403.6 63.2C1402.6 77.2 1401.6 87.7 1400.6 94.6L1390.2 173.2Z" fill="white"/>
<path d="M1525.2 164.7L1525.1 283.9H1490.7L1490.8 7H1556C1563.9 7 1571 8.1 1577.3 10.3C1583.6 12.5 1589.1 16.2 1593.8 21.4C1598.5 26.6 1602.1 33.5 1604.6 42.1C1607.1 50.7 1608.4 61.2 1608.4 73.5C1608.4 81.9 1608 89.7 1607.2 96.9C1606.4 104.2 1604.9 110.9 1602.8 117C1600.7 123.2 1597.8 128.3 1594.1 132.3C1590.4 136.4 1585.8 139 1580.2 140.2V140.9C1589.9 142.9 1596.7 148.2 1600.7 156.8C1604.7 165.4 1606.7 176.9 1606.7 191.1C1606.7 202.4 1606.8 212.5 1606.9 221.2C1607.1 229.9 1607.4 238.4 1607.9 246.7C1608.4 254.9 1609.1 262 1610.1 267.7C1611.1 273.5 1612.4 277.1 1614 278.6V283.8H1576.1C1574.6 277.4 1573.7 269.3 1573.3 259.4C1572.9 249.6 1572.6 237.9 1572.5 224.3C1572.5 217.7 1572.5 214.1 1572.5 213.6V211.4C1572.3 205 1572.2 199.9 1572 196.1C1571.8 192.3 1571.4 188.4 1570.7 184.5C1570 180.6 1568.8 177.2 1567.1 174.3C1565.5 171.5 1563.3 169.4 1560.7 168.2C1557.1 166.5 1553.2 165.4 1548.9 165.1C1544.6 164.7 1538.8 164.5 1531.4 164.5L1525.2 164.7ZM1525.2 124.1H1552.2C1558.3 123.6 1563.1 120.1 1566.8 113.6C1570.5 107.1 1572.3 97.3 1572.3 84.3C1572.3 69.8 1570.5 60.1 1567 55.3C1563.5 50.5 1558 48 1550.7 47.7H1525.1L1525.2 124.1Z" fill="white"/>
<path d="M1679.9 79.9C1684 95.2 1686.7 109.3 1688 122.4H1688.5C1689.5 113.8 1690.7 106.2 1692.2 99.7C1693.7 93.2 1695.7 85 1698.4 75.2C1699.1 73 1699.5 71.3 1699.9 70L1716.4 7.20001H1754L1705.2 166.3L1705.1 284.1H1670.7L1670.8 166.3L1622.9 7.10001H1660.5L1679.9 79.9Z" fill="white"/>
<path d="M1313.9 7.39999H1348.4L1309.1 284.3H1273.2L1260.5 185.7C1258.2 169.7 1256.4 152.8 1255 135.1C1253.6 117.4 1252.4 97.6 1251.5 75.7H1251C1249.3 93.9 1248 108.5 1247 119.4C1246 130.4 1244.9 142.1 1243.5 154.7C1241.8 170.2 1240.3 184.2 1238.8 196.6C1237.3 209 1235.7 220.9 1234.1 232.2L1226.7 284.3H1192.2L1231.5 7.39999H1267.2L1279.7 108.2C1281.8 124 1283.6 140.6 1285.1 158C1286.6 175.5 1287.8 195.5 1288.8 218.2H1289.3C1292.1 187.7 1294.7 161.5 1297 139.6C1300.3 108.6 1303.4 82.6 1306.4 61.7L1313.9 7.39999Z" fill="white"/>
</svg>
