<svg width="208" height="95" viewBox="0 0 208 95" fill="none" xmlns="http://www.w3.org/2000/svg">
<g clip-path="url(#clip0_205_4336)">
<path d="M93.4662 10.0371C37.1052 25.1428 -4.06911 54.0501 1.49611 74.5968C7.06132 95.1436 57.271 99.5533 113.592 84.4484C169.913 69.3435 211.159 40.4435 205.594 19.8968C200.028 -0.649901 149.819 -5.06845 93.4662 10.0371ZM114.339 82.6745C60.754 97.0385 12.9807 92.7206 7.63219 72.9522C2.28367 53.1839 41.3736 25.576 94.9826 11.2203C148.592 -3.1354 196.34 1.20943 201.69 20.9426C207.04 40.6757 167.933 68.3103 114.339 82.6745Z" fill="white"/>
<path d="M34.1309 13.3826L40.2654 25.0002L51.0189 12.9997L46.3681 26.4959L63.1593 20.4864L49.502 30.6896L65.9111 32.9635L48.4643 35.9959L58.2262 45.6851L43.6605 40.3665L43.0509 53.7728L36.9168 42.1464L26.1633 54.1469L30.8057 40.6597L14.0226 46.669L27.6802 36.457L11.2711 34.1832L28.7095 31.1597L18.9477 21.4705L33.5217 26.7801L34.1309 13.3826Z" fill="url(#paint0_radial_205_4336)"/>
</g>
<defs>
<radialGradient id="paint0_radial_205_4336" cx="0" cy="0" r="1" gradientUnits="userSpaceOnUse" gradientTransform="translate(38.6932 33.6499) rotate(-14.8958) scale(27.5901 20.2591)">
<stop offset="0.22" stop-color="white"/>
<stop offset="0.4" stop-color="#D2D0F9"/>
<stop offset="0.69" stop-color="#8E89F1"/>
<stop offset="0.89" stop-color="#635DEC"/>
<stop offset="1" stop-color="#241BE4"/>
</radialGradient>
<clipPath id="clip0_205_4336">
<rect width="203.398" height="90.4895" fill="white" transform="matrix(0.999799 -0.0200657 -0.0412429 0.999149 3.73242 4.0813)"/>
</clipPath>
</defs>
</svg>
