<svg width="24" height="24" viewBox="0 0 24 24" fill="none" xmlns="http://www.w3.org/2000/svg">
<path d="M19.173 11.5599C19.1366 7.38911 15.7251 4.03634 11.5539 4.07274C7.38197 4.10916 4.02951 7.52096 4.06592 11.6933C4.10232 15.8649 7.51381 19.2177 11.6858 19.1813C12.0921 19.1777 12.4913 19.1417 12.8805 19.0764C12.6194 18.677 12.4656 18.2171 12.4338 17.741C12.1893 17.9388 11.9334 18.046 11.6759 18.0483C10.8043 18.0559 9.93818 16.8639 9.42909 15.0449L14.3888 15.0016C14.1505 14.6661 13.9942 14.2794 13.9325 13.8726L9.17602 13.9141C8.96459 12.667 8.91923 11.3974 9.04111 10.1384L14.1715 10.0936C14.2496 10.7743 14.2788 11.4596 14.2588 12.1444C14.5225 11.6915 14.9143 11.3266 15.3849 11.096C15.3716 10.7576 15.3473 10.4197 15.3119 10.0829L17.848 10.06C17.9484 10.4613 18.0099 10.8713 18.0316 11.2844C18.5459 11.6343 18.9205 12.1541 19.0898 12.7526C19.1483 12.3639 19.1766 11.9663 19.173 11.5607L19.173 11.5599ZM6.20043 15.0723L8.25695 15.0544L8.33584 15.3528C8.58296 16.2344 8.91523 17.0058 9.31487 17.6217C8.0313 17.1265 6.93991 16.2326 6.20043 15.0723ZM5.36458 10.1697L7.90068 10.1476C7.85697 10.6501 7.83742 11.1544 7.84212 11.6588C7.84723 12.4172 7.90887 13.1741 8.02653 13.9233L5.63015 13.9443C5.35091 13.2224 5.20476 12.4559 5.19877 11.6819C5.19428 11.1668 5.25031 10.664 5.36167 10.1826L5.36458 10.1697ZM9.19479 5.6781L9.2121 5.67191C8.67353 6.53169 8.26971 7.6879 8.04562 9.01327L5.74365 9.03336C6.4132 7.51678 7.65342 6.30718 9.19479 5.6781ZM11.4762 5.2095L11.5638 5.20571L11.659 5.20941C12.6122 5.29627 13.5453 6.79811 13.9916 8.96213L9.20115 9.00394C9.61116 6.82641 10.5209 5.30621 11.4762 5.21025L11.4762 5.2095ZM14.0053 5.76151L13.9241 5.63078L14.1439 5.72026C15.6041 6.34666 16.7814 7.49042 17.4499 8.93195L15.1464 8.95205C14.9111 7.69641 14.5186 6.597 14.0053 5.76151ZM18.4335 13.4548C18.4379 13.9556 18.2431 14.4377 17.8921 14.7949C17.5411 15.1521 17.0626 15.3552 16.5619 15.3596C16.0611 15.364 15.5791 15.1692 15.2219 14.8182C14.8648 14.4671 14.6617 13.9886 14.6573 13.4878C14.6529 12.987 14.8476 12.505 15.1986 12.1477C15.5496 11.7905 16.0282 11.5874 16.5289 11.583C17.0297 11.5787 17.5117 11.7734 17.8688 12.1244C18.226 12.4755 18.4291 12.954 18.4335 13.4548ZM19.9794 17.5014C19.9897 18.6767 19.0288 19.8703 16.6014 19.8915C14.1741 19.9126 13.1925 18.7406 13.1822 17.5608L13.1815 17.483C13.1751 16.7428 13.7695 16.1393 14.5089 16.1329L18.628 16.0969C19.3681 16.0905 19.9723 16.6842 19.9787 17.4237L19.9794 17.5014Z" fill="#222222"/>
</svg>
