<svg width="25" height="24" viewBox="0 0 25 24" fill="none" xmlns="http://www.w3.org/2000/svg">
<path d="M12.5 11.9998C11.4095 12.0093 10.4726 11.6291 9.68928 10.8594C8.90594 10.0896 8.50952 9.15946 8.5 8.06897C8.49048 6.97849 8.87062 6.04158 9.6404 5.25825C10.4102 4.47491 11.3403 4.07849 12.4308 4.06897C13.5213 4.05946 14.4582 4.43959 15.2415 5.20937C16.0248 5.97915 16.4213 6.90928 16.4308 7.99976C16.4403 9.09024 16.0602 10.0272 15.2904 10.8105C14.5206 11.5938 13.5905 11.9902 12.5 11.9998ZM18.5173 19.8786L6.62112 19.9825C6.07588 19.9872 5.60726 19.797 5.21526 19.4118C4.82326 19.0266 4.62521 18.5616 4.62112 18.0171L4.6142 17.224C4.6093 16.6622 4.74953 16.1445 5.03489 15.6707C5.32025 15.197 5.7011 14.8344 6.17743 14.5831C7.19735 14.0619 8.23492 13.6685 9.29012 13.4029C10.3453 13.1372 11.4182 13 12.5087 12.9911C13.5991 12.9816 14.6742 13.1004 15.7339 13.3476C16.7936 13.5948 17.8378 13.9697 18.8667 14.4723C19.348 14.716 19.7355 15.0722 20.029 15.5409C20.3226 16.0095 20.4715 16.5245 20.4758 17.0856L20.4827 17.8786C20.4875 18.4239 20.2972 18.8925 19.912 19.2845C19.5268 19.6765 19.0619 19.8745 18.5173 19.8786ZM6.60382 17.9998L18.5 17.8959L18.4931 17.1029C18.4915 16.9211 18.4444 16.7563 18.3519 16.6084C18.2594 16.4605 18.1388 16.3459 17.99 16.2645C17.0939 15.8262 16.1905 15.4997 15.2799 15.2849C14.3692 15.0701 13.4512 14.9664 12.526 14.9738C11.6007 14.9819 10.6847 15.1016 9.77789 15.3329C8.8711 15.5642 7.97354 15.9065 7.08522 16.3597C6.93724 16.4436 6.81829 16.5603 6.72839 16.7098C6.63848 16.8593 6.59465 17.0249 6.5969 17.2067L6.60382 17.9998ZM12.4827 10.0171C13.0279 10.0123 13.4932 9.81393 13.8784 9.42193C14.2636 9.02993 14.4535 8.56164 14.4481 8.01706C14.4433 7.47182 14.245 7.00659 13.853 6.62138C13.461 6.23616 12.9927 6.04626 12.4481 6.05167C11.9029 6.05643 11.4376 6.25481 11.0524 6.64681C10.6672 7.03881 10.4773 7.50709 10.4827 8.05167C10.4875 8.59691 10.6858 9.06214 11.0778 9.44736C11.4698 9.83257 11.9381 10.0225 12.4827 10.0171Z" fill="#222222"/>
</svg>
