<svg width="25" height="24" viewBox="0 0 25 24" fill="none" xmlns="http://www.w3.org/2000/svg">
<path d="M10.1757 15.7875C10.0124 15.5979 9.92978 15.3822 9.92767 15.1401C9.92556 14.8981 10.0046 14.6953 10.1647 14.5317L11.7807 12.8873L5.4581 12.9425C5.20843 12.9447 4.99826 12.8619 4.82759 12.6942C4.65693 12.5265 4.5708 12.3181 4.56921 12.069C4.56704 11.8193 4.6498 11.6091 4.81752 11.4385C4.98523 11.2678 5.19363 11.1817 5.44272 11.1801L11.7653 11.1249L10.1209 9.50892C9.9431 9.33421 9.85315 9.12555 9.85103 8.88293C9.84892 8.64031 9.93521 8.4304 10.1099 8.25321C10.2699 8.07556 10.4713 7.98568 10.7139 7.98356C10.9565 7.98144 11.159 8.06046 11.3214 8.2206L14.5214 11.3652C14.6103 11.4526 14.6737 11.5475 14.7116 11.65C14.7495 11.7525 14.7686 11.8625 14.7691 11.98C14.7701 12.0975 14.7529 12.2078 14.7173 12.3109C14.6818 12.414 14.6201 12.51 14.5321 12.5989L11.3875 15.7989C11.2128 15.9767 11.0079 16.0593 10.7728 16.0466C10.5377 16.034 10.3386 15.9476 10.1757 15.7875ZM13.4504 19.9229C13.2007 19.925 12.9909 19.8426 12.8208 19.6754C12.6507 19.5083 12.5643 19.2996 12.5615 19.0493C12.5593 18.7997 12.6421 18.5895 12.8098 18.4188C12.9775 18.2482 13.1859 18.162 13.435 18.1605L18.7222 18.1143L18.6146 5.77754L13.3274 5.82368C13.0777 5.82586 12.8675 5.74309 12.6969 5.57538C12.5262 5.40767 12.4401 5.19926 12.4385 4.95017C12.4363 4.7005 12.5191 4.49033 12.6868 4.31966C12.8545 4.149 13.0629 4.06287 13.312 4.06129L18.5992 4.01514C19.0838 4.01092 19.5004 4.18001 19.8488 4.52242C20.1973 4.86484 20.3733 5.27808 20.377 5.76216L20.4846 18.0989C20.4888 18.5836 20.3198 19.0001 19.9773 19.3486C19.6349 19.697 19.2217 19.8731 18.7376 19.8767L13.4504 19.9229Z" fill="#222222"/>
</svg>
