<svg width="16" height="16" viewBox="0 0 16 16" fill="none" xmlns="http://www.w3.org/2000/svg">
<path d="M5.91679 1.93332L11.5335 7.53332C11.6001 7.59998 11.6475 7.67221 11.6755 7.74998C11.7035 7.82776 11.7172 7.91109 11.7168 7.99998C11.7168 8.08887 11.703 8.17221 11.6755 8.24998C11.6479 8.32776 11.6006 8.39998 11.5335 8.46665L5.91679 14.0833C5.76123 14.2389 5.56679 14.3167 5.33345 14.3167C5.10012 14.3167 4.90012 14.2333 4.73345 14.0667C4.56679 13.9 4.48345 13.7055 4.48345 13.4833C4.48345 13.2611 4.56679 13.0667 4.73345 12.9L9.63345 7.99998L4.73345 3.09998C4.5779 2.94443 4.50012 2.75265 4.50012 2.52465C4.50012 2.29665 4.58345 2.09954 4.75012 1.93332C4.91679 1.76665 5.11123 1.68332 5.33345 1.68332C5.55567 1.68332 5.75012 1.76665 5.91679 1.93332Z" fill="#999999"/>
</svg>
