<svg width="24" height="24" viewBox="0 0 24 24" fill="none" xmlns="http://www.w3.org/2000/svg">
<path d="M22.7595 11.3395C22.7049 5.0832 17.5877 0.054034 11.3309 0.108636C5.07296 0.163248 0.0442752 5.28095 0.0988925 11.5395C0.1535 17.7969 5.27073 22.826 11.5287 22.7714C12.1382 22.7661 12.737 22.7121 13.3208 22.6141C12.9292 22.0151 12.6984 21.3252 12.6507 20.6111C12.2839 20.9077 11.9001 21.0686 11.5138 21.072C10.2065 21.0834 8.90728 19.2954 8.14365 16.5669L15.5832 16.502C15.2257 15.9987 14.9913 15.4187 14.8988 14.8084L7.76404 14.8706C7.4469 13 7.37885 11.0956 7.56167 9.2071L15.2572 9.13995C15.3744 10.1609 15.4182 11.189 15.3883 12.2162C15.7838 11.5367 16.3715 10.9895 17.0774 10.6435C17.0574 10.1359 17.0209 9.62909 16.9678 9.12389L20.772 9.08955C20.9227 9.69144 21.0149 10.3065 21.0474 10.9261C21.8188 11.451 22.3807 12.2307 22.6347 13.1285C22.7225 12.5453 22.7648 11.949 22.7595 11.3406L22.7595 11.3395ZM3.30065 16.608L6.38544 16.5811L6.50377 17.0288C6.87446 18.3512 7.37286 19.5082 7.97232 20.4321C6.04697 19.6892 4.40989 18.3484 3.30065 16.608ZM2.04688 9.2541L5.85103 9.2209C5.78546 9.97468 5.75615 10.7312 5.76319 11.4878C5.77086 12.6253 5.86332 13.7607 6.03981 14.8845L2.44524 14.9159C2.02638 13.8331 1.80715 12.6834 1.79817 11.5224C1.79142 10.7497 1.87548 9.99548 2.04252 9.2734L2.04688 9.2541ZM7.79218 2.51667L7.81816 2.50738C7.01029 3.79705 6.40457 5.53137 6.06844 7.51942L2.61547 7.54955C3.61981 5.27468 5.48014 3.46028 7.79218 2.51667ZM11.2144 1.81377L11.3457 1.80809L11.4885 1.81364C12.9183 1.94393 14.3179 4.19669 14.9875 7.44272L7.80173 7.50543C8.41674 4.23913 9.78131 1.95884 11.2144 1.8149L11.2144 1.81377ZM15.0079 2.64178L14.8861 2.4457L15.2158 2.57992C17.4061 3.51951 19.1722 5.23516 20.1749 7.39745L16.7196 7.4276C16.3667 5.54414 15.7779 3.89502 15.0079 2.64178ZM21.6503 14.1818C21.6568 14.933 21.3647 15.656 20.8382 16.1918C20.3117 16.7277 19.5939 17.0324 18.8428 17.0389C18.0917 17.0455 17.3687 16.7533 16.8329 16.2268C16.2972 15.7002 15.9925 14.9824 15.9859 14.2312C15.9794 13.48 16.2715 12.757 16.798 12.2211C17.3245 11.6853 18.0422 11.3806 18.7934 11.3741C19.5445 11.3675 20.2675 11.6596 20.8033 12.1862C21.339 12.7127 21.6437 13.4306 21.6503 14.1818ZM23.9691 20.2517C23.9845 22.0146 22.5432 23.8049 18.9021 23.8367C15.2611 23.8685 13.7888 22.1104 13.7734 20.3407L13.7723 20.224C13.7626 19.1137 14.6543 18.2085 15.7634 18.1988L21.942 18.1449C23.0522 18.1352 23.9584 19.0258 23.9681 20.135L23.9691 20.2517Z" fill="black"/>
</svg>
