<svg width="24" height="24" viewBox="0 0 24 24" fill="none" xmlns="http://www.w3.org/2000/svg">
<path d="M23.6484 21.7878L19.1994 17.4485C20.8929 15.2974 21.6984 12.5789 21.4502 9.85191C21.202 7.12488 19.9191 4.59661 17.8652 2.78698C15.8113 0.977343 13.1425 0.0238859 10.4076 0.122658C7.67267 0.221429 5.07955 1.36492 3.16139 3.31801C1.24324 5.2711 0.145854 7.88533 0.094887 10.6232C0.0439195 13.361 1.04324 16.0143 2.88737 18.0376C4.7315 20.0608 7.28027 21.3002 10.0096 21.5009C12.7389 21.7015 15.4413 20.8483 17.5612 19.1165L21.9746 23.4561C22.0861 23.5666 22.2184 23.654 22.3638 23.7131C22.5092 23.7722 22.6648 23.802 22.8218 23.8006C22.9787 23.7992 23.1339 23.7668 23.2782 23.7051C23.4226 23.6435 23.5533 23.5538 23.6629 23.4413C23.8752 23.2176 23.9924 22.9202 23.9897 22.6116C23.987 22.3031 23.8646 22.0077 23.6484 21.7878ZM10.8914 19.1747C9.24538 19.189 7.63207 18.7147 6.25547 17.8116C4.87887 16.9085 3.80082 15.6173 3.15764 14.1012C2.51446 12.585 2.33504 10.9121 2.64206 9.29397C2.94909 7.67582 3.72877 6.18511 4.88251 5.01036C6.03626 3.8356 7.51224 3.02956 9.12383 2.69416C10.7354 2.35876 12.4102 2.50906 13.9364 3.12607C15.4626 3.74307 16.7717 4.79907 17.6982 6.16051C18.6246 7.52195 19.1267 9.1277 19.1411 10.7747C19.1604 12.9832 18.302 15.109 16.7549 16.6843C15.2078 18.2596 13.0986 19.1554 10.8914 19.1747Z" fill="black"/>
</svg>
