<svg width="23" height="24" viewBox="0 0 23 24" fill="none" xmlns="http://www.w3.org/2000/svg">
<path d="M11.5313 0.743042C9.326 0.743042 7.17023 1.39699 5.33659 2.62219C3.50295 3.84739 2.0738 5.58881 1.22987 7.62624C0.385935 9.66368 0.165124 11.9056 0.595356 14.0685C1.02559 16.2315 2.08754 18.2182 3.64693 19.7776C5.20631 21.337 7.19308 22.399 9.35601 22.8292C11.5189 23.2594 13.7609 23.0386 15.7983 22.1947C17.8357 21.3507 19.5772 19.9216 20.8024 18.088C22.0276 16.2543 22.6815 14.0985 22.6815 11.8932C22.6784 8.93698 21.5026 6.1027 19.4122 4.01231C17.3218 1.92192 14.4876 0.746164 11.5313 0.743042ZM11.5313 21.328C9.66528 21.328 7.84116 20.7747 6.28962 19.738C4.73808 18.7013 3.5288 17.2278 2.8147 15.5038C2.10061 13.7798 1.91377 11.8828 2.27781 10.0526C2.64185 8.22244 3.54043 6.54132 4.85991 5.22184C6.17939 3.90236 7.8605 3.00379 9.69067 2.63974C11.5208 2.2757 13.4179 2.46254 15.1418 3.17664C16.8658 3.89073 18.3393 5.10001 19.376 6.65156C20.4127 8.2031 20.9661 10.0272 20.9661 11.8932C20.9633 14.3946 19.9683 16.7928 18.1996 18.5615C16.4308 20.3303 14.0327 21.3252 11.5313 21.328ZM18.393 11.8932C18.393 12.1207 18.3026 12.3389 18.1418 12.4997C17.9809 12.6606 17.7627 12.7509 17.5353 12.7509H11.5313C11.3038 12.7509 11.0857 12.6606 10.9248 12.4997C10.764 12.3389 10.6736 12.1207 10.6736 11.8932V5.88929C10.6736 5.66181 10.764 5.44365 10.9248 5.2828C11.0857 5.12194 11.3038 5.03158 11.5313 5.03158C11.7588 5.03158 11.9769 5.12194 12.1378 5.2828C12.2986 5.44365 12.389 5.66181 12.389 5.88929V11.0355H17.5353C17.7627 11.0355 17.9809 11.1259 18.1418 11.2867C18.3026 11.4476 18.393 11.6658 18.393 11.8932Z" fill="black"/>
</svg>
