<svg width="29" height="28" viewBox="0 0 29 28" fill="none" xmlns="http://www.w3.org/2000/svg">
<path d="M14.5315 15.9329C13.6833 15.9329 12.8541 15.6814 12.1489 15.2102C11.4436 14.7389 10.894 14.0692 10.5694 13.2855C10.2448 12.5019 10.1599 11.6396 10.3253 10.8077C10.4908 9.97583 10.8992 9.21168 11.499 8.61192C12.0988 8.01216 12.8629 7.60371 13.6948 7.43824C14.5267 7.27277 15.389 7.35769 16.1726 7.68228C16.9562 8.00687 17.626 8.55654 18.0972 9.26179C18.5685 9.96704 18.82 10.7962 18.82 11.6444C18.8186 12.7813 18.3664 13.8714 17.5624 14.6753C16.7584 15.4793 15.6684 15.9316 14.5315 15.9329ZM14.5315 9.07125C14.0225 9.07125 13.5251 9.22216 13.1019 9.5049C12.6788 9.78764 12.349 10.1895 12.1542 10.6597C11.9595 11.1299 11.9085 11.6472 12.0078 12.1464C12.1071 12.6455 12.3521 13.104 12.712 13.4638C13.0718 13.8237 13.5303 14.0688 14.0295 14.1681C14.5286 14.2673 15.046 14.2164 15.5162 14.0216C15.9863 13.8269 16.3882 13.4971 16.6709 13.0739C16.9537 12.6508 17.1046 12.1533 17.1046 11.6444C17.1039 10.9621 16.8326 10.3081 16.3502 9.82565C15.8678 9.34325 15.2137 9.07193 14.5315 9.07125Z" fill="black"/>
<path d="M14.5315 26.2253L7.29585 17.692C7.19531 17.5638 7.09581 17.4349 6.99737 17.3051C5.7614 15.677 5.09369 13.6884 5.09669 11.6443C5.09669 9.142 6.09071 6.74222 7.86007 4.97286C9.62944 3.20349 12.0292 2.20947 14.5315 2.20947C17.0337 2.20947 19.4335 3.20349 21.2029 4.97286C22.9722 6.74222 23.9663 9.142 23.9663 11.6443C23.9692 13.6874 23.3018 15.6752 22.0664 17.3026L22.0656 17.3051C22.0656 17.3051 21.8083 17.6431 21.7697 17.6885L14.5315 26.2253ZM8.36713 16.2716C8.36713 16.2716 8.56697 16.5358 8.61243 16.5924L14.5315 23.5733L20.4582 16.5829C20.496 16.5358 20.6967 16.2699 20.6975 16.269C21.7072 14.9388 22.2528 13.3142 22.2508 11.6443C22.2508 9.59695 21.4376 7.6335 19.9899 6.18584C18.5422 4.73818 16.5788 3.92489 14.5315 3.92489C12.4842 3.92489 10.5207 4.73818 9.07306 6.18584C7.62539 7.6335 6.8121 9.59695 6.8121 11.6443C6.8103 13.3153 7.35656 14.9408 8.36713 16.2716Z" fill="black"/>
</svg>
