<svg width="80" height="81" viewBox="0 0 80 81" fill="none" xmlns="http://www.w3.org/2000/svg">
<path d="M16.6667 20.4989C13.0001 20.4989 10.0001 23.4989 10.0001 27.1655C10.0001 30.8322 13.0001 33.8322 16.6667 33.8322C20.3334 33.8322 23.3334 30.8655 23.3334 27.1655C23.3334 23.4655 20.3667 20.4989 16.6667 20.4989ZM40.0001 13.8322C38.6815 13.8322 37.3926 14.2232 36.2963 14.9557C35.2 15.6883 34.3455 16.7295 33.8409 17.9476C33.3363 19.1658 33.2043 20.5063 33.4615 21.7995C33.7187 23.0927 34.3537 24.2806 35.286 25.2129C36.2184 26.1453 37.4063 26.7802 38.6995 27.0374C39.9927 27.2947 41.3331 27.1626 42.5513 26.6581C43.7695 26.1535 44.8107 25.299 45.5432 24.2027C46.2758 23.1063 46.6667 21.8174 46.6667 20.4989C46.6667 16.7989 43.7001 13.8322 40.0001 13.8322ZM63.3334 7.16553C59.6667 7.16553 56.6667 10.1655 56.6667 13.8322C56.6667 17.4989 59.6667 20.4989 63.3334 20.4989C67.0001 20.4989 70.0001 17.5322 70.0001 13.8322C70.0001 10.1322 67.0334 7.16553 63.3334 7.16553ZM11.6667 37.1655C8.90008 37.1655 6.66675 39.3989 6.66675 42.1655V57.1655H10.0001V73.8322H23.3334V57.1655H26.6667V42.1655C26.6667 39.3989 24.4334 37.1655 21.6667 37.1655H11.6667ZM35.0001 30.4989C32.2334 30.4989 30.0001 32.7322 30.0001 35.4989V50.4989H33.3334V67.1655H46.6667V50.4989H50.0001V35.4989C50.0001 32.7322 47.7667 30.4989 45.0001 30.4989H35.0001ZM58.3334 23.8322C55.5667 23.8322 53.3334 26.0655 53.3334 28.8322V43.8322H56.6667V60.4989H70.0001V43.8322H73.3334V28.8322C73.3334 26.0655 71.1001 23.8322 68.3334 23.8322H58.3334Z" fill="white"/>
</svg>
