<svg width="29" height="28" viewBox="0 0 29 28" fill="none" xmlns="http://www.w3.org/2000/svg">
<path d="M19.1059 3.43872C19.3861 3.43876 19.6564 3.5416 19.8657 3.72773C20.075 3.91386 20.2088 4.17034 20.2415 4.44853L20.2496 4.58233V5.72594H22.5368C23.1138 5.72576 23.6696 5.94369 24.0927 6.33605C24.5158 6.72841 24.775 7.26621 24.8183 7.84162L24.824 8.01316V21.7365C24.8242 22.3135 24.6062 22.8693 24.2139 23.2924C23.8215 23.7155 23.2837 23.9747 22.7083 24.018L22.5368 24.0237H6.52623C5.9492 24.0239 5.39341 23.806 4.9703 23.4136C4.54718 23.0212 4.28801 22.4834 4.24473 21.908L4.23901 21.7365V8.01316C4.23883 7.43612 4.45676 6.88034 4.84913 6.45722C5.24149 6.03411 5.77928 5.77494 6.35469 5.73166L6.52623 5.72594H8.81345V4.58233C8.81378 4.29085 8.92539 4.01049 9.12549 3.79854C9.32558 3.58658 9.59906 3.45904 9.89004 3.44195C10.181 3.42487 10.4675 3.51954 10.6911 3.70663C10.9146 3.89371 11.0582 4.15909 11.0927 4.44853L11.1007 4.58233V5.72594H17.9623V4.58233C17.9623 4.27903 18.0828 3.98814 18.2973 3.77368C18.5118 3.55921 18.8026 3.43872 19.1059 3.43872ZM22.5368 13.7312H6.52623V21.7365H22.5368V13.7312ZM22.5368 8.01316H6.52623V11.444H22.5368V8.01316Z" fill="black"/>
</svg>
