<svg width="80" height="81" viewBox="0 0 80 81" fill="none" xmlns="http://www.w3.org/2000/svg">
<path fill-rule="evenodd" clip-rule="evenodd" d="M52.0065 8.49877C51.2732 7.76543 50.3499 7.79877 49.8465 7.86543C49.3666 7.9321 48.7932 8.0921 48.2465 8.24877L47.8299 8.36543L47.4865 8.1521C47.0396 7.85234 46.5717 7.58499 46.0865 7.3521C45.5899 7.13877 44.7532 6.8921 43.8665 7.35543C42.9999 7.8121 42.7165 8.62543 42.5999 9.14543C42.4964 9.68136 42.4295 10.2237 42.3999 10.7688L42.3665 11.1921V11.2254L41.9932 11.5354C41.5499 11.9021 41.0865 12.2788 40.7599 12.6354C40.4132 13.0154 39.8799 13.7254 40.0165 14.7188C40.1565 15.7421 40.8999 16.2721 41.3632 16.5321C41.7832 16.7654 42.3332 16.9654 42.8499 17.1588L43.2132 17.2921L43.3465 17.6554C43.5365 18.1688 43.7399 18.7221 43.9732 19.1421C44.2299 19.6088 44.7632 20.3488 45.7865 20.4888C46.7765 20.6221 47.4865 20.0888 47.8665 19.7421C48.2265 19.4154 48.6032 18.9554 48.9699 18.5088L49.2765 18.1388H49.3099L49.7365 18.1054C50.2965 18.0588 50.8865 18.0121 51.3599 17.9054C51.8765 17.7888 52.6932 17.5054 53.1499 16.6388C53.6132 15.7554 53.3665 14.9121 53.1499 14.4154C52.9169 13.9303 52.6495 13.4625 52.3499 13.0154L52.1365 12.6754L52.2565 12.2554C52.421 11.7329 52.548 11.1993 52.6365 10.6588C52.7032 10.1521 52.7365 9.2321 52.0032 8.49877M49.0032 11.4988L48.7432 11.5721L48.6765 11.5921C48.2514 11.7371 47.8004 11.7905 47.3532 11.7488C46.9092 11.6692 46.4881 11.4928 46.1199 11.2321L46.0599 11.1954L45.7265 10.9821L45.6899 11.4521L45.6832 11.5254C45.6708 11.9687 45.5664 12.4046 45.3765 12.8054C45.1538 13.1881 44.8555 13.5216 44.4999 13.7854L44.4465 13.8321L44.1465 14.0821L44.3999 14.1788L44.4665 14.1988C44.7032 14.2854 45.2332 14.4721 45.6332 14.8721C46.0332 15.2721 46.2199 15.7988 46.3032 16.0388L46.3265 16.1054L46.4232 16.3621L46.6732 16.0588L46.7165 16.0021C46.8865 15.7921 47.2199 15.3754 47.6999 15.1254C48.1007 14.9356 48.5366 14.8312 48.9799 14.8188L49.0532 14.8121L49.5199 14.7788L49.3099 14.4388L49.2732 14.3821C49.0131 14.0136 48.8368 13.5926 48.7565 13.1488C48.7149 12.7015 48.7683 12.2506 48.9132 11.8254L48.9332 11.7588L49.0032 11.4988Z" fill="white"/>
<path d="M34.7833 11.0655C34.9567 10.7853 35.073 10.4736 35.1256 10.1483C35.1781 9.82294 35.1658 9.49045 35.0893 9.16991C35.0129 8.84937 34.8739 8.5471 34.6802 8.28049C34.4865 8.01388 34.2421 7.78818 33.9609 7.61639C33.6797 7.44459 33.3673 7.33008 33.0417 7.27945C32.7161 7.22881 32.3836 7.24305 32.0635 7.32134C31.7435 7.39963 31.442 7.54043 31.1765 7.73564C30.911 7.93086 30.6868 8.17663 30.5166 8.45882C29.6778 9.83158 29.3252 11.4466 29.5157 13.0441C29.7061 14.6415 30.4285 16.1284 31.5666 17.2655L31.8899 17.5922C32.2138 17.9155 32.4438 18.3207 32.5554 18.7645C32.6669 19.2083 32.6558 19.6741 32.5233 20.1122C32.3314 20.7469 32.3996 21.4319 32.7128 22.0164C33.026 22.6008 33.5585 23.037 34.1933 23.2288C34.828 23.4207 35.513 23.3525 36.0975 23.0393C36.682 22.7261 37.1181 22.1936 37.3099 21.5588C37.7039 20.2553 37.7367 18.8692 37.4051 17.5485C37.0734 16.2277 36.3896 15.0216 35.4266 14.0588L35.0999 13.7322C34.755 13.388 34.5361 12.9377 34.4787 12.4538C34.4212 11.9699 34.5285 11.4808 34.7833 11.0655ZM25.6199 13.6322C25.4536 13.4663 25.2562 13.3347 25.039 13.2451C24.8219 13.1555 24.5892 13.1095 24.3543 13.1098C23.8798 13.1105 23.425 13.2995 23.0899 13.6355C22.7549 13.9714 22.567 14.4267 22.5676 14.9012C22.5683 15.3756 22.7573 15.8304 23.0933 16.1655C23.2596 16.3314 23.457 16.4629 23.6742 16.5525C23.8913 16.6421 24.124 16.6881 24.359 16.6878C24.5939 16.6875 24.8265 16.6409 25.0434 16.5507C25.2603 16.4605 25.4574 16.3285 25.6233 16.1622C25.7892 15.9958 25.9207 15.7984 26.0103 15.5813C26.0999 15.3641 26.1459 15.1314 26.1456 14.8965C26.1453 14.6615 26.0987 14.429 26.0085 14.212C25.9183 13.9951 25.7863 13.7981 25.6199 13.6322ZM60.9266 19.1788C61.0566 18.5286 60.9229 17.8534 60.555 17.3017C60.1871 16.75 59.6152 16.3671 58.9649 16.2372C58.3147 16.1072 57.6395 16.2409 57.0878 16.6087C56.5362 16.9766 56.1532 17.5486 56.0233 18.1988L55.5433 20.5988C55.2333 22.1422 54.1199 23.3988 52.6299 23.8988C51.0601 24.422 49.6564 25.3508 48.5611 26.5912C47.4659 27.8317 46.718 29.3396 46.3933 30.9622L45.9133 33.3622C45.8081 34.0017 45.9554 34.6571 46.3242 35.1901C46.6929 35.7232 47.2543 36.0921 47.8899 36.2193C48.5254 36.3464 49.1855 36.2217 49.7309 35.8715C50.2763 35.5213 50.6644 34.973 50.8133 34.3422L51.2966 31.9422C51.6033 30.3988 52.7166 29.1422 54.2099 28.6422C55.7796 28.1182 57.1829 27.1887 58.2776 25.9477C59.3723 24.7066 60.1194 23.1983 60.4433 21.5755L60.9266 19.1788Z" fill="white"/>
<path fill-rule="evenodd" clip-rule="evenodd" d="M75.08 29.9721C75.93 31.8188 75.3567 33.9154 73.8 35.4721C72.8967 36.3721 71.6867 36.7821 70.61 36.9754C69.5067 37.1721 68.3434 37.1754 67.32 37.1088C66.1485 37.0311 64.9842 36.8674 63.8367 36.6188L63.6834 36.5855L63.6034 36.5654L63.5367 36.5488L63.5167 36.5455H63.51L63.91 34.9255L63.51 36.5421C63.2151 36.4697 62.9456 36.3181 62.7306 36.1037C62.5156 35.8892 62.3633 35.6201 62.29 35.3254V35.3154L62.2834 35.2955L62.2667 35.2288C62.1842 34.879 62.113 34.5266 62.0534 34.1721C61.8926 33.2924 61.7813 32.4043 61.72 31.5121C61.6367 30.415 61.6826 29.3119 61.8567 28.2255C62.05 27.1455 62.4567 25.9355 63.36 25.0321C64.9167 23.4755 67.0134 22.8988 68.86 23.7555C70.26 24.4021 71.1734 25.7088 71.5134 27.3188C73.1234 27.6621 74.43 28.5721 75.08 29.9721ZM65.32 33.5121C65.9134 33.6155 66.6967 33.7288 67.5334 33.7821C68.41 33.8388 69.2834 33.8255 70.0234 33.6921C70.79 33.5588 71.2267 33.3288 71.44 33.1154C72.25 32.3054 72.19 31.6654 72.0534 31.3688C71.9034 31.0488 71.3734 30.4955 70.0067 30.4988C69.7867 30.4997 69.5687 30.457 69.3653 30.3732C69.1619 30.2894 68.9771 30.1662 68.8215 30.0106C68.6659 29.8551 68.5427 29.6703 68.4589 29.4668C68.3752 29.2634 68.3325 29.0454 68.3334 28.8255C68.34 27.4588 67.7834 26.9255 67.4634 26.7788C67.1667 26.6455 66.5267 26.5788 65.7167 27.3921C65.5034 27.6055 65.2734 28.0421 65.14 28.8088C65.0138 29.6325 64.9836 30.4681 65.05 31.2988C65.1034 32.1321 65.2167 32.9188 65.32 33.5121Z" fill="white"/>
<path d="M67.7666 46.2655C68.2493 45.8373 68.8446 45.5563 69.482 45.4559C70.1194 45.3555 70.7723 45.4398 71.3632 45.6989L72.3332 46.1222C72.941 46.3878 73.6295 46.4012 74.2471 46.1593C74.8647 45.9173 75.3609 45.44 75.6266 44.8322C75.8922 44.2244 75.9056 43.536 75.6637 42.9184C75.4217 42.3007 74.9444 41.8045 74.3366 41.5389L73.3666 41.1155C71.9016 40.4748 70.2838 40.2668 68.7043 40.5161C67.1249 40.7653 65.6498 41.4615 64.4532 42.5222C63.3666 43.4889 61.7832 43.6489 60.5232 42.9222L59.8166 42.5122C59.2427 42.1859 58.563 42.0998 57.9259 42.2728C57.2888 42.4458 56.746 42.8637 56.4159 43.4355C56.0858 44.0072 55.9952 44.6862 56.164 45.3245C56.3327 45.9627 56.7471 46.5083 57.3166 46.8422L58.0232 47.2489C59.5457 48.1286 61.3065 48.5067 63.0559 48.3296C64.8054 48.1525 66.4546 47.4292 67.7699 46.2622M63.5266 51.5422C63.6929 51.3761 63.8904 51.2443 64.1076 51.1545C64.3249 51.0647 64.5577 51.0185 64.7928 51.0187C65.0278 51.0189 65.2606 51.0653 65.4777 51.1554C65.6949 51.2455 65.8921 51.3775 66.0582 51.5439C66.2244 51.7102 66.3561 51.9076 66.4459 52.1249C66.5357 52.3421 66.5819 52.575 66.5817 52.81C66.5816 53.0451 66.5351 53.2779 66.445 53.495C66.3549 53.7121 66.2229 53.9094 66.0566 54.0755C65.7206 54.411 65.2652 54.5993 64.7904 54.599C64.3156 54.5987 63.8604 54.4098 63.5249 54.0739C63.1894 53.7379 63.0011 53.2825 63.0014 52.8077C63.0017 52.3329 63.1906 51.8777 63.5266 51.5422ZM43.0532 24.3555C42.8871 24.1894 42.6899 24.0576 42.4729 23.9677C42.2558 23.8778 42.0232 23.8315 41.7882 23.8315C41.5533 23.8315 41.3207 23.8778 41.1036 23.9677C40.8866 24.0576 40.6894 24.1894 40.5232 24.3555C40.3571 24.5216 40.2253 24.7189 40.1354 24.9359C40.0455 25.153 39.9993 25.3856 39.9993 25.6205C39.9993 25.8555 40.0455 26.0881 40.1354 26.3051C40.2253 26.5222 40.3571 26.7194 40.5232 26.8855C40.6896 27.0516 40.887 27.1834 41.1043 27.2732C41.3215 27.363 41.5543 27.4092 41.7894 27.409C42.0245 27.4089 42.2573 27.3624 42.4744 27.2723C42.6915 27.1822 42.8888 27.0502 43.0549 26.8839C43.221 26.7175 43.3528 26.5201 43.4426 26.3028C43.5324 26.0856 43.5786 25.8528 43.5784 25.6177C43.5782 25.3826 43.5318 25.1498 43.4417 24.9327C43.3516 24.7156 43.2196 24.5216 43.0532 24.3555ZM57.1899 34.3555C57.356 34.1894 57.5532 34.0576 57.7703 33.9677C57.9873 33.8778 58.22 33.8315 58.4549 33.8315C58.6898 33.8315 58.9225 33.8778 59.1395 33.9677C59.3566 34.0576 59.5538 34.1894 59.7199 34.3555C59.886 34.5216 60.0178 34.7189 60.1077 34.9359C60.1976 35.153 60.2439 35.3856 60.2439 35.6205C60.2439 35.8555 60.1976 36.0881 60.1077 36.3051C60.0178 36.5222 59.886 36.7194 59.7199 36.8855C59.384 37.221 58.9285 37.4093 58.4537 37.409C57.979 37.4087 57.5237 37.2198 57.1882 36.8839C56.8527 36.5479 56.6644 36.0925 56.6648 35.6177C56.6651 35.1429 56.854 34.691 57.1899 34.3555Z" fill="white"/>
<path fill-rule="evenodd" clip-rule="evenodd" d="M32.1301 23.4488C34.0834 24.8954 36.3301 27.1488 39.0634 29.8754L50.6201 41.4321C53.3501 44.1654 55.6001 46.4121 57.0467 48.3654C58.5467 50.3854 59.6001 52.6288 58.9901 55.2121C58.3801 57.7988 56.4334 59.3321 54.1901 60.4688C52.0201 61.5688 49.0034 62.5754 45.3434 63.7954L28.0434 69.5621C23.6101 71.0388 20.0101 72.2388 17.2201 72.7354C14.4067 73.2354 11.5534 73.1854 9.43005 71.0654C7.31005 68.9454 7.26005 66.0888 7.76005 63.2721C8.25672 60.4854 9.45672 56.8854 10.9334 52.4521L16.7001 35.1521C17.9201 31.4921 18.9267 28.4754 20.0267 26.3054C21.1601 24.0621 22.6967 22.1154 25.2834 21.5054C27.8667 20.8954 30.1101 21.9521 32.1301 23.4488ZM29.1534 27.4654C29.0959 27.4228 29.0382 27.3806 28.9801 27.3388L28.8601 28.0054C28.4844 30.0899 28.1488 32.1814 27.8534 34.2788C27.1434 39.3288 26.5467 45.4354 26.8534 50.1154C27.0367 52.9488 27.6434 56.6154 28.2234 59.6388C28.4986 61.076 28.793 62.5095 29.1067 63.9388L37.8901 61.0054C37.6567 60.3221 37.3834 59.4388 37.1067 58.4154C36.4434 55.9488 35.7567 52.5554 35.7567 49.0154C35.7856 45.7875 36.2407 42.5775 37.1101 39.4688C37.4222 38.3255 37.7882 37.1976 38.2067 36.0888L35.6734 33.5554C32.7601 30.6454 30.7734 28.6654 29.1534 27.4654ZM21.3767 36.9321C21.9525 35.1713 22.5537 33.4189 23.1801 31.6754C23.0841 32.3116 22.9919 32.9482 22.9034 33.5854C22.1834 38.6954 21.5201 45.2254 21.8634 50.4421C22.0701 53.6021 22.7267 57.5188 23.3134 60.5754C23.6308 62.2294 23.9731 63.8784 24.3401 65.5221C20.8701 66.6688 18.3134 67.4621 16.3467 67.8121C13.9434 68.2388 13.2801 67.8421 12.9667 67.5288C12.6534 67.2154 12.2567 66.5521 12.6834 64.1488C13.1067 61.7654 14.1834 58.5154 15.7467 53.8288L21.3767 36.9321ZM43.5634 59.1188L42.6334 59.4288C42.1389 57.9599 41.7326 56.4628 41.4167 54.9454C40.9976 52.996 40.7764 51.0093 40.7567 49.0154C40.787 45.9696 41.2562 42.944 42.1501 40.0321L46.9367 44.8221C49.8501 47.7354 51.8301 49.7221 53.0301 51.3421C54.2101 52.9354 54.2267 53.6288 54.1234 54.0654C54.0201 54.4988 53.6967 55.1154 51.9301 56.0088C50.1301 56.9221 47.4701 57.8154 43.5634 59.1188Z" fill="white"/>
</svg>
