<svg width="80" height="80" viewBox="0 0 80 80" fill="none" xmlns="http://www.w3.org/2000/svg">
<path d="M16.6666 20.0001C13 20.0001 9.99996 23.0001 9.99996 26.6667C9.99996 30.3334 13 33.3334 16.6666 33.3334C20.3333 33.3334 23.3333 30.3667 23.3333 26.6667C23.3333 22.9667 20.3666 20.0001 16.6666 20.0001ZM40 13.3334C38.6814 13.3334 37.3925 13.7244 36.2962 14.457C35.1998 15.1895 34.3453 16.2307 33.8408 17.4489C33.3362 18.667 33.2042 20.0075 33.4614 21.3007C33.7186 22.5939 34.3536 23.7818 35.2859 24.7141C36.2183 25.6465 37.4061 26.2814 38.6994 26.5387C39.9926 26.7959 41.333 26.6639 42.5512 26.1593C43.7694 25.6547 44.8105 24.8002 45.5431 23.7039C46.2756 22.6076 46.6666 21.3186 46.6666 20.0001C46.6666 16.3001 43.7 13.3334 40 13.3334ZM63.3333 6.66675C59.6666 6.66675 56.6666 9.66675 56.6666 13.3334C56.6666 17.0001 59.6666 20.0001 63.3333 20.0001C67 20.0001 70 17.0334 70 13.3334C70 9.63341 67.0333 6.66675 63.3333 6.66675ZM11.6666 36.6667C8.89996 36.6667 6.66663 38.9001 6.66663 41.6667V56.6667H9.99996V73.3334H23.3333V56.6667H26.6666V41.6667C26.6666 38.9001 24.4333 36.6667 21.6666 36.6667H11.6666ZM35 30.0001C32.2333 30.0001 30 32.2334 30 35.0001V50.0001H33.3333V66.6667H46.6666V50.0001H50V35.0001C50 32.2334 47.7666 30.0001 45 30.0001H35ZM58.3333 23.3334C55.5666 23.3334 53.3333 25.5667 53.3333 28.3334V43.3334H56.6666V60.0001H70V43.3334H73.3333V28.3334C73.3333 25.5667 71.1 23.3334 68.3333 23.3334H58.3333Z" fill="black"/>
</svg>
